<svg xmlns="http://www.w3.org/2000/svg" xmlns:xlink="http://www.w3.org/1999/xlink" width="400" height="388.333" viewBox="0 0 400 388.333">
  <defs>
    <clipPath id="clip-path">
      <path id="Path_885915" data-name="Path 885915" d="M0-23H400V365.333H0Z" transform="translate(-0.289 23.333)" fill="none"/>
    </clipPath>
  </defs>
  <g id="Group_1101954" data-name="Group 1101954" transform="translate(0.289 49.601)">
    <g id="Mask_Group_1098698" data-name="Mask Group 1098698" transform="translate(0 -49.934)" clip-path="url(#clip-path)">
      <g id="Group_1103999" data-name="Group 1103999" transform="translate(597.711 -38.888)">
        <g id="Group_1103954" data-name="Group 1103954" transform="translate(-511.329 50.569)">
          <g id="Group_1103953" data-name="Group 1103953">
            <rect id="Rectangle_405459" data-name="Rectangle 405459" width="50.841" height="65.32" rx="6.696" transform="matrix(0.963, -0.27, 0.27, 0.963, 0, 13.734)" fill="#e6e6e6"/>
          </g>
          <path id="Path_895121" data-name="Path 895121" d="M-464.383,73.048l-26.66,7.48a2.169,2.169,0,0,1-2.674-1.5h0a2.169,2.169,0,0,1,1.5-2.675l26.661-7.48a2.169,2.169,0,0,1,2.674,1.5h0A2.169,2.169,0,0,1-464.383,73.048Z" transform="translate(507.204 -52.046)" fill="#f0f0f0"/>
          <path id="Path_895122" data-name="Path 895122" d="M-461.209,84.361l-26.661,7.48a2.167,2.167,0,0,1-2.674-1.5h0a2.168,2.168,0,0,1,1.5-2.674l26.66-7.48a2.168,2.168,0,0,1,2.674,1.5h0A2.169,2.169,0,0,1-461.209,84.361Z" transform="translate(507.027 -52.675)" fill="#f0f0f0"/>
          <path id="Path_895123" data-name="Path 895123" d="M-458.035,95.675l-26.66,7.48a2.17,2.17,0,0,1-2.675-1.5h0a2.168,2.168,0,0,1,1.5-2.674l26.66-7.481a2.17,2.17,0,0,1,2.675,1.5h0A2.17,2.17,0,0,1-458.035,95.675Z" transform="translate(506.851 -53.304)" fill="#f0f0f0"/>
          <path id="Path_895124" data-name="Path 895124" d="M-469.448,111.322l-12.072,3.387a2.169,2.169,0,0,1-2.675-1.5h0a2.17,2.17,0,0,1,1.5-2.675l12.072-3.388a2.17,2.17,0,0,1,2.675,1.5h0A2.17,2.17,0,0,1-469.448,111.322Z" transform="translate(506.674 -54.174)" fill="#f0f0f0"/>
        </g>
        <g id="Group_1103956" data-name="Group 1103956" transform="translate(-568 253.184)">
          <g id="Group_1103955" data-name="Group 1103955">
            <rect id="Rectangle_405460" data-name="Rectangle 405460" width="25.826" height="33.181" rx="3.512" transform="translate(0 10.081) rotate(-22.977)" fill="#e6e6e6"/>
          </g>
          <path id="Path_895125" data-name="Path 895125" d="M-545.51,277.1l-12.95,5.491a1.1,1.1,0,0,1-1.444-.585h0a1.1,1.1,0,0,1,.584-1.444l12.95-5.491a1.1,1.1,0,0,1,1.444.584h0A1.1,1.1,0,0,1-545.51,277.1Z" transform="translate(567.555 -266.123)" fill="#f0f0f0"/>
          <path id="Path_895126" data-name="Path 895126" d="M-543.18,282.6l-12.95,5.491a1.1,1.1,0,0,1-1.444-.585h0a1.1,1.1,0,0,1,.584-1.444l12.95-5.491a1.1,1.1,0,0,1,1.445.585h0A1.1,1.1,0,0,1-543.18,282.6Z" transform="translate(567.426 -266.429)" fill="#f0f0f0"/>
          <path id="Path_895127" data-name="Path 895127" d="M-540.85,288.092l-12.95,5.49a1.1,1.1,0,0,1-1.444-.584h0a1.1,1.1,0,0,1,.584-1.445l12.95-5.491a1.1,1.1,0,0,1,1.445.585h0A1.1,1.1,0,0,1-540.85,288.092Z" transform="translate(567.296 -266.734)" fill="#f0f0f0"/>
          <path id="Path_895128" data-name="Path 895128" d="M-545.606,296.768l-5.864,2.487a1.1,1.1,0,0,1-1.444-.585h0a1.1,1.1,0,0,1,.584-1.444l5.864-2.487a1.1,1.1,0,0,1,1.445.585h0A1.1,1.1,0,0,1-545.606,296.768Z" transform="translate(567.167 -267.217)" fill="#f0f0f0"/>
        </g>
        <g id="Group_1103973" data-name="Group 1103973" transform="translate(-480.642 42.221)">
          <rect id="Rectangle_405461" data-name="Rectangle 405461" width="254.189" height="354.259" rx="7.427" transform="translate(0 26.217)" fill="#7d3a1b"/>
          <rect id="Rectangle_405462" data-name="Rectangle 405462" width="235.722" height="305.68" transform="translate(9.234 61.547)" opacity="0.3"/>
          <g id="Group_1103970" data-name="Group 1103970" transform="translate(9.66 39.225)">
            <rect id="Rectangle_405463" data-name="Rectangle 405463" width="235.722" height="318.66" fill="#fff"/>
            <rect id="Rectangle_405464" data-name="Rectangle 405464" width="181.496" height="9.804" transform="translate(27.113 30.289)" fill="#e0e0e0"/>
            <rect id="Rectangle_405465" data-name="Rectangle 405465" width="181.496" height="9.804" transform="translate(26.687 289.982)" fill="#e0e0e0"/>
            <g id="Group_1103957" data-name="Group 1103957" transform="translate(34.152 153.725)">
              <rect id="Rectangle_405466" data-name="Rectangle 405466" width="131.632" height="0.944" fill="#263238"/>
              <rect id="Rectangle_405467" data-name="Rectangle 405467" width="131.632" height="0.944" transform="translate(0 13.829)" fill="#263238"/>
            </g>
            <g id="Group_1103959" data-name="Group 1103959" transform="translate(182.598 148.778)">
              <path id="Path_895129" data-name="Path 895129" d="M-247.028,266.446h-24.9v-24.9h24.9Zm-23.953-.944h23.009v-23.01h-23.009Z" transform="translate(271.925 -241.305)" fill="#263238"/>
              <g id="Group_1103958" data-name="Group 1103958" transform="translate(2.418)">
                <path id="Path_895130" data-name="Path 895130" d="M-256.254,263.492l-13.11-9.762,3.407-4.575,8.791,6.546,12.079-14.41,4.371,3.664Z" transform="translate(269.365 -241.291)" fill="#ffb937"/>
              </g>
            </g>
            <g id="Group_1103960" data-name="Group 1103960" transform="translate(34.152 109.971)">
              <rect id="Rectangle_405468" data-name="Rectangle 405468" width="131.632" height="0.944" fill="#263238"/>
              <rect id="Rectangle_405469" data-name="Rectangle 405469" width="131.632" height="0.944" transform="translate(0 13.83)" fill="#263238"/>
            </g>
            <g id="Group_1103962" data-name="Group 1103962" transform="translate(182.598 105.024)">
              <path id="Path_895131" data-name="Path 895131" d="M-247.028,220.116h-24.9v-24.9h24.9Zm-23.953-.944h23.009V196.163h-23.009Z" transform="translate(271.925 -194.975)" fill="#263238"/>
              <g id="Group_1103961" data-name="Group 1103961" transform="translate(2.418)">
                <path id="Path_895132" data-name="Path 895132" d="M-256.254,217.162l-13.11-9.762,3.407-4.575,8.791,6.546,12.079-14.41,4.371,3.664Z" transform="translate(269.365 -194.961)" fill="#ffb937"/>
              </g>
            </g>
            <g id="Group_1103963" data-name="Group 1103963" transform="translate(34.152 66.218)">
              <rect id="Rectangle_405470" data-name="Rectangle 405470" width="131.632" height="0.944" fill="#263238"/>
              <rect id="Rectangle_405471" data-name="Rectangle 405471" width="131.632" height="0.944" transform="translate(0 13.829)" fill="#263238"/>
            </g>
            <g id="Group_1103965" data-name="Group 1103965" transform="translate(182.598 61.27)">
              <path id="Path_895133" data-name="Path 895133" d="M-247.028,173.787h-24.9v-24.9h24.9Zm-23.953-.944h23.009v-23.01h-23.009Z" transform="translate(271.925 -148.646)" fill="#263238"/>
              <g id="Group_1103964" data-name="Group 1103964" transform="translate(2.418)">
                <path id="Path_895134" data-name="Path 895134" d="M-256.254,170.833l-13.11-9.762,3.407-4.575,8.791,6.546,12.079-14.41,4.371,3.664Z" transform="translate(269.365 -148.632)" fill="#ffb937"/>
              </g>
            </g>
            <g id="Group_1103966" data-name="Group 1103966" transform="translate(34.152 196.729)">
              <rect id="Rectangle_405472" data-name="Rectangle 405472" width="131.632" height="0.944" fill="#263238"/>
              <rect id="Rectangle_405473" data-name="Rectangle 405473" width="131.632" height="0.944" transform="translate(0 13.829)" fill="#263238"/>
            </g>
            <g id="Group_1103967" data-name="Group 1103967" transform="translate(182.598 192.024)">
              <path id="Path_895135" data-name="Path 895135" d="M-247.028,311.98h-24.9v-24.9h24.9Zm-23.953-.944h23.009V288.027h-23.009Z" transform="translate(271.925 -287.083)" fill="#263238"/>
            </g>
            <g id="Group_1103968" data-name="Group 1103968" transform="translate(34.152 239.732)">
              <rect id="Rectangle_405474" data-name="Rectangle 405474" width="131.632" height="0.944" fill="#263238"/>
              <rect id="Rectangle_405475" data-name="Rectangle 405475" width="131.632" height="0.944" transform="translate(0 13.829)" fill="#263238"/>
            </g>
            <g id="Group_1103969" data-name="Group 1103969" transform="translate(182.598 235.027)">
              <path id="Path_895136" data-name="Path 895136" d="M-247.028,357.515h-24.9v-24.9h24.9Zm-23.953-.944h23.009v-23.01h-23.009Z" transform="translate(271.925 -332.617)" fill="#263238"/>
            </g>
          </g>
          <g id="Group_1103972" data-name="Group 1103972" transform="translate(86.778)">
            <g id="Group_1103971" data-name="Group 1103971" transform="translate(0 0)">
              <rect id="Rectangle_405476" data-name="Rectangle 405476" width="80.633" height="30.412" transform="translate(0 20.089)" fill="#263238"/>
              <path id="Path_895137" data-name="Path 895137" d="M-316.977,65.379h-47.152l-5.258-23.158h58.863Z" transform="translate(382.823 -42.221)" fill="#263238"/>
            </g>
            <path id="Path_895138" data-name="Path 895138" d="M-312.514,42.221c-.055.144-6.28,19.826-6.127,19.826h5.35l5.666-19.826Z" transform="translate(380.002 -42.221)" opacity="0.3"/>
            <path id="Path_895139" data-name="Path 895139" d="M-303.757,63.492s-.389,30.412,0,30.412h5.207V63.492Z" transform="translate(379.184 -43.403)" opacity="0.3"/>
          </g>
        </g>
        <g id="Group_1103977" data-name="Group 1103977" transform="translate(-554.889 114.356)">
          <g id="Group_1103976" data-name="Group 1103976" transform="translate(0 2.149)">
            <g id="Group_1103974" data-name="Group 1103974">
              <path id="Path_895140" data-name="Path 895140" d="M-542.962,120.877h24.026a11.155,11.155,0,0,1,11.155,11.155V145.5a11.156,11.156,0,0,1-11.155,11.155H-524.4l-.873,6.221-6.631-6.221h-11.057A11.155,11.155,0,0,1-554.117,145.5V132.032A11.155,11.155,0,0,1-542.962,120.877Z" transform="translate(554.117 -120.877)" fill="#efb499"/>
            </g>
            <g id="Group_1103975" data-name="Group 1103975" transform="translate(10.385 15.059)">
              <path id="Path_895141" data-name="Path 895141" d="M-537.378,139.694a2.872,2.872,0,0,1-2.872,2.872,2.872,2.872,0,0,1-2.871-2.872,2.872,2.872,0,0,1,2.871-2.872A2.872,2.872,0,0,1-537.378,139.694Z" transform="translate(543.121 -136.822)" fill="#fff"/>
              <path id="Path_895142" data-name="Path 895142" d="M-527.019,139.694a2.873,2.873,0,0,1-2.872,2.872,2.872,2.872,0,0,1-2.871-2.872,2.872,2.872,0,0,1,2.871-2.872A2.873,2.873,0,0,1-527.019,139.694Z" transform="translate(542.545 -136.822)" fill="#fff"/>
              <path id="Path_895143" data-name="Path 895143" d="M-516.387,139.694a2.872,2.872,0,0,1-2.872,2.872,2.872,2.872,0,0,1-2.871-2.872,2.872,2.872,0,0,1,2.871-2.872A2.872,2.872,0,0,1-516.387,139.694Z" transform="translate(541.954 -136.822)" fill="#fff"/>
            </g>
          </g>
          <path id="Path_895144" data-name="Path 895144" d="M-542.982,119.31h15.239a.354.354,0,0,0,0-.708h-15.239a.354.354,0,0,0,0,.708Z" transform="translate(553.517 -118.602)" fill="#407bff"/>
          <path id="Path_895145" data-name="Path 895145" d="M-524.823,119.31h1.277a.359.359,0,0,0,.354-.354.36.36,0,0,0-.354-.354h-1.277a.358.358,0,0,0-.354.354.361.361,0,0,0,.354.354Z" transform="translate(552.508 -118.602)" fill="#407bff"/>
        </g>
        <g id="freepik--Plant--inject-2" transform="translate(-556.944 331.87)">
          <path id="Path_895146" data-name="Path 895146" d="M-538.1,429.616c0-.4-4.162-40.465,5.031-74.547l1.176.306c-9.123,33.87-5.032,73.724-5.032,74.124Z" transform="translate(555.334 -349.262)" fill="#263238"/>
          <path id="Path_895147" data-name="Path 895147" d="M-528.1,364.219s-12.662,23.513-10.134,51.222C-538.238,415.441-532.971,381.395-528.1,364.219Z" transform="translate(555.308 -349.77)" fill="#09614d"/>
          <path id="Path_895148" data-name="Path 895148" d="M-554.139,351.895s18.481,25.993,15.283,59.181C-538.879,411.111-546.062,369.377-554.139,351.895Z" transform="translate(556.174 -349.085)" fill="#09614d"/>
          <path id="Path_895149" data-name="Path 895149" d="M-539.058,420.447s4-34.317-17.235-44.228C-556.352,376.219-545.03,384.589-539.058,420.447Z" transform="translate(556.293 -350.437)" fill="#09614d"/>
          <path id="Path_895150" data-name="Path 895150" d="M-535.812,355.256l-.388.071a1.023,1.023,0,0,0-.824,1.189c.007.035.015.07.025.1l.47,1.7a1.023,1.023,0,0,0,1.257.717,1.022,1.022,0,0,0,.448-.258l.635-.611a1.034,1.034,0,0,1,1.463.038,1.056,1.056,0,0,1,.219.349l.858,2.352a1.023,1.023,0,0,0,1.308.618,1.011,1.011,0,0,0,.185-.089l1.976-1.176a1.023,1.023,0,0,0,.352-1.4,1.022,1.022,0,0,0-.141-.184l-.317-.33a1.034,1.034,0,0,1,.049-1.462,1.037,1.037,0,0,1,.668-.278h1.716a1.023,1.023,0,0,0,1-1.046,1.006,1.006,0,0,0-.011-.129l-.188-1.47a1.023,1.023,0,0,0-1.144-.886,1.01,1.01,0,0,0-.326.1l-.118.059a1.033,1.033,0,0,1-1.372-.505,1.036,1.036,0,0,1-.015-.835l.565-1.293a1.023,1.023,0,0,0-.531-1.346,1,1,0,0,0-.28-.076l-1.823-.247a1.022,1.022,0,0,0-1.163.858.971.971,0,0,0-.011.129h0a1.035,1.035,0,0,1-1.083.984,1.037,1.037,0,0,1-.845-.514l-.235-.423a1.035,1.035,0,0,0-1.412-.384,1.108,1.108,0,0,0-.187.137l-1.351,1.27a1.033,1.033,0,0,0-.043,1.462.447.447,0,0,0,.043.043l1.081,1a1.035,1.035,0,0,1,.037,1.463A1.03,1.03,0,0,1-535.812,355.256Z" transform="translate(555.223 -348.92)" fill="#407bff"/>
          <path id="Path_895151" data-name="Path 895151" d="M-535.812,355.256l-.388.071a1.023,1.023,0,0,0-.824,1.189c.007.035.015.07.025.1l.47,1.7a1.023,1.023,0,0,0,1.257.717,1.022,1.022,0,0,0,.448-.258l.635-.611a1.034,1.034,0,0,1,1.463.038,1.056,1.056,0,0,1,.219.349l.858,2.352a1.023,1.023,0,0,0,1.308.618,1.011,1.011,0,0,0,.185-.089l1.976-1.176a1.023,1.023,0,0,0,.352-1.4,1.022,1.022,0,0,0-.141-.184l-.317-.33a1.034,1.034,0,0,1,.049-1.462,1.037,1.037,0,0,1,.668-.278h1.716a1.023,1.023,0,0,0,1-1.046,1.006,1.006,0,0,0-.011-.129l-.188-1.47a1.023,1.023,0,0,0-1.144-.886,1.01,1.01,0,0,0-.326.1l-.118.059a1.033,1.033,0,0,1-1.372-.505,1.036,1.036,0,0,1-.015-.835l.565-1.293a1.023,1.023,0,0,0-.531-1.346,1,1,0,0,0-.28-.076l-1.823-.247a1.022,1.022,0,0,0-1.163.858.971.971,0,0,0-.011.129h0a1.035,1.035,0,0,1-1.083.984,1.037,1.037,0,0,1-.845-.514l-.235-.423a1.035,1.035,0,0,0-1.412-.384,1.108,1.108,0,0,0-.187.137l-1.351,1.27a1.033,1.033,0,0,0-.043,1.462.447.447,0,0,0,.043.043l1.081,1a1.035,1.035,0,0,1,.037,1.463A1.03,1.03,0,0,1-535.812,355.256Z" transform="translate(555.223 -348.92)" fill="#fff" opacity="0.7" style="isolation: isolate"/>
          <path id="Path_895152" data-name="Path 895152" d="M-535.144,413.026l1.482-11.462H-546.6l1.469,11.462a15.343,15.343,0,0,0-10.345,14.484,25.351,25.351,0,0,0,2.516,10.216,8.958,8.958,0,0,0,8.147,5.1h9.4a8.925,8.925,0,0,0,8.136-5.1,25.206,25.206,0,0,0,2.527-10.216A15.285,15.285,0,0,0-535.144,413.026Z" transform="translate(556.248 -351.846)" fill="#407bff"/>
          <path id="Path_895153" data-name="Path 895153" d="M-535.144,413.026l1.482-11.462H-546.6l1.469,11.462a15.343,15.343,0,0,0-10.345,14.484,25.351,25.351,0,0,0,2.516,10.216,8.958,8.958,0,0,0,8.147,5.1h9.4a8.925,8.925,0,0,0,8.136-5.1,25.206,25.206,0,0,0,2.527-10.216A15.285,15.285,0,0,0-535.144,413.026Z" transform="translate(556.248 -351.846)" fill="#fff" opacity="0.7" style="isolation: isolate"/>
        </g>
        <g id="Group_1103998" data-name="Group 1103998" transform="translate(-531.961 148.865)">
          <g id="Group_1103978" data-name="Group 1103978" transform="translate(46.055 48.243)">
            <path id="Path_895154" data-name="Path 895154" d="M-469.745,206.225s12.735,30.16,14.364,30.315,22.447-7.958,22.447-7.958l3.237,3.659s-10.9,14.58-28.162,19.207c-3.1.833-7.016-2.679-10.747-7.482-.732-.933-1.446-1.921-2.159-2.936a149.553,149.553,0,0,1-10.308-17.809Z" transform="translate(481.074 -206.225)" fill="#f0be61"/>
            <path id="Path_895155" data-name="Path 895155" d="M-469.745,206.225s12.735,30.16,14.364,30.315,22.447-7.958,22.447-7.958l3.237,3.659s-10.9,14.58-28.162,19.207c-3.1.833-7.016-2.679-10.747-7.482-.732-.933-1.446-1.921-2.159-2.936a149.553,149.553,0,0,1-10.308-17.809Z" transform="translate(481.074 -206.225)" fill="#f0be61" opacity="0.6"/>
            <path id="Path_895156" data-name="Path 895156" d="M-466.758,214.567a103.22,103.22,0,0,0,4.175,12.682,7.232,7.232,0,0,1,.469,3.852c-.642,3.739-3.872,4.935-4.947,7.915a19.33,19.33,0,0,0-1.033,5.415c-.732-.933-1.446-1.921-2.159-2.936l-1.591-6.293Z" transform="translate(480.561 -206.689)" fill="#f0be61" opacity="0.2" style="isolation: isolate"/>
          </g>
          <g id="Group_1103980" data-name="Group 1103980" transform="translate(20.307 247.933)">
            <path id="Path_895157" data-name="Path 895157" d="M-504.442,438.227l7.769-.348,2.881-20.209-11.837.4Z" transform="translate(508.187 -417.67)" fill="#b97964"/>
            <g id="Group_1103979" data-name="Group 1103979" transform="translate(0 15.775)">
              <path id="Path_895158" data-name="Path 895158" d="M-495.877,435.315h-2.762a1.962,1.962,0,0,0-1.573.821c-1.593,2.176-2.791,1.354-4.525-.692-1.1-.128-1.4,1.136-1.488,1.476l-2.065,7.514a1.182,1.182,0,0,0,.811,1.461,1.175,1.175,0,0,0,.344.045h21.892c3.482,0,4.2-3.508,2.769-3.833-6.449-1.425-11.017-3.323-13.01-5.2C-495.855,436.579-495.475,436.332-495.877,435.315Z" transform="translate(508.337 -434.426)" fill="#263238"/>
              <path id="Path_895159" data-name="Path 895159" d="M-489.686,437.885a1.123,1.123,0,0,0,.468-.9.5.5,0,0,0-.225-.486c-.866-.614-4.321,1-4.709,1.19a.155.155,0,0,0-.093.093.152.152,0,0,0,.093.2,12.523,12.523,0,0,0,2.589.333A3.084,3.084,0,0,0-489.686,437.885Zm.026-1.127a.2.2,0,0,1,.091.207.9.9,0,0,1-.343.658c-.785.586-2.679.334-3.7.145C-492.175,437.137-490.137,436.424-489.659,436.758Z" transform="translate(507.555 -434.484)" fill="#407bff"/>
              <path id="Path_895160" data-name="Path 895160" d="M-494.035,437.9c1.037-.433,3.211-2.138,3.094-3.04-.018-.189-.153-.415-.622-.478-1.895-.216-2.706,3.185-2.706,3.329a.155.155,0,0,0,.044.162.193.193,0,0,0,.109,0Zm2.408-3.238c.352.036.352.162.352.208.1.55-1.48,1.966-2.608,2.561.235-.793.929-2.778,2.13-2.778Z" transform="translate(507.556 -434.374)" fill="#407bff"/>
              <path id="Path_895161" data-name="Path 895161" d="M-496.234,439.7a.241.241,0,0,1-.126-.036.236.236,0,0,1-.074-.326,3.572,3.572,0,0,1,2.514-1.62.238.238,0,0,1,.266.2.238.238,0,0,1-.2.266,3.091,3.091,0,0,0-2.179,1.4A.236.236,0,0,1-496.234,439.7Z" transform="translate(507.678 -434.56)" fill="#407bff"/>
              <path id="Path_895162" data-name="Path 895162" d="M-494.416,441.073a.238.238,0,0,1-.126-.036.236.236,0,0,1-.074-.326,3.58,3.58,0,0,1,2.515-1.62.242.242,0,0,1,.265.2.237.237,0,0,1-.2.267,3.1,3.1,0,0,0-2.179,1.4A.235.235,0,0,1-494.416,441.073Z" transform="translate(507.577 -434.636)" fill="#407bff"/>
              <path id="Path_895163" data-name="Path 895163" d="M-492.153,442.225a.234.234,0,0,1-.126-.037.235.235,0,0,1-.074-.325,3.572,3.572,0,0,1,2.514-1.621.239.239,0,0,1,.265.2.236.236,0,0,1-.2.266,3.1,3.1,0,0,0-2.178,1.4A.235.235,0,0,1-492.153,442.225Z" transform="translate(507.451 -434.7)" fill="#407bff"/>
            </g>
            <path id="Path_895164" data-name="Path 895164" d="M-495.326,429.336l-.371,2.6-9.127-.16-.144-2.439Z" transform="translate(508.15 -418.318)" opacity="0.3"/>
          </g>
          <g id="Group_1103982" data-name="Group 1103982" transform="translate(52.824 246.051)">
            <path id="Path_895165" data-name="Path 895165" d="M-470.17,436.118l8.432-1.068L-459.88,416l-11.567-.323Z" transform="translate(473.77 -415.676)" fill="#b97964"/>
            <g id="Group_1103981" data-name="Group 1103981" transform="translate(0 16.517)">
              <path id="Path_895166" data-name="Path 895166" d="M-461.446,434.5h-2.763a1.96,1.96,0,0,0-1.572.821c-1.594,2.176-2.792,1.354-4.525-.692-1.1-.128-1.4,1.136-1.488,1.476l-2.065,7.514a1.181,1.181,0,0,0,.811,1.461,1.169,1.169,0,0,0,.343.045h21.893c3.482,0,4.2-3.508,2.769-3.833-6.449-1.425-11.017-3.323-13.01-5.2C-461.424,435.769-461.044,435.523-461.446,434.5Z" transform="translate(473.907 -433.24)" fill="#263238"/>
              <path id="Path_895167" data-name="Path 895167" d="M-454.633,436.677a1.126,1.126,0,0,0,.469-.9.5.5,0,0,0-.226-.486c-.866-.614-4.321,1-4.709,1.19a.16.16,0,0,0-.093.093.154.154,0,0,0,.093.2,12.527,12.527,0,0,0,2.59.333A3.079,3.079,0,0,0-454.633,436.677Zm.027-1.128a.2.2,0,0,1,.091.208.9.9,0,0,1-.343.658c-.785.586-2.679.334-3.7.145C-457.122,435.929-455.083,435.216-454.605,435.549Z" transform="translate(473.089 -433.276)" fill="#407bff"/>
              <path id="Path_895168" data-name="Path 895168" d="M-458.981,436.693c1.037-.433,3.211-2.138,3.094-3.04-.018-.189-.154-.415-.622-.478-1.894-.216-2.707,3.185-2.707,3.329a.152.152,0,0,0,.045.162.178.178,0,0,0,.109,0Zm2.408-3.238c.351.036.351.162.351.208.1.55-1.479,1.966-2.607,2.561.234-.793.929-2.777,2.129-2.777Z" transform="translate(473.09 -433.165)" fill="#407bff"/>
              <path id="Path_895169" data-name="Path 895169" d="M-461.18,438.5a.242.242,0,0,1-.126-.036.237.237,0,0,1-.075-.326,3.578,3.578,0,0,1,2.515-1.621.241.241,0,0,1,.265.2.237.237,0,0,1-.2.267,3.1,3.1,0,0,0-2.179,1.4A.233.233,0,0,1-461.18,438.5Z" transform="translate(473.212 -433.352)" fill="#407bff"/>
              <path id="Path_895170" data-name="Path 895170" d="M-459.362,439.865a.233.233,0,0,1-.126-.036.236.236,0,0,1-.074-.326,3.574,3.574,0,0,1,2.514-1.62.244.244,0,0,1,.266.2.238.238,0,0,1-.2.267,3.094,3.094,0,0,0-2.179,1.4A.236.236,0,0,1-459.362,439.865Z" transform="translate(473.111 -433.428)" fill="#407bff"/>
              <path id="Path_895171" data-name="Path 895171" d="M-457.1,441.017a.236.236,0,0,1-.126-.037.235.235,0,0,1-.074-.325,3.576,3.576,0,0,1,2.515-1.621.241.241,0,0,1,.265.2.236.236,0,0,1-.2.266,3.1,3.1,0,0,0-2.179,1.4A.235.235,0,0,1-457.1,441.017Z" transform="translate(472.985 -433.492)" fill="#407bff"/>
            </g>
            <path id="Path_895172" data-name="Path 895172" d="M-460.952,428.128l-.254,2.607-9.3-.06-.159-2.547Z" transform="translate(473.727 -416.369)" opacity="0.3"/>
          </g>
          <g id="Group_1103983" data-name="Group 1103983" transform="translate(14.207 1.832)">
            <path id="Path_895173" data-name="Path 895173" d="M-513.028,230.312c4.908-7.66-1.922-15.253-1.766-24.185s3.986-17.787,4.464-26.711a34.163,34.163,0,0,1,2.644-12.583c1.82-3.946,5.183-8.135,9.411-9.751l21.32,9.111a124.252,124.252,0,0,1,2.745,35.146,186.959,186.959,0,0,1-3.366,30.022,8.778,8.778,0,0,1-1.519,3.953c-1.24,1.517-3.311,2.152-5.253,2.707a87.272,87.272,0,0,1-15.06,3.35c-5.133.521-6.075-.026-10.7-2.161-1.563-.721-3.951-2.2-4.167-3.831A9.562,9.562,0,0,1-513.028,230.312Z" transform="translate(514.797 -157.082)" fill="#263238"/>
          </g>
          <g id="Group_1103984" data-name="Group 1103984" transform="translate(9.156 96.908)">
            <path id="Path_895174" data-name="Path 895174" d="M-489.146,268.32l21.66.089a443.489,443.489,0,0,1,7.124,80.815c.884,25.078.175,71.191.175,71.191h-14.086s-8.975-37.451-5.381-67.125c-1.308-5.116-3.054-13.976-4.081-18.5a323.011,323.011,0,0,1-6.48-36.976C-492.689,274.5-489.146,268.32-489.146,268.32Z" transform="translate(518.53 -258.342)" fill="#263238"/>
            <path id="Path_895175" data-name="Path 895175" d="M-487.176,284.163s7.809,35.075,3.492,51.51a323.018,323.018,0,0,1-6.48-36.976Z" transform="translate(518.478 -259.223)" opacity="0.2" style="isolation: isolate"/>
            <path id="Path_895176" data-name="Path 895176" d="M-508.968,257.755c-1.891,8.464-9.3,18.8-10.8,29.629-2.56,18.492,8.556,41.493,11.467,63.189-4.393,32.087,2.341,71,1.45,70.156l14.142.013c.429-2.869,3.329-46.347,4.767-72.107,1.22-22.544,3.17-79.246,3.17-79.246Z" transform="translate(520.145 -257.755)" fill="#263238"/>
          </g>
          <g id="Group_1103985" data-name="Group 1103985" transform="translate(13.868 42.765)">
            <path id="Path_895177" data-name="Path 895177" d="M-470.466,235.879c-1.088,7.473.529,23.438,3.662,34.449,1.114,3.915-30.571,3.391-48.353-2.481l5.938-18.4c-.018-1.519-2.956-12.408-3.029-14.008a179.771,179.771,0,0,0-2.589-23.15,9.394,9.394,0,0,1-.124-1c-.291-4.156-.4-7.374,3.219-8.939a30.724,30.724,0,0,1,5.648-1.264c1.518-.11,3.293-.345,4.939-.39s1.692-.263,3.21-.263a115.468,115.468,0,0,1,13.775.983l.915.119c1.545.2,3.118.457,4.637.713,0,0,3.847.552,6.041,2.391s7.207,20.854,6.33,25.814A6.868,6.868,0,0,1-470.466,235.879Z" transform="translate(515.156 -200.424)" fill="#ffce73"/>
            <path id="Path_895178" data-name="Path 895178" d="M-470.466,235.879c-1.088,7.473.529,23.438,3.662,34.449,1.114,3.915-30.571,3.391-48.353-2.481l5.938-18.4c-.018-1.519-2.956-12.408-3.029-14.008a179.771,179.771,0,0,0-2.589-23.15,9.394,9.394,0,0,1-.124-1c-.291-4.156-.4-7.374,3.219-8.939a30.724,30.724,0,0,1,5.648-1.264c1.518-.11,3.293-.345,4.939-.39s1.692-.263,3.21-.263a115.468,115.468,0,0,1,13.775.983l.915.119c1.545.2,3.118.457,4.637.713,0,0,3.847.552,6.041,2.391s7.207,20.854,6.33,25.814A6.868,6.868,0,0,1-470.466,235.879Z" transform="translate(515.156 -200.424)" fill="#ffce73" opacity="0.6"/>
            <path id="Path_895179" data-name="Path 895179" d="M-511.07,257.787-513,263.761s21.566-3.789,32.373-13.454c7.7-6.881,6.493-9.779,6.493-9.779l-8.717.841Z" transform="translate(515.036 -202.654)" fill="#ffce73" opacity="0.2" style="isolation: isolate"/>
            <path id="Path_895180" data-name="Path 895180" d="M-505.961,223.627l.417,20.7c-3.254,2.071-4.278,3.338-4.774.372l-1.781-8.411Z" transform="translate(514.986 -201.714)" fill="#ffce73" opacity="0.2" style="isolation: isolate"/>
          </g>
          <g id="Group_1103988" data-name="Group 1103988" transform="translate(0 44.368)">
            <path id="Path_895181" data-name="Path 895181" d="M-506.948,222.431s-8.164,20.224-6.692,21.157,24.977-5.5,24.977-5.5l4.537,6c-.8,3.494-42.184,24.824-45.495,6.412-2.013-11.187,10.5-41.229,10.5-41.229,3.151-5.611,7.529-8.289,9.255-6.692C-505.352,206.755-506.948,222.431-506.948,222.431Z" transform="translate(529.84 -202.122)" fill="#f0be62"/>
            <path id="Path_895182" data-name="Path 895182" d="M-506.948,222.431s-8.164,20.224-6.692,21.157,24.977-5.5,24.977-5.5l4.537,6c-.8,3.494-42.184,24.824-45.495,6.412-2.013-11.187,10.5-41.229,10.5-41.229,3.151-5.611,7.529-8.289,9.255-6.692C-505.352,206.755-506.948,222.431-506.948,222.431Z" transform="translate(529.84 -202.122)" fill="#ffcd73" opacity="0.6"/>
            <g id="Group_1103987" data-name="Group 1103987" transform="translate(40.81 24.966)">
              <path id="Path_895183" data-name="Path 895183" d="M-481.724,245.557c2.778.22,2.876-3.966,4.322-4.13a8.257,8.257,0,0,0,2.442-.622s-.915,2.516,0,2.315,3.85-.348,4.573-2.744-1.894-7.518-2.488-8.232-3.723-.494-3.723-.494,3.366-.869,5.213-1.125,2.2-2.368-.379-1.9c-1.059.192-9.417.254-10.322,1.113s-4.263,9.309-4.263,9.309C-487.592,239.76-484.431,246.846-481.724,245.557Z" transform="translate(486.627 -228.557)" fill="#f0be62"/>
              <g id="Group_1103986" data-name="Group 1103986" transform="translate(7.261 2.804)" opacity="0.3">
                <path id="Path_895184" data-name="Path 895184" d="M-476.2,231.55a9.59,9.59,0,0,0-2.561.164.238.238,0,0,0-.167.292.238.238,0,0,0,.249.175,9.366,9.366,0,0,1,2.424-.164C-475.955,232.016-475.9,231.568-476.2,231.55Z" transform="translate(478.939 -231.526)" fill="#f0be62"/>
                <path id="Path_895185" data-name="Path 895185" d="M-471.753,234.184c.265.138.539-.246.274-.383-1.564-.833-3.21-.366-4.793.164-.283.092-.082.521.2.43C-474.68,233.928-473.143,233.48-471.753,234.184Z" transform="translate(478.798 -231.627)" fill="#f0be62"/>
                <path id="Path_895186" data-name="Path 895186" d="M-470.448,236.383a4.666,4.666,0,0,0-4.427-.192.237.237,0,0,0-.075.328.237.237,0,0,0,.266.1,4.217,4.217,0,0,1,3.97.146C-470.458,236.923-470.184,236.539-470.448,236.383Z" transform="translate(478.719 -231.759)" fill="#f0be62"/>
                <path id="Path_895187" data-name="Path 895187" d="M-472.668,240.073a3.791,3.791,0,0,0,.284-.773c.064-.293-.375-.457-.448-.164a3.324,3.324,0,0,1-1.546,2.149c-.265.146-.064.576.192.43h-.027a3.8,3.8,0,0,0,1.232-1.128c.032,0,.059.016.093,0a1.271,1.271,0,0,1,1.382.365c.2.229.558-.073.357-.3A1.745,1.745,0,0,0-472.668,240.073Z" transform="translate(478.692 -231.94)" fill="#f0be62"/>
              </g>
            </g>
          </g>
          <g id="Group_1103989" data-name="Group 1103989" transform="translate(67.768 44.124)">
            <path id="Path_895188" data-name="Path 895188" d="M-456.844,244.647a2.243,2.243,0,0,1-1.141-2.727l8.517-34.307a3.566,3.566,0,0,1,3.227-2.727l22.32.467a1.552,1.552,0,0,1,.72.1,2.241,2.241,0,0,1,1.139,2.728l-8.525,34.306a3.565,3.565,0,0,1-3.227,2.727l-22.32-.466A1.56,1.56,0,0,1-456.844,244.647Z" transform="translate(458.083 -202.032)" fill="#263238"/>
            <path id="Path_895189" data-name="Path 895189" d="M-426.142,224.341c-.439-.037-2.305.887-3.184.275s-.055-1.116-.055-1.116c1.61-.394,3.375-2.405,4.354-1.829s2.6,1.3,2.36,2.214a20.248,20.248,0,0,1-.969,2.478,1.437,1.437,0,0,1,.091,1.354,1.6,1.6,0,0,1-1.18.978,1.527,1.527,0,0,1,.439,1.171c-.074.7-1.9,1.609-1.9,1.609s.357,1.089-.063,1.509a2.936,2.936,0,0,1-2.561.586c-1.07-.256-1.8-.621-1.729-1.7s2-1.079,2-1.079-3.622-1.1-2.853-1.784,3.659-.6,3.659-.6-4.9-.97-4.125-1.976,5.662-.732,5.662-.732S-425.7,224.378-426.142,224.341Z" transform="translate(456.63 -202.959)" fill="#b97964"/>
            <path id="Path_895190" data-name="Path 895190" d="M-427.413,203.963l-12.292-.214-1.062,2.717,12.5.245Z" transform="translate(457.12 -201.969)" fill="#263238"/>
            <path id="Path_895191" data-name="Path 895191" d="M-435.16,204.064v-2.2h5.883l-1.339,2.535Z" transform="translate(456.809 -201.864)" fill="#263238"/>
          </g>
          <g id="Group_1103997" data-name="Group 1103997" transform="translate(24.21)">
            <g id="Group_1103995" data-name="Group 1103995" transform="translate(0.235 1.846)">
              <g id="Group_1103994" data-name="Group 1103994">
                <g id="Group_1103993" data-name="Group 1103993">
                  <path id="Path_895192" data-name="Path 895192" d="M-485.662,162.129s6.831,12.308,7.154,16.137c2.615,2.226,4.473-2.287,4.375-8.337-.08-4.952-2.663-10.295-6.942-12.22C-487.086,155.006-485.662,162.129-485.662,162.129Z" transform="translate(502.947 -157.097)" fill="#263238"/>
                  <g id="Group_1103991" data-name="Group 1103991" transform="translate(0 0.115)">
                    <g id="Group_1103990" data-name="Group 1103990">
                      <path id="Path_895193" data-name="Path 895193" d="M-487.8,199.028c-1.145-1.143-.871-2.517-.654-4.18a16.846,16.846,0,0,1,1.055-3.9l-1.707-1.856-8.879-8.333c.424,5.765,1.13,15.665-3.269,18.961l18.56,11.8-1.716-11.292A11.178,11.178,0,0,1-487.8,199.028Z" transform="translate(503.806 -158.527)" fill="#b97964"/>
                      <path id="Path_895194" data-name="Path 895194" d="M-488.047,195.646c-2.407-1.313-5.079-3.644-4.87-6.428a13.034,13.034,0,0,1,.561-3.005l5.015,6.161A15.964,15.964,0,0,0-488.047,195.646Z" transform="translate(503.343 -158.831)" opacity="0.2"/>
                      <path id="Path_895195" data-name="Path 895195" d="M-500.727,170.262c1.125,8.772,1.416,12.5,6.125,16.948,7.083,6.693,17.507,3.977,19-4.812,1.344-7.91-.722-20.925-9.5-24.311A11.327,11.327,0,0,0-500.727,170.262Z" transform="translate(503.782 -157.219)" fill="#b97964"/>
                      <path id="Path_895196" data-name="Path 895196" d="M-488.083,174.22c.007.826.481,1.527,1.06,1.567s1.04-.6,1.033-1.424-.482-1.527-1.06-1.566S-488.09,173.395-488.083,174.22Z" transform="translate(503.074 -158.085)" fill="#263238"/>
                      <path id="Path_895197" data-name="Path 895197" d="M-479.216,173.547a1.425,1.425,0,0,0,.966,1.58c.573.074,1.069-.515,1.108-1.315a1.425,1.425,0,0,0-.966-1.58C-478.682,172.159-479.177,172.747-479.216,173.547Z" transform="translate(502.581 -158.053)" fill="#263238"/>
                      <path id="Path_895198" data-name="Path 895198" d="M-490.588,171.187a.393.393,0,0,0,.308-.115,3.175,3.175,0,0,1,2.862-.943.4.4,0,0,0,.493-.316.47.47,0,0,0-.347-.527,3.965,3.965,0,0,0-3.631,1.148.442.442,0,0,0,.021.615A.457.457,0,0,0-490.588,171.187Z" transform="translate(503.237 -157.885)" fill="#263238"/>
                      <path id="Path_895199" data-name="Path 895199" d="M-476.37,169.32a.4.4,0,0,0,.238-.2.428.428,0,0,0-.219-.565,4.542,4.542,0,0,0-4.025-.1.394.394,0,0,0-.135.57.468.468,0,0,0,.607.161,3.631,3.631,0,0,1,3.187.114A.464.464,0,0,0-476.37,169.32Z" transform="translate(502.657 -157.82)" fill="#263238"/>
                      <path id="Path_895200" data-name="Path 895200" d="M-503.3,178.41a7.084,7.084,0,0,0,4.4,3.172c2.35.5,3.417-3.289,2.538-5.595a4.687,4.687,0,0,0-5.382-2.843C-503.967,173.677-504.567,176.39-503.3,178.41Z" transform="translate(503.956 -158.097)" fill="#b97964"/>
                      <path id="Path_895201" data-name="Path 895201" d="M-481.869,172.9a29.853,29.853,0,0,0,3.124,5.242.68.68,0,0,1-.281,1.049,4.362,4.362,0,0,1-2.357.124Z" transform="translate(502.728 -158.091)" fill="#c15854"/>
                    </g>
                    <path id="Path_895202" data-name="Path 895202" d="M-487.174,172.744l2.041-.382S-486.308,173.816-487.174,172.744Z" transform="translate(503.023 -158.061)" fill="#263238"/>
                    <path id="Path_895203" data-name="Path 895203" d="M-478.357,172.229l2.061-.26C-477.3,173.068-478.1,172.59-478.357,172.229Z" transform="translate(502.533 -158.039)" fill="#263238"/>
                  </g>
                  <g id="Group_1103992" data-name="Group 1103992" transform="translate(0.343 6.042)">
                    <path id="Path_895204" data-name="Path 895204" d="M-503.258,165.8c-1.194,1.724,1.183,6.736,1.183,6.736s4.221-1.255,4.452,5.1c1.556.258,3.3-5.68,3.049-11.647C-494.885,162.624-501.15,162.76-503.258,165.8Z" transform="translate(503.593 -163.494)" fill="#263238"/>
                  </g>
                  <path id="Path_895205" data-name="Path 895205" d="M-499.328,179.535a.21.21,0,0,1-.054-.007,3.391,3.391,0,0,1-2.387-1.672,2.1,2.1,0,0,1-.178-1.667,1.652,1.652,0,0,1,2.07-.957.235.235,0,0,1,.135.305.235.235,0,0,1-.305.136,1.186,1.186,0,0,0-1.461.689,1.622,1.622,0,0,0,.158,1.275,2.936,2.936,0,0,0,2.077,1.431.235.235,0,0,1,.176.283A.237.237,0,0,1-499.328,179.535Z" transform="translate(503.85 -158.099)" opacity="0.2"/>
                </g>
              </g>
            </g>
            <g id="Group_1103996" data-name="Group 1103996" transform="translate(16.542 23.567)">
              <path id="Path_895206" data-name="Path 895206" d="M-480.842,182.591a22.115,22.115,0,0,0-1.47,2.862c-.184-.042-.369-.085-.551-.137-2.489-.639-3.432-1.758-3.723-2.8a3.317,3.317,0,0,1-.017-1.569,3.2,3.2,0,0,1,.294-.847,12.111,12.111,0,0,0,4.622,2.263C-481.173,182.518-480.842,182.591-480.842,182.591Z" transform="translate(486.689 -180.097)" fill="#263238"/>
              <path id="Path_895207" data-name="Path 895207" d="M-481.682,182.36l-.455.832c-2.342-.607-3.909-1.349-4.46-2.248a3.2,3.2,0,0,1,.294-.847A12.111,12.111,0,0,0-481.682,182.36Z" transform="translate(486.684 -180.097)" fill="#fff"/>
              <path id="Path_895208" data-name="Path 895208" d="M-482.857,185.458c-2.489-.639-3.432-1.758-3.723-2.8a8.276,8.276,0,0,1,2.623,1.256A3.1,3.1,0,0,1-482.857,185.458Z" transform="translate(486.683 -180.239)" fill="#dc5753"/>
            </g>
            <path id="Path_895209" data-name="Path 895209" d="M-478.408,160.446c-1.861-3.87-9.447-7.466-18.168-3.729-7.879,3.365-10.155,14.836-4.46,15.268s12.41-5.142,12.41-5.142Z" transform="translate(504.205 -155.142)" fill="#263238"/>
          </g>
        </g>
      </g>
    </g>
  </g>
</svg>
