<svg xmlns="http://www.w3.org/2000/svg" xmlns:xlink="http://www.w3.org/1999/xlink" width="190" height="189" viewBox="0 0 190 189">
  <defs>
    <clipPath id="clip-path">
      <rect id="Rectangle_402355" data-name="Rectangle 402355" width="125.519" height="125.519" transform="translate(0 0)" fill="#fff" stroke="#707070" stroke-width="1"/>
    </clipPath>
    <clipPath id="clip-path-2">
      <rect id="Rectangle_405094" data-name="Rectangle 405094" width="120.142" height="120.153" fill="#7d3a1b"/>
    </clipPath>
  </defs>
  <g id="Group_1102702" data-name="Group 1102702" transform="translate(-330 -6992)">
    <rect id="Rectangle_402215" data-name="Rectangle 402215" width="190" height="185" transform="translate(330 6995)" fill="none"/>
    <g id="Group_1100287" data-name="Group 1100287" transform="translate(-13 -536)">
      <g id="Grupo_156312" data-name="Grupo 156312" transform="translate(344 7528)">
        <path id="Elipse_5845" data-name="Elipse 5845" d="M94.5,0A94.5,94.5,0,1,1,0,94.5,94.5,94.5,0,0,1,94.5,0Z" transform="translate(0 0)" fill="#ffce73"/>
      </g>
      <g id="Mask_Group_1098715" data-name="Mask Group 1098715" transform="translate(375.74 7559.74)" clip-path="url(#clip-path)">
        <g id="Group_1102698" data-name="Group 1102698" transform="translate(2.689 2.683)">
          <g id="Group_1102697" data-name="Group 1102697" transform="translate(0 0)" clip-path="url(#clip-path-2)">
            <path id="Path_892636" data-name="Path 892636" d="M102.173,85.359c.1-.122.2-.239.295-.357a2.062,2.062,0,0,1,3.179-.144q3.653,3.647,7.3,7.309c1.662,1.669,3.419,3.264,4.937,5.058a8.99,8.99,0,0,1-1.989,13.609,8.723,8.723,0,0,1-5.9,1.19,9.574,9.574,0,0,1-5.718-2.951q-1.7-1.7-3.415-3.4c-.21-.21-.435-.4-.755-.7,0,.339,0,.531,0,.722-.022,1.868.092,3.747-.1,5.6a10.023,10.023,0,0,1-10.043,8.857q-39.827.006-79.657,0a10,10,0,0,1-9.844-7.088,11.06,11.06,0,0,1-.438-3.073C-.02,106.148.01,102.306.01,98.463a2,2,0,0,1,2.24-2.284q2.664-.022,5.327,0c.365,0,.461-.1.461-.468Q8.021,72.75,8.03,49.789q0-23.7,0-47.392c0-.136,0-.273.011-.413A1.918,1.918,0,0,1,10.027.01c.155-.015.309-.007.461-.007h87.14A2.59,2.59,0,0,1,99.4.492a1.9,1.9,0,0,1,.707,1.433c0,.538.015,1.072.015,1.61q0,25.763.007,51.533c0,1,0,1.013,1.017,1a7.618,7.618,0,0,1,3.489.589,5.963,5.963,0,0,1-.652,11.089,10.016,10.016,0,0,1-2.034.276,13.07,13.07,0,0,1-1.422.022c-.321-.011-.416.107-.409.431.011,2.863,0,5.725,0,8.588,0,1.96-.011,3.916-.007,5.876a.985.985,0,0,0,.225.608c.578.608,1.194,1.183,1.835,1.809m-56.02-5.22c-.059.022-.114.044-.169.07V81.8a2.1,2.1,0,0,1-2.354,2.343q-9.571.006-19.142,0a2.152,2.152,0,0,1-2.439-2.424V74.738q0-4.183,0-8.359a2.013,2.013,0,0,1,1.02-2.012,3.629,3.629,0,0,1,1.5-.306c2.417-.026,4.837,0,7.258,0H32.4c-.066-.228-.114-.372-.155-.516a4.655,4.655,0,0,1-.2-2.078,6.162,6.162,0,0,1,6.344-5.393c.6.022,1.194-.007,1.79.033.357.026.508-.074.589-.435A29.009,29.009,0,0,1,42.8,49.645c.228-.49.475-.976.733-1.51H26.572a3.153,3.153,0,0,1-.457-.007,2.193,2.193,0,0,1-1.978-1.411,1.883,1.883,0,0,1,.586-2.122,2.391,2.391,0,0,1,1.761-.5q9.527-.006,19.054.007a1.035,1.035,0,0,0,.892-.416c.847-1.006,1.739-1.975,2.619-2.951.188-.21.409-.391.715-.682H49.1q-11.3,0-22.587-.011a3.439,3.439,0,0,1-1.33-.276,1.844,1.844,0,0,1-1.16-1.824,1.724,1.724,0,0,1,1.142-1.632,4.089,4.089,0,0,1,1.466-.287q13.169-.028,26.352-.007c.564,0,1.124.122,1.684.155a1.165,1.165,0,0,0,.553-.133c.671-.335,1.323-.7,1.993-1.039a34.584,34.584,0,0,1,6.466-2.288c.254-.07.394-.151.394-.449q-.028-8.361-.022-16.718a13.708,13.708,0,0,1,.066-1.65,2.439,2.439,0,0,1,.321-.936,2.148,2.148,0,0,1,2.1-.954c3.3.011,6.613.007,9.914.007,1.868,0,3.736-.011,5.6.018a1.934,1.934,0,0,1,1.982,1.632,3.768,3.768,0,0,1,.092.862c.007,6.676.015,13.351-.015,20.023a1.462,1.462,0,0,0,.844,1.514A29.891,29.891,0,0,1,95.836,46.746a2.121,2.121,0,0,0,.206.243l.1-.041V4.044H12.808c-.785,0-.785,0-.785.763V76.447q0,9.533,0,19.061c0,.656-.151.659.659.659l29.248.011H44.09v-.486c0-1.732,0-3.459,0-5.191,0-1.617.7-2.317,2.325-2.321H55.1l.026-.122a30.589,30.589,0,0,1-8.974-7.921M4.08,100.161a1.931,1.931,0,0,0-.026.228c0,3.493-.015,6.981,0,10.47a4.219,4.219,0,0,0,.575,2.1,5.794,5.794,0,0,0,5.393,3.154q35.787-.028,71.571-.011h.49c-.262-.424-.5-.777-.715-1.146a10.515,10.515,0,0,1-1.282-5.2c-.026-3.017,0-6.031,0-9.048v-.553ZM69.65,80.072a18.011,18.011,0,0,0,1-36.008,18.011,18.011,0,1,0-1,36.008M93.32,94.127c-2.063-2.07-4.075-4.1-6.1-6.119-.8-.8-.774-.741-1.79-.2a49.875,49.875,0,0,1-4.679,2.284c-1.507.612-3.1,1.009-4.638,1.5q-.116,2.233-.243,4.583h.405c1.908,0,3.824,0,5.732.011a1.728,1.728,0,0,1,1.695.888,3.59,3.59,0,0,1,.405,1.522c.037,3.931-.015,7.866.029,11.8.052,4.1,3.986,6.941,8.363,5.305a5.566,5.566,0,0,0,3.644-5.187c.114-1.8.037-3.607.041-5.412,0-1.238.026-2.479,0-3.717a1.226,1.226,0,0,0-.321-.7c-.98-1.013-1.971-2.015-2.988-2.988a2.111,2.111,0,0,1-.041-3.061,5.726,5.726,0,0,0,.486-.5M111.1,108.134a4.578,4.578,0,0,0,4.723-2.991,5.562,5.562,0,0,0-1.216-5.766c-1.382-1.411-2.778-2.8-4.17-4.2q-2.94-2.94-5.872-5.88c-.232-.236-.424-.413-.744-.081q-3.316,3.338-6.657,6.653c-.206.206-.217.35,0,.567,3.364,3.349,6.7,6.72,10.076,10.054a5.009,5.009,0,0,0,3.861,1.647M26.119,68.007V80.065H42.026c.011-.151.026-.269.029-.387,0-2.1.007-4.192,0-6.289a3.244,3.244,0,0,0-.1-.906q-.608-2.083-1.267-4.159a.487.487,0,0,0-.361-.276q-6.239-.039-12.482-.041c-.564,0-1.127,0-1.728,0M80.065,15.991c-3.927,0-7.792,0-11.667-.007-.321,0-.379.136-.379.416q.011,3.371.007,6.746v1.168c.247-.059.409-.092.575-.136a5.294,5.294,0,0,1,3.073.077,5.791,5.791,0,0,1,4.233,4.712,22.227,22.227,0,0,1,.133,3.253c.007.284.059.442.379.5.383.07.759.221,1.142.324.829.232,1.662.457,2.505.685ZM76.045,87.477A26.17,26.17,0,0,0,91.18,77.368a25.842,25.842,0,0,0,4.288-9.339,8.411,8.411,0,0,1-4-.575c-2.468,8.234-7.77,13.561-15.989,16a9.524,9.524,0,0,1,.571,4.027M95.453,56.126a26.192,26.192,0,0,0-19.4-19.43,8.932,8.932,0,0,1-.582,4.016A22.336,22.336,0,0,1,91.441,56.623a17.255,17.255,0,0,1,1.989-.479,16.762,16.762,0,0,1,2.023-.018M44.834,68c.088,1.9,1.96,6.812,5.055,10.548A26.237,26.237,0,0,0,64.1,87.466a16.083,16.083,0,0,1,.022-2.026,16.442,16.442,0,0,1,.516-2c-8.157-2.454-13.495-7.748-15.919-16a7.43,7.43,0,0,1-3.883.56m3.9-11.317c2.424-8.274,7.777-13.557,15.952-15.974a14.579,14.579,0,0,1-.564-1.923,15.757,15.757,0,0,1-.022-2.1c-.95.28-1.779.479-2.586.763a25.839,25.839,0,0,0-9.151,5.526,25.449,25.449,0,0,0-7.464,12.5c-.162.645-.162.656.512.619a6.162,6.162,0,0,1,3.124.549.491.491,0,0,0,.2.037m-.582,35.54v3.916H64.3c-.088-.671-.2-1.3-.243-1.938s-.011-1.3-.011-1.978ZM72,34.087c0-1.393.026-2.785-.022-4.174a2.047,2.047,0,0,0-.4-1.219,1.78,1.78,0,0,0-1.872-.689,2.111,2.111,0,0,0-1.647,1.665,5.582,5.582,0,0,0-.077,1.138q-.006,3.238,0,6.469a7.117,7.117,0,0,0,.077,1.05,2.032,2.032,0,0,0,2.2,1.717,1.8,1.8,0,0,0,1.75-2.012C71.971,36.718,72,35.4,72,34.087m0,56.053V85.967a1.682,1.682,0,0,0-.77-1.518,2.073,2.073,0,0,0-3.194,1.44,5.561,5.561,0,0,0-.052.822q-.006,3.3.011,6.606a8.325,8.325,0,0,0,.055,1.006,2.167,2.167,0,0,0,2.262,1.846A1.894,1.894,0,0,0,72,94.086V90.141M98.131,64.057v.011c1.286,0,2.575.015,3.857-.011a2.75,2.75,0,0,0,1.153-.217,1.967,1.967,0,0,0,.936-2.361,1.933,1.933,0,0,0-1.868-1.411q-4.128-.017-8.256.018a1.81,1.81,0,0,0-.9.273,2.056,2.056,0,0,0-.8,2.468,1.835,1.835,0,0,0,1.89,1.23c1.33.007,2.656,0,3.986,0M42,64.05h0c1.407,0,2.815.018,4.218,0a2.081,2.081,0,0,0,1.908-1.989,2.11,2.11,0,0,0-1.919-1.986q-4.128-.017-8.256.015A2.019,2.019,0,0,0,36,62.164a1.944,1.944,0,0,0,1.96,1.883c1.348.011,2.693,0,4.038,0M89.732,84.965c-.048-.063-.026-.022,0,.007q2.84,2.846,5.677,5.681c.858.855.667.726,1.389.018.862-.84,1.695-1.709,2.428-2.457l-6.3-6.455-3.2,3.205m6.4-7.7c-.044-.022-.085-.044-.125-.063a3.633,3.633,0,0,0-.637,1.172c-.029.243.409.545.637.825l.125-.077Z" transform="translate(0.002 0.002)" fill="#7d3a1b"/>
            <path id="Path_892637" data-name="Path 892637" d="M22.5,9.391H8.775c-1.3,0-2.093-.6-2.233-1.687a1.984,1.984,0,0,1,1.9-2.24c1.407-.055,2.815-.033,4.222-.033q11.34,0,22.676,0c.413,0,.825,0,1.238.026a2.086,2.086,0,0,1,1.857,1.407A1.815,1.815,0,0,1,37.687,9a2.448,2.448,0,0,1-1.282.368c-4.635.026-9.273.018-13.907.018v0" transform="translate(17.515 14.564)" fill="#7d3a1b"/>
            <path id="Path_892638" data-name="Path 892638" d="M18.8,11.614c-1.927,0-3.854,0-5.78,0a1.887,1.887,0,0,1-2.015-1.271,2,2,0,0,1,1.533-2.682,4.393,4.393,0,0,1,.822-.07q5.438-.011,10.872,0a3.972,3.972,0,0,1,1.087.125,1.988,1.988,0,0,1,1.492,2.266,2.035,2.035,0,0,1-2.137,1.632c-1.684.015-3.364,0-5.047,0H18.8" transform="translate(29.21 20.353)" fill="#7d3a1b"/>
            <path id="Path_892639" data-name="Path 892639" d="M12.559,11.615c-1.253,0-2.509.011-3.761,0a2.1,2.1,0,0,1-1.54-.475,1.9,1.9,0,0,1-.671-1.971,2.1,2.1,0,0,1,1.643-1.5A3.385,3.385,0,0,1,9,7.584q3.531-.006,7.066.011a3.44,3.44,0,0,1,.991.133,2,2,0,0,1,1.415,2.155,1.88,1.88,0,0,1-2.063,1.728c-1.282.018-2.568,0-3.854,0" transform="translate(17.481 20.352)" fill="#7d3a1b"/>
            <path id="Path_892640" data-name="Path 892640" d="M13.6,3.266c1.359,0,2.723-.007,4.082,0a1.858,1.858,0,0,1,1.6.914A1.989,1.989,0,0,1,17.71,7.219c-.181,0-.365.022-.549.022-2.49,0-4.985-.015-7.475,0a1.972,1.972,0,0,1-1.9-1.253,1.827,1.827,0,0,1,.368-2.078,1.722,1.722,0,0,1,1.407-.645c1.348-.007,2.693,0,4.038,0v0" transform="translate(20.398 8.755)" fill="#7d3a1b"/>
            <path id="Path_892641" data-name="Path 892641" d="M17.983,3.27c1.315,0,2.63-.026,3.946.007A1.971,1.971,0,1,1,21.9,7.219c-1.728.037-3.456.022-5.184.026-.917,0-1.838.011-2.756-.018a1.991,1.991,0,0,1-1.993-1.978A1.9,1.9,0,0,1,13.9,3.281c1.363-.041,2.723-.007,4.086-.007v0" transform="translate(32.12 8.752)" fill="#7d3a1b"/>
            <path id="Path_892642" data-name="Path 892642" d="M19.27,26.072c-.321,0-.645-.015-.965,0a1.979,1.979,0,1,1,.037-3.957c.671-.026,1.345,0,2.019-.037a.636.636,0,0,0,.461-.306,5.657,5.657,0,0,1,2.921-3.032c.413-.2.612-.4.56-.888a10.328,10.328,0,0,1-.007-1.654,1.992,1.992,0,0,1,2.384-2.019,1.8,1.8,0,0,1,1.544,1.787c.015.7-.015,1.407.018,2.111a.645.645,0,0,0,.3.483,6.474,6.474,0,0,1,3.338,3.323.564.564,0,0,0,.431.221c.656.018,1.315-.015,1.975,0a2.036,2.036,0,0,1,2,1.989,1.964,1.964,0,0,1-1.912,1.964c-.685.033-1.374-.007-2.063.015a.54.54,0,0,0-.416.221A6.4,6.4,0,0,1,28.6,29.605a.561.561,0,0,0-.383.626c.026.612.015,1.223.007,1.835a1.81,1.81,0,0,1-1.79,1.975,1.965,1.965,0,0,1-2.152-1.9c-.029-.656-.007-1.315.015-1.971a.526.526,0,0,0-.332-.575,5.954,5.954,0,0,1-3.179-3.271.571.571,0,0,0-.42-.239c-.361-.033-.733-.011-1.1-.011v0m8.963-1.967a1.809,1.809,0,0,0-1.872-2.019A2.01,2.01,0,1,0,26.3,26.1a1.805,1.805,0,0,0,1.934-2" transform="translate(43.78 37.976)" fill="#7d3a1b"/>
          </g>
        </g>
      </g>
    </g>
  </g>
</svg>
