<svg xmlns="http://www.w3.org/2000/svg" xmlns:xlink="http://www.w3.org/1999/xlink" width="190" height="189" viewBox="0 0 190 189">
  <defs>
    <clipPath id="clip-path">
      <rect id="Rectangle_402355" data-name="Rectangle 402355" width="125.519" height="125.519" transform="translate(0 0)" fill="#fff" stroke="#707070" stroke-width="1"/>
    </clipPath>
  </defs>
  <g id="Group_1102707" data-name="Group 1102707" transform="translate(-330 -6992)">
    <rect id="Rectangle_402215" data-name="Rectangle 402215" width="190" height="185" transform="translate(330 6995)" fill="none"/>
    <g id="Group_1100287" data-name="Group 1100287" transform="translate(-13 -536)">
      <g id="Grupo_156312" data-name="Grupo 156312" transform="translate(344 7528)">
        <path id="Elipse_5845" data-name="Elipse 5845" d="M94.5,0A94.5,94.5,0,1,1,0,94.5,94.5,94.5,0,0,1,94.5,0Z" transform="translate(0 0)" fill="#ffce73"/>
      </g>
      <g id="Mask_Group_1098715" data-name="Mask Group 1098715" transform="translate(375.74 7559.74)" clip-path="url(#clip-path)">
        <g id="Group_1104000" data-name="Group 1104000" transform="translate(-4415.751 -726.196)">
          <path id="Path_895210" data-name="Path 895210" d="M4545.543,855.458a4.263,4.263,0,0,1-.792,0c-3.8-2.271-6.42.835-9.363,2.185-.711.327-1.166,1.58-1.408,2.494-.778,2.944-.978,3.166-4.061,3.169-1.928,0-3.86-.091-5.781.025-1.959.119-3.047-.743-3.259-2.605a4,4,0,0,0-3.042-3.863,4.091,4.091,0,0,1-1.61-.9,4.327,4.327,0,0,0-5.095-.781,2.618,2.618,0,0,1-3.757-1.4c-1.043-2.013-2.209-3.965-3.4-5.9-.827-1.348-.715-2.545.521-3.456a4.758,4.758,0,0,0,2.094-5.307,3.673,3.673,0,0,1,.018-1.643,4.055,4.055,0,0,0-1.807-4.609c-1.545-1.13-1.709-2.467-.637-4.108a61.169,61.169,0,0,0,3.2-5.535,2.615,2.615,0,0,1,3.749-1.419,4.285,4.285,0,0,0,5.091-.773,2.926,2.926,0,0,1,1.243-.716c2.335-.576,3.255-2.207,3.544-4.428.216-1.66,1.292-2.265,2.919-2.216,2.2.065,4.41.1,6.607-.01,1.94-.1,3.109.68,3.233,2.593a3.827,3.827,0,0,0,2.98,3.882,4.481,4.481,0,0,1,1.782,1.015,3.964,3.964,0,0,0,4.724.706c1.81-.773,3.126-.313,4.051,1.545.979,1.966,2.125,3.855,3.291,5.719.828,1.322.85,2.535-.4,3.465a4.783,4.783,0,0,0-2.07,5.318,3.833,3.833,0,0,1-.023,1.644,3.917,3.917,0,0,0,1.691,4.452c1.737,1.233,1.8,2.7.646,4.452-1.208,1.835-2.171,3.831-3.367,5.675A6.047,6.047,0,0,1,4545.543,855.458Zm-15.743,3.626a11.176,11.176,0,0,1,.641-2.611,6,6,0,0,1,1.837-2.236,61.59,61.59,0,0,1,6.019-3.487,3.646,3.646,0,0,1,2.628-.49c2.363,1.076,3.689.266,4.59-1.91a17.3,17.3,0,0,1,.822-1.55c-2.689-3.187-2.684-3.187-2.494-7.5a5.9,5.9,0,0,0-.045-2.054c-.974-2.9.033-5.057,2.346-6.8.088-.066.09-.248.155-.445a12.077,12.077,0,0,1-1-1.734c-.764-1.995-1.978-2.362-3.993-1.668a4.774,4.774,0,0,1-3.134-.625,46.411,46.411,0,0,1-5.5-3.159c-.835-.556-1.909-1.417-2.028-2.26-.339-2.392-1.537-3.1-3.739-2.744a12.418,12.418,0,0,1-1.895.014,6.629,6.629,0,0,0-.518,1.62c-.081,2.1-1.23,3.072-3.138,3.794-1.7.642-3.116,1.98-4.76,2.809a4.361,4.361,0,0,1-2.965.609c-2.139-.8-3.481-.4-4.324,1.732a18.97,18.97,0,0,1-1.115,2.007c3.33,1.685,3.456,4.49,2.739,7.583a2.536,2.536,0,0,0,.013,1.231c.888,3.03.177,5.509-2.436,7.378-.082.058-.065.253-.1.432.545.916,1.15,1.838,1.656,2.812a1.419,1.419,0,0,0,2.161.757,4.088,4.088,0,0,1,5.188,1.036,5.2,5.2,0,0,0,1.879,1.246c2.935,1.106,5.678,2.336,5.386,6.2Z" transform="translate(-48.22 -46.876)" fill="#7d3a1b"/>
          <path id="Path_895211" data-name="Path 895211" d="M4442.769,755.888c-3.518-5.835-3.091-11.128,1.064-14.734a10.429,10.429,0,0,1,13.467-.127c4.273,3.555,4.76,8.954,1.24,14.829,3.323,1.583,5.87,4.014,6.3,7.77a64.208,64.208,0,0,1,.15,10.3,2.94,2.94,0,0,1-2.161,1.87c-8.124.137-16.251.1-24.377.074a2.092,2.092,0,0,1-2.27-2.361c-.009-2.892-.149-5.8.054-8.674C4436.531,760.623,4438.846,757.7,4442.769,755.888Zm12,15.805c0-1.963.015-3.738,0-5.513-.015-1.5.473-2.686,2.154-2.644,1.552.039,2.014,1.185,2,2.594-.018,1.837,0,3.674,0,5.657l2.044-.217c0-2.158.065-4.153-.015-6.141a6.09,6.09,0,0,0-6.071-6.052q-4.23-.131-8.465,0a6.093,6.093,0,0,0-6.071,6.052c-.074,1.855-.015,3.716,0,5.574a2.474,2.474,0,0,0,.161.6h1.873c0-1.909.014-3.69,0-5.471-.015-1.408.446-2.555,2-2.593,1.682-.042,2.169,1.145,2.155,2.643-.018,1.825,0,3.65,0,5.513Zm-4.187-28.863a6.179,6.179,0,1,0,6.235,6.123A6.2,6.2,0,0,0,4450.584,742.83Z" transform="translate(-8.725 -2.863)" fill="#7d3a1b"/>
          <path id="Path_895212" data-name="Path 895212" d="M4635.728,960.963a22.569,22.569,0,0,1-2.27-.013c-1.714-.174-3.221-1-3.507-2.7-.395-2.341-.723-4.607-2.242-6.552-.713-.914-1.061-2.157-1.872-2.943a14.573,14.573,0,0,1-.224-20.748,14.345,14.345,0,0,1,20.535.226,14.6,14.6,0,0,1-.531,20.6,12.414,12.414,0,0,0-1.7,2.813c-.377.644-.765,1.284-1.126,1.937a4.593,4.593,0,0,0-.759,1.558C4641.548,960.277,4640.81,960.983,4635.728,960.963Zm-2.1-18.521c-.921-.044-1.756.156-2.257-.165-.713-.458-1.631-1.3-1.629-1.973a2.558,2.558,0,0,1,1.608-1.932,63.827,63.827,0,0,1,8.855,0,2.517,2.517,0,0,1,1.634,1.888c-.1.761-1.038,1.55-1.8,2.044-.489.317-1.308.123-2.067.163v8.166l1.875-.1-.478-.511a26.655,26.655,0,0,1,3.047-3.821,10.446,10.446,0,0,0,.854-15.089,10.335,10.335,0,0,0-14.936-.017,10.44,10.44,0,0,0,.808,15.09,26.485,26.485,0,0,1,3.124,4l-.374.428,1.734-.086Zm4.281,14.314c-.092-.786-.159-1.354-.219-1.863h-3.932l.088,1.863Z" transform="translate(-117.405 -111.486)" fill="#7d3a1b"/>
          <path id="Path_895213" data-name="Path 895213" d="M4629.841,770.95a18.6,18.6,0,1,1,18.607-18.647A18.605,18.605,0,0,1,4629.841,770.95Zm14.46-18.579a14.45,14.45,0,1,0-14.473,14.428A14.454,14.454,0,0,0,4644.3,752.371Z" transform="translate(-111.46 0)" fill="#7d3a1b"/>
          <path id="Path_895214" data-name="Path 895214" d="M4458.453,942.368a18.6,18.6,0,1,1-18.422-18.62A18.606,18.606,0,0,1,4458.453,942.368Zm-18.618-14.473a14.454,14.454,0,1,0,14.468,14.439A14.47,14.47,0,0,0,4439.835,927.895Z" transform="translate(0 -111.462)" fill="#7d3a1b"/>
          <path id="Path_895215" data-name="Path 895215" d="M4537.89,773.723c4.535,0,9.071.014,13.606-.008,1.537-.008,2.886.33,2.844,2.152-.038,1.682-1.33,2.013-2.785,2.01q-13.709-.023-27.417,0c-1.467,0-2.722-.367-2.744-2.052s1.2-2.113,2.684-2.107C4528.683,773.734,4533.287,773.723,4537.89,773.723Z" transform="translate(-58.747 -23.448)" fill="#7d3a1b"/>
          <path id="Path_895216" data-name="Path 895216" d="M4538.081,963.722c4.466,0,8.933.015,13.4-.008,1.531-.008,2.89.31,2.864,2.134-.024,1.682-1.306,2.031-2.767,2.029q-13.708-.022-27.417,0c-1.461,0-2.74-.349-2.76-2.033-.021-1.826,1.34-2.137,2.869-2.129C4528.872,963.737,4533.476,963.722,4538.081,963.722Z" transform="translate(-58.75 -134.907)" fill="#7d3a1b"/>
          <path id="Path_895217" data-name="Path 895217" d="M4470.369,854.483c0,4.122-.016,8.245.008,12.367.009,1.512-.251,2.918-2.075,2.924s-2.091-1.392-2.088-2.908q.026-12.573,0-25.146c0-1.544.355-2.879,2.174-2.821,1.684.054,2,1.357,1.988,2.806C4470.354,845.963,4470.369,850.223,4470.369,854.483Z" transform="translate(-26.377 -61.685)" fill="#7d3a1b"/>
          <path id="Path_895218" data-name="Path 895218" d="M4655.37,854.36c0,4.191-.015,8.382.008,12.573.008,1.539-.342,2.884-2.16,2.841-1.683-.04-2.006-1.336-2-2.789q.026-12.676,0-25.352c0-1.467.368-2.72,2.054-2.739s2.11,1.207,2.1,2.687C4655.358,845.841,4655.37,850.1,4655.37,854.36Z" transform="translate(-134.903 -61.684)" fill="#7d3a1b"/>
          <path id="Path_895219" data-name="Path 895219" d="M4556.049,856.156a12.4,12.4,0,1,1-12.5-12.4A12.4,12.4,0,0,1,4556.049,856.156Zm-4.149.028a8.251,8.251,0,1,0-8.285,8.22A8.277,8.277,0,0,0,4551.9,856.185Z" transform="translate(-64.528 -64.536)" fill="#7d3a1b"/>
          <path id="Path_895220" data-name="Path 895220" d="M4649.407,768.273v-2.055c-1.926,0-3.771-.007-5.616,0a2.23,2.23,0,0,1-2.555-2.517c0-1.79,0-3.581,0-5.372.006-1.588.8-2.322,2.394-2.5a3.61,3.61,0,0,0,2.061-1.06,2.124,2.124,0,0,1,3.5.012,3.214,3.214,0,0,0,1.861,1.044c1.408.137,2.534.55,2.532,2.1,0,1.687-1.223,2.12-2.706,2.1-1.717-.023-3.435-.005-5.322-.005l-.226,2.055c1.983,0,3.821.019,5.66-.006,1.793-.024,2.683.81,2.663,2.622-.019,1.721-.01,3.444,0,5.165.008,1.688-.8,2.475-2.5,2.609a3.1,3.1,0,0,0-1.9.971c-1.19,1.356-2.431,1.364-3.6-.017a2.783,2.783,0,0,0-1.707-.951c-1.493-.1-2.693-.529-2.63-2.207s1.357-2.018,2.81-1.993C4645.823,768.3,4647.536,768.273,4649.407,768.273Z" transform="translate(-129.05 -11.798)" fill="#7d3a1b"/>
          <path id="Path_895221" data-name="Path 895221" d="M4458.574,951.068c-.016,2.233-1.367,4.221-3.256,4.262-2.027.044-3.062,1.238-4.252,2.433q-.509.51-1.026,1.013c-1.03,1.007-2.183,1.3-3.244.182-.983-1.031-.683-2.136.257-3.1a14.489,14.489,0,0,0,1.854-1.924,19.664,19.664,0,0,0,1.455-2.941c.22-.5.166-1.237.518-1.529,2.017-1.673,1.5-3.922,1.529-6.055a6.119,6.119,0,0,1,.093-2.438c.4-.787,1.287-1.825,1.969-1.829s1.589,1.022,1.99,1.805c.337.656.079,1.613.1,2.436.046,2.129-.479,4.364,1.486,6.081C4458.476,949.848,4458.472,950.729,4458.574,951.068Z" transform="translate(-14.629 -120.495)" fill="#7d3a1b"/>
        </g>
      </g>
    </g>
  </g>
</svg>
