<svg xmlns="http://www.w3.org/2000/svg" xmlns:xlink="http://www.w3.org/1999/xlink" width="400" height="221.733" viewBox="0 0 400 221.733">
  <defs>
    <clipPath id="clip-path">
      <path id="Path_885915" data-name="Path 885915" d="M0-23H400V198.733H0Z" transform="translate(0 23)" fill="none"/>
    </clipPath>
    <clipPath id="clip-path-2">
      <rect id="Rectangle_405536" data-name="Rectangle 405536" width="412" height="252.533" fill="none"/>
    </clipPath>
    <clipPath id="clip-path-3">
      <rect id="Rectangle_405515" data-name="Rectangle 405515" width="401.437" height="306.943" fill="none"/>
    </clipPath>
    <clipPath id="clip-path-5">
      <rect id="Rectangle_405521" data-name="Rectangle 405521" width="222.807" height="170.361" fill="none"/>
    </clipPath>
    <clipPath id="clip-path-6">
      <rect id="Rectangle_405517" data-name="Rectangle 405517" width="7.872" height="11.811" fill="none"/>
    </clipPath>
    <clipPath id="clip-path-7">
      <rect id="Rectangle_405518" data-name="Rectangle 405518" width="107.482" height="75.795" fill="none"/>
    </clipPath>
    <clipPath id="clip-path-8">
      <rect id="Rectangle_405519" data-name="Rectangle 405519" width="88.688" height="57.059" fill="none"/>
    </clipPath>
    <clipPath id="clip-path-9">
      <rect id="Rectangle_405520" data-name="Rectangle 405520" width="14.918" height="11.841" fill="none"/>
    </clipPath>
    <clipPath id="clip-path-10">
      <rect id="Rectangle_405526" data-name="Rectangle 405526" width="391.853" height="215.516" fill="none"/>
    </clipPath>
    <clipPath id="clip-path-11">
      <rect id="Rectangle_405522" data-name="Rectangle 405522" width="200.957" height="121.756" fill="#8a692d"/>
    </clipPath>
    <clipPath id="clip-path-12">
      <rect id="Rectangle_405523" data-name="Rectangle 405523" width="323.529" height="97.436" fill="#8a692d"/>
    </clipPath>
    <clipPath id="clip-path-13">
      <rect id="Rectangle_405524" data-name="Rectangle 405524" width="2.891" height="65.384" fill="none"/>
    </clipPath>
    <clipPath id="clip-path-14">
      <rect id="Rectangle_405525" data-name="Rectangle 405525" width="2.887" height="42.805" fill="none"/>
    </clipPath>
    <clipPath id="clip-path-15">
      <rect id="Rectangle_405535" data-name="Rectangle 405535" width="373.88" height="243.418" fill="none"/>
    </clipPath>
    <clipPath id="clip-path-16">
      <rect id="Rectangle_405527" data-name="Rectangle 405527" width="6.587" height="7.393" fill="none"/>
    </clipPath>
    <clipPath id="clip-path-17">
      <rect id="Rectangle_405528" data-name="Rectangle 405528" width="6.628" height="6.513" fill="none"/>
    </clipPath>
    <clipPath id="clip-path-18">
      <rect id="Rectangle_405529" data-name="Rectangle 405529" width="16.063" height="8.387" fill="none"/>
    </clipPath>
    <clipPath id="clip-path-19">
      <rect id="Rectangle_405530" data-name="Rectangle 405530" width="5.072" height="35.51" fill="none"/>
    </clipPath>
    <clipPath id="clip-path-20">
      <rect id="Rectangle_405531" data-name="Rectangle 405531" width="5.326" height="13.916" fill="none"/>
    </clipPath>
    <clipPath id="clip-path-21">
      <rect id="Rectangle_405532" data-name="Rectangle 405532" width="9.849" height="54.608" fill="none"/>
    </clipPath>
    <clipPath id="clip-path-22">
      <rect id="Rectangle_405533" data-name="Rectangle 405533" width="29.903" height="18.011" fill="none"/>
    </clipPath>
    <clipPath id="clip-path-23">
      <rect id="Rectangle_405534" data-name="Rectangle 405534" width="28.419" height="19.682" fill="none"/>
    </clipPath>
  </defs>
  <g id="Group_1102749" data-name="Group 1102749" transform="translate(0 49.934)">
    <g id="Mask_Group_1098698" data-name="Mask Group 1098698" transform="translate(0 -49.934)" clip-path="url(#clip-path)">
      <g id="Group_1104109" data-name="Group 1104109" transform="translate(796.717 -722.049)">
        <g id="Group_1104108" data-name="Group 1104108" transform="translate(-808.717 691.249)" clip-path="url(#clip-path-2)">
          <rect id="Rectangle_405514" data-name="Rectangle 405514" width="307.594" height="306.943" transform="translate(40.518 -14.503)" fill="none"/>
          <rect id="Rectángulo_402949" data-name="Rectángulo 402949" width="401.437" height="0.205" transform="translate(-13.702 255.236)" fill="#e7e6e6"/>
          <rect id="Rectángulo_402950" data-name="Rectángulo 402950" width="48.084" height="0.205" transform="translate(294.602 267.112)" fill="#e7e6e6"/>
          <rect id="Rectángulo_402951" data-name="Rectángulo 402951" width="42.207" height="0.205" transform="translate(216.187 262.654)" fill="#e7e6e6"/>
          <rect id="Rectángulo_402952" data-name="Rectángulo 402952" width="13.126" height="0.205" transform="translate(277.128 267.009)" fill="#e7e6e6"/>
          <rect id="Rectángulo_402953" data-name="Rectángulo 402953" width="39.074" height="0.205" transform="translate(31.348 262.551)" fill="#e7e6e6"/>
          <rect id="Rectángulo_402954" data-name="Rectángulo 402954" width="8.373" height="0.205" transform="translate(73.991 262.551)" fill="#e7e6e6"/>
          <rect id="Rectángulo_402955" data-name="Rectángulo 402955" width="27.018" height="0.205" transform="translate(121.728 264.324)" fill="#e7e6e6"/>
          <g id="Grupo_1101491" data-name="Grupo 1101491" transform="translate(-13.702 -14.503)">
            <g id="Group_1104067" data-name="Group 1104067">
              <g id="Group_1104066" data-name="Group 1104066" clip-path="url(#clip-path-3)">
                <g id="Grupo_1101490" data-name="Grupo 1101490" transform="translate(30.668)">
                  <path id="Trazado_883355" data-name="Trazado 883355" d="M-618.09,898.419H-773.126a4.649,4.649,0,0,1-4.588-4.707V670.126a4.649,4.649,0,0,1,4.588-4.707H-618.09a4.649,4.649,0,0,1,4.581,4.707V893.72a4.649,4.649,0,0,1-4.581,4.707m-155.036-232.8a4.445,4.445,0,0,0-4.379,4.493V893.712a4.445,4.445,0,0,0,4.379,4.493H-618.09a4.445,4.445,0,0,0,4.379-4.493V670.126a4.445,4.445,0,0,0-4.379-4.494Z" transform="translate(777.714 -665.419)" fill="#e7e6e6"/>
                  <path id="Trazado_883356" data-name="Trazado 883356" d="M-300.738,898.419H-455.772a4.649,4.649,0,0,1-4.581-4.707V670.126a4.649,4.649,0,0,1,4.581-4.707h155.034a4.649,4.649,0,0,1,4.588,4.707V893.72a4.649,4.649,0,0,1-4.588,4.707m-155.034-232.8a4.445,4.445,0,0,0-4.38,4.493V893.712a4.445,4.445,0,0,0,4.38,4.493h155.034a4.445,4.445,0,0,0,4.379-4.493V670.126a4.445,4.445,0,0,0-4.379-4.494Z" transform="translate(634.022 -665.419)" fill="#e7e6e6"/>
                  <path id="Trazado_883358" data-name="Trazado 883358" d="M-723.754,791.241c8.654-4.547,9.175.252,14.639-4.6s16.69-7.448,17.564-3.22.4,7.168,9.147,4.658,10.174-.682,9.409,2.656,16.98,1.729,9.428,6.5H-726.01s-5.807-1.763,2.257-6" transform="translate(755.22 -716.233)" fill="#fde2d7"/>
                  <path id="Trazado_883359" data-name="Trazado 883359" d="M-219.1,692.548c-.976-2.467-5.924-3.29-11.271-1.371s2.005-10.1-7.447-8.087c-13.5,2.878-13,11.48-17.934,10.691s-20.941,1.325-14.353,5.621H-223.9s5.771-4.387,4.8-6.853" transform="translate(581.713 -626.072)" fill="#fde2d7"/>
                  <path id="Trazado_883362" data-name="Trazado 883362" d="M-393.127,828.335c-41.825-46.483-55.8,138.3-116.225,87.474s-91.518-2.782-106.856,29.023a366.872,366.872,0,0,0-22.378,58.448h295.81S-364.454,860.2-393.127,828.335" transform="translate(714.721 -733.542)" fill="#a0cbc2"/>
                  <path id="Trazado_883363" data-name="Trazado 883363" d="M-550.238,1026.777c-9.7-18.839-29.358-47.3-67.558-17.19s-47.039-79.342-73.482-51.81C-709.4,976.651-723.111,1061.4-723.111,1061.4h187.022a207.283,207.283,0,0,0-14.148-34.62" transform="translate(752.991 -791.66)" fill="#a0cbc2"/>
                  <path id="Trazado_883364" data-name="Trazado 883364" d="M-448.441,1071.262c8.165-11.8,24.72-29.625,56.886-10.768s39.609-49.7,61.875-32.453c15.264,11.822,26.8,64.905,26.8,64.905H-460.355a112.77,112.77,0,0,1,11.914-21.684" transform="translate(634.023 -823.208)" fill="#f9bca3"/>
                  <path id="Trazado_883365" data-name="Trazado 883365" d="M-711.2,1085.584c19.5-8.821,26.015,26.246,54.182,16.6s42.664-.528,49.814,5.507a57.166,57.166,0,0,1,10.427,11.092h-137.9s10.107-27.152,23.473-33.2" transform="translate(758.227 -849.044)" fill="#f9bca3"/>
                </g>
              </g>
            </g>
          </g>
          <g id="Grupo_1101493" data-name="Grupo 1101493" transform="translate(-13.702 -14.503)">
            <g id="Group_1104069" data-name="Group 1104069">
              <g id="Group_1104068" data-name="Group 1104068" clip-path="url(#clip-path-3)">
                <g id="Grupo_1101492" data-name="Grupo 1101492" transform="translate(45.049 288.287)">
                  <path id="Trazado_883366" data-name="Trazado 883366" d="M-440.1,1188.2c0,5.152-69.695,9.328-155.669,9.328s-155.669-4.172-155.669-9.328,69.695-9.328,155.669-9.328,155.669,4.172,155.669,9.328" transform="translate(751.434 -1178.87)" fill="#f2f2f2"/>
                </g>
              </g>
            </g>
          </g>
          <rect id="Rectángulo_402958" data-name="Rectángulo 402958" width="0.803" height="5.675" transform="translate(233.583 211.432)" fill="#2b5da8"/>
          <rect id="Rectángulo_402959" data-name="Rectángulo 402959" width="0.803" height="19.22" transform="translate(233.583 186.353)" fill="#2b5da8"/>
          <g id="Grupo_1101507" data-name="Grupo 1101507" transform="translate(189.193 77.662)">
            <g id="Group_1104079" data-name="Group 1104079">
              <g id="Group_1104078" data-name="Group 1104078" clip-path="url(#clip-path-5)">
                <g id="Grupo_1101506" data-name="Grupo 1101506" transform="translate(78.458 16.634)">
                  <path id="Trazado_883367" data-name="Trazado 883367" d="M-404.7,864.951h-5.645a1.129,1.129,0,0,1-1.114-1.143V719.938a1.129,1.129,0,0,1,1.114-1.143h5.645a1.129,1.129,0,0,1,1.114,1.143V863.807a1.129,1.129,0,0,1-1.114,1.143" transform="translate(461.263 -718.795)" fill="#683e0c"/>
                  <g id="Grupo_1101496" data-name="Grupo 1101496" transform="translate(49.805 78.412)" opacity="0.4">
                    <g id="Grupo_1101495" data-name="Grupo 1101495">
                      <g id="Group_1104071" data-name="Group 1104071">
                        <g id="Group_1104070" data-name="Group 1104070" clip-path="url(#clip-path-6)">
                          <g id="Grupo_1101494" data-name="Grupo 1101494" transform="translate(0.002 0.001)">
                            <path id="Trazado_883368" data-name="Trazado 883368" d="M-403.581,982.226l-7.87-4.5v-7.316h7.87Z" transform="translate(411.451 -970.415)" fill="#1c262b"/>
                          </g>
                        </g>
                      </g>
                    </g>
                  </g>
                  <path id="Trazado_883369" data-name="Trazado 883369" d="M-472.5,806.817H-575.436l4.545-75.8h102.937Z" transform="translate(575.436 -727.212)" fill="#2b5da8"/>
                  <g id="Grupo_1101499" data-name="Grupo 1101499" transform="translate(0 3.81)" opacity="0.8">
                    <g id="Grupo_1101498" data-name="Grupo 1101498">
                      <g id="Group_1104073" data-name="Group 1104073">
                        <g id="Group_1104072" data-name="Group 1104072" clip-path="url(#clip-path-7)">
                          <g id="Grupo_1101497" data-name="Grupo 1101497" transform="translate(0 0)">
                            <path id="Trazado_883370" data-name="Trazado 883370" d="M-472.5,806.817H-575.436l4.545-75.8h102.937Z" transform="translate(575.436 -731.022)" fill="#b7aa97"/>
                          </g>
                        </g>
                      </g>
                    </g>
                  </g>
                  <path id="Trazado_883371" data-name="Trazado 883371" d="M-569.207,809.023l4.325-72.138h99.374l-4.327,72.138Z" transform="translate(571.099 -731.248)" fill="#fff"/>
                  <path id="Trazado_883372" data-name="Trazado 883372" d="M-235.73,806.817h-.792l4.545-75.8h.792Z" transform="translate(339.459 -727.212)" fill="#683e0c"/>
                  <g id="Grupo_1101502" data-name="Grupo 1101502" transform="translate(11.877 13.013)" opacity="0.4">
                    <g id="Grupo_1101501" data-name="Grupo 1101501">
                      <g id="Group_1104075" data-name="Group 1104075">
                        <g id="Group_1104074" data-name="Group 1104074" clip-path="url(#clip-path-8)">
                          <g id="Grupo_1101500" data-name="Grupo 1101500" transform="translate(-0.001 0.003)">
                            <path id="Trazado_883373" data-name="Trazado 883373" d="M-517.952,763.768a3.594,3.594,0,0,0-1.906,1.2c-.859,1.075-1.011,2.553-1.866,3.6-.752.924-2.054,1.214-2.678,2.277-.448.767-.363,1.732-.767,2.523-.5.988-1.549,1.414-2.358,2.078-1.042.854-1.4,2.053-2.157,3.147-1.282,1.862-3.388,2.954-4.879,4.65s-2.284,4.2-1.406,6.152c.733,1.635,2.4,2.528,3.757,3.659a4.392,4.392,0,0,1,1.8,4.094c-.328,1.6-1.962,2.676-2.845,4.008a12.641,12.641,0,0,0-1.511,4.075,14.841,14.841,0,0,0-.6,4.082c.173,4.237,4.079,7.352,7.891,8.123a7.212,7.212,0,0,0,4.547-.407,5.047,5.047,0,0,0,2.078-1.841c.984-1.577-.01-3.178,2.33-3.6a5.448,5.448,0,0,1,2.158-.089,1.9,1.9,0,0,1,1.5,1.361c.082.388.013.809.112,1.192a1.607,1.607,0,0,0,.941,1.028,2.11,2.11,0,0,0,2.747-1.1,13.783,13.783,0,0,1,1.452-2.489,27.259,27.259,0,0,1,4.316-3.519,9.525,9.525,0,0,1,4.4-1.905,4.36,4.36,0,0,1,3.909,1.48c.963,1.265.463,3.114,1.629,4.328a3.967,3.967,0,0,0,2.125,1.031,8.449,8.449,0,0,0,6.108-1.317,5.982,5.982,0,0,0,2.1-2.3c.65-1.338.205-2.553.432-3.923.342-2.073,2.128-2.446,3.813-2.688a9.7,9.7,0,0,0,5.382-2.721c1.049-1.043,2.488-1.931,3.87-1.221a4.864,4.864,0,0,1,1.437,1.26c.819.975,1.527,2.047,2.364,3.007,2.041,2.339,6.585,4.222,8.644.366a4.123,4.123,0,0,0,.017-3.871c-.6-1.077-1.727-2.141-1.128-3.566.678-1.611,2.568-1.672,2.85-3.7.244-1.757-.741-3.423.373-5.072a17.1,17.1,0,0,1,2.57-2.332c2.237-2.209,1.753-5.408,2.57-8.153,1.055-3.548,5.269-4.173,3.917-8.448a13.4,13.4,0,0,0-1.3-3.091,4.894,4.894,0,0,0-2.463-2.114c-2.2-.761-2.924.749-4.5,1.882-1.535,1.1-3.293-.281-4.364-1.26-3.009-2.749-7.369-3.392-10.872-.624a15.611,15.611,0,0,1-3.2,2.244c-2.916,1.285-8.368.208-10.369-2.166a20.65,20.65,0,0,0-1.3-1.686,3.421,3.421,0,0,0-4.327-.142,19.015,19.015,0,0,1-2.132,1.9c-1.407.762-3.086.54-4.447,1.394-1.477.928-2.759,2.23-4.592,1.608a7.185,7.185,0,0,1-2.58-2.146,3.263,3.263,0,0,0-3-1.251c-1.62.416-1.852,2.808-3.545,3.013a2.9,2.9,0,0,1-1.821-.645,8.8,8.8,0,0,0-3.535-1.477,4.507,4.507,0,0,0-1.7.119" transform="translate(536.334 -760.563)" fill="#683e0c"/>
                          </g>
                        </g>
                      </g>
                    </g>
                  </g>
                  <g id="Grupo_1101505" data-name="Grupo 1101505" transform="translate(70.507 58.948)" opacity="0.4">
                    <g id="Grupo_1101504" data-name="Grupo 1101504">
                      <g id="Group_1104077" data-name="Group 1104077">
                        <g id="Group_1104076" data-name="Group 1104076" clip-path="url(#clip-path-9)">
                          <g id="Grupo_1101503" data-name="Grupo 1101503" transform="translate(-0.003 0.002)">
                            <path id="Trazado_883374" data-name="Trazado 883374" d="M-332.581,913.1c-.945-1.176-.7-4.144-2.6-3.873-1.153.164-1.053.687-2.083-.059-.687-.5-1.007-1.2-2.257-1.207-4.8-.037-4.837,7.028-1.228,8.788,1.055.514,1.723-.509,2.656-.46.949.049,1.5,1.132,2.047,1.756a4.5,4.5,0,0,0,5.178,1.466c1.609-.539,3.025-2.617,2.27-4.3-.668-1.485-2.944-.809-3.987-2.107" transform="translate(343.305 -907.962)" fill="#683e0c"/>
                          </g>
                        </g>
                      </g>
                    </g>
                  </g>
                  <path id="Trazado_883375" data-name="Trazado 883375" d="M-520.126,819.4l-.253-.224a3.9,3.9,0,0,0,.672-2.991,7.19,7.19,0,0,1,.089-1.984,3.292,3.292,0,0,1,1.832-2.154,3.66,3.66,0,0,0,1.477-1.331c.539-.994.036-1.859-.5-2.776-.142-.243-.289-.5-.405-.742a4.151,4.151,0,0,1,.34-4.05,4.19,4.19,0,0,1,3.411-1.983,7.931,7.931,0,0,1,5.916,3.147c.435.563.832,1.162,1.215,1.742.329.5.67,1.009,1.03,1.493a4.959,4.959,0,0,0,1.359,1.348c1.37.826,2.921-.007,3.979-.851a10.459,10.459,0,0,1,5.972-2.262c1.869-.09,3.588-.327,4.071-2.211a7.543,7.543,0,0,0,.183-1.477,4.868,4.868,0,0,1,.6-2.462,6.151,6.151,0,0,1,2.458-2.173,9.412,9.412,0,0,1,6.647-.764,4.448,4.448,0,0,1,2.233,1.283,4.227,4.227,0,0,1,.823,2.477,4.3,4.3,0,0,0,.555,2.026,4.6,4.6,0,0,0,3.8,1.773h.053a9.95,9.95,0,0,0,4.7-1.479l.169-.094a27.251,27.251,0,0,0,4.62-3.009,6.146,6.146,0,0,0,1.125-1.462c.179-.288.363-.584.579-.871a2.4,2.4,0,0,1,3.183-.9,1.816,1.816,0,0,1,.995,1.238,2.784,2.784,0,0,1,.02.676,2.855,2.855,0,0,0,0,.534,1.817,1.817,0,0,0,1.349,1.362,5.846,5.846,0,0,0,2.214.106c1.481-.125,1.652-.772,1.889-1.663a4.319,4.319,0,0,1,.731-1.668,5.346,5.346,0,0,1,2.408-1.707,8.08,8.08,0,0,1,4.912.011c3.981,1.138,7.928,4.609,7.769,9.043l-.334-.013c.152-4.212-3.762-7.626-7.523-8.7a7.878,7.878,0,0,0-4.713-.017,5,5,0,0,0-2.257,1.6,3.971,3.971,0,0,0-.669,1.544,2.078,2.078,0,0,1-2.185,1.916,6.122,6.122,0,0,1-2.337-.119,2.151,2.151,0,0,1-1.584-1.642,3.137,3.137,0,0,1-.006-.6,2.488,2.488,0,0,0-.015-.594,1.5,1.5,0,0,0-.818-1,2.1,2.1,0,0,0-2.768.8c-.205.276-.385.566-.56.847a6.493,6.493,0,0,1-1.19,1.539,27.486,27.486,0,0,1-4.678,3.05l-.169.094a10.262,10.262,0,0,1-4.861,1.521,4.908,4.908,0,0,1-4.131-1.92,4.626,4.626,0,0,1-.612-2.183,3.9,3.9,0,0,0-.743-2.289,4.135,4.135,0,0,0-2.07-1.179,9.074,9.074,0,0,0-6.406.74,5.833,5.833,0,0,0-2.328,2.051,4.539,4.539,0,0,0-.553,2.3,7.817,7.817,0,0,1-.194,1.544c-.588,2.284-2.869,2.394-4.378,2.467a10.124,10.124,0,0,0-5.782,2.19c-1.14.91-2.822,1.8-4.354.876a5.342,5.342,0,0,1-1.458-1.44c-.366-.492-.708-1.01-1.042-1.508-.381-.575-.775-1.169-1.2-1.722-1.2-1.553-3.53-3.1-5.643-3.015a3.821,3.821,0,0,0-3.148,1.835,3.8,3.8,0,0,0-.316,3.7c.116.237.251.47.395.719.532.915,1.135,1.951.5,3.118a3.974,3.974,0,0,1-1.6,1.458,2.982,2.982,0,0,0-1.678,1.938,6.923,6.923,0,0,0-.081,1.888,4.225,4.225,0,0,1-.752,3.232" transform="translate(537.101 -771.216)" fill="#fff"/>
                  <path id="Trazado_883376" data-name="Trazado 883376" d="M-416.1,860.159l-.33-.06a2.861,2.861,0,0,1,.621-1.214,3.163,3.163,0,0,0,.509-.859,4.027,4.027,0,0,0,.137-1.258,4.49,4.49,0,0,1,.151-1.369,2.606,2.606,0,0,1,.963-1.29,3.39,3.39,0,0,1,1.091-.534,6.285,6.285,0,0,1,2.648-.031,1.894,1.894,0,0,0,1.2-.064,1.752,1.752,0,0,0,.712-1.265,2.273,2.273,0,0,1,.757-1.432,2.371,2.371,0,0,1,2.346-.043c.131.054.263.111.393.169a3.606,3.606,0,0,0,1.678.438c.988-.077,1.479-.792,2-1.55.121-.178.241-.352.37-.523a4.709,4.709,0,0,1,1.312-1.085,4.887,4.887,0,0,0,1.144-.9,3.412,3.412,0,0,0,.5-.916,5.3,5.3,0,0,1,.36-.741,2.572,2.572,0,0,1,2.947-1.1,4.285,4.285,0,0,1,.762.4c.159.1.317.2.484.277,1.762.864,5.346.164,6.848-1.339a7.941,7.941,0,0,0,1.173-1.685c.085-.148.171-.3.257-.442a5.923,5.923,0,0,1,7.17-2.494c.933.316,2.242.629,2.855-.3a8.115,8.115,0,0,0,.425-.752,2.3,2.3,0,0,1,2.065-1.6,3.439,3.439,0,0,1,2.167.662l-.185.285a3.163,3.163,0,0,0-1.958-.6c-1.1.077-1.389.641-1.794,1.421a8.444,8.444,0,0,1-.443.783c-.739,1.123-2.2.787-3.237.436a5.6,5.6,0,0,0-6.78,2.347c-.087.144-.174.291-.256.438a8.179,8.179,0,0,1-1.228,1.756c-1.582,1.583-5.364,2.316-7.226,1.4-.173-.087-.347-.189-.512-.293a3.95,3.95,0,0,0-.7-.37,2.259,2.259,0,0,0-2.553.957,4.839,4.839,0,0,0-.335.693,3.7,3.7,0,0,1-.553,1.006,5.228,5.228,0,0,1-1.219.964,4.392,4.392,0,0,0-1.224,1c-.125.167-.243.34-.361.511a3.027,3.027,0,0,1-2.247,1.695,3.779,3.779,0,0,1-1.833-.464c-.129-.059-.257-.113-.385-.166a2.141,2.141,0,0,0-2.029,0,1.988,1.988,0,0,0-.626,1.237,2.032,2.032,0,0,1-.878,1.485,2.164,2.164,0,0,1-1.4.1,6.012,6.012,0,0,0-2.512.022,3.048,3.048,0,0,0-.984.48,2.275,2.275,0,0,0-.841,1.119,4.173,4.173,0,0,0-.134,1.264,4.37,4.37,0,0,1-.154,1.366,3.514,3.514,0,0,1-.559.956,2.56,2.56,0,0,0-.558,1.065" transform="translate(464.723 -799.885)" fill="#fff"/>
                  <path id="Trazado_883377" data-name="Trazado 883377" d="M-536.494,746.927h-10.175l.058-.991h10.174Z" transform="translate(555.406 -737.478)" fill="#683e0c"/>
                  <path id="Trazado_883378" data-name="Trazado 883378" d="M-537.133,757.326h-10.174l.058-.991h10.174Z" transform="translate(555.851 -744.637)" fill="#683e0c"/>
                </g>
              </g>
            </g>
          </g>
          <g id="Grupo_1102874" data-name="Grupo 1102874" transform="translate(9.676 39.72)">
            <g id="Grupo_1102873" data-name="Grupo 1102873">
              <g id="Group_1104089" data-name="Group 1104089">
                <g id="Group_1104088" data-name="Group 1104088" clip-path="url(#clip-path-10)">
                  <g id="Grupo_1102872" data-name="Grupo 1102872" transform="translate(-99.875 3.74)">
                    <path id="Trazado_892879" data-name="Trazado 892879" d="M-542.616,1023.563c-3.212-3.883-6.927-7.878-11.816-8.757-2.418-.436-5.4.305-6.261,2.661a6.291,6.291,0,0,0,.489,4.474c1.719,4.144,4.729,7.587,7.974,10.62a135.866,135.866,0,0,0,15.553,11.964,47.368,47.368,0,0,0,10.488,6.036c2.449.895,3.267-.641,1.743-2.578-6.282-7.985-11.685-16.579-18.17-24.419" transform="translate(786.712 -876.546)" fill="#6bb16e"/>
                    <path id="Trazado_892880" data-name="Trazado 892880" d="M-548.669,1025.291c6.478,7.359,13.1,14.6,20.158,21.384.982,1,2.039,1.912,3.038,2.9a114.621,114.621,0,0,1-23.2-24.286" transform="translate(781.174 -881.197)" fill="#fff"/>
                    <path id="Trazado_892881" data-name="Trazado 892881" d="M-486.338,1007.9c.993-1.3,2.194-2.633,3.788-2.816a4.319,4.319,0,0,1,4.168,3,11.072,11.072,0,0,1,.243,5.549,43.621,43.621,0,0,1-15.511,27.273c-1.7,1.37-3.831,1.472-4.366-1.018s.877-6.25,1.469-8.689c2.008-8.292,5.047-16.527,10.209-23.3" transform="translate(758.294 -872.335)" fill="#6bb16e"/>
                    <path id="Trazado_892882" data-name="Trazado 892882" d="M-479.708,1018.144c-2.29,9.1-6.759,18.368-13.169,25.151.665-.991,1.421-1.9,2.043-2.915a109.751,109.751,0,0,0,11.126-22.236" transform="translate(755.913 -878.062)" fill="#fff"/>
                    <path id="Trazado_892883" data-name="Trazado 892883" d="M-525.741,1001.257c-.24-3.094-.264-6.323.972-9.154s4.046-5.15,7.055-4.853a7.5,7.5,0,0,1,5.267,3.582,21.134,21.134,0,0,1,2.427,6.187,164.689,164.689,0,0,1,5.583,39.971,5,5,0,0,1-.558,2.908c-4.33,6.389-12.088-9.063-13.216-11.338a74.647,74.647,0,0,1-7.532-27.3" transform="translate(770.852 -864.503)" fill="#90c28c"/>
                    <path id="Trazado_892884" data-name="Trazado 892884" d="M-511.756,1001.829c2.3,11.931,4.309,24.53,7.383,36.244q.364,1.175.7,2.364c-2.518-6.086-3.9-12.592-5.21-19.042-1.242-6.474-2.248-13-2.878-19.564" transform="translate(764.461 -870.908)" fill="#fff"/>
                    <path id="Trazado_892885" data-name="Trazado 892885" d="M-513.21,1040.208a11.446,11.446,0,0,0-6.344,5.629,2.608,2.608,0,0,0-2.969-2.221,2.631,2.631,0,0,0-2.147,2.119c.2-4.768-2.709-8.051-7.153-9.185-3.88-.99-9.145.1-10.562,4.481a6.026,6.026,0,0,0-5.069-3.834,6.245,6.245,0,0,0-5.776,3.045,6.135,6.135,0,0,0-8.547-2.156,6.4,6.4,0,0,0-2.934,4.526,8.361,8.361,0,0,0,1.675,5.958,17.348,17.348,0,0,0,4.649,4.159c8.291,5.471,18.227,7.726,28.042,8.675a46.777,46.777,0,0,0,14.589-.415,21.593,21.593,0,0,0,12.464-7.346,11.175,11.175,0,0,0,2.581-6.227c.313-6.655-7.4-9-12.5-7.208" transform="translate(788.458 -885.986)" fill="#28465b"/>
                    <path id="Trazado_892886" data-name="Trazado 892886" d="M-795.727,1008.3c5.038,2.583,8.872,7.932,8.883,13.71a6.435,6.435,0,0,1,8.6-3.326,6.655,6.655,0,0,1,3.769,5.244,17.729,17.729,0,0,1,7.529-7.164,10.685,10.685,0,0,1,10.011.377c3.094,1.962,4.719,5.589,6.174,9.009a10.77,10.77,0,0,1,14.689-4.811,10.962,10.962,0,0,1,3.195,2.562c1.919,2.24,2.878,5.164,3.672,8.035a9.527,9.527,0,0,1,11.414-1.09,7.206,7.206,0,0,1,3.266,4.42,7.509,7.509,0,0,1-2.318,6.637,16.439,16.439,0,0,1-6.241,3.516c-8.881,3.149-18.421,3.621-27.808,4.064-9.169.432-18.4.863-27.491-.428a74.1,74.1,0,0,1-27.919-9.987,32.038,32.038,0,0,1-8.466-6.9,15.548,15.548,0,0,1-3.747-10.2c.171-4.3,3.217-11.089,6.563-13.951,4.123-3.527,11.91-1.934,16.226.281" transform="translate(903.351 -872.711)" fill="#1b2b36"/>
                    <path id="Trazado_892887" data-name="Trazado 892887" d="M-439.89,1090.343c3.89.963,8.276,2.267,9.744,5.043,1.5,2.842-.817,5.807-3.263,8.133-19.976,19.011-53.385,28.6-86.868,31.281s-67.671-.724-101.535-3.35c-78.932-6.121-159.627-8.242-234.709-28.813-6.345-1.738-12.878-3.726-17.483-7.38-3.709-2.943-5.823-6.7-7.762-10.386-7.141-13.563-12.9-29.088-4.178-41.571,9.123-13.043,36.118-22.288,56.259-23.423,25.792-1.45,55.677,5.87,81.053,9.627q100.015,14.807,198.489,35.576,55.463,11.7,110.25,25.26" transform="translate(935.876 -878.741)" fill="#bba378"/>
                    <g id="Grupo_1102862" data-name="Grupo 1102862" transform="translate(0 188.879)" opacity="0.4">
                      <g id="Grupo_1102861" data-name="Grupo 1102861">
                        <g id="Group_1104081" data-name="Group 1104081">
                          <g id="Group_1104080" data-name="Group 1104080" clip-path="url(#clip-path-11)">
                            <g id="Grupo_1102860" data-name="Grupo 1102860" transform="translate(0 0)">
                              <path id="Trazado_892888" data-name="Trazado 892888" d="M-908.4,1226.81h-65.144l135.813-121.756h65.144Z" transform="translate(973.546 -1105.054)" fill="#8a692d"/>
                            </g>
                          </g>
                        </g>
                      </g>
                    </g>
                    <g id="Grupo_1102865" data-name="Grupo 1102865" transform="translate(44.532 152.321)" opacity="0.5">
                      <g id="Grupo_1102864" data-name="Grupo 1102864">
                        <g id="Group_1104083" data-name="Group 1104083">
                          <g id="Group_1104082" data-name="Group 1104082" clip-path="url(#clip-path-12)">
                            <g id="Grupo_1102863" data-name="Grupo 1102863" transform="translate(-0.025 -0.001)">
                              <path id="Trazado_892889" data-name="Trazado 892889" d="M-890.3,1075.453c5.331-13.836,23.389-25.57,37.31-28.589,17.829-3.87,39.186.611,57.13,1.967q66.059,4.99,131.6,15.286-64.754-12.258-130.31-19.317c-17.893-1.925-39.1-7.079-57.042-3.782-14.006,2.574-32.411,13.728-38.156,27.392a33.339,33.339,0,0,0-2.382,14.663,30.672,30.672,0,0,1,1.846-7.621" transform="translate(892.215 -1039.941)" fill="#8a692d"/>
                              <path id="Trazado_892890" data-name="Trazado 892890" d="M-382.077,1126.015a15.49,15.49,0,0,1-1.968,4.61c-12.417,20.793-34.91,33.471-57.992,39.285-12.333,3.107-24.943,4.5-37.636,5.215a195.872,195.872,0,0,0,36.335-3.971c23.246-5.078,46.112-17.034,59.151-37.423,1.473-2.3,2.841-5.142,2.111-7.71" transform="translate(705.427 -1077.687)" fill="#8a692d"/>
                            </g>
                          </g>
                        </g>
                      </g>
                    </g>
                    <rect id="Rectángulo_405158" data-name="Rectángulo 405158" width="1.234" height="31.012" transform="translate(176.563 109.07)" fill="#d4ddec"/>
                    <rect id="Rectángulo_405159" data-name="Rectángulo 405159" width="1.234" height="31.012" transform="translate(181.129 109.07)" fill="#d4ddec"/>
                    <path id="Trazado_892893" data-name="Trazado 892893" d="M-686.241,1091.13v4.234l10.725,2.74s6.736,1.668-.464,5.124c-4.889,2.342-12.67,3.375-17.162,3.792a3.089,3.089,0,0,1-3.331-2.848,3.348,3.348,0,0,1-.007-.474,91.686,91.686,0,0,1,1.511-13.28l4.587-2.444Z" transform="translate(848.101 -908.685)" fill="#192f4c"/>
                    <path id="Trazado_892894" data-name="Trazado 892894" d="M-739.407,1096.87a52.128,52.128,0,0,1-.639,7.567,23.249,23.249,0,0,0-.694,6.792s4.181,1.072,7.084-1.073,9.756-3.694,10.4-4.887,1.452-4.29,0-5.72-6.911.357-6.911.357l-1.568-4.825-4.355-.537Z" transform="translate(868.15 -911.566)" fill="#192f4c"/>
                    <path id="Trazado_892895" data-name="Trazado 892895" d="M-719.252,914.13l14.469,50.348a7.78,7.78,0,0,1,.2,3.381l-7.193,44.76a24.856,24.856,0,0,1-8.728-.713l2.613-42.541-14.634-27.175-2.961,28.42s-2.962,10.547-2.962,20.02,1.22,23.058,1.22,23.058a13.917,13.917,0,0,1-7.665,1.787s-6.271-22.522-6.1-35.749,3.136-13.645,1.917-26.1l-1.22-12.452-1.324-4.456a30.61,30.61,0,0,1-1.191-10.858l.893-12.69,13.3-4.23,11.149,1.252Z" transform="translate(873.637 -830.174)" fill="#e4964a"/>
                    <path id="Trazado_892896" data-name="Trazado 892896" d="M-741.909,806.622l-2.322,3.218-11.345,6.533a9.5,9.5,0,0,0-4.674,7.332l-2.04,20.969a61.859,61.859,0,0,0-.242,8.4l1.229,31.363.694,10.963,5.923.713-1.324-4.456A30.616,30.616,0,0,1-757.2,880.8l.894-12.689s13.894,4.421,32.669.953c0,0,1.886-19.3,1.886-18.411s6.619,14.478,6.619,14.478l11.666,15.724,1.568,5.3,3.252,2.562v1.549h-1.22l1.22,1.252h1.568l2.39-2.056a2.3,2.3,0,0,0,.378-3.04l-4.742-6.822-7.811-20.02-7.886-33.071a12.881,12.881,0,0,0-4.775-7.323l-9.611-7.208-1.6-4.137-7.316-1.676Z" transform="translate(878.027 -785.104)" fill="#ffe054"/>
                    <g id="Grupo_1102868" data-name="Grupo 1102868" transform="translate(119.335 41.867)">
                      <g id="Grupo_1102867" data-name="Grupo 1102867">
                        <g id="Group_1104085" data-name="Group 1104085">
                          <g id="Group_1104084" data-name="Group 1104084" clip-path="url(#clip-path-13)">
                            <g id="Grupo_1102866" data-name="Grupo 1102866" transform="translate(0.007 0)">
                              <path id="Trazado_892897" data-name="Trazado 892897" d="M-752.787,907.9a30.633,30.633,0,0,1-1.191-10.858l.893-12.69-.805-18.555a126.982,126.982,0,0,1,.475-22.58,114.873,114.873,0,0,0-1.991,25.2l.966,16.843s-2.36,16.273,1.865,23.344Z" transform="translate(755.462 -843.22)" fill="#ffe054"/>
                            </g>
                          </g>
                        </g>
                      </g>
                    </g>
                    <path id="Trazado_892898" data-name="Trazado 892898" d="M-756.311,901.516l-.806-18.555a16.536,16.536,0,0,1-5.439-.6q-.057,2.062.023,4.125l1.229,31.363.7,10.963,5.923.713-1.324-4.456a30.619,30.619,0,0,1-1.191-10.858Z" transform="translate(878.027 -818.516)" fill="#e0907c"/>
                    <path id="Trazado_892899" data-name="Trazado 892899" d="M-668.774,914.271l1.568,5.3,3.248,2.563v1.549h-1.22l1.22,1.254h1.568l2.391-2.056a2.3,2.3,0,0,0,.377-3.04l-4.742-6.823L-672.174,893l-2.537-10.639a17.561,17.561,0,0,0-11.235,4.42l-.011.1c1.886,4.231,5.507,11.664,5.507,11.664Z" transform="translate(843.334 -818.518)" fill="#e0907c"/>
                    <path id="Trazado_892900" data-name="Trazado 892900" d="M-752.4,882.884c-.763-8.884-1.44-17.987-1.544-26.9.151-5.4.749-10.759,1.382-16.115-.277,5.215-.746,10.932-.844,16.118.2,8.89.794,18,1.006,26.9" transform="translate(874.118 -799.883)" fill="#192f4c"/>
                    <path id="Trazado_892901" data-name="Trazado 892901" d="M-759.259,958.229l-8.752-1.846-2.206,11.082,12.92,3.108-.841-8.589Z" transform="translate(881.485 -850.978)" fill="#593b19"/>
                    <rect id="Rectángulo_405161" data-name="Rectángulo 405161" width="3.418" height="1.483" transform="translate(199.248 182.146)" fill="#28465b"/>
                    <rect id="Rectángulo_405162" data-name="Rectángulo 405162" width="2.111" height="1.341" transform="translate(199.901 183.629)" fill="#28465b"/>
                    <path id="Trazado_892902" data-name="Trazado 892902" d="M-605.921,1099.84a2.333,2.333,0,0,1-2.3,2.362,2.334,2.334,0,0,1-2.3-2.364,2.333,2.333,0,0,1,2.3-2.362,2.333,2.333,0,0,1,2.3,2.362v0" transform="translate(809.181 -912.852)" fill="#28465b"/>
                    <path id="Trazado_892903" data-name="Trazado 892903" d="M-630.324,1016.227h-16.859v52.442h10.366l13.7-9.31v-35.742a7.307,7.307,0,0,0-7.211-7.4" transform="translate(825.778 -877.218)" fill="#ffe054"/>
                    <path id="Trazado_892904" data-name="Trazado 892904" d="M-649.587,953.632v3.9h-1.945v-6.882h1.35l1.815,1.426v1.549Z" transform="translate(827.748 -848.465)" fill="#192f4c"/>
                    <path id="Trazado_892905" data-name="Trazado 892905" d="M-642.884,957.112v2.647h1.6v-4.025Z" transform="translate(823.832 -850.694)" fill="#192f4c"/>
                    <path id="Trazado_892906" data-name="Trazado 892906" d="M-613.864,1040.856a5.346,5.346,0,0,0-3.345-5l-.138-.362h-1.367a9.35,9.35,0,0,0-2.024.291l-.182.065c-6.1,2.234-5.836,7.332-5.836,7.332v23.773h1.6l.323-1.265,10.972-5.185Z" transform="translate(816.53 -885.672)" fill="#a66f38"/>
                    <path id="Trazado_892907" data-name="Trazado 892907" d="M-623.839,1066.958v-23.772s-.261-5.091,5.836-7.332l.182-.065a5.175,5.175,0,0,1,6.6,3.345,5.479,5.479,0,0,1,.275,1.723v19.653Z" transform="translate(815.21 -885.676)" fill="#e4964a"/>
                    <path id="Trazado_892908" data-name="Trazado 892908" d="M-717.887,963.449c-2.586-4.466-5.106-9.1-7.574-13.645l-1.468-2.755a19.162,19.162,0,0,1-2.111-5.906,28.586,28.586,0,0,0,2.427,5.719l1.488,2.742c2.44,4.565,4.922,9.219,7.233,13.849" transform="translate(862.841 -844.295)" fill="#192f4c"/>
                    <path id="Trazado_892909" data-name="Trazado 892909" d="M-691.513,878.37c-3.648-7.691-7.077-15.546-10.243-23.461,3.648,7.694,7.078,15.547,10.243,23.461" transform="translate(850.488 -806.479)" fill="#192f4c"/>
                    <rect id="Rectángulo_405163" data-name="Rectángulo 405163" width="3.949" height="1.713" transform="translate(185.013 191.456)" fill="#28465b"/>
                    <rect id="Rectángulo_405164" data-name="Rectángulo 405164" width="2.438" height="1.549" transform="translate(185.768 193.169)" fill="#28465b"/>
                    <path id="Trazado_892910" data-name="Trazado 892910" d="M-631.389,1117.474a2.7,2.7,0,0,1-2.661,2.73,2.7,2.7,0,0,1-2.661-2.73,2.7,2.7,0,0,1,2.661-2.73h0a2.7,2.7,0,0,1,2.661,2.73" transform="translate(821.037 -920.425)" fill="#28465b"/>
                    <rect id="Rectángulo_405165" data-name="Rectángulo 405165" width="3.949" height="1.713" transform="translate(168.23 191.456)" fill="#28465b"/>
                    <rect id="Rectángulo_405166" data-name="Rectángulo 405166" width="2.438" height="1.549" transform="translate(168.986 193.169)" fill="#28465b"/>
                    <path id="Trazado_892911" data-name="Trazado 892911" d="M-662.057,1117.474a2.7,2.7,0,0,1-2.661,2.73,2.7,2.7,0,0,1-2.661-2.73,2.7,2.7,0,0,1,2.661-2.73h0a2.7,2.7,0,0,1,2.661,2.73" transform="translate(834.923 -920.425)" fill="#28465b"/>
                    <path id="Trazado_892912" data-name="Trazado 892912" d="M-645.394,1068.681h-20.734V1026.87a10.5,10.5,0,0,1,10.366-10.635A10.5,10.5,0,0,1-645.4,1026.87Z" transform="translate(834.356 -877.225)" fill="#c6ae43"/>
                    <path id="Trazado_892913" data-name="Trazado 892913" d="M-708.1,787.92s.02,15.209-3.929,15.8a15.744,15.744,0,0,0-12.775-5.363l2.322-5.243,8.362-5.779Z" transform="translate(860.924 -776.848)" fill="#e0907c"/>
                    <path id="Trazado_892914" data-name="Trazado 892914" d="M-728.078,790.167v-2.531a15.6,15.6,0,0,1-3.949-10.1s-.581-8.044,10.685-8.877a8.507,8.507,0,0,1,7.9,4.707s2.322.834,3.252-1.191c0,0,1.742,7.149-2.206,7.984,0,0-2.091,5-5.227,6.435l-.581,3.575s-3.484-2.74-9.872,0" transform="translate(864.196 -768.653)" fill="#6a2a13"/>
                    <g id="Grupo_1102871" data-name="Grupo 1102871" transform="translate(119.339 64.448)" opacity="0.7">
                      <g id="Grupo_1102870" data-name="Grupo 1102870">
                        <g id="Group_1104087" data-name="Group 1104087">
                          <g id="Group_1104086" data-name="Group 1104086" clip-path="url(#clip-path-14)">
                            <g id="Grupo_1102869" data-name="Grupo 1102869" transform="translate(0 -0.004)">
                              <path id="Trazado_892915" data-name="Trazado 892915" d="M-753.091,901.985l-.806-18.555a15.364,15.364,0,0,1-1.571.013q.012,1.285.056,2.6l.966,16.844s-2.36,16.272,1.865,23.344l-.208-.7a30.63,30.63,0,0,1-1.191-10.858Z" transform="translate(755.468 -883.429)" fill="#e0907c"/>
                            </g>
                          </g>
                        </g>
                      </g>
                    </g>
                    <path id="Trazado_892916" data-name="Trazado 892916" d="M-721.412,1104.083a4.053,4.053,0,0,1,4.089,2.419,6.258,6.258,0,0,1,.223.693,4.842,4.842,0,0,0-4.312-3.113" transform="translate(859.387 -915.741)" fill="#fff"/>
                    <path id="Trazado_892917" data-name="Trazado 892917" d="M-721.412,1103.844a6.394,6.394,0,0,1,4.526.189,12.389,12.389,0,0,0-4.526-.189" transform="translate(859.387 -915.502)" fill="#fff"/>
                    <path id="Trazado_892918" data-name="Trazado 892918" d="M-677.933,1093.594a34.363,34.363,0,0,1,0,7.455,34.3,34.3,0,0,1,0-7.455" transform="translate(839.793 -911.15)" fill="#fff"/>
                    <path id="Trazado_892919" data-name="Trazado 892919" d="M-677.76,1100.962a8.585,8.585,0,0,1,3.849,4.237,8.5,8.5,0,0,0-3.913-4.047l.065-.19" transform="translate(839.652 -914.381)" fill="#fff"/>
                    <path id="Trazado_892920" data-name="Trazado 892920" d="M-751.124,916.484c5.317,2.787,11.376,3.623,17.252,4.217.849.07,1.7.123,2.549.2-.853.01-1.706,0-2.56-.007a50.737,50.737,0,0,1-7.642-.848,26.961,26.961,0,0,1-9.6-3.564" transform="translate(872.84 -833.481)" fill="#192f4c"/>
                    <path id="Trazado_892921" data-name="Trazado 892921" d="M-701.023,863.528a14.313,14.313,0,0,1-4.844-3.258,14.7,14.7,0,0,0,3.631,2.361,10.426,10.426,0,0,0,1.327.509Z" transform="translate(852.349 -808.83)" fill="#192f4c"/>
                    <path id="Trazado_892922" data-name="Trazado 892922" d="M-688.939,1015.733a18.332,18.332,0,0,0,7.085-1.049,8.753,8.753,0,0,1-7.085,1.049" transform="translate(844.684 -876.545)" fill="#192f4c"/>
                    <path id="Trazado_892923" data-name="Trazado 892923" d="M-688.939,1016.553a16.434,16.434,0,0,0,5.545,2.315,6.9,6.9,0,0,1-5.545-2.315" transform="translate(844.684 -877.365)" fill="#192f4c"/>
                    <path id="Trazado_892924" data-name="Trazado 892924" d="M-746.258,1008.617a20.071,20.071,0,0,0,8.147,2.556,10.889,10.889,0,0,1-8.147-2.556" transform="translate(870.637 -873.885)" fill="#192f4c"/>
                    <path id="Trazado_892925" data-name="Trazado 892925" d="M-745.44,1010.893a14.758,14.758,0,0,0,7.7,4.922,9.776,9.776,0,0,1-7.7-4.922" transform="translate(870.266 -874.883)" fill="#192f4c"/>
                  </g>
                </g>
              </g>
            </g>
          </g>
          <g id="Group_1104107" data-name="Group 1104107" transform="translate(22.268 17.26)">
            <g id="Group_1104106" data-name="Group 1104106" clip-path="url(#clip-path-15)">
              <g id="Grupo_1101535" data-name="Grupo 1101535" transform="translate(91.706 24.601)">
                <path id="Trazado_883379" data-name="Trazado 883379" d="M-581.487,824.108c-1.917,2.766-3.921,5.656-5.735,8.493-.91,1.423-1.777,2.853-2.565,4.256-.389.7-.743,1.4-1.06,2.075a13.929,13.929,0,0,0-.754,1.861c-.027.115-.086.27-.1.351a2.32,2.32,0,0,0-.057.285,4.691,4.691,0,0,0-.027.729,7.881,7.881,0,0,0,.315,1.851,23.185,23.185,0,0,0,1.706,4.209,78.01,78.01,0,0,0,5.26,8.591l.053.078a1.978,1.978,0,0,1-.853,2.906,2.706,2.706,0,0,1-2.857-.246,45.7,45.7,0,0,1-4.291-3.876,44.946,44.946,0,0,1-3.759-4.343,26.285,26.285,0,0,1-3.056-5.128,14.811,14.811,0,0,1-1-3.131,10.832,10.832,0,0,1-.177-1.825,9.311,9.311,0,0,1,.044-.99c.022-.345.082-.606.126-.913a24.851,24.851,0,0,1,1.957-5.736,55.682,55.682,0,0,1,2.57-4.942,85.916,85.916,0,0,1,6.1-9.173,5.291,5.291,0,0,1,6.706-1.31,3.941,3.941,0,0,1,1.5,5.858Z" transform="translate(600.443 -788.482)" fill="#1c262b"/>
                <path id="Trazado_883380" data-name="Trazado 883380" d="M-574.509,888.038l.947,2.59-6.954.546a5.506,5.506,0,0,1,.431-3.357,2.641,2.641,0,0,1,2.136-1.329l.617-.057a2.7,2.7,0,0,1,2.821,1.608" transform="translate(591.463 -818.697)" fill="#6b2e2d"/>
                <path id="Trazado_883381" data-name="Trazado 883381" d="M-572.907,897.467l-5.323.938-2.208-3.944,6.953-.546Z" transform="translate(591.385 -821.985)" fill="#6b2e2d"/>
                <path id="Trazado_883382" data-name="Trazado 883382" d="M-534.534,788.074a.7.7,0,0,0,.5.809c.309.036.583-.268.623-.679a.7.7,0,0,0-.5-.809c-.309-.035-.583.268-.623.679" transform="translate(570.603 -775.272)" fill="#1c262b"/>
                <path id="Trazado_883383" data-name="Trazado 883383" d="M-534.545,789.973a14.906,14.906,0,0,0,1.955,3.778,3.061,3.061,0,0,1-2.287.107Z" transform="translate(570.756 -776.403)" fill="#4f0c0e"/>
                <path id="Trazado_883384" data-name="Trazado 883384" d="M-537.5,783.589a.3.3,0,0,1-.161-.115.219.219,0,0,1,.084-.326l.009,0a3.1,3.1,0,0,1,2.525-.085.24.24,0,0,1,.132.331.288.288,0,0,1-.362.1l-.007,0a2.476,2.476,0,0,0-2,.085.308.308,0,0,1-.221.015" transform="translate(572.036 -773.271)" fill="#1c262b"/>
                <path id="Trazado_883385" data-name="Trazado 883385" d="M-562.508,793.506c.993,3.778,2.113,10.686-.786,13.136,0,0,1.328,3.839,9.3,4,8.765.169,4.034-3.733,4.034-3.733-4.825-1.1-4.829-4.205-4.114-7.112Z" transform="translate(583.623 -777.952)" fill="#6b2e2d"/>
                <path id="Trazado_883386" data-name="Trazado 883386" d="M-568.612,814.255c-.913-.521.3-5.165,1.181-5.621,2.349-1.216,12.528-.737,16.995,1.69,1.42,1.4,1.192,4.338,1.192,4.338Z" transform="translate(586.177 -784.304)" fill="#1c262b"/>
                <path id="Trazado_883387" data-name="Trazado 883387" d="M-571.123,1132.92a2.01,2.01,0,0,0,1.4-.3.443.443,0,0,0-.022-.576.7.7,0,0,0-.447-.3c-.861-.2-2.456.727-2.525.764a.108.108,0,0,0-.054.121.139.139,0,0,0,.108.1,8.537,8.537,0,0,0,1.537.187m.706-.958a.96.96,0,0,1,.172.021.4.4,0,0,1,.261.17c.132.2.061.286.038.313-.243.281-1.442.255-2.326.1a4.746,4.746,0,0,1,1.855-.6" transform="translate(587.914 -926.27)" fill="#2b5da8"/>
                <path id="Trazado_883388" data-name="Trazado 883388" d="M-572.627,1131.744a.142.142,0,0,0,.067-.012c.6-.272,1.74-1.363,1.6-1.939a.473.473,0,0,0-.453-.331.808.808,0,0,0-.589.14c-.668.469-.762,1.945-.765,2.007a.126.126,0,0,0,.067.113.157.157,0,0,0,.077.021m1.122-2.047.063.005c.182.025.2.1.207.128.085.34-.639,1.169-1.23,1.553a2.545,2.545,0,0,1,.644-1.588.508.508,0,0,1,.316-.1" transform="translate(587.913 -925.276)" fill="#2b5da8"/>
                <path id="Trazado_883389" data-name="Trazado 883389" d="M-487.007,1125.281c.723-.146,1.393-.375,1.533-.712a.445.445,0,0,0-.18-.517.791.791,0,0,0-.514-.192c-1.012-.037-2.658,1.357-2.727,1.419a.106.106,0,0,0-.025.135.151.151,0,0,0,.137.076,11.461,11.461,0,0,0,1.775-.209m.583-1.153a1.121,1.121,0,0,1,.267-.025.479.479,0,0,1,.315.113c.142.128.132.209.112.254-.157.377-1.58.672-2.67.751a5.975,5.975,0,0,1,1.977-1.1" transform="translate(549.954 -922.823)" fill="#2b5da8"/>
                <path id="Trazado_883390" data-name="Trazado 883390" d="M-488.833,1124.739a.148.148,0,0,0,.051-.021c.592-.409,1.588-1.766,1.3-2.312a.548.548,0,0,0-.605-.232.966.966,0,0,0-.674.353,3.038,3.038,0,0,0-.249,2.109.138.138,0,0,0,.09.1.159.159,0,0,0,.086.007m.715-2.311a.759.759,0,0,1,.082-.012c.246-.028.291.054.3.085.172.328-.466,1.365-1.04,1.876a2.482,2.482,0,0,1,.241-1.7.689.689,0,0,1,.414-.248" transform="translate(550.029 -922.076)" fill="#2b5da8"/>
                <path id="Trazado_883391" data-name="Trazado 883391" d="M-501.9,1119.765l5.414-.958-2.269-12.485-5.414.959Z" transform="translate(556.855 -915.132)" fill="#6b2e2d"/>
                <path id="Trazado_883392" data-name="Trazado 883392" d="M-584.834,1124.087l5.955.535,1.294-11.6-5.955-.534Z" transform="translate(593.375 -917.835)" fill="#6b2e2d"/>
                <path id="Trazado_883393" data-name="Trazado 883393" d="M-580.071,1132.1l-6.6-.178a.467.467,0,0,0-.485.339l-1.019,4.527a.826.826,0,0,0,.763.923,1.214,1.214,0,0,0,.126.01c2.3.027,3.422-.061,6.326.018,1.788.048,7.429.433,9.878.286,2.4-.143,2.462-2.291,1.432-2.422-4.621-.594-7.963-1.984-9.446-3.161a1.632,1.632,0,0,0-.964-.339" transform="translate(594.895 -926.357)" fill="#1c262b"/>
                <path id="Trazado_883394" data-name="Trazado 883394" d="M-495.516,1125.7l-6.156,1.243a.428.428,0,0,0-.369.438l.334,4.683a.874.874,0,0,0,.961.746,1.164,1.164,0,0,0,.138-.017c2.21-.482,5.381-1.245,8.172-1.808,3.264-.659,4.691-.778,8.519-1.55,2.314-.468,2.28-2.678,1.25-2.672-4.688.031-6.877.375-11.362-.946a3.111,3.111,0,0,0-1.485-.117" transform="translate(555.89 -923.609)" fill="#1c262b"/>
                <g id="Grupo_1101510" data-name="Grupo 1101510" transform="translate(52.68 191.195)" opacity="0.2">
                  <g id="Grupo_1101509" data-name="Grupo 1101509">
                    <g id="Group_1104091" data-name="Group 1104091">
                      <g id="Group_1104090" data-name="Group 1104090" clip-path="url(#clip-path-16)">
                        <g id="Grupo_1101508" data-name="Grupo 1101508" transform="translate(0 0)">
                          <path id="Trazado_883395" data-name="Trazado 883395" d="M-498.76,1106.33l1.171,6.435-5.417.959-1.17-6.436Z" transform="translate(504.176 -1106.33)" fill="#040405"/>
                        </g>
                      </g>
                    </g>
                  </g>
                </g>
                <g id="Grupo_1101513" data-name="Grupo 1101513" transform="translate(9.164 194.654)" opacity="0.2">
                  <g id="Grupo_1101512" data-name="Grupo 1101512">
                    <g id="Group_1104093" data-name="Group 1104093">
                      <g id="Group_1104092" data-name="Group 1104092" clip-path="url(#clip-path-17)">
                        <g id="Grupo_1101511" data-name="Grupo 1101511" transform="translate(0 0)">
                          <path id="Trazado_883396" data-name="Trazado 883396" d="M-583.026,1112.492l5.957.535-.669,5.979-5.958-.535Z" transform="translate(583.696 -1112.492)" fill="#040405"/>
                        </g>
                      </g>
                    </g>
                  </g>
                </g>
                <path id="Trazado_883397" data-name="Trazado 883397" d="M-563.209,778.645c-.076,5.09-.416,8.051,2.291,10.983a8.311,8.311,0,0,0,10.6,1.291,6.708,6.708,0,0,0,2.64-3.242c1.632-4.392,1.482-11.98-4.02-14.648a8.2,8.2,0,0,0-10.384,2.149,5.981,5.981,0,0,0-1.124,3.468" transform="translate(583.609 -768.542)" fill="#6b2e2d"/>
                <path id="Trazado_883398" data-name="Trazado 883398" d="M-554.256,781.949c-1.413,2.323-5.719,4.969-8.06,5.154a4.5,4.5,0,0,1-5.012-3.715q-.016-.174-.015-.35c-.042-2.723-2.212-5.952-1.666-7.839s1.418-2.831,2.664-2.432a9.762,9.762,0,0,1,7.727-2.722,19.672,19.672,0,0,1,6.283,1.2c1.651.651,3.756,3.725,2.711,5.018-1.279,1.583-4.675.6-4.633,5.689" transform="translate(586.251 -767.648)" fill="#1c262b"/>
                <path id="Trazado_883399" data-name="Trazado 883399" d="M-573.892,777.709a2.1,2.1,0,0,0,1.736,3.126c2.53.332,9.292-.294,12.128-1.737s4.705-5.117,5.36-6.778a2.489,2.489,0,0,0-2.04-3.511c-1.262.136-5.4-1.358-7.089-2.422s-5.328,1.258-7.575.19c-6.231-2.97-10.877,3.539-6.761,4.111s4.33.626,4.019,1.579-1.775,4.243.218,5.443" transform="translate(591.047 -765.804)" fill="#fea725"/>
                <g id="Grupo_1101516" data-name="Grupo 1101516" transform="translate(17.714 3.54)" opacity="0.2">
                  <g id="Grupo_1101515" data-name="Grupo 1101515">
                    <g id="Group_1104095" data-name="Group 1104095">
                      <g id="Group_1104094" data-name="Group 1104094" clip-path="url(#clip-path-18)">
                        <g id="Grupo_1101514" data-name="Grupo 1101514" transform="translate(0 0)">
                          <path id="Trazado_883400" data-name="Trazado 883400" d="M-568.073,780.474a26.208,26.208,0,0,0,11.4-2.15,8,8,0,0,0,4.662-6.215s-.609,3.408-5.341,5.834a28.012,28.012,0,0,1-10.717,2.532" transform="translate(568.073 -772.109)" fill="#040405"/>
                        </g>
                      </g>
                    </g>
                  </g>
                </g>
                <path id="Trazado_883401" data-name="Trazado 883401" d="M-546.749,786.392a5.437,5.437,0,0,0,1.068,3.632c1.062,1.435,2.51.919,2.982-.515.425-1.29.389-3.591-1.052-4.534a1.849,1.849,0,0,0-3,1.418" transform="translate(576.139 -774.039)" fill="#6b2e2d"/>
                <path id="Trazado_883402" data-name="Trazado 883402" d="M-560.745,896.743s-1.036,39.242-2.144,54.2c-1.214,16.374-13.682,71.572-13.682,71.572l-10.771-.755s7.809-45.236,7.295-67.951c-.4-17.449-.936-57.462-.936-57.462Z" transform="translate(594.511 -823.049)" fill="#6a2a13"/>
                <path id="Trazado_883403" data-name="Trazado 883403" d="M-575.38,1114.714c.046,0-1.2,3.519-1.2,3.519l-12.119-.848.3-3.195Z" transform="translate(595.127 -918.582)" fill="#1c262b"/>
                <g id="Grupo_1101519" data-name="Grupo 1101519" transform="translate(28.298 87.343)" opacity="0.3">
                  <g id="Grupo_1101518" data-name="Grupo 1101518">
                    <g id="Group_1104097" data-name="Group 1104097">
                      <g id="Group_1104096" data-name="Group 1104096" clip-path="url(#clip-path-19)">
                        <g id="Grupo_1101517" data-name="Grupo 1101517" transform="translate(0 -0.001)">
                          <path id="Trazado_883404" data-name="Trazado 883404" d="M-547.42,924.6c1.412-2.655,2.817-3.224,3.76-3.231-.343,10.769-.862,25.586-1.431,35.511-2.79-12.2-5.239-26.81-2.331-32.279" transform="translate(548.732 -921.365)" fill="#040405"/>
                        </g>
                      </g>
                    </g>
                  </g>
                </g>
                <path id="Trazado_883405" data-name="Trazado 883405" d="M-537.067,897.1s7.7,36.553,9.735,52.221c2.12,16.3,6.141,69.26,6.141,69.26l-9.55,1.927s-10.93-52.6-14.093-68.512c-3.449-17.353-14.789-55.342-14.789-55.342Z" transform="translate(581.96 -823.186)" fill="#6a2a13"/>
                <path id="Trazado_883406" data-name="Trazado 883406" d="M-498.258,1107.126c.043-.009.606,3.637.606,3.637l-11.617,2.344-1.337-3.085Z" transform="translate(559.767 -915.484)" fill="#1c262b"/>
                <path id="Trazado_883407" data-name="Trazado 883407" d="M-458.1,851.41l21.17,162.343-1.12.116-23.04-162.147Z" transform="translate(537.349 -803.345)" fill="#1c262b"/>
                <path id="Trazado_883408" data-name="Trazado 883408" d="M-468.336,861.983l6.619-1.018.112,5.8s-5.014,1.467-7.354-1.787Z" transform="translate(540.911 -807.535)" fill="#6b2e2d"/>
                <path id="Trazado_883409" data-name="Trazado 883409" d="M-452.535,862.006l-.027,4.235-3.049.518-.11-5.8Z" transform="translate(534.917 -807.532)" fill="#6b2e2d"/>
                <path id="Trazado_883410" data-name="Trazado 883410" d="M-546.183,820c.492,4.295,2.445,15.5.609,39.778a2.317,2.317,0,0,1-2.466,1.977l-29.344-.567a2.141,2.141,0,0,1-2.233-1.987c.011-5.981.815-21.028-2.4-36.52-.726-3.546,1.975-6.935,6.034-7.569a8.534,8.534,0,0,1,.958-.094c1.019-.043,2.092-.066,3.2-.057,4,.03,9.77.047,13.3.382a65.358,65.358,0,0,1,9.2,1.487A3.833,3.833,0,0,1-546.186,820" transform="translate(592.154 -787.36)" fill="#1c262b"/>
                <path id="Trazado_883411" data-name="Trazado 883411" d="M-573.144,819.635a3.639,3.639,0,0,1-.717-4.867c.129-.231-.3-.444-.685-.332a23.517,23.517,0,0,0-3.6,1.31,1.338,1.338,0,0,0-.744.769c-.694,2.345-.155,4.252.606,4.7,2.111-.621,5.142-1.581,5.142-1.581" transform="translate(590.83 -787.117)" fill="#fea725"/>
                <path id="Trazado_883412" data-name="Trazado 883412" d="M-538.8,822.121c.1-2.158,3.075-3.958,5.273-4.784.389-.146.277-.556-.174-.645a30.7,30.7,0,0,0-4.61-.61,3.133,3.133,0,0,0-1.554.327c-3.415,1.781-5.264,3.788-5.167,4.582,2.525.491,6.23,1.134,6.23,1.134" transform="translate(575.358 -787.851)" fill="#fea725"/>
                <path id="Trazado_883413" data-name="Trazado 883413" d="M-520.093,872.865a19.361,19.361,0,0,1,.252,3.084c.005.41-.229.72-.531.684-1.369-.161-5.023-.764-6.834-2.785l-1.11-9.254c.931,1.631,3.662,5.688,7.833,7.7a.793.793,0,0,1,.389.569" transform="translate(567.786 -809.126)" fill="#fea725"/>
                <g id="Grupo_1101522" data-name="Grupo 1101522" transform="translate(42.024 42.829)" opacity="0.2">
                  <g id="Grupo_1101521" data-name="Grupo 1101521">
                    <g id="Group_1104099" data-name="Group 1104099">
                      <g id="Group_1104098" data-name="Group 1104098" clip-path="url(#clip-path-20)">
                        <g id="Grupo_1101520" data-name="Grupo 1101520" transform="translate(0 0.001)">
                          <path id="Trazado_883414" data-name="Trazado 883414" d="M-518.583,843.287l-4.987-1.2A16.375,16.375,0,0,0-518.351,856c.083-5.1-.03-9.3-.232-12.713" transform="translate(523.649 -842.085)" fill="#040405"/>
                        </g>
                      </g>
                    </g>
                  </g>
                </g>
                <path id="Trazado_883415" data-name="Trazado 883415" d="M-523.921,821.435c.262.649.62,1.452.944,2.186l1.038,2.242c.72,1.486,1.457,2.964,2.267,4.4a44.24,44.24,0,0,0,5.452,7.957c.514.586,1.053,1.122,1.6,1.636a6.921,6.921,0,0,0,1.345,1,14.048,14.048,0,0,0,4.116,1.428,46.019,46.019,0,0,0,10.577.588l.194-.008a2.319,2.319,0,0,1,2.527,2.022,2.127,2.127,0,0,1-1.533,2.063q-1.5.519-3.061.9c-1.019.242-2.05.456-3.108.614a32.534,32.534,0,0,1-6.569.384,21.282,21.282,0,0,1-7.078-1.462,14.727,14.727,0,0,1-3.439-1.943c-.859-.674-1.679-1.369-2.427-2.089a45.492,45.492,0,0,1-7.238-9.24c-.965-1.612-1.867-3.243-2.666-4.906-.406-.83-.792-1.665-1.154-2.513-.374-.863-.691-1.666-1.042-2.638-.854-2.223.516-4.63,3.06-5.376a5.048,5.048,0,0,1,6.153,2.674Z" transform="translate(570.1 -788.889)" fill="#1c262b"/>
                <path id="Trazado_883416" data-name="Trazado 883416" d="M-591.663,820.465c2.193-2.258,24.337-2.693,29.567-1.549s4.238,14.708,4.848,23.354,2.079,29.533-1.7,31.429-30.947,4.566-34.086-.525-2.219-22.426.68-25.437c-.491-5.847-3.35-23.12.68-27.272" transform="translate(597.976 -788.827)" fill="#fea725"/>
                <g id="Grupo_1101528" data-name="Grupo 1101528" transform="translate(31.675 30.481)" opacity="0.2">
                  <g id="Grupo_1101527" data-name="Grupo 1101527">
                    <g id="Group_1104101" data-name="Group 1104101">
                      <g id="Group_1104100" data-name="Group 1104100" clip-path="url(#clip-path-21)">
                        <g id="Grupo_1101526" data-name="Grupo 1101526" transform="translate(-0.004 0)">
                          <path id="Trazado_883418" data-name="Trazado 883418" d="M-533.512,843.056c-.546-7.813.2-19.631-3.5-22.688a1.679,1.679,0,0,1-.4-.066c-1.787-.581-3.185-.072-3.634,2.986s.456,7.532.493,8.872-.463,5.645-.314,6.951,1.914,17.1-.3,22.976-2.842,14.046,5.944,12.4c3.776-1.9,2.31-22.787,1.7-31.43" transform="translate(542.567 -820.092)" fill="#2b5da8"/>
                        </g>
                      </g>
                    </g>
                  </g>
                </g>
                <g id="Grupo_1101531" data-name="Grupo 1101531" transform="translate(5.407 30.515)" opacity="0.8">
                  <g id="Grupo_1101530" data-name="Grupo 1101530">
                    <g id="Group_1104103" data-name="Group 1104103">
                      <g id="Group_1104102" data-name="Group 1104102" clip-path="url(#clip-path-22)">
                        <g id="Grupo_1101529" data-name="Grupo 1101529" transform="translate(0 0.007)">
                          <path id="Trazado_883419" data-name="Trazado 883419" d="M-579.617,838.171c-5.319,0-10.033-.339-10.842-1.083a.3.3,0,0,1,.013-.462.413.413,0,0,1,.529.012h0c1.4,1.28,23.238,1.317,26.437-.6,1.224-.733.888-3.733.563-6.628-.438-3.918-.893-7.968,1.7-9.211a.4.4,0,0,1,.5.14.306.306,0,0,1-.144.432c-2.163,1.035-1.715,5.04-1.319,8.574.377,3.37.7,6.278-.885,7.23-1.7,1.018-9.641,1.593-16.56,1.593" transform="translate(590.563 -820.164)" fill="#2b5da8"/>
                        </g>
                      </g>
                    </g>
                  </g>
                </g>
                <path id="Trazado_883420" data-name="Trazado 883420" d="M-554.427,845.41c-.912,1.152-1.344,5.117-1.068,6.771a.492.492,0,0,0,.531.368c.7-.035,1.513-.1,2.008-.151a.462.462,0,0,0,.45-.445,35.254,35.254,0,0,1,.307-6.225.438.438,0,0,0-.377-.519l-.056-.008a7.485,7.485,0,0,0-1.474.044.482.482,0,0,0-.321.163" transform="translate(580.129 -800.615)" fill="#fff"/>
                <g id="Grupo_1101534" data-name="Grupo 1101534" transform="translate(4.292 60.427)" opacity="0.2">
                  <g id="Grupo_1101533" data-name="Grupo 1101533">
                    <g id="Group_1104105" data-name="Group 1104105">
                      <g id="Group_1104104" data-name="Group 1104104" clip-path="url(#clip-path-23)">
                        <g id="Grupo_1101532" data-name="Grupo 1101532" transform="translate(0 -0.001)">
                          <path id="Trazado_883421" data-name="Trazado 883421" d="M-584.692,873.574c-4.748.129-6.73,1.306-6.978,2.121s-1.5,10.616-.624,14.593,21.753,3.049,24.084,1.469.844-4.954,2.149-8,3.176-8.764.558-9.581-9.16-.871-19.193-.6" transform="translate(592.599 -873.427)" fill="#2b5da8"/>
                        </g>
                      </g>
                    </g>
                  </g>
                </g>
                <path id="Trazado_883422" data-name="Trazado 883422" d="M-584.082,846.55c-.912,1.152-1.344,5.117-1.068,6.771a.491.491,0,0,0,.531.368c.7-.035,1.513-.1,2.008-.151a.463.463,0,0,0,.451-.444,35.239,35.239,0,0,1,.306-6.225.437.437,0,0,0-.376-.519c-.018,0-.037-.006-.055-.008a7.521,7.521,0,0,0-1.474.044.484.484,0,0,0-.322.163" transform="translate(593.556 -801.115)" fill="#fff"/>
              </g>
            </g>
          </g>
        </g>
      </g>
    </g>
  </g>
</svg>
