<svg xmlns="http://www.w3.org/2000/svg" xmlns:xlink="http://www.w3.org/1999/xlink" width="400" height="323" viewBox="0 0 400 323">
  <defs>
    <clipPath id="clip-path">
      <path id="Path_885915" data-name="Path 885915" d="M0-23H400V300H0Z" transform="translate(0 23)" fill="none"/>
    </clipPath>
    <clipPath id="clip-path-2">
      <rect id="Rectangle_403632" data-name="Rectangle 403632" width="400" height="303.15" fill="none"/>
    </clipPath>
    <clipPath id="clip-path-3">
      <rect id="Rectangle_403570" data-name="Rectangle 403570" width="259.945" height="135.396" fill="#fecab2"/>
    </clipPath>
    <clipPath id="clip-path-4">
      <rect id="Rectangle_403573" data-name="Rectangle 403573" width="222.63" height="105.484" fill="none"/>
    </clipPath>
    <clipPath id="clip-path-5">
      <rect id="Rectangle_403574" data-name="Rectangle 403574" width="400" height="38.712" fill="#ffb937"/>
    </clipPath>
    <clipPath id="clip-path-6">
      <rect id="Rectangle_403580" data-name="Rectangle 403580" width="8.864" height="18.326" fill="none"/>
    </clipPath>
    <clipPath id="clip-path-7">
      <rect id="Rectangle_403582" data-name="Rectangle 403582" width="8.039" height="22.097" fill="none"/>
    </clipPath>
    <clipPath id="clip-path-8">
      <rect id="Rectangle_403584" data-name="Rectangle 403584" width="8.034" height="22.097" fill="none"/>
    </clipPath>
    <clipPath id="clip-path-9">
      <rect id="Rectangle_403586" data-name="Rectangle 403586" width="8.865" height="18.326" fill="none"/>
    </clipPath>
    <clipPath id="clip-path-10">
      <rect id="Rectangle_403587" data-name="Rectangle 403587" width="9.967" height="6.381" fill="none"/>
    </clipPath>
    <clipPath id="clip-path-11">
      <rect id="Rectangle_403588" data-name="Rectangle 403588" width="15.087" height="2.544" fill="none"/>
    </clipPath>
    <clipPath id="clip-path-12">
      <rect id="Rectangle_403589" data-name="Rectangle 403589" width="10.654" height="6.482" fill="none"/>
    </clipPath>
    <clipPath id="clip-path-13">
      <rect id="Rectangle_403590" data-name="Rectangle 403590" width="15.082" height="2.544" fill="none"/>
    </clipPath>
    <clipPath id="clip-path-14">
      <rect id="Rectangle_403591" data-name="Rectangle 403591" width="8.759" height="3.002" fill="none"/>
    </clipPath>
    <clipPath id="clip-path-15">
      <rect id="Rectangle_403594" data-name="Rectangle 403594" width="7.991" height="4.124" fill="none"/>
    </clipPath>
    <clipPath id="clip-path-16">
      <rect id="Rectangle_403595" data-name="Rectangle 403595" width="28.808" height="5.896" fill="none"/>
    </clipPath>
    <clipPath id="clip-path-17">
      <rect id="Rectangle_403596" data-name="Rectangle 403596" width="40.901" height="2.328" fill="none"/>
    </clipPath>
    <clipPath id="clip-path-18">
      <rect id="Rectangle_403605" data-name="Rectangle 403605" width="10.791" height="25.602" fill="none"/>
    </clipPath>
    <clipPath id="clip-path-19">
      <rect id="Rectangle_403606" data-name="Rectangle 403606" width="69.29" height="33.025" fill="none"/>
    </clipPath>
    <clipPath id="clip-path-20">
      <rect id="Rectangle_403607" data-name="Rectangle 403607" width="79.565" height="10.391" fill="#d1a34f"/>
    </clipPath>
    <clipPath id="clip-path-21">
      <rect id="Rectangle_403608" data-name="Rectangle 403608" width="145.253" height="11.058" fill="none"/>
    </clipPath>
    <clipPath id="clip-path-22">
      <rect id="Rectangle_403610" data-name="Rectangle 403610" width="8.621" height="4.422" fill="none"/>
    </clipPath>
    <clipPath id="clip-path-23">
      <rect id="Rectangle_403612" data-name="Rectangle 403612" width="45.887" height="4.705" fill="none"/>
    </clipPath>
    <clipPath id="clip-path-24">
      <rect id="Rectangle_403613" data-name="Rectangle 403613" width="4.401" height="30.084" fill="none"/>
    </clipPath>
    <clipPath id="clip-path-25">
      <rect id="Rectangle_403614" data-name="Rectangle 403614" width="5.995" height="24.356" fill="none"/>
    </clipPath>
    <clipPath id="clip-path-26">
      <rect id="Rectangle_403615" data-name="Rectangle 403615" width="3.925" height="20.043" fill="none"/>
    </clipPath>
    <clipPath id="clip-path-27">
      <rect id="Rectangle_403616" data-name="Rectangle 403616" width="4.888" height="22.009" fill="none"/>
    </clipPath>
    <clipPath id="clip-path-28">
      <rect id="Rectangle_403617" data-name="Rectangle 403617" width="4.398" height="26.662" fill="none"/>
    </clipPath>
    <clipPath id="clip-path-29">
      <rect id="Rectangle_403619" data-name="Rectangle 403619" width="42.212" height="104.107" fill="none"/>
    </clipPath>
    <clipPath id="clip-path-30">
      <rect id="Rectangle_403620" data-name="Rectangle 403620" width="25.202" height="9.744" fill="none"/>
    </clipPath>
    <clipPath id="clip-path-31">
      <rect id="Rectangle_403621" data-name="Rectangle 403621" width="31.354" height="11.857" fill="none"/>
    </clipPath>
    <clipPath id="clip-path-32">
      <rect id="Rectangle_403622" data-name="Rectangle 403622" width="7.432" height="8.348" fill="none"/>
    </clipPath>
    <clipPath id="clip-path-33">
      <rect id="Rectangle_403623" data-name="Rectangle 403623" width="50.301" height="13.907" fill="none"/>
    </clipPath>
    <clipPath id="clip-path-34">
      <rect id="Rectangle_403624" data-name="Rectangle 403624" width="10.951" height="22.053" fill="none"/>
    </clipPath>
    <clipPath id="clip-path-35">
      <rect id="Rectangle_403625" data-name="Rectangle 403625" width="4.003" height="8.97" fill="none"/>
    </clipPath>
    <clipPath id="clip-path-36">
      <rect id="Rectangle_403626" data-name="Rectangle 403626" width="9.031" height="25.544" fill="none"/>
    </clipPath>
    <clipPath id="clip-path-37">
      <rect id="Rectangle_403627" data-name="Rectangle 403627" width="19.027" height="6.743" fill="none"/>
    </clipPath>
    <clipPath id="clip-path-38">
      <rect id="Rectangle_403628" data-name="Rectangle 403628" width="24.72" height="28.035" fill="none"/>
    </clipPath>
    <clipPath id="clip-path-39">
      <rect id="Rectangle_403629" data-name="Rectangle 403629" width="25.112" height="16.012" fill="none"/>
    </clipPath>
    <clipPath id="clip-path-40">
      <rect id="Rectangle_403630" data-name="Rectangle 403630" width="26.477" height="14.526" fill="none"/>
    </clipPath>
    <clipPath id="clip-path-41">
      <rect id="Rectangle_403631" data-name="Rectangle 403631" width="47.069" height="22.915" fill="none"/>
    </clipPath>
  </defs>
  <g id="Group_1102739" data-name="Group 1102739" transform="translate(0 49.934)">
    <g id="Mask_Group_1098698" data-name="Mask Group 1098698" transform="translate(0 -49.934)" clip-path="url(#clip-path)">
      <g id="Group_1101952" data-name="Group 1101952" transform="translate(0 19.85)">
        <g id="Group_1101951" data-name="Group 1101951" clip-path="url(#clip-path-2)">
          <g id="Group_1101833" data-name="Group 1101833" transform="translate(104.398 0)" style="mix-blend-mode: multiply;isolation: isolate">
            <g id="Group_1101832" data-name="Group 1101832">
              <g id="Group_1101831" data-name="Group 1101831" clip-path="url(#clip-path-3)">
                <rect id="Rectangle_403569" data-name="Rectangle 403569" width="259.946" height="135.395" transform="translate(0 0.001)" fill="#fecab2"/>
              </g>
            </g>
          </g>
          <g id="Group_1101839" data-name="Group 1101839" transform="translate(123.056 14.956)" opacity="0.5">
            <g id="Group_1101838" data-name="Group 1101838">
              <g id="Group_1101837" data-name="Group 1101837" clip-path="url(#clip-path-4)">
                <path id="Path_885772" data-name="Path 885772" d="M1264.766,115.341a13.2,13.2,0,0,1,2.315.132,4.32,4.32,0,0,1,1.355.459,12.39,12.39,0,0,0,2.93.805,1.387,1.387,0,0,1,.284.049,12.119,12.119,0,0,0,2.476.738.709.709,0,0,0,.691-.1c.1-.083.206-.166.312-.245a1.013,1.013,0,0,1,1.319-.062,1.439,1.439,0,0,0,1.256.222,5.579,5.579,0,0,0,1.683-.527,2.36,2.36,0,0,1,1.532-.12,4.016,4.016,0,0,0,2.562-.41,1.87,1.87,0,0,1,1.049-.271c.251.013.5,0,.755,0a1.079,1.079,0,0,0,.938-.449,1.808,1.808,0,0,1,.534-.567.375.375,0,0,0,.165-.432c-.03-.245.117-.359.335-.444a1.939,1.939,0,0,1,1.829.131,1.187,1.187,0,0,0,.987.181,9.984,9.984,0,0,1,1.543-.2,1.18,1.18,0,0,0,1-.458.673.673,0,0,1,.551-.262,5.144,5.144,0,0,0,2-.624,5.157,5.157,0,0,1,1.884-.634c.709-.068,1.4-.28,2.113-.329a2.59,2.59,0,0,0,1.263-.316,3.082,3.082,0,0,1,1.131-.391,1.9,1.9,0,0,1,1.083.067c.4.154.844.14,1.236.252.963.277,1.963.135,2.925.328a3.335,3.335,0,0,1,.663.194,2.271,2.271,0,0,1,1.08.877,1.364,1.364,0,0,0,1.2.637,6.727,6.727,0,0,1,1.037.1,1.647,1.647,0,0,0,.634.011,13.275,13.275,0,0,1,4.663-.018,15.861,15.861,0,0,0,1.847.14,3.5,3.5,0,0,1,1.789.538,7.136,7.136,0,0,0,.712.363,2.669,2.669,0,0,0,2.443-.1,4.042,4.042,0,0,1,2.566-.376c.929.124,1.879.162,2.82.232a3.041,3.041,0,0,1,.46.052,21.9,21.9,0,0,1,2.788.7,2.891,2.891,0,0,0,1.435.091,6.988,6.988,0,0,1,2.644.142,3.784,3.784,0,0,1,1.337.464,2.075,2.075,0,0,0,1.123.206c.852,0,1.7.009,2.556.007a2.507,2.507,0,0,0,.635-.044,8.621,8.621,0,0,1,3.395-.058c1.071.137,2.15.209,3.214.407.928.173,1.874.269,2.8.464a7.459,7.459,0,0,1,1.537.445,9.923,9.923,0,0,0,2.953.731,4.561,4.561,0,0,1,1.965.76.753.753,0,0,1,.369.589.543.543,0,0,1-.553.629,2.278,2.278,0,0,1-.916-.09c-.64-.208-1.294-.378-1.93-.6a1.174,1.174,0,0,0-1.089.191c-.285.188-.279.416-.01.627a2.823,2.823,0,0,0,.954.385,5.086,5.086,0,0,1,.551.164c.155.069.318.175.309.363s-.2.251-.364.307a.778.778,0,0,1-.285.041,1.824,1.824,0,0,0-1.382.591c-.2.193-.388.4-.583.607a1.3,1.3,0,0,1-1.3.411c-.631-.155-1.061.248-1.54.477-.24.115-.2.444-.036.636a6.442,6.442,0,0,0,.706.858,1.829,1.829,0,0,1,.492.666,1.394,1.394,0,0,0,.462.616.836.836,0,0,1,.348.667,4.07,4.07,0,0,1-.094,1.517c-.1.312-.161.637-.254.952-.1.345-.329.455-.581.226a15.1,15.1,0,0,1-2.072-1.739,5.028,5.028,0,0,0-1.1-.959,6.582,6.582,0,0,1-1.3-1.377,1.378,1.378,0,0,1-.013-1.643,2.689,2.689,0,0,0,.327-.867c.069-.336-.024-.474-.374-.526-.133-.02-.274.008-.405-.014a1.628,1.628,0,0,1-.994-.365,1.3,1.3,0,0,0-1.135-.282c-.543.071-.737.509-.42.926a2.363,2.363,0,0,1,.332.442c.125.283.093.459-.2.507a2.727,2.727,0,0,1-2.011-.117,1.092,1.092,0,0,0-.672-.131,11.166,11.166,0,0,0-2.191.119.671.671,0,0,1-.4-.019,2.371,2.371,0,0,0-.92-.058,1.2,1.2,0,0,0-1.125.712,9.834,9.834,0,0,0-.626,1.8.426.426,0,0,0,.264.541c.361.173.709.371,1.068.548a.578.578,0,0,0,.327.087c.9-.2,1.807.16,2.7-.044.246-.055.4.11.541.256a3.3,3.3,0,0,0,1.095.952c.106.044.172.191.239.3a2.513,2.513,0,0,0,.555.625,1.424,1.424,0,0,1,.35.361,2.169,2.169,0,0,0,1.154,1.02.536.536,0,0,1,.33.294,9.31,9.31,0,0,1,.618,1.285,1.753,1.753,0,0,0,.322.576c.218.338.195.557-.064.707a.619.619,0,0,1-.867-.157c-.286-.41-.552-.833-.8-1.262a1.238,1.238,0,0,0-.6-.568c-.327-.135-.439-.111-.624.174a2.7,2.7,0,0,0-.342,1.256,1.92,1.92,0,0,1-.023.434c-.263.741-.443,1.5-.683,2.249a.963.963,0,0,1-1.064.593c-.663-.015-.862.1-1.073.678a2.5,2.5,0,0,1-.809,1.347c-.2.142-.151.357,0,.535a1.748,1.748,0,0,0,.4.314,6.061,6.061,0,0,1,1.724,1.741,3.573,3.573,0,0,1,.368.858.361.361,0,0,1-.244.527c-.352.108-.674.275-1.015.4-.429.158-.577.087-.767-.314a1.767,1.767,0,0,1-.128-.361,3.165,3.165,0,0,0-1.581-1.935,1.117,1.117,0,0,1-.621-.784,1.071,1.071,0,0,0-1.7-.508c-.045.034-.079.08-.12.118-.176.162-.341.425-.618.31a.656.656,0,0,1-.316-.609.476.476,0,0,0-.467-.521.663.663,0,0,0-.651.379.959.959,0,0,0,.078,1.129c.3.371.624.718,1.207.439a.5.5,0,0,1,.4.031,2.415,2.415,0,0,0,.956.195c.208-.005.4.072.4.3,0,.194-.166.27-.346.311a1.191,1.191,0,0,0-.49.147.839.839,0,0,0-.136,1.354,8.139,8.139,0,0,1,.687.8c.379.451.7.94,1.1,1.382a3.137,3.137,0,0,1,.827,2.254,8.872,8.872,0,0,1-.447,1.723c-.081.363-.252.711-.344,1.086a2.864,2.864,0,0,1-.73,1.091,4.68,4.68,0,0,1-1.949,1.394,7.357,7.357,0,0,0-1.24.772,13.908,13.908,0,0,1-1.448.8,1.353,1.353,0,0,1-1.6-.14.585.585,0,0,0-.143-.094c-.235-.106-.428-.417-.708-.286a1.9,1.9,0,0,0-.872.676,1.219,1.219,0,0,0,.168,1.758c.358.346.707.714,1.063,1.067.2.2.393.4.576.611a3.186,3.186,0,0,1,.836,1.648,6.236,6.236,0,0,1,.268,1.323,1.473,1.473,0,0,1-.809,1.243,10.182,10.182,0,0,0-1.692,1.462c-.07.062-.128.138-.2.195-.263.2-.41.181-.63-.07a1.647,1.647,0,0,1-.165-.223c-.4-.654-.95-1.224-1.293-1.917a2.989,2.989,0,0,0-.768-.81.885.885,0,0,0-1.14.153,3.224,3.224,0,0,0-.607,1.738c-.008.194.035.359.28.414a.448.448,0,0,1,.324.35,3.13,3.13,0,0,0,1.33,1.727,4.137,4.137,0,0,1,1.342,1.618.615.615,0,0,1,.085.312,3.952,3.952,0,0,0,.442,1.844c.088.2.23.423-.054.575a.48.48,0,0,1-.666-.12.229.229,0,0,0-.085-.073,4.3,4.3,0,0,1-2.108-2.628,6.015,6.015,0,0,0-1.265-1.943,1.665,1.665,0,0,1-.443-1.5,8.562,8.562,0,0,0,0-2.529c-.116-.542-.481-.983-.634-1.508-.066-.226-.2-.434-.276-.659-.295-.879-.82-.858-1.333-.5-.441.3-.753.071-1.118-.009a.251.251,0,0,1-.167-.316,3.38,3.38,0,0,0-.8-2.489c-.163-.269-.49-.377-.681-.636a8.059,8.059,0,0,1-.727-.975c-.258-.491-.437-.524-1.025-.429a7.859,7.859,0,0,1-1.2.191,1.559,1.559,0,0,0-.948.367.452.452,0,0,0-.229.451c.045.379-.3.633-.586.745-.8.311-1.107,1.028-1.618,1.573-.141.15-.284.29-.439.427-.515.456-.94.994-1.5,1.411a.6.6,0,0,0-.18.658,6.17,6.17,0,0,1-.076,2.431c-.009.09-.065.18-.056.266a2.084,2.084,0,0,1-1.1,1.925c-.137.1-.245.233-.38.335-.289.221-.448.219-.7-.026a1.777,1.777,0,0,1-.459-.623c-.144-.374-.3-.742-.456-1.113a.8.8,0,0,0-.107-.252,6.24,6.24,0,0,1-1.01-2.209c-.169-.418-.5-.733-.672-1.138a10,10,0,0,1-.985-3.039c-.026-.321-.193-.617-.212-.954-.022-.392-.366-.563-.8-.479-.114.022-.226.05-.338.078a.524.524,0,0,1-.609-.2,2.471,2.471,0,0,0-.807-.695.768.768,0,0,1-.362-.474,1.6,1.6,0,0,0-.681-.858,5.432,5.432,0,0,1-1.147-1.068.809.809,0,0,0-.7-.313,5.587,5.587,0,0,0-.981.071,6.717,6.717,0,0,1-2.872.024c-.6-.13-1.213-.227-1.823-.321a.743.743,0,0,1-.663-.528,1.848,1.848,0,0,0-.168-.347.317.317,0,0,0-.483-.133c-1.024.618-1.874.07-2.733-.365a3.66,3.66,0,0,0-.693-.384c-.322-.088-.406-.387-.473-.643a1.94,1.94,0,0,0-.6-.916.812.812,0,0,0-1.251.045.469.469,0,0,0-.062.511,3.244,3.244,0,0,0,1.62,1.7,1.448,1.448,0,0,1,1,1.691c-.028.245.076.331.307.353a6.589,6.589,0,0,0,1.218,0c.4-.035.581-.332.806-.575a.738.738,0,0,1,1.06-.182.877.877,0,0,1,.264.283c.131.18.28.349.4.534a.561.561,0,0,0,.58.276.816.816,0,0,1,.746.34c.2.244.387.5.589.744a.465.465,0,0,1,.061.51,5.443,5.443,0,0,1-.7,1.253,1.453,1.453,0,0,0-.288.531c-.165.821-.848,1.205-1.5,1.625a12.749,12.749,0,0,1-1.96,1.007,1.137,1.137,0,0,0-.526.417,1.719,1.719,0,0,1-1.416.818.551.551,0,0,0-.214.081,16.816,16.816,0,0,1-2.152.924c-.489.214-1.031.306-1.5.567a.509.509,0,0,1-.544-.072,1.406,1.406,0,0,1-.662-.8,2.181,2.181,0,0,0-.4-.782,6.514,6.514,0,0,1-.581-1.362c-.037-.083-.033-.187-.084-.259-.416-.587-.639-1.271-1.062-1.855a2.094,2.094,0,0,0-.786-.708,1.081,1.081,0,0,1-.494-.579c-.225-.471-.22-.993-.424-1.468a2.832,2.832,0,0,0-.881-1.126c-.1-.081-.223-.145-.267-.277a5.489,5.489,0,0,0-1.026-1.574,7.228,7.228,0,0,1-.9-1.577,7.524,7.524,0,0,1-.632-1.456,1.4,1.4,0,0,1,.094-1.056,4.317,4.317,0,0,0,.2-.622,11.024,11.024,0,0,1,.478-1.393,2.144,2.144,0,0,0,.03-1.344.732.732,0,0,0-1.118-.367,1.262,1.262,0,0,1-1.44.068,3.833,3.833,0,0,0-.774-.224.408.408,0,0,0-.38.074.793.793,0,0,1-.859.04,3.165,3.165,0,0,0-1.113-.276,1.061,1.061,0,0,1-.838-.525,1.929,1.929,0,0,1-.406-1.23,4.472,4.472,0,0,0-.015-.545.9.9,0,0,0-1.015-.856.94.94,0,0,0-.617.764.675.675,0,0,0,.036.215,2.2,2.2,0,0,1-.118,1.877c-.11.2-.1.482-.441.5s-.875-.19-.925-.447c-.189-.959-1.034-1.553-1.458-2.378a.935.935,0,0,1-.133-.46,1.7,1.7,0,0,0-.954-1.615,4.176,4.176,0,0,0-1.273-.711.728.728,0,0,1-.508-.34c-.225-.461-.705-.66-1.088-.955a.5.5,0,0,0-.8.347.725.725,0,0,0,.289.679,1.983,1.983,0,0,1,.586.722,1.588,1.588,0,0,0,.983.714,8.83,8.83,0,0,1,2.053,1.194.392.392,0,0,1,.16.283.267.267,0,0,1-.077.251.212.212,0,0,1-.265,0,1.213,1.213,0,0,0-.414-.186c-.31-.039-.486.109-.363.359a.636.636,0,0,1,.053.656c-.164.319-.295.639-.7.743a.523.523,0,0,0-.442.6c0,.3-.249.425-.526.266-.4-.227-.839-.368-1.238-.59-.14-.078-.272-.162-.213-.34s.213-.2.375-.192a4.6,4.6,0,0,0,1.382-.083c.472-.134.726-.617.418-.954a3.64,3.64,0,0,0-1.238-1.035,5.364,5.364,0,0,1-2.559-2.052,1.41,1.41,0,0,0-.4-.392.5.5,0,0,0-.718.019c-.33.31-.843.331-1.188.643-.139.126-.369.057-.56.014a7.339,7.339,0,0,0-.848-.175c-.608-.064-.912.176-.916.752,0,.694-.561.938-1.084,1.129a1.273,1.273,0,0,0-.821.607,2.111,2.111,0,0,1-.362.424c-.156.171-.305.336-.134.579.038.053.059.18.028.2-.392.3-.357.883-.847,1.119a2.052,2.052,0,0,0-.374.256,1.517,1.517,0,0,1-1.127.339,1.407,1.407,0,0,0-.788.11,1.1,1.1,0,0,1-1.236-.159,1.509,1.509,0,0,0-1.28-.35,1.389,1.389,0,0,1-.29,0c-.279-.01-.42-.135-.423-.41,0-.338.06-.686-.247-.971-.142-.132-.021-.314.064-.455a5.315,5.315,0,0,0,.393-.728,1.31,1.31,0,0,0,.1-.851,1.289,1.289,0,0,1,.018-.595c.021-.107.086-.226.057-.319a.553.553,0,0,1,.345-.789c.3-.135.554-.334.91-.189a.369.369,0,0,0,.171.027,19.263,19.263,0,0,1,2.944.138,2.281,2.281,0,0,1,.232.013.418.418,0,0,0,.528-.377,5.12,5.12,0,0,1,.236-.9.878.878,0,0,0,.02-.431,2.463,2.463,0,0,0-1.66-1.588c-.153-.028-.334-.019-.422-.146a1.016,1.016,0,0,1-.243-.533c.01-.212.292-.2.469-.241a2.41,2.41,0,0,1,.518-.055,1.081,1.081,0,0,0,1.038-.459c.147-.241.45-.235.734-.156a1.429,1.429,0,0,0,1.486-.533,1.591,1.591,0,0,1,.625-.536,3.555,3.555,0,0,0,1.381-1.042,1.637,1.637,0,0,1,.862-.623c.126-.045.245-.113.373-.152.761-.235,1.16-.625,1.042-1.476a1.223,1.223,0,0,1,.856-1.4c.368-.127.563-.052.617.308a2.175,2.175,0,0,1-.071.968c-.16.533.01.773.526.988a.6.6,0,0,0,.549-.051.94.94,0,0,1,1.327.2c.117.143.25.129.412.073.327-.112.661-.2.989-.312a4.991,4.991,0,0,1,1.531-.281,1.122,1.122,0,0,0,1.25-.905c.029-.1.033-.216.054-.323a1.111,1.111,0,0,1,.939-.979.678.678,0,0,0,.634-.73c.01-.3-.179-.536-.556-.69a.332.332,0,0,0-.055-.018,1.689,1.689,0,0,1-1.336-1.7.83.83,0,0,1,.455-.876,7.838,7.838,0,0,0,1.37-1c.078-.073.221-.121.188-.251-.04-.16-.2-.145-.331-.152-.212-.012-.426-.032-.638-.025a.864.864,0,0,0-.811.445,2.936,2.936,0,0,1-1.658,1.369.807.807,0,0,0-.206,1.466c.073.06.149.116.218.18.5.466.466,1.048-.2,1.3a1.043,1.043,0,0,0-.721,1.092,3.456,3.456,0,0,1-.113.533c-.075.316-.229.531-.631.5a.626.626,0,0,0-.486.139c-.456.414-1.075.364-1.629.494a.294.294,0,0,1-.37-.189.3.3,0,0,1,.112-.389c.111-.072.226-.14.339-.211.416-.264.468-.391.157-.73a6.516,6.516,0,0,0-1.1-1.186.521.521,0,0,0-.715,0,2.52,2.52,0,0,1-.891.5,1.2,1.2,0,0,1-1.145-.19c-.09-.072-.2-.143-.213-.25a11.851,11.851,0,0,1-.436-2.021.722.722,0,0,1,.5-.7,28.313,28.313,0,0,0,2.836-1.449,2.2,2.2,0,0,0,.523-.427,24.1,24.1,0,0,1,3.879-3.412.836.836,0,0,1,.429-.131c.345-.035.689-.081,1.033-.126a.307.307,0,0,0,.163-.05c.516-.505,1.177-.354,1.8-.358h.286" transform="translate(-1150.766 -108.044)" fill="#fff"/>
                <path id="Path_885773" data-name="Path 885773" d="M1224.5,291.5a1.323,1.323,0,0,1-.214,1.067c-.161.228.018.718.332.9a2,2,0,0,0,1.5.431,1.911,1.911,0,0,1,.913.1.816.816,0,0,1,.652.558.677.677,0,0,0,.764.522,2.075,2.075,0,0,1,1.179.409,2.27,2.27,0,0,0,.334.215.668.668,0,0,0,.708-.091c.174-.138.114-.322.062-.505a.824.824,0,0,1,.525-1.016,2.187,2.187,0,0,1,1.628-.086c.052.025.119.033.156.07.266.264.651.292.968.445a7.233,7.233,0,0,0,1.822.478,5.171,5.171,0,0,1,1.283.332.671.671,0,0,0,.706-.086,1.294,1.294,0,0,1,1.4-.232c.575.3,1.162.6,1.34,1.276a5.372,5.372,0,0,1,.379,1.583,2.7,2.7,0,0,0,.57,1.543,11.2,11.2,0,0,1,.535,1.146,5.114,5.114,0,0,0,1.032,1.5,2.907,2.907,0,0,1,.7,1.59,3.265,3.265,0,0,0,.869,1.8,2.794,2.794,0,0,1,.719,1.573,1.083,1.083,0,0,0,.733.97,3.7,3.7,0,0,1,1.62,1.243c.146.143.282.3.42.448a1.319,1.319,0,0,1,.455.9c0,.592.7.97,1.335.873.841-.13,1.609-.463,2.425-.656.5-.119,1.02-.158,1.512-.327a.319.319,0,0,1,.446.293,4.586,4.586,0,0,1-.172,1.835c-.212.467-.4.945-.634,1.4-.378.736-.69,1.507-1.122,2.213a5.453,5.453,0,0,1-2.182,2.274,4.878,4.878,0,0,0-1.474,1.2,15.214,15.214,0,0,0-1.145,1.438c-.243.339-.627.534-.882.858a1.36,1.36,0,0,0-.277.4,8.669,8.669,0,0,1-.7,1.37,1.354,1.354,0,0,0-.154,1,5.951,5.951,0,0,1,.224,1.94,1.951,1.951,0,0,0,.482,1.318,1.9,1.9,0,0,1,.308,1.614,4.106,4.106,0,0,0-.082,1.354c.187,1.473-.695,2.317-1.936,2.921a2.96,2.96,0,0,0-1.292.956,1.12,1.12,0,0,1-.291.262,1.441,1.441,0,0,0-.672,1.854,3.23,3.23,0,0,1-.03,2.135,1.438,1.438,0,0,1-.687.845c-.167.092-.32.2-.484.3a1.277,1.277,0,0,0-.623.82c-.044.176-.128.344-.172.52a2.89,2.89,0,0,1-1.036,1.711,2.254,2.254,0,0,0-.617.784,7.264,7.264,0,0,1-2.1,2.214,4.772,4.772,0,0,1-2.683.863,5.617,5.617,0,0,0-1.418.243,5.481,5.481,0,0,1-1.776.154,1.157,1.157,0,0,1-1.219-.891,3.083,3.083,0,0,1-.156-1.007,2.042,2.042,0,0,0-.182-1.011,4.045,4.045,0,0,1-.308-.991,1.481,1.481,0,0,0-.608-1,2.746,2.746,0,0,1-1-1.969,6.425,6.425,0,0,0-.239-1.34,3.251,3.251,0,0,1-.006-1.086,1.319,1.319,0,0,0-.34-.954,3.92,3.92,0,0,1-.751-1.223,7.056,7.056,0,0,0-.825-1.617.645.645,0,0,1-.139-.352,5.477,5.477,0,0,1,.158-1.565,11.7,11.7,0,0,0,.525-1.836,1.2,1.2,0,0,1,.467-.673,1.466,1.466,0,0,0,.3-1.815,3.92,3.92,0,0,1-.424-1.846,1.766,1.766,0,0,0-.309-1.037,2.78,2.78,0,0,1-.413-1.066,2.031,2.031,0,0,0-.58-1.1c-.359-.382-.663-.806-1.029-1.179a3.875,3.875,0,0,1-.648-1.148.7.7,0,0,1,.1-.628,2.051,2.051,0,0,0,.212-1.008,2.091,2.091,0,0,1,.129-.748,3.656,3.656,0,0,0,.165-.578.93.93,0,0,0-.569-1.021,2.868,2.868,0,0,0-1.742-.244c-.6.054-.753-.029-.934-.555a1.358,1.358,0,0,0-1.509-1.013,4.016,4.016,0,0,0-1.78.363c-.661.321-1.39.537-2.083.815a.722.722,0,0,1-.454,0c-.392-.1-.784-.2-1.181-.271a2.977,2.977,0,0,0-1.352.2c-.333.09-.651.232-.974.354a.905.905,0,0,1-.877-.085,4.417,4.417,0,0,1-.872-.629,6.035,6.035,0,0,0-1.106-.692,3.977,3.977,0,0,1-1.96-2.413,2.262,2.262,0,0,0-.51-.714c-.3-.3-.485-.709-.88-.918a2.992,2.992,0,0,1-1.344-1.96,1.568,1.568,0,0,1,.38-1.728,1.576,1.576,0,0,0,.482-.9c.056-.286.106-.573.166-.858.023-.107.078-.224.022-.32-.229-.391-.167-.861-.391-1.246a1.975,1.975,0,0,1-.117-1.379.22.22,0,0,1,.027-.105c.372-.445.464-1.029.833-1.474a4.259,4.259,0,0,0,.87-1.527.745.745,0,0,1,.338-.494,1.787,1.787,0,0,0,.747-.875.955.955,0,0,1,.715-.572.939.939,0,0,0,.519-.315,6.581,6.581,0,0,0,1.065-1.219,1.5,1.5,0,0,0,.255-.485c.076-.5.463-.873.586-1.351a.327.327,0,0,1,.14-.166,7.1,7.1,0,0,1,1.337-.945.754.754,0,0,0,.462-.456,4.525,4.525,0,0,1,.393-.664.579.579,0,0,1,.87-.228,1.411,1.411,0,0,0,1.047.192,6.912,6.912,0,0,0,2.029-.4,1.209,1.209,0,0,0,.47-.294,1.11,1.11,0,0,1,.87-.376,7.638,7.638,0,0,0,1.829-.244,1.746,1.746,0,0,1,1.078.031.566.566,0,0,0,.5-.029,1.852,1.852,0,0,1,.957-.138,2.646,2.646,0,0,0,1.422-.141,1.216,1.216,0,0,1,.631-.036c.408.031.587.217.579.6,0,.163-.027.326-.044.514" transform="translate(-1118.118 -258.092)" fill="#fff"/>
                <path id="Path_885774" data-name="Path 885774" d="M767.678,125.425a19.853,19.853,0,0,0,2.481-.14,10.923,10.923,0,0,1,1.5.116.824.824,0,0,1,.692.5,1.473,1.473,0,0,0,1.216.9,2.672,2.672,0,0,1,1.188.539.77.77,0,0,1,.372.751c-.084.584.3.907.752,1.178a1.147,1.147,0,0,1,.5.432c.248.485.2.7-.244,1.028-.243.181-.478.37-.723.548a.6.6,0,0,1-.909-.081,3.338,3.338,0,0,0-.543-.564.316.316,0,0,0-.374-.047c-.138.091-.094.229-.04.348.083.184.18.363.266.546a.8.8,0,0,1-.287,1.11c-.4.258-.751.568-1.144.83a.86.86,0,0,1-.816.12c-.453-.158-.911-.3-1.36-.473a.859.859,0,0,1-.574-.573,1.247,1.247,0,0,0-.266-.481.5.5,0,0,0-.554-.2,6.287,6.287,0,0,1-1.9-.055c-.236-.009-.279-.157-.2-.349a1.034,1.034,0,0,1,1.223-.544,2.2,2.2,0,0,0,1.142.083c.167-.039.364-.067.415-.255.073-.266.3-.374.523-.475a3.691,3.691,0,0,0,.721-.454c.414-.319.376-.62-.1-.818a.679.679,0,0,1-.433-.328.834.834,0,0,0-.524-.4,5.844,5.844,0,0,0-1.771-.151.564.564,0,0,0-.53.29c-.219.508-.825.723-1.015,1.242-.614.318-1.057.914-1.848.952-.42.02-.516.206-.39.6a.923.923,0,0,0,.376.593.25.25,0,0,1,.1.377.409.409,0,0,1-.4.178.724.724,0,0,1-.374-.138.881.881,0,0,0-.979,0c-.219.116-.445.22-.667.331a.522.522,0,0,1-.623-.064,1.813,1.813,0,0,0-2.271.035,2.482,2.482,0,0,1-1.3.566,4.558,4.558,0,0,0-1.838.637,10.281,10.281,0,0,0-1.434,1.016c-.3.233-.5.524-.216.9a.091.091,0,0,1,.02.051c-.008.816.565,1.1,1.288,1.266a1.1,1.1,0,0,1,.618.388c.369.462.977.563,1.462.848.114.067.3.023.458.025a2.74,2.74,0,0,1,.961.187c.178.069.244.187.1.336a7.726,7.726,0,0,0-.68,1.076.809.809,0,0,0-.035.836c.162.38.427.46.823.277.156-.072.312-.145.465-.225s.345-.2.337-.353c-.025-.456.34-.811.32-1.257-.013-.292.155-.453.435-.574a17.584,17.584,0,0,0,1.649-.664,2.358,2.358,0,0,0,.876-.844.625.625,0,0,0-.055-.849c-.3-.32-.237-.472.167-.661a2.172,2.172,0,0,1,.267-.106.84.84,0,0,0,.67-.855.777.777,0,0,1,.309-.671.57.57,0,0,0,.174-.277.933.933,0,0,1,1.006-.715c.579.02,1.157.068,1.733.124a1.369,1.369,0,0,1,.809.494,4.294,4.294,0,0,0,.676.59c.317.207.321.292.145.642-.033.065-.074.128-.106.194a.617.617,0,0,0,.087.8.785.785,0,0,0,.913.1,11.784,11.784,0,0,0,1.272-.759c.673-.506.88-.46,1.278.28a2.328,2.328,0,0,1,.3,1.155,9.313,9.313,0,0,0,.006.982c.047.531.2,1.008.867,1.131.153.028.351.106.36.243.024.368.282.564.529.787.126.115.054.268.048.412-.023.556-.348,1.037-.415,1.583s-.032.653.5.873c.365.15.41.223.235.577a1.151,1.151,0,0,0-.039.949.606.606,0,0,1-.745.823,2.538,2.538,0,0,1-.94-.259,1.643,1.643,0,0,0-1.282-.186,3.3,3.3,0,0,1-1.093-.051c-.2-.02-.247-.141-.187-.314a1.636,1.636,0,0,1,.471-.8,1.985,1.985,0,0,0,.439-.505.358.358,0,0,0-.013-.412.3.3,0,0,0-.406-.108,2.991,2.991,0,0,1-1.594.076,3.2,3.2,0,0,0-1.209.084c-.289.081-.487.211-.42.543a.819.819,0,0,1-.327.821,1.234,1.234,0,0,0-.441.865.707.707,0,0,0,.629.836,7.149,7.149,0,0,0,.743.121.568.568,0,0,1,.392.21.321.321,0,0,1-.17.526,1.989,1.989,0,0,1-.567.105c-.528,0-1,.278-1.538.238a.539.539,0,0,0-.39.212,4.721,4.721,0,0,1-.5.451.43.43,0,0,1-.7-.146c-.071-.119-.143-.244-.274-.257-.506-.051-1.032-.212-1.493.147a.6.6,0,0,1-.305.145,1.857,1.857,0,0,0-1.026.575.691.691,0,0,0-.3.617c.03.26-.122.4-.364.491a5.42,5.42,0,0,1-1.153.353,2.172,2.172,0,0,0-1.421.755c-.393.471-.859.882-1.281,1.33a6.808,6.808,0,0,0-1.22,2.019,2.238,2.238,0,0,1-1.2,1.294,14.059,14.059,0,0,0-2.828,1.589,2.244,2.244,0,0,0-1.095,2.2c.07.544.229,1.068.314,1.606a1.645,1.645,0,0,1-.431,1.572,1.615,1.615,0,0,1-.363.264.281.281,0,0,1-.394-.106,5.149,5.149,0,0,1-.831-1.9,1.54,1.54,0,0,1,0-.543c.084-.632-.264-.985-.922-.9a.529.529,0,0,1-.613-.269.761.761,0,0,0-.86-.31c-.359.071-.711.165-1.075.218a1.009,1.009,0,0,0-.665.493.475.475,0,0,1-.491.2,8.452,8.452,0,0,1-2.178-.373.8.8,0,0,0-.67.067,25.028,25.028,0,0,0-2.438,1.234,1.131,1.131,0,0,0-.58,1,2.158,2.158,0,0,1-.317,1.086,4.6,4.6,0,0,0-.56,2.794,5.547,5.547,0,0,0,.267,1.369A1.827,1.827,0,0,0,740.666,167a5.711,5.711,0,0,1,1.1-.037c.646.036.865-.1,1.087-.674a6.433,6.433,0,0,0,.292-.884.653.653,0,0,1,.5-.535,4.281,4.281,0,0,1,1.977-.272c.439.072.594.316.316.63a1.885,1.885,0,0,0-.346.84,4.151,4.151,0,0,1-.736,1.586,1.091,1.091,0,0,0-.214,1.078.474.474,0,0,0,.49.379,6.864,6.864,0,0,0,.866-.022,2.184,2.184,0,0,1,1.59.358c.428.316.627.649.386,1.1a10.422,10.422,0,0,0-.56,2.05,1.692,1.692,0,0,0,1.937,1.963.865.865,0,0,1,.115-.016c.17,0,.382-.067.484.094a.41.41,0,0,1-.049.511.378.378,0,0,0-.125.392.3.3,0,0,1-.193.4c-.2.066-.453.113-.6-.061a1.564,1.564,0,0,0-1.112-.5.7.7,0,0,1-.607-.373,1.826,1.826,0,0,0-1.079-.853,1.134,1.134,0,0,1-.738-.841,4.183,4.183,0,0,0-.4-1.127,1.2,1.2,0,0,0-.975-.687,12.248,12.248,0,0,1-2.05-.573,2.415,2.415,0,0,1-1.027-.779,9.986,9.986,0,0,0-.757-.75.928.928,0,0,0-1.011-.214,2.756,2.756,0,0,1-2.235-.181c-.468-.215-.966-.372-1.45-.558a2.442,2.442,0,0,1-.96-.6.7.7,0,0,0-.34-.2,1.748,1.748,0,0,1-1.041-.645.77.77,0,0,0-.377-.238,1.152,1.152,0,0,1-.589-1.589,1.1,1.1,0,0,0-.078-1.231,8.211,8.211,0,0,1-.476-.808,3.166,3.166,0,0,0-1.119-1.3.573.573,0,0,1-.3-.605c.013-.088.036-.2-.01-.265-.37-.492-.438-1.131-.861-1.59a1.894,1.894,0,0,1-.54-1.5,3.6,3.6,0,0,0-.01-.546c-.013-.176-.087-.329-.3-.349a.418.418,0,0,0-.447.282.907.907,0,0,0-.017.645,12.822,12.822,0,0,0,.651,2.362,11.34,11.34,0,0,1,.438,1.576,3.014,3.014,0,0,0,.437.75.686.686,0,0,1,.159.613.333.333,0,0,1-.6.151,4.781,4.781,0,0,0-.986-.915.589.589,0,0,1-.235-.426c-.038-.215-.079-.43-.1-.646a.5.5,0,0,0-.322-.474,1.868,1.868,0,0,1-.617-.488c-.294-.305-.251-.555.1-.822.3-.232.377-.4.123-.683a2.594,2.594,0,0,1-.564-1.835,7.954,7.954,0,0,0-.183-1.351,1.387,1.387,0,0,0-1.061-1.047c-.629-.19-.634-.164-.648-.77a7.867,7.867,0,0,1-.045-2c.036-.155-.093-.271-.153-.4a1.91,1.91,0,0,1-.1-1.01,2.285,2.285,0,0,1,.646-1.292.939.939,0,0,0,.234-.371,4.143,4.143,0,0,1,1.194-1.766,9.881,9.881,0,0,0,1.97-2.928,1.046,1.046,0,0,0-.158-1.077,3.607,3.607,0,0,1-.3-.4.693.693,0,0,1,.054-.906,4.882,4.882,0,0,0,.576-1.183.388.388,0,0,0,.023-.267,4.014,4.014,0,0,1,.076-1.946,2.488,2.488,0,0,0-.449-1.952c-.2-.312-.424-.607-.627-.917a.983.983,0,0,0-.642-.436,7.167,7.167,0,0,0-1.871-.346,1.211,1.211,0,0,1-.586-.217,1.9,1.9,0,0,0-.936-.25.8.8,0,0,0-.765.4.724.724,0,0,1-.486.349c-.675.23-1.386.333-2.068.534a.79.79,0,0,1-.456-.022,1.533,1.533,0,0,0-.908.069c-1.949.6-3.828,1.366-5.729,2.081a5.312,5.312,0,0,0-.91.474,1.456,1.456,0,0,1-.891.176.384.384,0,0,1-.327-.276c-.076-.168.1-.221.205-.276.186-.095.388-.161.58-.245.614-.267,1.225-.537,1.839-.8a1.2,1.2,0,0,0,.371-.258c.25-.249.185-.468-.181-.525-.215-.033-.407-.036-.549-.235a2.233,2.233,0,0,1-.456-.931c-.006-.035-.011-.087.009-.106.444-.417.441-1.248,1.32-1.265a.37.37,0,0,0,.165-.047,24,24,0,0,1,2.786-1.072c.035-.015.072-.027.108-.041.2-.076.465-.168.4-.393s-.341-.171-.555-.125a1.876,1.876,0,0,1-.345.041c-.159,0-.264-.053-.228-.229s.071-.321.093-.483a.546.546,0,0,1,.529-.49c.57-.1,1.147-.151,1.712-.285a7.319,7.319,0,0,0,.762-.229.738.738,0,0,0,.583-.725.692.692,0,0,1,.572-.667,1.186,1.186,0,0,1,.278-.074,12.883,12.883,0,0,0,2.958-.719,7.022,7.022,0,0,1,1.584-.517c.615-.043,1.227-.123,1.843-.156a3.006,3.006,0,0,0,1.247-.172,1,1,0,0,1,.686-.015c1.06.3,2.169.347,3.248.558a5.223,5.223,0,0,0,2.013.084,1.248,1.248,0,0,1,.832.185,1.64,1.64,0,0,0,.929.244c.329-.023.62.181.953.217a1.292,1.292,0,0,0,.625-.022,3.968,3.968,0,0,1,1.367-.2c.567-.018,1.1-.206,1.656-.276a4.954,4.954,0,0,1,.924-.059,2,2,0,0,0,1.072-.152.958.958,0,0,1,.736.005,2.624,2.624,0,0,0,.97.125,4.041,4.041,0,0,1,2.37.6,1.21,1.21,0,0,0,.82.188,1.168,1.168,0,0,1,.885.18,2.818,2.818,0,0,0,2.6.283c.619-.165,1.258-.186,1.878-.329a1.064,1.064,0,0,1,.969.258,1.444,1.444,0,0,0,1.228.356,11.151,11.151,0,0,1,1.5-.083.613.613,0,0,0,.285-.031,2.475,2.475,0,0,1,1.632-.108c.076.011.151.033.228.04.56.049.864-.245.822-.774-.015-.192-.163-.391,0-.579a1.875,1.875,0,0,1,.7-.633,5.947,5.947,0,0,1,1.073-.4c.521-.1.7-.029.8.472a3.316,3.316,0,0,0,.32.871c.164.329.459.354.779.349a.833.833,0,0,0,.7-.419c.1-.145.006-.272-.042-.411-.183-.525-.127-.689.33-1.041.224-.173.468-.325.681-.509a2.4,2.4,0,0,1,1.71-.547c.251.006.5,0,.754,0" transform="translate(-711.005 -119.861)" fill="#fff"/>
                <path id="Path_885775" data-name="Path 885775" d="M947.258,417.022a6.509,6.509,0,0,1,1.917.377.622.622,0,0,1,.348.277,1.55,1.55,0,0,0,.537.49.805.805,0,0,1,.476.584,24.472,24.472,0,0,0,1.042,2.465.913.913,0,0,0,.578.578c.642.25,1.281.508,1.926.751.629.237,1.225.534,1.827.825a4.1,4.1,0,0,0,2.583.633,1.8,1.8,0,0,1,1.259.473,1.721,1.721,0,0,1,.337.3,2.757,2.757,0,0,0,1.8.991.729.729,0,0,1,.588.474,3.21,3.21,0,0,1-.1,3,3.872,3.872,0,0,1-1.068,1.347.511.511,0,0,0-.174.21,4.3,4.3,0,0,1-.88,1.334,1.978,1.978,0,0,0-.24,1.927,1.585,1.585,0,0,1,.05.956,2.333,2.333,0,0,0-.055.54c-.013.144.025.325-.052.426a2.093,2.093,0,0,0-.3,1.242,1.778,1.778,0,0,1-.435,1,.853.853,0,0,0-.239.7.572.572,0,0,1-.313.649c-.034.017-.078.035-.092.064-.311.628-.948.6-1.528.65a1.918,1.918,0,0,0-.917.292,2.353,2.353,0,0,1-.737.31,3.079,3.079,0,0,0-1.194.652,1.139,1.139,0,0,0-.474,1.113c.05.305.107.608.18.909a1.2,1.2,0,0,1-.378,1.386.684.684,0,0,0-.212.257c-.444,1.016-1.346,1.789-1.682,2.871a2.92,2.92,0,0,1-.774,1.323,1.624,1.624,0,0,1-.2.2,2.719,2.719,0,0,0-1.177,1.873,1.6,1.6,0,0,1-1.109,1.2,5.63,5.63,0,0,1-.546.183,1.05,1.05,0,0,0-.817.835,1.921,1.921,0,0,1-.365.792,1.761,1.761,0,0,0-.352.682,1.9,1.9,0,0,1-.5,1.081.451.451,0,0,0-.125.507c.145.336-.035.6-.207.863a.888.888,0,0,0,.419,1.356c.573.283.677.771.222,1.194-.266.248-.548.463-.5.865a.337.337,0,0,1-.047.155c-.334.774-.295.955.4,1.486a1.22,1.22,0,0,1,.375.472,2.788,2.788,0,0,0,2.142,1.481c.206.044.426.031.572.216a.339.339,0,0,1,.082.4.318.318,0,0,1-.328.171,3.569,3.569,0,0,1-1.376-.127,2.771,2.771,0,0,0-.853-.135c-.336-.025-.514-.113-.615-.441a1.135,1.135,0,0,0-1.322-.709,1.517,1.517,0,0,1-1.644-.5,8.9,8.9,0,0,1-1.4-2.111,4.13,4.13,0,0,1-.772-2.189.385.385,0,0,0-.077-.2,4.1,4.1,0,0,1-.582-1.749,3.629,3.629,0,0,0-.936-1.964,3.007,3.007,0,0,1-.7-1.582,6.308,6.308,0,0,0-.622-2.028.639.639,0,0,1-.073-.424,10.541,10.541,0,0,1,.258-1.83,2.946,2.946,0,0,0,.033-1.353,11.779,11.779,0,0,0-.356-1.539,4.588,4.588,0,0,1-.2-2.632.787.787,0,0,0,.028-.325c-.124-.738-.1-1.485-.163-2.226a9.784,9.784,0,0,1-.077-1.086c.022-.784-.072-1.562-.118-2.34a2.459,2.459,0,0,0-.731-1.946,6.839,6.839,0,0,0-2.549-1.462,1.47,1.47,0,0,1-.881-.57,7.49,7.49,0,0,0-.762-.819.658.658,0,0,1-.195-.264,8.546,8.546,0,0,0-1.065-1.972,5.678,5.678,0,0,0-.867-1.156,1.732,1.732,0,0,1-.468-.8,2.556,2.556,0,0,0-1.045-1.585,1.948,1.948,0,0,1-.8-1.672.755.755,0,0,1,.256-.587.968.968,0,0,0,.207-1.331,1.6,1.6,0,0,1-.1-1.281,2.461,2.461,0,0,1,.894-1.544,4.556,4.556,0,0,0,.728-.838c.26-.307.67-.486.817-.892a3.246,3.246,0,0,0-.011-2.889,1.247,1.247,0,0,1-.277-.706c.007-.1-.053-.162-.154-.2-.325-.137-.21-.4-.164-.615.052-.242.3-.17.487-.177a1.573,1.573,0,0,1,.344.037,1.277,1.277,0,0,0,1.432-.745,1.7,1.7,0,0,1,1.521-1.148,2.274,2.274,0,0,0,1.27-.592.506.506,0,0,1,.455-.174,3.8,3.8,0,0,1,1.538.41c.389.256.854.411,1.242.683a.544.544,0,0,0,.266.1,4.208,4.208,0,0,1,1.438.371.914.914,0,0,0,.925-.132.835.835,0,0,1,.471-.188,6.009,6.009,0,0,0,1.381-.112,1.046,1.046,0,0,1,.762.211c.262.158.15.425.049.64a.869.869,0,0,0,.575,1.133,1.539,1.539,0,0,1,.969.8,2.093,2.093,0,0,0,2.072,1.117" transform="translate(-890.334 -359.928)" fill="#fff"/>
                <path id="Path_885776" data-name="Path 885776" d="M1774.9,532.109c0,.113.01.3,0,.476a.642.642,0,0,0,.4.651,2.848,2.848,0,0,1,1.081,1.157,16.042,16.042,0,0,0,2.093,3.312,1.207,1.207,0,0,1,.15,1.385,17.86,17.86,0,0,1-1.167,2.659,3.472,3.472,0,0,0-.572,1.114.552.552,0,0,1-.2.262c-.6.506-1.148,1.07-1.795,1.533a5.384,5.384,0,0,0-1.136,1.214c-.405.54-.872,1.054-1.312,1.579a3.389,3.389,0,0,1-2.127,1.175,1.528,1.528,0,0,0-.337.08,5.71,5.71,0,0,1-3.664-.05c-.168-.041-.327-.113-.5-.147-.2-.041-.412-.019-.563-.216a.934.934,0,0,1-.2-.72,1.447,1.447,0,0,0-.12-.688.854.854,0,0,0-.568-.571c-.34-.122-.652-.313-.985-.455-.359-.153-.577-.4-.506-.767.08-.419-.2-.723-.322-1.076-.065-.189-.277-.245-.461-.3a1.82,1.82,0,0,1-.771-.358.751.751,0,0,0-.6-.159,5.907,5.907,0,0,0-1.475.263,5.493,5.493,0,0,1-1.8.364.946.946,0,0,0-.4.07,10.508,10.508,0,0,0-2.006.955,1.315,1.315,0,0,1-.918.266,6.517,6.517,0,0,0-3.364.828,1.365,1.365,0,0,1-1.12.119,1.529,1.529,0,0,1-.89-.86.406.406,0,0,1,.222-.551c.5-.248.608-.775.857-1.2a.292.292,0,0,0,.016-.212,4.709,4.709,0,0,1-.091-1.621,6.064,6.064,0,0,0-.367-2.129,1.874,1.874,0,0,1,.05-1.384,7.12,7.12,0,0,1,.77-1.554,1,1,0,0,0,.123-.635.488.488,0,0,1,.37-.5,3.006,3.006,0,0,0,1.119-.651,1.653,1.653,0,0,1,.622-.279,3.775,3.775,0,0,0,.694-.262,6.4,6.4,0,0,1,1.956-.6,2.464,2.464,0,0,0,1.868-1.686,1.891,1.891,0,0,1,.7-.9,2.611,2.611,0,0,0,.443-.347,8.818,8.818,0,0,1,2.329-1.565c.2-.119.478-.121.7-.243.1-.057.22.006.317.079a6.563,6.563,0,0,0,.557.392c.367.22.552.2.775-.138a10.517,10.517,0,0,1,.893-1.06c.357-.415.855-.674,1.213-1.086a.677.677,0,0,1,.852-.1,5.245,5.245,0,0,0,2.128.438,2.176,2.176,0,0,1,.4.044c.364.089.509.338.354.656-.217.446-.292.937-.546,1.375a.824.824,0,0,0,.377,1.05c.572.37,1.162.718,1.763,1.045.39.212.608.1.768-.325a5.78,5.78,0,0,1,.506-1.152.8.8,0,0,0,.119-.36,16.477,16.477,0,0,1,.763-2.487.4.4,0,0,1,.44-.359.539.539,0,0,1,.512.373c.193.533.408,1.058.616,1.586a1.017,1.017,0,0,0,.134.3,3.312,3.312,0,0,1,.678,1.688,9.43,9.43,0,0,1,.135,1.253" transform="translate(-1569.124 -456.145)" fill="#fff"/>
                <path id="Path_885777" data-name="Path 885777" d="M1096.389,96.1a4.373,4.373,0,0,0-.679.067,2.369,2.369,0,0,1-1.419-.152,1.052,1.052,0,0,1-.688-.932.372.372,0,0,1,.333-.435,4.87,4.87,0,0,1,.848-.169c.526,0,1.035-.114,1.556-.146a1.508,1.508,0,0,0,1.277-.516.721.721,0,0,1,.578-.213,13.358,13.358,0,0,0,1.358-.264,12.345,12.345,0,0,1,3.3-.516.182.182,0,0,0,.058,0,26.924,26.924,0,0,1,4.268-.259c.887-.073,1.757-.221,2.635-.326a12.024,12.024,0,0,1,2.259-.044,5.523,5.523,0,0,0,1.379-.07,11.651,11.651,0,0,1,4.379.089c.583.115,1.165.232,1.739.4a5.873,5.873,0,0,0,2.067.193,3,3,0,0,1,1.036.067c.121.035.3.019.3.2,0,.155-.16.187-.285.234a7.4,7.4,0,0,1-1.454.367,8.371,8.371,0,0,0-1.878.7.547.547,0,0,0-.329.591.97.97,0,0,1-.309.847.659.659,0,0,0-.163.284,3.059,3.059,0,0,1-2.043,1.844c-.5.177-.59.317-.493.808a3.124,3.124,0,0,1,.071.431.988.988,0,0,1-.835,1.031,5.642,5.642,0,0,0-1.42.46,5.424,5.424,0,0,1-1.376.415,22.526,22.526,0,0,1-2.228.351,2.546,2.546,0,0,0-1.318.643,4.828,4.828,0,0,1-2.516.866c-.525.034-1.02.195-1.541.232a.612.612,0,0,0-.425.265,6.388,6.388,0,0,0-.528.714,1.931,1.931,0,0,1-.692.719,1.145,1.145,0,0,0-.442.419,5.952,5.952,0,0,1-1.119,1.238.83.83,0,0,1-1.374.006,1.036,1.036,0,0,0-1.13-.346.486.486,0,0,1-.633-.229c-.163-.287-.333-.572-.473-.869a2.442,2.442,0,0,1-.273-1.267c.043-.476-.127-.932-.117-1.408a1.658,1.658,0,0,1,1.4-1.637c.057-.011.116-.013.172-.025.475-.1.554-.274.246-.633-.163-.19-.236-.416-.379-.609a1,1,0,0,1-.071-1.218,1.3,1.3,0,0,0-.2-1.619,1.184,1.184,0,0,0-.631-.364,9.829,9.829,0,0,0-1.791-.221" transform="translate(-1027.385 -91.956)" fill="#fff"/>
                <path id="Path_885778" data-name="Path 885778" d="M1853.207,479.9a1.378,1.378,0,0,0,.212.993c.066.11.132.243.287.245.365,0,.534.262.732.479.176.193.351.389.506.6.19.254.095.442-.229.51a.933.933,0,0,1-.648-.185,1.178,1.178,0,0,0-.706-.179,1.34,1.34,0,0,1-1.35-.738,2.355,2.355,0,0,0-1.172-1.153.606.606,0,0,0-.81.175,1.325,1.325,0,0,0-.316.45.8.8,0,0,1-.807.516c-.25.011-.5,0-.754-.016a.6.6,0,0,1-.447-.207,1.469,1.469,0,0,0-1.565-.441,1.556,1.556,0,0,1-.282.059c-.36.026-.521-.143-.41-.462a5.511,5.511,0,0,0,.229-.729,1.336,1.336,0,0,0-.856-1.641c-.584-.284-1.254-.356-1.822-.681a.554.554,0,0,0-.6.064c-.242.168-.467.111-.56-.142-.151-.412-.528-.736-.438-1.253.054-.309-.2-.575-.54-.7a.926.926,0,0,1-.405-.2.321.321,0,0,1-.105-.3c.037-.139.158-.136.276-.134a1.27,1.27,0,0,0,.543-.169,1.5,1.5,0,0,1,1.923.363.468.468,0,0,1,.1.3,1.12,1.12,0,0,0,.17.516c.223.354.4.4.8.182a7.3,7.3,0,0,0,1.159-.608.635.635,0,0,1,.655-.056c1.122.386,2.232.8,3.371,1.141a5.579,5.579,0,0,1,2.528,1.711,2.024,2.024,0,0,0,.8.6.873.873,0,0,1,.53,1.09" transform="translate(-1644.884 -412.249)" fill="#fff"/>
                <path id="Path_885779" data-name="Path 885779" d="M1746.684,442.827c.241-.407.331-.853.84-1.077.7-.306,1.367-.668,2.04-1.019a1.319,1.319,0,0,0,.446-.342,3.344,3.344,0,0,1,1.043-.916,4.249,4.249,0,0,0,1.23-1.283c.307-.412.408-.424.72-.037a3.734,3.734,0,0,0,1.126.836c.415.238.447.35.186.74a1.819,1.819,0,0,1-.432.507.72.72,0,0,0-.264.881,12.878,12.878,0,0,0,.537,1.428c.1.211.083.323-.094.462a1.785,1.785,0,0,0-.762,1.059c-.029.156-.2.207-.329.286-.34.207-.592.441-.47.89a2.262,2.262,0,0,1-.215,1.165.281.281,0,0,1-.18.2,1.755,1.755,0,0,1-1.431.13,2.567,2.567,0,0,0-1.534-.3.368.368,0,0,1-.325-.076,1.177,1.177,0,0,0-.687-.258.481.481,0,0,1-.475-.4,2.2,2.2,0,0,0-.465-.986,1.184,1.184,0,0,1-.147-.295c-.231-.511-.048-1.093-.358-1.593" transform="translate(-1567.436 -381.613)" fill="#fff"/>
                <path id="Path_885780" data-name="Path 885780" d="M1695.876,452.671a3.209,3.209,0,0,0,.09.918,1.145,1.145,0,0,0,1.069.857,2.026,2.026,0,0,1,.767.218,1.021,1.021,0,0,0,.945.09,1.626,1.626,0,0,1,1.23-.024,3.752,3.752,0,0,0,1.137.154.62.62,0,0,1,.622.3,1.147,1.147,0,0,0,.718.52.591.591,0,0,1,.2.1c.15.108.348.2.287.427-.055.2-.239.2-.417.213-.134.009-.281.095-.394.062a9.357,9.357,0,0,0-2-.1,3.128,3.128,0,0,1-1.328-.354,2.3,2.3,0,0,0-1.109-.263,2.964,2.964,0,0,1-1.524-.442.786.786,0,0,0-.257-.116,1.975,1.975,0,0,1-1.245-.9,4.516,4.516,0,0,0-1.2-1.242c-.306-.194-.427-.554-.66-.822a2.132,2.132,0,0,0-.5-.521.832.832,0,0,1-.358-.481,6.855,6.855,0,0,0-.977-1.6,5.631,5.631,0,0,1-.6-1.052,1.038,1.038,0,0,0-.581-.712.286.286,0,0,1-.153-.156c-.245-.742-.943-1.131-1.461-1.659a1.181,1.181,0,0,1-.4-.583.318.318,0,0,1,.386-.4,10.894,10.894,0,0,1,1.081.186,1.031,1.031,0,0,1,.729.492.724.724,0,0,0,.176.215,44.031,44.031,0,0,0,3.56,2.944,2.954,2.954,0,0,1,1.328,1.665,1.274,1.274,0,0,0,.583.837.768.768,0,0,1,.281.688c.006.181-.016.362-.025.544" transform="translate(-1518.716 -387.661)" fill="#fff"/>
                <path id="Path_885781" data-name="Path 885781" d="M1460.613,539.97a1.416,1.416,0,0,1,.354-1.1,1.925,1.925,0,0,0,.483-1.777,3.674,3.674,0,0,1-.1-.863,1.6,1.6,0,0,1,1.027-1.486,2.984,2.984,0,0,0,2.206-1.82,6.608,6.608,0,0,1,.7-1.067c.2-.272.345-.265.5.015a5.522,5.522,0,0,1,.644,2.355,1.175,1.175,0,0,1-.245.715,3.167,3.167,0,0,0-.486,1.261,9.906,9.906,0,0,1-.748,2.056c-.323.834-.689,1.653-.941,2.509-.115.39-.353.726-.49,1.1a.188.188,0,0,1-.067.088,2.2,2.2,0,0,1-1.437.457,1.285,1.285,0,0,1-1.18-.988,4.587,4.587,0,0,1-.214-1.458" transform="translate(-1330.862 -460.142)" fill="#fff"/>
                <path id="Path_885782" data-name="Path 885782" d="M1815.206,256.8a2.858,2.858,0,0,0-.461-1.359c-.148-.254-.293-.511-.435-.767a1.861,1.861,0,0,0-.515-.646.7.7,0,0,1-.295-.866,1.15,1.15,0,0,0-.067-1,.4.4,0,0,1,.061-.55.513.513,0,0,1,.547.007c.4.175.815.33,1.21.519a2.2,2.2,0,0,0,1.107.271.508.508,0,0,1,.514.282,2.626,2.626,0,0,0,.173.283c.334.445.33.539-.095.885-.219.178-.447.347-.682.5-.384.257-.46.476-.242.847.14.238.336.448.461.692a6.619,6.619,0,0,1,.844,3.4.606.606,0,0,1-.481.655,4.914,4.914,0,0,1-.719.207,1.34,1.34,0,0,0-1.11.754.76.76,0,0,1-.735.36,4.709,4.709,0,0,0-.914.138,1.111,1.111,0,0,0-1,.863.794.794,0,0,1-.25.419c-.256.26-.333.266-.618.041a2.875,2.875,0,0,1-1.033-1.22.509.509,0,0,1-.047-.364,2.934,2.934,0,0,1,1.313-1.786,1.362,1.362,0,0,1,.647-.183,1.378,1.378,0,0,0,1.195-.56,3.961,3.961,0,0,1,1.316-1.19.588.588,0,0,0,.309-.629" transform="translate(-1620.131 -225.579)" fill="#fff"/>
                <path id="Path_885783" data-name="Path 885783" d="M1922.18,649.855c-.394-.06-.761-.1-1.118-.176-.286-.065-.329-.218-.158-.443a1.045,1.045,0,0,1,.309-.322,18.8,18.8,0,0,1,3-1.527,6.564,6.564,0,0,0,1.026-.34,5.325,5.325,0,0,0,1-.64c.345-.278.6-.677,1.115-.734a.077.077,0,0,0,.05-.027,2.288,2.288,0,0,1,1.525-.764,1.115,1.115,0,0,0,.945-.791.379.379,0,0,1,.233-.232,2.326,2.326,0,0,0,1.319-2.79,1.52,1.52,0,0,1-.046-.486.522.522,0,0,1,.3-.379c.174-.081.265.1.374.193a1.465,1.465,0,0,1,.562,1.029,4.527,4.527,0,0,0,.118.475.65.65,0,0,0,.749.6.649.649,0,0,1,.225.044c.394.13.462.417.131.7a6.116,6.116,0,0,1-1.055.763,4.217,4.217,0,0,0-1.162.89,4.055,4.055,0,0,1-2.1,1.081,2.125,2.125,0,0,0-.82.368c-.579.452-1.218.831-1.775,1.314a2.1,2.1,0,0,1-.867.414,4.825,4.825,0,0,0-1.883.905,6.465,6.465,0,0,1-1.624.826,1.514,1.514,0,0,1-.37.055" transform="translate(-1711.42 -551.019)" fill="#fff"/>
                <path id="Path_885784" data-name="Path 885784" d="M1264.5,189.833c.735,0,1.282.449,1.238,1.066a3.4,3.4,0,0,0,.585,1.737.4.4,0,0,0,.194.195.717.717,0,0,1,.385.57.783.783,0,0,0,.637.679c.468.111.5.364.166.711-.153.158-.344.284-.353.538,0,.134-.157.2-.282.251a3.286,3.286,0,0,1-1.055.268,3.591,3.591,0,0,0-1.889.406.7.7,0,0,1-.215.079c-.378.09-.565-.076-.466-.436a10.779,10.779,0,0,0,.348-1.206c.013-.089.06-.175.065-.263.023-.393.256-.567.655-.634.423-.071.472-.206.271-.56a.782.782,0,0,0-.444-.4,2.441,2.441,0,0,1-.967-.758.645.645,0,0,1-.174-.451,2.375,2.375,0,0,0-.036-.542.524.524,0,0,1,.133-.5,2.324,2.324,0,0,0,.216-.255.9.9,0,0,1,.988-.487" transform="translate(-1167.585 -173.899)" fill="#fff"/>
                <path id="Path_885785" data-name="Path 885785" d="M1792.54,468.677c0,.245.006.415-.2.49a.356.356,0,0,1-.419-.1c-.189-.231-.474-.215-.729-.284a.583.583,0,0,0-.733.272.562.562,0,0,1-.26.279.456.456,0,0,1-.443-.012.317.317,0,0,1-.118-.344c.024-.161.077-.319.091-.481.025-.285.072-.545-.3-.736a.634.634,0,0,1-.1-.926,2.421,2.421,0,0,0,.275-.635c.256-.587.066-1.254.449-1.821.232-.343.642-.433.906-.713.07-.075.225-.034.331.017a6.576,6.576,0,0,0,1.477.226.559.559,0,0,0,.559-.214c.074-.083.13-.18.2-.265.1-.121.236-.208.4-.117a.3.3,0,0,1,.135.383,1.628,1.628,0,0,1-.448.75,1.432,1.432,0,0,0-.628.943c-.019.188-.191.31-.351.416-.625.411-.718.668-.5,1.369.115.364.229.728.333,1.1a3.413,3.413,0,0,1,.073.4" transform="translate(-1602.57 -402.886)" fill="#fff"/>
                <path id="Path_885786" data-name="Path 885786" d="M1212.627,157.927a6.963,6.963,0,0,0-1.725-.294.509.509,0,0,1-.393-.365,1.522,1.522,0,0,0-.536-.751c-.185-.127-.143-.277.016-.408a1.344,1.344,0,0,1,1.415-.362,3.5,3.5,0,0,0,1.71.053,13.1,13.1,0,0,1,1.55-.145c.556-.009.812.359,1.12.672.105.107.035.244-.031.357a.882.882,0,0,1-.536.388,10.053,10.053,0,0,0-2.332.789,1.1,1.1,0,0,1-.258.067" transform="translate(-1123.514 -145.295)" fill="#fff"/>
                <path id="Path_885787" data-name="Path 885787" d="M1789.722,382.633a1.4,1.4,0,0,1-.3.965.968.968,0,0,0,.015,1.087.3.3,0,0,0,.384.16c.539-.135.961.209,1.439.322.2.048.306.669.171.9s-.374.144-.572.119a1.855,1.855,0,0,1-.765-.372,1.568,1.568,0,0,0-.791-.3,2.244,2.244,0,0,1-1.687-1.612,5.41,5.41,0,0,1,.25-2.1.383.383,0,0,1,.213-.245,1.091,1.091,0,0,1,1.644.909c0,.055,0,.109,0,.163" transform="translate(-1601.262 -334.345)" fill="#fff"/>
                <path id="Path_885788" data-name="Path 885788" d="M928.7,362.128a.489.489,0,0,1-.194-.023,1.6,1.6,0,0,0-1.311-.193c-.164.054-.288-.1-.3-.261-.022-.293-.226-.437-.46-.583a8.153,8.153,0,0,1-.887-.6,4.349,4.349,0,0,0-2.659-.379c-.271.1-.547.179-.821.266a.239.239,0,0,1-.268-.033c-.091-.1-.034-.207.033-.3a1.9,1.9,0,0,1,.933-.7,3.881,3.881,0,0,1,2.917.1,5.192,5.192,0,0,1,1.7.988,4.875,4.875,0,0,0,1.129.651c.165.093.339.172.5.265s.425.142.415.4c-.007.171-.416.393-.733.4" transform="translate(-885.281 -315.64)" fill="#fff"/>
                <path id="Path_885789" data-name="Path 885789" d="M1248.475,204.891a4.563,4.563,0,0,1,.45.081c.664.179.79.621.289,1.053a.442.442,0,0,0-.183.371,1.281,1.281,0,0,1-.145.575.584.584,0,0,1-.586.419,2.123,2.123,0,0,0-1.01.368c-.518.3-.812.2-1.055-.3a.338.338,0,0,1,.025-.4,1.215,1.215,0,0,0,.241-.974c-.03-.211.025-.42.3-.448a1.5,1.5,0,0,0,.833-.447,1.3,1.3,0,0,1,.842-.3" transform="translate(-1153.557 -186.524)" fill="#fff"/>
                <path id="Path_885790" data-name="Path 885790" d="M965.84,377.092c-.616-.094-1.226-.186-1.834-.283-.112-.018-.237-.052-.237-.192a.232.232,0,0,1,.216-.223c.226-.042.457-.065.685-.1.279-.042.361-.189.2-.406-.1-.143-.349-.251-.216-.448s.39-.079.589-.057a1.941,1.941,0,0,0,.8,0,.45.45,0,0,1,.336.017,15.466,15.466,0,0,0,1.465.634c.167.1.36.178.326.4-.038.244-.239.3-.47.314-.631.051-1.239.232-1.863.339" transform="translate(-920.023 -329.238)" fill="#fff"/>
              </g>
            </g>
          </g>
          <path id="Path_885791" data-name="Path 885791" d="M1715.236,405.658c0,2.255-4.344,7.965-4.344,7.965s-4.345-5.71-4.345-7.965a4.353,4.353,0,0,1,8.689,0" transform="translate(-1411.19 -336.263)" fill="#7d3a1b"/>
          <path id="Path_885792" data-name="Path 885792" d="M1721.684,413.917a2.643,2.643,0,1,1-2.637-2.479,2.562,2.562,0,0,1,2.637,2.479" transform="translate(-1419.345 -344.522)" fill="#fff"/>
          <path id="Path_885793" data-name="Path 885793" d="M1012.391,621.061c0,2.255-4.344,7.965-4.344,7.965s-4.345-5.71-4.345-7.965a4.353,4.353,0,0,1,8.689,0" transform="translate(-829.988 -516.632)" fill="#7d3a1b"/>
          <path id="Path_885794" data-name="Path 885794" d="M1018.84,629.319a2.642,2.642,0,1,1-2.638-2.478,2.562,2.562,0,0,1,2.638,2.478" transform="translate(-838.144 -524.891)" fill="#fff"/>
          <path id="Path_885795" data-name="Path 885795" d="M1814.7,208.333c0,2.255-4.344,7.965-4.344,7.965s-4.344-5.71-4.344-7.965a4.353,4.353,0,0,1,8.689,0" transform="translate(-1493.441 -171.031)" fill="#7d3a1b"/>
          <path id="Path_885796" data-name="Path 885796" d="M1821.151,216.592a2.643,2.643,0,1,1-2.638-2.479,2.562,2.562,0,0,1,2.638,2.479" transform="translate(-1501.597 -179.29)" fill="#fff"/>
          <path id="Path_885797" data-name="Path 885797" d="M1418.1,281.307c0,2.255-4.344,7.965-4.344,7.965s-4.344-5.71-4.344-7.965a4.353,4.353,0,0,1,8.689,0" transform="translate(-1165.477 -232.136)" fill="#7d3a1b"/>
          <path id="Path_885798" data-name="Path 885798" d="M1424.546,289.565a2.643,2.643,0,1,1-2.637-2.478,2.562,2.562,0,0,1,2.637,2.478" transform="translate(-1173.633 -240.395)" fill="#fff"/>
          <path id="Path_885799" data-name="Path 885799" d="M789.344,100.64c0,2.255-4.344,7.965-4.344,7.965s-4.344-5.71-4.344-7.965a4.353,4.353,0,0,1,8.689,0" transform="translate(-645.545 -80.854)" fill="#7d3a1b"/>
          <path id="Path_885800" data-name="Path 885800" d="M795.792,108.9a2.643,2.643,0,1,1-2.638-2.478,2.562,2.562,0,0,1,2.638,2.478" transform="translate(-653.7 -89.112)" fill="#fff"/>
          <path id="Path_885801" data-name="Path 885801" d="M1254.846,171.937c0,2.255-4.344,7.965-4.344,7.965s-4.344-5.71-4.344-7.965a4.353,4.353,0,0,1,8.689,0" transform="translate(-1030.481 -140.555)" fill="#7d3a1b"/>
          <path id="Path_885802" data-name="Path 885802" d="M1261.294,180.2a2.643,2.643,0,1,1-2.638-2.479,2.562,2.562,0,0,1,2.638,2.479" transform="translate(-1038.636 -148.813)" fill="#fff"/>
          <path id="Path_885803" data-name="Path 885803" d="M927.528,353.235c0,2.255-4.344,7.965-4.344,7.965s-4.344-5.71-4.344-7.965a4.353,4.353,0,0,1,8.689,0" transform="translate(-759.813 -292.366)" fill="#7d3a1b"/>
          <path id="Path_885804" data-name="Path 885804" d="M933.977,361.494a2.642,2.642,0,1,1-2.638-2.478,2.562,2.562,0,0,1,2.638,2.478" transform="translate(-767.969 -300.625)" fill="#fff"/>
          <g id="Group_1101842" data-name="Group 1101842" transform="translate(0 264.439)" opacity="0.3" style="mix-blend-mode: multiply;isolation: isolate">
            <g id="Group_1101841" data-name="Group 1101841">
              <g id="Group_1101840" data-name="Group 1101840" clip-path="url(#clip-path-5)">
                <path id="Path_885805" data-name="Path 885805" d="M216.613,1625.9c-86.32,0-158.7,6.3-178.2,14.773C14.967,1643.149,0,1646.91,0,1651.122c0,7.451,46.832,13.492,104.6,13.492,16.2,0,31.547-.475,45.237-1.324,20.693.854,43.212,1.324,66.772,1.324,101.282,0,183.387-8.666,183.387-19.356S317.895,1625.9,216.613,1625.9" transform="translate(0 -1625.902)" fill="#ffb937"/>
              </g>
            </g>
          </g>
          <rect id="Rectangle_403575" data-name="Rectangle 403575" width="8.864" height="97.213" transform="translate(118.237 189.379)" fill="#4d4d4d"/>
          <rect id="Rectangle_403576" data-name="Rectangle 403576" width="8.039" height="93.867" transform="translate(157.513 185.608)" fill="#333"/>
          <rect id="Rectangle_403577" data-name="Rectangle 403577" width="8.864" height="97.213" transform="translate(352.727 189.379)" fill="#4d4d4d"/>
          <rect id="Rectangle_403578" data-name="Rectangle 403578" width="8.034" height="93.867" transform="translate(314.277 185.608)" fill="#333"/>
          <g id="Group_1101845" data-name="Group 1101845" transform="translate(118.237 189.379)" opacity="0.5" style="mix-blend-mode: multiply;isolation: isolate">
            <g id="Group_1101844" data-name="Group 1101844">
              <g id="Group_1101843" data-name="Group 1101843" clip-path="url(#clip-path-6)">
                <rect id="Rectangle_403579" data-name="Rectangle 403579" width="8.864" height="18.326" fill="#4d4d4d"/>
              </g>
            </g>
          </g>
          <g id="Group_1101848" data-name="Group 1101848" transform="translate(157.513 185.608)" opacity="0.5" style="mix-blend-mode: multiply;isolation: isolate">
            <g id="Group_1101847" data-name="Group 1101847">
              <g id="Group_1101846" data-name="Group 1101846" clip-path="url(#clip-path-7)">
                <rect id="Rectangle_403581" data-name="Rectangle 403581" width="8.039" height="22.097" fill="#4d4d4d"/>
              </g>
            </g>
          </g>
          <g id="Group_1101851" data-name="Group 1101851" transform="translate(314.277 185.608)" opacity="0.5" style="mix-blend-mode: multiply;isolation: isolate">
            <g id="Group_1101850" data-name="Group 1101850">
              <g id="Group_1101849" data-name="Group 1101849" clip-path="url(#clip-path-8)">
                <rect id="Rectangle_403583" data-name="Rectangle 403583" width="8.034" height="22.097" transform="translate(0)" fill="#4d4d4d"/>
              </g>
            </g>
          </g>
          <g id="Group_1101854" data-name="Group 1101854" transform="translate(352.727 189.379)" opacity="0.5" style="mix-blend-mode: multiply;isolation: isolate">
            <g id="Group_1101853" data-name="Group 1101853">
              <g id="Group_1101852" data-name="Group 1101852" clip-path="url(#clip-path-9)">
                <rect id="Rectangle_403585" data-name="Rectangle 403585" width="8.864" height="18.326" transform="translate(0 0)" fill="#4d4d4d"/>
              </g>
            </g>
          </g>
          <path id="Path_885806" data-name="Path 885806" d="M1231.961,681.938v-63.3c0-5.634,4.86-10.2,10.856-10.2h44.728c6,0,10.856,4.567,10.856,10.2v63.3Z" transform="translate(-1018.742 -509.482)" fill="#702c31"/>
          <path id="Path_885807" data-name="Path 885807" d="M1333.533,519.8a4.915,4.915,0,0,1,1.2-1.432c3.487-2.51,7.788-1.8,11.128.44a10.972,10.972,0,0,1,4.221,5.674,14.527,14.527,0,0,1,.416,6.974,8.683,8.683,0,0,0-.185,4.112,5.563,5.563,0,0,0,2.244,2.683c.99.688,2.1,1.214,3.113,1.868a4.963,4.963,0,0,1,2.537,3.25c.181,1.495-.844,2.877-1.964,3.952a1.7,1.7,0,0,1-1.128.6,1.987,1.987,0,0,1-.705-.2c-2.617-1.065-5.577-1.008-8.426-.878q-3.54.161-7.072.433a12.836,12.836,0,0,0-2.889.452c-1.072.339-2.024.943-3.065,1.359a4.257,4.257,0,0,1-3.282.162,4.113,4.113,0,0,1-1.846-2.094,9.17,9.17,0,0,1-.737-6.213c.384-1.472,1.242-2.748,1.617-4.236a17.812,17.812,0,0,0,.427-5.054c-.142-3.615-.751-6.767.792-10.22a3.82,3.82,0,0,1,.6-1.008,2.374,2.374,0,0,1,2.73-.8Z" transform="translate(-1097.198 -432.729)"/>
          <path id="Path_885808" data-name="Path 885808" d="M1207.163,1641.1a5.194,5.194,0,1,1-5.183-4.871,5.035,5.035,0,0,1,5.183,4.871" transform="translate(-989.663 -1370.108)"/>
          <path id="Path_885809" data-name="Path 885809" d="M1252.779,1532.477v3.48l-9.175,2.9-27.854,8.813a1.239,1.239,0,0,0-.864,1.159v1.573h-6.113v-2.436a3.429,3.429,0,0,1,2.216-3.15l26.7-9.8,5.12-1.877,1.814-.667Z" transform="translate(-999.568 -1283.233)" fill="#1a1a1a"/>
          <path id="Path_885810" data-name="Path 885810" d="M1201.427,1636.225h-5.753a5.575,5.575,0,0,0-3.022,4.26.575.575,0,0,0,.6.612h10.6a.575.575,0,0,0,.6-.612,5.575,5.575,0,0,0-3.022-4.26" transform="translate(-986.234 -1370.108)" fill="#333"/>
          <g id="Group_1101857" data-name="Group 1101857" transform="translate(243.244 249.244)" style="mix-blend-mode: multiply;isolation: isolate">
            <g id="Group_1101856" data-name="Group 1101856">
              <g id="Group_1101855" data-name="Group 1101855" clip-path="url(#clip-path-10)">
                <path id="Path_885811" data-name="Path 885811" d="M1415.409,1532.477v3.48l-9.175,2.9-.792-5.714,1.814-.667Z" transform="translate(-1405.442 -1532.477)" fill="#1a1a1a"/>
              </g>
            </g>
          </g>
          <g id="Group_1101860" data-name="Group 1101860" transform="translate(238.124 249.244)" style="mix-blend-mode: multiply;isolation: isolate">
            <g id="Group_1101859" data-name="Group 1101859">
              <g id="Group_1101858" data-name="Group 1101858" clip-path="url(#clip-path-11)">
                <path id="Path_885812" data-name="Path 885812" d="M1390.948,1532.477v2.544h-15.087l6.934-2.544Z" transform="translate(-1375.861 -1532.477)" fill="#1a1a1a"/>
              </g>
            </g>
          </g>
          <path id="Path_885813" data-name="Path 885813" d="M1625.464,1641.1a5.194,5.194,0,1,0,5.183-4.871,5.035,5.035,0,0,0-5.183,4.871" transform="translate(-1344.14 -1370.108)"/>
          <path id="Path_885814" data-name="Path 885814" d="M1463.14,1547.969v2.436h-6.113v-1.573a1.239,1.239,0,0,0-.864-1.159l-27.538-8.713-9.49-3v-3.48h8.149l2.506.919,4.428,1.624,26.7,9.8a3.427,3.427,0,0,1,2.219,3.15" transform="translate(-1173.521 -1283.234)" fill="#1a1a1a"/>
          <path id="Path_885815" data-name="Path 885815" d="M1624.342,1636.225h5.753a5.574,5.574,0,0,1,3.021,4.26.575.575,0,0,1-.6.612h-10.6a.575.575,0,0,1-.6-.612,5.574,5.574,0,0,1,3.021-4.26" transform="translate(-1340.711 -1370.108)" fill="#333"/>
          <g id="Group_1101863" data-name="Group 1101863" transform="translate(245.615 249.244)" style="mix-blend-mode: multiply;isolation: isolate">
            <g id="Group_1101862" data-name="Group 1101862">
              <g id="Group_1101861" data-name="Group 1101861" clip-path="url(#clip-path-12)">
                <path id="Path_885816" data-name="Path 885816" d="M1429.791,1533.4c-.362,1.765-.853,4.124-1.165,5.563l-9.49-3v-3.48h8.149Z" transform="translate(-1419.137 -1532.477)" fill="#1a1a1a"/>
              </g>
            </g>
          </g>
          <g id="Group_1101866" data-name="Group 1101866" transform="translate(245.615 249.244)" style="mix-blend-mode: multiply;isolation: isolate">
            <g id="Group_1101865" data-name="Group 1101865">
              <g id="Group_1101864" data-name="Group 1101864" clip-path="url(#clip-path-13)">
                <path id="Path_885817" data-name="Path 885817" d="M1434.219,1535.021h-15.083v-2.544h8.149Z" transform="translate(-1419.136 -1532.477)" fill="#1a1a1a"/>
              </g>
            </g>
          </g>
          <path id="Path_885818" data-name="Path 885818" d="M1424.538,1529.659l-.312,3-1.588,15.383h-4.958l-1.588-15.383-.312-3Z" transform="translate(-1170.746 -1280.874)" fill="#1a1a1a"/>
          <g id="Group_1101869" data-name="Group 1101869" transform="translate(245.034 248.786)" style="mix-blend-mode: multiply;isolation: isolate">
            <g id="Group_1101868" data-name="Group 1101868">
              <g id="Group_1101867" data-name="Group 1101867" clip-path="url(#clip-path-14)">
                <path id="Path_885819" data-name="Path 885819" d="M1424.538,1529.659l-.312,3h-8.135l-.312-3Z" transform="translate(-1415.779 -1529.659)" fill="#1a1a1a"/>
              </g>
            </g>
          </g>
          <path id="Path_885820" data-name="Path 885820" d="M1421.5,1641.1a5.194,5.194,0,1,1-5.184-4.871,5.035,5.035,0,0,1,5.184,4.871" transform="translate(-1166.901 -1370.108)"/>
          <path id="Path_885821" data-name="Path 885821" d="M1415.762,1636.225h-5.753a5.575,5.575,0,0,0-3.022,4.26.575.575,0,0,0,.6.612h10.6a.575.575,0,0,0,.6-.612,5.574,5.574,0,0,0-3.021-4.26" transform="translate(-1163.473 -1370.108)" fill="#333"/>
          <rect id="Rectangle_403592" data-name="Rectangle 403592" width="7.991" height="28.169" transform="translate(245.417 210.034)" fill="#999"/>
          <g id="Group_1101872" data-name="Group 1101872" transform="translate(245.418 211.654)" style="mix-blend-mode: multiply;isolation: isolate">
            <g id="Group_1101871" data-name="Group 1101871">
              <g id="Group_1101870" data-name="Group 1101870" clip-path="url(#clip-path-15)">
                <rect id="Rectangle_403593" data-name="Rectangle 403593" width="7.991" height="4.124" transform="translate(-0.001)" fill="#999"/>
              </g>
            </g>
          </g>
          <path id="Path_885822" data-name="Path 885822" d="M1420.688,1365.4v25.669a1.291,1.291,0,0,1-1.33,1.25h-8.128a1.3,1.3,0,0,1-1.334-1.25V1365.4a1.3,1.3,0,0,1,1.334-1.25h8.128a1.292,1.292,0,0,1,1.33,1.25" transform="translate(-1165.881 -1142.28)" fill="#1a1a1a"/>
          <path id="Path_885823" data-name="Path 885823" d="M1357.86,1262.249v4.646a4.135,4.135,0,0,0,.194,1.25,4.689,4.689,0,0,0,4.5,3.163h19.41a4.69,4.69,0,0,0,4.507-3.163,4.143,4.143,0,0,0,.193-1.25v-4.646Z" transform="translate(-1122.851 -1056.956)" fill="#1a1a1a"/>
          <g id="Group_1101875" data-name="Group 1101875" transform="translate(235.009 205.294)" style="mix-blend-mode: multiply;isolation: isolate">
            <g id="Group_1101874" data-name="Group 1101874">
              <g id="Group_1101873" data-name="Group 1101873" clip-path="url(#clip-path-16)">
                <path id="Path_885824" data-name="Path 885824" d="M1357.86,1262.249v4.646a4.135,4.135,0,0,0,.194,1.25h28.42a4.143,4.143,0,0,0,.193-1.25v-4.646Z" transform="translate(-1357.86 -1262.249)" fill="#1a1a1a"/>
              </g>
            </g>
          </g>
          <path id="Path_885825" data-name="Path 885825" d="M1363.814,1262.959v.29a3.907,3.907,0,0,1-.463,1.846,4.484,4.484,0,0,1-3.98,2.328H1327.36a4.484,4.484,0,0,1-3.98-2.328,3.906,3.906,0,0,1-.466-1.846v-.29c0-.064.007-.128.011-.192H1363.8c0,.064.011.128.011.192" transform="translate(-1093.953 -1057.389)" fill="#1a1a1a"/>
          <g id="Group_1101878" data-name="Group 1101878" transform="translate(228.96 205.378)" style="mix-blend-mode: multiply;isolation: isolate">
            <g id="Group_1101877" data-name="Group 1101877">
              <g id="Group_1101876" data-name="Group 1101876" clip-path="url(#clip-path-17)">
                <path id="Path_885826" data-name="Path 885826" d="M1363.814,1262.959v.29a3.907,3.907,0,0,1-.463,1.846H1323.38a3.906,3.906,0,0,1-.466-1.846v-.29c0-.064.007-.128.011-.192H1363.8c0,.064.011.128.011.192" transform="translate(-1322.913 -1262.767)" fill="#1a1a1a"/>
              </g>
            </g>
          </g>
          <g id="Group_1101881" data-name="Group 1101881" transform="translate(244.016 223.15)" style="mix-blend-mode: multiply;isolation: isolate">
            <g id="Group_1101880" data-name="Group 1101880">
              <g id="Group_1101879" data-name="Group 1101879" clip-path="url(#clip-path-18)">
                <rect id="Rectangle_403597" data-name="Rectangle 403597" width="10.791" height="1.829" transform="translate(-0.001)" fill="#1a1a1a"/>
                <rect id="Rectangle_403598" data-name="Rectangle 403598" width="10.791" height="1.83" transform="translate(-0.001 3.396)" fill="#1a1a1a"/>
                <rect id="Rectangle_403599" data-name="Rectangle 403599" width="10.791" height="1.829" transform="translate(-0.001 6.792)" fill="#1a1a1a"/>
                <rect id="Rectangle_403600" data-name="Rectangle 403600" width="10.791" height="1.829" transform="translate(-0.001 10.188)" fill="#1a1a1a"/>
                <rect id="Rectangle_403601" data-name="Rectangle 403601" width="10.791" height="1.829" transform="translate(-0.001 13.584)" fill="#1a1a1a"/>
                <rect id="Rectangle_403602" data-name="Rectangle 403602" width="10.791" height="1.83" transform="translate(-0.001 16.98)" fill="#1a1a1a"/>
                <rect id="Rectangle_403603" data-name="Rectangle 403603" width="10.791" height="1.83" transform="translate(-0.001 20.376)" fill="#1a1a1a"/>
                <rect id="Rectangle_403604" data-name="Rectangle 403604" width="10.791" height="1.829" transform="translate(-0.001 23.772)" fill="#1a1a1a"/>
              </g>
            </g>
          </g>
          <path id="Path_885827" data-name="Path 885827" d="M1209.573,1195.776h-83.425a.706.706,0,0,1-.727-.683v-12.386a.706.706,0,0,1,.727-.683h83.425a.707.707,0,0,1,.727.683v12.386a.706.706,0,0,1-.727.683" transform="translate(-930.641 -989.777)" fill="#702c31"/>
          <path id="Path_885828" data-name="Path 885828" d="M1119.674,1159.829l-47.016-2.971s-8.407,4.683-9.5,18.37c-.909,11.421-.3,45.529-.075,56.511-2.8,2.346-11.8,9.712-17.232,12.066-6.5,2.814-.13,4.162,11.284,3.589s20.886-.976,22.626-3.991-3.412-12.392-3.412-12.392l3.811-60.2Z" transform="translate(-862.692 -968.706)" fill="#db9c94"/>
          <path id="Path_885829" data-name="Path 885829" d="M1119.689,1159.849l-26.671,7.415-12.849,3.576-1.164,18.448-1.063,16.775-1.164,18.3-.414,6.668s2.854,5.206,3.593,9.108a5.048,5.048,0,0,1-.179,3.281c-.839,1.462-3.492,2.314-7.3,2.85-4.052.6-9.435.841-15.333,1.146-11.416.568-17.773-.778-11.282-3.587,5.428-2.356,14.438-9.729,17.236-12.074-.045-2.061-.1-4.943-.156-8.33-.09-5.2-.179-11.6-.224-18.111-.045-6.878-.045-13.872.045-19.71.078-4.228.2-7.846.4-10.36a28.3,28.3,0,0,1,2.877-10.7,18.706,18.706,0,0,1,6.625-7.667l26.022,1.641,11.673.736h.011Z" transform="translate(-862.702 -968.727)" fill="#db9c94"/>
          <path id="Path_885830" data-name="Path 885830" d="M1043.257,1629.177s4.521-.948,7.882,1.073,13.657-2.122,13.657-2.122,2.724,6.24,2.679,8.405-.067,3.2-.067,3.2-15.158,2.962-28.351,2.647-12.713-2.679-9.764-4.379,13.964-8.822,13.964-8.822" transform="translate(-849.735 -1363.328)"/>
          <path id="Path_885831" data-name="Path 885831" d="M1067.465,1681.861c-.04,1.935-.059,2.86-.059,2.86s-15.152,2.962-28.354,2.646c-12.755-.308-12.72-2.516-10.043-4.2a60.631,60.631,0,0,0,13.912.666c8.873-.363,20.809-1.574,24.545-1.969" transform="translate(-849.735 -1408.321)" fill="#333"/>
          <path id="Path_885832" data-name="Path 885832" d="M1170.095,710.209s-5.536,2.716-8.9,16.348-7.025,37.7-7.025,37.7l20.2,2.142,3.073-19.195-5.395-35.068Z" transform="translate(-954.413 -594.7)" fill="#ffb937"/>
          <path id="Path_885833" data-name="Path 885833" d="M1267.988,672.187s-16.63,2.063-21.8,5.776c0,0,5.367,31.768,4.708,37.75s-2.76,22.485-2.76,22.485h54.346s-7.171-26.61-6.659-32.593,5.687-26.184,5.341-28.467c-.575-3.8-24.251-5.438-24.251-5.438Z" transform="translate(-1030.506 -562.454)" fill="#e49e1e"/>
          <path id="Path_885834" data-name="Path 885834" d="M1390.248,761.058l-1.439-58.622.877-3.447.816.184-.851,3.347,1.437,58.52Z" transform="translate(-1148.443 -585.305)" fill="#034423"/>
          <path id="Path_885835" data-name="Path 885835" d="M1381.632,641.142l-6.182,7.418-3.3-6.923.306-5.016.125-2.022h7.489l1.006,4.2Z" transform="translate(-1134.665 -531.387)" fill="#db9c94"/>
          <path id="Path_885836" data-name="Path 885836" d="M1276.226,1141.233l-8.7,4.459-23.492,12.043-1.1,17.312-1.22,19.289-1.074,16.944-.392,6.258s5.092,9.382,3.358,12.4-11.214,3.418-22.63,3.986c-6.357.316-11.147.042-13.028-.757-1.489-.62-1.142-1.588,1.746-2.829a38.746,38.746,0,0,0,5.73-3.3c4.488-3.008,9.222-6.868,11.293-8.593-.045-1.8-.078-4.2-.134-6.984-.089-5.038-.179-11.359-.235-17.869-.045-5.7-.056-11.538-.011-16.786.056-6.058.19-11.327.459-14.661a30.021,30.021,0,0,1,1.69-7.983,23.538,23.538,0,0,1,3.481-6.353,19.25,19.25,0,0,1,2.194-2.387,12.386,12.386,0,0,1,2.138-1.641Z" transform="translate(-998.176 -955.622)" fill="#db9c94"/>
          <g id="Group_1101884" data-name="Group 1101884" transform="translate(200.064 188.157)" style="mix-blend-mode: multiply;isolation: isolate">
            <g id="Group_1101883" data-name="Group 1101883">
              <g id="Group_1101882" data-name="Group 1101882" clip-path="url(#clip-path-19)">
                <path id="Path_885837" data-name="Path 885837" d="M1225.239,1158.8l-23.493,12.043-1.1,17.312a93.016,93.016,0,0,1-16.6,1.756c.056-6.058.19-11.327.459-14.661a30.019,30.019,0,0,1,1.69-7.983l-12.848,3.576-1.164,18.448a78.379,78.379,0,0,1-16.24-3.681c.078-4.228.2-7.846.4-10.36a28.3,28.3,0,0,1,2.876-10.7l30.454-3.639,13.867-1.651h.011l19.944-2.377a21.488,21.488,0,0,1,1.735,1.914" transform="translate(-1155.948 -1156.883)" fill="#db9c94"/>
              </g>
            </g>
          </g>
          <path id="Path_885838" data-name="Path 885838" d="M1206.924,1159.511c-1.433,5.375-4.947,8.235-10.946,10.391-1.41.5-2.944.968-4.634,1.42-8.875,2.367-4.275,9.75-7.543,10.3-43.951,7.236-58.378-.641-58.378-.641a83.255,83.255,0,0,1,1.937-11.075,28.39,28.39,0,0,1,1.141-3.513c.951-2.3,4.656-4.806,8.439-6.878a91.728,91.728,0,0,1,9.379-4.375Z" transform="translate(-930.642 -967.263)" fill="#ffe2b7"/>
          <g id="Group_1101887" data-name="Group 1101887" transform="translate(196.717 192.248)" opacity="0.5" style="mix-blend-mode: multiply;isolation: isolate">
            <g id="Group_1101886" data-name="Group 1101886">
              <g id="Group_1101885" data-name="Group 1101885" clip-path="url(#clip-path-20)">
                <path id="Path_885839" data-name="Path 885839" d="M1216.177,1182.038c-1.432,5.375-4.947,8.235-10.946,10.391h-68.619a28.407,28.407,0,0,1,1.141-3.513c.951-2.3,4.656-4.806,8.439-6.878Z" transform="translate(-1136.612 -1182.038)" fill="#d1a34f"/>
              </g>
            </g>
          </g>
          <path id="Path_885840" data-name="Path 885840" d="M853.455,1041.632H571.425l25.171-18.175H828.284Z" transform="translate(-472.526 -857.001)" fill="#949597"/>
          <g id="Group_1101890" data-name="Group 1101890" transform="translate(169.024 168.605)" opacity="0.5" style="mix-blend-mode: multiply;isolation: isolate">
            <g id="Group_1101889" data-name="Group 1101889">
              <g id="Group_1101888" data-name="Group 1101888" clip-path="url(#clip-path-21)">
                <path id="Path_885841" data-name="Path 885841" d="M1121.856,1042.2c0,3.054-32.516,5.529-72.626,5.529s-72.626-2.475-72.626-5.529,32.516-5.529,72.626-5.529,72.626,2.475,72.626,5.529" transform="translate(-976.604 -1036.671)" fill="gray"/>
              </g>
            </g>
          </g>
          <rect id="Rectangle_403609" data-name="Rectangle 403609" width="282.03" height="15.229" transform="translate(98.898 184.631)" fill="gray"/>
          <path id="Path_885842" data-name="Path 885842" d="M1446.142,1030.063l.659-1.169-18.037-.757,1.281,8.526Z" transform="translate(-1181.483 -860.921)" fill="#ccc"/>
          <path id="Path_885843" data-name="Path 885843" d="M1431.049,1039.733l16.976-6.945v1.533a.609.609,0,0,1-.38.555l-16.112,6.875-1.289-.505Z" transform="translate(-1182.707 -864.814)" fill="#e6e6e6"/>
          <path id="Path_885844" data-name="Path 885844" d="M1454.554,1067.249l3.146-1.272v.481l-3.146,1.272Z" transform="translate(-1202.809 -892.605)" fill="gray"/>
          <path id="Path_885845" data-name="Path 885845" d="M1443.228,697.15s8.122,12.583,11.854,37.131c0,0,2.5,14.646,1.4,17.74s-36.637,1.925-36.637,1.925l-1.866-10.864,22.625-.725s-7.478-20.041-9.234-30.974,4.171-19.391,11.854-14.234" transform="translate(-1172.569 -582.466)" fill="#ffb937"/>
          <path id="Path_885846" data-name="Path 885846" d="M999.819,812.053l8.513,38.242a1.152,1.152,0,0,0,1.058.874l65.514,4.782a1.136,1.136,0,0,0,1.255-1.239l-5.532-40.635a1.148,1.148,0,0,0-1.12-.962l-68.5-2.388a1.126,1.126,0,0,0-1.192,1.328" transform="translate(-826.756 -678.867)" fill="#e6e6e6"/>
          <path id="Path_885847" data-name="Path 885847" d="M1236.736,1639.845l-.007.337c-.04,1.935-.059,2.86-.059,2.86s-15.151,2.962-28.354,2.646c-12.755-.308-12.72-2.516-10.043-4.2.091-.062.181-.113.283-.174,2.946-1.7,13.964-8.822,13.964-8.822s4.52-.948,7.881,1.071,13.656-2.116,13.656-2.116,2.725,6.235,2.68,8.4" transform="translate(-989.704 -1366.103)" fill="#1a1a1a"/>
          <g id="Group_1101893" data-name="Group 1101893" transform="translate(237.787 103.212)" style="mix-blend-mode: multiply;isolation: isolate">
            <g id="Group_1101892" data-name="Group 1101892">
              <g id="Group_1101891" data-name="Group 1101891" clip-path="url(#clip-path-22)">
                <path id="Path_885848" data-name="Path 885848" d="M1382.534,638.8a10,10,0,0,1-8.62-2.181l.125-2.022h7.489Z" transform="translate(-1373.913 -634.598)" fill="#db9c94"/>
              </g>
            </g>
          </g>
          <path id="Path_885849" data-name="Path 885849" d="M1370.5,550.1c.383,5.05-2.487,9.357-6.41,9.62s-7.413-3.618-7.8-8.669,2.487-9.357,6.41-9.62,7.414,3.618,7.8,8.668" transform="translate(-1121.528 -453.363)" fill="#db9c94"/>
          <path id="Path_885850" data-name="Path 885850" d="M1368.324,537.446a14.223,14.223,0,0,0,3.942.881,4.841,4.841,0,0,1,3.43,1.825c.635,1.036.454,2.332.771,3.49a4.512,4.512,0,0,0,2.609,2.9c.238-.854.475-1.71.639-2.58a11.87,11.87,0,0,0-1.392-8.533,9.18,9.18,0,0,0-7.7-4.293c-1.444.03-3.419.459-4.184,1.742-1.039,1.742.156,3.718,1.886,4.57" transform="translate(-1129.624 -444.748)"/>
          <path id="Path_885851" data-name="Path 885851" d="M1349.99,544.856c2.038-1.567-1.088-3.117-2.667-2.42a2.63,2.63,0,0,0-1.521,1.859,14.765,14.765,0,0,0,.076,2.4c-.038,1.453-.952,2.79-.99,4.243a3.9,3.9,0,0,0,2.479,3.6,7.947,7.947,0,0,1,.19-4.476,12.081,12.081,0,0,0,.753-2.334c.092-.741-.027-1.591.513-2.138a10.4,10.4,0,0,1,1.169-.738" transform="translate(-1112.122 -454.07)"/>
          <path id="Path_885852" data-name="Path 885852" d="M1404.017,667.717l-4.466,6.848,2.719-.786,2.024,4.295,1.612-9.534Z" transform="translate(-1157.326 -559.119)" fill="#ffb937"/>
          <path id="Path_885853" data-name="Path 885853" d="M1361.445,667.717l-2.129,1.417-.233,6.858,2.261-2.213,2.51.849-2.51-5.26Z" transform="translate(-1123.862 -559.119)" fill="#ffb937"/>
          <rect id="Rectangle_403611" data-name="Rectangle 403611" width="11.287" height="2.892" transform="translate(224.363 123.6)" fill="#fff"/>
          <path id="Path_885854" data-name="Path 885854" d="M1236.728,1685.17c-.04,1.935-.059,2.86-.059,2.86s-15.151,2.962-28.354,2.646c-12.755-.308-12.72-2.517-10.043-4.2a60.6,60.6,0,0,0,13.911.666c8.874-.363,20.81-1.574,24.545-1.969" transform="translate(-989.704 -1411.092)" fill="#666"/>
          <g id="Group_1101896" data-name="Group 1101896" transform="translate(298.71 172.455)" opacity="0.5" style="mix-blend-mode: multiply;isolation: isolate">
            <g id="Group_1101895" data-name="Group 1101895">
              <g id="Group_1101894" data-name="Group 1101894" clip-path="url(#clip-path-23)">
                <path id="Path_885855" data-name="Path 885855" d="M1771.8,1062.7c0,1.3-10.272,2.352-22.944,2.352s-22.944-1.053-22.944-2.352,10.272-2.352,22.944-2.352,22.944,1.053,22.944,2.352" transform="translate(-1725.917 -1060.344)" fill="gray"/>
              </g>
            </g>
          </g>
          <path id="Path_885856" data-name="Path 885856" d="M1853.369,816.682h-3.129c-3.025-12.573-1.229-30.085-1.229-30.085,5.141,14.3,4.359,30.085,4.359,30.085" transform="translate(-1528.559 -658.664)" fill="#009245"/>
          <g id="Group_1101899" data-name="Group 1101899" transform="translate(320.452 127.933)" opacity="0.5" style="mix-blend-mode: multiply;isolation: isolate">
            <g id="Group_1101898" data-name="Group 1101898">
              <g id="Group_1101897" data-name="Group 1101897" clip-path="url(#clip-path-24)">
                <path id="Path_885857" data-name="Path 885857" d="M1855.9,816.682h-1.175l-3.183-30.085c5.141,14.3,4.358,30.085,4.358,30.085" transform="translate(-1851.538 -786.598)" fill="#006837"/>
              </g>
            </g>
          </g>
          <path id="Path_885858" data-name="Path 885858" d="M1815.126,848.958h-3.064c-3.665-10.5-2.932-24.356-2.932-24.356,5.688,11.251,6,24.356,6,24.356" transform="translate(-1495.969 -690.488)" fill="#009245"/>
          <g id="Group_1101902" data-name="Group 1101902" transform="translate(313.162 134.114)" opacity="0.5" style="mix-blend-mode: multiply;isolation: isolate">
            <g id="Group_1101901" data-name="Group 1101901">
              <g id="Group_1101900" data-name="Group 1101900" clip-path="url(#clip-path-25)">
                <path id="Path_885859" data-name="Path 885859" d="M1815.411,848.958H1814.1l-4.69-24.356c5.688,11.251,6,24.356,6,24.356" transform="translate(-1809.416 -824.602)" fill="#006837"/>
              </g>
            </g>
          </g>
          <path id="Path_885860" data-name="Path 885860" d="M1879.565,871.163h-2.89s.281-11,5.41-20.043c0,0,.817,11.186-2.52,20.043" transform="translate(-1551.873 -712.693)" fill="#009245"/>
          <g id="Group_1101905" data-name="Group 1101905" transform="translate(326.374 138.427)" opacity="0.5" style="mix-blend-mode: multiply;isolation: isolate">
            <g id="Group_1101904" data-name="Group 1101904">
              <g id="Group_1101903" data-name="Group 1101903" clip-path="url(#clip-path-26)">
                <path id="Path_885861" data-name="Path 885861" d="M1887.077,871.163h-1.318l3.838-20.043s.817,11.186-2.52,20.043" transform="translate(-1885.759 -851.12)" fill="#006837"/>
              </g>
            </g>
          </g>
          <path id="Path_885862" data-name="Path 885862" d="M1838.767,861.039h-3.114c-3.187-9.614-1.772-22.009-1.772-22.009,5.152,10.038,4.886,22.009,4.886,22.009" transform="translate(-1516.227 -702.57)" fill="#009245"/>
          <g id="Group_1101908" data-name="Group 1101908" transform="translate(317.655 136.461)" opacity="0.5" style="mix-blend-mode: multiply;isolation: isolate">
            <g id="Group_1101907" data-name="Group 1101907">
              <g id="Group_1101906" data-name="Group 1101906" clip-path="url(#clip-path-27)">
                <path id="Path_885863" data-name="Path 885863" d="M1840.261,861.039H1838.3l-2.928-22.009c5.152,10.038,4.886,22.009,4.886,22.009" transform="translate(-1835.376 -839.03)" fill="#006837"/>
              </g>
            </g>
          </g>
          <path id="Path_885864" data-name="Path 885864" d="M1860.607,837.083h-3.6s-.274-14.195,6-26.662c0,0,1.464,15.317-2.4,26.662" transform="translate(-1535.608 -678.613)" fill="#009245"/>
          <g id="Group_1101911" data-name="Group 1101911" transform="translate(323.276 131.807)" opacity="0.5" style="mix-blend-mode: multiply;isolation: isolate">
            <g id="Group_1101910" data-name="Group 1101910">
              <g id="Group_1101909" data-name="Group 1101909" clip-path="url(#clip-path-28)">
                <path id="Path_885865" data-name="Path 885865" d="M1869.582,837.083h-1.723l4.127-26.662s1.464,15.317-2.4,26.662" transform="translate(-1867.859 -810.42)" fill="#006837"/>
              </g>
            </g>
          </g>
          <path id="Path_885866" data-name="Path 885866" d="M1818.025,997.552h-16.184l-2.312-15.266h20.808Z" transform="translate(-1488.079 -822.527)"/>
          <rect id="Rectangle_403618" data-name="Rectangle 403618" width="22.992" height="4.271" transform="translate(310.358 156.334)" fill="#333"/>
          <path id="Path_885867" data-name="Path 885867" d="M508.553,1767.967a3.773,3.773,0,0,1,3.322,3.279c.395,1.917-2.814,6.146-9.6,6.57-8.8.55-36.085.172-40.437-.156a1.981,1.981,0,0,1-1.48-1.391,4.8,4.8,0,0,1,.174-3.435,10.188,10.188,0,0,1,1.928-1.9l17.39,1.67a106.79,106.79,0,0,0,15.686-.85,40.909,40.909,0,0,0,13.016-3.787" transform="translate(-380.494 -1480.423)" fill="#231f20"/>
          <path id="Path_885868" data-name="Path 885868" d="M520.942,1698.232s2.5.807,2.41,2.492l-.086,1.685s-4.007,1.906-19.418,1.514-26.045-1.167-26.045-1.167-.993-5.706,1.742-6.378,41.4,1.854,41.4,1.854" transform="translate(-394.963 -1420.382)" fill="#231f20"/>
          <path id="Path_885869" data-name="Path 885869" d="M496.8,1083.771s-.945,22.8-1.6,31.513-5.195,60.751-6.219,64.281a25.316,25.316,0,0,0-.889,7.087s17.582,1.359,27.1,1.214,15,.1,15.1-1.881-2.611-2.7-6.8-3.483-12.8-3.95-12.8-3.95l-8.431-3.953s9.3-36.134,12.335-54.273,6.971-33.259,6.971-33.259l-19.293-3.049Z" transform="translate(-403.613 -907.505)" fill="#db9c94"/>
          <g id="Group_1101914" data-name="Group 1101914" transform="translate(84.474 176.261)" style="mix-blend-mode: multiply;isolation: isolate">
            <g id="Group_1101913" data-name="Group 1101913">
              <g id="Group_1101912" data-name="Group 1101912" clip-path="url(#clip-path-29)">
                <path id="Path_885870" data-name="Path 885870" d="M488.089,1186.631s17.584,1.356,27.1,1.209,15,.105,15.1-1.882-2.606-2.7-6.8-3.479-12.8-3.952-12.8-3.952l-8.434-3.952s9.306-36.139,12.338-54.271c1.98-11.868,4.351-22.432,5.761-28.329.738-3.122,1.208-4.93,1.208-4.93L502.283,1084l-5.492-.252s-.179,4.236-.425,9.744c-.336,7.295-.794,16.818-1.163,21.769-.66,8.714-5.2,60.757-6.219,64.289a25.218,25.218,0,0,0-.895,7.085" transform="translate(-488.083 -1083.744)" fill="#db9c94"/>
              </g>
            </g>
          </g>
          <g id="Group_1101917" data-name="Group 1101917" transform="translate(92.757 176.261)" style="mix-blend-mode: multiply;isolation: isolate">
            <g id="Group_1101916" data-name="Group 1101916">
              <g id="Group_1101915" data-name="Group 1101915" clip-path="url(#clip-path-30)">
                <path id="Path_885871" data-name="Path 885871" d="M535.943,1093.489c5.559-.221,15.414-.883,23.993-1.514.738-3.122,1.208-4.93,1.208-4.93L541.86,1084l-5.492-.252s-.179,4.236-.425,9.744" transform="translate(-535.943 -1083.745)" fill="#db9c94"/>
              </g>
            </g>
          </g>
          <path id="Path_885872" data-name="Path 885872" d="M648.588,1680.823s-2.081,1.711-3.417,6.143l-5.087.363s1.433-6.028,3.984-7.7Z" transform="translate(-529.303 -1406.451)" fill="#231f20"/>
          <path id="Path_885873" data-name="Path 885873" d="M575.381,1656.552s-4.3,4.392-4.07,9.857l-7.932-.355s2.416-9.434,5.366-11.686Z" transform="translate(-465.873 -1385.3)" fill="#231f20"/>
          <path id="Path_885874" data-name="Path 885874" d="M468.845,1186.943c4.687,2.06,22.707,2.334,35.425,1.587s12.64-4.73,12.483-7.127-6.656-2.155-9.463-2.281-17.864-3.448-18.311-5.844,7.181-24.839,10.593-36.611,5.861-20.929,10.224-34.762c2.606-8.283,5.381-17.607,7.181-23.756,1.208-4.131,1.98-6.822,1.98-6.822l-30.571-2.964s-.347,5.214-.783,11.857c-.727,11.121-1.712,26.279-1.79,27.761-.123,2.376-8.009,30.095-9.541,43.539s-2.383,19.225-5.47,24.65a16.635,16.635,0,0,0-1.957,10.774" transform="translate(-387.531 -894.603)" fill="#db9c94"/>
          <g id="Group_1101920" data-name="Group 1101920" transform="translate(100.073 173.76)" style="mix-blend-mode: multiply;isolation: isolate">
            <g id="Group_1101919" data-name="Group 1101919">
              <g id="Group_1101918" data-name="Group 1101918" clip-path="url(#clip-path-31)">
                <path id="Path_885875" data-name="Path 885875" d="M578.211,1080.219c9.765-.578,23.054-1.587,29.374-2.071,1.208-4.131,1.98-6.822,1.98-6.822l-30.571-2.964s-.347,5.214-.783,11.857" transform="translate(-578.211 -1068.362)" fill="#db9c94"/>
              </g>
            </g>
          </g>
          <path id="Path_885876" data-name="Path 885876" d="M633.805,1746.47c-1.65,1.127-6.076,4.6-6.768,9.8l-10.505.821s2.617-9.914,10.933-11.33l6.2.278a.237.237,0,0,1,.143.432" transform="translate(-509.827 -1461.828)" fill="#4d4d4d"/>
          <path id="Path_885877" data-name="Path 885877" d="M518.6,1716.4c-1.706,1.619-8.393,8.222-9.382,13.2l-11.494-.515s4.16-7,9.1-10.617a46.733,46.733,0,0,0,6.21-5.052l5.449,2.392a.359.359,0,0,1,.117.6" transform="translate(-411.578 -1434.743)" fill="#4d4d4d"/>
          <path id="Path_885878" data-name="Path 885878" d="M483.322,1733.1s-7.935-1.519-12.207-5.028c0,0-3.055,2.373-2.318,5.915a17.045,17.045,0,0,0,9.695,4.4c5.907.567,4.83-5.289,4.83-5.289" transform="translate(-387.567 -1447.013)" fill="#4d4d4d"/>
          <path id="Path_885879" data-name="Path 885879" d="M613.53,221.863h9.51l.405-1.143,1.064-3.064a3.362,3.362,0,0,0,.389.079c3.581.429,7.111-3.826,7.872-9.492a16.481,16.481,0,0,0,.152-2.206c0-4.413-1.875-8-4.679-8.73a7.174,7.174,0,0,0-6.166,0,12.854,12.854,0,0,0-6.807,10.127s-.321,9.953-1.74,14.429" transform="translate(-507.344 -164.638)" fill="#db9c94"/>
          <path id="Path_885880" data-name="Path 885880" d="M611.505,164.37s3.443-4.88,10.748-2.978,9.418,6.451,8.8,9.512-3.7.827-3.941,2.233-3.8,4.429-3.8,4.429h-1.061s-.332-1.689-1.377-1.781l-.071-.005a1.235,1.235,0,0,0-.479.087c-.905.353-1.136,1.107-1.437,2.052a7.979,7.979,0,0,0-.1,1.228s.158,1.885,1.531,2.282c0,0-1.84-.153-2.334-1.46-1.2,1.779-5.869,2.419-7.591,1.026-1.739-1.406-3.013-4.549-2.915-9.842s4.028-6.782,4.028-6.782" transform="translate(-502.335 -134.775)" fill="#231f20"/>
          <g id="Group_1101923" data-name="Group 1101923" transform="translate(109.733 47.733)" style="mix-blend-mode: multiply;isolation: isolate">
            <g id="Group_1101922" data-name="Group 1101922">
              <g id="Group_1101921" data-name="Group 1101921" clip-path="url(#clip-path-32)">
                <path id="Path_885881" data-name="Path 885881" d="M634.025,293.486c0,.3.1,5.238,6.368,8.349l1.064-3.064c-1.875-.476-6.013-2.333-7.432-5.286" transform="translate(-634.025 -293.487)" fill="#db9c94"/>
              </g>
            </g>
          </g>
          <path id="Path_885882" data-name="Path 885882" d="M678.474,347.092a75.572,75.572,0,0,1,16.108,22.132v1.669l-1.514,1.984H691.1s-1.548-8.73-7.39-14.948-7.812-7.54-7.812-7.54Z" transform="translate(-558.916 -290.641)" fill="#ffb937"/>
          <path id="Path_885883" data-name="Path 885883" d="M479.632,856.726a44.68,44.68,0,0,0,1.633,8.661,92.721,92.721,0,0,1,3.3,21.16h12.092v-41.8H479.811a55.511,55.511,0,0,0-.179,11.983" transform="translate(-396.428 -707.353)" fill="#20556d"/>
          <path id="Path_885884" data-name="Path 885884" d="M494.515,867.557a27.885,27.885,0,0,0,1.946,9.229,62.622,62.622,0,0,0,5.38,10.879l2.383,17.985.425,3.174h37.159c1.868-10.7.984-27.13.391-35.067-.213-2.859-.391-4.615-.391-4.615l-32.651-1.093Z" transform="translate(-408.928 -726.457)" fill="#397799"/>
          <g id="Group_1101926" data-name="Group 1101926" transform="translate(82.971 137.389)" opacity="0.5" style="mix-blend-mode: multiply;isolation: isolate">
            <g id="Group_1101925" data-name="Group 1101925">
              <g id="Group_1101924" data-name="Group 1101924" clip-path="url(#clip-path-33)">
                <path id="Path_885885" data-name="Path 885885" d="M479.632,856.726a41.591,41.591,0,0,0,4.329.957,75.182,75.182,0,0,0,12.7.967c13.02-.032,26.477-2.565,33.043-3.994-.213-2.859-.392-4.615-.392-4.615l-32.651-1.093v-4.2H479.811a55.511,55.511,0,0,0-.179,11.983" transform="translate(-479.399 -844.743)" fill="#397799"/>
              </g>
            </g>
          </g>
          <path id="Path_885886" data-name="Path 885886" d="M475.656,412.722c19.425,9.524,52.364,2.381,52.364,2.381s-5.067-25.794-5.49-32.937.422-21.429,0-36.509-16.047-21.826-16.047-21.826-8.023-2.183-13.3-.992-12.668,3.175-15.414,9.326-3.167,55.358-3.167,55.358Z" transform="translate(-392.46 -270.035)" fill="#333"/>
          <path id="Path_885887" data-name="Path 885887" d="M489.216,325.367l5.011,10.68,2.808,5.971a32.393,32.393,0,0,1,3.132-10.953,15.8,15.8,0,0,1,5.212-6.1c7.383-4.867,16.89-1.188,16.89-1.188l3.177-.221-.2-.158a34.177,34.177,0,0,0-8.568-4.846c-4.44-1.524-13.8-.5-18.009.862a11.659,11.659,0,0,0-1.4.547,39.493,39.493,0,0,0-8.054,5.4" transform="translate(-404.546 -266.109)" fill="#432e07"/>
          <path id="Path_885888" data-name="Path 885888" d="M518.169,351.941l2.808,5.971a32.391,32.391,0,0,1,3.132-10.953,15.8,15.8,0,0,1,5.212-6.1c7.383-4.867,16.89-1.188,16.89-1.188l3.177-.221-.2-.158c-1.018-.7-6.118-3.7-17.013-2.008a14.622,14.622,0,0,0-8.814,5.224,30.943,30.943,0,0,0-5.19,9.429" transform="translate(-428.488 -282.003)" fill="#ffb937"/>
          <g id="Group_1101929" data-name="Group 1101929" transform="translate(84.67 53.855)" opacity="0.5" style="mix-blend-mode: multiply;isolation: isolate">
            <g id="Group_1101928" data-name="Group 1101928">
              <g id="Group_1101927" data-name="Group 1101927" clip-path="url(#clip-path-34)">
                <path id="Path_885889" data-name="Path 885889" d="M489.216,336.53l5.011,10.68,2.808,5.971a32.393,32.393,0,0,1,3.132-10.953,42.6,42.6,0,0,0-.749-4.446,35.05,35.05,0,0,0-2.148-6.654,39.491,39.491,0,0,0-8.054,5.4" transform="translate(-489.216 -331.128)" fill="#a53d13"/>
              </g>
            </g>
          </g>
          <path id="Path_885890" data-name="Path 885890" d="M636.56,539.994c3.446-2.159,10.152-6.492,12.922-9.286a27.316,27.316,0,0,0,3.6-4.453c.17-.263,5.547-8.712,4.354-22.005l2.845-1.68s3.142,17.9-5.081,28.786a6.637,6.637,0,0,1-.6.813c-.327.378-.77.84-1.3,1.361l-.01.01h0C649.8,537,642.482,543.192,638.418,546.6c-1.74,1.428-2.872,2.365-2.872,2.365l-1.132-7.667s.845-.508,2.145-1.3" transform="translate(-524.615 -420.831)" fill="#ffb937"/>
          <g id="Group_1101932" data-name="Group 1101932" transform="translate(109.8 119.162)" opacity="0.5" style="mix-blend-mode: multiply;isolation: isolate">
            <g id="Group_1101931" data-name="Group 1101931">
              <g id="Group_1101930" data-name="Group 1101930" clip-path="url(#clip-path-35)">
                <path id="Path_885891" data-name="Path 885891" d="M634.416,733.977l1.132,7.667s1.132-.937,2.872-2.365a13.757,13.757,0,0,0-1.858-6.6c-1.3.794-2.145,1.3-2.145,1.3" transform="translate(-634.416 -732.674)" fill="#009245"/>
              </g>
            </g>
          </g>
          <path id="Path_885892" data-name="Path 885892" d="M574.877,725.52c1.132-.222,4.73-2.7,7.652-5.1,2.2-1.809,4.02-3.571,4.155-4.3.287-1.714.557-7.81-1.132-11.238-.811-1.635-3.125-2.841-5.321-3.635a31.033,31.033,0,0,0-4.662-1.27s-2.686,25.937-.692,25.54" transform="translate(-474.773 -586.135)" fill="#432e07"/>
          <g id="Group_1101935" data-name="Group 1101935" transform="translate(99.368 113.845)" opacity="0.5" style="mix-blend-mode: multiply;isolation: isolate">
            <g id="Group_1101934" data-name="Group 1101934">
              <g id="Group_1101933" data-name="Group 1101933" clip-path="url(#clip-path-36)">
                <path id="Path_885893" data-name="Path 885893" d="M574.877,725.52c1.132-.222,4.73-2.7,7.652-5.1a36.4,36.4,0,0,0,.49-10.127,23.581,23.581,0,0,0-2.787-9.048,31.033,31.033,0,0,0-4.662-1.27s-2.686,25.937-.692,25.54" transform="translate(-574.141 -699.98)" fill="#a53d13"/>
              </g>
            </g>
          </g>
          <path id="Path_885894" data-name="Path 885894" d="M605.332,519.058c6.351-4.3,15.422-2.365,18.75-1.445l.22-2.064c-8.311-5.159-17.99-1.19-17.99-1.19A35.609,35.609,0,0,0,605.332,519.058Z" transform="translate(-500.565 -429.483)" fill="none" stroke="#231f20" stroke-miterlimit="10" stroke-width="0.25"/>
          <path id="Path_885895" data-name="Path 885895" d="M619.715,518.039l.37,2.728s-.211,1.042-2.428,1.389-14.3-.333-14.3-.333-4.223-.212-4.381-2.246a4.736,4.736,0,0,1,1.089-3.373Z" transform="translate(-495.293 -432.248)" fill="#231f20"/>
          <path id="Path_885896" data-name="Path 885896" d="M615.661,512.869c6.913.116,21.354-10.354,24.251-12.992,3.49-3.174,7-7.736,5.459-10.785-1.555-3.027-1.421-1.44-2.114-3.027s-3.233-1.734-3.233-1.734,0-1.44-2.673-1.987a5.536,5.536,0,0,0-2.293.063,3.38,3.38,0,0,0-.85,1.125c-1.152,2.449-2.528,1.219-3.937,3.3a5.668,5.668,0,0,0-.693,2.407,4.856,4.856,0,0,0,1.253,2.943,1.528,1.528,0,0,1-.872,2.449,12.448,12.448,0,0,1-2.316.41c-1.924.126-5.067,0-5.067,0l.324-3.017.011-.074.213-2.071c-8.311-5.151-17.987-1.188-17.987-1.188a34.878,34.878,0,0,0-.973,4.7c-.022.2-.056.4-.067.589-1.4,12.246,5.5,18.816,11.566,18.889" transform="translate(-499.391 -403.819)" fill="#db9c94"/>
          <g id="Group_1101938" data-name="Group 1101938" transform="translate(104.704 83.418)" style="mix-blend-mode: multiply;isolation: isolate">
            <g id="Group_1101937" data-name="Group 1101937">
              <g id="Group_1101936" data-name="Group 1101936" clip-path="url(#clip-path-37)">
                <path id="Path_885897" data-name="Path 885897" d="M604.968,519.643c5.481-4.373,15.3-2.723,18.8-1.955l.011-.073.213-2.071c-8.311-5.151-17.987-1.188-17.987-1.188a34.9,34.9,0,0,0-.973,4.7c-.022.2-.056.4-.067.589" transform="translate(-604.968 -512.9)" fill="#db9c94"/>
              </g>
            </g>
          </g>
          <path id="Path_885898" data-name="Path 885898" d="M620.15,379.16s3.238-14.828,2.464-22.891-14.076-14.412-19.566-2.9c0,0-2.956,9.127-4.012,24.6,0,0,10.979-6.548,21.114,1.191" transform="translate(-495.359 -290.641)" fill="#4d4d4d"/>
          <path id="Path_885899" data-name="Path 885899" d="M233.086,439.667c0,2.786,1.23,6.486,2.371,9.282h.011c.962,2.376,1.846,4.11,1.846,4.11s1.242,17.764,1.242,22.116c0,4.373,5.716,8.346,9.519,9.524,2.819.9,18.188.452,25.873.168.7-.021,1.354-.042,1.913-.063,1.543-.063,2.483-.1,2.483-.1a16.857,16.857,0,0,0,8.165-3.458c5.3-4.131,8.244-11.153,9.665-17.481a41.965,41.965,0,0,0,1.1-10.7c-.436-8.031-8.031-16.776-8.658-20.54a157.426,157.426,0,0,1-1.063-18.258,53.7,53.7,0,0,0-.548-6.9q-.067-.5-.134-.977v-.01c-.078-.547-.145-1.051-.224-1.514-.235-1.514-.436-2.5-.436-2.5l-.145-.526-.638-2.218-1.074-3.732-20.235,12.425-2.461.61-23.3,5.739L240.6,418.8l3.244,5.992a76.536,76.536,0,0,0-6.521,6.633c-2.282,2.712-4.239,5.739-4.239,8.241" transform="translate(-192.745 -331.499)" fill="#7a4f00"/>
          <g id="Group_1101941" data-name="Group 1101941" transform="translate(78.708 121.706)" opacity="0.5" style="mix-blend-mode: multiply;isolation: isolate">
            <g id="Group_1101940" data-name="Group 1101940">
              <g id="Group_1101939" data-name="Group 1101939" clip-path="url(#clip-path-38)">
                <path id="Path_885900" data-name="Path 885900" d="M454.767,751.079c3.479,15.231,10.425,22.211,15.056,25.27,5.3-4.131,8.244-11.153,9.665-17.481l-9.307-10.554Z" transform="translate(-454.767 -748.313)" fill="#009245"/>
              </g>
            </g>
          </g>
          <g id="Group_1101944" data-name="Group 1101944" transform="translate(69.144 73.364)" opacity="0.5" style="mix-blend-mode: multiply;isolation: isolate">
            <g id="Group_1101943" data-name="Group 1101943">
              <g id="Group_1101942" data-name="Group 1101942" clip-path="url(#clip-path-39)">
                <path id="Path_885901" data-name="Path 885901" d="M399.509,463.822s.436,4,3.792,3.154c2.707-.673,16.163-9.839,21.32-13.392q-.067-.5-.134-.977v-.01c-.078-.547-.145-1.051-.224-1.514Z" transform="translate(-399.509 -451.082)" fill="#009245"/>
              </g>
            </g>
          </g>
          <path id="Path_885902" data-name="Path 885902" d="M233.086,506.774c0,2.786,1.23,6.485,2.371,9.282h.011c.962,2.376,1.846,4.11,1.846,4.11s1.242,17.764,1.242,22.116c0,4.373,5.716,8.346,9.519,9.523,2.819.9,18.188.452,25.873.168.7-.021,1.354-.042,1.913-.063.6-3.427,1.353-10.522-.973-17.344-3.233-9.461-6.7-24.439-7.953-29.306s-1.253-11.563-1.253-17.4c0-3.721-2.338-8.714-4.027-11.836l-23.3,5.739,2.248,4.142,3.244,5.992a76.522,76.522,0,0,0-6.521,6.633c-2.282,2.712-4.239,5.739-4.239,8.241" transform="translate(-192.745 -398.607)" fill="#6a4d23"/>
          <path id="Path_885903" data-name="Path 885903" d="M411.6,444.894l1.216,3.968s15.135-7.667,21.672-11.842V437c-.321-2.333-.659-4.016-.659-4.016l-.152-.524c-4.713,2.841-18.581,11.111-22.077,12.429" transform="translate(-340.363 -362.129)" fill="#ffb937"/>
          <path id="Path_885904" data-name="Path 885904" d="M445.009,646.326s.307,1.476.951,3.778c1.843,6.492,6.51,19.493,15.068,23.667,11.572,5.651,14.863-18.953,13.035-26.493a65.249,65.249,0,0,0-5.106-12.969c-1.068-2.1-1.843-3.428-1.843-3.428s-11.791,12.635-22.1,15.445" transform="translate(-367.99 -528.274)" fill="#6a4d23"/>
          <path id="Path_885905" data-name="Path 885905" d="M445.009,646.326s.307,1.476.951,3.778a43.912,43.912,0,0,0,23-15.794c-1.068-2.1-1.843-3.428-1.843-3.428s-11.791,12.635-22.1,15.445" transform="translate(-367.99 -528.274)" fill="#ffb937"/>
          <path id="Path_885906" data-name="Path 885906" d="M233.086,577.832a11.5,11.5,0,0,0,.1,1.482,32.906,32.906,0,0,0,2.271,7.8h.011c.962,2.376,1.846,4.11,1.846,4.11a1.39,1.39,0,0,0,.011.147c.123,1.714,1.23,17.849,1.23,21.969,0,4.373,5.716,8.346,9.519,9.523,1.857.589,9.116.6,16.063.463,3.635-.084,7.17-.2,9.81-.294,3.222-6.034-.761-20.508-2.651-25.638-2.248-6.075-4.016-10.27-5.492-16.387s-1.823-20.119-1.823-20.119l-4.642,1.734-5.761,2.208-8.747,3.343-7.505,1.419c-2.282,2.712-4.239,5.739-4.239,8.241" transform="translate(-192.745 -469.664)" fill="#6a4d23"/>
          <g id="Group_1101947" data-name="Group 1101947" transform="translate(40.442 107.18)" opacity="0.5" style="mix-blend-mode: multiply;isolation: isolate">
            <g id="Group_1101946" data-name="Group 1101946">
              <g id="Group_1101945" data-name="Group 1101945" clip-path="url(#clip-path-40)">
                <path id="Path_885907" data-name="Path 885907" d="M233.668,661.465a32.915,32.915,0,0,0,2.271,7.8h.011c.962,2.375,1.846,4.11,1.846,4.11a1.409,1.409,0,0,0,.011.147c4.273-.126,9.9-.4,13.859-.957,7.17-1.019,8.479-6.906,8.479-6.906L258.9,659Z" transform="translate(-233.668 -658.996)" fill="#a53d13"/>
              </g>
            </g>
          </g>
          <path id="Path_885908" data-name="Path 885908" d="M351.947,570.589s-.973,5.907,4.385,14.779a50.211,50.211,0,0,1,6.767,25.4,124.549,124.549,0,0,1-1.051,12.561c3.635-.084,7.17-.2,9.81-.294,3.222-6.033-.761-20.508-2.651-25.637-2.248-6.076-4.016-10.27-5.492-16.388s-1.823-20.119-1.823-20.119l-4.642,1.734-5.761,2.208Z" transform="translate(-290.655 -469.664)" fill="#986e30" stroke="#986e30" stroke-width="1"/>
          <path id="Path_885909" data-name="Path 885909" d="M332.192,711.4s5.384,13.691,5.384,17.659-.921,5.06-.921,5.06l-3.368-.6a5.343,5.343,0,0,0,1.122-5.159c-.95-3.075-5.6-16.27-5.6-16.27Z" transform="translate(-271.905 -595.697)" fill="#ffe7ba"/>
          <path id="Path_885910" data-name="Path 885910" d="M225.8,711.4s2.323,7.838,2.323,11.806-7.17,9.028-7.17,9.028l-2.542-1.885s7.346-4.479,7.138-7.589-2.434-10.127-2.434-10.127Z" transform="translate(-180.606 -595.697)" fill="#ffe7ba"/>
          <path id="Path_885911" data-name="Path 885911" d="M233.1,577.84c0,2.794,1.233,6.492,2.365,9.286h.017c23.682,2.286,22.026-2.667,22.026-2.667s-3.513-5.7-1.689-10.064c1.841-4.365,8.175-13.492,8.175-13.492l-20.134,2.064c-2.314,2.175-10.76,9.715-10.76,14.873" transform="translate(-192.753 -469.677)" fill="#ffb937"/>
          <g id="Group_1101950" data-name="Group 1101950" transform="translate(45.609 64.388)" opacity="0.5" style="mix-blend-mode: multiply;isolation: isolate">
            <g id="Group_1101949" data-name="Group 1101949">
              <g id="Group_1101948" data-name="Group 1101948" clip-path="url(#clip-path-41)">
                <path id="Path_885912" data-name="Path 885912" d="M263.527,414.66l2.248,4.141c6.163-1.345,15.738-3.563,21.3-5.561,7.1-2.554,19.34-10.753,23.524-13.623l-1.074-3.732-20.235,12.425Z" transform="translate(-263.527 -395.887)" fill="#009245"/>
              </g>
            </g>
          </g>
          <path id="Path_885913" data-name="Path 885913" d="M208.207,286.689c0,12.429,10.135,19.3,10.135,19.3l23.5-6.349c6.892-1.841,23.8-12.953,23.8-12.953,0-18.254-19.7-26.191-34.628-23.556-6.909,1.222-12.331,3.714-16.131,7.286-4.409,4.08-6.672,9.6-6.672,16.27" transform="translate(-172.172 -219.924)" fill="#986e30"/>
          <path id="Path_885914" data-name="Path 885914" d="M246.759,270.418c28.006-8.032,26.959,29.223,26.959,29.223,6.892-1.841,23.8-12.953,23.8-12.953,0-18.254-19.7-26.191-34.628-23.556-6.908,1.222-12.331,3.714-16.131,7.286" transform="translate(-204.052 -219.924)" fill="#6a4d23"/>
        </g>
      </g>
    </g>
  </g>
</svg>
