<svg id="Group_1102924" data-name="Group 1102924" xmlns="http://www.w3.org/2000/svg" xmlns:xlink="http://www.w3.org/1999/xlink" width="1240" height="430" viewBox="0 0 1240 430">
  <defs>
    <clipPath id="clip-path">
      <rect id="Rectangle_377901" data-name="Rectangle 377901" width="1240" height="430" rx="20" fill="#feebcf"/>
    </clipPath>
    <clipPath id="clip-path-2">
      <rect id="Rectangle_377901-2" data-name="Rectangle 377901" width="1270.715" height="501.719" rx="20" transform="translate(1270.715 501.719) rotate(180)" fill="#ffe9df"/>
    </clipPath>
  </defs>
  <g id="Group_154360" data-name="Group 154360" clip-path="url(#clip-path)">
    <rect id="Rectangle_378306" data-name="Rectangle 378306" width="1305.641" height="485.232" transform="translate(-30.01 -95.829)" fill="none"/>
    <g id="Group_1099343" data-name="Group 1099343" transform="translate(1319.085 451.785) rotate(180)" style="isolation: isolate">
      <g id="Group_1099437" data-name="Group 1099437">
        <rect id="Rectangle_378306-2" data-name="Rectangle 378306" width="1305.641" height="485.232" transform="translate(1349.095 522.218) rotate(180)" fill="none"/>
        <g id="Group_1098873" data-name="Group 1098873" transform="translate(62.964)" style="isolation: isolate">
          <g id="Group_1073825" data-name="Group 1073825" clip-path="url(#clip-path-2)">
            <rect id="_2149647046saaaa" data-name="2149647046saaaa" width="1293.245" height="509.461" transform="translate(-10.965 0)" fill="#feddce"/>
            <rect id="Rectangle_378306-3" data-name="Rectangle 378306" width="1337.623" height="530.15" transform="translate(1340.212 526.534) rotate(180)" fill="none"/>
          </g>
        </g>
        <g id="Group_1099338" data-name="Group 1099338" transform="translate(1360.985 556.276) rotate(180)">
          <path id="Path_873421" data-name="Path 873421" d="M301.729,0c0,21.415-30.79,47.632-51.908,47.632s-38.98-4.2-63.023-4.2S127.9,52.157,127.9,94.8c0,11.306,5.323,24.55,5.323,44.9s-14.6,40.7-52.374,37.957-46.192,17.928-46.192,36.664S60.931,283.282,0,329.585V0Z" transform="translate(21.138 21.157)" fill="#fecab2"/>
          <path id="Path_873420" data-name="Path 873420" d="M0,336.8l4.04-3.067C54.684,295.248,46.494,254.318,41.6,229.86c-1.065-5.319-1.985-9.912-1.985-13.209,0-22.945,12.5-34.577,37.159-34.577,2.043,0,4.181.083,6.361.237,2.344.172,4.662.259,6.88.259,15.708,0,28.484-4.374,36.937-12.656,7.243-7.086,11.229-16.987,11.229-27.883,0-11.859-1.741-21.149-3.28-29.366-1.1-5.854-2.043-10.911-2.043-15.533,0-44.253,39.453-49.029,56.418-49.029a309.327,309.327,0,0,1,33.363,2.191A278.207,278.207,0,0,0,252.3,52.3c10.6,0,24.238-6.3,35.582-16.427,11.775-10.515,18.808-23.053,18.808-33.54V0H0ZM306.108,2.334c0,10.339-6.964,22.73-18.625,33.145C276.238,45.517,262.756,51.755,252.3,51.755a279.211,279.211,0,0,1-29.644-2.008,309.215,309.215,0,0,0-33.375-2.191c-17.14,0-57,4.83-57,49.575,0,4.669.951,9.747,2.054,15.648,1.535,8.174,3.268,17.44,3.268,29.251,0,10.753-3.929,20.521-11.065,27.506-8.347,8.17-20.973,12.487-36.521,12.487-2.2,0-4.505-.086-6.835-.255-2.2-.158-4.349-.241-6.407-.241-25.04,0-37.735,11.816-37.735,35.123,0,3.347.92,7.966,1.993,13.317C45.9,254.3,54.05,295.029,3.673,333.309L.58,335.661V.546H306.108Z" transform="translate(8.129 4.608)" fill="#fff"/>
          <path id="Path_873419" data-name="Path 873419" d="M0,336.8l4.04-3.067c50.648-38.488,42.454-79.415,37.56-103.869-1.061-5.319-1.982-9.916-1.982-13.213,0-22.945,12.5-34.577,37.159-34.577,2.031,0,4.169.079,6.361.237,2.348.172,4.666.259,6.88.259,15.708,0,28.48-4.374,36.937-12.656,7.243-7.086,11.229-16.991,11.229-27.883,0-11.877-1.745-21.164-3.284-29.37-1.1-5.854-2.043-10.911-2.043-15.529,0-44.253,39.457-49.033,56.421-49.033a309.068,309.068,0,0,1,33.31,2.191A279.073,279.073,0,0,0,252.3,52.3c10.6,0,24.234-6.3,35.582-16.427,11.775-10.519,18.808-23.056,18.808-33.54V0H0ZM306.108,2.334c0,10.336-6.964,22.726-18.625,33.145C276.239,45.517,262.757,51.755,252.3,51.755a278.465,278.465,0,0,1-29.656-2.011,310.56,310.56,0,0,0-33.363-2.187c-17.14,0-57,4.83-57,49.575,0,4.665.951,9.743,2.054,15.637,1.535,8.17,3.272,17.436,3.272,29.262,0,10.753-3.929,20.521-11.065,27.506-8.347,8.17-20.973,12.487-36.521,12.487-2.2,0-4.5-.086-6.835-.255-2.207-.158-4.36-.241-6.407-.241-25.04,0-37.739,11.816-37.739,35.123,0,3.351.924,7.969,1.993,13.313C45.9,254.3,54.054,295.025,3.673,333.309L.58,335.661.577.546H306.108Z" transform="translate(0 0)" fill="#fff"/>
        </g>
        <g id="Group_1099307" data-name="Group 1099307" transform="translate(689.086 499.385) rotate(180)">
          <g id="Group_1099344" data-name="Group 1099344" transform="translate(0 0)">
            <path id="Path_873389" data-name="Path 873389" d="M636.706,0c-41.369,0-65.4,61.632-65.4,97.73s8.117,66.618,8.117,107.706S562.577,306.105,480.2,306.105c-21.842,0-47.427-9.1-86.742-9.1s-78.631,24.947-73.325,89.513S285.5,465.463,249.3,465.463,89.446,376.736,0,480.873H636.706Z" fill="#efb499"/>
            <path id="Path_873391" data-name="Path 873391" d="M576.43,102.133c0,17.7,1.879,33.757,3.887,50.794,2.074,17.654,4.22,35.915,4.22,56.917,0,28.94-9.208,96.261-94.537,96.261-8.921,0-18.687-1.623-30.01-3.5-15.845-2.625-33.805-5.6-56.732-5.6-22.712,0-42.895,7.8-56.825,21.955-16.367,16.628-23.685,41.628-21.171,72.3,2.1,25.568-2.98,44.788-15.123,57.124-11.154,11.329-28.325,17.076-51.033,17.076-7.728,0-21.463-5.087-37.379-10.987-27.629-10.236-65.454-24.248-104.81-24.248-43.694,0-80.961,17.587-110.756,52.278L0,489.678H651.183V0H646.5C600.494,0,576.43,66.493,576.43,102.133m73.356,386.225H2.94l4.312-5.019c29.513-34.369,66.411-51.791,109.665-51.791,39.09,0,76.777,13.964,104.313,24.166,16.034,5.939,29.882,11.069,37.876,11.069,23.112,0,40.631-5.886,52.062-17.5,12.419-12.616,17.632-32.172,15.5-58.126-2.489-30.294,4.7-54.947,20.792-71.3,13.663-13.887,33.487-21.532,55.8-21.532,22.8,0,40.7,2.962,56.5,5.583,11.369,1.883,21.191,3.516,30.24,3.516,86.594,0,95.945-68.241,95.945-97.581,0-21.074-2.156-39.369-4.241-57.095-1.987-16.965-3.876-32.991-3.876-50.616C577.828,66.95,601.421,1.32,646.5,1.32h3.282Z" transform="translate(37.903 9.706)" fill="#fff"/>
          </g>
        </g>
      </g>
    </g>
  </g>
</svg>
