<svg xmlns="http://www.w3.org/2000/svg" xmlns:xlink="http://www.w3.org/1999/xlink" width="121" height="121" viewBox="0 0 121 121">
  <defs>
    <clipPath id="clip-path">
      <rect id="Rectangle_400938" data-name="Rectangle 400938" width="121" height="121" transform="translate(0 0)" fill="none"/>
    </clipPath>
    <clipPath id="clip-path-2">
      <rect id="Rectangle_401073" data-name="Rectangle 401073" width="92.219" height="41.532" fill="#efb499"/>
    </clipPath>
  </defs>
  <g id="Group_1104219" data-name="Group 1104219" transform="translate(-744.496 -2688.87)">
    <g id="Group_1104199" data-name="Group 1104199">
      <g id="Group_1103069" data-name="Group 1103069" transform="translate(356.828 -3324.13)">
        <rect id="Rectangle_401103" data-name="Rectangle 401103" width="121" height="121" transform="translate(387.668 6013)" fill="none"/>
        <g id="Group_1099348" data-name="Group 1099348" transform="translate(387.668 6013)">
          <g id="Group_1099282" data-name="Group 1099282">
            <g id="Group_1099281" data-name="Group 1099281" clip-path="url(#clip-path-2)">
              <path id="Path_873375" data-name="Path 873375" d="M74.8,9.1c-4.139,0-6.28-2.03-8.17-3.821-1.855-1.756-3.452-3.274-6.792-3.274s-4.937,1.517-6.792,3.274C51.161,7.072,49.023,9.1,44.881,9.1s-6.28-2.03-8.169-3.821C34.857,3.525,33.26,2.007,29.92,2.007s-4.937,1.517-6.789,3.274C21.241,7.072,19.1,9.1,14.962,9.1S8.679,7.072,6.789,5.281C4.937,3.525,3.34,2.007,0,2.007V0C4.139,0,6.28,2.033,8.17,3.821c1.855,1.759,3.452,3.274,6.792,3.274S19.9,5.58,21.75,3.824C23.637,2.033,25.781,0,29.92,0s6.283,2.033,8.17,3.821c1.855,1.759,3.452,3.274,6.792,3.274s4.937-1.514,6.792-3.274C53.56,2.033,55.7,0,59.843,0s6.283,2.033,8.17,3.821C69.867,5.58,71.464,7.094,74.8,7.094S79.742,5.58,81.6,3.821C83.483,2.033,85.624,0,89.766,0V2.007c-3.34,0-4.937,1.517-6.792,3.274C81.084,7.072,78.943,9.1,74.8,9.1" transform="translate(2.453 32.43)" fill="#efb499"/>
              <path id="Path_873376" data-name="Path 873376" d="M74.8,9.1c-4.139,0-6.283-2.03-8.17-3.824-1.855-1.756-3.452-3.27-6.792-3.27s-4.937,1.514-6.792,3.27C51.164,7.072,49.023,9.1,44.881,9.1s-6.283-2.03-8.17-3.824c-1.855-1.756-3.452-3.27-6.792-3.27s-4.937,1.517-6.789,3.27C21.241,7.072,19.1,9.1,14.962,9.1S8.679,7.072,6.789,5.278C4.937,3.522,3.34,2.007,0,2.007V0C4.139,0,6.283,2.03,8.17,3.821c1.855,1.759,3.452,3.274,6.792,3.274S19.9,5.58,21.75,3.821C23.637,2.03,25.781,0,29.92,0S36.2,2.03,38.093,3.821c1.852,1.759,3.449,3.274,6.789,3.274s4.937-1.514,6.792-3.274C53.56,2.03,55.7,0,59.843,0s6.283,2.03,8.17,3.821C69.867,5.58,71.464,7.094,74.8,7.094S79.742,5.58,81.6,3.821C83.486,2.03,85.627,0,89.769,0V2.007c-3.34,0-4.94,1.517-6.8,3.27C81.084,7.072,78.943,9.1,74.8,9.1" transform="translate(1.635 21.62)" fill="#efb499"/>
              <path id="Path_873377" data-name="Path 873377" d="M74.8,9.1c-4.139,0-6.283-2.03-8.169-3.824-1.855-1.756-3.452-3.27-6.792-3.27s-4.937,1.514-6.792,3.27C51.164,7.072,49.02,9.1,44.881,9.1s-6.283-2.03-8.17-3.824c-1.855-1.756-3.452-3.27-6.792-3.27s-4.937,1.517-6.789,3.27C21.241,7.072,19.1,9.1,14.962,9.1S8.678,7.072,6.789,5.278C4.937,3.522,3.34,2.007,0,2.007V0C4.139,0,6.283,2.03,8.169,3.821c1.851,1.759,3.452,3.274,6.792,3.274S19.9,5.58,21.75,3.821C23.637,2.03,25.781,0,29.92,0S36.2,2.03,38.093,3.821c1.852,1.759,3.449,3.274,6.789,3.274s4.937-1.514,6.792-3.274C53.56,2.03,55.7,0,59.843,0s6.283,2.03,8.17,3.821C69.867,5.58,71.464,7.094,74.8,7.094S79.742,5.58,81.6,3.821C83.486,2.03,85.624,0,89.769,0V2.007c-3.34,0-4.941,1.517-6.8,3.27C81.084,7.072,78.943,9.1,74.8,9.1" transform="translate(0.818 10.81)" fill="#efb499"/>
              <path id="Path_873378" data-name="Path 873378" d="M74.8,9.1c-4.139,0-6.28-2.03-8.17-3.821-1.855-1.756-3.452-3.27-6.792-3.27s-4.937,1.514-6.789,3.27C51.164,7.069,49.023,9.1,44.881,9.1s-6.28-2.03-8.169-3.821c-1.855-1.756-3.452-3.27-6.792-3.27s-4.937,1.514-6.789,3.267C21.245,7.069,19.1,9.1,14.962,9.1S8.678,7.069,6.789,5.278C4.937,3.522,3.34,2.007,0,2.007V0C4.139,0,6.283,2.03,8.17,3.821c1.855,1.756,3.452,3.27,6.792,3.27S19.9,5.577,21.75,3.821C23.64,2.03,25.781,0,29.92,0s6.28,2.03,8.173,3.821c1.852,1.756,3.449,3.27,6.789,3.27s4.937-1.514,6.792-3.27C53.563,2.03,55.7,0,59.843,0s6.28,2.03,8.17,3.821c1.855,1.756,3.452,3.27,6.792,3.27s4.937-1.514,6.792-3.27C83.486,2.03,85.627,0,89.769,0V2.007c-3.344,0-4.941,1.514-6.8,3.27C81.084,7.069,78.943,9.1,74.8,9.1" transform="translate(0 0.003)" fill="#efb499"/>
            </g>
          </g>
        </g>
        <circle id="Ellipse_11504" data-name="Ellipse 11504" cx="50.5" cy="50.5" r="50.5" transform="translate(402.668 6031)" fill="#ffce73"/>
        <circle id="Ellipse_11503" data-name="Ellipse 11503" cx="52.5" cy="52.5" r="52.5" transform="translate(395.668 6021)" fill="#f3f9ff"/>
      </g>
      <g id="Group_1103072" data-name="Group 1103072" transform="translate(770.438 2714.674)">
        <rect id="Rectangle_401104" data-name="Rectangle 401104" width="68" height="69" transform="translate(0.187 -0.673)" fill="none"/>
        <g id="Group_1103100" data-name="Group 1103100" transform="translate(-151.923 -563.243)">
          <g id="Group_1103098" data-name="Group 1103098" transform="translate(176.308 562.57)">
            <g id="Group_1103097" data-name="Group 1103097">
              <g id="Group_1103095" data-name="Group 1103095" transform="translate(0.253 2.831)">
                <path id="Path_893428" data-name="Path 893428" d="M219.278,583.339a11.775,11.775,0,0,1-19.761,3.966.859.859,0,0,0-.913-.29c-1.273.253-2.548.5-3.83.689-.366.054-1.244.282-1.385.1-.261-.29.07-.661.476-1.442.036-.064.08-.13.121-.2.8-1.325,1.619-2.644,2.395-3.983a1.433,1.433,0,0,0,.175-.858,12.3,12.3,0,0,1,.358-5.4,11.875,11.875,0,0,1,13.507-8.206C218.08,569.142,221.477,577.48,219.278,583.339Z" transform="translate(-193.295 -567.511)" fill="#d8a535" fill-rule="evenodd"/>
              </g>
              <g id="Group_1103096" data-name="Group 1103096">
                <path id="Path_893429" data-name="Path 893429" d="M220,578.834a12.372,12.372,0,0,1-20.621,4.817.9.9,0,0,0-.97-.276c-1.328.309-2.658.61-4,.85-.382.069-1.3.337-1.45.147-.286-.3.049-.7.449-1.529.037-.07.081-.14.122-.21.8-1.419,1.613-2.829,2.385-4.262a1.514,1.514,0,0,0,.156-.907,12.932,12.932,0,0,1,.2-5.688,12.478,12.478,0,0,1,13.915-9.062C218.274,563.965,222.115,572.609,220,578.834Z" transform="translate(-192.854 -562.57)" fill="#ffce73" fill-rule="evenodd"/>
              </g>
              <path id="Path_893430" data-name="Path 893430" d="M209.648,583.7a1.829,1.829,0,1,1-1.828-1.831A1.83,1.83,0,0,1,209.648,583.7Z" transform="translate(-198.464 -570.812)" fill="#343433" fill-rule="evenodd"/>
              <path id="Path_893431" data-name="Path 893431" d="M231.246,583.7a1.832,1.832,0,1,1-1.832-1.831A1.832,1.832,0,0,1,231.246,583.7Z" transform="translate(-207.684 -570.812)" fill="#343433" fill-rule="evenodd"/>
              <path id="Path_893432" data-name="Path 893432" d="M220.6,583.7a1.829,1.829,0,1,1-1.83-1.831A1.831,1.831,0,0,1,220.6,583.7Z" transform="translate(-203.14 -570.812)" fill="#343433" fill-rule="evenodd"/>
            </g>
          </g>
          <path id="Path_893433" data-name="Path 893433" d="M176.933,630a10.465,10.465,0,0,0-2.568-3.446s-4.142-1.181-5.427-2.178c-.658-.509-.645-2.258-.477-3.847,3.962-1.452,6.854-5.956,6.854-11.292,0-6.508-4.3-11.782-9.594-11.782s-9.589,5.275-9.589,11.782c0,5.4,2.962,9.954,7,11.342.161,1.578.168,3.294-.483,3.8-1.285,1-5.427,2.178-5.427,2.178A10.53,10.53,0,0,0,154.653,630l-.543,1.389,2.039,2.8s.788,12.275,2.788,12.275h14.026c2,0,2.794-12.275,2.794-12.275l1.887-2Z" transform="translate(0 -14.898)" fill="#efb499"/>
          <g id="Group_1103099" data-name="Group 1103099" transform="translate(180.369 593.513)">
            <path id="Path_893434" data-name="Path 893434" d="M209.436,630.117a4.336,4.336,0,0,0-1.069-1.434,10.231,10.231,0,0,1-2.257-.906c-.273-.211-.268-.94-.2-1.6a4.877,4.877,0,0,0,2.852-4.7c0-2.709-1.787-4.9-3.99-4.9s-3.99,2.194-3.99,4.9a4.856,4.856,0,0,0,2.912,4.719c.068.656.07,1.369-.2,1.579a10.2,10.2,0,0,1-2.257.906,4.361,4.361,0,0,0-1.069,1.434l-.227.578.849.983s.328,4.048,1.16,4.048h5.834c.833,0,1.163-4.048,1.163-4.048l.786-.741Z" transform="translate(-199.941 -616.577)" fill="#c93831"/>
            <path id="Path_893435" data-name="Path 893435" d="M233.339,630.117a4.336,4.336,0,0,0-1.069-1.434,10.256,10.256,0,0,1-2.259-.906c-.273-.211-.266-.94-.2-1.6a4.879,4.879,0,0,0,2.852-4.7c0-2.709-1.789-4.9-3.992-4.9s-3.99,2.194-3.99,4.9A4.858,4.858,0,0,0,227.6,626.2c.069.656.07,1.369-.2,1.579a10.2,10.2,0,0,1-2.259.906,4.378,4.378,0,0,0-1.069,1.434l-.225.578.847.983s.329,4.048,1.161,4.048h5.835c.83,0,1.161-4.048,1.161-4.048l.786-.741Z" transform="translate(-210.149 -616.577)" fill="#c93831"/>
            <path id="Path_893436" data-name="Path 893436" d="M257.635,630.117a4.354,4.354,0,0,0-1.068-1.434,10.235,10.235,0,0,1-2.259-.906c-.273-.211-.268-.94-.2-1.6a4.878,4.878,0,0,0,2.853-4.7c0-2.709-1.788-4.9-3.992-4.9s-3.989,2.194-3.989,4.9a4.857,4.857,0,0,0,2.912,4.719c.068.656.07,1.369-.2,1.579a10.224,10.224,0,0,1-2.259.906,4.37,4.37,0,0,0-1.069,1.434l-.226.578.849.983s.328,4.048,1.16,4.048h5.835c.831,0,1.162-4.048,1.162-4.048l.784-.741Z" transform="translate(-220.525 -616.577)" fill="#c93831"/>
            <path id="Path_893437" data-name="Path 893437" d="M221.92,639.949a4.771,4.771,0,0,0-1.172-1.574,11.277,11.277,0,0,1-2.48-1c-.3-.231-.293-1.031-.218-1.757a5.357,5.357,0,0,0,3.131-5.158c0-2.974-1.963-5.383-4.382-5.383s-4.382,2.409-4.382,5.383a5.335,5.335,0,0,0,3.2,5.182c.073.719.076,1.5-.221,1.733a11.252,11.252,0,0,1-2.479,1,4.8,4.8,0,0,0-1.174,1.574l-.248.634.93,1.142s.361,4.508,1.275,4.508h6.407c.911,0,1.276-4.508,1.276-4.508l.862-.845Z" transform="translate(-204.875 -620.209)" fill="#e74c3c"/>
            <path id="Path_893438" data-name="Path 893438" d="M246.154,639.949a4.793,4.793,0,0,0-1.173-1.574,11.265,11.265,0,0,1-2.48-1c-.3-.231-.294-1.031-.218-1.757a5.359,5.359,0,0,0,3.132-5.158c0-2.974-1.965-5.383-4.384-5.383s-4.38,2.409-4.38,5.383a5.334,5.334,0,0,0,3.2,5.182c.074.719.077,1.5-.221,1.733a11.265,11.265,0,0,1-2.48,1,4.793,4.793,0,0,0-1.173,1.574l-.249.634.932,1.142s.36,4.508,1.274,4.508h6.407c.913,0,1.277-4.508,1.277-4.508l.862-.845Z" transform="translate(-215.224 -620.209)" fill="#e74c3c"/>
          </g>
        </g>
      </g>
    </g>
  </g>
</svg>
