<svg xmlns="http://www.w3.org/2000/svg" xmlns:xlink="http://www.w3.org/1999/xlink" width="400" height="323" viewBox="0 0 400 323">
  <defs>
    <clipPath id="clip-path">
      <path id="Path_885915" data-name="Path 885915" d="M0-23H400V300H0Z" transform="translate(-0.289 23)" fill="none"/>
    </clipPath>
    <linearGradient id="linear-gradient" x1="-4.548" y1="0.5" x2="-3.548" y2="0.5" gradientUnits="objectBoundingBox">
      <stop offset="0" stop-color="#6d8936"/>
      <stop offset="1" stop-color="#79ad50"/>
    </linearGradient>
    <linearGradient id="linear-gradient-2" x1="-55.152" y1="0.5" x2="-54.152" y2="0.5" gradientUnits="objectBoundingBox">
      <stop offset="0" stop-color="#33955c"/>
      <stop offset="1" stop-color="#539c51"/>
    </linearGradient>
    <linearGradient id="linear-gradient-3" x1="-64.961" y1="0.5" x2="-63.961" y2="0.5" xlink:href="#linear-gradient-2"/>
    <linearGradient id="linear-gradient-4" x1="-41.078" y1="0.5" x2="-40.078" y2="0.5" xlink:href="#linear-gradient-2"/>
    <linearGradient id="linear-gradient-5" x1="-36.493" y1="0.5" x2="-35.493" y2="0.5" xlink:href="#linear-gradient-2"/>
    <linearGradient id="linear-gradient-6" x1="-53.97" y1="0.5" x2="-52.97" y2="0.5" xlink:href="#linear-gradient-2"/>
    <linearGradient id="linear-gradient-7" x1="0" y1="0.5" x2="1" y2="0.5" xlink:href="#linear-gradient-2"/>
    <linearGradient id="linear-gradient-8" x1="0" y1="0.5" x2="1" y2="0.5" xlink:href="#linear-gradient"/>
  </defs>
  <g id="Group_1102754" data-name="Group 1102754" transform="translate(0.289 49.934)">
    <g id="Mask_Group_1098698" data-name="Mask Group 1098698" transform="translate(0 -49.934)" clip-path="url(#clip-path)">
      <g id="Group_1103755" data-name="Group 1103755" transform="translate(-873.369 -75.975)">
        <g id="Group_1103736" data-name="Group 1103736" transform="translate(873.08 120.141)">
          <g id="Group_1103727" data-name="Group 1103727" transform="translate(58.138 -38.563)">
            <circle id="Ellipse_11562" data-name="Ellipse 11562" cx="142.014" cy="142.014" r="142.014" fill="#ffedb1"/>
          </g>
          <g id="Group_1103728" data-name="Group 1103728" transform="translate(53.744 138.388)">
            <path id="Path_894842" data-name="Path 894842" d="M1087.9,416.794h-15.048A71.518,71.518,0,0,0,1087.9,416.794Z" transform="translate(-947.61 -289.955)" fill="none"/>
            <path id="Path_894843" data-name="Path 894843" d="M1044.809,399.32a74.37,74.37,0,0,0,13.494,2.742h15.048c43.771-4.542,76.843-46.331,134.6-26.316,18.489,6.408,32.191,10.618,42.345,13.346V310.249c0,1.2-11.437,40.08-32.224-7.886s-50.154-21.7-66.422-1.982-47.444,45.81-68.229,25.806-44.734,30.35-66.423,20.694-33.928,22.762-51.963,22.762c-44.906,0-29.37,32.42-29.37,32.42H941.5C964.18,395.725,996.1,384.728,1044.809,399.32Z" transform="translate(-933.065 -275.224)" fill="#b9ae8d"/>
            <path id="Path_894844" data-name="Path 894844" d="M1319.491,406.59a.309.309,0,0,0,.039-.076Z" transform="translate(-973.274 -288.885)" fill="#b9ae8d"/>
          </g>
          <g id="Group_1103733" data-name="Group 1103733" transform="translate(0 145.483)">
            <g id="Group_1103732" data-name="Group 1103732" transform="translate(0 0)">
              <g id="Group_1103731" data-name="Group 1103731">
                <path id="Path_894845" data-name="Path 894845" d="M1023.889,415.362c0-12.265-23.128-2.917-23.128-2.917s20.341-2.939,18.67-17.632-34.831,0-34.831,0,18.39-22.039,15.325-30.365S971.5,390.4,971.5,390.4s6.687-4.9,4.737-11.754-15.047,9.305-15.047,9.305,13.933-17.141,10.868-27.917-20.063-.49-20.063-.49,22.291-25.957,17.555-39.181-44.3,42.61-44.3,42.61,13.932-20.57,10.031-25.957-17.555,17.141-17.555,17.141,10.589-16.162,8.081-22.529-14.49,5.388-14.49,5.388,12.539-33.794,8.081-37.225-13.653,16.654-13.653,16.654c.836-34.283-7.477-33.3-7.477-33.3-.756,2.432-14.878,21.2-4.856,39.6,0,0-21.866-11.75-14.578,5.606s13.212,16.757,13.212,16.757-16.4-8.227-18.223-2.674,15.033,18.741,15.033,18.741-19.408-8.1-15.17,2.112,25.648,16.518,25.648,16.518-14.122,1.185-13.667,7.461,15.489,4.6,15.489,4.6-20.044,9.879-13.667,16.712,28.516,0,28.516,0-4.827,7.2,3.828,6.787Z" transform="translate(-873.08 -283.143)" fill="url(#linear-gradient)"/>
                <g id="Group_1103729" data-name="Group 1103729" transform="translate(49.001 66.317)">
                  <path id="Path_894846" data-name="Path 894846" d="M927.781,357.162l.025.032-.034-.02Z" transform="translate(-927.772 -357.162)" fill="#fefefe"/>
                </g>
                <g id="Group_1103730" data-name="Group 1103730" transform="translate(74.455 100.549)">
                  <path id="Path_894847" data-name="Path 894847" d="M956.187,395.37l.014.019-.02-.013Z" transform="translate(-956.182 -395.37)" fill="#fefefe"/>
                </g>
              </g>
              <path id="Path_894848" data-name="Path 894848" d="M990.2,371.036s-3.456,22.03-21.941,19.828C968.263,390.864,967.629,373.45,990.2,371.036Z" transform="translate(-882.984 -292.288)" fill="#146e62"/>
              <path id="Path_894849" data-name="Path 894849" d="M975.6,361.283s9.056,20.377-7.663,28.563C967.94,389.846,957.955,375.564,975.6,361.283Z" transform="translate(-882.657 -291.274)" fill="url(#linear-gradient-2)"/>
              <path id="Path_894850" data-name="Path 894850" d="M939.565,346.009s7.263,15.781-5.679,22.328C933.886,368.337,925.963,357.313,939.565,346.009Z" transform="translate(-879.168 -289.684)" fill="url(#linear-gradient-3)"/>
              <path id="Path_894851" data-name="Path 894851" d="M1021.068,395.558s-5.1,16.606-19.111,12.866C1001.957,408.424,1003.393,394.925,1021.068,395.558Z" transform="translate(-886.49 -294.838)" fill="url(#linear-gradient-4)"/>
              <path id="Path_894852" data-name="Path 894852" d="M907.186,387.422s17.323,1.289,16.784,15.782C923.97,403.2,910.488,404.8,907.186,387.422Z" transform="translate(-876.628 -293.994)" fill="url(#linear-gradient-5)"/>
              <path id="Path_894853" data-name="Path 894853" d="M899.7,335.739s15,8.757,8.161,21.544C907.857,357.283,895.042,352.8,899.7,335.739Z" transform="translate(-875.743 -288.616)" fill="url(#linear-gradient-6)"/>
            </g>
          </g>
          <g id="Group_1103735" data-name="Group 1103735" transform="translate(281.175 212.555)">
            <path id="Path_894854" data-name="Path 894854" d="M1256.546,398.223s3.158-11.973,1.316-12.763-9.21,7.894-9.21,7.894,12.368-21.05,10-22.892-19.735,23.156-19.735,23.156,5.525-25,1.841-26.84-9.735,15.262-10.525,16.051-.789-24.208-4.474-24.734c-2.7-.386-2.29,10.975-1.878,17.06-.365-3.385-1.125-7.85-2.6-7.85-2.369,0-3.158,8.683-3.158,8.683s-.263-15.807-4.736-17.9-1.842,37.639-1.842,37.639-9.21-24.824-16.052-21.358,4.737,26.358,4.737,26.358-10-17.367-12.894-12.894,9.735,20.788,9.735,20.788h.1c0,1.16,12.995,2.1,29.024,2.1s29.025-.941,29.025-2.1c0,0,14.736-17.63,14.736-20.788S1256.546,398.223,1256.546,398.223Z" transform="translate(-1186.91 -358.005)" fill="url(#linear-gradient-7)"/>
            <g id="Group_1103734" data-name="Group 1103734" transform="translate(5.638 20.164)">
              <path id="Path_894855" data-name="Path 894855" d="M1215.449,390.965s5.176-4.263,0-10.454C1215.449,380.511,1209.055,385.991,1215.449,390.965Z" transform="translate(-1195.222 -380.511)" fill="#146e62"/>
              <path id="Path_894856" data-name="Path 894856" d="M1223.012,398.2s6.6-1.164,5.145-9.1C1228.158,389.1,1219.894,390.72,1223.012,398.2Z" transform="translate(-1196.231 -381.404)" fill="url(#linear-gradient-8)"/>
              <path id="Path_894857" data-name="Path 894857" d="M1241.761,392.445s6.6-1.164,5.144-9.1C1246.906,383.344,1238.642,384.968,1241.761,392.445Z" transform="translate(-1198.182 -380.806)" fill="url(#linear-gradient-8)"/>
              <path id="Path_894858" data-name="Path 894858" d="M1237.669,407.617s6.262,2.4,9.095-5.155C1246.764,402.461,1238.842,399.6,1237.669,407.617Z" transform="translate(-1197.83 -382.743)" fill="#146e62"/>
              <path id="Path_894859" data-name="Path 894859" d="M1252.705,415.3s6.689.471,7.2-7.583C1259.9,407.722,1251.49,407.3,1252.705,415.3Z" transform="translate(-1199.382 -383.342)" fill="#146e62"/>
              <path id="Path_894860" data-name="Path 894860" d="M1199.227,402.792s2.016-6.4-5.7-8.764C1193.528,394.028,1191.155,402.109,1199.227,402.792Z" transform="translate(-1193.203 -381.917)" fill="url(#linear-gradient-8)"/>
            </g>
          </g>
        </g>
        <g id="Group_1103754" data-name="Group 1103754" transform="translate(1014.867 114.783)">
          <g id="Group_1103737" data-name="Group 1103737" transform="translate(22.023 273.865)" opacity="0.1">
            <path id="Path_894861" data-name="Path 894861" d="M1098.806,423.712c0,1.8-9.6,3.257-21.446,3.257s-21.446-1.458-21.446-3.257,9.6-3.258,21.446-3.258S1098.806,421.913,1098.806,423.712Z" transform="translate(-1055.914 -420.454)" fill="#2d2729"/>
            <path id="Path_894862" data-name="Path 894862" d="M1204.085,427.968c0,1.8-9.6,3.257-21.446,3.257s-21.446-1.459-21.446-3.257,9.6-3.258,21.446-3.258S1204.085,426.169,1204.085,427.968Z" transform="translate(-1066.869 -420.897)" fill="#2d2729"/>
          </g>
          <g id="Group_1103739" data-name="Group 1103739" transform="translate(64.644 90.174)">
            <g id="Group_1103738" data-name="Group 1103738" transform="translate(0 10.879)">
              <path id="Path_894863" data-name="Path 894863" d="M1124.77,227.572c0,5.568-.066,11.1,0,14.818.044,2.432-.052,8.384-3.806,8.641-1.442.1-2.558.162-3.484.2-.218.01-.435.021-.651.045-.122.013-.247.021-.375.026.082,0,.164.007.248.007.483,0,.935,0,1.4,0s.918,0,1.4,0a5.808,5.808,0,0,0,.624-.033c.217-.024.434-.035.651-.045.926-.041,2.042-.1,3.483-.2,3.754-.256,3.85-6.208,3.806-8.641-.066-3.715,0-9.25,0-14.818Z" transform="translate(-1104.835 -227.572)" fill="#186aa8"/>
              <path id="Path_894864" data-name="Path 894864" d="M1119.615,251.031c3.754-.256,3.85-6.208,3.806-8.641-.066-3.715,0-9.25,0-14.818h-19.929c0,5.568.066,11.1,0,14.818-.044,2.432.052,8.384,3.806,8.641,1.442.1,2.557.162,3.484.2.218.01.435.021.651.045a5.822,5.822,0,0,0,.624.033c.482,0,.934,0,1.4,0s.917,0,1.4,0a5.822,5.822,0,0,0,.624-.033c.216-.024.434-.035.651-.045C1117.057,251.193,1118.173,251.129,1119.615,251.031Z" transform="translate(-1103.485 -227.572)" fill="#db6719"/>
            </g>
            <path id="Path_894865" data-name="Path 894865" d="M1127.217,219.571a5.059,5.059,0,0,0-2.544-3.026,14.087,14.087,0,0,0-6.132-1.112q-.44.009-.877,0c-.4-.008-.807,0-1.21.016.085,0,.168.012.254.017s.2.012.3.02c.176.013.35.031.523.05l.226.024c.244.03.486.065.724.107.064.011.125.025.188.037.178.033.354.068.528.107l.248.061c.151.038.3.077.449.12.082.023.163.047.244.073.151.047.3.1.441.151.067.024.137.047.2.073.206.081.406.165.6.257a5.058,5.058,0,0,1,2.543,3.026,20.335,20.335,0,0,1,.851,6.315v.423h3.3v-.423A20.375,20.375,0,0,0,1127.217,219.571Z" transform="translate(-1104.835 -215.43)" fill="#2e9adb"/>
            <path id="Path_894866" data-name="Path 894866" d="M1123.421,225.886a20.335,20.335,0,0,0-.851-6.315,5.058,5.058,0,0,0-2.543-3.026c-.191-.091-.391-.177-.6-.257-.066-.026-.136-.049-.2-.073-.144-.053-.291-.1-.441-.151-.081-.025-.162-.049-.244-.073-.147-.043-.3-.082-.449-.12l-.248-.061c-.174-.039-.349-.073-.528-.107-.063-.012-.124-.026-.188-.037-.238-.041-.48-.076-.724-.107l-.226-.024c-.173-.019-.348-.037-.523-.05-.1-.008-.2-.013-.3-.02-.487-.03-.977-.043-1.464-.033q-.438.009-.876,0a14.09,14.09,0,0,0-6.133,1.112,5.061,5.061,0,0,0-2.544,3.026,20.371,20.371,0,0,0-.85,6.315v.423h19.929Z" transform="translate(-1103.486 -215.43)" fill="#fc0"/>
          </g>
          <g id="Group_1103740" data-name="Group 1103740" transform="translate(72.686 36.896)">
            <path id="Path_894867" data-name="Path 894867" d="M1174.211,159c-15.491-5.855-49.21-3.224-57.875,7.753-10.321,13.076,2.594,70.767,8.455,77.109h49.378Z" transform="translate(-1112.461 -155.964)" fill="#fc0"/>
            <path id="Path_894868" data-name="Path 894868" d="M1180.525,159.352c2.963,1.12,5.267,2.546,6.593,4.288,8.365,10.994,13.222,65.862,2.158,76.164a24.66,24.66,0,0,1-8.793,4.711c-8.014-16.277-7.226-44.97-7.334-61.913C1173,159.266,1180.253,159.341,1180.525,159.352Z" transform="translate(-1118.776 -156.316)" fill="#f73a14"/>
            <path id="Path_894869" data-name="Path 894869" d="M1116.117,216.7s35.914,0,51.385-1.09c16.752-1.18,21.587-4.305,21.587-4.305" transform="translate(-1112.842 -161.722)" fill="none" stroke="#363a45" stroke-linecap="round" stroke-linejoin="round" stroke-width="1"/>
            <path id="Path_894870" data-name="Path 894870" d="M1116.117,214.8s35.914,0,51.385-1.09c16.752-1.181,21.587-4.306,21.587-4.306" transform="translate(-1112.842 -161.525)" fill="none" stroke="#363a45" stroke-linecap="round" stroke-linejoin="round" stroke-width="1"/>
          </g>
          <path id="Path_894871" data-name="Path 894871" d="M1181.534,193.849c-.844-12.622-.322-14.143-2.263-19.378a21.9,21.9,0,0,0-11.937-12.552c-7.765-3.319-22.558-4.266-33.641-3.035" transform="translate(-1041.984 -119.318)" fill="none" stroke="#363a45" stroke-linecap="round" stroke-linejoin="round" stroke-width="2"/>
          <g id="Group_1103741" data-name="Group 1103741" transform="translate(137.76 72.168)">
            <path id="Path_894872" data-name="Path 894872" d="M1186.824,199.194a1.731,1.731,0,0,0-1.731,1.732v7.7a1.731,1.731,0,0,0,3.461,0v-7.7A1.73,1.73,0,0,0,1186.824,199.194Zm.859,9.064a.859.859,0,1,1-1.718,0v-3.827h1.718Zm0-4.537h-1.718V202.59h1.718Z" transform="translate(-1185.093 -195.734)" fill="#363a45"/>
            <path id="Path_894873" data-name="Path 894873" d="M1186.823,195.332a1.73,1.73,0,1,1-1.73,1.73A1.73,1.73,0,0,1,1186.823,195.332Z" transform="translate(-1185.093 -195.332)" fill="#363a45"/>
          </g>
          <path id="Path_894874" data-name="Path 894874" d="M1135.9,118.348s-6.99-2.226-10.92,2.749-.6,11.49-.6,11.49-6.688,5.876-3,10.693-9.733,5.685-3.3,15.58-14.826,8.491-8.977,17.01c9.1,13.259,50.227,16.531,63.837,7.961,4.062-2.558,5.537-16.552-3.175-18.938-7.844-2.148,4.027-11.908-1.757-15.25-7.015-4.052,3.3-14.96-3.507-16.149-7.35-1.285.614-10.367-7.262-10.292C1148.394,123.286,1148.561,108.072,1135.9,118.348Z" transform="translate(-1039.318 -114.783)" fill="#562a35"/>
          <g id="Group_1103742" data-name="Group 1103742" transform="translate(0 50.283)">
            <path id="Path_894875" data-name="Path 894875" d="M1051.443,188.382l-2.28-.43s-2.912-.088-6.088-.264-11.717-5.257-11.258-6.019,5.926,2.226,5.926,2.226-6.863-4.8-6.386-5.876,7.877,3.964,7.877,3.964-4.547-3.018-5.477-3.929c-.561-.548-2.45-2.606-1.17-3.11.456-.179,1.218.59,2.445,1.446,2.328,1.627,5.49,4.022,5.49,4.022s-5.648-4.744-5.072-5.5c.849-1.115,3.256,1.173,4.086,1.684s3.39,2.923,4.665,2.547c.581-.171,1.528-.88.726-2.31-.952-1.692-1.156-2.8-.46-3.211,1.731-1.033,3.234,4.225,4.218,5.7,1.174,1.756,6.2,5.735,6.2,5.735S1054.825,187.788,1051.443,188.382Z" transform="translate(-1031.334 -171.174)" fill="#ff9f5a"/>
            <path id="Path_894876" data-name="Path 894876" d="M1052.491,190.68s3.285-3.64,2.589-7.51c0,0,26.3,1.076,33.972,12.189S1071.8,205.514,1052.491,190.68Z" transform="translate(-1033.535 -172.182)" fill="#ead683"/>
            <path id="Path_894877" data-name="Path 894877" d="M1087.11,191.015s35.609-25.282,44.347-19.152-1.467,20.368-24.65,25.821c-4.463,1.05-13.655,4.434-17.978,3.613S1087.11,191.015,1087.11,191.015Z" transform="translate(-1037.056 -170.905)" fill="#cf8c3e"/>
          </g>
          <path id="Path_894878" data-name="Path 894878" d="M1129.17,246.844a1.651,1.651,0,0,1-1.029-1.159l-.273-1.175c-6.478-27.939-13.176-56.829,4.41-74.862a1.661,1.661,0,0,1,2.292-.03,1.531,1.531,0,0,1,.1,2.212c-16.447,16.864-9.937,44.939-3.642,72.09l.272,1.176a1.511,1.511,0,0,1-1.226,1.83A1.686,1.686,0,0,1,1129.17,246.844Z" transform="translate(-1040.667 -120.443)" fill="#363a45"/>
          <path id="Path_894879" data-name="Path 894879" d="M1129.786,234.73c.776,16.759,11.981,57.368,24.4,72.962,9.586,12.037,14.008,22.776,19.239,38.984,3.064,9.5,6.429,21.575,6.429,21.575l-11.415,6.849s-6.477-11.4-12.051-20.514-17.217-27.618-23.184-33.249-4.7-10.357-14.948-35.93-10.64-37.535-9.787-47.594c0,0,2.825-.647,7.124-1.368C1119.459,235.8,1124.514,235.087,1129.786,234.73Z" transform="translate(-1039.329 -127.264)" fill="#2d2729"/>
          <path id="Path_894880" data-name="Path 894880" d="M1115.744,236.645s-1.682,18.046-6.112,20.9" transform="translate(-1039.481 -127.463)" fill="none" stroke="#fff" stroke-linecap="round" stroke-linejoin="round" stroke-width="1"/>
          <g id="Group_1103744" data-name="Group 1103744" transform="translate(51.309 104.681)">
            <g id="Group_1103743" data-name="Group 1103743">
              <path id="Path_894881" data-name="Path 894881" d="M1090.21,356.14c0-10.994,5.9-25.741,8.312-34.858s2.146-19.574,7.776-35.93,7.24-31.1,7.24-38.344.018-10.887.018-10.887c3.866-.65,8.922-1.359,14.194-1.716,10.162-.686,21.068-.413,24.983-2.785,0,0,6.389,22.359-6.213,43.81s-21.719,34.054-23.06,45.852-1.072,24.936-10.725,40.22-10.993,21.183-10.993,21.183l-.288-.076-12.428-3.3-.422-.112A203.444,203.444,0,0,0,1090.21,356.14Z" transform="translate(-1088.601 -231.621)" fill="#42383a"/>
            </g>
            <path id="Path_894882" data-name="Path 894882" d="M1149.471,233.163s2.313,32.105-17.194,58.651-8.647,33.784-22.322,65.559c-4.712,10.947-7.641,18.318-10.687,24.523" transform="translate(-1089.711 -231.781)" fill="none" stroke="#fff" stroke-linecap="round" stroke-linejoin="round" stroke-width="1"/>
            <path id="Path_894883" data-name="Path 894883" d="M1142.874,234.2s-2.794,18.245,8.6,24.709" transform="translate(-1094.217 -231.89)" fill="none" stroke="#fff" stroke-linecap="round" stroke-linejoin="round" stroke-width="1"/>
          </g>
          <path id="Path_894884" data-name="Path 894884" d="M1154.213,171.534s-11.328-6.664-25.4,1.376c-5.916,3.38-6.831,4.074-11.744,9.045-4.693,4.748-5.171,10.939,1.725,13.51,0,0-2.632,8.163-3.7,10.812-3.233,8-7.894,28.212-7.894,28.212s24.542,5.312,49.978-1.252c0,0-1.546-19.474.739-30.118S1166.724,177.567,1154.213,171.534Z" transform="translate(-1039.228 -120.418)" fill="#ae6615"/>
          <path id="Path_894885" data-name="Path 894885" d="M1140.876,158.991c-.414,1.847-1.258,4.511-2.256,5.463a17.009,17.009,0,0,1-5.351,3.835,2.182,2.182,0,0,0-1.358,1.564c-.125.91.375,2.159,3.149,3.275,5.163,2.077,21.714-6.014,21.714-6.014a12.7,12.7,0,0,1-2.121-1.731c-4.385-4.445-.289-15.915-.289-15.915,9.52-2.184,6.3-7.243,6.3-7.243-3.862-4.336-8.285,2.069-8.285,2.069l-.471-6.281c-9.134-3.452-15.132-12.443-15.132-12.443-2.8,1.063-5.074,2.828-5.736,5.715-2.1,9.189-1.313,23.8,5.3,26.894a9.081,9.081,0,0,0,4.34.822" transform="translate(-1041.601 -115.905)" fill="#ff9f5a"/>
          <g id="Group_1103745" data-name="Group 1103745" transform="translate(89.085 20.598)">
            <path id="Path_894886" data-name="Path 894886" d="M1145.524,145.189a1.588,1.588,0,0,0-3.169.217" transform="translate(-1131.97 -138.391)" fill="none" stroke="#181028" stroke-linecap="round" stroke-linejoin="round" stroke-width="1.5"/>
            <path id="Path_894887" data-name="Path 894887" d="M1147.888,142.891a.668.668,0,0,0,.549-1.074c-.134-.175-3.311-4.257-7.812-2.849a.669.669,0,1,0,.4,1.276c3.609-1.132,6.322,2.35,6.349,2.385A.664.664,0,0,0,1147.888,142.891Z" transform="translate(-1131.742 -137.867)" fill="#3d2129"/>
            <path id="Path_894888" data-name="Path 894888" d="M1135.2,143.831a1.588,1.588,0,0,0-3.168.217" transform="translate(-1130.896 -138.25)" fill="none" stroke="#181028" stroke-linecap="round" stroke-linejoin="round" stroke-width="1.5"/>
            <path id="Path_894889" data-name="Path 894889" d="M1137.2,140.733a.667.667,0,0,0,.577-1.034c-.081-.12-2.018-2.946-6.543-1.529a.668.668,0,1,0,.4,1.275c3.528-1.1,4.97.911,5.031,1A.666.666,0,0,0,1137.2,140.733Z" transform="translate(-1130.765 -137.774)" fill="#3d2129"/>
            <path id="Path_894890" data-name="Path 894890" d="M1141.457,156.083h.012a3.378,3.378,0,0,0,2.512-.907,3.652,3.652,0,0,0,1-2.386.715.715,0,0,0-.665-.672.669.669,0,0,0-.672.662,1.933,1.933,0,0,1-2.157,1.965.669.669,0,0,0-.025,1.338Z" transform="translate(-1131.81 -139.266)" fill="#3d2129"/>
            <path id="Path_894891" data-name="Path 894891" d="M1139.321,150.4a.518.518,0,0,0,.064,0,.67.67,0,0,0,.659-.678.691.691,0,0,0-.676-.659,1.647,1.647,0,0,1-1.244-.537,2.4,2.4,0,0,1,.128-2.005c1.452-3.681.733-5.227.646-5.391a.669.669,0,0,0-1.183.625h0s.5,1.217-.707,4.275a3.4,3.4,0,0,0,.019,3.26A2.964,2.964,0,0,0,1139.321,150.4Z" transform="translate(-1131.373 -138.086)" fill="#3d2129"/>
            <path id="Path_894892" data-name="Path 894892" d="M1161.079,147.3a.7.7,0,0,0,.211.1.711.711,0,0,0,.884-.479,2.2,2.2,0,0,0-.94-2.677.712.712,0,0,0-.659,1.261c.108.061.435.326.234,1.012A.712.712,0,0,0,1161.079,147.3Z" transform="translate(-1133.828 -138.439)" fill="#562a35"/>
            <path id="Path_894893" data-name="Path 894893" d="M1157.47,148.289a.7.7,0,0,0,.365.13c2.345.157,3.88-2.289,3.945-2.394a.689.689,0,0,0-.232-.977.712.712,0,0,0-.978.228c-.011.018-1.155,1.822-2.64,1.723a.711.711,0,0,0-.459,1.289Z" transform="translate(-1133.512 -138.519)" fill="#562a35"/>
            <path id="Path_894894" data-name="Path 894894" d="M1133.3,149.4s-1.556-1.2-2.131-.125c-.694,1.291,3.336,2.314,3.336,2.314s1.476-3.694-.026-3.926S1133.3,149.4,1133.3,149.4Z" transform="translate(-1130.799 -138.8)" fill="#ff7694" style="mix-blend-mode: multiply;isolation: isolate"/>
            <path id="Path_894895" data-name="Path 894895" d="M1146.5,149.258s-1.556-1.2-2.132-.125c-.693,1.291,3.337,2.314,3.337,2.314s1.475-3.694-.026-3.926S1146.5,149.258,1146.5,149.258Z" transform="translate(-1132.172 -138.786)" fill="#ff7694" style="mix-blend-mode: multiply;isolation: isolate"/>
          </g>
          <path id="Path_894896" data-name="Path 894896" d="M1141.94,162.551s5.2-.682,7.591-2.768c0,0-.484,7.662-9.294,7.381C1140.382,167.205,1141.343,165.333,1141.94,162.551Z" transform="translate(-1042.665 -119.465)" fill="#ba6349"/>
          <g id="Group_1103746" data-name="Group 1103746" transform="translate(1.305 15.864)">
            <path id="Path_894897" data-name="Path 894897" d="M1045.675,132.489l-12.885,56.863,15.028,13.182,17.375-4.943,13.487,6.655,9.164-2.282,13.793-63.659-10.911,4.192-14.352-8.03-16.715,7.225Z" transform="translate(-1032.79 -132.489)" fill="#f3f9ff"/>
            <line id="Line_3370" data-name="Line 3370" x1="11.182" y2="63.124" transform="translate(32.402 1.979)" fill="none" stroke="#3d2129" stroke-miterlimit="10" stroke-width="1"/>
            <line id="Line_3371" data-name="Line 3371" x1="12.046" y2="61.749" transform="translate(45.889 10.009)" fill="none" stroke="#3d2129" stroke-miterlimit="10" stroke-width="1"/>
            <line id="Line_3372" data-name="Line 3372" x1="11.841" y2="60.842" transform="translate(15.028 9.204)" fill="none" stroke="#3d2129" stroke-miterlimit="10" stroke-width="1"/>
          </g>
          <g id="Group_1103748" data-name="Group 1103748" transform="translate(21.824 248.969)">
            <path id="Path_894898" data-name="Path 894898" d="M1098.2,422.248s1.394-2.23-.029-3.332-4.686,1.3-21.213-.073-20.163-3.678-20.163-3.678a1.852,1.852,0,0,0-.66,2.433C1056.869,419.2,1070.016,424.158,1098.2,422.248Z" transform="translate(-1055.715 -395.008)" fill="#dd843a"/>
            <g id="Group_1103747" data-name="Group 1103747" transform="translate(1.073)">
              <path id="Path_894899" data-name="Path 894899" d="M1065.365,410.547h0c2.661,3.882,18.244-2.632,20.744-4.83s6.671-7.926,6.671-7.926h0a.909.909,0,0,0,.566-.02c2.26-.746,6.866-1.634,5.507.762s-2.037,8.422-.817,11.076.232,7.414.232,7.414c-4.181,2.126-41.736.795-41.377-3.751C1057.207,409.282,1061.338,410.527,1065.365,410.547Z" transform="translate(-1056.889 -393.115)" fill="#bc6d26"/>
              <path id="Path_894900" data-name="Path 894900" d="M1087.093,405.269c-2.5,2.2-18.083,8.712-20.744,4.83h0a14.222,14.222,0,0,0,1.665-.08c4.467-.508,14.245-6.526,15.236-8.338,2.321-4.245,1.89-8.393,2.243-8.556,4.582-2.11,6.644,3.714,8.271,4.217h0S1089.592,403.073,1087.093,405.269Z" transform="translate(-1057.874 -392.667)" fill="#dd843a"/>
            </g>
            <path id="Path_894901" data-name="Path 894901" d="M1084.5,421.675c-8.33,0-21.868-.707-28.81-4.909l.519-.857c9.978,6.039,35.059,4.6,35.312,4.585l.061,1C1091.248,421.516,1088.463,421.675,1084.5,421.675Z" transform="translate(-1055.692 -395.085)" fill="#4d4542"/>
            <path id="Path_894902" data-name="Path 894902" d="M1085.292,400.465c-.244.428.6,1.368,1.879,2.1s2.518.977,2.763.547-.6-1.368-1.879-2.1S1085.537,400.036,1085.292,400.465Z" transform="translate(-1058.768 -393.456)" fill="#4d4542"/>
            <path id="Path_894903" data-name="Path 894903" d="M1082.4,403.976c-.245.429.421,1.269,1.486,1.876s2.127.753,2.372.323-.421-1.268-1.486-1.875S1082.641,403.548,1082.4,403.976Z" transform="translate(-1058.465 -393.818)" fill="#4d4542"/>
            <path id="Path_894904" data-name="Path 894904" d="M1079.236,406.092c-.245.429.348,1.227,1.322,1.782s1.963.659,2.207.23-.348-1.227-1.322-1.782S1079.479,405.664,1079.236,406.092Z" transform="translate(-1058.136 -394.036)" fill="#4d4542"/>
            <path id="Path_894905" data-name="Path 894905" d="M1075.743,408.1c-.245.429.257,1.175,1.121,1.667s1.761.544,2.005.116-.257-1.175-1.12-1.667S1075.987,407.672,1075.743,408.1Z" transform="translate(-1057.772 -394.243)" fill="#4d4542"/>
            <path id="Path_894906" data-name="Path 894906" d="M1091.214,408.714a3.49,3.49,0,1,0,3.666-3.3A3.491,3.491,0,0,0,1091.214,408.714Z" transform="translate(-1059.388 -393.992)" fill="#fcbd70"/>
            <path id="Path_894907" data-name="Path 894907" d="M1085,417.327a.7.7,0,1,0,.733-.661A.7.7,0,0,0,1085,417.327Z" transform="translate(-1058.742 -395.164)" fill="#fcbd70"/>
            <path id="Path_894908" data-name="Path 894908" d="M1081.016,417.12a.7.7,0,1,0,.733-.66A.7.7,0,0,0,1081.016,417.12Z" transform="translate(-1058.327 -395.143)" fill="#fcbd70"/>
          </g>
          <g id="Group_1103750" data-name="Group 1103750" transform="translate(116.2 240.088)">
            <path id="Path_894909" data-name="Path 894909" d="M1198.72,403.143s-.272-2.616-2.072-2.609-2.894,3.909-16.769,12.994-18.157,9.506-18.157,9.506a1.85,1.85,0,0,0,.976,2.324C1164.266,426.165,1177.681,421.986,1198.72,403.143Z" transform="translate(-1161.089 -384.604)" fill="#dd843a"/>
            <g id="Group_1103749" data-name="Group 1103749">
              <path id="Path_894910" data-name="Path 894910" d="M1166.664,413.823h0c4.486,1.423,12.763-13.3,13.381-16.57s.383-10.354.383-10.354h0a.914.914,0,0,0,.435-.365c1.322-1.978,4.406-5.512,4.81-2.787s3.577,7.893,6.17,9.234,4.744,5.7,4.744,5.7c-1.988,4.249-32.413,26.3-34.926,22.5C1159.455,417.845,1163.477,416.284,1166.664,413.823Z" transform="translate(-1161.028 -382.754)" fill="#bc6d26"/>
              <path id="Path_894911" data-name="Path 894911" d="M1180.7,397.662c-.618,3.27-8.895,17.992-13.381,16.57h0a14.079,14.079,0,0,0,1.263-1.087c3.209-3.149,7.215-13.909,6.881-15.947-.781-4.774-3.673-7.78-3.495-8.125,2.313-4.482,7.522-1.159,9.115-1.764h0S1181.318,394.392,1180.7,397.662Z" transform="translate(-1161.683 -383.163)" fill="#dd843a"/>
            </g>
            <path id="Path_894912" data-name="Path 894912" d="M1161.819,425.506l-.117-.995c11.578-1.377,30.471-17.942,30.66-18.11l.663.752C1192.242,407.844,1173.709,424.093,1161.819,425.506Z" transform="translate(-1161.098 -385.215)" fill="#4d4542"/>
            <path id="Path_894913" data-name="Path 894913" d="M1175.1,396.444c.071.488,1.313.712,2.772.5s2.587-.781,2.515-1.269-1.312-.712-2.772-.5S1175.027,395.957,1175.1,396.444Z" transform="translate(-1162.492 -384.039)" fill="#4d4542"/>
            <path id="Path_894914" data-name="Path 894914" d="M1174.979,401.008c.071.488,1.112.741,2.326.564s2.14-.716,2.069-1.2-1.113-.74-2.326-.564S1174.907,400.519,1174.979,401.008Z" transform="translate(-1162.48 -384.523)" fill="#4d4542"/>
            <path id="Path_894915" data-name="Path 894915" d="M1173.791,404.627c.071.487,1.028.753,2.138.591s1.952-.689,1.881-1.176-1.028-.754-2.139-.591S1173.719,404.139,1173.791,404.627Z" transform="translate(-1162.356 -384.903)" fill="#4d4542"/>
            <path id="Path_894916" data-name="Path 894916" d="M1172.274,408.365c.072.488.926.768,1.909.624s1.723-.655,1.652-1.142-.925-.768-1.909-.625S1172.2,407.877,1172.274,408.365Z" transform="translate(-1162.198 -385.296)" fill="#4d4542"/>
            <path id="Path_894917" data-name="Path 894917" d="M1184.986,399.11a3.491,3.491,0,1,0,.857-4.861A3.491,3.491,0,0,0,1184.986,399.11Z" transform="translate(-1163.455 -383.885)" fill="#fcbd70"/>
            <path id="Path_894918" data-name="Path 894918" d="M1185.256,409.99a.7.7,0,1,0,.171-.972A.7.7,0,0,0,1185.256,409.99Z" transform="translate(-1163.536 -385.474)" fill="#fcbd70"/>
            <path id="Path_894919" data-name="Path 894919" d="M1181.987,412.279a.7.7,0,1,0,.171-.972A.7.7,0,0,0,1181.987,412.279Z" transform="translate(-1163.196 -385.712)" fill="#fcbd70"/>
          </g>
          <path id="Path_894920" data-name="Path 894920" d="M1160.467,245.579a1.662,1.662,0,0,1-1.112-1.066l-.363-1.13c-8.6-26.827-17.484-54.568-1.375-73.213a1.676,1.676,0,0,1,2.277-.168,1.477,1.477,0,0,1,.275,2.148c-15.064,17.437-6.427,44.4,1.926,70.467l.362,1.13a1.45,1.45,0,0,1-1.079,1.858A1.715,1.715,0,0,1,1160.467,245.579Z" transform="translate(-1043.542 -120.491)" fill="#363a45"/>
          <g id="Group_1103751" data-name="Group 1103751" transform="translate(51.883 38.753)">
            <path id="Path_894921" data-name="Path 894921" d="M1107.335,182.167s-1.7-6.924-1.538-9.267c.14-1.967,2.4-7.611.18-7.883-.9-.109-1.469,1-1.786,3.135-.269,1.8-1.586,1.78-2.212,1.534-1.376-.539-1.983-4.4-2.363-5.419s-.935-4.665-2.441-4.266c-1.021.271.707,8.29.707,8.29s-1.145-4.259-2.083-7.277c-.493-1.589-.639-2.785-1.16-2.938-1.469-.43-1.212,2.665-1.093,3.53.2,1.434,2.133,7.186,2.133,7.186s-3.066-9.475-4.218-8.854,1.6,9.518,1.6,9.518-2.766-6.353-3.689-6,3.116,10.643,5.787,12.963,5.17,4.383,5.17,4.383l1.709,1.933" transform="translate(-1089.242 -158.037)" fill="#ff9f5a"/>
            <path id="Path_894922" data-name="Path 894922" d="M1101.172,184.595s5.417-.637,7.67-4.385c0,0,21.208,20.178,19.479,35.1S1106.446,211.153,1101.172,184.595Z" transform="translate(-1090.483 -160.344)" fill="#cf8c3e"/>
            <path id="Path_894923" data-name="Path 894923" d="M1124,207.952s24.458-38.421,35.935-35.392,6.316,21.815-15.771,36.435c-4.251,2.814-12.539,9.886-17.364,10.695S1124,207.952,1124,207.952Z" transform="translate(-1092.815 -159.53)" fill="#cf8c3e"/>
          </g>
          <g id="Group_1103753" data-name="Group 1103753" transform="translate(133.559 90.174)">
            <g id="Group_1103752" data-name="Group 1103752" transform="translate(0 10.879)">
              <path id="Path_894924" data-name="Path 894924" d="M1201.688,227.572c0,5.568-.066,11.1,0,14.818.044,2.432-.052,8.384-3.806,8.641-1.442.1-2.557.162-3.484.2-.218.01-.434.021-.651.045-.122.013-.247.021-.375.026.083,0,.164.007.248.007.483,0,.934,0,1.4,0s.918,0,1.4,0a5.8,5.8,0,0,0,.623-.033c.217-.024.435-.035.651-.045.927-.041,2.042-.1,3.484-.2,3.754-.256,3.85-6.208,3.807-8.641-.066-3.715,0-9.25,0-14.818Z" transform="translate(-1181.753 -227.572)" fill="#186aa8"/>
              <path id="Path_894925" data-name="Path 894925" d="M1196.533,251.031c3.754-.256,3.85-6.208,3.806-8.641-.066-3.715,0-9.25,0-14.818h-19.929c0,5.568.066,11.1,0,14.818-.043,2.432.052,8.384,3.806,8.641,1.443.1,2.558.162,3.484.2.218.01.435.021.652.045a5.79,5.79,0,0,0,.623.033c.482,0,.934,0,1.4,0s.918,0,1.4,0a5.808,5.808,0,0,0,.624-.033c.217-.024.434-.035.651-.045C1193.976,251.193,1195.091,251.129,1196.533,251.031Z" transform="translate(-1180.403 -227.572)" fill="#db6719"/>
            </g>
            <path id="Path_894926" data-name="Path 894926" d="M1204.135,219.571a5.061,5.061,0,0,0-2.543-3.026,14.093,14.093,0,0,0-6.133-1.112c-.292.006-.585.006-.877,0-.4-.008-.807,0-1.21.016.085,0,.169.012.254.017s.2.012.3.02c.175.013.349.031.523.05l.225.024c.244.03.486.065.724.107.064.011.125.025.188.037.178.033.355.068.528.107l.248.061c.152.038.3.077.449.12.083.023.163.047.244.073.151.047.3.1.441.151.068.024.137.047.2.073.206.081.407.165.6.257a5.058,5.058,0,0,1,2.544,3.026,20.371,20.371,0,0,1,.85,6.315v.423h3.3c0-.142,0-.282,0-.423A20.339,20.339,0,0,0,1204.135,219.571Z" transform="translate(-1181.753 -215.43)" fill="#2e9adb"/>
            <path id="Path_894927" data-name="Path 894927" d="M1200.339,225.886a20.371,20.371,0,0,0-.85-6.315,5.058,5.058,0,0,0-2.544-3.026c-.19-.091-.391-.177-.6-.257-.066-.026-.135-.049-.2-.073-.144-.053-.29-.1-.441-.151q-.121-.038-.244-.073c-.147-.043-.3-.082-.449-.12l-.248-.061c-.173-.039-.349-.073-.528-.107-.063-.012-.125-.026-.188-.037-.238-.041-.48-.076-.724-.107l-.225-.024c-.174-.019-.349-.037-.523-.05-.1-.008-.2-.013-.3-.02-.487-.03-.977-.043-1.463-.033q-.439.009-.877,0a14.094,14.094,0,0,0-6.133,1.112,5.058,5.058,0,0,0-2.543,3.026,20.339,20.339,0,0,0-.851,6.315v.423h19.929Z" transform="translate(-1180.404 -215.43)" fill="#fc0"/>
          </g>
        </g>
      </g>
    </g>
  </g>
</svg>
