<svg xmlns="http://www.w3.org/2000/svg" xmlns:xlink="http://www.w3.org/1999/xlink" width="121" height="121" viewBox="0 0 121 121">
  <defs>
    <clipPath id="clip-path">
      <rect id="Rectangle_400938" data-name="Rectangle 400938" width="121" height="121" transform="translate(0 0)" fill="none"/>
    </clipPath>
    <clipPath id="clip-path-2">
      <rect id="Rectangle_401073" data-name="Rectangle 401073" width="92.219" height="41.532" fill="#efb499"/>
    </clipPath>
  </defs>
  <g id="Group_1104220" data-name="Group 1104220" transform="translate(-1092.207 -2259.188)">
    <g id="Group_1102765" data-name="Group 1102765" transform="translate(704.539 -3753.812)">
      <rect id="Rectangle_401103" data-name="Rectangle 401103" width="121" height="121" transform="translate(387.668 6013)" fill="none"/>
      <g id="Group_1099348" data-name="Group 1099348" transform="translate(387.668 6013)">
        <g id="Group_1099282" data-name="Group 1099282">
          <g id="Group_1099281" data-name="Group 1099281" clip-path="url(#clip-path-2)">
            <path id="Path_873375" data-name="Path 873375" d="M74.8,9.1c-4.139,0-6.28-2.03-8.17-3.821-1.855-1.756-3.452-3.274-6.792-3.274s-4.937,1.517-6.792,3.274C51.161,7.072,49.023,9.1,44.881,9.1s-6.28-2.03-8.169-3.821C34.857,3.525,33.26,2.007,29.92,2.007s-4.937,1.517-6.789,3.274C21.241,7.072,19.1,9.1,14.962,9.1S8.679,7.072,6.789,5.281C4.937,3.525,3.34,2.007,0,2.007V0C4.139,0,6.28,2.033,8.17,3.821c1.855,1.759,3.452,3.274,6.792,3.274S19.9,5.58,21.75,3.824C23.637,2.033,25.781,0,29.92,0s6.283,2.033,8.17,3.821c1.855,1.759,3.452,3.274,6.792,3.274s4.937-1.514,6.792-3.274C53.56,2.033,55.7,0,59.843,0s6.283,2.033,8.17,3.821C69.867,5.58,71.464,7.094,74.8,7.094S79.742,5.58,81.6,3.821C83.483,2.033,85.624,0,89.766,0V2.007c-3.34,0-4.937,1.517-6.792,3.274C81.084,7.072,78.943,9.1,74.8,9.1" transform="translate(2.453 32.43)" fill="#efb499"/>
            <path id="Path_873376" data-name="Path 873376" d="M74.8,9.1c-4.139,0-6.283-2.03-8.17-3.824-1.855-1.756-3.452-3.27-6.792-3.27s-4.937,1.514-6.792,3.27C51.164,7.072,49.023,9.1,44.881,9.1s-6.283-2.03-8.17-3.824c-1.855-1.756-3.452-3.27-6.792-3.27s-4.937,1.517-6.789,3.27C21.241,7.072,19.1,9.1,14.962,9.1S8.679,7.072,6.789,5.278C4.937,3.522,3.34,2.007,0,2.007V0C4.139,0,6.283,2.03,8.17,3.821c1.855,1.759,3.452,3.274,6.792,3.274S19.9,5.58,21.75,3.821C23.637,2.03,25.781,0,29.92,0S36.2,2.03,38.093,3.821c1.852,1.759,3.449,3.274,6.789,3.274s4.937-1.514,6.792-3.274C53.56,2.03,55.7,0,59.843,0s6.283,2.03,8.17,3.821C69.867,5.58,71.464,7.094,74.8,7.094S79.742,5.58,81.6,3.821C83.486,2.03,85.627,0,89.769,0V2.007c-3.34,0-4.94,1.517-6.8,3.27C81.084,7.072,78.943,9.1,74.8,9.1" transform="translate(1.635 21.62)" fill="#efb499"/>
            <path id="Path_873377" data-name="Path 873377" d="M74.8,9.1c-4.139,0-6.283-2.03-8.169-3.824-1.855-1.756-3.452-3.27-6.792-3.27s-4.937,1.514-6.792,3.27C51.164,7.072,49.02,9.1,44.881,9.1s-6.283-2.03-8.17-3.824c-1.855-1.756-3.452-3.27-6.792-3.27s-4.937,1.517-6.789,3.27C21.241,7.072,19.1,9.1,14.962,9.1S8.678,7.072,6.789,5.278C4.937,3.522,3.34,2.007,0,2.007V0C4.139,0,6.283,2.03,8.169,3.821c1.851,1.759,3.452,3.274,6.792,3.274S19.9,5.58,21.75,3.821C23.637,2.03,25.781,0,29.92,0S36.2,2.03,38.093,3.821c1.852,1.759,3.449,3.274,6.789,3.274s4.937-1.514,6.792-3.274C53.56,2.03,55.7,0,59.843,0s6.283,2.03,8.17,3.821C69.867,5.58,71.464,7.094,74.8,7.094S79.742,5.58,81.6,3.821C83.486,2.03,85.624,0,89.769,0V2.007c-3.34,0-4.941,1.517-6.8,3.27C81.084,7.072,78.943,9.1,74.8,9.1" transform="translate(0.818 10.81)" fill="#efb499"/>
            <path id="Path_873378" data-name="Path 873378" d="M74.8,9.1c-4.139,0-6.28-2.03-8.17-3.821-1.855-1.756-3.452-3.27-6.792-3.27s-4.937,1.514-6.789,3.27C51.164,7.069,49.023,9.1,44.881,9.1s-6.28-2.03-8.169-3.821c-1.855-1.756-3.452-3.27-6.792-3.27s-4.937,1.514-6.789,3.267C21.245,7.069,19.1,9.1,14.962,9.1S8.678,7.069,6.789,5.278C4.937,3.522,3.34,2.007,0,2.007V0C4.139,0,6.283,2.03,8.17,3.821c1.855,1.756,3.452,3.27,6.792,3.27S19.9,5.577,21.75,3.821C23.64,2.03,25.781,0,29.92,0s6.28,2.03,8.173,3.821c1.852,1.756,3.449,3.27,6.789,3.27s4.937-1.514,6.792-3.27C53.563,2.03,55.7,0,59.843,0s6.28,2.03,8.17,3.821c1.855,1.756,3.452,3.27,6.792,3.27s4.937-1.514,6.792-3.27C83.486,2.03,85.627,0,89.769,0V2.007c-3.344,0-4.941,1.514-6.8,3.27C81.084,7.069,78.943,9.1,74.8,9.1" transform="translate(0 0.003)" fill="#efb499"/>
          </g>
        </g>
      </g>
      <circle id="Ellipse_11504" data-name="Ellipse 11504" cx="50.5" cy="50.5" r="50.5" transform="translate(402.668 6031)" fill="#ffce73"/>
      <circle id="Ellipse_11503" data-name="Ellipse 11503" cx="52.5" cy="52.5" r="52.5" transform="translate(395.668 6021)" fill="#f3f9ff"/>
    </g>
    <g id="Group_1102768" data-name="Group 1102768" transform="translate(1118.148 2284.992)">
      <rect id="Rectangle_401104" data-name="Rectangle 401104" width="68" height="69" transform="translate(0.477 -1.269)" fill="none"/>
      <g id="Group_1103718" data-name="Group 1103718" transform="translate(-2521.354 -114.895)">
        <path id="Path_894805" data-name="Path 894805" d="M2615.886,353.419h9.239c.713,0,1.3.24,1.339,1.029.042.866-.6,1.1-1.33,1.157-.232.017-.467,0-.7,0h-34.372a6.665,6.665,0,0,1-.8-.01c-.693-.084-1.27-.362-1.212-1.172.053-.729.584-1,1.262-1.005,1.469-.007,2.939,0,4.409,0h4.884V342.835a2.787,2.787,0,0,1-1.121-.166c-.362-.235-.818-.694-.8-1.036s.519-.723.882-.986c.177-.129.518-.037.786-.037h17.837c.2,0,.4,0,.6.006a1.008,1.008,0,0,1,1.106,1.036c.027.71-.428,1-1.06,1.089-.294.039-.592.045-.948.07Zm-14.963-10.608v10.553h5.269c0-1.11,0-2.166,0-3.223a1.468,1.468,0,0,0-.022-.592,1.616,1.616,0,0,0-.482-.542,1.034,1.034,0,0,1-.043-1.811c.192-.156.506-.339.513-.519.044-1.28.023-2.563.023-3.866Zm7.4,0c0,1.174-.043,2.268.025,3.356a1.669,1.669,0,0,0,.529,1.009,1.064,1.064,0,0,1-.04,1.828c-.208.161-.479.411-.487.629-.048,1.222-.023,2.447-.023,3.726h5.293V342.813Z" transform="translate(-51.35 -179.087)" fill="#6a4d23"/>
        <path id="Path_894806" data-name="Path 894806" d="M2622.106,120.87v-2h-5.3c0,2.177-.029,4.306.034,6.433.009.278.443.614.754.8q6.983,4.219,13.987,8.4c.172.1.34.212.513.313.634.371.953.905.561,1.582-.4.7-1.047.614-1.656.254-1.809-1.071-3.609-2.156-5.411-3.238-3.032-1.821-6.071-3.631-9.086-5.479a1.281,1.281,0,0,0-1.537,0c-4.65,2.82-9.32,5.609-13.983,8.409-.172.1-.339.214-.514.31-.622.338-1.256.43-1.656-.27-.39-.683-.051-1.2.575-1.578q4.251-2.546,8.5-5.1c1.945-1.168,3.868-2.375,5.848-3.481a1.663,1.663,0,0,0,.958-1.742c-.062-2.1-.029-4.207-.016-6.311.007-1.228.323-1.538,1.546-1.542q3.256-.013,6.513,0c1.224,0,1.548.324,1.563,1.541.015,1.135.018,2.271,0,3.406-.018,1.1-.372,1.459-1.434,1.475-1.2.018-2.405.006-3.608,0-.707,0-1.294-.221-1.328-1.031-.037-.88.594-1.127,1.324-1.15C2620.174,120.848,2621.1,120.87,2622.106,120.87Z" transform="translate(-59.823 0)" fill="#6a4d23"/>
        <path id="Path_894807" data-name="Path 894807" d="M2782.452,238.481c-3.734,0-7.3,0-10.875-.006a2.425,2.425,0,0,1-1.166-.153c-.32-.19-.708-.649-.676-.948a1.727,1.727,0,0,1,.771-1.008c.233-.161.646-.074.979-.074,3.6,0,7.206,0,10.882,0,.034-.344.062-.628.091-.913.069-.675.37-1.187,1.105-1.177s1.04.506,1.055,1.2c0,.234,0,.468,0,.7q0,18.381,0,36.761c0,1.356-.316,1.909-1.083,1.9s-1.088-.569-1.088-1.918q0-16.477,0-32.955Z" transform="translate(-196.642 -94.02)" fill="#6a4d23"/>
        <path id="Path_894808" data-name="Path 894808" d="M2528.24,330.55a4.52,4.52,0,0,1,0-.6c.182-1.38-.045-2.322-1.615-2.955a4.356,4.356,0,0,1-2.588-4.212,28.8,28.8,0,0,1,1.546-10.432,9.044,9.044,0,0,1,1.606-2.728,2.77,2.77,0,0,1,4.311-.035,9.193,9.193,0,0,1,2.3,5.126c.405,2.461.671,4.954.832,7.443a5.05,5.05,0,0,1-3.522,5.342.9.9,0,0,0-.7,1.01c.042,1.435.007,2.871.016,4.307,0,.755-.223,1.383-1.068,1.4s-1.1-.633-1.12-1.365C2528.224,332.087,2528.24,331.318,2528.24,330.55Zm4.282-9.525a25.13,25.13,0,0,0-1.742-8.711,6.742,6.742,0,0,0-1.408-1.533c-.487.493-.975.985-1.459,1.482a.548.548,0,0,0-.08.182,26.658,26.658,0,0,0-1.646,10.089,3.1,3.1,0,0,0,2.99,3.137,3.141,3.141,0,0,0,3.337-2.894C2532.569,322.184,2532.522,321.579,2532.522,321.025Z" transform="translate(-0.166 -153.495)" fill="#6a4d23"/>
        <path id="Path_894809" data-name="Path 894809" d="M2590.455,428h-21.542c-.333,0-.738.1-.984-.047-.378-.231-.881-.631-.9-.977s.447-.8.8-1.057c.227-.165.644-.086.977-.086q21.641,0,43.283,0c.3,0,.686-.09.881.059.378.289.9.728.891,1.087s-.587.736-.988.99c-.216.137-.586.032-.886.032Z" transform="translate(-34.548 -247.241)" fill="#6a4d23"/>
        <path id="Path_894810" data-name="Path 894810" d="M2747.858,240.832q0-7.558,0-15.117c0-.3-.1-.672.039-.885.242-.372.62-.875.968-.9s.791.432,1.049.783c.166.226.092.643.092.975q.005,15.217,0,30.434c0,.167.005.334,0,.5-.039.726-.229,1.385-1.118,1.344-.864-.039-1.034-.676-1.033-1.421Q2747.865,248.69,2747.858,240.832Z" transform="translate(-179.12 -85.808)" fill="#6a4d23"/>
        <path id="Path_894811" data-name="Path 894811" d="M2611.3,245.426q0,7.357,0,14.713c0,.333.095.74-.059.981-.224.349-.625.782-.969.8s-.778-.39-1-.726a2.11,2.11,0,0,1-.119-1.072q-.007-14.663,0-29.327c0-.1,0-.2,0-.3.012-.772.078-1.584,1.093-1.57s1.063.8,1.062,1.587Q2611.291,237.97,2611.3,245.426Z" transform="translate(-68.222 -89.802)" fill="#6a4d23"/>
        <path id="Path_894812" data-name="Path 894812" d="M2526,238.522c0,2.528,0,4.923,0,7.317,0,.334.012.668-.007,1-.043.724-.364,1.25-1.155,1.211-.732-.037-1.009-.548-1.008-1.242q0-3.9,0-7.8c0-1.1.009-2.2,0-3.3-.008-.733.137-1.406,1-1.45.92-.047,1.151.623,1.174,1.4.006.194.041.386.073.673h4.712c2.135,0,4.27.009,6.4,0,.806-.005,1.572.123,1.557,1.1s-.807,1.092-1.593,1.092H2526Z" transform="translate(0 -94.061)" fill="#6a4d23"/>
        <path id="Path_894813" data-name="Path 894813" d="M2786.364,350.215c0,.966-.007,1.933,0,2.9a1.181,1.181,0,0,1-1.335,1.36c-1.266,0-2.533.012-3.8-.005a1.163,1.163,0,0,1-1.284-1.312c0-1.966.007-3.932,0-5.9a1.21,1.21,0,0,1,1.346-1.369c1.267-.019,2.533-.021,3.8,0a1.164,1.164,0,0,1,1.276,1.325C2786.357,348.216,2786.364,349.216,2786.364,350.215Zm-2.186-2.105h-2v4.1h2Z" transform="translate(-204.807 -183.323)" fill="#6a4d23"/>
        <path id="Path_894814" data-name="Path 894814" d="M2786.357,286.262c0,1,0,2,0,3a1.106,1.106,0,0,1-1.239,1.234q-1.948.009-3.9,0a1.145,1.145,0,0,1-1.279-1.3c0-1.964.011-3.928,0-5.893a1.168,1.168,0,0,1,1.253-1.344c1.3-.032,2.6-.025,3.9,0a1.153,1.153,0,0,1,1.275,1.317C2786.347,284.265,2786.358,285.264,2786.357,286.262Zm-2.225,2.036v-4.144h-1.956V288.3Z" transform="translate(-204.801 -132.189)" fill="#6a4d23"/>
        <path id="Path_894815" data-name="Path 894815" d="M2647.605,216.971c0,.966-.018,1.932.005,2.9a1.167,1.167,0,0,1-1.251,1.347q-1.947.06-3.9,0a1.2,1.2,0,0,1-1.262-1.36c0-1.964-.005-3.929,0-5.893a1.19,1.19,0,0,1,1.369-1.332c1.232.013,2.464.008,3.7,0a1.167,1.167,0,0,1,1.337,1.345C2647.6,214.973,2647.605,215.972,2647.605,216.971ZM2645.448,219v-4.131h-2.032V219Z" transform="translate(-93.857 -76.769)" fill="#6a4d23"/>
        <path id="Path_894816" data-name="Path 894816" d="M2694.708,216.875c0-1,0-2,0-3a1.107,1.107,0,0,1,1.234-1.237c1.3-.01,2.6,0,3.9,0a1.126,1.126,0,0,1,1.259,1.23c.022,2.031.015,4.062,0,6.093a1.164,1.164,0,0,1-1.257,1.258c-1.3.037-2.6.041-3.9,0a1.167,1.167,0,0,1-1.249-1.349C2694.726,218.873,2694.708,217.874,2694.708,216.875Zm4.181,2.13v-4.115h-2.013V219Z" transform="translate(-136.64 -76.776)" fill="#6a4d23"/>
        <path id="Path_894817" data-name="Path 894817" d="M2647.595,280.948c0,1-.009,2,0,3.006a1.108,1.108,0,0,1-1.2,1.281q-2,.036-4.008,0a1.1,1.1,0,0,1-1.189-1.2q-.028-3.055,0-6.112a1.128,1.128,0,0,1,1.265-1.231c1.3,0,2.606-.012,3.908,0a1.1,1.1,0,0,1,1.222,1.253C2647.59,278.944,2647.594,279.946,2647.595,280.948Zm-4.18-2.053v4.131h2.011v-4.131Z" transform="translate(-93.848 -127.99)" fill="#6a4d23"/>
        <path id="Path_894818" data-name="Path 894818" d="M2694.713,280.906c0-.935-.011-1.87,0-2.805.015-1.057.336-1.4,1.354-1.42,1.236-.021,2.472,0,3.708-.006a1.161,1.161,0,0,1,1.333,1.269q.02,3.006,0,6.012a1.169,1.169,0,0,1-1.328,1.281c-1.27,0-2.539.012-3.809,0a1.141,1.141,0,0,1-1.264-1.321C2694.727,282.91,2694.714,281.908,2694.713,280.906Zm2.132,2.123h2.059v-4.113h-2.059Z" transform="translate(-136.646 -127.982)" fill="#6a4d23"/>
        <path id="Path_894819" data-name="Path 894819" d="M2560.035,278.885H2558c-.037.4.049.841-.132,1.091-.27.374-.716.823-1.107.843-.3.015-.834-.536-.913-.91a8.535,8.535,0,0,1-.038-2.191,1.029,1.029,0,0,1,1.118-1.041c1.367-.023,2.736-.032,4.1,0,.808.019,1.181.5,1.178,1.306q-.01,2.951,0,5.9c0,.734-.284,1.277-1.066,1.294-.809.017-1.082-.586-1.093-1.279C2560.017,282.271,2560.035,280.639,2560.035,278.885Z" transform="translate(-25.527 -127.971)" fill="#6a4d23"/>
      </g>
    </g>
  </g>
</svg>
