<svg xmlns="http://www.w3.org/2000/svg" xmlns:xlink="http://www.w3.org/1999/xlink" width="139" height="139" viewBox="0 0 139 139">
  <defs>
    <clipPath id="clip-path">
      <rect id="Rectangle_400938" data-name="Rectangle 400938" width="139" height="139" transform="translate(-0.043 -0.043)" fill="none"/>
    </clipPath>
    <clipPath id="clip-path-2">
      <rect id="Rectangle_401073" data-name="Rectangle 401073" width="105.872" height="47.68" fill="#7d3a1b"/>
    </clipPath>
  </defs>
  <g id="Group_1104218" data-name="Group 1104218" transform="translate(-318 -2732)">
    <g id="Group_1104193" data-name="Group 1104193">
      <g id="Group_1099388" data-name="Group 1099388" transform="translate(53.043 -2551.957)">
        <g id="Group_1099379" data-name="Group 1099379" transform="translate(265 5284)">
          <rect id="Rectangle_401103" data-name="Rectangle 401103" width="139" height="139" transform="translate(-0.043 -0.043)" fill="none"/>
          <g id="Group_1099348" data-name="Group 1099348" transform="translate(0)">
            <g id="Group_1099282" data-name="Group 1099282">
              <g id="Group_1099281" data-name="Group 1099281" clip-path="url(#clip-path-2)">
                <path id="Path_873375" data-name="Path 873375" d="M85.879,10.449c-4.752,0-7.21-2.33-9.379-4.386C74.371,4.047,72.538,2.3,68.7,2.3s-5.668,1.742-7.8,3.758c-2.17,2.056-4.624,4.386-9.379,4.386s-7.21-2.33-9.379-4.386C40.018,4.047,38.184,2.3,34.349,2.3s-5.668,1.742-7.794,3.758c-2.17,2.056-4.627,4.386-9.379,4.386S9.963,8.119,7.794,6.063C5.668,4.047,3.835,2.3,0,2.3V0C4.752,0,7.21,2.334,9.379,4.386c2.129,2.02,3.963,3.758,7.8,3.758s5.668-1.738,7.794-3.755C27.136,2.334,29.6,0,34.349,0s7.213,2.334,9.379,4.386c2.129,2.02,3.963,3.758,7.8,3.758s5.668-1.738,7.8-3.758C61.489,2.334,63.951,0,68.7,0s7.213,2.334,9.379,4.386c2.129,2.02,3.963,3.758,7.8,3.758s5.668-1.738,7.8-3.758C95.843,2.334,98.3,0,103.056,0V2.3c-3.835,0-5.668,1.742-7.8,3.758-2.169,2.056-4.627,4.386-9.379,4.386" transform="translate(2.816 37.231)" fill="#7d3a1b"/>
                <path id="Path_873376" data-name="Path 873376" d="M85.879,10.449c-4.752,0-7.213-2.33-9.379-4.39C74.371,4.043,72.538,2.3,68.7,2.3s-5.668,1.738-7.8,3.755c-2.166,2.06-4.624,4.39-9.379,4.39s-7.213-2.33-9.379-4.39C40.018,4.043,38.184,2.3,34.349,2.3s-5.668,1.742-7.794,3.755c-2.17,2.06-4.627,4.39-9.379,4.39s-7.213-2.33-9.383-4.39C5.668,4.043,3.835,2.3,0,2.3V0C4.752,0,7.213,2.33,9.379,4.386c2.129,2.02,3.963,3.758,7.8,3.758s5.668-1.738,7.794-3.758C27.136,2.33,29.6,0,34.349,0s7.213,2.33,9.383,4.386c2.126,2.02,3.959,3.758,7.794,3.758s5.668-1.738,7.8-3.758C61.489,2.33,63.951,0,68.7,0s7.213,2.33,9.379,4.386c2.129,2.02,3.963,3.758,7.8,3.758s5.668-1.738,7.8-3.758C95.846,2.33,98.3,0,103.059,0V2.3c-3.835,0-5.672,1.742-7.8,3.755-2.169,2.06-4.628,4.39-9.379,4.39" transform="translate(1.877 24.821)" fill="#7d3a1b"/>
                <path id="Path_873377" data-name="Path 873377" d="M85.879,10.449c-4.752,0-7.213-2.33-9.379-4.39C74.371,4.043,72.538,2.3,68.7,2.3s-5.668,1.738-7.8,3.755c-2.166,2.06-4.627,4.39-9.379,4.39s-7.213-2.33-9.379-4.39C40.018,4.043,38.184,2.3,34.349,2.3s-5.668,1.742-7.794,3.755c-2.169,2.06-4.627,4.39-9.379,4.39s-7.213-2.33-9.383-4.39C5.668,4.043,3.835,2.3,0,2.3V0C4.752,0,7.213,2.33,9.379,4.386c2.126,2.02,3.963,3.758,7.8,3.758s5.668-1.738,7.794-3.758C27.136,2.33,29.6,0,34.349,0s7.213,2.33,9.383,4.386c2.126,2.02,3.959,3.758,7.794,3.758s5.668-1.738,7.8-3.758C61.489,2.33,63.951,0,68.7,0s7.213,2.33,9.379,4.386c2.129,2.02,3.963,3.758,7.8,3.758s5.668-1.738,7.8-3.758C95.846,2.33,98.3,0,103.059,0V2.3c-3.835,0-5.672,1.742-7.8,3.755-2.169,2.06-4.627,4.39-9.379,4.39" transform="translate(0.939 12.41)" fill="#7d3a1b"/>
                <path id="Path_873378" data-name="Path 873378" d="M85.879,10.445c-4.752,0-7.21-2.33-9.379-4.386C74.371,4.043,72.538,2.3,68.7,2.3s-5.668,1.738-7.794,3.755c-2.169,2.056-4.627,4.386-9.383,4.386s-7.21-2.33-9.379-4.386C40.018,4.043,38.184,2.3,34.349,2.3s-5.668,1.738-7.794,3.751c-2.166,2.06-4.627,4.39-9.379,4.39S9.963,8.115,7.794,6.059C5.668,4.043,3.835,2.3,0,2.3V0C4.752,0,7.213,2.33,9.379,4.386c2.129,2.016,3.963,3.755,7.8,3.755S22.845,6.4,24.971,4.386C27.14,2.33,29.6,0,34.349,0s7.21,2.33,9.383,4.386c2.126,2.016,3.959,3.755,7.794,3.755s5.668-1.738,7.8-3.755C61.493,2.33,63.951,0,68.7,0s7.21,2.33,9.379,4.386c2.129,2.016,3.963,3.755,7.8,3.755s5.668-1.738,7.8-3.755C95.846,2.33,98.3,0,103.059,0V2.3c-3.839,0-5.672,1.738-7.8,3.755-2.169,2.056-4.627,4.386-9.379,4.386" transform="translate(0 0.004)" fill="#7d3a1b"/>
              </g>
            </g>
          </g>
          <path id="Path_873425" data-name="Path 873425" d="M57.977,0A57.977,57.977,0,1,1,0,57.977,57.977,57.977,0,0,1,57.977,0Z" transform="translate(17.221 20.665)" fill="#ffe2b7"/>
          <circle id="Ellipse_11503" data-name="Ellipse 11503" cx="60.5" cy="60.5" r="60.5" transform="translate(8.957 8.957)" fill="#fff"/>
        </g>
      </g>
      <g id="Group_1099390" data-name="Group 1099390" transform="translate(0 -3662)">
        <g id="Group_1099389" data-name="Group 1099389" transform="translate(347.518 6422.743)">
          <rect id="Rectangle_401104" data-name="Rectangle 401104" width="78" height="79" transform="translate(0.107 0.256)" fill="none"/>
        </g>
        <g id="Group_1103134" data-name="Group 1103134" transform="translate(-3957.72 5611.703)">
          <path id="Path_893647" data-name="Path 893647" d="M4380.826,823.3a11.9,11.9,0,0,0-11.922-11.953c-16-.068-32.3-.067-48.458,0a11.948,11.948,0,0,0-12.02,11.923c-.108,13.139-.108,26.89,0,40.871a11.958,11.958,0,0,0,10.7,11.758c1.413.177,2.827.218,4.323.26.555.016,1.118.032,1.692.056-.035.105-.07.208-.1.31-.153.459-.3.892-.458,1.308-.374.971-.754,1.939-1.133,2.908-.9,2.291-1.826,4.66-2.672,7.016a2.511,2.511,0,0,0,.382,2.337,1.032,1.032,0,0,0,.677.2,5.275,5.275,0,0,0,1.168-.2c.146-.035.289-.07.42-.1a1.612,1.612,0,0,0,.7-.418c.068-.059.136-.118.206-.169q2.121-1.553,4.238-3.111c4.078-3,8.295-6.1,12.491-9.074a6.15,6.15,0,0,1,3.254-1.062c4.248-.051,8.567-.047,12.747-.043,3.606,0,7.335.008,11-.024,7.481-.066,12.733-5.05,12.771-12.121C4380.907,850.269,4380.9,836.583,4380.826,823.3Zm-51.665,50.068c-.371-.544-1.138-.791-2.49-.8q-.585,0-1.17,0-.752,0-1.5,0c-1.241.005-2.524.01-3.783-.017a8.421,8.421,0,0,1-8.2-7.416,21.7,21.7,0,0,1-.149-2.8c-.009-11.844-.011-24.377,0-37.251,0-7.047,3.311-10.329,10.409-10.329h6.459q19.381,0,38.762,0c6.532,0,9.986,3.452,9.988,9.979q0,5.609-.024,11.217c-.03,8.784-.062,17.868.1,26.8a9.995,9.995,0,0,1-2.874,7.327,9.35,9.35,0,0,1-7.086,2.562c-6.653-.254-13.428-.165-19.979-.078q-2.082.027-4.163.052a6.461,6.461,0,0,0-3.47,1.125c-3.623,2.559-7.184,5.18-10.954,7.955q-1.548,1.139-3.145,2.312l.738-1.905c.844-2.175,1.618-4.173,2.389-6.174C4329.479,874.694,4329.526,873.907,4329.161,873.369Z" transform="translate(0)" fill="#6a4d23"/>
          <path id="Path_893648" data-name="Path 893648" d="M4410.636,893.785a2.308,2.308,0,0,0-2.384.283,5.631,5.631,0,0,1-6.7-.013,2.372,2.372,0,0,0-2.437-.227,2.491,2.491,0,0,0-1.167,2.283c-.024,3.821-.022,7.7-.021,11.46q0,4.227-.005,8.454a2.447,2.447,0,0,0,.606,1.836,2.542,2.542,0,0,0,1.871.6h.081c3.054-.044,6.049-.044,8.9,0a2.468,2.468,0,0,0,1.894-.578,2.494,2.494,0,0,0,.563-1.9c-.054-2.322-.043-4.688-.032-6.975q.007-1.439.009-2.878t0-2.867c0-2.293.006-4.664-.007-7A2.7,2.7,0,0,0,4410.636,893.785Zm-2.28,4.57v16.533h-6.709V898.356Z" transform="translate(-60.232 -55.32)" fill="#6a4d23"/>
          <path id="Path_893649" data-name="Path 893649" d="M4404.835,860.059h.007a6.988,6.988,0,0,0,4.889-11.9,6.864,6.864,0,0,0-4.9-2.013h-.007a6.976,6.976,0,0,0-4.929,2.059,6.841,6.841,0,0,0-2.068,4.889A7.173,7.173,0,0,0,4404.835,860.059Zm3.55-6.931a3.552,3.552,0,0,1-3.44,3.455,3.439,3.439,0,0,1-2.5-.945,3.477,3.477,0,0,1-1.049-2.5,3.545,3.545,0,0,1,1-2.563,3.407,3.407,0,0,1,2.446-1h0a3.576,3.576,0,0,1,2.516,1.078A3.45,3.45,0,0,1,4408.386,853.128Z" transform="translate(-60.171 -23.437)" fill="#6a4d23"/>
          <path id="Path_893650" data-name="Path 893650" d="M4471.888,835.218a2.993,2.993,0,0,0,1.376.915,7.324,7.324,0,0,0,1.429.121c.347,0,.693-.014,1.034-.029s.663-.028.991-.028.673.014,1,.028a9.824,9.824,0,0,0,2.453-.1,2.757,2.757,0,0,0,1.326-.988c.163-.178.315-.346.472-.486l.278-.249-.283-.243a5.783,5.783,0,0,1-.456-.463,2.176,2.176,0,0,0-1.29-.888,54.692,54.692,0,0,0-7.028,0c-.524.035-.94.5-1.343.953a6.247,6.247,0,0,1-.479.5l-.294.26.307.243C4471.552,834.895,4471.715,835.052,4471.888,835.218Z" transform="translate(-109.425 -14.389)" fill="#6a4d23"/>
          <path id="Path_893651" data-name="Path 893651" d="M4481.608,849.649a2.586,2.586,0,0,0-1.271-.9,11.189,11.189,0,0,0-2.46-.089c-.331.012-.662.025-.991.025l-.261.008c-.275,0-.551-.013-.826-.022a13.684,13.684,0,0,0-2.735.093,2.255,2.255,0,0,0-1.211.976,5.875,5.875,0,0,1-.412.482l-.237.237.242.232a5.524,5.524,0,0,1,.4.451c.346.42.7.855,1.172.88,1.289.067,2.557.1,3.795.1s2.438-.034,3.6-.1c.492-.028.87-.5,1.234-.956a5.814,5.814,0,0,1,.426-.5l.255-.251-.272-.232C4481.909,849.965,4481.764,849.811,4481.608,849.649Z" transform="translate(-109.51 -25.109)" fill="#6a4d23"/>
        </g>
      </g>
    </g>
  </g>
</svg>
