<svg xmlns="http://www.w3.org/2000/svg" xmlns:xlink="http://www.w3.org/1999/xlink" width="139" height="139" viewBox="0 0 139 139">
  <defs>
    <clipPath id="clip-path">
      <rect id="Rectangle_400938" data-name="Rectangle 400938" width="139" height="139" transform="translate(-0.043 -0.043)" fill="none"/>
    </clipPath>
    <clipPath id="clip-path-2">
      <rect id="Rectangle_401073" data-name="Rectangle 401073" width="105.872" height="47.68" fill="#7d3a1b"/>
    </clipPath>
  </defs>
  <g id="Group_1104219" data-name="Group 1104219" transform="translate(-731 -2732)">
    <g id="Group_1104194" data-name="Group 1104194">
      <g id="Group_1099391" data-name="Group 1099391" transform="translate(466.043 -2551.957)">
        <g id="Group_1099379" data-name="Group 1099379" transform="translate(265 5284)">
          <rect id="Rectangle_401103" data-name="Rectangle 401103" width="139" height="139" transform="translate(-0.043 -0.043)" fill="none"/>
          <g id="Group_1099348" data-name="Group 1099348" transform="translate(0)">
            <g id="Group_1099282" data-name="Group 1099282">
              <g id="Group_1099281" data-name="Group 1099281" clip-path="url(#clip-path-2)">
                <path id="Path_873375" data-name="Path 873375" d="M85.879,10.449c-4.752,0-7.21-2.33-9.379-4.386C74.371,4.047,72.538,2.3,68.7,2.3s-5.668,1.742-7.8,3.758c-2.17,2.056-4.624,4.386-9.379,4.386s-7.21-2.33-9.379-4.386C40.018,4.047,38.184,2.3,34.349,2.3s-5.668,1.742-7.794,3.758c-2.17,2.056-4.627,4.386-9.379,4.386S9.963,8.119,7.794,6.063C5.668,4.047,3.835,2.3,0,2.3V0C4.752,0,7.21,2.334,9.379,4.386c2.129,2.02,3.963,3.758,7.8,3.758s5.668-1.738,7.794-3.755C27.136,2.334,29.6,0,34.349,0s7.213,2.334,9.379,4.386c2.129,2.02,3.963,3.758,7.8,3.758s5.668-1.738,7.8-3.758C61.489,2.334,63.951,0,68.7,0s7.213,2.334,9.379,4.386c2.129,2.02,3.963,3.758,7.8,3.758s5.668-1.738,7.8-3.758C95.843,2.334,98.3,0,103.056,0V2.3c-3.835,0-5.668,1.742-7.8,3.758-2.169,2.056-4.627,4.386-9.379,4.386" transform="translate(2.816 37.231)" fill="#7d3a1b"/>
                <path id="Path_873376" data-name="Path 873376" d="M85.879,10.449c-4.752,0-7.213-2.33-9.379-4.39C74.371,4.043,72.538,2.3,68.7,2.3s-5.668,1.738-7.8,3.755c-2.166,2.06-4.624,4.39-9.379,4.39s-7.213-2.33-9.379-4.39C40.018,4.043,38.184,2.3,34.349,2.3s-5.668,1.742-7.794,3.755c-2.17,2.06-4.627,4.39-9.379,4.39s-7.213-2.33-9.383-4.39C5.668,4.043,3.835,2.3,0,2.3V0C4.752,0,7.213,2.33,9.379,4.386c2.129,2.02,3.963,3.758,7.8,3.758s5.668-1.738,7.794-3.758C27.136,2.33,29.6,0,34.349,0s7.213,2.33,9.383,4.386c2.126,2.02,3.959,3.758,7.794,3.758s5.668-1.738,7.8-3.758C61.489,2.33,63.951,0,68.7,0s7.213,2.33,9.379,4.386c2.129,2.02,3.963,3.758,7.8,3.758s5.668-1.738,7.8-3.758C95.846,2.33,98.3,0,103.059,0V2.3c-3.835,0-5.672,1.742-7.8,3.755-2.169,2.06-4.628,4.39-9.379,4.39" transform="translate(1.877 24.821)" fill="#7d3a1b"/>
                <path id="Path_873377" data-name="Path 873377" d="M85.879,10.449c-4.752,0-7.213-2.33-9.379-4.39C74.371,4.043,72.538,2.3,68.7,2.3s-5.668,1.738-7.8,3.755c-2.166,2.06-4.627,4.39-9.379,4.39s-7.213-2.33-9.379-4.39C40.018,4.043,38.184,2.3,34.349,2.3s-5.668,1.742-7.794,3.755c-2.169,2.06-4.627,4.39-9.379,4.39s-7.213-2.33-9.383-4.39C5.668,4.043,3.835,2.3,0,2.3V0C4.752,0,7.213,2.33,9.379,4.386c2.126,2.02,3.963,3.758,7.8,3.758s5.668-1.738,7.794-3.758C27.136,2.33,29.6,0,34.349,0s7.213,2.33,9.383,4.386c2.126,2.02,3.959,3.758,7.794,3.758s5.668-1.738,7.8-3.758C61.489,2.33,63.951,0,68.7,0s7.213,2.33,9.379,4.386c2.129,2.02,3.963,3.758,7.8,3.758s5.668-1.738,7.8-3.758C95.846,2.33,98.3,0,103.059,0V2.3c-3.835,0-5.672,1.742-7.8,3.755-2.169,2.06-4.627,4.39-9.379,4.39" transform="translate(0.939 12.41)" fill="#7d3a1b"/>
                <path id="Path_873378" data-name="Path 873378" d="M85.879,10.445c-4.752,0-7.21-2.33-9.379-4.386C74.371,4.043,72.538,2.3,68.7,2.3s-5.668,1.738-7.794,3.755c-2.169,2.056-4.627,4.386-9.383,4.386s-7.21-2.33-9.379-4.386C40.018,4.043,38.184,2.3,34.349,2.3s-5.668,1.738-7.794,3.751c-2.166,2.06-4.627,4.39-9.379,4.39S9.963,8.115,7.794,6.059C5.668,4.043,3.835,2.3,0,2.3V0C4.752,0,7.213,2.33,9.379,4.386c2.129,2.016,3.963,3.755,7.8,3.755S22.845,6.4,24.971,4.386C27.14,2.33,29.6,0,34.349,0s7.21,2.33,9.383,4.386c2.126,2.016,3.959,3.755,7.794,3.755s5.668-1.738,7.8-3.755C61.493,2.33,63.951,0,68.7,0s7.21,2.33,9.379,4.386c2.129,2.016,3.963,3.755,7.8,3.755s5.668-1.738,7.8-3.755C95.846,2.33,98.3,0,103.059,0V2.3c-3.839,0-5.672,1.738-7.8,3.755-2.169,2.056-4.627,4.386-9.379,4.386" transform="translate(0 0.004)" fill="#7d3a1b"/>
              </g>
            </g>
          </g>
          <path id="Path_873425" data-name="Path 873425" d="M57.977,0A57.977,57.977,0,1,1,0,57.977,57.977,57.977,0,0,1,57.977,0Z" transform="translate(17.221 20.665)" fill="#efb499"/>
          <circle id="Ellipse_11503" data-name="Ellipse 11503" cx="60.5" cy="60.5" r="60.5" transform="translate(8.957 8.957)" fill="#fff"/>
        </g>
      </g>
      <g id="Group_1099392" data-name="Group 1099392" transform="translate(413 -3662)">
        <g id="Group_1099389" data-name="Group 1099389" transform="translate(347.518 6422.743)">
          <rect id="Rectangle_401104" data-name="Rectangle 401104" width="78" height="79" transform="translate(0.107 0.256)" fill="none"/>
        </g>
        <g id="Group_1103133" data-name="Group 1103133" transform="translate(-3930.862 5993.765)">
          <path id="Path_893645" data-name="Path 893645" d="M4305.6,507.2c-1.32-2.275-2.665-4.538-3.948-6.835a1.153,1.153,0,0,0-1.4-.694c-2.584.486-5.167.98-7.767,1.376a2.261,2.261,0,0,1-1.784-.38,2.1,2.1,0,0,1,.023-1.792c2.412-5.323,4.89-10.616,7.347-15.918.208-.449.4-.907.646-1.47-.887-.393-1.7-.779-2.541-1.121a7.579,7.579,0,0,1-4.535-5.029,3.088,3.088,0,0,0-.977-1.31c-2.553-2.142-5.24-4.137-7.681-6.4a11.345,11.345,0,0,1-3.308-5.938,7.155,7.155,0,0,1,8.607-8.686,2.009,2.009,0,0,0,2.438-.736,15.625,15.625,0,0,1,2.727-2.578c2.111-1.674,2.566-4.084,3.157-6.492a14.937,14.937,0,0,1,1.555-4.178,6.558,6.558,0,0,1,5.442-3.11,29.95,29.95,0,0,0,4.245-.316,15.277,15.277,0,0,0,4.029-1.5c1.235-.671,2.269-1.7,3.442-2.5a7.16,7.16,0,0,1,8.554.123c6.391,4.821,4.505,3.536,11.754,4.195a7.361,7.361,0,0,1,6.318,5.31c.405,1.4.553,2.89,1.072,4.242a15.273,15.273,0,0,0,2.037,3.639,19.373,19.373,0,0,0,2.619,2.513,7.411,7.411,0,0,1,2.613,6.948,1.922,1.922,0,0,0-.019.374,2.071,2.071,0,0,0,.1.337c1.038.062,2.112.151,3.189.185a1.864,1.864,0,0,1,1.971,1.231,1.956,1.956,0,0,1-.837,2.293c-1.451,1.13-2.837,2.346-4.321,3.429a1.461,1.461,0,0,0-.6,1.888c.5,1.633.888,3.3,1.374,4.943.291.979.452,1.907-.484,2.616s-1.807.331-2.641-.258a5.333,5.333,0,0,0-.532-.3c-1.42,2.877-1.42,2.877-5.631,5.667q2.521,5.891,5.058,11.815c.493,1.151,1.056,2.279,1.449,3.464a2.2,2.2,0,0,1-.071,1.712,1.885,1.885,0,0,1-1.562.354q-3.818-.689-7.6-1.562a1.5,1.5,0,0,0-1.923.8c-1.216,2.094-2.487,4.16-3.835,6.172-.4.593-1.169,1.381-1.687,1.325-.542-.058-1.154-.952-1.443-1.609-1.675-3.822-3.28-7.676-4.87-11.536a2.148,2.148,0,0,0-1.559-1.422c-2.086-.544-4.1-1.424-6.357-.669a2.384,2.384,0,0,0-1.574,1.4q-3.733,8-7.513,15.981Zm30.092-47.948c-.234-1.106-.383-2.09-.652-3.039a16.208,16.208,0,0,0-30.574-1.432,1.738,1.738,0,0,0-.066,1.265,8.576,8.576,0,0,1-.081,8.5,2.235,2.235,0,0,0-.146,1.51c1.848,6.113,8.1,10.738,14.745,10.967,6.727.231,13.284-3.972,15.526-10.009a1.386,1.386,0,0,0-.315-1.214c-1.148-1.032-2.461-1.889-3.549-2.974a2.847,2.847,0,0,1-.767-2.038c.091-.888.916-1.3,1.866-1.327C4332.966,459.425,4334.25,459.33,4335.695,459.251Zm-33.622,8.8c-2.216,1.751-4.437,3.565-6.726,5.29-1.433,1.08-1.69,1.6-.414,2.9a10.017,10.017,0,0,0,3.6,2.329,13.382,13.382,0,0,1,7.743,6.534c.153.3.362.561.543.842,1.752,2.716,3.608,3.428,6.726,2.4,3.423-1.123,6.822-2.008,10.358-.471a17.32,17.32,0,0,0,2.022.659,4.968,4.968,0,0,0,5.987-2.171c.721-1.077,1.449-2.149,2.137-3.246a8.849,8.849,0,0,1,4.142-3.506c1.229-.523,2.46-1.043,3.684-1.58a4.84,4.84,0,0,0,2.9-3.092c.179-.593.553-1.259-.256-1.63-.842-.386-1.417-1.642-2.7-.7-1.579,1.162-3.273,2.166-4.916,3.242a1.778,1.778,0,0,1-2.212-.005,1.758,1.758,0,0,1-.619-2.121,12.307,12.307,0,0,0,.278-1.3C4324.808,483.9,4307.289,480.8,4302.073,468.053Zm41.949-16.437a9.477,9.477,0,0,1-3.409-5.173c-.275-1.262-.616-2.51-.9-3.772-.6-2.708-2.181-4.243-4.951-4.229a16.914,16.914,0,0,1-12.014-4.38,4.57,4.57,0,0,0-6.507.007c-3.24,2.768-6.776,4.534-11.14,4.266a3.55,3.55,0,0,0-.5.045c-3.364.276-4.87,1.415-5.4,4.795a14.639,14.639,0,0,1-5.715,9.905,7.241,7.241,0,0,0-.991.957,3.957,3.957,0,0,0-.4.668l.14.4c3.1-2.154,6.319-3.286,9.809-1.359,3.595-7.372,9.252-11.77,17.407-11.592,10.793.235,16.755,6.515,18.955,17.1l2.249-5.877C4341.392,451.447,4341.838,451.191,4344.022,451.616Zm-40.8,8.753c-.242-3.235-2.746-5.645-5.543-4.986a10.329,10.329,0,0,0-3.555,1.694c-1.676,1.209-1.584,1.28-3.141.024a9.119,9.119,0,0,0-2.112-1.318c-3.2-1.359-6.235.27-6.787,3.628a6.278,6.278,0,0,0,1.2,4.493c2.21,3.4,5.365,5.794,8.733,7.93a1.145,1.145,0,0,0,1.008-.011c3.292-2.1,6.423-4.406,8.569-7.742A24.63,24.63,0,0,0,4303.224,460.369Zm-2.137,22.115-7.322,15.787c2.259-.4,4.259-.765,6.262-1.116,2.429-.426,2.428-.422,3.649,1.68,1.038,1.783,2.081,3.564,3.235,5.541,2.111-4.506,4.106-8.761,6.175-13.174a7.753,7.753,0,0,1-8.413-3.894c-.655-1.065-1.337-2.117-2.064-3.134A20.869,20.869,0,0,0,4301.087,482.483Zm38.39-.621c-2.019.836-2.486,1.172-4.182,3.972-1.725,2.849-3.633,5.353-7.437,5.545l4.152,9.785c1.383-2.224,2.648-4.187,3.833-6.2a1.841,1.841,0,0,1,2.282-.981c2.306.523,4.635.952,7.167,1.462C4343.309,490.811,4341.411,486.38,4339.477,481.863Zm-2.491-9.088c1.588-1.037,2.936-1.859,4.219-2.773a2.291,2.291,0,0,1,2.977.024c1.272.9,2.613,1.708,4.171,2.717-.45-1.7-.717-3.143-1.217-4.5a2.6,2.6,0,0,1,1.15-3.419c1.159-.815,2.217-1.771,3.6-2.887-1.982-.1-3.558-.21-5.135-.264a2.266,2.266,0,0,1-2.29-1.743c-.5-1.483-1.109-2.926-1.782-4.672-.643,1.663-1.251,2.99-1.665,4.375a2.555,2.555,0,0,1-2.71,2.075c-1.49.016-2.979.135-4.824.226,1.363,1.106,2.4,2.061,3.547,2.849a2.7,2.7,0,0,1,1.181,3.537C4337.727,469.675,4337.438,471.093,4336.985,472.774Zm7.625-20.868-.369.28c.817,2.129,1.624,4.261,2.464,6.38.087.22.376.36.571.538.153-.218.4-.418.446-.658a4.635,4.635,0,0,0-.876-4.015C4346.143,453.555,4345.359,452.745,4344.61,451.906Z" transform="translate(0)" fill="#6a4d23"/>
          <path id="Path_893646" data-name="Path 893646" d="M4397.594,522.725c3.012-2.929,5.768-5.6,8.514-8.284a4.058,4.058,0,0,1,4.208-1.245,3.985,3.985,0,0,1,2,6.511c-3.8,4.049-7.744,7.968-11.7,11.866a3.811,3.811,0,0,1-5.351,0q-3.417-3.222-6.649-6.638a4.062,4.062,0,0,1,5.775-5.7C4395.568,520.35,4396.593,521.623,4397.594,522.725Zm13.392-5.736c-.45-.475-.81-1.185-1.262-1.25a2.481,2.481,0,0,0-1.845.584c-2.932,2.853-5.78,5.791-8.666,8.691-1.008,1.013-1.519,1.017-2.524.031-1.221-1.2-2.412-2.43-3.635-3.626-.895-.874-1.875-.962-2.513-.223-.766.886-.459,1.678.283,2.417,1.925,1.914,3.828,3.848,5.763,5.75,1,.982,1.711,1,2.692.015q5.438-5.455,10.824-10.964A8.51,8.51,0,0,0,4410.986,516.99Z" transform="translate(-80.936 -62.011)" fill="#6a4d23"/>
        </g>
      </g>
    </g>
  </g>
</svg>
