<svg xmlns="http://www.w3.org/2000/svg" xmlns:xlink="http://www.w3.org/1999/xlink" width="139" height="139" viewBox="0 0 139 139">
  <defs>
    <clipPath id="clip-path">
      <rect id="Rectangle_400938" data-name="Rectangle 400938" width="139" height="139" transform="translate(-0.043 -0.043)" fill="none"/>
    </clipPath>
    <clipPath id="clip-path-2">
      <rect id="Rectangle_401073" data-name="Rectangle 401073" width="105.872" height="47.68" fill="#7d3a1b"/>
    </clipPath>
  </defs>
  <g id="Group_1104220" data-name="Group 1104220" transform="translate(-1150 -2732)">
    <g id="Group_1104195" data-name="Group 1104195">
      <g id="Group_1099393" data-name="Group 1099393" transform="translate(885.043 -2551.957)">
        <g id="Group_1099379" data-name="Group 1099379" transform="translate(265 5284)">
          <rect id="Rectangle_401103" data-name="Rectangle 401103" width="139" height="139" transform="translate(-0.043 -0.043)" fill="none"/>
          <g id="Group_1099348" data-name="Group 1099348" transform="translate(0)">
            <g id="Group_1099282" data-name="Group 1099282">
              <g id="Group_1099281" data-name="Group 1099281" clip-path="url(#clip-path-2)">
                <path id="Path_873375" data-name="Path 873375" d="M85.879,10.449c-4.752,0-7.21-2.33-9.379-4.386C74.371,4.047,72.538,2.3,68.7,2.3s-5.668,1.742-7.8,3.758c-2.17,2.056-4.624,4.386-9.379,4.386s-7.21-2.33-9.379-4.386C40.018,4.047,38.184,2.3,34.349,2.3s-5.668,1.742-7.794,3.758c-2.17,2.056-4.627,4.386-9.379,4.386S9.963,8.119,7.794,6.063C5.668,4.047,3.835,2.3,0,2.3V0C4.752,0,7.21,2.334,9.379,4.386c2.129,2.02,3.963,3.758,7.8,3.758s5.668-1.738,7.794-3.755C27.136,2.334,29.6,0,34.349,0s7.213,2.334,9.379,4.386c2.129,2.02,3.963,3.758,7.8,3.758s5.668-1.738,7.8-3.758C61.489,2.334,63.951,0,68.7,0s7.213,2.334,9.379,4.386c2.129,2.02,3.963,3.758,7.8,3.758s5.668-1.738,7.8-3.758C95.843,2.334,98.3,0,103.056,0V2.3c-3.835,0-5.668,1.742-7.8,3.758-2.169,2.056-4.627,4.386-9.379,4.386" transform="translate(2.816 37.231)" fill="#7d3a1b"/>
                <path id="Path_873376" data-name="Path 873376" d="M85.879,10.449c-4.752,0-7.213-2.33-9.379-4.39C74.371,4.043,72.538,2.3,68.7,2.3s-5.668,1.738-7.8,3.755c-2.166,2.06-4.624,4.39-9.379,4.39s-7.213-2.33-9.379-4.39C40.018,4.043,38.184,2.3,34.349,2.3s-5.668,1.742-7.794,3.755c-2.17,2.06-4.627,4.39-9.379,4.39s-7.213-2.33-9.383-4.39C5.668,4.043,3.835,2.3,0,2.3V0C4.752,0,7.213,2.33,9.379,4.386c2.129,2.02,3.963,3.758,7.8,3.758s5.668-1.738,7.794-3.758C27.136,2.33,29.6,0,34.349,0s7.213,2.33,9.383,4.386c2.126,2.02,3.959,3.758,7.794,3.758s5.668-1.738,7.8-3.758C61.489,2.33,63.951,0,68.7,0s7.213,2.33,9.379,4.386c2.129,2.02,3.963,3.758,7.8,3.758s5.668-1.738,7.8-3.758C95.846,2.33,98.3,0,103.059,0V2.3c-3.835,0-5.672,1.742-7.8,3.755-2.169,2.06-4.628,4.39-9.379,4.39" transform="translate(1.877 24.821)" fill="#7d3a1b"/>
                <path id="Path_873377" data-name="Path 873377" d="M85.879,10.449c-4.752,0-7.213-2.33-9.379-4.39C74.371,4.043,72.538,2.3,68.7,2.3s-5.668,1.738-7.8,3.755c-2.166,2.06-4.627,4.39-9.379,4.39s-7.213-2.33-9.379-4.39C40.018,4.043,38.184,2.3,34.349,2.3s-5.668,1.742-7.794,3.755c-2.169,2.06-4.627,4.39-9.379,4.39s-7.213-2.33-9.383-4.39C5.668,4.043,3.835,2.3,0,2.3V0C4.752,0,7.213,2.33,9.379,4.386c2.126,2.02,3.963,3.758,7.8,3.758s5.668-1.738,7.794-3.758C27.136,2.33,29.6,0,34.349,0s7.213,2.33,9.383,4.386c2.126,2.02,3.959,3.758,7.794,3.758s5.668-1.738,7.8-3.758C61.489,2.33,63.951,0,68.7,0s7.213,2.33,9.379,4.386c2.129,2.02,3.963,3.758,7.8,3.758s5.668-1.738,7.8-3.758C95.846,2.33,98.3,0,103.059,0V2.3c-3.835,0-5.672,1.742-7.8,3.755-2.169,2.06-4.627,4.39-9.379,4.39" transform="translate(0.939 12.41)" fill="#7d3a1b"/>
                <path id="Path_873378" data-name="Path 873378" d="M85.879,10.445c-4.752,0-7.21-2.33-9.379-4.386C74.371,4.043,72.538,2.3,68.7,2.3s-5.668,1.738-7.794,3.755c-2.169,2.056-4.627,4.386-9.383,4.386s-7.21-2.33-9.379-4.386C40.018,4.043,38.184,2.3,34.349,2.3s-5.668,1.738-7.794,3.751c-2.166,2.06-4.627,4.39-9.379,4.39S9.963,8.115,7.794,6.059C5.668,4.043,3.835,2.3,0,2.3V0C4.752,0,7.213,2.33,9.379,4.386c2.129,2.016,3.963,3.755,7.8,3.755S22.845,6.4,24.971,4.386C27.14,2.33,29.6,0,34.349,0s7.21,2.33,9.383,4.386c2.126,2.016,3.959,3.755,7.794,3.755s5.668-1.738,7.8-3.755C61.493,2.33,63.951,0,68.7,0s7.21,2.33,9.379,4.386c2.129,2.016,3.963,3.755,7.8,3.755s5.668-1.738,7.8-3.755C95.846,2.33,98.3,0,103.059,0V2.3c-3.839,0-5.672,1.738-7.8,3.755-2.169,2.056-4.627,4.386-9.379,4.386" transform="translate(0 0.004)" fill="#7d3a1b"/>
              </g>
            </g>
          </g>
          <path id="Path_873425" data-name="Path 873425" d="M57.977,0A57.977,57.977,0,1,1,0,57.977,57.977,57.977,0,0,1,57.977,0Z" transform="translate(17.221 20.665)" fill="#ffb937"/>
          <circle id="Ellipse_11503" data-name="Ellipse 11503" cx="60.5" cy="60.5" r="60.5" transform="translate(8.957 8.957)" fill="#fff"/>
        </g>
      </g>
      <g id="Group_1099394" data-name="Group 1099394" transform="translate(832 -3662)">
        <g id="Group_1099389" data-name="Group 1099389" transform="translate(347.518 6422.743)">
          <rect id="Rectangle_401104" data-name="Rectangle 401104" width="78" height="79" transform="translate(0.107 0.256)" fill="none"/>
        </g>
        <g id="Group_1103132" data-name="Group 1103132" transform="translate(-3918.567 6391.479)">
          <path id="Path_893636" data-name="Path 893636" d="M4274.454,69.826a31.888,31.888,0,0,1,4.269-14.348c.164-.28-.067-.931-.3-1.282a8.455,8.455,0,0,1,3.9-12.8,8.031,8.031,0,0,1,8.694,1.668,1.293,1.293,0,0,0,1.625.288,29.309,29.309,0,0,1,11.8-2.509,1.6,1.6,0,0,0,1.5-.824,14.441,14.441,0,0,1,26.38,6.266,15.18,15.18,0,0,1-1.348,8.418,1.771,1.771,0,0,0-.05,1.36,30.715,30.715,0,0,1,3.942,15.8,1.84,1.84,0,0,0,.054.342c.8.3,1.622.528,2.378.894a8.369,8.369,0,0,1,3.731,11.705,20.131,20.131,0,0,1-1.528,2.209c-1.908,2.553-3.833,5.094-5.846,7.766l-4.434-5.882c-1.557,1.621-3.088,3.172-4.551,4.786-.209.231-.145.768-.108,1.154.2,2.043.522,4.079.62,6.125.083,1.748-.912,2.628-2.67,2.661a1.475,1.475,0,0,1-.234,0,3.808,3.808,0,0,0-3.949,1.759,8.245,8.245,0,0,1-13.524-.852,1.7,1.7,0,0,0-1.667-.922q-5.733.057-11.466,0a1.609,1.609,0,0,0-1.592.847,8.368,8.368,0,0,1-14.324,0,1.5,1.5,0,0,0-1.478-.843c-1.52.05-3.042.035-4.563.006a2.347,2.347,0,0,1-2.494-2.491c-.024-.779-.024-1.561,0-2.34a2.109,2.109,0,0,1,1.491-2.157c.9-.237.909-.748.908-1.449q-.018-10.826-.007-21.652c0-3.122.56-3.686,3.671-3.7C4273.623,69.824,4273.969,69.826,4274.454,69.826Zm49.24,21.572c1.226-1.451,2.26-2.7,3.328-3.925a1.021,1.021,0,0,0,.028-1.508c-3.726-5.229-1.619-11.585,4.475-13.427a1.1,1.1,0,0,0,.944-1.3,28.564,28.564,0,0,0-1.734-9.726c-.477-1.243-1.05-2.449-1.67-3.88L4317.93,71.786c-4.032-5.153-8.049-10.126-11.877-15.24a13.7,13.7,0,0,1-2.414-10.658c.133-.857.332-1.7.515-2.634a26.761,26.761,0,0,0-11.083,2.579c1.5,3.777.449,6.923-1.94,9.853-1.7,2.082-3.241,4.29-4.857,6.44-.291.387-.6.76-.962,1.219l-2.332-3.09-2.3-3.048c-2.154,3.083-4.013,9.7-3.552,12.619h1.357q12.221,0,24.443,0c2.091,0,2.916.825,2.927,2.9.008,1.425,0,2.849,0,4.355,3.771,0,7.352,0,10.934,0,2.353,0,3.515.911,4.088,3.168q.417,1.641.833,3.282C4322.345,86.047,4322.979,88.564,4323.694,91.4Zm-29.9-9.956c-1.879-.934-3.535-1.712-5.144-2.575a1.74,1.74,0,0,0-1.843.014c-1.631.865-3.3,1.652-5.123,2.551V72.3h-9.523V96.375a9.931,9.931,0,0,1,1.233.008,2.594,2.594,0,0,0,2.75-1.325,8.33,8.33,0,0,1,13.839.4,1.709,1.709,0,0,0,1.656.94c3.546-.045,7.093-.017,10.64-.023.37,0,.739-.053,1.1-.08V72.312H4293.8Zm24.091-13.662a4.537,4.537,0,0,0,.4-.382c3.154-4.017,6.35-8,9.438-12.066a11.5,11.5,0,0,0,2.06-9.436,12.039,12.039,0,0,0-20.627-6.053,11.3,11.3,0,0,0-2.456,12.574c.978,2.428,2.807,4.542,4.4,6.687C4313.278,62.037,4315.6,64.864,4317.888,67.78Zm4.531,28.585c-.545-2.161-1.122-4.141-1.52-6.156-.184-.928-.6-1.087-1.417-1.072q-3.155.06-6.31,0a2.351,2.351,0,0,1-2.462-2.519c-.012-.467,0-.935,0-1.4,0-2.591.746-3.34,3.325-3.344,1.542,0,3.083,0,4.638,0-.254-2.187-.488-2.4-2.466-2.4h-10.268V93.8c.153-.032.247-.023.294-.065A8.481,8.481,0,0,1,4319.29,95.9a.907.907,0,0,0,.6.445C4320.688,96.4,4321.5,96.365,4322.419,96.365Zm-37.09-37c1.8-2.44,3.595-4.654,5.149-7.024a5.869,5.869,0,0,0-1.318-7.7,6,6,0,0,0-7.733.052,5.919,5.919,0,0,0-1.211,7.729C4281.769,54.743,4283.527,56.932,4285.33,59.364ZM4333.66,90.8c1.854-2.553,3.77-4.876,5.325-7.419a5.789,5.789,0,0,0-1.642-7.448,6.049,6.049,0,0,0-7.745.294,5.835,5.835,0,0,0-1.085,7.549C4330.078,86.137,4331.854,88.356,4333.66,90.8Zm-44.725,9.211a6.078,6.078,0,0,0-6.006-6.039,6.042,6.042,0,1,0,.019,12.083A6.038,6.038,0,0,0,4288.936,100.014Zm22.97,6.044a6.042,6.042,0,1,0-6.042-6A6.1,6.1,0,0,0,4311.905,106.058Zm-27.711-33.77v5.166c.953-.462,1.811-.812,2.6-1.28a1.7,1.7,0,0,1,1.938.016c.786.46,1.637.81,2.5,1.228v-5.13Zm7.177,28.858h12.06V98.863h-12.06Zm28.575-14.463a11.463,11.463,0,0,0-.356-1.618c-.1-.272-.4-.664-.619-.67-1.932-.052-3.866-.03-5.783-.03v2.319Zm-50.264,14.48h4.713V98.931h-4.713Zm50.708-.016h2.268v-2.2h-2.268Z" transform="translate(0)" fill="#6a4d23"/>
          <path id="Path_893637" data-name="Path 893637" d="M4414.333,170.455h-2.3V168.17h2.3Z" transform="translate(-110.95 -103.143)" fill="#6a4d23"/>
          <path id="Path_893638" data-name="Path 893638" d="M4435.008,168.22v2.251h-2.33V168.22Z" transform="translate(-126.763 -103.182)" fill="#6a4d23"/>
          <path id="Path_893639" data-name="Path 893639" d="M4393.844,170.478h-2.182v-2.294h2.182Z" transform="translate(-95.345 -103.154)" fill="#6a4d23"/>
          <path id="Path_893640" data-name="Path 893640" d="M4442.858,64.2a9.646,9.646,0,1,1,9.688,9.6A9.58,9.58,0,0,1,4442.858,64.2Zm2.426-.006a7.23,7.23,0,1,0,7.153-7.275A7.217,7.217,0,0,0,4445.284,64.193Z" transform="translate(-134.562 -16.088)" fill="#6a4d23"/>
          <path id="Path_893641" data-name="Path 893641" d="M4329.3,89.107a3.611,3.611,0,1,1,7.222.014,3.611,3.611,0,0,1-7.222-.014Zm4.947.3.019-.543c-.439-.318-.906-.915-1.311-.877-.441.042-.826.675-1.235,1.051.378.406.713,1.07,1.148,1.144C4333.268,90.253,4333.78,89.692,4334.244,89.409Z" transform="translate(-47.572 -39.805)" fill="#6a4d23"/>
          <path id="Path_893642" data-name="Path 893642" d="M4542.911,223.374a3.624,3.624,0,0,1-3.56,3.59,3.683,3.683,0,0,1-3.657-3.645,3.619,3.619,0,0,1,3.655-3.609A3.541,3.541,0,0,1,4542.911,223.374Zm-3.936,1.264.567.023c.324-.434.938-.9.9-1.294-.049-.453-.68-.844-1.058-1.262-.4.383-1.045.717-1.135,1.162C4538.167,223.661,4538.708,224.177,4538.976,224.639Z" transform="translate(-205.676 -142.624)" fill="#6a4d23"/>
          <path id="Path_893643" data-name="Path 893643" d="M4322.585,309.466a3.52,3.52,0,0,1-3.588-3.631,3.6,3.6,0,0,1,3.553-3.585,3.642,3.642,0,0,1,3.667,3.608A3.59,3.59,0,0,1,4322.585,309.466Zm.283-4.935-.574,0c-.29.453-.857.95-.795,1.348.071.442.715.794,1.109,1.185.389-.4,1.025-.764,1.088-1.209C4323.751,305.462,4323.168,304.977,4322.868,304.531Z" transform="translate(-39.683 -205.85)" fill="#6a4d23"/>
          <path id="Path_893644" data-name="Path 893644" d="M4450.081,305.869a3.59,3.59,0,0,1-7.18.079,3.591,3.591,0,1,1,7.18-.079Zm-3.289-1.33-.58,0c-.3.447-.872.936-.814,1.331.066.445.7.806,1.09,1.2.393-.393,1.032-.748,1.1-1.192C4447.652,305.484,4447.083,304.989,4446.792,304.539Z" transform="translate(-134.595 -205.854)" fill="#6a4d23"/>
        </g>
      </g>
    </g>
  </g>
</svg>
