<svg xmlns="http://www.w3.org/2000/svg" xmlns:xlink="http://www.w3.org/1999/xlink" width="120" height="120" viewBox="0 0 120 120">
  <defs>
    <clipPath id="clip-path">
      <rect id="Rectangle_400938" data-name="Rectangle 400938" width="120" height="120" transform="translate(0 0)" fill="none"/>
    </clipPath>
    <clipPath id="clip-path-2">
      <rect id="Rectangle_401073" data-name="Rectangle 401073" width="92.219" height="41.532" fill="#7d3a1b"/>
    </clipPath>
  </defs>
  <g id="Group_1104192" data-name="Group 1104192" transform="translate(-810 -1644.302)">
    <g id="Group_1102850" data-name="Group 1102850" transform="translate(422.332 -4368.698)">
      <rect id="Rectangle_401103" data-name="Rectangle 401103" width="120" height="120" transform="translate(387.668 6013)" fill="none"/>
      <g id="Group_1099348" data-name="Group 1099348" transform="translate(387.668 6013)">
        <g id="Group_1099282" data-name="Group 1099282">
          <g id="Group_1099281" data-name="Group 1099281" clip-path="url(#clip-path-2)">
            <path id="Path_873375" data-name="Path 873375" d="M74.8,9.1c-4.139,0-6.28-2.03-8.17-3.821-1.855-1.756-3.452-3.274-6.792-3.274s-4.937,1.517-6.792,3.274C51.161,7.072,49.023,9.1,44.881,9.1s-6.28-2.03-8.169-3.821C34.857,3.525,33.26,2.007,29.92,2.007s-4.937,1.517-6.789,3.274C21.241,7.072,19.1,9.1,14.962,9.1S8.679,7.072,6.789,5.281C4.937,3.525,3.34,2.007,0,2.007V0C4.139,0,6.28,2.033,8.17,3.821c1.855,1.759,3.452,3.274,6.792,3.274S19.9,5.58,21.75,3.824C23.637,2.033,25.781,0,29.92,0s6.283,2.033,8.17,3.821c1.855,1.759,3.452,3.274,6.792,3.274s4.937-1.514,6.792-3.274C53.56,2.033,55.7,0,59.843,0s6.283,2.033,8.17,3.821C69.867,5.58,71.464,7.094,74.8,7.094S79.742,5.58,81.6,3.821C83.483,2.033,85.624,0,89.766,0V2.007c-3.34,0-4.937,1.517-6.792,3.274C81.084,7.072,78.943,9.1,74.8,9.1" transform="translate(2.453 32.43)" fill="#7d3a1b"/>
            <path id="Path_873376" data-name="Path 873376" d="M74.8,9.1c-4.139,0-6.283-2.03-8.17-3.824-1.855-1.756-3.452-3.27-6.792-3.27s-4.937,1.514-6.792,3.27C51.164,7.072,49.023,9.1,44.881,9.1s-6.283-2.03-8.17-3.824c-1.855-1.756-3.452-3.27-6.792-3.27s-4.937,1.517-6.789,3.27C21.241,7.072,19.1,9.1,14.962,9.1S8.679,7.072,6.789,5.278C4.937,3.522,3.34,2.007,0,2.007V0C4.139,0,6.283,2.03,8.17,3.821c1.855,1.759,3.452,3.274,6.792,3.274S19.9,5.58,21.75,3.821C23.637,2.03,25.781,0,29.92,0S36.2,2.03,38.093,3.821c1.852,1.759,3.449,3.274,6.789,3.274s4.937-1.514,6.792-3.274C53.56,2.03,55.7,0,59.843,0s6.283,2.03,8.17,3.821C69.867,5.58,71.464,7.094,74.8,7.094S79.742,5.58,81.6,3.821C83.486,2.03,85.627,0,89.769,0V2.007c-3.34,0-4.94,1.517-6.8,3.27C81.084,7.072,78.943,9.1,74.8,9.1" transform="translate(1.635 21.62)" fill="#7d3a1b"/>
            <path id="Path_873377" data-name="Path 873377" d="M74.8,9.1c-4.139,0-6.283-2.03-8.169-3.824-1.855-1.756-3.452-3.27-6.792-3.27s-4.937,1.514-6.792,3.27C51.164,7.072,49.02,9.1,44.881,9.1s-6.283-2.03-8.17-3.824c-1.855-1.756-3.452-3.27-6.792-3.27s-4.937,1.517-6.789,3.27C21.241,7.072,19.1,9.1,14.962,9.1S8.678,7.072,6.789,5.278C4.937,3.522,3.34,2.007,0,2.007V0C4.139,0,6.283,2.03,8.169,3.821c1.851,1.759,3.452,3.274,6.792,3.274S19.9,5.58,21.75,3.821C23.637,2.03,25.781,0,29.92,0S36.2,2.03,38.093,3.821c1.852,1.759,3.449,3.274,6.789,3.274s4.937-1.514,6.792-3.274C53.56,2.03,55.7,0,59.843,0s6.283,2.03,8.17,3.821C69.867,5.58,71.464,7.094,74.8,7.094S79.742,5.58,81.6,3.821C83.486,2.03,85.624,0,89.769,0V2.007c-3.34,0-4.941,1.517-6.8,3.27C81.084,7.072,78.943,9.1,74.8,9.1" transform="translate(0.818 10.81)" fill="#7d3a1b"/>
            <path id="Path_873378" data-name="Path 873378" d="M74.8,9.1c-4.139,0-6.28-2.03-8.17-3.821-1.855-1.756-3.452-3.27-6.792-3.27s-4.937,1.514-6.789,3.27C51.164,7.069,49.023,9.1,44.881,9.1s-6.28-2.03-8.169-3.821c-1.855-1.756-3.452-3.27-6.792-3.27s-4.937,1.514-6.789,3.267C21.245,7.069,19.1,9.1,14.962,9.1S8.678,7.069,6.789,5.278C4.937,3.522,3.34,2.007,0,2.007V0C4.139,0,6.283,2.03,8.17,3.821c1.855,1.756,3.452,3.27,6.792,3.27S19.9,5.577,21.75,3.821C23.64,2.03,25.781,0,29.92,0s6.28,2.03,8.173,3.821c1.852,1.756,3.449,3.27,6.789,3.27s4.937-1.514,6.792-3.27C53.563,2.03,55.7,0,59.843,0s6.28,2.03,8.17,3.821c1.855,1.756,3.452,3.27,6.792,3.27s4.937-1.514,6.792-3.27C83.486,2.03,85.627,0,89.769,0V2.007c-3.344,0-4.941,1.514-6.8,3.27C81.084,7.069,78.943,9.1,74.8,9.1" transform="translate(0 0.003)" fill="#7d3a1b"/>
          </g>
        </g>
      </g>
      <circle id="Ellipse_11504" data-name="Ellipse 11504" cx="50" cy="50" r="50" transform="translate(402.668 6031)" fill="#efb499"/>
      <circle id="Ellipse_11503" data-name="Ellipse 11503" cx="52" cy="52" r="52" transform="translate(395.668 6021)" fill="#f3f9ff"/>
    </g>
    <g id="Group_1102851" data-name="Group 1102851" transform="translate(835.941 1670.105)">
      <rect id="Rectangle_401104" data-name="Rectangle 401104" width="68" height="69" transform="translate(-0.316 -1.106)" fill="none"/>
      <g id="Group_1103652" data-name="Group 1103652" transform="translate(-285.018 -105.14)">
        <path id="Path_894685" data-name="Path 894685" d="M335.934,106.054a3.253,3.253,0,0,1,3.093,1.4c1.03,1.693,1.177,5.89,1.177,5.89H315.318Z" transform="translate(6.74)" fill="#efb499"/>
        <path id="Path_894686" data-name="Path 894686" d="M342.8,172.319H295.6s4.123-3.241,3.828-16.346c-.53-23.565-9.843-33.972-7.8-44.841a7.727,7.727,0,0,1,3.387-5.081H342.5a6.672,6.672,0,0,0-3.093,5.007c-1.557,11.114,5.375,21.722,6.775,46.019.327,5.713,1.236,10.625-.3,13.328A3.194,3.194,0,0,1,342.8,172.319Z" transform="translate(0.173 0.004)" fill="#ffe7ba"/>
        <path id="Path_894687" data-name="Path 894687" d="M343.689,159.079a6.439,6.439,0,0,1-3.755-1.353,6.986,6.986,0,0,1-2.283-3.286H290.758a8.236,8.236,0,0,0,2.127,3.176,7.664,7.664,0,0,0,3.726,1.464Z" transform="translate(0.016 13.253)" fill="#efb499"/>
        <rect id="Rectangle_405433" data-name="Rectangle 405433" width="32.361" height="0.7" transform="translate(298.864 116.252)" fill="#7d3a1b"/>
        <rect id="Rectangle_405434" data-name="Rectangle 405434" width="32.36" height="0.478" transform="translate(300.742 123.984)" fill="#6a4d23"/>
        <rect id="Rectangle_405435" data-name="Rectangle 405435" width="32.361" height="0.479" transform="translate(301.653 128.291)" fill="#6a4d23"/>
        <rect id="Rectangle_405436" data-name="Rectangle 405436" width="32.361" height="0.478" transform="translate(302.563 132.599)" fill="#6a4d23"/>
        <rect id="Rectangle_405437" data-name="Rectangle 405437" width="32.361" height="0.478" transform="translate(303.475 137.017)" fill="#6a4d23"/>
        <rect id="Rectangle_405438" data-name="Rectangle 405438" width="32.361" height="0.478" transform="translate(304.386 141.655)" fill="#6a4d23"/>
        <path id="Path_894688" data-name="Path 894688" d="M291.027,155.066H337.9l-.231-.626H290.7Z" transform="translate(0 13.253)" fill="#fff"/>
        <g id="Group_1103651" data-name="Group 1103651" transform="translate(324.575 146.404)">
          <path id="Path_894689" data-name="Path 894689" d="M333.2,145.681a7.952,7.952,0,1,1-7.952-7.954A7.952,7.952,0,0,1,333.2,145.681Z" transform="translate(-317.294 -137.727)" fill="#f77b55"/>
          <path id="Path_894690" data-name="Path 894690" d="M331.335,145.351a6.419,6.419,0,1,1-6.42-6.42A6.42,6.42,0,0,1,331.335,145.351Z" transform="translate(-316.965 -137.397)" fill="#ff916e"/>
          <circle id="Ellipse_11559" data-name="Ellipse 11559" cx="5.307" cy="5.307" r="5.307" transform="translate(2.644 2.647)" fill="#f77b55"/>
        </g>
      </g>
    </g>
  </g>
</svg>
