<svg xmlns="http://www.w3.org/2000/svg" xmlns:xlink="http://www.w3.org/1999/xlink" width="121" height="121" viewBox="0 0 121 121">
  <defs>
    <clipPath id="clip-path">
      <rect id="Rectangle_400938" data-name="Rectangle 400938" width="121" height="121" transform="translate(0 0)" fill="none"/>
    </clipPath>
    <clipPath id="clip-path-2">
      <rect id="Rectangle_401073" data-name="Rectangle 401073" width="92.219" height="41.532" fill="#fff"/>
    </clipPath>
  </defs>
  <g id="Group_1104219" data-name="Group 1104219" transform="translate(-896 -3752.76)">
    <rect id="Rectangle_401103" data-name="Rectangle 401103" width="121" height="121" transform="translate(896 3752.76)" fill="none"/>
    <g id="Group_1099348" data-name="Group 1099348" transform="translate(896 3752.76)">
      <g id="Group_1099282" data-name="Group 1099282">
        <g id="Group_1099281" data-name="Group 1099281" clip-path="url(#clip-path-2)">
          <path id="Path_873375" data-name="Path 873375" d="M74.8,9.1c-4.139,0-6.28-2.03-8.17-3.821-1.855-1.756-3.452-3.274-6.792-3.274s-4.937,1.517-6.792,3.274C51.161,7.072,49.023,9.1,44.881,9.1s-6.28-2.03-8.169-3.821C34.857,3.525,33.26,2.007,29.92,2.007s-4.937,1.517-6.789,3.274C21.241,7.072,19.1,9.1,14.962,9.1S8.679,7.072,6.789,5.281C4.937,3.525,3.34,2.007,0,2.007V0C4.139,0,6.28,2.033,8.17,3.821c1.855,1.759,3.452,3.274,6.792,3.274S19.9,5.58,21.75,3.824C23.637,2.033,25.781,0,29.92,0s6.283,2.033,8.17,3.821c1.855,1.759,3.452,3.274,6.792,3.274s4.937-1.514,6.792-3.274C53.56,2.033,55.7,0,59.843,0s6.283,2.033,8.17,3.821C69.867,5.58,71.464,7.094,74.8,7.094S79.742,5.58,81.6,3.821C83.483,2.033,85.624,0,89.766,0V2.007c-3.34,0-4.937,1.517-6.792,3.274C81.084,7.072,78.943,9.1,74.8,9.1" transform="translate(2.453 32.43)" fill="#fff"/>
          <path id="Path_873376" data-name="Path 873376" d="M74.8,9.1c-4.139,0-6.283-2.03-8.17-3.824-1.855-1.756-3.452-3.27-6.792-3.27s-4.937,1.514-6.792,3.27C51.164,7.072,49.023,9.1,44.881,9.1s-6.283-2.03-8.17-3.824c-1.855-1.756-3.452-3.27-6.792-3.27s-4.937,1.517-6.789,3.27C21.241,7.072,19.1,9.1,14.962,9.1S8.679,7.072,6.789,5.278C4.937,3.522,3.34,2.007,0,2.007V0C4.139,0,6.283,2.03,8.17,3.821c1.855,1.759,3.452,3.274,6.792,3.274S19.9,5.58,21.75,3.821C23.637,2.03,25.781,0,29.92,0S36.2,2.03,38.093,3.821c1.852,1.759,3.449,3.274,6.789,3.274s4.937-1.514,6.792-3.274C53.56,2.03,55.7,0,59.843,0s6.283,2.03,8.17,3.821C69.867,5.58,71.464,7.094,74.8,7.094S79.742,5.58,81.6,3.821C83.486,2.03,85.627,0,89.769,0V2.007c-3.34,0-4.94,1.517-6.8,3.27C81.084,7.072,78.943,9.1,74.8,9.1" transform="translate(1.635 21.62)" fill="#fff"/>
          <path id="Path_873377" data-name="Path 873377" d="M74.8,9.1c-4.139,0-6.283-2.03-8.169-3.824-1.855-1.756-3.452-3.27-6.792-3.27s-4.937,1.514-6.792,3.27C51.164,7.072,49.02,9.1,44.881,9.1s-6.283-2.03-8.17-3.824c-1.855-1.756-3.452-3.27-6.792-3.27s-4.937,1.517-6.789,3.27C21.241,7.072,19.1,9.1,14.962,9.1S8.678,7.072,6.789,5.278C4.937,3.522,3.34,2.007,0,2.007V0C4.139,0,6.283,2.03,8.169,3.821c1.851,1.759,3.452,3.274,6.792,3.274S19.9,5.58,21.75,3.821C23.637,2.03,25.781,0,29.92,0S36.2,2.03,38.093,3.821c1.852,1.759,3.449,3.274,6.789,3.274s4.937-1.514,6.792-3.274C53.56,2.03,55.7,0,59.843,0s6.283,2.03,8.17,3.821C69.867,5.58,71.464,7.094,74.8,7.094S79.742,5.58,81.6,3.821C83.486,2.03,85.624,0,89.769,0V2.007c-3.34,0-4.941,1.517-6.8,3.27C81.084,7.072,78.943,9.1,74.8,9.1" transform="translate(0.818 10.81)" fill="#fff"/>
          <path id="Path_873378" data-name="Path 873378" d="M74.8,9.1c-4.139,0-6.28-2.03-8.17-3.821-1.855-1.756-3.452-3.27-6.792-3.27s-4.937,1.514-6.789,3.27C51.164,7.069,49.023,9.1,44.881,9.1s-6.28-2.03-8.169-3.821c-1.855-1.756-3.452-3.27-6.792-3.27s-4.937,1.514-6.789,3.267C21.245,7.069,19.1,9.1,14.962,9.1S8.678,7.069,6.789,5.278C4.937,3.522,3.34,2.007,0,2.007V0C4.139,0,6.283,2.03,8.17,3.821c1.855,1.756,3.452,3.27,6.792,3.27S19.9,5.577,21.75,3.821C23.64,2.03,25.781,0,29.92,0s6.28,2.03,8.173,3.821c1.852,1.756,3.449,3.27,6.789,3.27s4.937-1.514,6.792-3.27C53.563,2.03,55.7,0,59.843,0s6.28,2.03,8.17,3.821c1.855,1.756,3.452,3.27,6.792,3.27s4.937-1.514,6.792-3.27C83.486,2.03,85.627,0,89.769,0V2.007c-3.344,0-4.941,1.514-6.8,3.27C81.084,7.069,78.943,9.1,74.8,9.1" transform="translate(0 0.003)" fill="#fff"/>
        </g>
      </g>
    </g>
    <rect id="Rectangle_401104" data-name="Rectangle 401104" width="68" height="69" transform="translate(921.625 3778)" fill="none"/>
    <g id="Group_1103626" data-name="Group 1103626" transform="translate(922.774 3779.804)">
      <rect id="Rectangle_401104-2" data-name="Rectangle 401104" width="65.327" height="66.287" transform="translate(0.011 -0.804)" fill="none"/>
      <g id="Group_1103625" data-name="Group 1103625" transform="translate(-1.149 6.527)">
        <g id="Group_1103565" data-name="Group 1103565" transform="translate(37.12 12.769)">
          <g id="Group_1103533" data-name="Group 1103533" transform="translate(24.446 21.027)">
            <g id="Group_1103532" data-name="Group 1103532">
              <path id="Path_894073" data-name="Path 894073" d="M427.008,427.319l-1.2-11.387a3.175,3.175,0,0,0-2.076-1.769l-3.153,8.843.692,4.312Z" transform="translate(-420.574 -414.164)" fill="#e0e0e0"/>
            </g>
          </g>
          <g id="Group_1103535" data-name="Group 1103535" transform="translate(0 22.004)">
            <g id="Group_1103534" data-name="Group 1103534">
              <path id="Path_894074" data-name="Path 894074" d="M400.1,427.4c.847-4.074,1.632-7.89,1.632-7.89.061-.317-1.741-1.975-1.968-2.205l-1.761-1.79a.98.98,0,0,0-1.628.376L394.036,427.4Z" transform="translate(-394.036 -415.225)" fill="#d0d0d0"/>
            </g>
          </g>
          <g id="Group_1103537" data-name="Group 1103537" transform="translate(12.463 14.441)">
            <g id="Group_1103536" data-name="Group 1103536">
              <rect id="Rectangle_405408" data-name="Rectangle 405408" width="7.19" height="8.306" fill="#dead8e"/>
            </g>
          </g>
          <g id="Group_1103550" data-name="Group 1103550" transform="translate(9.843)">
            <g id="Group_1103539" data-name="Group 1103539" transform="translate(9.678 7.348)">
              <g id="Group_1103538" data-name="Group 1103538">
                <path id="Path_894075" data-name="Path 894075" d="M415.838,402.769h0a.919.919,0,0,0,1.216-.625l.461-1.644a.952.952,0,0,0-.578-1.127h0a.92.92,0,0,0-1.217.625l-.46,1.645A.949.949,0,0,0,415.838,402.769Z" transform="translate(-415.228 -399.315)" fill="#eab99a"/>
              </g>
            </g>
            <g id="Group_1103541" data-name="Group 1103541" transform="translate(1.165 2.732)">
              <g id="Group_1103540" data-name="Group 1103540">
                <path id="Path_894076" data-name="Path 894076" d="M415.581,397.524l.148,5.914a3.837,3.837,0,0,1-.32,1.6c-.6,1.4-.6,1.4-2.652,3.467a2.634,2.634,0,0,1-1.686.483c-.134,0-.261.006-.383,0a2.341,2.341,0,0,1-1.33-.4c-2.153-1.957-2.153-1.957-2.822-3.33a3.807,3.807,0,0,1-.4-1.584l-.148-5.914a3.128,3.128,0,0,1,2.823-3.365l3.782-.094A3.126,3.126,0,0,1,415.581,397.524Z" transform="translate(-405.987 -394.304)" fill="#eab99a"/>
              </g>
            </g>
            <g id="Group_1103543" data-name="Group 1103543" transform="translate(1.165 2.751)">
              <g id="Group_1103542" data-name="Group 1103542">
                <path id="Path_894077" data-name="Path 894077" d="M414.814,397.544l.147,5.914a3.8,3.8,0,0,1-.313,1.6c-.6,1.406-.6,1.406-2.652,3.467a2.219,2.219,0,0,1-2.638.066c-2.153-1.957-2.153-1.957-2.822-3.33a3.807,3.807,0,0,1-.4-1.584l-.148-5.914a3.128,3.128,0,0,1,2.823-3.365l3.015-.076A3.128,3.128,0,0,1,414.814,397.544Z" transform="translate(-405.987 -394.324)" fill="#f4caaf"/>
              </g>
            </g>
            <g id="Group_1103545" data-name="Group 1103545" transform="translate(0 7.602)">
              <g id="Group_1103544" data-name="Group 1103544">
                <path id="Path_894078" data-name="Path 894078" d="M406.556,403h0a.92.92,0,0,1-1.247-.562l-.542-1.62a.949.949,0,0,1,.52-1.152h0a.919.919,0,0,1,1.246.562l.542,1.62A.949.949,0,0,1,406.556,403Z" transform="translate(-404.722 -399.59)" fill="#f4caaf"/>
              </g>
            </g>
            <g id="Group_1103547" data-name="Group 1103547" transform="translate(0.651)">
              <g id="Group_1103546" data-name="Group 1103546">
                <path id="Path_894079" data-name="Path 894079" d="M416.425,398.158l-.858,3.329-1.172-4.089-.619.826-1.133.265-.006.007-5.363,1.261-1.228,1.8-.617-4.432,1.49-4.571,6.1-1.22,1.249,1.128,1.689,1.519Z" transform="translate(-405.429 -391.338)" fill="#d99237"/>
              </g>
            </g>
            <g id="Group_1103549" data-name="Group 1103549" transform="translate(0.652 0)">
              <g id="Group_1103548" data-name="Group 1103548">
                <path id="Path_894080" data-name="Path 894080" d="M414.271,392.466l.073,2.943a3.354,3.354,0,0,1-1.7,3.08l-.006.006-5.363,1.261-1.228,1.8-.617-4.432,1.49-4.571,6.1-1.22Z" transform="translate(-405.429 -391.338)" fill="#f3aa43"/>
              </g>
            </g>
          </g>
          <g id="Group_1103552" data-name="Group 1103552" transform="translate(2.245 19.622)">
            <g id="Group_1103551" data-name="Group 1103551">
              <path id="Path_894081" data-name="Path 894081" d="M396.535,417.124c.764,3.347,1.754,6.69,2.667,10.075h22.035c.823-3.28,1.722-6.634,2.512-10.041,0-.014.006-.028.006-.041a2.493,2.493,0,0,0-1.46-2.858c-.117-.052-7.682-1.619-8.154-1.619l-3.561,3.9-4.411-3.9c-.4,0-7.393,1.41-7.786,1.488a2.508,2.508,0,0,0-1.9,2.685A2.445,2.445,0,0,0,396.535,417.124Z" transform="translate(-396.473 -412.639)" fill="#e0e0e0"/>
            </g>
          </g>
          <g id="Group_1103554" data-name="Group 1103554" transform="translate(4.561 31.079)">
            <g id="Group_1103553" data-name="Group 1103553">
              <path id="Path_894082" data-name="Path 894082" d="M421.213,428.18l.095-1.81-22.32-1.293.2,3.1Z" transform="translate(-398.987 -425.077)" fill="#e0e0e0"/>
            </g>
          </g>
          <g id="Group_1103556" data-name="Group 1103556" transform="translate(14.876 24.543)">
            <g id="Group_1103555" data-name="Group 1103555">
              <path id="Path_894083" data-name="Path 894083" d="M412.567,427.62l-.925-9.639h-.513l-.945,9.639Z" transform="translate(-410.185 -417.981)" fill="#3c4a58"/>
            </g>
          </g>
          <g id="Group_1103558" data-name="Group 1103558" transform="translate(26.221 29.35)">
            <g id="Group_1103557" data-name="Group 1103557">
              <path id="Path_894084" data-name="Path 894084" d="M423.015,428.032l.146-4.833-.66,4.833Z" transform="translate(-422.501 -423.199)" fill="#d0d0d0"/>
            </g>
          </g>
          <g id="Group_1103560" data-name="Group 1103560" transform="translate(14.878 22.678)">
            <g id="Group_1103559" data-name="Group 1103559">
              <path id="Rectangle_405409" data-name="Rectangle 405409" d="M1.027,0h.307A1.026,1.026,0,0,1,2.361,1.026V1.14A1.026,1.026,0,0,1,1.334,2.166H1.027A1.027,1.027,0,0,1,0,1.139V1.027A1.027,1.027,0,0,1,1.027,0Z" fill="#3c4a58"/>
            </g>
          </g>
          <g id="Group_1103562" data-name="Group 1103562" transform="translate(8.194 19.622)">
            <g id="Group_1103561" data-name="Group 1103561">
              <path id="Path_894085" data-name="Path 894085" d="M406.677,412.639l-3.746.691,5.439,4.82,1.714-2.521Z" transform="translate(-402.932 -412.639)" fill="#fff"/>
            </g>
          </g>
          <g id="Group_1103564" data-name="Group 1103564" transform="translate(16.463 19.622)">
            <g id="Group_1103563" data-name="Group 1103563">
              <path id="Path_894086" data-name="Path 894086" d="M415.314,412.639l3.746.691-5.439,4.82-1.713-2.521Z" transform="translate(-411.908 -412.639)" fill="#fff"/>
            </g>
          </g>
        </g>
        <g id="Group_1103591" data-name="Group 1103591" transform="translate(0 12.947)">
          <g id="Group_1103567" data-name="Group 1103567" transform="translate(0 25.441)">
            <g id="Group_1103566" data-name="Group 1103566">
              <path id="Path_894087" data-name="Path 894087" d="M358.839,427.534l1.782-3.839c.084-.319-1.619-2.076-1.834-2.319l-1.647-1.9a.983.983,0,0,0-1.273-.173.9.9,0,0,0-.374.45l-2.927,7.266-.206.51Z" transform="translate(-352.36 -419.149)" fill="#eab99a"/>
            </g>
          </g>
          <g id="Group_1103569" data-name="Group 1103569" transform="translate(27.794 25.441)">
            <g id="Group_1103568" data-name="Group 1103568">
              <path id="Path_894088" data-name="Path 894088" d="M390.8,427.534l-.206-.51-2.927-7.266a.9.9,0,0,0-.374-.45.983.983,0,0,0-1.273.173l-1.647,1.9c-.215.243-1.918,2-1.834,2.319l1.782,3.839Z" transform="translate(-382.533 -419.149)" fill="#eab99a"/>
            </g>
          </g>
          <g id="Group_1103571" data-name="Group 1103571" transform="translate(4.38 19.908)">
            <g id="Group_1103570" data-name="Group 1103570">
              <path id="Path_894089" data-name="Path 894089" d="M359.433,426.175c.084.308.162.6.241.886h22.359c.036-.145.07-.287.107-.437a1.424,1.424,0,0,0,.049-.18v-.007c.741-2.893,1.522-5.827,2.207-8.817a2.391,2.391,0,0,0-.076-1.363v-.006a2.448,2.448,0,0,0-1.384-1.489c-.124-.055-7.558-1.549-7.558-1.549a2.468,2.468,0,0,0-.6-.069h-7.973a2.444,2.444,0,0,0-.6.069l-7.191,1.419a2.522,2.522,0,0,0-1.848,3C357.828,420.465,358.643,423.31,359.433,426.175Z" transform="translate(-357.115 -413.143)" fill="#eab99a"/>
            </g>
          </g>
          <g id="Group_1103573" data-name="Group 1103573" transform="translate(14.724 15.811)">
            <g id="Group_1103572" data-name="Group 1103572">
              <rect id="Rectangle_405410" data-name="Rectangle 405410" width="7.192" height="6.39" fill="#eab99a"/>
            </g>
          </g>
          <g id="Group_1103586" data-name="Group 1103586" transform="translate(11.794)">
            <g id="Group_1103575" data-name="Group 1103575" transform="translate(10.286 8.202)">
              <g id="Group_1103574" data-name="Group 1103574">
                <path id="Path_894090" data-name="Path 894090" d="M376.989,403.934h0a.921.921,0,0,0,1.184-.69l.369-1.671a.951.951,0,0,0-.638-1.1h0a.922.922,0,0,0-1.183.691l-.37,1.671A.949.949,0,0,0,376.989,403.934Z" transform="translate(-376.329 -400.435)" fill="#eab99a"/>
              </g>
            </g>
            <g id="Group_1103577" data-name="Group 1103577" transform="translate(1.075 3.802)">
              <g id="Group_1103576" data-name="Group 1103576">
                <path id="Path_894091" data-name="Path 894091" d="M376.382,399.093l.418,5.264a4.284,4.284,0,0,1-.076,1.25,3.724,3.724,0,0,1-.64,1.5,2.891,2.891,0,0,1-.692.7l-1.767,2.246a2.262,2.262,0,0,1-1.708.56,1.634,1.634,0,0,1-1.118-.335l-2.112-1.95a2.6,2.6,0,0,1-.77-.567,3.693,3.693,0,0,1-.882-1.394,4.219,4.219,0,0,1-.271-1.209l-.419-5.264c-.16-2.014,1.014-3.762,2.612-3.889l4.231-.337C374.784,395.538,376.221,397.079,376.382,399.093Z" transform="translate(-366.33 -395.658)" fill="#eab99a"/>
              </g>
            </g>
            <g id="Group_1103579" data-name="Group 1103579" transform="translate(1.075 3.855)">
              <g id="Group_1103578" data-name="Group 1103578">
                <path id="Path_894092" data-name="Path 894092" d="M375.719,399.15l.419,5.264a4.324,4.324,0,0,1-.076,1.251,3.727,3.727,0,0,1-.64,1.494,2.922,2.922,0,0,1-.692.7l-1.767,2.246a1.605,1.605,0,0,1-2.165.172l-2.112-1.95a2.6,2.6,0,0,1-.77-.567,3.693,3.693,0,0,1-.882-1.394,4.22,4.22,0,0,1-.271-1.21l-.419-5.264c-.16-2.014,1.014-3.762,2.612-3.889l3.57-.284C374.122,395.6,375.56,397.137,375.719,399.15Z" transform="translate(-366.33 -395.716)" fill="#f4caaf"/>
              </g>
            </g>
            <g id="Group_1103581" data-name="Group 1103581" transform="translate(0 9.049)">
              <g id="Group_1103580" data-name="Group 1103580">
                <path id="Path_894093" data-name="Path 894093" d="M367.134,404.722h0a.923.923,0,0,1-1.279-.495l-.63-1.592a.951.951,0,0,1,.458-1.182h0a.92.92,0,0,1,1.278.495l.63,1.592A.951.951,0,0,1,367.134,404.722Z" transform="translate(-365.163 -401.354)" fill="#f4caaf"/>
              </g>
            </g>
            <g id="Group_1103583" data-name="Group 1103583" transform="translate(0.819 0.542)">
              <g id="Group_1103582" data-name="Group 1103582">
                <path id="Path_894094" data-name="Path 894094" d="M376.9,398.274l-.389,4.275-1.706-2.631-1.463-.175-5.366-.631-.832,4.37-.042.208-.053-.228-1-4.158.676-4.483.581-.047.865-1.969.488.623.807-1.309,2.384,1.465.587-.835,2.936,2.461.027-.022.621-.572Z" transform="translate(-366.053 -392.119)" fill="#7d4c2e"/>
              </g>
            </g>
            <g id="Group_1103585" data-name="Group 1103585" transform="translate(0.52)">
              <g id="Group_1103584" data-name="Group 1103584">
                <path id="Path_894095" data-name="Path 894095" d="M376,394.57l-.531,1.7a3.208,3.208,0,0,1-2.152,3.429l-5.366-.632-.833,4.37a.5.5,0,0,1-.095-.019l-1.3-2.736v-3.2l.975-2.708,1.446-2.016.556-.361.739-.324,2.482-.542,2.2.866,1.616,1.326Z" transform="translate(-365.728 -391.531)" fill="#8d5c3e"/>
              </g>
            </g>
          </g>
          <g id="Group_1103588" data-name="Group 1103588" transform="translate(1.245 19.908)">
            <g id="Group_1103587" data-name="Group 1103587">
              <path id="Path_894096" data-name="Path 894096" d="M359.222,427.061l.095-.237c.076.277.054.149.086.237h22.363c.036-.145.07-.287.107-.437a3.007,3.007,0,0,1,.169.437h5.026l1.548-.775-4.286-9.656a.9.9,0,0,0-.277-.374v-.006a2.448,2.448,0,0,0-1.384-1.489c-.124-.055-7.558-1.549-7.558-1.549a2.468,2.468,0,0,0-.6-.069l-3.731,5.786-4.242-5.786a2.445,2.445,0,0,0-.6.069l-7.191,1.419a2.48,2.48,0,0,0-1.744,1.549.9.9,0,0,0-.374.45l-2.927,7.267,2.83,3.163Z" transform="translate(-353.711 -413.143)" fill="#505050"/>
            </g>
          </g>
          <g id="Group_1103590" data-name="Group 1103590" transform="translate(27.891 28.358)">
            <g id="Group_1103589" data-name="Group 1103589">
              <path id="Path_894097" data-name="Path 894097" d="M384.046,427.784c.036-.145.07-.286.107-.437l-.215-5.031s-.66,2.838-1.3,5.468Z" transform="translate(-382.638 -422.316)" fill="#404040"/>
            </g>
          </g>
        </g>
        <g id="Group_1103592" data-name="Group 1103592" transform="translate(0 46.764)">
          <rect id="Rectangle_405411" data-name="Rectangle 405411" width="64.493" height="1.657" fill="#8d5c3e"/>
        </g>
        <g id="Group_1103617" data-name="Group 1103617" transform="translate(24.564)">
          <g id="Group_1103594" data-name="Group 1103594" transform="translate(3.636)">
            <g id="Group_1103593" data-name="Group 1103593">
              <path id="Path_894098" data-name="Path 894098" d="M398.255,389.5c0-5.383-3.251-8.263-7.262-8.263h-.025c-4.011,0-7.262,2.88-7.262,8.263,0,1.53.662,8.967.508,10.745l6.391,1.554,7.18-2C397.63,398.027,398.255,391.034,398.255,389.5Z" transform="translate(-383.707 -381.241)" fill="#6d3c1f"/>
            </g>
          </g>
          <g id="Group_1103596" data-name="Group 1103596" transform="translate(0 18.565)">
            <g id="Group_1103595" data-name="Group 1103595">
              <path id="Path_894099" data-name="Path 894099" d="M383.336,415.663c.073-.954.138-1.993.2-3.05a1,1,0,0,1,.008-.157c.087-1.692.165-3.424.22-4.919.086-2.359.124-4.153.124-4.333a1.822,1.822,0,0,0-1.379-1.739,1.907,1.907,0,0,0-2.389,1.5.962.962,0,0,0-.015.134,84.5,84.5,0,0,0-.2,12.561Z" transform="translate(-379.76 -401.395)" fill="#4893bf"/>
            </g>
          </g>
          <g id="Group_1103598" data-name="Group 1103598" transform="translate(16.864 18.432)">
            <g id="Group_1103597" data-name="Group 1103597">
              <path id="Path_894100" data-name="Path 894100" d="M400.128,412.67c.341,1.7.3,2.106.475,2.946h3.323a75.107,75.107,0,0,0-1.772-12.924.407.407,0,0,0-.034-.129,1.861,1.861,0,0,0-2.078-1.292,2.01,2.01,0,0,0-.48.132,1.824,1.824,0,0,0-1.139,1.929,8.354,8.354,0,0,0-.217,3.866c.276,1.536,1.561,3.673,1.907,5.413A.157.157,0,0,1,400.128,412.67Z" transform="translate(-398.067 -401.25)" fill="#4893bf"/>
            </g>
          </g>
          <g id="Group_1103600" data-name="Group 1103600" transform="translate(1.018 18.316)">
            <g id="Group_1103599" data-name="Group 1103599">
              <path id="Path_894101" data-name="Path 894101" d="M381.8,407.053a1.969,1.969,0,0,1-.239,1.489c-.82,1.44.08,2.937,1.759,3.764l1.14,1.6c.091.544.153,1.131.2,1.735h12.186c.03-.8.083-1.468.149-1.92.929-.133,3.78-2.361,2.783-5.161a2.56,2.56,0,0,1-.239-1.536l.866-3.195a1.875,1.875,0,0,0-1.448-2.37,2.488,2.488,0,0,0-.333-.023h-2.17a9.957,9.957,0,0,1-1.531-.255c-.262-.063-.192.04-.455.1,0,0-3.8,1.215-3.967,1.2a32.9,32.9,0,0,1-3.916-1.357,7.1,7.1,0,0,1-.749.2,6.294,6.294,0,0,1-.953.111H382.71a.635.635,0,0,0-.118.007l-.03,0a1.885,1.885,0,0,0-1.63,2.4Z" transform="translate(-380.865 -401.124)" fill="#55ace0"/>
            </g>
          </g>
          <g id="Group_1103602" data-name="Group 1103602" transform="translate(5.673 2.849)">
            <g id="Group_1103601" data-name="Group 1103601">
              <path id="Path_894102" data-name="Path 894102" d="M387.519,385.964c3.256-2.148,3.945-2.2,7.247,0s.1,13.989.1,13.989l-7.883-.153S384.264,388.114,387.519,385.964Z" transform="translate(-385.918 -384.334)" fill="#5d2c10"/>
            </g>
          </g>
          <g id="Group_1103604" data-name="Group 1103604" transform="translate(6.507 15.071)">
            <g id="Group_1103603" data-name="Group 1103603">
              <path id="Path_894103" data-name="Path 894103" d="M393.906,400.061a2.968,2.968,0,0,1-.254-.314,4.306,4.306,0,0,1-.789-2.145h-3.454a4.165,4.165,0,0,1-.865,2.231,2.917,2.917,0,0,1-.185.228,3.456,3.456,0,0,1-1.536.858,8.985,8.985,0,0,0,4.316,1.408,8.459,8.459,0,0,0,4.252-1.424A3.473,3.473,0,0,1,393.906,400.061Z" transform="translate(-386.823 -397.602)" fill="#eab99a"/>
            </g>
          </g>
          <g id="Group_1103606" data-name="Group 1103606" transform="translate(6.081 2.316)">
            <g id="Group_1103605" data-name="Group 1103605">
              <path id="Path_894104" data-name="Path 894104" d="M396,390.071c0,3.484-2.138,7.7-4.8,7.7a1.889,1.889,0,0,1-.364-.031c-2.494-.356-4.474-4.338-4.474-7.664s1.956-6.056,4.449-6.3c.119-.008.238-.016.365-.016C393.835,383.755,396,386.58,396,390.071Z" transform="translate(-386.361 -383.755)" fill="#eab99a"/>
            </g>
          </g>
          <g id="Group_1103608" data-name="Group 1103608" transform="translate(6.081 2.331)">
            <g id="Group_1103607" data-name="Group 1103607">
              <path id="Path_894105" data-name="Path 894105" d="M395.268,390.073c0,3.326-1.947,7.308-4.433,7.664-2.494-.356-4.474-4.338-4.474-7.664a2.026,2.026,0,0,1,.017-.316,6.607,6.607,0,0,1,2.6-5.3,3.961,3.961,0,0,1,1.338-.594l.031-.008a.051.051,0,0,1,.031-.007,4.083,4.083,0,0,1,.427-.071,3.954,3.954,0,0,1,.9.205,5.987,5.987,0,0,1,3.491,5.106A8.394,8.394,0,0,1,395.268,390.073Z" transform="translate(-386.361 -383.772)" fill="#f5c4a5"/>
            </g>
          </g>
          <g id="Group_1103610" data-name="Group 1103610" transform="translate(6.098 2.402)">
            <g id="Group_1103609" data-name="Group 1103609">
              <path id="Path_894106" data-name="Path 894106" d="M395.555,389.066l-.348.023-8.828.673a6.606,6.606,0,0,1,2.6-5.3l1.338-.594.031-.008.008-.007h.023l1.331.134,1.915.19Z" transform="translate(-386.379 -383.849)" fill="#eab99a"/>
            </g>
          </g>
          <g id="Group_1103612" data-name="Group 1103612" transform="translate(6.559 1.337)">
            <g id="Group_1103611" data-name="Group 1103611">
              <path id="Path_894107" data-name="Path 894107" d="M388.226,384.278s-1.485,3.018-1.336,4.7H395.6a28.026,28.026,0,0,0-1.336-4.907C393.164,381.715,388.281,382.781,388.226,384.278Z" transform="translate(-386.88 -382.692)" fill="#6d3c1f"/>
            </g>
          </g>
          <g id="Group_1103614" data-name="Group 1103614" transform="translate(11.715 2.717)">
            <g id="Group_1103613" data-name="Group 1103613">
              <path id="Path_894108" data-name="Path 894108" d="M392.674,389.1h.841s-.049-4.123-1.038-4.907c0,0,.495,3.917.2,4.907Z" transform="translate(-392.477 -384.19)" fill="#5d2c10"/>
            </g>
          </g>
          <g id="Group_1103616" data-name="Group 1103616" transform="translate(9.536 3.071)">
            <g id="Group_1103615" data-name="Group 1103615">
              <path id="Path_894109" data-name="Path 894109" d="M391.2,384.575a9.215,9.215,0,0,0-1.089,4.552h.792S390.855,385.07,391.2,384.575Z" transform="translate(-390.111 -384.575)" fill="#5d2c10"/>
            </g>
          </g>
        </g>
        <g id="Group_1103624" data-name="Group 1103624" transform="translate(16.292 27.52)">
          <g id="Group_1103622" data-name="Group 1103622">
            <g id="Group_1103619" data-name="Group 1103619" transform="translate(2.084)">
              <g id="Group_1103618" data-name="Group 1103618">
                <path id="Path_894110" data-name="Path 894110" d="M406.5,407.822v17.7a.389.389,0,0,1-.03.157.462.462,0,0,1-.446.315H373.5a.46.46,0,0,1-.441-.315.389.389,0,0,1-.03-.157v-17.7a.474.474,0,0,1,.472-.471h32.52A.473.473,0,0,1,406.5,407.822Z" transform="translate(-373.03 -407.351)" fill="#909090"/>
              </g>
            </g>
            <g id="Group_1103621" data-name="Group 1103621" transform="translate(0 18.328)">
              <g id="Group_1103620" data-name="Group 1103620">
                <path id="Path_894111" data-name="Path 894111" d="M408.4,427.684a.825.825,0,0,1-.823.822H371.589a.821.821,0,0,1-.821-.822.8.8,0,0,1,.126-.437h37.383A.8.8,0,0,1,408.4,427.684Z" transform="translate(-370.768 -427.247)" fill="silver"/>
              </g>
            </g>
          </g>
          <g id="Group_1103623" data-name="Group 1103623" transform="translate(16.834 7.051)">
            <path id="Path_894112" data-name="Path 894112" d="M393.009,416.988A1.983,1.983,0,1,1,391.026,415,1.983,1.983,0,0,1,393.009,416.988Z" transform="translate(-389.043 -415.005)" fill="silver"/>
          </g>
        </g>
      </g>
    </g>
  </g>
</svg>
