<svg xmlns="http://www.w3.org/2000/svg" xmlns:xlink="http://www.w3.org/1999/xlink" width="121" height="121" viewBox="0 0 121 121">
  <defs>
    <clipPath id="clip-path">
      <rect id="Rectangle_400938" data-name="Rectangle 400938" width="121" height="121" transform="translate(0 0)" fill="none"/>
    </clipPath>
    <clipPath id="clip-path-2">
      <rect id="Rectangle_401073" data-name="Rectangle 401073" width="92.219" height="41.532" fill="#fff"/>
    </clipPath>
  </defs>
  <g id="Group_1104218" data-name="Group 1104218" transform="translate(-266 -3752.76)">
    <rect id="Rectangle_401103" data-name="Rectangle 401103" width="121" height="121" transform="translate(266 3752.76)" fill="none"/>
    <g id="Group_1099348" data-name="Group 1099348" transform="translate(266 3752.76)">
      <g id="Group_1099282" data-name="Group 1099282">
        <g id="Group_1099281" data-name="Group 1099281" clip-path="url(#clip-path-2)">
          <path id="Path_873375" data-name="Path 873375" d="M74.8,9.1c-4.139,0-6.28-2.03-8.17-3.821-1.855-1.756-3.452-3.274-6.792-3.274s-4.937,1.517-6.792,3.274C51.161,7.072,49.023,9.1,44.881,9.1s-6.28-2.03-8.169-3.821C34.857,3.525,33.26,2.007,29.92,2.007s-4.937,1.517-6.789,3.274C21.241,7.072,19.1,9.1,14.962,9.1S8.679,7.072,6.789,5.281C4.937,3.525,3.34,2.007,0,2.007V0C4.139,0,6.28,2.033,8.17,3.821c1.855,1.759,3.452,3.274,6.792,3.274S19.9,5.58,21.75,3.824C23.637,2.033,25.781,0,29.92,0s6.283,2.033,8.17,3.821c1.855,1.759,3.452,3.274,6.792,3.274s4.937-1.514,6.792-3.274C53.56,2.033,55.7,0,59.843,0s6.283,2.033,8.17,3.821C69.867,5.58,71.464,7.094,74.8,7.094S79.742,5.58,81.6,3.821C83.483,2.033,85.624,0,89.766,0V2.007c-3.34,0-4.937,1.517-6.792,3.274C81.084,7.072,78.943,9.1,74.8,9.1" transform="translate(2.453 32.43)" fill="#fff"/>
          <path id="Path_873376" data-name="Path 873376" d="M74.8,9.1c-4.139,0-6.283-2.03-8.17-3.824-1.855-1.756-3.452-3.27-6.792-3.27s-4.937,1.514-6.792,3.27C51.164,7.072,49.023,9.1,44.881,9.1s-6.283-2.03-8.17-3.824c-1.855-1.756-3.452-3.27-6.792-3.27s-4.937,1.517-6.789,3.27C21.241,7.072,19.1,9.1,14.962,9.1S8.679,7.072,6.789,5.278C4.937,3.522,3.34,2.007,0,2.007V0C4.139,0,6.283,2.03,8.17,3.821c1.855,1.759,3.452,3.274,6.792,3.274S19.9,5.58,21.75,3.821C23.637,2.03,25.781,0,29.92,0S36.2,2.03,38.093,3.821c1.852,1.759,3.449,3.274,6.789,3.274s4.937-1.514,6.792-3.274C53.56,2.03,55.7,0,59.843,0s6.283,2.03,8.17,3.821C69.867,5.58,71.464,7.094,74.8,7.094S79.742,5.58,81.6,3.821C83.486,2.03,85.627,0,89.769,0V2.007c-3.34,0-4.94,1.517-6.8,3.27C81.084,7.072,78.943,9.1,74.8,9.1" transform="translate(1.635 21.62)" fill="#fff"/>
          <path id="Path_873377" data-name="Path 873377" d="M74.8,9.1c-4.139,0-6.283-2.03-8.169-3.824-1.855-1.756-3.452-3.27-6.792-3.27s-4.937,1.514-6.792,3.27C51.164,7.072,49.02,9.1,44.881,9.1s-6.283-2.03-8.17-3.824c-1.855-1.756-3.452-3.27-6.792-3.27s-4.937,1.517-6.789,3.27C21.241,7.072,19.1,9.1,14.962,9.1S8.678,7.072,6.789,5.278C4.937,3.522,3.34,2.007,0,2.007V0C4.139,0,6.283,2.03,8.169,3.821c1.851,1.759,3.452,3.274,6.792,3.274S19.9,5.58,21.75,3.821C23.637,2.03,25.781,0,29.92,0S36.2,2.03,38.093,3.821c1.852,1.759,3.449,3.274,6.789,3.274s4.937-1.514,6.792-3.274C53.56,2.03,55.7,0,59.843,0s6.283,2.03,8.17,3.821C69.867,5.58,71.464,7.094,74.8,7.094S79.742,5.58,81.6,3.821C83.486,2.03,85.624,0,89.769,0V2.007c-3.34,0-4.941,1.517-6.8,3.27C81.084,7.072,78.943,9.1,74.8,9.1" transform="translate(0.818 10.81)" fill="#fff"/>
          <path id="Path_873378" data-name="Path 873378" d="M74.8,9.1c-4.139,0-6.28-2.03-8.17-3.821-1.855-1.756-3.452-3.27-6.792-3.27s-4.937,1.514-6.789,3.27C51.164,7.069,49.023,9.1,44.881,9.1s-6.28-2.03-8.169-3.821c-1.855-1.756-3.452-3.27-6.792-3.27s-4.937,1.514-6.789,3.267C21.245,7.069,19.1,9.1,14.962,9.1S8.678,7.069,6.789,5.278C4.937,3.522,3.34,2.007,0,2.007V0C4.139,0,6.283,2.03,8.17,3.821c1.855,1.756,3.452,3.27,6.792,3.27S19.9,5.577,21.75,3.821C23.64,2.03,25.781,0,29.92,0s6.28,2.03,8.173,3.821c1.852,1.756,3.449,3.27,6.789,3.27s4.937-1.514,6.792-3.27C53.563,2.03,55.7,0,59.843,0s6.28,2.03,8.17,3.821c1.855,1.756,3.452,3.27,6.792,3.27s4.937-1.514,6.792-3.27C83.486,2.03,85.627,0,89.769,0V2.007c-3.344,0-4.941,1.514-6.8,3.27C81.084,7.069,78.943,9.1,74.8,9.1" transform="translate(0 0.003)" fill="#fff"/>
        </g>
      </g>
    </g>
    <rect id="Rectangle_401104" data-name="Rectangle 401104" width="68" height="69" transform="translate(291.625 3778)" fill="none"/>
    <g id="Group_1103384" data-name="Group 1103384" transform="translate(148.957 3409.012)">
      <g id="Group_1103323" data-name="Group 1103323" transform="translate(145.668 368.989)">
        <g id="Group_1103283" data-name="Group 1103283">
          <path id="Path_893982" data-name="Path 893982" d="M181.461,386.886a17.9,17.9,0,1,1-17.9-17.9A17.9,17.9,0,0,1,181.461,386.886Z" transform="translate(-145.668 -368.989)" fill="#d5e5e6"/>
        </g>
        <g id="Group_1103322" data-name="Group 1103322" transform="translate(7.703 4.568)">
          <g id="Group_1103285" data-name="Group 1103285" transform="translate(0 23.873)">
            <g id="Group_1103284" data-name="Group 1103284">
              <path id="Path_893983" data-name="Path 893983" d="M152.484,394.154c.006,0,.012.006.017.006,3.451.885,6.494,1.712,8.872,2.346.414.105.81.211,1.183.306l.035,1.382c-.383-.025-.778-.061-1.178-.1a55.057,55.057,0,0,1-8.469-1.743Z" transform="translate(-152.484 -394.154)" fill="#eab99a"/>
            </g>
          </g>
          <g id="Group_1103287" data-name="Group 1103287" transform="translate(10.693 23.873)">
            <g id="Group_1103286" data-name="Group 1103286">
              <path id="Path_893984" data-name="Path 893984" d="M172.052,394.154c-.006,0-.011.006-.017.006-3.451.885-6.494,1.712-8.872,2.346-.414.105-.81.211-1.183.306l-.035,1.382c.383-.025.778-.061,1.179-.1a55.072,55.072,0,0,0,8.467-1.743Z" transform="translate(-161.945 -394.154)" fill="#eab99a"/>
            </g>
          </g>
          <g id="Group_1103289" data-name="Group 1103289" transform="translate(4.618)">
            <g id="Group_1103288" data-name="Group 1103288">
              <path id="Path_893985" data-name="Path 893985" d="M168.218,380c0,3.849-5.824,6.122-5.824,6.122s-5.824-2.273-5.824-6.122,2.607-6.969,5.824-6.969S168.218,376.151,168.218,380Z" transform="translate(-156.57 -373.031)" fill="#f3aa43"/>
            </g>
          </g>
          <g id="Group_1103291" data-name="Group 1103291" transform="translate(6.945 4.095)">
            <g id="Group_1103290" data-name="Group 1103290">
              <path id="Path_893986" data-name="Path 893986" d="M165.191,376.654s2.969,4.844-1.682,8.334h0l-3.265-.284s-2.031-2.223-1.538-4.367h0l6.485-3.683Z" transform="translate(-158.629 -376.654)" fill="#ef893a"/>
            </g>
          </g>
          <g id="Group_1103293" data-name="Group 1103293" transform="translate(0 14.135)">
            <g id="Group_1103292" data-name="Group 1103292">
              <path id="Path_893987" data-name="Path 893987" d="M158.159,387.314c-.041.123-.484,1.377-1.091,3.007-.047.122-.1.251-.144.381-.177.47-.362.962-.553,1.466.007,0,0,.007,0,.007-.047.129-.1.26-.15.4-.149.382-.3.77-.449,1.158l-.042.11a9.449,9.449,0,0,0-.423,2.8,1.2,1.2,0,0,1-1.207,1.084H154.1c-1-.654-1.248-.619-1.5-1.936a1.924,1.924,0,0,1-.088-.825,44.454,44.454,0,0,1,3.02-8.591.689.689,0,0,1,.034-.095,1.375,1.375,0,0,1,1.569-.7.636.636,0,0,1,.109.027,1.224,1.224,0,0,1,.348.164A1.349,1.349,0,0,1,158.159,387.314Z" transform="translate(-152.484 -385.538)" fill="#eab99a"/>
            </g>
          </g>
          <g id="Group_1103295" data-name="Group 1103295" transform="translate(15.088 14.135)">
            <g id="Group_1103294" data-name="Group 1103294">
              <path id="Path_893988" data-name="Path 893988" d="M171.453,395.788c-.252,1.317-.491,1.282-1.5,1.936h-.007a1.2,1.2,0,0,1-1.207-1.084,9.375,9.375,0,0,0-.423-2.8l-.034-.11c-.15-.389-.307-.783-.457-1.172-.3-.778-.587-1.54-.839-2.236-.607-1.631-1.05-2.884-1.091-3.007a1.355,1.355,0,0,1,.566-1.54,1.311,1.311,0,0,1,.347-.164.7.7,0,0,1,.116-.027,1.364,1.364,0,0,1,1.561.7c.014.035.027.061.041.095a44.9,44.9,0,0,1,3.013,8.591A1.907,1.907,0,0,1,171.453,395.788Z" transform="translate(-165.834 -385.538)" fill="#eab99a"/>
            </g>
          </g>
          <g id="Group_1103297" data-name="Group 1103297" transform="translate(3.071 11.547)">
            <g id="Group_1103296" data-name="Group 1103296">
              <path id="Path_893989" data-name="Path 893989" d="M168.91,390.665a1.85,1.85,0,0,1,.573,1.282,1.679,1.679,0,0,1-.272.908,2.981,2.981,0,0,1-1.391,1.111.17.17,0,0,1-.047.027,2.639,2.639,0,0,1-.362.137.6.6,0,0,1-.1.034.252.252,0,0,0-.02.069v.007a14.837,14.837,0,0,0-1.126,4.26h-7.247a14.685,14.685,0,0,0-1.1-4.192,1.161,1.161,0,0,0-.054-.143,3.434,3.434,0,0,1-.431-.156,4.464,4.464,0,0,1-.729-.4,2.678,2.678,0,0,1-.737-.744,1.741,1.741,0,0,1-.279-.921,1.85,1.85,0,0,1,.573-1.282l-.961-3.544a1.35,1.35,0,0,1,1.37-1.241h1.691a4.039,4.039,0,0,0,1.507-.321,2.341,2.341,0,0,0,.715-.49,1.872,1.872,0,0,0,.24-.28,3.29,3.29,0,0,0,.538-1.54h2.55a3.291,3.291,0,0,0,.539,1.54,1.754,1.754,0,0,0,.232.28,2.394,2.394,0,0,0,.723.49,4.029,4.029,0,0,0,1.507.321h1.6a1.366,1.366,0,0,1,1.459,1.241Z" transform="translate(-155.201 -383.248)" fill="#eab99a"/>
            </g>
          </g>
          <g id="Group_1103299" data-name="Group 1103299" transform="translate(10.979 18.398)">
            <g id="Group_1103298" data-name="Group 1103298">
              <path id="Path_893990" data-name="Path 893990" d="M167.959,391.492a2.03,2.03,0,0,1-1.05,1.684.169.169,0,0,1-.047.027,2.919,2.919,0,0,1-.355.184,1.265,1.265,0,0,1-.129.055v.007a3.79,3.79,0,0,1-1.3.225c-1.595,0-2.883-.975-2.883-2.182s1.288-2.182,2.883-2.182a3.55,3.55,0,0,1,1.255.226A2.211,2.211,0,0,1,167.959,391.492Z" transform="translate(-162.198 -389.31)" fill="#f5c4a5"/>
            </g>
          </g>
          <g id="Group_1103301" data-name="Group 1103301" transform="translate(3.881 18.398)">
            <g id="Group_1103300" data-name="Group 1103300">
              <path id="Path_893991" data-name="Path 893991" d="M161.68,391.492c0,1.207-1.3,2.182-2.884,2.182a3.646,3.646,0,0,1-1.07-.157,2.645,2.645,0,0,1-.485-.184,2.8,2.8,0,0,1-.729-.511,1.956,1.956,0,0,1-.587-1.139s.007-.007,0-.007a1.664,1.664,0,0,1-.007-.184,1.824,1.824,0,0,1,.559-1.282,2.645,2.645,0,0,1,.927-.634,3.77,3.77,0,0,1,1.391-.267C160.385,389.31,161.68,390.293,161.68,391.492Z" transform="translate(-155.918 -389.31)" fill="#f5c4a5"/>
            </g>
          </g>
          <g id="Group_1103303" data-name="Group 1103303" transform="translate(6.883 1.794)">
            <g id="Group_1103302" data-name="Group 1103302">
              <path id="Path_893992" data-name="Path 893992" d="M165.692,379.285c0,2.573-1.579,5.685-3.544,5.685a1.4,1.4,0,0,1-.269-.023c-1.842-.263-3.3-3.205-3.3-5.662s1.444-4.473,3.287-4.655c.088-.006.176-.011.269-.011C164.1,374.618,165.692,376.705,165.692,379.285Z" transform="translate(-158.574 -374.618)" fill="#eab99a"/>
            </g>
          </g>
          <g id="Group_1103305" data-name="Group 1103305" transform="translate(6.883 1.805)">
            <g id="Group_1103304" data-name="Group 1103304">
              <path id="Path_893993" data-name="Path 893993" d="M165.154,379.283c0,2.457-1.439,5.4-3.275,5.662-1.842-.263-3.3-3.205-3.3-5.662a1.623,1.623,0,0,1,.011-.234,4.881,4.881,0,0,1,1.925-3.918,2.942,2.942,0,0,1,.989-.439l.023-.006a.037.037,0,0,1,.024-.006,3.064,3.064,0,0,1,.315-.053,2.816,2.816,0,0,1,.667.153,4.422,4.422,0,0,1,2.579,3.773A6.014,6.014,0,0,1,165.154,379.283Z" transform="translate(-158.574 -374.628)" fill="#f5c4a5"/>
            </g>
          </g>
          <g id="Group_1103307" data-name="Group 1103307" transform="translate(6.502 1.344)">
            <g id="Group_1103306" data-name="Group 1103306">
              <path id="Path_893994" data-name="Path 893994" d="M158.237,375.975s.679,1.608,3.58,2.048,3.487,1.754,3.778,2.631c0,0,1.608-3.8-.827-5.263S159.308,373.538,158.237,375.975Z" transform="translate(-158.237 -374.22)" fill="#f3aa43"/>
            </g>
          </g>
          <g id="Group_1103309" data-name="Group 1103309" transform="translate(6.591 7.772)">
            <g id="Group_1103308" data-name="Group 1103308">
              <path id="Path_893995" data-name="Path 893995" d="M161.106,382.418a2.685,2.685,0,0,1-2.79-2.489l.34-.021a2.318,2.318,0,0,0,2.45,2.169Z" transform="translate(-158.316 -379.908)" fill="#606060"/>
            </g>
          </g>
          <g id="Group_1103311" data-name="Group 1103311" transform="translate(6.483 7.195)">
            <g id="Group_1103310" data-name="Group 1103310">
              <path id="Path_893996" data-name="Path 893996" d="M158.5,380.939h0a.28.28,0,0,1-.279-.279v-.982a.28.28,0,0,1,.279-.28h0a.28.28,0,0,1,.279.28v.982A.28.28,0,0,1,158.5,380.939Z" transform="translate(-158.22 -379.397)" fill="#606060"/>
            </g>
          </g>
          <g id="Group_1103313" data-name="Group 1103313" transform="translate(9.123 9.833)">
            <g id="Group_1103312" data-name="Group 1103312">
              <rect id="Rectangle_405398" data-name="Rectangle 405398" width="0.559" height="1.04" rx="0.203" transform="translate(0 0.559) rotate(-90)" fill="#404040"/>
            </g>
          </g>
          <g id="Group_1103315" data-name="Group 1103315" transform="translate(0.364 13.858)">
            <g id="Group_1103314" data-name="Group 1103314">
              <path id="Path_893997" data-name="Path 893997" d="M169.523,392.588c.149.389.306.783.457,1.172l.034.11a4.82,4.82,0,0,1,.252.925,6.275,6.275,0,0,0,1.441-.548c.4-.226.758-.511,1.137-.767a46.015,46.015,0,0,0-2.619-7.075c-.014-.034-.027-.06-.041-.095a1.364,1.364,0,0,0-1.561-.7h-1.5a4.029,4.029,0,0,1-1.507-.321l-2.769,2.543-2.768-2.543a4.039,4.039,0,0,1-1.507.321h-1.486a1.375,1.375,0,0,0-1.569.7.689.689,0,0,0-.034.095,45.214,45.214,0,0,0-2.679,7.271,6.766,6.766,0,0,0,2.6,1.309,5.1,5.1,0,0,1,.286-1.113l.042-.11c.149-.389.3-.776.449-1.158a2.678,2.678,0,0,0,.737.744,2.8,2.8,0,0,0,.729.511,2.645,2.645,0,0,0,.485.184,14.686,14.686,0,0,1,1.1,4.192h7.247a14.838,14.838,0,0,1,1.126-4.26v-.007a1.265,1.265,0,0,0,.129-.055,2.919,2.919,0,0,0,.355-.184.169.169,0,0,0,.047-.027A2.981,2.981,0,0,0,169.523,392.588Z" transform="translate(-152.806 -385.293)" fill="#4c8eb5"/>
            </g>
          </g>
          <g id="Group_1103317" data-name="Group 1103317" transform="translate(2.365 18.796)">
            <g id="Group_1103316" data-name="Group 1103316">
              <rect id="Rectangle_405399" data-name="Rectangle 405399" width="15.946" height="9.362" rx="0.559" fill="#a0a0a0"/>
            </g>
          </g>
          <g id="Group_1103319" data-name="Group 1103319" transform="translate(1.257 27.481)">
            <g id="Group_1103318" data-name="Group 1103318">
              <path id="Path_893998" data-name="Path 893998" d="M171.651,397.977h-17.74a.317.317,0,0,1-.315-.315h0a.317.317,0,0,1,.315-.315h17.74a.316.316,0,0,1,.315.315h0A.316.316,0,0,1,171.651,397.977Z" transform="translate(-153.596 -397.346)" fill="#909090"/>
            </g>
          </g>
          <g id="Group_1103321" data-name="Group 1103321" transform="translate(9.201 21.904)">
            <g id="Group_1103320" data-name="Group 1103320">
              <path id="Path_893999" data-name="Path 893999" d="M162.569,393.384a.972.972,0,1,1-.972-.972A.973.973,0,0,1,162.569,393.384Z" transform="translate(-160.625 -392.412)" fill="#d0d0d0"/>
            </g>
          </g>
        </g>
      </g>
      <g id="Group_1103324" data-name="Group 1103324" transform="translate(157.961 386.638)">
        <path id="Path_894000" data-name="Path 894000" d="M207.9,410.281A25.675,25.675,0,1,1,182.221,384.6,25.675,25.675,0,0,1,207.9,410.281Z" transform="translate(-156.545 -384.605)" fill="#ffb937"/>
      </g>
      <g id="Group_1103383" data-name="Group 1103383" transform="translate(163.77 388.12)">
        <g id="Group_1103381" data-name="Group 1103381">
          <g id="Group_1103361" data-name="Group 1103361" transform="translate(0 28.754)">
            <g id="Group_1103360" data-name="Group 1103360">
              <g id="Group_1103359" data-name="Group 1103359">
                <path id="Path_894015" data-name="Path 894015" d="M169.49,427.842l.732-4.567-4.248-11.917c-1.439.584-2.49,1.33-2.8,2.385l-1.492,14.1Z" transform="translate(-161.685 -411.358)" fill="#707070"/>
              </g>
            </g>
          </g>
          <g id="Group_1103364" data-name="Group 1103364" transform="translate(32.52 30.072)">
            <g id="Group_1103363" data-name="Group 1103363">
              <g id="Group_1103362" data-name="Group 1103362">
                <path id="Path_894016" data-name="Path 894016" d="M200.581,427.69l-2.9-14.265a1.321,1.321,0,0,0-2.194-.506l-2.373,2.413c-.305.311-2.734,2.544-2.65,2.971,0,0,.9,4.391,1.939,9.387Z" transform="translate(-190.459 -412.524)" fill="#707070"/>
              </g>
            </g>
          </g>
          <g id="Group_1103367" data-name="Group 1103367" transform="translate(15.582 20.76)">
            <g id="Group_1103366" data-name="Group 1103366">
              <g id="Group_1103365" data-name="Group 1103365">
                <path id="Path_894017" data-name="Path 894017" d="M185.841,404.284l1.174,9.41-11.543,4.824.679-14.234Z" transform="translate(-175.472 -404.284)" fill="#dead8e"/>
              </g>
            </g>
          </g>
          <g id="Group_1103377" data-name="Group 1103377" transform="translate(12.44)">
            <g id="Group_1103370" data-name="Group 1103370" transform="translate(0 11.465)">
              <g id="Group_1103369" data-name="Group 1103369">
                <g id="Group_1103368" data-name="Group 1103368">
                  <path id="Path_894018" data-name="Path 894018" d="M175.346,400.6h0a1.24,1.24,0,0,1-1.721-.667l-.849-2.144a1.282,1.282,0,0,1,.617-1.592h0a1.241,1.241,0,0,1,1.721.667l.849,2.144A1.281,1.281,0,0,1,175.346,400.6Z" transform="translate(-172.692 -396.06)" fill="#f4caaf"/>
                </g>
              </g>
            </g>
            <g id="Group_1103373" data-name="Group 1103373" transform="translate(13.254 11.465)">
              <g id="Group_1103372" data-name="Group 1103372">
                <g id="Group_1103371" data-name="Group 1103371">
                  <path id="Path_894019" data-name="Path 894019" d="M185.121,400.6h0a1.24,1.24,0,0,0,1.721-.667l.849-2.144a1.282,1.282,0,0,0-.616-1.592h0a1.242,1.242,0,0,0-1.722.667L184.5,399A1.281,1.281,0,0,0,185.121,400.6Z" transform="translate(-184.419 -396.06)" fill="#f4caaf"/>
                </g>
              </g>
            </g>
            <g id="Group_1103376" data-name="Group 1103376" transform="translate(0.938)">
              <g id="Group_1103375" data-name="Group 1103375">
                <g id="Group_1103374" data-name="Group 1103374">
                  <path id="Path_894020" data-name="Path 894020" d="M188.305,394.742l-.186,2.162.564.86-.9,3.1-.078,2.82-.685,1.956-.929,1.37-2.3,1.467-2.788.734-3.13-.734-2.2-1.907-1.321-3.08-.538-3.827-.294-1.846.587-1.615.487-6.416.784-.06,1.166-2.826.662.892,1.082-1.874,2.36,1.538.858.565.792-1.2,3.955,3.531.037-.03.83-.823Z" transform="translate(-173.522 -385.916)" fill="#7d4c2e"/>
                </g>
              </g>
            </g>
          </g>
          <g id="Group_1103380" data-name="Group 1103380" transform="translate(2.689 26.28)">
            <g id="Group_1103379" data-name="Group 1103379">
              <g id="Group_1103378" data-name="Group 1103378">
                <path id="Path_894021" data-name="Path 894021" d="M164.146,415.213c.98,4.291,2.236,8.578,3.415,12.914H197.6c.465-1.838.939-3.683,1.417-5.556.616-2.415,1.231-4.859,1.8-7.311,0-.019.01-.038.01-.057a3.36,3.36,0,0,0-1.968-3.852c-.157-.07-10.351-2.182-10.987-2.182a31.025,31.025,0,0,1-6.149.9,30.861,30.861,0,0,1-4.594-.9c-.538,0-9.963,1.9-10.492,2a3.38,3.38,0,0,0-2.555,3.619A3.187,3.187,0,0,0,164.146,415.213Z" transform="translate(-164.064 -409.169)" fill="gray"/>
              </g>
            </g>
          </g>
        </g>
        <g id="Group_1103382" data-name="Group 1103382" transform="translate(14.748 24.54)">
          <path id="Path_894022" data-name="Path 894022" d="M176.2,407.776l-1.467,2.494c5,2.7,8.092,2.623,13.278-.147l-1.394-2.494S182.289,410.27,176.2,407.776Z" transform="translate(-174.734 -407.629)" fill="#707070"/>
        </g>
      </g>
    </g>
  </g>
</svg>
