<svg xmlns="http://www.w3.org/2000/svg" width="70" height="70" viewBox="0 0 70 70">
  <g id="Group_1102904" data-name="Group 1102904" transform="translate(-269 -958)">
    <circle id="Ellipse_5614" data-name="Ellipse 5614" cx="35" cy="35" r="35" transform="translate(269 958)" fill="#fff"/>
    <g id="Group_1103267" data-name="Group 1103267" transform="translate(-4021.415 -1189.796)">
      <path id="Path_893925" data-name="Path 893925" d="M4315.266,2203.695c-.176-2.085-.273-4.118-.532-6.131a24.772,24.772,0,0,0-4.226-11.172,15.444,15.444,0,0,1,8.382-23.953,15.434,15.434,0,0,1,19.145,11.216c.221.858.257,1.762.427,2.636a4.637,4.637,0,0,0,.446,1.4c1.323,2.324,2.686,4.625,4.034,6.934.089.154.166.316.3.568h-4.763V2186c0,2.4,0,4.8,0,7.207a2.08,2.08,0,0,1-2.292,2.3c-2.4.007-4.8,0-7.261,0v1.358h3.342v6.828Zm10.228-21.233c-.334-1.046.225-1.49.925-1.994a6.1,6.1,0,0,0,2-7.123,6.159,6.159,0,0,0-6.448-3.84,6.333,6.333,0,0,0-5.14,4.45,6.04,6.04,0,0,0,2.183,6.539c.672.487,1.1.948.946,1.8-.006.033.039.075.089.166h5.446Zm-5.487,1.413a2.8,2.8,0,0,0,1.3,3.016,2.72,2.72,0,0,0,3.027-.187,2.665,2.665,0,0,0,.986-2.829Zm-4.515-14.608,1.27,1.284,1-.739-1.336-1.406Zm13.644-.721-1.353,1.172.666.91,1.5-1.381Zm-12.257,12.044-1.458,1.337.917.875,1.426-1.326Zm10.781.736,1.366,1.524.844-.883-1.278-1.424Zm-4.32-15.282h-1.284v1.965h1.284Zm-8.239,8.908h-1.982v1.285h1.982Zm15.186,0v1.284h1.971v-1.284Z" transform="translate(0 0)" fill="#6a4d23"/>
    </g>
  </g>
</svg>
