<svg xmlns="http://www.w3.org/2000/svg" width="70" height="70" viewBox="0 0 70 70">
  <g id="Group_1104219" data-name="Group 1104219" transform="translate(-920 -4889.866)">
    <g id="Group_1102906" data-name="Group 1102906" transform="translate(651 3931.866)">
      <circle id="Ellipse_5614" data-name="Ellipse 5614" cx="35" cy="35" r="35" transform="translate(269 958)" fill="#fff"/>
    </g>
    <g id="Group_1103269" data-name="Group 1103269" transform="translate(-3335.051 2020.309)">
      <path id="Path_893928" data-name="Path 893928" d="M4366.071,2998.9a4.887,4.887,0,0,1-.4.648c-.25.291-.536.551-.806.824a1.991,1.991,0,0,0-.486,2.271,2.028,2.028,0,0,0,1.943,1.281c.055,0,.11,0,.165,0,2.079-.071,1.954.123,1.94,1.95,0,.522,0,1.044,0,1.565a.84.84,0,0,1-.955.963c-.439,0-.88-.017-1.318.009a2.032,2.032,0,0,0-1.439,3.344c.3.353.649.671.972,1.008a.828.828,0,0,1,0,1.3c-.618.625-1.243,1.242-1.86,1.868a.83.83,0,0,1-1.35-.021c-.306-.315-.607-.638-.941-.922a2.02,2.02,0,0,0-3.356,1.46c-.106,2.2-.116,2.2-2.283,2.2s-2.163,0-2.275-2.2a1.907,1.907,0,0,0-1.218-1.793,1.938,1.938,0,0,0-2.146.343c-.105.087-.2.188-.3.283-1.336,1.3-1.337,1.3-2.628.009-.389-.387-.771-.782-1.165-1.165a.87.87,0,0,1,.014-1.42c.313-.308.632-.613.916-.947a1.933,1.933,0,0,0,.292-2.158,1.913,1.913,0,0,0-1.746-1.181c-.438-.025-.878-.013-1.318-.009a.816.816,0,0,1-.942-.889c-.012-.906-.009-1.813,0-2.719a.782.782,0,0,1,.872-.866c.439,0,.88.018,1.318-.014a2.053,2.053,0,0,0,1.417-3.492l-.057-.06c-1.408-1.533-1.408-1.533.057-2.995,1.55-1.547,1.553-1.55,3.218-.1a1.962,1.962,0,0,0,2.213.389,1.939,1.939,0,0,0,1.21-1.885c.067-2.14.082-2.139,2.2-2.139,2.235,0,2.246,0,2.355,2.233a1.906,1.906,0,0,0,1.215,1.795,1.931,1.931,0,0,0,2.148-.347c.125-.107.24-.226.358-.341,1.276-1.251,1.276-1.252,2.517-.01.407.408.828.8,1.215,1.231A4.678,4.678,0,0,1,4366.071,2998.9Zm-4,7.22a6.168,6.168,0,1,0-6.153,6.206A6.188,6.188,0,0,0,4362.068,3006.119Z" transform="translate(-65.85 -92.452)" fill="#6a4d23"/>
      <path id="Path_893929" data-name="Path 893929" d="M4281.94,2986.088c-1.1,1.122-2.194,2.122-3.144,3.242a2.084,2.084,0,0,0,.2,2.791c.309.349.674.649.972,1.006.379.456.22.844-.366.9-.436.044-.878.014-1.317.028a2.143,2.143,0,0,0-1.916,1.083.892.892,0,0,1-.924.479c-3.322-.013-6.644-.021-9.966,0-.718.005-1.006-.259-.962-.966a45.95,45.95,0,0,1,.388-5.887,7.338,7.338,0,0,1,3.924-4.94.83.83,0,0,1,1.028.049,7.185,7.185,0,0,0,8.47.016.846.846,0,0,1,1.029-.082A7.283,7.283,0,0,1,4281.94,2986.088Z" transform="translate(0 -84.135)" fill="#6a4d23"/>
      <path id="Path_893930" data-name="Path 893930" d="M4467.89,2986.323a7.472,7.472,0,0,1,2.851-2.394.865.865,0,0,1,.719.074,7.353,7.353,0,0,0,8.707.023,1.077,1.077,0,0,1,.927.008,7.973,7.973,0,0,1,4.3,7.02c.052,1.288,0,2.58.021,3.871.01.637-.264.871-.895.867-3.376-.017-6.754,0-10.13-.02a.894.894,0,0,1-.67-.282,2.711,2.711,0,0,0-2.581-1.292,5.887,5.887,0,0,1-1.348-.316,6.443,6.443,0,0,1,.708-1.115c1.4-1.454,1.416-2.6,0-4.032-.406-.409-.8-.828-1.226-1.22S4468.4,2986.766,4467.89,2986.323Z" transform="translate(-169.83 -84.307)" fill="#6a4d23"/>
      <path id="Path_893931" data-name="Path 893931" d="M4390.168,2882.922a5.684,5.684,0,0,1,5.735,5.671,5.767,5.767,0,1,1-5.735-5.671Z" transform="translate(-100.088)" fill="#6a4d23"/>
      <path id="Path_893932" data-name="Path 893932" d="M4293.5,2914.951a5.69,5.69,0,1,1-.019,11.379,5.69,5.69,0,1,1,.019-11.379Z" transform="translate(-19.369 -26.746)" fill="#6a4d23"/>
      <path id="Path_893933" data-name="Path 893933" d="M4486.978,2914.952a5.69,5.69,0,1,1-5.774,5.623A5.708,5.708,0,0,1,4486.978,2914.952Z" transform="translate(-180.948 -26.747)" fill="#6a4d23"/>
      <path id="Path_893934" data-name="Path 893934" d="M4382.662,2956.035c-1.378,1.645-2.642,3.179-3.945,4.679a3.317,3.317,0,0,1-.926.534,4.145,4.145,0,0,1-.33-1.1c-.036-2.344-.759-3.071-3.136-3.071-.659,0-1.319-.013-1.978,0a2.32,2.32,0,0,0-2.462,2.488,4.344,4.344,0,0,1-.013.822,5.378,5.378,0,0,1-.331.852,2.309,2.309,0,0,1-.751-.358c-.538-.578-1.009-1.217-1.525-1.815-.837-.969-1.69-1.925-2.619-2.98a7.89,7.89,0,0,1,3.94-4.33.869.869,0,0,1,.729.081,7.3,7.3,0,0,0,8.7,0,.87.87,0,0,1,.728-.085A7.863,7.863,0,0,1,4382.662,2956.035Z" transform="translate(-83.615 -57.446)" fill="#6a4d23"/>
    </g>
  </g>
</svg>
