<svg xmlns="http://www.w3.org/2000/svg" width="70" height="70" viewBox="0 0 70 70">
  <g id="Group_1104218" data-name="Group 1104218" transform="translate(-609.625 -4890)">
    <g id="Group_1102905" data-name="Group 1102905" transform="translate(340.625 3932)">
      <circle id="Ellipse_5614" data-name="Ellipse 5614" cx="35" cy="35" r="35" transform="translate(269 958)" fill="#fff"/>
    </g>
    <g id="Group_1103268" data-name="Group 1103268" transform="translate(-3656.654 2349.384)">
      <path id="Path_893926" data-name="Path 893926" d="M4288.675,2555.479a10.749,10.749,0,0,1,1.757.924c1.1.869,2.056.783,3.395.32a3.8,3.8,0,0,0,2.876-3.417c.2-1.35.776-1.684,2.16-1.686,1.983,0,3.967-.007,5.951,0,1.172,0,1.821.377,1.948,1.52a3.941,3.941,0,0,0,3.079,3.634c1.187.4,2.055.555,3.013-.25a5.242,5.242,0,0,1,.716-.434,1.783,1.783,0,0,1,2.673.3q2.112,2.1,4.208,4.207c.917.923,1.1,1.6.33,2.586a3.832,3.832,0,0,0-.39,4.6c.582,1.166,1.122,1.925,2.421,2.053a5.616,5.616,0,0,1,1.057.25,1.666,1.666,0,0,1,1.352,1.774q.024,3.227,0,6.453a1.662,1.662,0,0,1-1.35,1.776c-.933.275-2.091.273-2.753.849-.634.551-.648,1.755-1.132,2.552a2.006,2.006,0,0,0,.153,2.416c1.542,2.455,1.506,2.478-.574,4.56-1.105,1.106-2.208,2.216-3.319,3.317-.923.915-1.6,1.1-2.585.326a3.835,3.835,0,0,0-4.6-.384c-1.173.577-1.924,1.121-2.058,2.417a5.871,5.871,0,0,1-.246,1.058,1.669,1.669,0,0,1-1.774,1.351q-3.226.024-6.453,0a1.666,1.666,0,0,1-1.775-1.351c-.273-.934-.274-2.09-.85-2.752-.551-.634-1.755-.649-2.551-1.135a2,2,0,0,0-2.416.157c-2.452,1.543-2.474,1.508-4.5-.519-1.125-1.126-2.255-2.248-3.377-3.378-.915-.923-1.1-1.6-.327-2.584a3.835,3.835,0,0,0,.387-4.6c-.58-1.166-1.121-1.925-2.419-2.06a6.106,6.106,0,0,1-1.139-.267,1.636,1.636,0,0,1-1.269-1.665c-.015-2.207-.02-4.414,0-6.621a1.638,1.638,0,0,1,1.347-1.691c.911-.259,2.043-.242,2.685-.8s.687-1.729,1.169-2.525a2.146,2.146,0,0,0-.163-2.566c-1.5-2.385-1.465-2.408.557-4.427,1.166-1.165,2.312-2.35,3.5-3.487A7.629,7.629,0,0,1,4288.675,2555.479Zm13.093,2.853a16.758,16.758,0,1,0,16.744,16.813A16.784,16.784,0,0,0,4301.768,2558.332Z" transform="translate(0 0)" fill="#6a4d23"/>
      <path id="Path_893927" data-name="Path 893927" d="M4343.449,2601.646a15.087,15.087,0,1,1-15.126,15.027A15.083,15.083,0,0,1,4343.449,2601.646Zm-8.376,20.179a11.981,11.981,0,0,0,16.661-.012v-15.045a12.083,12.083,0,0,1-16.661,0Zm8.34,6.6c.506-.465.938-.859,1.369-1.256a7.46,7.46,0,0,1,5.326-2.063c1.005.013,2.011.007,3.017,0,1.4-.009,2.006-.6,2.014-1.982.009-1.564,0-3.129,0-4.693,0-2.738.008-5.476,0-8.213a1.6,1.6,0,0,0-1.7-1.8v15.1c-3.854-.393-7.442-.093-10.038,3.438-2.6-3.569-6.214-3.8-10.057-3.449V2608.4c-1.163.166-1.659.691-1.661,1.781q-.018,6.537,0,13.074a1.679,1.679,0,0,0,1.883,1.855c1.034.013,2.068.018,3.1,0a7.516,7.516,0,0,1,5.4,2.089C4342.5,2627.593,4342.927,2627.985,4343.413,2628.429Z" transform="translate(-41.655 -41.643)" fill="#6a4d23"/>
    </g>
  </g>
</svg>
