<svg xmlns="http://www.w3.org/2000/svg" width="70" height="70" viewBox="0 0 70 70">
  <g id="Group_1102907" data-name="Group 1102907" transform="translate(-268.625 -958.134)">
    <circle id="Ellipse_5614" data-name="Ellipse 5614" cx="35" cy="35" r="35" transform="translate(268.625 958.134)" fill="#fff"/>
    <g id="Group_1103270" data-name="Group 1103270" transform="translate(-3994.72 -2249.066)">
      <path id="Path_893935" data-name="Path 893935" d="M4379.269,3324.633l1.931-1.85s.07-.009.088.016a1.664,1.664,0,0,0,2.638.492,3.69,3.69,0,0,1,.923-.326v-1.724h2.559v1.651c.75.328,1.4.635,2.066.886a.67.67,0,0,0,.576-.109,10.671,10.671,0,0,0,.859-.974l1.919,1.969c-1.388.647-1.043,1.68-.44,2.766a4.2,4.2,0,0,1,.234.736h1.735v2.563h-1.64c-.338.767-.652,1.434-.918,2.12a.592.592,0,0,0,.122.519c.332.32.714.589,1.1.894l-1.977,1.889c-.418-.352-.834-.967-1.338-1.049-.477-.077-1.042.41-1.574.635-.209.089-.435.142-.7.227v1.717h-2.543v-1.632c-.761-.334-1.429-.646-2.113-.912a.6.6,0,0,0-.523.1c-.328.324-.6.7-.893,1.046l-1.9-1.932c-.009.037-.012-.027.015-.047a1.623,1.623,0,0,0,.5-2.573,3.854,3.854,0,0,1-.339-.972h-1.708V3328.2h1.624c.336-.756.662-1.441.937-2.145a.613.613,0,0,0-.158-.515C4380.023,3325.229,4379.666,3324.965,4379.269,3324.633Zm8.094,6.079v-2.478H4384.9v2.478Z" transform="translate(-87.411 -86.942)" fill="#6a4d23"/>
      <path id="Path_893936" data-name="Path 893936" d="M4276.455,3347.573c0-.9-.3-1.969.085-2.664.364-.665,1.425-.955,2.191-1.391.8-.457,1.615-1.231,2.426-1.236.784,0,1.574.793,2.359,1.242a12.938,12.938,0,0,0,1.452.824,1.321,1.321,0,0,1,.864,1.517c-.063,1.275-.032,2.555-.009,3.832a.86.86,0,0,1-.492.887c-1.28.707-2.529,1.468-3.812,2.168a.962.962,0,0,1-.789.008q-1.985-1.085-3.917-2.264a1,1,0,0,1-.39-.694c-.05-.74-.018-1.486-.018-2.229Z" transform="translate(0 -105.048)" fill="#6a4d23"/>
      <path id="Path_893937" data-name="Path 893937" d="M4538.6,3347.672c0,.881.293,1.927-.083,2.6s-1.418.96-2.174,1.409c-.619.367-1.258.7-1.865,1.086a.872.872,0,0,1-1.062.022c-1.208-.738-2.439-1.437-3.675-2.127a.865.865,0,0,1-.522-.87c.028-1.44.021-2.881,0-4.321a.809.809,0,0,1,.469-.828c1.3-.72,2.569-1.49,3.87-2.206a.887.887,0,0,1,.73-.008q2.013,1.107,3.979,2.3a.92.92,0,0,1,.353.65c.043.764.017,1.532.017,2.3Z" transform="translate(-217.596 -105.108)" fill="#6a4d23"/>
      <path id="Path_893938" data-name="Path 893938" d="M4407.583,3229.615a4.707,4.707,0,1,1,4.727-4.692A4.754,4.754,0,0,1,4407.583,3229.615Z" transform="translate(-108.852 0)" fill="#6a4d23"/>
      <path id="Path_893939" data-name="Path 893939" d="M4407.581,3482.139a4.707,4.707,0,1,1,4.726-4.7A4.759,4.759,0,0,1,4407.581,3482.139Z" transform="translate(-108.849 -217.291)" fill="#6a4d23"/>
      <path id="Path_893940" data-name="Path 893940" d="M4493.168,3270.189c.071.879.139,1.716.21,2.594l-1.945.181,4.081,3.92-2.1,2.026-3.945-4.073c-.072.751-.129,1.343-.2,2.045l-2.6-.2c.111-1.312.217-2.552.322-3.793.039-.462.106-.925.1-1.388,0-.594.232-.854.85-.893C4489.656,3270.5,4491.361,3270.338,4493.168,3270.189Z" transform="translate(-180.98 -43.014)" fill="#6a4d23"/>
      <path id="Path_893941" data-name="Path 893941" d="M4329.595,3431.887c.072-.741.129-1.331.2-2.036l2.6.2c-.111,1.31-.217,2.55-.322,3.791-.039.463-.106.925-.1,1.388,0,.594-.228.856-.847.9-1.709.11-3.415.275-5.221.427l-.214-2.6,1.878-.176-4-3.933,2.1-2Z" transform="translate(-40.631 -178.673)" fill="#6a4d23"/>
      <path id="Path_893942" data-name="Path 893942" d="M4333.359,3273.594c-.069.86-.135,1.682-.208,2.593l-3.844-.324c-.555-.047-1.117-.061-1.663-.159a.7.7,0,0,1-.486-.432c-.192-1.821-.341-3.646-.51-5.573l2.6-.214c.063.674.12,1.269.18,1.9l3.885-3.967,1.921,2.04-3.894,3.727.121.218Z" transform="translate(-43.283 -40.632)" fill="#6a4d23"/>
      <path id="Path_893943" data-name="Path 893943" d="M4488.62,3433.344l-2.09-.24c.066-.843.129-1.662.2-2.579l5.967.525c.179,2,.353,3.952.534,5.977l-2.584.2c-.074-.658-.141-1.25-.207-1.842l-3.847,3.943-1.987-2.057Z" transform="translate(-179.203 -180.979)" fill="#6a4d23"/>
    </g>
  </g>
</svg>
