<svg xmlns="http://www.w3.org/2000/svg" xmlns:xlink="http://www.w3.org/1999/xlink" width="189" height="189" viewBox="0 0 189 189">
  <defs>
    <clipPath id="clip-path">
      <rect id="Rectangle_405379" data-name="Rectangle 405379" width="117" height="121" transform="translate(720.625 6189)" fill="#fff" stroke="#707070" stroke-width="1"/>
    </clipPath>
  </defs>
  <g id="Group_1104219" data-name="Group 1104219" transform="translate(-705 -5467.701)">
    <g id="Group_1102909" data-name="Group 1102909" transform="translate(705 5467.701)">
      <path id="Path_608967" data-name="Path 608967" d="M94.5,0A94.5,94.5,0,1,1,0,94.5,94.5,94.5,0,0,1,94.5,0Z" fill="#6a4d23"/>
    </g>
    <g id="Group_1102910" data-name="Group 1102910" transform="translate(716.535 5479.238)">
      <circle id="Ellipse_1142" data-name="Ellipse 1142" cx="83.5" cy="83.5" r="83.5" transform="translate(-0.537 -0.537)" fill="#fff"/>
    </g>
    <g id="Mask_Group_1098725" data-name="Mask Group 1098725" transform="translate(21 -690)" clip-path="url(#clip-path)">
      <g id="Group_1103266" data-name="Group 1103266" transform="translate(589.411 6165.99)">
        <g id="Group_1103262" data-name="Group 1103262" transform="translate(134.378 62.737)">
          <g id="Group_1103261" data-name="Group 1103261">
            <path id="Path_893901" data-name="Path 893901" d="M134.378,55.97V96.647c34.726-15.457,69.453,15.457,104.178,0V55.97C203.831,71.427,169.1,40.512,134.378,55.97Z" transform="translate(-134.378 -42.627)" fill="#4b5e3c" fill-rule="evenodd"/>
            <path id="Path_893902" data-name="Path 893902" d="M136.437,53.379V94.056c34.726-15.457,69.451,15.457,104.179,0V53.379C205.888,68.836,171.163,37.922,136.437,53.379Z" transform="translate(-132.925 -44.455)" fill="#5d754b" fill-rule="evenodd"/>
            <g id="Group_1103260" data-name="Group 1103260" transform="translate(7.049)">
              <path id="Path_893903" data-name="Path 893903" d="M242.69,91.44c-34.727,15.457-69.453-15.457-104.179,0V50.763c34.727-15.457,69.451,15.458,104.179,0Z" transform="translate(-138.511 -46.301)" fill="#93ba77" fill-rule="evenodd"/>
              <path id="Path_893904" data-name="Path 893904" d="M239.178,55.684V89.336c-32.385,11.6-64.769-14.415-97.155-2.816V52.866c32.385-11.6,64.769,14.416,97.155,2.818Zm3.512-4.921c-34.727,15.458-69.453-15.457-104.179,0V91.44c34.727-15.457,69.451,15.457,104.179,0V50.763Z" transform="translate(-138.511 -46.301)" fill="#6b8756" fill-rule="evenodd"/>
              <path id="Path_893905" data-name="Path 893905" d="M183.788,69.11c0,7.971-4.667,13.488-10.425,12.185s-10.427-8.69-10.425-16.639c0-7.971,4.667-13.49,10.425-12.185S183.788,61.161,183.788,69.11Z" transform="translate(-121.274 -42.082)" fill="#6b8756" fill-rule="evenodd"/>
              <g id="Group_1103259" data-name="Group 1103259" transform="translate(17.263 10.305)">
                <g id="Group_1103257" data-name="Group 1103257">
                  <path id="Path_893906" data-name="Path 893906" d="M153.6,71.093a7.861,7.861,0,0,1-2.071-.258,6.227,6.227,0,0,1-1.564-.652,3.657,3.657,0,0,1-.994-.836,1.393,1.393,0,0,1-.341-.839,1.336,1.336,0,0,1,.28-.771.848.848,0,0,1,.628-.425.724.724,0,0,1,.525.268,7.578,7.578,0,0,0,.72.626,5.573,5.573,0,0,0,1.1.635,4.328,4.328,0,0,0,1.716.293v-6.49q-.809-.294-1.629-.611a5.77,5.77,0,0,1-1.457-.795,3.8,3.8,0,0,1-1.04-1.231,4.01,4.01,0,0,1-.4-1.921,4.577,4.577,0,0,1,.392-1.972,4.015,4.015,0,0,1,1.04-1.366,4.529,4.529,0,0,1,1.457-.819,6.964,6.964,0,0,1,1.641-.345v-.735a.459.459,0,0,1,.184-.355.653.653,0,0,1,.452-.154.676.676,0,0,1,.442.167.469.469,0,0,1,.2.362v.694a6.952,6.952,0,0,1,1.344.164,7.9,7.9,0,0,1,1.25.379,3.111,3.111,0,0,1,.918.551.919.919,0,0,1,.355.689,1.425,1.425,0,0,1-.232.7.666.666,0,0,1-.648.375.941.941,0,0,1-.428-.148c-.155-.089-.351-.2-.587-.322a5.091,5.091,0,0,0-.834-.343,5.6,5.6,0,0,0-1.138-.217v5.583a16.84,16.84,0,0,1,1.554.711,5.6,5.6,0,0,1,1.383,1.017,4.778,4.778,0,0,1,.993,1.5,5.391,5.391,0,0,1,.379,2.135,4.4,4.4,0,0,1-1.2,3.372,5.308,5.308,0,0,1-3.109,1.339v.873a.446.446,0,0,1-.2.35.715.715,0,0,1-.894-.014.467.467,0,0,1-.184-.355Zm-2.572-13.3a2.444,2.444,0,0,0,.21,1.069,2.1,2.1,0,0,0,.575.73,4.048,4.048,0,0,0,.858.524c.324.152.669.3,1.029.426V55.4a4.358,4.358,0,0,0-1.042.212,2.871,2.871,0,0,0-.844.455,2.058,2.058,0,0,0-.575.715A2.3,2.3,0,0,0,151.03,57.791Zm6.195,8.607a3.465,3.465,0,0,0-.194-1.209,2.987,2.987,0,0,0-.525-.906,3.356,3.356,0,0,0-.773-.655,8.008,8.008,0,0,0-.957-.5v6a3,3,0,0,0,1.815-.834A2.632,2.632,0,0,0,157.225,66.4Z" transform="translate(-148.632 -52.343)" fill="#f6f6f6"/>
                </g>
                <g id="Group_1103258" data-name="Group 1103258" transform="translate(59.1 8.917)">
                  <path id="Path_893907" data-name="Path 893907" d="M188.253,76.323a6.479,6.479,0,0,1-2.071-.338,6.1,6.1,0,0,1-1.568-.8,4.186,4.186,0,0,1-.991-.965,1.6,1.6,0,0,1-.343-.889,1.186,1.186,0,0,1,.281-.73.726.726,0,0,1,.624-.338.837.837,0,0,1,.527.331,8.024,8.024,0,0,0,.721.7,5.408,5.408,0,0,0,1.1.716,3.914,3.914,0,0,0,1.718.353v-6.49q-.811-.3-1.631-.664a5.723,5.723,0,0,1-1.457-.909,4.342,4.342,0,0,1-1.04-1.349,4.386,4.386,0,0,1-.4-1.973,4.178,4.178,0,0,1,.392-1.919,3.469,3.469,0,0,1,1.04-1.247,4.447,4.447,0,0,1,1.457-.706,8.193,8.193,0,0,1,1.643-.292v-.735a.447.447,0,0,1,.182-.353.672.672,0,0,1,.452-.157.68.68,0,0,1,.442.162.452.452,0,0,1,.2.356v.692a8.627,8.627,0,0,1,1.344.1,9.123,9.123,0,0,1,1.25.271,2.85,2.85,0,0,1,.919.443.794.794,0,0,1,.355.641,1.646,1.646,0,0,1-.234.728.769.769,0,0,1-.648.457.881.881,0,0,1-.428-.1c-.155-.073-.353-.164-.587-.268a5.527,5.527,0,0,0-.834-.281,6.3,6.3,0,0,0-1.138-.165v5.581c.522.193,1.04.406,1.554.634a5.358,5.358,0,0,1,1.385.885,4.094,4.094,0,0,1,.991,1.375,5.02,5.02,0,0,1,.379,2.081,4.956,4.956,0,0,1-1.2,3.534,5.2,5.2,0,0,1-3.109,1.567v.873a.454.454,0,0,1-.2.355.693.693,0,0,1-.442.157.659.659,0,0,1-.452-.162.463.463,0,0,1-.182-.356ZM185.679,62.9a2.556,2.556,0,0,0,.21,1.087,2.3,2.3,0,0,0,.575.771,4.112,4.112,0,0,0,.858.566,10.089,10.089,0,0,0,1.029.445V60.629a4.734,4.734,0,0,0-1.042.189,2.842,2.842,0,0,0-.844.413,1.9,1.9,0,0,0-.575.675A2.165,2.165,0,0,0,185.679,62.9Zm6.2,8.568a3.357,3.357,0,0,0-.2-1.192,2.711,2.711,0,0,0-.527-.861,3.1,3.1,0,0,0-.771-.606,10.162,10.162,0,0,0-.955-.466v6a3.016,3.016,0,0,0,1.813-.928A2.834,2.834,0,0,0,191.876,71.469Z" transform="translate(-183.281 -57.571)" fill="#f6f6f6"/>
                </g>
              </g>
            </g>
          </g>
          <path id="Path_893908" data-name="Path 893908" d="M147.013,52.063a3.965,3.965,0,1,1-3.964-3.935A3.949,3.949,0,0,1,147.013,52.063Z" transform="translate(-131.058 -45.012)" fill="#6b8756" fill-rule="evenodd"/>
          <path id="Path_893909" data-name="Path 893909" d="M147.013,70.357a3.965,3.965,0,1,1-3.964-3.935A3.949,3.949,0,0,1,147.013,70.357Z" transform="translate(-131.058 -32.103)" fill="#6b8756" fill-rule="evenodd"/>
          <path id="Path_893910" data-name="Path 893910" d="M202,72.662a3.965,3.965,0,1,1-3.964-3.933A3.95,3.95,0,0,1,202,72.662Z" transform="translate(-92.258 -30.475)" fill="#6b8756" fill-rule="evenodd"/>
          <path id="Path_893911" data-name="Path 893911" d="M202,54.368a3.965,3.965,0,1,1-3.964-3.933A3.95,3.95,0,0,1,202,54.368Z" transform="translate(-92.258 -43.384)" fill="#6b8756" fill-rule="evenodd"/>
        </g>
        <g id="Group_1103265" data-name="Group 1103265" transform="translate(161.404 53.013)">
          <g id="Group_1103264" data-name="Group 1103264">
            <path id="Path_893912" data-name="Path 893912" d="M202.53,61.435a31.453,31.453,0,0,0,3.087-3.019c-3.549-.29-7.1-.733-10.645-1.3-.768-.119-1.518-.239-2.286-.375-6.7-1.143-13.406-2.644-20.11-4.145-3.77-.836-7.522-1.672-11.274-2.422-3.309-.682-6.6-1.3-9.91-1.808a31.945,31.945,0,0,0,9.113,13.065Z" transform="translate(-149.397 -35.117)" fill="#4b5e3c" fill-rule="evenodd"/>
            <path id="Path_893913" data-name="Path 893913" d="M203.229,64.244a30.9,30.9,0,0,0,7.247-8.989c-2.951-.239-5.919-.614-8.885-1.058-14.244-2.149-28.5-6.209-42.746-8.614-2.814-.478-5.629-.887-8.443-1.194a30.3,30.3,0,0,0,1.689,6.789A31.945,31.945,0,0,0,161.2,64.244Z" transform="translate(-150.096 -37.926)" fill="#5d754b" fill-rule="evenodd"/>
            <g id="Group_1103263" data-name="Group 1103263">
              <path id="Path_893914" data-name="Path 893914" d="M203.356,66.918A30.9,30.9,0,0,0,210.6,57.93c.307-.546.58-1.092.836-1.672a29.347,29.347,0,0,0,1.706-4.52c-2.712-.273-5.422-.648-8.136-1.092-15.556-2.473-31.111-7.079-46.667-9.194-2.676-.358-5.356-.648-8.034-.853-.068.682-.085,1.365-.085,2.064,0,.887.034,1.774.119,2.644a14.95,14.95,0,0,0,.188,1.757,30.3,30.3,0,0,0,1.689,6.789,31.945,31.945,0,0,0,9.113,13.065Z" transform="translate(-150.223 -40.6)" fill="#93ba77" fill-rule="evenodd"/>
              <path id="Path_893915" data-name="Path 893915" d="M158.342,41.453c-2.676-.358-5.356-.648-8.034-.853-.068.682-.085,1.365-.085,2.064,0,.887.034,1.774.119,2.644,2.729.2,5.475.512,8.221.887,14.788,2.03,29.593,6.294,44.381,8.835,2.831.478,5.663.9,8.494,1.228a29.347,29.347,0,0,0,1.706-4.52c-2.712-.273-5.422-.648-8.136-1.092C189.453,48.173,173.9,43.568,158.342,41.453Z" transform="translate(-150.223 -40.6)" fill="#6b8756"/>
              <path id="Path_893916" data-name="Path 893916" d="M187.674,61.365a26.444,26.444,0,0,0-1.5-3.377c-.256-.443-.512-.887-.768-1.313-2.541-4.094-6.072-7.061-9.978-7.948a9.836,9.836,0,0,0-10.132,3.8,16.521,16.521,0,0,0-2.848,5.543,21.776,21.776,0,0,0-.74,3.292Z" transform="translate(-142.118 -35.047)" fill="#6b8756" fill-rule="evenodd"/>
            </g>
          </g>
        </g>
        <path id="Path_893917" data-name="Path 893917" d="M179.03,27.75a24.033,24.033,0,0,1,23.982,24.067,23.773,23.773,0,0,1-1.347,7.9A23.422,23.422,0,0,1,199.6,64.1a21.577,21.577,0,0,1-1.226,1.842,23.959,23.959,0,0,1-5.92,5.731c-.495.341-1.006.648-1.518.938a24,24,0,0,1-32.15-7.88,23.038,23.038,0,0,1-3.157-7.4,20.071,20.071,0,0,1-.409-2.064,24.232,24.232,0,0,1-.256-3.531c0-.409.019-.819.034-1.211A24.059,24.059,0,0,1,179.03,27.75Z" transform="translate(14.526 3.345)" fill="#b6ecff" opacity="0.5"/>
        <path id="Path_893918" data-name="Path 893918" d="M179.006,58.747v2.524a32.067,32.067,0,0,1-6.942.75,30.76,30.76,0,0,1-7.351-.87V58.73Z" transform="translate(21.406 25.206)" fill="#df4937"/>
        <path id="Path_893919" data-name="Path 893919" d="M178.868,111.21a3.973,3.973,0,0,1-4.024,4.094l-6.142-.017a3.96,3.96,0,0,1-4.008-4.094l.546-14.379.273-6.925.256-6.959.189-4.674.22-5.9.324-8.665a1.975,1.975,0,0,0,.716.119l9.279.017a1.94,1.94,0,0,0,.7-.119l.461,12.946.154,4.23.155,4.742.254,7.061.239,6.925Z" transform="translate(21.391 28.706)" fill="#7d3a1b"/>
        <path id="Path_893920" data-name="Path 893920" d="M176.4,62.717l.051,1.689a1.94,1.94,0,0,1-.7.119l-9.279-.017a1.975,1.975,0,0,1-.716-.119l.068-1.689Z" transform="translate(22.14 28.008)" fill="#ff715f"/>
        <path id="Path_893921" data-name="Path 893921" d="M172.071,61.02a32.067,32.067,0,0,0,6.942-.75L179,63.817a2.476,2.476,0,0,1-1.808,2.388l-.051-1.689L166.561,64.5l-.068,1.689A2.477,2.477,0,0,1,164.7,63.8l.015-3.65A30.76,30.76,0,0,0,172.071,61.02Z" transform="translate(21.4 26.208)" fill="#ff715f"/>
        <path id="Path_893922" data-name="Path 893922" d="M174.937,83.936v2.422A31.56,31.56,0,0,1,169.6,84.6,32.17,32.17,0,0,1,152.22,66.266a30.206,30.206,0,0,1-1.69-6.789,14.95,14.95,0,0,1-.188-1.757c-.085-.87-.118-1.757-.118-2.644,0-.7.015-1.382.084-2.064a32.1,32.1,0,0,1,64.133,2.166,31.178,31.178,0,0,1-1.3,8.972,29.347,29.347,0,0,1-1.706,4.52c-.256.58-.529,1.126-.836,1.672A32.252,32.252,0,0,1,196.993,83.68a30.96,30.96,0,0,1-7.762,2.8V83.953Zm7.351-4.776a23.819,23.819,0,0,0,11.991-3.207c.512-.29,1.023-.6,1.518-.938a23.959,23.959,0,0,0,5.92-5.731,21.578,21.578,0,0,0,1.226-1.842,23.422,23.422,0,0,0,2.064-4.384,23.773,23.773,0,0,0,1.347-7.9,24.024,24.024,0,0,0-48.014-1.3c-.015.392-.034.8-.034,1.211a24.232,24.232,0,0,0,.256,3.531,20.071,20.071,0,0,0,.409,2.064,23.038,23.038,0,0,0,3.157,7.4A24.113,24.113,0,0,0,182.289,79.16Z" transform="translate(11.182 0)" fill="#7d3a1b"/>
        <path id="Path_893923" data-name="Path 893923" d="M188.552,44.429a22.432,22.432,0,0,0-6.746-10.408l-.556-.469a22.429,22.429,0,0,0-8.276-4.254L171.5,34.713a16.86,16.86,0,0,1,6.137,3.133l.556.467a16.834,16.834,0,0,1,4.991,7.749Z" transform="translate(26.195 4.437)" fill="#fff" opacity="0.75"/>
        <path id="Path_893924" data-name="Path 893924" d="M157.144,48.7c.135.266.275.532.42.793l.362.629a22.466,22.466,0,0,0,9.809,8.851l1.8-3.868A18.2,18.2,0,0,1,161.623,48l-.362-.631q-.159-.289-.307-.583Z" transform="translate(16.065 16.777)" fill="#fff" opacity="0.75"/>
      </g>
    </g>
  </g>
</svg>
