<svg xmlns="http://www.w3.org/2000/svg" xmlns:xlink="http://www.w3.org/1999/xlink" width="189" height="189" viewBox="0 0 189 189">
  <defs>
    <clipPath id="clip-path">
      <rect id="Rectangle_377587" data-name="Rectangle 377587" width="117.005" height="117.494" fill="none"/>
    </clipPath>
  </defs>
  <g id="Group_1104223" data-name="Group 1104223" transform="translate(-705 -6389.701)">
    <g id="Group_1102918" data-name="Group 1102918" transform="translate(705 6389.701)">
      <path id="Path_608379" data-name="Path 608379" d="M94.5,0A94.5,94.5,0,1,1,0,94.5,94.5,94.5,0,0,1,94.5,0Z" fill="#6a4d23"/>
    </g>
    <g id="Group_1102919" data-name="Group 1102919" transform="translate(716.537 6399.238)">
      <circle id="Ellipse_1142" data-name="Ellipse 1142" cx="83.5" cy="83.5" r="83.5" transform="translate(-0.537 -0.537)" fill="#fff"/>
    </g>
    <g id="Group_1102920" data-name="Group 1102920" transform="translate(-1.004 1058.6)">
      <g id="Group_1071942" data-name="Group 1071942" transform="translate(742 5361)">
        <g id="Group_1071940" data-name="Group 1071940" transform="translate(0 0)" clip-path="url(#clip-path)">
          <path id="Path_608978" data-name="Path 608978" d="M80.668,50.084C76.749,20.909,54.147-.035,28.358,0V12.028C48.866,12,66.843,28.655,69.96,51.857c3.426,25.518-12.422,49.292-35.394,53.1a38.16,38.16,0,0,1-6.207.516v12.026a48.345,48.345,0,0,0,7.8-.648c28.889-4.785,48.815-34.679,44.506-66.762" transform="translate(24.536 0.001)" fill="none"/>
          <path id="Path_608979" data-name="Path 608979" d="M11.294,65.64c-3.426-25.518,12.419-49.29,35.4-53.1a38.114,38.114,0,0,1,6.2-.516V0a48.061,48.061,0,0,0-7.8.646C16.2,5.434-3.723,35.327.586,67.413c3.917,29.171,26.522,50.115,52.308,50.08V105.469c-20.508.027-38.485-16.627-41.6-39.829" transform="translate(0 0.001)" fill="none"/>
          <path id="Path_608980" data-name="Path 608980" d="M59.248,47.409c2.544,18.945-9.22,36.6-26.281,39.425a28.4,28.4,0,0,1-4.609.383V99.246a38.113,38.113,0,0,0,6.206-.514c22.974-3.806,38.821-27.58,35.394-53.1-3.115-23.2-21.094-39.856-41.6-39.827V17.831c15.228-.021,28.575,12.345,30.89,29.579" transform="translate(24.536 6.224)" fill="none"/>
          <path id="Path_608981" data-name="Path 608981" d="M6.271,59.418c3.115,23.2,21.092,39.856,41.6,39.829V87.219c-15.228.019-28.579-12.349-30.892-29.575C14.435,38.691,26.2,21.039,43.264,18.213a28.359,28.359,0,0,1,4.607-.383V5.806a38.114,38.114,0,0,0-6.2.516C18.69,10.127,2.845,33.9,6.271,59.418" transform="translate(5.023 6.223)" fill="none"/>
          <path id="Path_608982" data-name="Path 608982" d="M25.136,49.241c-1.46-10.87,5.29-20.988,15.071-22.608a16.385,16.385,0,0,1,2.641-.22V11.61a28.593,28.593,0,0,0-4.607.383C21.18,14.819,9.412,32.471,11.956,51.425,14.269,68.65,27.621,81.018,42.848,81V66.2c-8.731.012-16.386-7.079-17.712-16.954" transform="translate(10.046 12.443)" fill="none"/>
          <path id="Path_608983" data-name="Path 608983" d="M59.248,41.19c-2.315-17.234-15.662-29.6-30.89-29.579v14.8c8.731-.012,16.386,7.077,17.712,16.96C47.529,54.233,40.782,64.355,31,65.975a16.174,16.174,0,0,1-2.643.22V81a28.4,28.4,0,0,0,4.609-.383c17.061-2.826,28.825-20.48,26.281-39.425" transform="translate(24.536 12.444)" fill="none"/>
          <path id="Path_608984" data-name="Path 608984" d="M37.419,37.148c.746,5.554-2.7,10.733-7.709,11.564a8.319,8.319,0,0,1-1.352.11v9.716A16.389,16.389,0,0,0,31,58.318c9.783-1.62,16.528-11.742,15.069-22.6-1.326-9.884-8.979-16.971-17.712-16.958V28.47c4.467-.006,8.382,3.619,9.061,8.678" transform="translate(24.536 20.1)" fill="none"/>
          <path id="Path_608985" data-name="Path 608985" d="M18.954,41.583c1.326,9.875,8.981,16.967,17.712,16.954V48.824c-4.467,0-8.384-3.623-9.063-8.674-.746-5.562,2.708-10.737,7.713-11.566a8.092,8.092,0,0,1,1.35-.112V18.756a16.384,16.384,0,0,0-2.641.22C24.244,20.6,17.494,30.713,18.954,41.583" transform="translate(16.228 20.1)" fill="none"/>
          <path id="Path_608986" data-name="Path 608986" d="M31.259,23.558c-5,.829-8.459,6.006-7.713,11.568.679,5.051,4.6,8.678,9.063,8.672V23.446a8.557,8.557,0,0,0-1.35.112" transform="translate(20.285 25.126)" fill="none"/>
          <path id="Path_608987" data-name="Path 608987" d="M37.419,32.123c-.679-5.059-4.594-8.684-9.061-8.678V43.8a8.319,8.319,0,0,0,1.352-.11c5.006-.831,8.455-6.01,7.709-11.564" transform="translate(24.536 25.125)" fill="none"/>
          <path id="Path_608988" data-name="Path 608988" d="M58.874,42.76l-6.193-4.73-5.441,2.02,6.023,4.6Z" transform="translate(40.873 40.756)" fill="none"/>
          <path id="Path_608989" data-name="Path 608989" d="M72.411,48.8,61.305,40.316l-9.764,3.623L62.348,52.2Z" transform="translate(44.594 43.205)" fill="none"/>
          <path id="Path_608990" data-name="Path 608990" d="M61.6,64.143l-11.1-8.49-.446-11.427,10.809,8.26Z" transform="translate(43.308 47.396)" fill="none"/>
          <path id="Path_608991" data-name="Path 608991" d="M52.309,52.458l-6.191-4.734-.244-6.364,6.025,4.6Z" transform="translate(39.691 44.324)" fill="none"/>
          <path id="Path_608992" data-name="Path 608992" d="M87.149,73.051a3.126,3.126,0,0,0-.677-4.06L32.022,27.6s-1.729-1.423-3.244.845a2.774,2.774,0,0,0,.459,3.669L83.489,73.8a2.473,2.473,0,0,0,3.66-.75" transform="translate(24.453 29.108)" fill="none"/>
        </g>
      </g>
      <g id="Group_1103187" data-name="Group 1103187" transform="translate(755.534 5361)">
        <path id="Path_893670" data-name="Path 893670" d="M280.494,129.406l1.986-104.653h2.2l1.987,104.653Z" transform="translate(-238.612 -11.912)" fill="#634e42"/>
        <path id="Path_893671" data-name="Path 893671" d="M291.989,75.944l-.2-.063a79.843,79.843,0,0,1-36.221-23.842l1.014-.871a78.507,78.507,0,0,0,35.408,23.373A78.5,78.5,0,0,0,327.4,51.168l1.014.871a79.839,79.839,0,0,1-36.221,23.842Z" transform="translate(-247.021 3.96)" fill="#634e42"/>
        <path id="Path_893672" data-name="Path 893672" d="M262.125,66.964l-.118-1.332a58.7,58.7,0,0,0,11.519-2.275l.4,1.276A60.191,60.191,0,0,1,262.125,66.964Z" transform="translate(-244.848 8.497)" fill="#634e42"/>
        <path id="Path_893673" data-name="Path 893673" d="M306.487,66.964a60.154,60.154,0,0,1-11.8-2.331l.4-1.276a58.675,58.675,0,0,0,11.52,2.275Z" transform="translate(-233.825 8.497)" fill="#634e42"/>
        <path id="Path_893674" data-name="Path 893674" d="M277.628,70.454a32.283,32.283,0,0,1-3.091-12.385l1.337-.059a30.9,30.9,0,0,0,2.96,11.868Z" transform="translate(-240.622 6.496)" fill="#634e42"/>
        <path id="Path_893675" data-name="Path 893675" d="M289.062,70.454l-1.208-.576a30.857,30.857,0,0,0,2.958-11.866l1.337.057A32.241,32.241,0,0,1,289.062,70.454Z" transform="translate(-236.129 6.496)" fill="#634e42"/>
        <path id="Path_893676" data-name="Path 893676" d="M265.194,63.246a29.425,29.425,0,0,1-.32-11.682l1.316.231a28.147,28.147,0,0,0,.306,11.148Z" transform="translate(-244.029 3.191)" fill="#634e42"/>
        <path id="Path_893677" data-name="Path 893677" d="M300.931,63.246l-1.3-.3a28.122,28.122,0,0,0,.3-11.148l1.317-.231A29.475,29.475,0,0,1,300.931,63.246Z" transform="translate(-232.157 3.191)" fill="#634e42"/>
        <path id="Path_893678" data-name="Path 893678" d="M255.775,60.159l-.308-1.3a31.516,31.516,0,0,1,11.167-.361l-.206,1.321A30.529,30.529,0,0,0,255.775,60.159Z" transform="translate(-247.055 5.848)" fill="#634e42"/>
        <path id="Path_893679" data-name="Path 893679" d="M312.647,60.159a30.5,30.5,0,0,0-10.655-.34l-.206-1.321a31.5,31.5,0,0,1,11.17.361Z" transform="translate(-231.429 5.848)" fill="#634e42"/>
        <path id="Path_893680" data-name="Path 893680" d="M272.783,70.669l-1.063-.81a12.434,12.434,0,0,1,4.991-3.889l.526,1.229A11.1,11.1,0,0,0,272.783,70.669Z" transform="translate(-241.572 9.863)" fill="#634e42"/>
        <path id="Path_893681" data-name="Path 893681" d="M294.214,70.669a11.119,11.119,0,0,0-4.455-3.47l.527-1.229a12.455,12.455,0,0,1,4.991,3.889Z" transform="translate(-235.486 9.863)" fill="#634e42"/>
        <path id="Path_893682" data-name="Path 893682" d="M287.354,56.015c-7.235-2.873-15.928-9.446-20.222-15.291l1.078-.79c4.165,5.668,12.606,12.047,19.638,14.839Z" transform="translate(-243.12 -2.466)" fill="#634e42"/>
        <path id="Path_893683" data-name="Path 893683" d="M283.476,56.015l-.495-1.242c7.033-2.792,15.476-9.173,19.639-14.839l1.079.79C299.4,46.569,290.712,53.142,283.476,56.015Z" transform="translate(-237.773 -2.466)" fill="#634e42"/>
        <path id="Path_893684" data-name="Path 893684" d="M285.149,34.779l-.19-.056A27.436,27.436,0,0,1,275.844,30l.828-1.05a26.085,26.085,0,0,0,8.477,4.429,26.106,26.106,0,0,0,8.479-4.429l.828,1.05a27.436,27.436,0,0,1-9.118,4.718Z" transform="translate(-240.181 -8.332)" fill="#634e42"/>
        <path id="Path_893685" data-name="Path 893685" d="M274.7,49.435a18.35,18.35,0,0,1-.341-7.037l1.324.194A16.964,16.964,0,0,0,276,49.11Z" transform="translate(-240.747 -1.64)" fill="#634e42"/>
        <path id="Path_893686" data-name="Path 893686" d="M291.368,49.435l-1.3-.325a16.944,16.944,0,0,0,.317-6.518l1.324-.194A18.354,18.354,0,0,1,291.368,49.435Z" transform="translate(-235.381 -1.64)" fill="#634e42"/>
        <g id="Group_1103141" data-name="Group 1103141" transform="translate(28.753 53.231)">
          <path id="Path_893687" data-name="Path 893687" d="M280.968,57.477c.738,3.683-1.22,5.765-4.039,6.33s-5.427-.6-6.165-4.282,3.49-9.05,3.49-9.05S280.228,53.8,280.968,57.477Z" transform="translate(-270.677 -50.475)" fill="#93ba77" fill-rule="evenodd"/>
          <path id="Path_893688" data-name="Path 893688" d="M274.2,50.529c-.488.639-4.123,5.541-3.434,8.978.733,3.652,3.307,4.824,6.1,4.292Z" transform="translate(-270.677 -50.457)" fill="#6b8756" fill-rule="evenodd"/>
        </g>
        <g id="Group_1103142" data-name="Group 1103142" transform="translate(50.736 53.231)">
          <path id="Path_893689" data-name="Path 893689" d="M287.271,57.477c-.738,3.683,1.22,5.765,4.037,6.33s5.428-.6,6.167-4.282-3.492-9.05-3.492-9.05S288.01,53.8,287.271,57.477Z" transform="translate(-287.115 -50.475)" fill="#93ba77" fill-rule="evenodd"/>
          <path id="Path_893690" data-name="Path 893690" d="M292.964,50.529c.488.639,4.126,5.541,3.436,8.978-.733,3.652-3.306,4.824-6.1,4.292Z" transform="translate(-286.039 -50.457)" fill="#6b8756" fill-rule="evenodd"/>
        </g>
        <g id="Group_1103143" data-name="Group 1103143" transform="translate(16.918 24.891)">
          <path id="Path_893691" data-name="Path 893691" d="M271.706,36.75c1.65,3.373.285,5.884-2.3,7.147s-5.4.8-7.052-2.574,1.077-9.641,1.077-9.641S270.056,33.375,271.706,36.75Z" transform="translate(-261.827 -31.681)" fill="#93ba77" fill-rule="evenodd"/>
          <path id="Path_893692" data-name="Path 893692" d="M263.4,31.745c-.31.741-2.581,6.407-1.04,9.555,1.636,3.346,4.423,3.825,6.986,2.6Z" transform="translate(-261.827 -31.659)" fill="#6b8756" fill-rule="evenodd"/>
        </g>
        <g id="Group_1103144" data-name="Group 1103144" transform="translate(62.421 24.891)">
          <path id="Path_893693" data-name="Path 893693" d="M296.572,36.75c-1.65,3.373-.285,5.884,2.3,7.147s5.4.8,7.053-2.574-1.078-9.641-1.078-9.641S298.222,33.375,296.572,36.75Z" transform="translate(-295.852 -31.681)" fill="#93ba77" fill-rule="evenodd"/>
          <path id="Path_893694" data-name="Path 893694" d="M304.1,31.745c.31.741,2.581,6.407,1.042,9.555-1.637,3.346-4.424,3.825-6.989,2.6Z" transform="translate(-295.075 -31.659)" fill="#6b8756" fill-rule="evenodd"/>
        </g>
        <g id="Group_1103145" data-name="Group 1103145" transform="translate(30.034 28.203)">
          <path id="Path_893695" data-name="Path 893695" d="M281.99,42.948c-.769,3.675-3.39,4.818-6.2,4.229s-4.754-2.688-3.983-6.364,6.772-6.945,6.772-6.945S282.761,39.273,281.99,42.948Z" transform="translate(-271.635 -33.867)" fill="#93ba77" fill-rule="evenodd"/>
          <path id="Path_893696" data-name="Path 893696" d="M278.5,33.9c-.7.395-5.973,3.47-6.692,6.9-.765,3.646,1.141,5.736,3.914,6.346Z" transform="translate(-271.635 -33.856)" fill="#6b8756" fill-rule="evenodd"/>
        </g>
        <g id="Group_1103146" data-name="Group 1103146" transform="translate(49.453 28.203)">
          <path id="Path_893697" data-name="Path 893697" d="M286.25,42.948c.77,3.675,3.39,4.818,6.2,4.229s4.753-2.688,3.983-6.364-6.772-6.945-6.772-6.945S285.478,39.273,286.25,42.948Z" transform="translate(-286.155 -33.867)" fill="#93ba77" fill-rule="evenodd"/>
          <path id="Path_893698" data-name="Path 893698" d="M288.838,33.9c.7.395,5.974,3.47,6.692,6.9.765,3.646-1.141,5.736-3.916,6.346Z" transform="translate(-285.25 -33.856)" fill="#6b8756" fill-rule="evenodd"/>
        </g>
        <g id="Group_1103147" data-name="Group 1103147" transform="translate(39.765 0)">
          <path id="Path_893699" data-name="Path 893699" d="M284.115,15.151s-5.2,4.432-5.2,8.187,2.33,5.412,5.2,5.412,5.2-1.657,5.2-5.412S284.115,15.151,284.115,15.151Z" transform="translate(-278.911 -15.151)" fill="#93ba77" fill-rule="evenodd"/>
        </g>
        <g id="Group_1103148" data-name="Group 1103148" transform="translate(3.595 43.242)">
          <path id="Path_893700" data-name="Path 893700" d="M261.771,49.051c1.6,3.4.2,5.888-2.4,7.115s-5.412.722-7.016-2.675,1.213-9.625,1.213-9.625S260.168,45.654,261.771,49.051Z" transform="translate(-251.865 -43.866)" fill="#93ba77" fill-rule="evenodd"/>
          <path id="Path_893701" data-name="Path 893701" d="M253.534,43.929c-.32.737-2.671,6.371-1.176,9.541,1.59,3.369,4.37,3.888,6.952,2.7Z" transform="translate(-251.865 -43.845)" fill="#6b8756" fill-rule="evenodd"/>
        </g>
        <g id="Group_1103149" data-name="Group 1103149" transform="translate(75.756 43.242)">
          <path id="Path_893702" data-name="Path 893702" d="M306.5,49.051c-1.6,3.4-.2,5.888,2.4,7.115s5.414.722,7.016-2.675-1.213-9.625-1.213-9.625S308.1,45.654,306.5,49.051Z" transform="translate(-305.823 -43.866)" fill="#93ba77" fill-rule="evenodd"/>
          <path id="Path_893703" data-name="Path 893703" d="M313.946,43.929c.321.737,2.672,6.371,1.177,9.541-1.589,3.369-4.37,3.888-6.95,2.7Z" transform="translate(-305.03 -43.845)" fill="#6b8756" fill-rule="evenodd"/>
        </g>
        <g id="Group_1103150" data-name="Group 1103150" transform="translate(7.457 70.297)">
          <path id="Path_893704" data-name="Path 893704" d="M261.66,62.146c3.671-.792,5.78,1.137,6.386,3.947s-.522,5.436-4.193,6.227-9.1-3.361-9.1-3.361S257.989,62.938,261.66,62.146Z" transform="translate(-254.753 -61.967)" fill="#93ba77" fill-rule="evenodd"/>
          <path id="Path_893705" data-name="Path 893705" d="M254.809,67.955c.645.48,5.6,4.045,9.026,3.306,3.64-.784,4.776-3.374,4.2-6.157Z" transform="translate(-254.734 -60.909)" fill="#6b8756" fill-rule="evenodd"/>
        </g>
        <g id="Group_1103151" data-name="Group 1103151" transform="translate(69.031 70.297)">
          <path id="Path_893706" data-name="Path 893706" d="M307.336,62.146c-3.671-.792-5.781,1.137-6.387,3.947s.523,5.436,4.194,6.227,9.1-3.361,9.1-3.361S311.009,62.938,307.336,62.146Z" transform="translate(-300.794 -61.967)" fill="#93ba77" fill-rule="evenodd"/>
          <path id="Path_893707" data-name="Path 893707" d="M314.169,67.955c-.647.48-5.6,4.045-9.027,3.306-3.64-.784-4.774-3.374-4.2-6.157Z" transform="translate(-300.793 -60.909)" fill="#6b8756" fill-rule="evenodd"/>
        </g>
        <g id="Group_1103155" data-name="Group 1103155" transform="translate(17.21 45.937)">
          <path id="Path_893708" data-name="Path 893708" d="M262.046,50.855a5.167,5.167,0,1,1,5.107,5.226A5.166,5.166,0,0,1,262.046,50.855Z" transform="translate(-262.046 -45.748)" fill="#f9b233"/>
          <path id="Path_893709" data-name="Path 893709" d="M262.965,50.56a3.938,3.938,0,1,1,3.893,3.983A3.937,3.937,0,0,1,262.965,50.56Z" transform="translate(-261.736 -45.438)" fill="#ffc459"/>
          <g id="Group_1103154" data-name="Group 1103154" transform="translate(3.555 1.542)">
            <g id="Group_1103152" data-name="Group 1103152" transform="translate(0 0)">
              <path id="Path_893710" data-name="Path 893710" d="M264.7,48.8a1.375,1.375,0,0,0,.14.542,2.286,2.286,0,0,0,.152.277,3.107,3.107,0,0,0,.578.661c.078.072.238.2.479.378a3.308,3.308,0,0,1,.488.417,1.4,1.4,0,0,1,.443.958.926.926,0,0,1-.152.526.639.639,0,0,1-.558.277.687.687,0,0,1-.515-.2,1.045,1.045,0,0,1-.255-.536l-.772.114a1.445,1.445,0,0,0,.193.542,1.244,1.244,0,0,0,.459.443,1.884,1.884,0,0,0,.912.218,1.657,1.657,0,0,0,.927-.231,1.307,1.307,0,0,0,.606-1.163,1.564,1.564,0,0,0-.21-.805,3.588,3.588,0,0,0-.716-.782l-.94-.794a1.219,1.219,0,0,1-.439-.871.8.8,0,0,1,.14-.487.808.808,0,0,1,.663-.345.678.678,0,0,1,.531.215,1.293,1.293,0,0,1,.34.745l.768-.04a2.034,2.034,0,0,0-.2-.7,1.463,1.463,0,0,0-.495-.562,1.754,1.754,0,0,0-.967-.262,2.188,2.188,0,0,0-.56.058,1.309,1.309,0,0,0-.674.391A1.453,1.453,0,0,0,264.7,48.8Z" transform="translate(-264.704 -46.753)" fill="#e3960b"/>
              <rect id="Rectangle_405322" data-name="Rectangle 405322" width="7.244" height="0.463" transform="matrix(0.011, -1, 1, 0.011, 1.25, 7.243)" fill="#e3960b"/>
            </g>
            <g id="Group_1103153" data-name="Group 1103153" transform="translate(0 0)">
              <path id="Path_893711" data-name="Path 893711" d="M264.7,48.8a1.375,1.375,0,0,0,.14.542,2.286,2.286,0,0,0,.152.277,3.107,3.107,0,0,0,.578.661c.078.072.238.2.479.378a3.308,3.308,0,0,1,.488.417,1.4,1.4,0,0,1,.443.958.926.926,0,0,1-.152.526.639.639,0,0,1-.558.277.687.687,0,0,1-.515-.2,1.045,1.045,0,0,1-.255-.536l-.772.114a1.445,1.445,0,0,0,.193.542,1.244,1.244,0,0,0,.459.443,1.884,1.884,0,0,0,.912.218,1.657,1.657,0,0,0,.927-.231,1.307,1.307,0,0,0,.606-1.163,1.564,1.564,0,0,0-.21-.805,3.588,3.588,0,0,0-.716-.782l-.94-.794a1.219,1.219,0,0,1-.439-.871.8.8,0,0,1,.14-.487.808.808,0,0,1,.663-.345.678.678,0,0,1,.531.215,1.293,1.293,0,0,1,.34.745l.768-.04a2.034,2.034,0,0,0-.2-.7,1.463,1.463,0,0,0-.495-.562,1.754,1.754,0,0,0-.967-.262,2.188,2.188,0,0,0-.56.058,1.309,1.309,0,0,0-.674.391A1.453,1.453,0,0,0,264.7,48.8Z" transform="translate(-264.704 -46.753)" fill="#e3960b"/>
              <rect id="Rectangle_405323" data-name="Rectangle 405323" width="7.244" height="0.463" transform="matrix(0.011, -1, 1, 0.011, 1.25, 7.243)" fill="#e3960b"/>
            </g>
          </g>
        </g>
        <g id="Group_1103159" data-name="Group 1103159" transform="translate(63.323 45.937)">
          <path id="Path_893712" data-name="Path 893712" d="M296.527,50.855a5.168,5.168,0,1,1,5.109,5.226A5.168,5.168,0,0,1,296.527,50.855Z" transform="translate(-296.527 -45.748)" fill="#f9b233"/>
          <path id="Path_893713" data-name="Path 893713" d="M297.446,50.56a3.939,3.939,0,1,1,3.893,3.983A3.939,3.939,0,0,1,297.446,50.56Z" transform="translate(-296.217 -45.438)" fill="#ffc459"/>
          <g id="Group_1103158" data-name="Group 1103158" transform="translate(3.555 1.542)">
            <g id="Group_1103156" data-name="Group 1103156">
              <path id="Path_893714" data-name="Path 893714" d="M299.185,48.8a1.406,1.406,0,0,0,.142.542,2.27,2.27,0,0,0,.151.277,3.157,3.157,0,0,0,.579.661c.076.072.238.2.479.378a3.374,3.374,0,0,1,.488.417,1.4,1.4,0,0,1,.443.958.916.916,0,0,1-.154.526.636.636,0,0,1-.556.277.683.683,0,0,1-.515-.2,1.046,1.046,0,0,1-.257-.536l-.772.114a1.425,1.425,0,0,0,.194.542,1.24,1.24,0,0,0,.457.443,1.889,1.889,0,0,0,.913.218,1.652,1.652,0,0,0,.925-.231,1.3,1.3,0,0,0,.606-1.163,1.552,1.552,0,0,0-.21-.805,3.557,3.557,0,0,0-.716-.782l-.939-.794a1.206,1.206,0,0,1-.437-.871.8.8,0,0,1,.138-.487.808.808,0,0,1,.663-.345.681.681,0,0,1,.532.215,1.3,1.3,0,0,1,.341.745l.765-.04a2.033,2.033,0,0,0-.2-.7,1.445,1.445,0,0,0-.5-.562,1.746,1.746,0,0,0-.966-.262,2.188,2.188,0,0,0-.56.058,1.3,1.3,0,0,0-.674.391A1.461,1.461,0,0,0,299.185,48.8Z" transform="translate(-299.185 -46.753)" fill="#e3960b"/>
              <rect id="Rectangle_405324" data-name="Rectangle 405324" width="7.244" height="0.462" transform="matrix(0.011, -1, 1, 0.011, 1.251, 7.243)" fill="#e3960b"/>
            </g>
            <g id="Group_1103157" data-name="Group 1103157">
              <path id="Path_893715" data-name="Path 893715" d="M299.185,48.8a1.406,1.406,0,0,0,.142.542,2.27,2.27,0,0,0,.151.277,3.157,3.157,0,0,0,.579.661c.076.072.238.2.479.378a3.374,3.374,0,0,1,.488.417,1.4,1.4,0,0,1,.443.958.916.916,0,0,1-.154.526.636.636,0,0,1-.556.277.683.683,0,0,1-.515-.2,1.046,1.046,0,0,1-.257-.536l-.772.114a1.425,1.425,0,0,0,.194.542,1.24,1.24,0,0,0,.457.443,1.889,1.889,0,0,0,.913.218,1.652,1.652,0,0,0,.925-.231,1.3,1.3,0,0,0,.606-1.163,1.552,1.552,0,0,0-.21-.805,3.557,3.557,0,0,0-.716-.782l-.939-.794a1.206,1.206,0,0,1-.437-.871.8.8,0,0,1,.138-.487.808.808,0,0,1,.663-.345.681.681,0,0,1,.532.215,1.3,1.3,0,0,1,.341.745l.765-.04a2.033,2.033,0,0,0-.2-.7,1.445,1.445,0,0,0-.5-.562,1.746,1.746,0,0,0-.966-.262,2.188,2.188,0,0,0-.56.058,1.3,1.3,0,0,0-.674.391A1.461,1.461,0,0,0,299.185,48.8Z" transform="translate(-299.185 -46.753)" fill="#e3960b"/>
              <rect id="Rectangle_405325" data-name="Rectangle 405325" width="7.244" height="0.462" transform="matrix(0.011, -1, 1, 0.011, 1.251, 7.243)" fill="#e3960b"/>
            </g>
          </g>
        </g>
        <g id="Group_1103163" data-name="Group 1103163" transform="translate(29.172 12.37)">
          <path id="Path_893716" data-name="Path 893716" d="M270.99,29.508a5.168,5.168,0,1,1,5.109,5.226A5.169,5.169,0,0,1,270.99,29.508Z" transform="translate(-270.99 -24.401)" fill="#f9b233"/>
          <path id="Path_893717" data-name="Path 893717" d="M271.909,29.213A3.939,3.939,0,1,1,275.8,33.2,3.94,3.94,0,0,1,271.909,29.213Z" transform="translate(-270.68 -24.091)" fill="#ffc459"/>
          <g id="Group_1103162" data-name="Group 1103162" transform="translate(3.555 1.543)">
            <g id="Group_1103160" data-name="Group 1103160">
              <path id="Path_893718" data-name="Path 893718" d="M273.648,27.455a1.409,1.409,0,0,0,.142.543,2.368,2.368,0,0,0,.151.277,3.227,3.227,0,0,0,.579.661c.076.072.237.2.479.378a3.369,3.369,0,0,1,.487.416,1.4,1.4,0,0,1,.443.958.911.911,0,0,1-.152.526.641.641,0,0,1-.556.278.683.683,0,0,1-.515-.2,1.057,1.057,0,0,1-.257-.536l-.772.114a1.462,1.462,0,0,0,.193.54,1.258,1.258,0,0,0,.459.444,1.889,1.889,0,0,0,.913.217,1.66,1.66,0,0,0,.927-.23,1.31,1.31,0,0,0,.6-1.163,1.557,1.557,0,0,0-.21-.806,3.585,3.585,0,0,0-.715-.781l-.939-.8a1.206,1.206,0,0,1-.437-.869.795.795,0,0,1,.8-.833.687.687,0,0,1,.532.217,1.3,1.3,0,0,1,.341.744l.765-.039a2.021,2.021,0,0,0-.2-.7,1.437,1.437,0,0,0-.495-.56,1.724,1.724,0,0,0-.966-.262,2.13,2.13,0,0,0-.56.058,1.288,1.288,0,0,0-.674.389A1.459,1.459,0,0,0,273.648,27.455Z" transform="translate(-273.648 -25.407)" fill="#e3960b"/>
              <rect id="Rectangle_405326" data-name="Rectangle 405326" width="7.243" height="0.462" transform="matrix(0.011, -1, 1, 0.011, 1.251, 7.242)" fill="#e3960b"/>
            </g>
            <g id="Group_1103161" data-name="Group 1103161">
              <path id="Path_893719" data-name="Path 893719" d="M273.648,27.455a1.409,1.409,0,0,0,.142.543,2.368,2.368,0,0,0,.151.277,3.227,3.227,0,0,0,.579.661c.076.072.237.2.479.378a3.369,3.369,0,0,1,.487.416,1.4,1.4,0,0,1,.443.958.911.911,0,0,1-.152.526.641.641,0,0,1-.556.278.683.683,0,0,1-.515-.2,1.057,1.057,0,0,1-.257-.536l-.772.114a1.462,1.462,0,0,0,.193.54,1.258,1.258,0,0,0,.459.444,1.889,1.889,0,0,0,.913.217,1.66,1.66,0,0,0,.927-.23,1.31,1.31,0,0,0,.6-1.163,1.557,1.557,0,0,0-.21-.806,3.585,3.585,0,0,0-.715-.781l-.939-.8a1.206,1.206,0,0,1-.437-.869.795.795,0,0,1,.8-.833.687.687,0,0,1,.532.217,1.3,1.3,0,0,1,.341.744l.765-.039a2.021,2.021,0,0,0-.2-.7,1.437,1.437,0,0,0-.495-.56,1.724,1.724,0,0,0-.966-.262,2.13,2.13,0,0,0-.56.058,1.288,1.288,0,0,0-.674.389A1.459,1.459,0,0,0,273.648,27.455Z" transform="translate(-273.648 -25.407)" fill="#e3960b"/>
              <rect id="Rectangle_405327" data-name="Rectangle 405327" width="7.243" height="0.462" transform="matrix(0.011, -1, 1, 0.011, 1.251, 7.242)" fill="#e3960b"/>
            </g>
          </g>
        </g>
        <g id="Group_1103167" data-name="Group 1103167" transform="translate(50.43 12.37)">
          <path id="Path_893720" data-name="Path 893720" d="M286.886,29.508a5.167,5.167,0,1,1,5.107,5.226A5.167,5.167,0,0,1,286.886,29.508Z" transform="translate(-286.886 -24.401)" fill="#f9b233"/>
          <path id="Path_893721" data-name="Path 893721" d="M287.805,29.213A3.938,3.938,0,1,1,291.7,33.2,3.938,3.938,0,0,1,287.805,29.213Z" transform="translate(-286.576 -24.091)" fill="#ffc459"/>
          <g id="Group_1103166" data-name="Group 1103166" transform="translate(3.555 1.543)">
            <g id="Group_1103164" data-name="Group 1103164">
              <path id="Path_893722" data-name="Path 893722" d="M289.544,27.455a1.425,1.425,0,0,0,.139.543,2.654,2.654,0,0,0,.154.277,3.175,3.175,0,0,0,.578.661q.116.108.48.378a3.445,3.445,0,0,1,.487.416,1.4,1.4,0,0,1,.443.958.92.92,0,0,1-.152.526.644.644,0,0,1-.556.278.683.683,0,0,1-.515-.2,1.046,1.046,0,0,1-.257-.536l-.773.114a1.465,1.465,0,0,0,.194.54,1.248,1.248,0,0,0,.459.444,1.884,1.884,0,0,0,.912.217,1.657,1.657,0,0,0,.927-.23,1.308,1.308,0,0,0,.606-1.163,1.569,1.569,0,0,0-.21-.806,3.632,3.632,0,0,0-.717-.781l-.939-.8a1.218,1.218,0,0,1-.439-.869.8.8,0,0,1,.14-.487.805.805,0,0,1,.663-.346.684.684,0,0,1,.531.217,1.289,1.289,0,0,1,.34.744l.766-.039a2.02,2.02,0,0,0-.2-.7,1.458,1.458,0,0,0-.495-.56,1.732,1.732,0,0,0-.967-.262,2.13,2.13,0,0,0-.56.058,1.288,1.288,0,0,0-.674.389A1.464,1.464,0,0,0,289.544,27.455Z" transform="translate(-289.544 -25.407)" fill="#e3960b"/>
              <rect id="Rectangle_405328" data-name="Rectangle 405328" width="7.243" height="0.462" transform="translate(1.25 7.242) rotate(-89.354)" fill="#e3960b"/>
            </g>
            <g id="Group_1103165" data-name="Group 1103165">
              <path id="Path_893723" data-name="Path 893723" d="M289.544,27.455a1.425,1.425,0,0,0,.139.543,2.654,2.654,0,0,0,.154.277,3.175,3.175,0,0,0,.578.661q.116.108.48.378a3.445,3.445,0,0,1,.487.416,1.4,1.4,0,0,1,.443.958.92.92,0,0,1-.152.526.644.644,0,0,1-.556.278.683.683,0,0,1-.515-.2,1.046,1.046,0,0,1-.257-.536l-.773.114a1.465,1.465,0,0,0,.194.54,1.248,1.248,0,0,0,.459.444,1.884,1.884,0,0,0,.912.217,1.657,1.657,0,0,0,.927-.23,1.308,1.308,0,0,0,.606-1.163,1.569,1.569,0,0,0-.21-.806,3.632,3.632,0,0,0-.717-.781l-.939-.8a1.218,1.218,0,0,1-.439-.869.8.8,0,0,1,.14-.487.805.805,0,0,1,.663-.346.684.684,0,0,1,.531.217,1.289,1.289,0,0,1,.34.744l.766-.039a2.02,2.02,0,0,0-.2-.7,1.458,1.458,0,0,0-.495-.56,1.732,1.732,0,0,0-.967-.262,2.13,2.13,0,0,0-.56.058,1.288,1.288,0,0,0-.674.389A1.464,1.464,0,0,0,289.544,27.455Z" transform="translate(-289.544 -25.407)" fill="#e3960b"/>
              <rect id="Rectangle_405329" data-name="Rectangle 405329" width="7.243" height="0.462" transform="translate(1.25 7.242) rotate(-89.354)" fill="#e3960b"/>
            </g>
          </g>
        </g>
        <g id="Group_1103171" data-name="Group 1103171" transform="translate(24.005 77.455)">
          <path id="Path_893724" data-name="Path 893724" d="M267.127,71.848a5.167,5.167,0,1,1,5.107,5.226A5.168,5.168,0,0,1,267.127,71.848Z" transform="translate(-267.127 -66.741)" fill="#f9b233"/>
          <path id="Path_893725" data-name="Path 893725" d="M268.046,71.553a3.938,3.938,0,1,1,3.893,3.984A3.937,3.937,0,0,1,268.046,71.553Z" transform="translate(-266.817 -66.431)" fill="#ffc459"/>
          <g id="Group_1103170" data-name="Group 1103170" transform="translate(3.555 1.542)">
            <g id="Group_1103168" data-name="Group 1103168" transform="translate(0 0)">
              <path id="Path_893726" data-name="Path 893726" d="M269.785,69.8a1.377,1.377,0,0,0,.14.542,2.258,2.258,0,0,0,.151.277,3.117,3.117,0,0,0,.579.661q.116.108.479.378a3.47,3.47,0,0,1,.488.416,1.412,1.412,0,0,1,.443.958.921.921,0,0,1-.154.526.635.635,0,0,1-.556.277.685.685,0,0,1-.515-.2,1.062,1.062,0,0,1-.257-.536l-.77.114a1.439,1.439,0,0,0,.191.54,1.258,1.258,0,0,0,.459.444,1.891,1.891,0,0,0,.915.217,1.661,1.661,0,0,0,.925-.23,1.3,1.3,0,0,0,.6-1.163,1.547,1.547,0,0,0-.21-.806,3.608,3.608,0,0,0-.714-.781l-.939-.794a1.216,1.216,0,0,1-.44-.872.8.8,0,0,1,.8-.832.68.68,0,0,1,.531.217,1.293,1.293,0,0,1,.341.744l.766-.039a1.977,1.977,0,0,0-.2-.7,1.45,1.45,0,0,0-.493-.562,1.732,1.732,0,0,0-.967-.262,2.2,2.2,0,0,0-.562.058,1.278,1.278,0,0,0-.671.391A1.448,1.448,0,0,0,269.785,69.8Z" transform="translate(-269.785 -67.746)" fill="#e3960b"/>
              <rect id="Rectangle_405330" data-name="Rectangle 405330" width="7.244" height="0.462" transform="matrix(0.011, -1, 1, 0.011, 1.25, 7.243)" fill="#e3960b"/>
            </g>
            <g id="Group_1103169" data-name="Group 1103169" transform="translate(0 0)">
              <path id="Path_893727" data-name="Path 893727" d="M269.785,69.8a1.377,1.377,0,0,0,.14.542,2.258,2.258,0,0,0,.151.277,3.117,3.117,0,0,0,.579.661q.116.108.479.378a3.47,3.47,0,0,1,.488.416,1.412,1.412,0,0,1,.443.958.921.921,0,0,1-.154.526.635.635,0,0,1-.556.277.685.685,0,0,1-.515-.2,1.062,1.062,0,0,1-.257-.536l-.77.114a1.439,1.439,0,0,0,.191.54,1.258,1.258,0,0,0,.459.444,1.891,1.891,0,0,0,.915.217,1.661,1.661,0,0,0,.925-.23,1.3,1.3,0,0,0,.6-1.163,1.547,1.547,0,0,0-.21-.806,3.608,3.608,0,0,0-.714-.781l-.939-.794a1.216,1.216,0,0,1-.44-.872.8.8,0,0,1,.8-.832.68.68,0,0,1,.531.217,1.293,1.293,0,0,1,.341.744l.766-.039a1.977,1.977,0,0,0-.2-.7,1.45,1.45,0,0,0-.493-.562,1.732,1.732,0,0,0-.967-.262,2.2,2.2,0,0,0-.562.058,1.278,1.278,0,0,0-.671.391A1.448,1.448,0,0,0,269.785,69.8Z" transform="translate(-269.785 -67.746)" fill="#e3960b"/>
              <rect id="Rectangle_405331" data-name="Rectangle 405331" width="7.244" height="0.462" transform="matrix(0.011, -1, 1, 0.011, 1.25, 7.243)" fill="#e3960b"/>
            </g>
          </g>
        </g>
        <g id="Group_1103175" data-name="Group 1103175" transform="translate(54.369 77.455)">
          <path id="Path_893728" data-name="Path 893728" d="M289.831,71.848a5.168,5.168,0,1,1,5.107,5.226A5.168,5.168,0,0,1,289.831,71.848Z" transform="translate(-289.831 -66.741)" fill="#f9b233"/>
          <path id="Path_893729" data-name="Path 893729" d="M290.75,71.553a3.939,3.939,0,1,1,3.893,3.984A3.938,3.938,0,0,1,290.75,71.553Z" transform="translate(-289.521 -66.431)" fill="#ffc459"/>
          <g id="Group_1103174" data-name="Group 1103174" transform="translate(3.555 1.542)">
            <g id="Group_1103172" data-name="Group 1103172" transform="translate(0 0)">
              <path id="Path_893730" data-name="Path 893730" d="M292.489,69.8a1.376,1.376,0,0,0,.14.542,2.266,2.266,0,0,0,.151.277,3.129,3.129,0,0,0,.58.661c.076.072.237.2.477.378a3.394,3.394,0,0,1,.488.416,1.407,1.407,0,0,1,.443.958.92.92,0,0,1-.152.526.639.639,0,0,1-.558.277.687.687,0,0,1-.515-.2,1.06,1.06,0,0,1-.255-.536l-.772.114a1.437,1.437,0,0,0,.191.54,1.251,1.251,0,0,0,.46.444,1.889,1.889,0,0,0,.913.217,1.658,1.658,0,0,0,.925-.23,1.3,1.3,0,0,0,.6-1.163,1.547,1.547,0,0,0-.21-.806,3.572,3.572,0,0,0-.714-.781l-.939-.794a1.221,1.221,0,0,1-.44-.872.8.8,0,0,1,.8-.832.685.685,0,0,1,.532.217,1.293,1.293,0,0,1,.34.744l.766-.039a2.005,2.005,0,0,0-.2-.7,1.464,1.464,0,0,0-.495-.562,1.729,1.729,0,0,0-.967-.262,2.189,2.189,0,0,0-.56.058,1.276,1.276,0,0,0-.673.391A1.448,1.448,0,0,0,292.489,69.8Z" transform="translate(-292.489 -67.746)" fill="#e3960b"/>
              <rect id="Rectangle_405332" data-name="Rectangle 405332" width="7.244" height="0.462" transform="matrix(0.011, -1, 1, 0.011, 1.25, 7.243)" fill="#e3960b"/>
            </g>
            <g id="Group_1103173" data-name="Group 1103173" transform="translate(0 0)">
              <path id="Path_893731" data-name="Path 893731" d="M292.489,69.8a1.376,1.376,0,0,0,.14.542,2.266,2.266,0,0,0,.151.277,3.129,3.129,0,0,0,.58.661c.076.072.237.2.477.378a3.394,3.394,0,0,1,.488.416,1.407,1.407,0,0,1,.443.958.92.92,0,0,1-.152.526.639.639,0,0,1-.558.277.687.687,0,0,1-.515-.2,1.06,1.06,0,0,1-.255-.536l-.772.114a1.437,1.437,0,0,0,.191.54,1.251,1.251,0,0,0,.46.444,1.889,1.889,0,0,0,.913.217,1.658,1.658,0,0,0,.925-.23,1.3,1.3,0,0,0,.6-1.163,1.547,1.547,0,0,0-.21-.806,3.572,3.572,0,0,0-.714-.781l-.939-.794a1.221,1.221,0,0,1-.44-.872.8.8,0,0,1,.8-.832.685.685,0,0,1,.532.217,1.293,1.293,0,0,1,.34.744l.766-.039a2.005,2.005,0,0,0-.2-.7,1.464,1.464,0,0,0-.495-.562,1.729,1.729,0,0,0-.967-.262,2.189,2.189,0,0,0-.56.058,1.276,1.276,0,0,0-.673.391A1.448,1.448,0,0,0,292.489,69.8Z" transform="translate(-292.489 -67.746)" fill="#e3960b"/>
              <rect id="Rectangle_405333" data-name="Rectangle 405333" width="7.244" height="0.462" transform="matrix(0.011, -1, 1, 0.011, 1.25, 7.243)" fill="#e3960b"/>
            </g>
          </g>
        </g>
        <g id="Group_1103179" data-name="Group 1103179" transform="translate(0 58.862)">
          <path id="Path_893732" data-name="Path 893732" d="M249.177,59.464a5.167,5.167,0,1,1,5.107,5.226A5.167,5.167,0,0,1,249.177,59.464Z" transform="translate(-249.177 -54.357)" fill="#f9b233"/>
          <path id="Path_893733" data-name="Path 893733" d="M250.1,59.169a3.938,3.938,0,1,1,3.893,3.984A3.936,3.936,0,0,1,250.1,59.169Z" transform="translate(-248.867 -54.047)" fill="#ffc459"/>
          <g id="Group_1103178" data-name="Group 1103178" transform="translate(3.555 1.542)">
            <g id="Group_1103176" data-name="Group 1103176" transform="translate(0 0)">
              <path id="Path_893734" data-name="Path 893734" d="M251.835,57.411a1.4,1.4,0,0,0,.139.543,2.617,2.617,0,0,0,.152.277,3.153,3.153,0,0,0,.579.661c.078.072.237.2.479.378a3.393,3.393,0,0,1,.488.416,1.413,1.413,0,0,1,.443.958.93.93,0,0,1-.152.526.64.64,0,0,1-.558.277.682.682,0,0,1-.515-.2,1.05,1.05,0,0,1-.255-.536l-.773.114a1.463,1.463,0,0,0,.193.54,1.252,1.252,0,0,0,.46.444,1.9,1.9,0,0,0,.912.217,1.649,1.649,0,0,0,.927-.23,1.3,1.3,0,0,0,.6-1.163,1.543,1.543,0,0,0-.21-.806,3.585,3.585,0,0,0-.716-.781l-.939-.8a1.216,1.216,0,0,1-.439-.871.8.8,0,0,1,.8-.832.68.68,0,0,1,.531.217,1.289,1.289,0,0,1,.341.744l.765-.04a1.95,1.95,0,0,0-.2-.7,1.45,1.45,0,0,0-.493-.562,1.735,1.735,0,0,0-.967-.262,2.135,2.135,0,0,0-.562.058,1.289,1.289,0,0,0-.673.389A1.458,1.458,0,0,0,251.835,57.411Z" transform="translate(-251.835 -55.362)" fill="#e3960b"/>
              <rect id="Rectangle_405334" data-name="Rectangle 405334" width="7.243" height="0.462" transform="translate(1.245 7.243) rotate(-89.271)" fill="#e3960b"/>
            </g>
            <g id="Group_1103177" data-name="Group 1103177" transform="translate(0 0)">
              <path id="Path_893735" data-name="Path 893735" d="M251.835,57.411a1.4,1.4,0,0,0,.139.543,2.617,2.617,0,0,0,.152.277,3.153,3.153,0,0,0,.579.661c.078.072.237.2.479.378a3.393,3.393,0,0,1,.488.416,1.413,1.413,0,0,1,.443.958.93.93,0,0,1-.152.526.64.64,0,0,1-.558.277.682.682,0,0,1-.515-.2,1.05,1.05,0,0,1-.255-.536l-.773.114a1.463,1.463,0,0,0,.193.54,1.252,1.252,0,0,0,.46.444,1.9,1.9,0,0,0,.912.217,1.649,1.649,0,0,0,.927-.23,1.3,1.3,0,0,0,.6-1.163,1.543,1.543,0,0,0-.21-.806,3.585,3.585,0,0,0-.716-.781l-.939-.8a1.216,1.216,0,0,1-.439-.871.8.8,0,0,1,.8-.832.68.68,0,0,1,.531.217,1.289,1.289,0,0,1,.341.744l.765-.04a1.95,1.95,0,0,0-.2-.7,1.45,1.45,0,0,0-.493-.562,1.735,1.735,0,0,0-.967-.262,2.135,2.135,0,0,0-.562.058,1.289,1.289,0,0,0-.673.389A1.458,1.458,0,0,0,251.835,57.411Z" transform="translate(-251.835 -55.362)" fill="#e3960b"/>
              <rect id="Rectangle_405335" data-name="Rectangle 405335" width="7.243" height="0.462" transform="translate(1.245 7.243) rotate(-89.271)" fill="#e3960b"/>
            </g>
          </g>
        </g>
        <g id="Group_1103183" data-name="Group 1103183" transform="translate(79.603 58.862)">
          <path id="Path_893736" data-name="Path 893736" d="M308.7,59.464a5.167,5.167,0,1,1,5.107,5.226A5.167,5.167,0,0,1,308.7,59.464Z" transform="translate(-308.7 -54.357)" fill="#f9b233"/>
          <path id="Path_893737" data-name="Path 893737" d="M309.619,59.169a3.939,3.939,0,1,1,3.892,3.984A3.938,3.938,0,0,1,309.619,59.169Z" transform="translate(-308.39 -54.047)" fill="#ffc459"/>
          <g id="Group_1103182" data-name="Group 1103182" transform="translate(3.555 1.542)">
            <g id="Group_1103180" data-name="Group 1103180" transform="translate(0 0)">
              <path id="Path_893738" data-name="Path 893738" d="M311.358,57.411a1.383,1.383,0,0,0,.14.543,2.358,2.358,0,0,0,.151.277,3.191,3.191,0,0,0,.579.661c.076.072.237.2.479.378a3.471,3.471,0,0,1,.488.416,1.4,1.4,0,0,1,.441.958.91.91,0,0,1-.152.526.637.637,0,0,1-.556.277.68.68,0,0,1-.515-.2,1.073,1.073,0,0,1-.257-.536l-.772.114a1.463,1.463,0,0,0,.193.54,1.258,1.258,0,0,0,.459.444,1.91,1.91,0,0,0,.915.217,1.647,1.647,0,0,0,.925-.23,1.308,1.308,0,0,0,.6-1.163,1.543,1.543,0,0,0-.21-.806,3.609,3.609,0,0,0-.714-.781l-.94-.8a1.209,1.209,0,0,1-.437-.871.795.795,0,0,1,.8-.832.685.685,0,0,1,.532.217,1.289,1.289,0,0,1,.341.744l.765-.04a1.976,1.976,0,0,0-.2-.7,1.428,1.428,0,0,0-.493-.562,1.732,1.732,0,0,0-.967-.262,2.13,2.13,0,0,0-.56.058,1.278,1.278,0,0,0-.673.389A1.453,1.453,0,0,0,311.358,57.411Z" transform="translate(-311.358 -55.362)" fill="#e3960b"/>
              <rect id="Rectangle_405336" data-name="Rectangle 405336" width="7.243" height="0.462" transform="translate(1.245 7.243) rotate(-89.271)" fill="#e3960b"/>
            </g>
            <g id="Group_1103181" data-name="Group 1103181" transform="translate(0 0)">
              <path id="Path_893739" data-name="Path 893739" d="M311.358,57.411a1.383,1.383,0,0,0,.14.543,2.358,2.358,0,0,0,.151.277,3.191,3.191,0,0,0,.579.661c.076.072.237.2.479.378a3.471,3.471,0,0,1,.488.416,1.4,1.4,0,0,1,.441.958.91.91,0,0,1-.152.526.637.637,0,0,1-.556.277.68.68,0,0,1-.515-.2,1.073,1.073,0,0,1-.257-.536l-.772.114a1.463,1.463,0,0,0,.193.54,1.258,1.258,0,0,0,.459.444,1.91,1.91,0,0,0,.915.217,1.647,1.647,0,0,0,.925-.23,1.308,1.308,0,0,0,.6-1.163,1.543,1.543,0,0,0-.21-.806,3.609,3.609,0,0,0-.714-.781l-.94-.8a1.209,1.209,0,0,1-.437-.871.795.795,0,0,1,.8-.832.685.685,0,0,1,.532.217,1.289,1.289,0,0,1,.341.744l.765-.04a1.976,1.976,0,0,0-.2-.7,1.428,1.428,0,0,0-.493-.562,1.732,1.732,0,0,0-.967-.262,2.13,2.13,0,0,0-.56.058,1.278,1.278,0,0,0-.673.389A1.453,1.453,0,0,0,311.358,57.411Z" transform="translate(-311.358 -55.362)" fill="#e3960b"/>
              <rect id="Rectangle_405337" data-name="Rectangle 405337" width="7.243" height="0.462" transform="translate(1.245 7.243) rotate(-89.271)" fill="#e3960b"/>
            </g>
          </g>
        </g>
        <g id="Group_1103186" data-name="Group 1103186" transform="translate(39.765 0.053)">
          <g id="Group_1103184" data-name="Group 1103184">
            <path id="Path_893740" data-name="Path 893740" d="M284.053,15.191c-.583.511-5.142,4.618-5.142,8.134,0,3.727,2.3,5.383,5.142,5.407Z" transform="translate(-278.911 -15.191)" fill="#6b8756" fill-rule="evenodd"/>
          </g>
          <g id="Group_1103185" data-name="Group 1103185">
            <path id="Path_893741" data-name="Path 893741" d="M284.053,15.191c-.583.511-5.142,4.618-5.142,8.134,0,3.727,2.3,5.383,5.142,5.407Z" transform="translate(-278.911 -15.191)" fill="#93ba77" fill-rule="evenodd"/>
          </g>
        </g>
      </g>
    </g>
  </g>
</svg>
