<svg xmlns="http://www.w3.org/2000/svg" xmlns:xlink="http://www.w3.org/1999/xlink" width="121" height="121" viewBox="0 0 121 121">
  <defs>
    <clipPath id="clip-path">
      <rect id="Rectangle_400938" data-name="Rectangle 400938" width="121" height="121" transform="translate(0 0)" fill="none"/>
    </clipPath>
    <clipPath id="clip-path-2">
      <rect id="Rectangle_401073" data-name="Rectangle 401073" width="92.219" height="41.532" fill="#efb499"/>
    </clipPath>
  </defs>
  <g id="Group_1104218" data-name="Group 1104218" transform="translate(-389.207 -2591)">
    <g id="Group_1102764" data-name="Group 1102764" transform="translate(1.539 -3422)">
      <rect id="Rectangle_401103" data-name="Rectangle 401103" width="121" height="121" transform="translate(387.668 6013)" fill="none"/>
      <g id="Group_1099348" data-name="Group 1099348" transform="translate(387.668 6013)">
        <g id="Group_1099282" data-name="Group 1099282">
          <g id="Group_1099281" data-name="Group 1099281" clip-path="url(#clip-path-2)">
            <path id="Path_873375" data-name="Path 873375" d="M74.8,9.1c-4.139,0-6.28-2.03-8.17-3.821-1.855-1.756-3.452-3.274-6.792-3.274s-4.937,1.517-6.792,3.274C51.161,7.072,49.023,9.1,44.881,9.1s-6.28-2.03-8.169-3.821C34.857,3.525,33.26,2.007,29.92,2.007s-4.937,1.517-6.789,3.274C21.241,7.072,19.1,9.1,14.962,9.1S8.679,7.072,6.789,5.281C4.937,3.525,3.34,2.007,0,2.007V0C4.139,0,6.28,2.033,8.17,3.821c1.855,1.759,3.452,3.274,6.792,3.274S19.9,5.58,21.75,3.824C23.637,2.033,25.781,0,29.92,0s6.283,2.033,8.17,3.821c1.855,1.759,3.452,3.274,6.792,3.274s4.937-1.514,6.792-3.274C53.56,2.033,55.7,0,59.843,0s6.283,2.033,8.17,3.821C69.867,5.58,71.464,7.094,74.8,7.094S79.742,5.58,81.6,3.821C83.483,2.033,85.624,0,89.766,0V2.007c-3.34,0-4.937,1.517-6.792,3.274C81.084,7.072,78.943,9.1,74.8,9.1" transform="translate(2.453 32.43)" fill="#efb499"/>
            <path id="Path_873376" data-name="Path 873376" d="M74.8,9.1c-4.139,0-6.283-2.03-8.17-3.824-1.855-1.756-3.452-3.27-6.792-3.27s-4.937,1.514-6.792,3.27C51.164,7.072,49.023,9.1,44.881,9.1s-6.283-2.03-8.17-3.824c-1.855-1.756-3.452-3.27-6.792-3.27s-4.937,1.517-6.789,3.27C21.241,7.072,19.1,9.1,14.962,9.1S8.679,7.072,6.789,5.278C4.937,3.522,3.34,2.007,0,2.007V0C4.139,0,6.283,2.03,8.17,3.821c1.855,1.759,3.452,3.274,6.792,3.274S19.9,5.58,21.75,3.821C23.637,2.03,25.781,0,29.92,0S36.2,2.03,38.093,3.821c1.852,1.759,3.449,3.274,6.789,3.274s4.937-1.514,6.792-3.274C53.56,2.03,55.7,0,59.843,0s6.283,2.03,8.17,3.821C69.867,5.58,71.464,7.094,74.8,7.094S79.742,5.58,81.6,3.821C83.486,2.03,85.627,0,89.769,0V2.007c-3.34,0-4.94,1.517-6.8,3.27C81.084,7.072,78.943,9.1,74.8,9.1" transform="translate(1.635 21.62)" fill="#efb499"/>
            <path id="Path_873377" data-name="Path 873377" d="M74.8,9.1c-4.139,0-6.283-2.03-8.169-3.824-1.855-1.756-3.452-3.27-6.792-3.27s-4.937,1.514-6.792,3.27C51.164,7.072,49.02,9.1,44.881,9.1s-6.283-2.03-8.17-3.824c-1.855-1.756-3.452-3.27-6.792-3.27s-4.937,1.517-6.789,3.27C21.241,7.072,19.1,9.1,14.962,9.1S8.678,7.072,6.789,5.278C4.937,3.522,3.34,2.007,0,2.007V0C4.139,0,6.283,2.03,8.169,3.821c1.851,1.759,3.452,3.274,6.792,3.274S19.9,5.58,21.75,3.821C23.637,2.03,25.781,0,29.92,0S36.2,2.03,38.093,3.821c1.852,1.759,3.449,3.274,6.789,3.274s4.937-1.514,6.792-3.274C53.56,2.03,55.7,0,59.843,0s6.283,2.03,8.17,3.821C69.867,5.58,71.464,7.094,74.8,7.094S79.742,5.58,81.6,3.821C83.486,2.03,85.624,0,89.769,0V2.007c-3.34,0-4.941,1.517-6.8,3.27C81.084,7.072,78.943,9.1,74.8,9.1" transform="translate(0.818 10.81)" fill="#efb499"/>
            <path id="Path_873378" data-name="Path 873378" d="M74.8,9.1c-4.139,0-6.28-2.03-8.17-3.821-1.855-1.756-3.452-3.27-6.792-3.27s-4.937,1.514-6.789,3.27C51.164,7.069,49.023,9.1,44.881,9.1s-6.28-2.03-8.169-3.821c-1.855-1.756-3.452-3.27-6.792-3.27s-4.937,1.514-6.789,3.267C21.245,7.069,19.1,9.1,14.962,9.1S8.678,7.069,6.789,5.278C4.937,3.522,3.34,2.007,0,2.007V0C4.139,0,6.283,2.03,8.17,3.821c1.855,1.756,3.452,3.27,6.792,3.27S19.9,5.577,21.75,3.821C23.64,2.03,25.781,0,29.92,0s6.28,2.03,8.173,3.821c1.852,1.756,3.449,3.27,6.789,3.27s4.937-1.514,6.792-3.27C53.563,2.03,55.7,0,59.843,0s6.28,2.03,8.17,3.821c1.855,1.756,3.452,3.27,6.792,3.27s4.937-1.514,6.792-3.27C83.486,2.03,85.627,0,89.769,0V2.007c-3.344,0-4.941,1.514-6.8,3.27C81.084,7.069,78.943,9.1,74.8,9.1" transform="translate(0 0.003)" fill="#efb499"/>
          </g>
        </g>
      </g>
      <circle id="Ellipse_11504" data-name="Ellipse 11504" cx="50.5" cy="50.5" r="50.5" transform="translate(402.668 6031)" fill="#ffce73"/>
      <circle id="Ellipse_11503" data-name="Ellipse 11503" cx="52.5" cy="52.5" r="52.5" transform="translate(395.668 6021)" fill="#f3f9ff"/>
    </g>
    <g id="Group_1102767" data-name="Group 1102767" transform="translate(416.148 2618.804)">
      <rect id="Rectangle_401104" data-name="Rectangle 401104" width="68" height="69" transform="translate(-0.438 -3.804)" fill="none"/>
      <g id="Group_1103721" data-name="Group 1103721" transform="translate(-4214.86 -49.658)">
        <path id="Path_894825" data-name="Path 894825" d="M4267.54,90.712c.037,1.821.1,3.637.1,5.453a.958.958,0,0,0,.756,1.062,5.283,5.283,0,0,1,3.466,5.862,5.375,5.375,0,0,1-5.063,4.468,5.553,5.553,0,0,1-4.314-1.885l-.439.813.287-.135c1.107,1.561,2.283,3.079,3.3,4.7.678,1.082.194,1.762-1.093,1.762q-16.1,0-32.208,0c-1.234,0-1.61-.609-1.1-1.722a12.555,12.555,0,0,1,3.619-4.547l-.3-.676c-4.526,2.729-8.112,2.545-9.473-3.233-.6-2.546.926-4.229,4.168-5.752,0-1-.025-2.029.008-3.059s.126-2.04.2-3.154a15.478,15.478,0,0,0-4.851,3.209,5.552,5.552,0,0,1-3.135,1.81,4.231,4.231,0,0,1-4.817-3.838,56.987,56.987,0,0,1,1.271-18.563c1.837-6.98,4.941-13.209,10.593-17.931a27.3,27.3,0,0,1,13.445-5.947,37.308,37.308,0,0,1,17.581,1.129,27.049,27.049,0,0,1,15.975,13.676,44.065,44.065,0,0,1,4.938,20.384c.04,2.331-.084,4.665-.187,7a4.011,4.011,0,0,1-2.533,3.758,4.273,4.273,0,0,1-4.582-.684c-1.676-1.3-3.417-2.517-5.138-3.759A1.672,1.672,0,0,0,4267.54,90.712Zm-31.9-3.688V89.58c0,1.7.006,3.4-.011,5.1-.007.667-.408,1.172-1.038,1.061a1.662,1.662,0,0,1-1.022-.967,5.227,5.227,0,0,1-.072-1.684c0-1.106,0-2.212,0-3.489a3.214,3.214,0,0,0-2.088,2.937c-.032,1.6-.008,3.2-.019,4.8-.01,1.287-.184,1.483-1.432,1.682a3.2,3.2,0,1,0,.9,6.326,3.08,3.08,0,0,0,2.592-2.785c.083-1.095.026-2.2.062-3.3.021-.689.239-1.293,1.075-1.276.809.017,1.06.567,1.059,1.289,0,.567,0,1.134,0,1.7a8.336,8.336,0,0,0,4.478,7.617,16.87,16.87,0,0,0,13.241,1.441c2.736-.741,5.234-1.995,6.637-4.589a15.467,15.467,0,0,0,1.218-4.052c.153-.706.338-1.276,1.105-1.28.787,0,1.051.588,1.073,1.3.009.3,0,.6.024.9a3.165,3.165,0,0,0,6.323.071,3.2,3.2,0,0,0-2.779-3.36c-1.276-.212-1.447-.4-1.457-1.659-.013-1.6.019-3.2-.02-4.8a2.8,2.8,0,0,0-2.089-2.8c0,1.489,0,2.945,0,4.4,0,.77-.061,1.592-1.062,1.6s-1.094-.758-1.088-1.562c.018-2.134-.018-4.269.02-6.4.012-.612-.18-.914-.78-1.02-2.62-.463-5.231-.968-7.856-1.4-.893-.148-1.812-.134-2.8-.2.111.566.178.959.266,1.346.747,3.277,1.512,6.549,2.244,9.829a2.16,2.16,0,0,1-2.318,2.878c-1.1.014-2.2.022-3.3,0a2.131,2.131,0,0,1-2.2-2.729c.3-1.466.659-2.922.992-4.382.516-2.265,1.031-4.53,1.574-6.911A46.714,46.714,0,0,0,4235.639,87.024Zm-4.3-31.353c.438.35.646.5.836.673,1.978,1.777,4.1,3.419,5.887,5.373,1.81,1.982,3.271,4.28,4.913,6.418.2.263.6.588.867.553,1.145-.153,2.272-.429,3.475-.675V50.895l-7.256.96c.343.55.53.821.688,1.109,1.073,1.952,2.147,3.9,3.206,5.864.371.688.293,1.345-.468,1.674-.741.321-1.182-.167-1.481-.795-.2-.421-.368-.859-.6-1.264-1.11-1.963-2.236-3.918-3.459-6.056Zm34.294.022c-2.037-.99-3.835-1.828-5.6-2.735-.845-.434-1.306-.19-1.728.588-1.092,2.017-2.245,4-3.345,6.013-.359.658-.736,1.317-1.587.93-.887-.4-.724-1.152-.356-1.871.046-.089.084-.181.131-.269,1.136-2.1,2.271-4.205,3.518-6.517l-7.089-.927v17.1c1.187.241,2.285.5,3.4.662a1.05,1.05,0,0,0,.841-.4A41.856,41.856,0,0,1,4265.633,55.692Zm-30.32,29.189a47.347,47.347,0,0,1,26.185-.034c.674-3.459-.036-4.806-3.27-5.508a57.348,57.348,0,0,0-9.922-1.568,33.383,33.383,0,0,0-11.063,1.932,2.475,2.475,0,0,0-1.9,1.986A22.764,22.764,0,0,0,4235.313,84.881Zm6.1-15.22c-.649-.957-1.241-1.882-1.885-2.771a35.326,35.326,0,0,0-9.2-9.209c-.534-.348-.9-.418-1.351.1-1.158,1.33-2.412,2.579-3.509,3.956-.812,1.021-1.436,2.191-2.223,3.417a42.526,42.526,0,0,1,15.555,6.454Zm32.139-4.5a25.526,25.526,0,0,0-5.923-7.593,1.027,1.027,0,0,0-.927.056c-4.774,3.038-8.19,7.342-11.218,12.038l2.609,1.948A42.3,42.3,0,0,1,4273.552,65.165ZM4218.423,85.95a2.286,2.286,0,0,0,.511-.035,24.158,24.158,0,0,1,13.588-3.992.876.876,0,0,0,.65-.428c.448-.942.829-1.915,1.256-2.928a35.873,35.873,0,0,0-15.133-2.354C4219,79.466,4218.716,82.666,4218.423,85.95Zm60.063.146c-.319-3.44-.616-6.637-.917-9.883a35.82,35.82,0,0,0-15.177,2.387,12.2,12.2,0,0,1,1.183,2.436c.187.78.51.931,1.209.917a21.964,21.964,0,0,1,9.488,2C4275.6,84.545,4276.861,85.264,4278.486,86.1Zm-19.376-8.733c-1.776-5.043-6.219-7.478-11.7-7.108-4.616.312-8.962,3.466-9.5,7.065A33.591,33.591,0,0,1,4259.11,77.364ZM4219.8,74.082c1.742,0,3.177-.094,4.6.018a38.38,38.38,0,0,1,10.673,2.4.849.849,0,0,0,.762-.292c.544-.943,1.013-1.93,1.537-2.958a39.071,39.071,0,0,0-14.378-5.941c-.544-.091-.8.053-.972.539C4221.331,69.812,4220.627,71.777,4219.8,74.082Zm39.706-.822c.5.95,1.007,1.776,1.384,2.656.269.624.516.764,1.188.51a35.5,35.5,0,0,1,9.782-2.249c1.642-.128,3.286-.208,5.12-.322-.7-1.989-1.394-3.885-2.023-5.8-.24-.728-.614-.841-1.328-.712A39.582,39.582,0,0,0,4259.511,73.261Zm-26.45,10.758a21.885,21.885,0,0,0-12.039,3.167c-3.033,1.9-2.436,1.046-2.193,4.548,0,.033,0,.075.013.1.408.525.718,1.219,1.251,1.533,1.022.6,1.9.035,2.651-.719a18.428,18.428,0,0,1,8.247-4.835c.846-.237,2.135-.366,2.376-.915C4233.694,86.151,4233.209,85.049,4233.061,84.019Zm30.827.007c-.174.87-.329,1.617-.473,2.366-.117.619.044.954.769,1.068a15.3,15.3,0,0,1,6.133,2.243,45.32,45.32,0,0,1,3.994,3.122c1.124.939,2.326,1.023,3.2.123a7.731,7.731,0,0,0,.672-4.121.947.947,0,0,0-.277-.279A22.275,22.275,0,0,0,4263.888,84.025Zm-15.314,5.446-.256-.012c-.571,2.516-1.144,5.032-1.721,7.565h3.7C4249.708,94.433,4249.142,91.952,4248.573,89.472Zm-14.844,21.234h5.407l-3.092-2.465Zm24.062-.034h5.341c-.884-.938-1.6-1.693-2.29-2.426Z" transform="translate(0 0)" fill="#6a4d23"/>
        <path id="Path_894826" data-name="Path 894826" d="M4350.98,309.012c1.839.442,3.606.85,5.362,1.3.691.177,1.159.641.9,1.393-.266.79-.917.885-1.637.606a12.7,12.7,0,0,0-9.341-.026c-.694.26-1.366.264-1.662-.548s.226-1.267.942-1.446C4347.338,309.842,4349.139,309.442,4350.98,309.012Z" transform="translate(-102.469 -208.107)" fill="#6a4d23"/>
        <path id="Path_894827" data-name="Path 894827" d="M4356.625,334.764c-.433-.147-.652-.216-.869-.3a13.094,13.094,0,0,0-9.175-.023c-.3.109-.725.284-.942.162-.358-.2-.841-.634-.823-.943a1.522,1.522,0,0,1,.8-1.078,12.762,12.762,0,0,1,6.916-1.025,25.519,25.519,0,0,1,4.317,1.114,1.356,1.356,0,0,1,.621,1.147C4357.42,334.185,4356.893,334.486,4356.625,334.764Z" transform="translate(-102.705 -226.051)" fill="#6a4d23"/>
        <path id="Path_894828" data-name="Path 894828" d="M4323.786,250.606c.8.124,1.383.372,1.521,1.18.112.652-.5,1.066-1.406,1.206-1.468.228-2.933.5-4.374.862-.721.179-1.268.164-1.56-.569-.31-.775.16-1.247.818-1.43C4320.441,251.4,4322.119,251.017,4323.786,250.606Z" transform="translate(-81.151 -161.387)" fill="#6a4d23"/>
        <path id="Path_894829" data-name="Path 894829" d="M4399.491,250.768c1.575.38,3.159.731,4.723,1.155.672.182,1.278.585,1,1.433-.289.876-.927.8-1.7.6a38.649,38.649,0,0,0-4.182-.823c-.766-.111-1.411-.276-1.486-1.146C4397.779,251.284,4398.443,250.884,4399.491,250.768Z" transform="translate(-145.118 -161.516)" fill="#6a4d23"/>
        <path id="Path_894830" data-name="Path 894830" d="M4281.926,309.617c.276.375.716.721.792,1.133a.9.9,0,0,1-.983,1.084c-.663,0-1.126-.412-1.027-1.053.065-.415.5-.773.768-1.157Z" transform="translate(-51.412 -208.591)" fill="#6a4d23"/>
        <path id="Path_894831" data-name="Path 894831" d="M4464.484,311.968c-.416.27-.844.764-1.243.742a.964.964,0,0,1-.015-1.926c.4-.029.838.449,1.26.707Z" transform="translate(-196.695 -209.524)" fill="#6a4d23"/>
      </g>
    </g>
  </g>
</svg>
