<svg xmlns="http://www.w3.org/2000/svg" xmlns:xlink="http://www.w3.org/1999/xlink" width="121" height="121" viewBox="0 0 121 121">
  <defs>
    <clipPath id="clip-path">
      <rect id="Rectangle_400938" data-name="Rectangle 400938" width="121" height="121" transform="translate(0 0)" fill="none"/>
    </clipPath>
    <clipPath id="clip-path-2">
      <rect id="Rectangle_401073" data-name="Rectangle 401073" width="92.219" height="41.532" fill="#efb499"/>
    </clipPath>
  </defs>
  <g id="Group_1104219" data-name="Group 1104219" transform="translate(-741.207 -2591)">
    <g id="Group_1102766" data-name="Group 1102766" transform="translate(353.539 -3422)">
      <rect id="Rectangle_401103" data-name="Rectangle 401103" width="121" height="121" transform="translate(387.668 6013)" fill="none"/>
      <g id="Group_1099348" data-name="Group 1099348" transform="translate(387.668 6013)">
        <g id="Group_1099282" data-name="Group 1099282">
          <g id="Group_1099281" data-name="Group 1099281" clip-path="url(#clip-path-2)">
            <path id="Path_873375" data-name="Path 873375" d="M74.8,9.1c-4.139,0-6.28-2.03-8.17-3.821-1.855-1.756-3.452-3.274-6.792-3.274s-4.937,1.517-6.792,3.274C51.161,7.072,49.023,9.1,44.881,9.1s-6.28-2.03-8.169-3.821C34.857,3.525,33.26,2.007,29.92,2.007s-4.937,1.517-6.789,3.274C21.241,7.072,19.1,9.1,14.962,9.1S8.679,7.072,6.789,5.281C4.937,3.525,3.34,2.007,0,2.007V0C4.139,0,6.28,2.033,8.17,3.821c1.855,1.759,3.452,3.274,6.792,3.274S19.9,5.58,21.75,3.824C23.637,2.033,25.781,0,29.92,0s6.283,2.033,8.17,3.821c1.855,1.759,3.452,3.274,6.792,3.274s4.937-1.514,6.792-3.274C53.56,2.033,55.7,0,59.843,0s6.283,2.033,8.17,3.821C69.867,5.58,71.464,7.094,74.8,7.094S79.742,5.58,81.6,3.821C83.483,2.033,85.624,0,89.766,0V2.007c-3.34,0-4.937,1.517-6.792,3.274C81.084,7.072,78.943,9.1,74.8,9.1" transform="translate(2.453 32.43)" fill="#efb499"/>
            <path id="Path_873376" data-name="Path 873376" d="M74.8,9.1c-4.139,0-6.283-2.03-8.17-3.824-1.855-1.756-3.452-3.27-6.792-3.27s-4.937,1.514-6.792,3.27C51.164,7.072,49.023,9.1,44.881,9.1s-6.283-2.03-8.17-3.824c-1.855-1.756-3.452-3.27-6.792-3.27s-4.937,1.517-6.789,3.27C21.241,7.072,19.1,9.1,14.962,9.1S8.679,7.072,6.789,5.278C4.937,3.522,3.34,2.007,0,2.007V0C4.139,0,6.283,2.03,8.17,3.821c1.855,1.759,3.452,3.274,6.792,3.274S19.9,5.58,21.75,3.821C23.637,2.03,25.781,0,29.92,0S36.2,2.03,38.093,3.821c1.852,1.759,3.449,3.274,6.789,3.274s4.937-1.514,6.792-3.274C53.56,2.03,55.7,0,59.843,0s6.283,2.03,8.17,3.821C69.867,5.58,71.464,7.094,74.8,7.094S79.742,5.58,81.6,3.821C83.486,2.03,85.627,0,89.769,0V2.007c-3.34,0-4.94,1.517-6.8,3.27C81.084,7.072,78.943,9.1,74.8,9.1" transform="translate(1.635 21.62)" fill="#efb499"/>
            <path id="Path_873377" data-name="Path 873377" d="M74.8,9.1c-4.139,0-6.283-2.03-8.169-3.824-1.855-1.756-3.452-3.27-6.792-3.27s-4.937,1.514-6.792,3.27C51.164,7.072,49.02,9.1,44.881,9.1s-6.283-2.03-8.17-3.824c-1.855-1.756-3.452-3.27-6.792-3.27s-4.937,1.517-6.789,3.27C21.241,7.072,19.1,9.1,14.962,9.1S8.678,7.072,6.789,5.278C4.937,3.522,3.34,2.007,0,2.007V0C4.139,0,6.283,2.03,8.169,3.821c1.851,1.759,3.452,3.274,6.792,3.274S19.9,5.58,21.75,3.821C23.637,2.03,25.781,0,29.92,0S36.2,2.03,38.093,3.821c1.852,1.759,3.449,3.274,6.789,3.274s4.937-1.514,6.792-3.274C53.56,2.03,55.7,0,59.843,0s6.283,2.03,8.17,3.821C69.867,5.58,71.464,7.094,74.8,7.094S79.742,5.58,81.6,3.821C83.486,2.03,85.624,0,89.769,0V2.007c-3.34,0-4.941,1.517-6.8,3.27C81.084,7.072,78.943,9.1,74.8,9.1" transform="translate(0.818 10.81)" fill="#efb499"/>
            <path id="Path_873378" data-name="Path 873378" d="M74.8,9.1c-4.139,0-6.28-2.03-8.17-3.821-1.855-1.756-3.452-3.27-6.792-3.27s-4.937,1.514-6.789,3.27C51.164,7.069,49.023,9.1,44.881,9.1s-6.28-2.03-8.169-3.821c-1.855-1.756-3.452-3.27-6.792-3.27s-4.937,1.514-6.789,3.267C21.245,7.069,19.1,9.1,14.962,9.1S8.678,7.069,6.789,5.278C4.937,3.522,3.34,2.007,0,2.007V0C4.139,0,6.283,2.03,8.17,3.821c1.855,1.756,3.452,3.27,6.792,3.27S19.9,5.577,21.75,3.821C23.64,2.03,25.781,0,29.92,0s6.28,2.03,8.173,3.821c1.852,1.756,3.449,3.27,6.789,3.27s4.937-1.514,6.792-3.27C53.563,2.03,55.7,0,59.843,0s6.28,2.03,8.17,3.821c1.855,1.756,3.452,3.27,6.792,3.27s4.937-1.514,6.792-3.27C83.486,2.03,85.627,0,89.769,0V2.007c-3.344,0-4.941,1.514-6.8,3.27C81.084,7.069,78.943,9.1,74.8,9.1" transform="translate(0 0.003)" fill="#efb499"/>
          </g>
        </g>
      </g>
      <circle id="Ellipse_11504" data-name="Ellipse 11504" cx="50.5" cy="50.5" r="50.5" transform="translate(402.668 6031)" fill="#ffce73"/>
      <circle id="Ellipse_11503" data-name="Ellipse 11503" cx="52.5" cy="52.5" r="52.5" transform="translate(395.668 6021)" fill="#f3f9ff"/>
    </g>
    <g id="Group_1102769" data-name="Group 1102769" transform="translate(767.148 2616.804)">
      <rect id="Rectangle_401104" data-name="Rectangle 401104" width="68" height="69" transform="translate(-0.438 -0.804)" fill="none"/>
      <g id="Group_1103722" data-name="Group 1103722" transform="translate(-4684.464 -58.331)">
        <path id="Path_894832" data-name="Path 894832" d="M4734.065,67.559c1.78,0,3.446-.005,5.112,0,2.476.01,3.789,1.3,3.8,3.752.009,1.89,0,3.781,0,5.671-.005,2.637-1.209,3.865-3.848,3.935-.146,0-.294.02-.6.041v2.621c0,2.261-.043,4.523.028,6.782a3.311,3.311,0,0,0,.61,1.786,17.589,17.589,0,0,1,3.793,10.7c.044,7.636.017,15.272.017,22.907,0,.215-.022.431-.041.774h-40.265c-2.949,0-4-1-4.228-3.91a1.174,1.174,0,0,0-.629-.794,5.676,5.676,0,0,1-3.789-5.365,5.477,5.477,0,0,1,3.8-5.208c.631-.233.641-.56.647-1.058.044-3.074-.017-6.155.188-9.218a16.611,16.611,0,0,1,3.613-8.82,3.288,3.288,0,0,0,.616-1.783c.06-3.106.028-6.214.028-9.275-.142-.084-.2-.155-.261-.151-2.675.2-4.408-1.379-4.211-4.4.118-1.809.005-3.631.026-5.447a3.334,3.334,0,0,1,3.565-3.537c1.776-.018,3.552,0,5.069,0,.847-1.33,1.6-2.485,2.319-3.667a3.41,3.41,0,0,0,.33-1.043,6.568,6.568,0,0,1,6.305-5.283c3.075-.06,6.153-.04,9.229-.009a4.275,4.275,0,0,1,4.139,3.113c.091.263.213.608.425.723A7.881,7.881,0,0,1,4734.065,67.559Zm-4.518,56.736V95.237c-.248.475-.386.727-.514.986a64.008,64.008,0,0,1-9.9,15.078c-.68.746-1.283,1.355-.706,2.446a2.8,2.8,0,0,1,.074,1.207c0,3.091,0,6.182,0,9.342h11.042Zm-2.185-54.506c-1.02,0-1.907,0-2.794,0a20.546,20.546,0,0,1-8.422-1.712c-1.017-.458-1.443-.053-1.8.726a2.985,2.985,0,0,0-.277,1.177c-.024,2.593-.064,5.188.005,7.779A4.335,4.335,0,0,0,4718.266,82c1.627.073,3.262.067,4.889,0a4.232,4.232,0,0,0,4.171-3.88C4727.477,75.394,4727.362,72.654,4727.362,69.789Zm-15.553-.1a5.1,5.1,0,0,1,2.569-4.055,1.79,1.79,0,0,1,1.408-.092,21.755,21.755,0,0,0,9.916,2.02c1.283-.032,2.567-.005,3.959-.005V69.73l1.8.341a5.025,5.025,0,0,0-2.176-6.28c-1.358,1.767-2.152,2.287-3.812,2.454-.2-.633-.4-1.279-.6-1.947.381-.139.623-.224.862-.315a2.134,2.134,0,0,0-.73-4.2c-2.89-.012-5.78-.027-8.67.005a4.318,4.318,0,0,0-4.43,3.851,3.1,3.1,0,0,1-.984,1.992,3.931,3.931,0,0,0-.962,4.511ZM4723.14,90.52c-3.223.736-5.357.347-6.727-1.667a2.382,2.382,0,0,0-2.866-1.024,6.346,6.346,0,0,1-.753.181c-.81.046-.988.464-.983,1.236.033,5.819.017,11.638.022,17.457,0,.268.055.536.092.874C4715.252,104.734,4721.446,95.3,4723.14,90.52Zm8.8-1.225v34.938h2.136V92.055C4734.073,90.148,4733.93,89.961,4731.937,89.3Zm8.751,34.944V108.8h-4.3V124.24Zm-9.921-45.568c3.083,0,5.989.038,8.891-.048a1.492,1.492,0,0,0,1.031-1.029c.1-2.217.106-4.443,0-6.66a1.579,1.579,0,0,0-1.086-1.087c-1.877-.116-3.766-.052-5.745-.052-.144.761-.552,1.549-.364,2.153C4734.544,75.343,4733.971,76.971,4730.766,78.672Zm-20.259.008c-2.829-1.458-3.616-3.418-2.722-6.375a3.949,3.949,0,0,0-.391-2.3c-.081-.21-.859-.2-1.319-.206-1.331-.025-2.662,0-3.993-.009a1.2,1.2,0,0,0-1.377,1.345q0,3.105,0,6.21a1.163,1.163,0,0,0,1.274,1.331C4704.822,78.686,4707.665,78.681,4710.507,78.681Zm-5.3,2.237V89.2a19.536,19.536,0,0,1,9.764-3.879c.294-.033.833-1.34.663-1.534a32.856,32.856,0,0,0-3.045-2.835c-.066-.059-.215-.034-.325-.034C4709.941,80.917,4707.616,80.918,4705.211,80.918Zm20.523,3.064c-.083,1.01.5,1.463,1.678,1.564a16.442,16.442,0,0,1,7.985,3.067c.253.175.527.319.81.488V80.916c-2.349,0-4.607-.013-6.864.016a1.4,1.4,0,0,0-.842.367C4727.613,82.117,4726.764,82.975,4725.734,83.982Zm-17.065,29.259a1.5,1.5,0,0,0,.117.406,5.581,5.581,0,0,1-5.317,8.437c-.906-.046-1.817-.006-2.713-.006-.108,1.931.146,2.215,1.838,2.217q3.721,0,7.442,0c1.514,0,1.783-.28,1.785-1.83q.005-3.221,0-6.441C4711.821,113.091,4711.711,112.991,4708.669,113.241Zm-3.616-6.8V92.426c-3.853,4.055-4.728,8.8-4.267,14.016Zm35.633.008c.444-6.082-1.323-11.732-4.311-13.838V106.45ZM4709.6,89.272c-2.045.67-2.218.9-2.218,2.775v18.638c2.161-.659,2.218-.733,2.218-2.761V89.272Zm14.936,10.7c2.09-3.934,4.1-7.56,5.031-11.779a19.013,19.013,0,0,0-2.225-.391,1.032,1.032,0,0,0-.806.471q-2.054,4.287-4.012,8.621a1.1,1.1,0,0,0,.077.944C4723.138,98.531,4723.773,99.15,4724.533,99.972Zm-24.917,13.212a3.327,3.327,0,1,0,3.3,3.354A3.34,3.34,0,0,0,4699.616,113.184Zm18.361-8.911-6.21,6.774c1.481,0,2.808,0,4.135-.005a.76.76,0,0,0,.5-.124c1.307-1.432,2.6-2.881,3.854-4.286ZM4714,124.195c1.937.261,2.268-.016,2.269-1.9q0-3.612,0-7.224c0-1.764-.579-2.19-2.269-1.735Zm6.934-35.507a3.41,3.41,0,0,0,2.772-1.7c.506-.833-.06-2.711-.818-2.728-1.439-.031-2.88-.038-4.318.018a1.029,1.029,0,0,0-.71.59C4717.121,86.942,4718.5,88.726,4720.937,88.687ZM4704.1,119.777a3.281,3.281,0,0,0,3.259-3.349,3.188,3.188,0,0,0-3.229-3.147A5.668,5.668,0,0,1,4704.1,119.777Zm17.509-15.165,1.693-2.655L4721,99.5l-1.781,2.754Zm-20.909,6.252h4.387V108.79h-4.348c-.015.272-.035.486-.038.7C4700.7,109.926,4700.7,110.363,4700.7,110.864Zm11.062-38.779a2.164,2.164,0,0,0-2.154,2.228,2.122,2.122,0,0,0,2.154,2.059Zm17.945,0v4.33c1.4-.273,2.138-1.057,2.127-2.2A2.164,2.164,0,0,0,4729.711,72.083Z" transform="translate(0 0)" fill="#6a4d23"/>
        <path id="Path_894833" data-name="Path 894833" d="M4799.231,145.45v-2.233c1.342,0,2.667.068,3.979-.034.5-.039.956-.534,1.472-.7.709-.23,1.456-.347,2.244-.526-.11,2.1-1.321,3.384-3.135,3.476-1.107.056-2.22.016-3.331.018Z" transform="translate(-81.801 -65.647)" fill="#6a4d23"/>
        <path id="Path_894834" data-name="Path 894834" d="M4795.693,116.928c.281.433.831.907.771,1.286a1.567,1.567,0,0,1-1.095,1.008c-.291.042-.945-.626-.964-1-.021-.417.494-.861.776-1.293Z" transform="translate(-78.049 -46.186)" fill="#6a4d23"/>
        <path id="Path_894835" data-name="Path 894835" d="M4826.731,119.329c-.441.269-.934.8-1.312.734a1.568,1.568,0,0,1-.971-1.13c-.032-.291.659-.923,1.034-.93.418-.007.845.523,1.268.819Z" transform="translate(-101.408 -47.022)" fill="#6a4d23"/>
        <path id="Path_894836" data-name="Path 894836" d="M4716.713,319.291c-.426.292-.887.852-1.269.8a1.561,1.561,0,0,1-1.032-1.07c-.048-.292.6-.962.976-.989.418-.03.873.475,1.313.747Z" transform="translate(-15.849 -202.556)" fill="#6a4d23"/>
      </g>
    </g>
  </g>
</svg>
