<svg xmlns="http://www.w3.org/2000/svg" xmlns:xlink="http://www.w3.org/1999/xlink" width="121" height="121" viewBox="0 0 121 121">
  <defs>
    <clipPath id="clip-path">
      <rect id="Rectangle_400938" data-name="Rectangle 400938" width="121" height="121" transform="translate(0 0)" fill="none"/>
    </clipPath>
    <clipPath id="clip-path-2">
      <rect id="Rectangle_401073" data-name="Rectangle 401073" width="92.219" height="41.532" fill="#efb499"/>
    </clipPath>
  </defs>
  <g id="Group_1104223" data-name="Group 1104223" transform="translate(3348.504 9109)">
    <g id="Group_1102772" data-name="Group 1102772" transform="translate(-3736.172 -15122)">
      <rect id="Rectangle_401103" data-name="Rectangle 401103" width="121" height="121" transform="translate(387.668 6013)" fill="none"/>
      <g id="Group_1099348" data-name="Group 1099348" transform="translate(387.668 6013)">
        <g id="Group_1099282" data-name="Group 1099282">
          <g id="Group_1099281" data-name="Group 1099281" clip-path="url(#clip-path-2)">
            <path id="Path_873375" data-name="Path 873375" d="M74.8,9.1c-4.139,0-6.28-2.03-8.17-3.821-1.855-1.756-3.452-3.274-6.792-3.274s-4.937,1.517-6.792,3.274C51.161,7.072,49.023,9.1,44.881,9.1s-6.28-2.03-8.169-3.821C34.857,3.525,33.26,2.007,29.92,2.007s-4.937,1.517-6.789,3.274C21.241,7.072,19.1,9.1,14.962,9.1S8.679,7.072,6.789,5.281C4.937,3.525,3.34,2.007,0,2.007V0C4.139,0,6.28,2.033,8.17,3.821c1.855,1.759,3.452,3.274,6.792,3.274S19.9,5.58,21.75,3.824C23.637,2.033,25.781,0,29.92,0s6.283,2.033,8.17,3.821c1.855,1.759,3.452,3.274,6.792,3.274s4.937-1.514,6.792-3.274C53.56,2.033,55.7,0,59.843,0s6.283,2.033,8.17,3.821C69.867,5.58,71.464,7.094,74.8,7.094S79.742,5.58,81.6,3.821C83.483,2.033,85.624,0,89.766,0V2.007c-3.34,0-4.937,1.517-6.792,3.274C81.084,7.072,78.943,9.1,74.8,9.1" transform="translate(2.453 32.43)" fill="#efb499"/>
            <path id="Path_873376" data-name="Path 873376" d="M74.8,9.1c-4.139,0-6.283-2.03-8.17-3.824-1.855-1.756-3.452-3.27-6.792-3.27s-4.937,1.514-6.792,3.27C51.164,7.072,49.023,9.1,44.881,9.1s-6.283-2.03-8.17-3.824c-1.855-1.756-3.452-3.27-6.792-3.27s-4.937,1.517-6.789,3.27C21.241,7.072,19.1,9.1,14.962,9.1S8.679,7.072,6.789,5.278C4.937,3.522,3.34,2.007,0,2.007V0C4.139,0,6.283,2.03,8.17,3.821c1.855,1.759,3.452,3.274,6.792,3.274S19.9,5.58,21.75,3.821C23.637,2.03,25.781,0,29.92,0S36.2,2.03,38.093,3.821c1.852,1.759,3.449,3.274,6.789,3.274s4.937-1.514,6.792-3.274C53.56,2.03,55.7,0,59.843,0s6.283,2.03,8.17,3.821C69.867,5.58,71.464,7.094,74.8,7.094S79.742,5.58,81.6,3.821C83.486,2.03,85.627,0,89.769,0V2.007c-3.34,0-4.94,1.517-6.8,3.27C81.084,7.072,78.943,9.1,74.8,9.1" transform="translate(1.635 21.62)" fill="#efb499"/>
            <path id="Path_873377" data-name="Path 873377" d="M74.8,9.1c-4.139,0-6.283-2.03-8.169-3.824-1.855-1.756-3.452-3.27-6.792-3.27s-4.937,1.514-6.792,3.27C51.164,7.072,49.02,9.1,44.881,9.1s-6.283-2.03-8.17-3.824c-1.855-1.756-3.452-3.27-6.792-3.27s-4.937,1.517-6.789,3.27C21.241,7.072,19.1,9.1,14.962,9.1S8.678,7.072,6.789,5.278C4.937,3.522,3.34,2.007,0,2.007V0C4.139,0,6.283,2.03,8.169,3.821c1.851,1.759,3.452,3.274,6.792,3.274S19.9,5.58,21.75,3.821C23.637,2.03,25.781,0,29.92,0S36.2,2.03,38.093,3.821c1.852,1.759,3.449,3.274,6.789,3.274s4.937-1.514,6.792-3.274C53.56,2.03,55.7,0,59.843,0s6.283,2.03,8.17,3.821C69.867,5.58,71.464,7.094,74.8,7.094S79.742,5.58,81.6,3.821C83.486,2.03,85.624,0,89.769,0V2.007c-3.34,0-4.941,1.517-6.8,3.27C81.084,7.072,78.943,9.1,74.8,9.1" transform="translate(0.818 10.81)" fill="#efb499"/>
            <path id="Path_873378" data-name="Path 873378" d="M74.8,9.1c-4.139,0-6.28-2.03-8.17-3.821-1.855-1.756-3.452-3.27-6.792-3.27s-4.937,1.514-6.789,3.27C51.164,7.069,49.023,9.1,44.881,9.1s-6.28-2.03-8.169-3.821c-1.855-1.756-3.452-3.27-6.792-3.27s-4.937,1.514-6.789,3.267C21.245,7.069,19.1,9.1,14.962,9.1S8.678,7.069,6.789,5.278C4.937,3.522,3.34,2.007,0,2.007V0C4.139,0,6.283,2.03,8.17,3.821c1.855,1.756,3.452,3.27,6.792,3.27S19.9,5.577,21.75,3.821C23.64,2.03,25.781,0,29.92,0s6.28,2.03,8.173,3.821c1.852,1.756,3.449,3.27,6.789,3.27s4.937-1.514,6.792-3.27C53.563,2.03,55.7,0,59.843,0s6.28,2.03,8.17,3.821c1.855,1.756,3.452,3.27,6.792,3.27s4.937-1.514,6.792-3.27C83.486,2.03,85.627,0,89.769,0V2.007c-3.344,0-4.941,1.514-6.8,3.27C81.084,7.069,78.943,9.1,74.8,9.1" transform="translate(0 0.003)" fill="#efb499"/>
          </g>
        </g>
      </g>
      <circle id="Ellipse_11504" data-name="Ellipse 11504" cx="50.5" cy="50.5" r="50.5" transform="translate(402.668 6031)" fill="#ffce73"/>
      <circle id="Ellipse_11503" data-name="Ellipse 11503" cx="52.5" cy="52.5" r="52.5" transform="translate(395.668 6021)" fill="#f3f9ff"/>
    </g>
    <g id="Group_1102773" data-name="Group 1102773" transform="translate(-3322.563 -9083.196)">
      <rect id="Rectangle_401104" data-name="Rectangle 401104" width="68" height="69" transform="translate(-0.438 -0.804)" fill="none"/>
      <g id="Group_1103725" data-name="Group 1103725" transform="translate(-5917.424 -32.934)">
        <path id="Path_894841" data-name="Path 894841" d="M5924.931,79.276c-3.654-2.923-5.226-6.637-4.082-11.125s4.326-6.972,8.937-7.792c0-3.121.02-6.231-.037-9.34,0-.258-.49-.622-.822-.741q-4.542-1.628-9.113-3.172a2.182,2.182,0,0,1-1.7-2.047c-.058-.993.54-1.712,1.733-2.126q7.863-2.732,15.729-5.455c.731-.255,1.455-.433,1.752.493.277.861-.389,1.161-1.074,1.4q-7.519,2.59-15.032,5.2c-.329.114-.65.25-1.229.474l9.732,3.379c.133-2.325,1.758-2.779,3.591-2.968.14-.014.276-.065.416-.087a97.606,97.606,0,0,1,21.811-1.023c3.664.249,7.307.831,10.953,1.317,1.458.194,1.968.815,2.505,2.728l9.382-3.245.022-.223q-2.222-.771-4.444-1.542c-7.75-2.68-15.492-5.386-23.263-8a5.006,5.006,0,0,0-2.764.005c-2.007.553-3.957,1.315-5.93,1.993-.233.08-.466.163-.7.236-.644.2-1.24.015-1.312-.642a1.448,1.448,0,0,1,.679-1.19,74.205,74.205,0,0,1,7.217-2.476,6.236,6.236,0,0,1,3.406.151c9.176,3.1,18.32,6.287,27.471,9.457a2.236,2.236,0,0,1,1.786,2.53c.007,1.948.021,3.9-.009,5.844a1.041,1.041,0,0,0,.69,1.123,4.034,4.034,0,0,1,1.79,5.681,1.893,1.893,0,0,0-.084,1.344c.539,1.5,1.193,2.948,1.777,4.428a2.856,2.856,0,0,1-2.781,4.153c-1.593.029-3.19.065-4.78-.02a13.784,13.784,0,0,1-2.391-.561,10.514,10.514,0,0,0,.135,7.029.8.8,0,0,0,.437.393c2.458.946,2.911,1.6,2.756,4.1l.893.146a3.092,3.092,0,0,1,2.642,2.659,2.922,2.922,0,0,1-2.077,3.291,1.773,1.773,0,0,0-1.387,1.587,10.535,10.535,0,0,0,.245,6.165,1.353,1.353,0,0,0,.708.753c1.854.634,2.779,1.94,2.5,3.647a3.2,3.2,0,0,1-3.421,2.561q-14.134.009-28.267,0-11.1,0-22.21,0a10.358,10.358,0,0,1-3.975-20.055Zm33.794,6.025h-5.44q-13.017,0-26.035.011a4.074,4.074,0,0,0-1.388,7.9,6.658,6.658,0,0,0,2.182.31q18.809.027,37.619.014a2.645,2.645,0,0,1,1.149.064c.344.185.771.619.767.941s-.439.723-.78.944c-.227.148-.62.05-.937.051h-18.81c-6.588,0-13.177.034-19.766-.014a6.1,6.1,0,0,1-5.427-8.853c1.256-2.473,3.417-3.434,6.118-3.432q24.761.016,49.521,0c.39,0,.854.118,1.15-.051.4-.227.93-.687.92-1.036-.009-.365-.538-.8-.937-1.043-.259-.16-.69-.043-1.045-.043h-43.251c-2.444,0-4.889-.033-7.332.013a8.328,8.328,0,0,0,.348,16.649c3.826.039,7.651.01,11.477.01h38.894c1.38,0,1.99-.333,1.9-1.118-.132-1.217-1.091-1.085-1.944-1.085-1.948,0-3.9-.007-5.844,0-.722,0-1.449-.066-1.48-.964-.033-.989.738-1.048,1.494-1.044,1.479.008,2.958,0,4.578,0a15.236,15.236,0,0,1-.05-8.164h-9.521c0,1.653.007,3.241,0,4.828-.01,1.6-.528,2.016-1.938,1.336a4.419,4.419,0,0,0-4.209-.023c-1.433.714-1.976.27-1.984-1.381C5958.719,88.573,5958.725,87.017,5958.725,85.3Zm16.228-22.944h-18.831c-8.466,0-16.932-.023-25.4.011a8.343,8.343,0,1,0,.465,16.679q21.572.023,43.144,0c.317,0,.707.066.934-.088.337-.23.787-.643.77-.955a1.7,1.7,0,0,0-.76-1.091c-.277-.184-.754-.082-1.143-.082q-14.771,0-29.542,0c-.318,0-.707.106-.94-.036-.371-.226-.88-.619-.882-.944s.5-.741.869-.953c.27-.154.691-.047,1.046-.047h28.008a38.18,38.18,0,0,1-.421-4.094,38.857,38.857,0,0,1,.41-4.092h-30.094c0,1.623.005,3.175,0,4.727-.006,1.674-.512,2.1-1.974,1.381a4.426,4.426,0,0,0-4.2.019c-1.4.676-1.931.242-1.938-1.34s0-3.165,0-4.774a28.461,28.461,0,0,0-4.551.046,4,4,0,0,0-3.157,4.605,4.127,4.127,0,0,0,4.167,3.509c2.549.044,5.1.018,7.651.01.737,0,1.424.1,1.406,1.024-.017.839-.648.969-1.358.965-2.656-.015-5.314.027-7.97-.017a6.087,6.087,0,0,1-5.444-8.483c1.179-2.688,3.367-3.776,6.207-3.775q12.486.005,24.972,0c5.562,0,11.123.008,16.684-.018a1.588,1.588,0,0,0,1.141-.427A7.812,7.812,0,0,0,5974.953,62.357Zm-43.131-7.44h1.416q11.106,0,22.212,0c.754,0,1.526.041,1.536,1.017s-.781,1.029-1.525,1.027c-.283,0-.566,0-.85,0h-22.733v3.428h33.614a1.873,1.873,0,0,0,.734-.025c.23-.108.542-.356.556-.56.06-.9.025-1.816.025-2.843h-1.283c-1.559,0-3.118.01-4.677-.013-.635-.009-1.228-.332-1.084-.993.087-.4.65-.82,1.093-1a4.25,4.25,0,0,1,1.474-.04h4.48c0-2.26-.019-4.348.01-6.435.01-.759-.506-.873-1.03-.941-2.947-.386-5.888-.856-8.848-1.092a91.394,91.394,0,0,0-17.4.209c-2.216.246-4.424.559-6.629.884-.477.07-1.106.061-1.1.864C5931.834,50.527,5931.822,52.648,5931.822,54.917Zm46.7-7.7c-3.167,1.094-6.138,2.1-9.087,3.173a1.208,1.208,0,0,0-.562.921c-.056,1.661-.026,3.325-.026,4.988v3.968a2.585,2.585,0,0,0,.443.109c1.875.007,3.75.016,5.625.01a1.471,1.471,0,0,0,1.213-2.206,4.047,4.047,0,0,1,1.769-5.835c.263-.143.587-.473.6-.728C5978.558,50.21,5978.526,48.8,5978.526,47.216ZM5978.1,60c-.634,1.564-1.294,3.156-1.924,4.76-.262.667-.02,1.176.711,1.2,1.766.05,3.532.034,5.3.007.606-.009.967-.428.759-.994-.629-1.709-1.339-3.388-1.974-4.97Zm-17.27,25.352v4.188c1.348-1.187,2.626-.82,3.93-.193V85.351ZM5940.5,70.585V66.673h-3.915v3.994A3.566,3.566,0,0,1,5940.5,70.585Zm41.073-14.553a2.058,2.058,0,0,0-2.049-2,1.979,1.979,0,0,0-1.984,2.026,2.022,2.022,0,0,0,2.009,2.019A2.125,2.125,0,0,0,5981.575,56.031Z" fill="#6a4d23"/>
      </g>
    </g>
  </g>
</svg>
