<svg xmlns="http://www.w3.org/2000/svg" xmlns:xlink="http://www.w3.org/1999/xlink" width="121" height="121" viewBox="0 0 121 121">
  <defs>
    <clipPath id="clip-path">
      <rect id="Rectangle_400938" data-name="Rectangle 400938" width="121" height="121" transform="translate(0 0)" fill="none"/>
    </clipPath>
    <clipPath id="clip-path-2">
      <rect id="Rectangle_401073" data-name="Rectangle 401073" width="92.219" height="41.532" fill="#efb499"/>
    </clipPath>
  </defs>
  <g id="Group_1104220" data-name="Group 1104220" transform="translate(-1092.207 -2591)">
    <g id="Group_1102765" data-name="Group 1102765" transform="translate(704.539 -3422)">
      <rect id="Rectangle_401103" data-name="Rectangle 401103" width="121" height="121" transform="translate(387.668 6013)" fill="none"/>
      <g id="Group_1099348" data-name="Group 1099348" transform="translate(387.668 6013)">
        <g id="Group_1099282" data-name="Group 1099282">
          <g id="Group_1099281" data-name="Group 1099281" clip-path="url(#clip-path-2)">
            <path id="Path_873375" data-name="Path 873375" d="M74.8,9.1c-4.139,0-6.28-2.03-8.17-3.821-1.855-1.756-3.452-3.274-6.792-3.274s-4.937,1.517-6.792,3.274C51.161,7.072,49.023,9.1,44.881,9.1s-6.28-2.03-8.169-3.821C34.857,3.525,33.26,2.007,29.92,2.007s-4.937,1.517-6.789,3.274C21.241,7.072,19.1,9.1,14.962,9.1S8.679,7.072,6.789,5.281C4.937,3.525,3.34,2.007,0,2.007V0C4.139,0,6.28,2.033,8.17,3.821c1.855,1.759,3.452,3.274,6.792,3.274S19.9,5.58,21.75,3.824C23.637,2.033,25.781,0,29.92,0s6.283,2.033,8.17,3.821c1.855,1.759,3.452,3.274,6.792,3.274s4.937-1.514,6.792-3.274C53.56,2.033,55.7,0,59.843,0s6.283,2.033,8.17,3.821C69.867,5.58,71.464,7.094,74.8,7.094S79.742,5.58,81.6,3.821C83.483,2.033,85.624,0,89.766,0V2.007c-3.34,0-4.937,1.517-6.792,3.274C81.084,7.072,78.943,9.1,74.8,9.1" transform="translate(2.453 32.43)" fill="#efb499"/>
            <path id="Path_873376" data-name="Path 873376" d="M74.8,9.1c-4.139,0-6.283-2.03-8.17-3.824-1.855-1.756-3.452-3.27-6.792-3.27s-4.937,1.514-6.792,3.27C51.164,7.072,49.023,9.1,44.881,9.1s-6.283-2.03-8.17-3.824c-1.855-1.756-3.452-3.27-6.792-3.27s-4.937,1.517-6.789,3.27C21.241,7.072,19.1,9.1,14.962,9.1S8.679,7.072,6.789,5.278C4.937,3.522,3.34,2.007,0,2.007V0C4.139,0,6.283,2.03,8.17,3.821c1.855,1.759,3.452,3.274,6.792,3.274S19.9,5.58,21.75,3.821C23.637,2.03,25.781,0,29.92,0S36.2,2.03,38.093,3.821c1.852,1.759,3.449,3.274,6.789,3.274s4.937-1.514,6.792-3.274C53.56,2.03,55.7,0,59.843,0s6.283,2.03,8.17,3.821C69.867,5.58,71.464,7.094,74.8,7.094S79.742,5.58,81.6,3.821C83.486,2.03,85.627,0,89.769,0V2.007c-3.34,0-4.94,1.517-6.8,3.27C81.084,7.072,78.943,9.1,74.8,9.1" transform="translate(1.635 21.62)" fill="#efb499"/>
            <path id="Path_873377" data-name="Path 873377" d="M74.8,9.1c-4.139,0-6.283-2.03-8.169-3.824-1.855-1.756-3.452-3.27-6.792-3.27s-4.937,1.514-6.792,3.27C51.164,7.072,49.02,9.1,44.881,9.1s-6.283-2.03-8.17-3.824c-1.855-1.756-3.452-3.27-6.792-3.27s-4.937,1.517-6.789,3.27C21.241,7.072,19.1,9.1,14.962,9.1S8.678,7.072,6.789,5.278C4.937,3.522,3.34,2.007,0,2.007V0C4.139,0,6.283,2.03,8.169,3.821c1.851,1.759,3.452,3.274,6.792,3.274S19.9,5.58,21.75,3.821C23.637,2.03,25.781,0,29.92,0S36.2,2.03,38.093,3.821c1.852,1.759,3.449,3.274,6.789,3.274s4.937-1.514,6.792-3.274C53.56,2.03,55.7,0,59.843,0s6.283,2.03,8.17,3.821C69.867,5.58,71.464,7.094,74.8,7.094S79.742,5.58,81.6,3.821C83.486,2.03,85.624,0,89.769,0V2.007c-3.34,0-4.941,1.517-6.8,3.27C81.084,7.072,78.943,9.1,74.8,9.1" transform="translate(0.818 10.81)" fill="#efb499"/>
            <path id="Path_873378" data-name="Path 873378" d="M74.8,9.1c-4.139,0-6.28-2.03-8.17-3.821-1.855-1.756-3.452-3.27-6.792-3.27s-4.937,1.514-6.789,3.27C51.164,7.069,49.023,9.1,44.881,9.1s-6.28-2.03-8.169-3.821c-1.855-1.756-3.452-3.27-6.792-3.27s-4.937,1.514-6.789,3.267C21.245,7.069,19.1,9.1,14.962,9.1S8.678,7.069,6.789,5.278C4.937,3.522,3.34,2.007,0,2.007V0C4.139,0,6.283,2.03,8.17,3.821c1.855,1.756,3.452,3.27,6.792,3.27S19.9,5.577,21.75,3.821C23.64,2.03,25.781,0,29.92,0s6.28,2.03,8.173,3.821c1.852,1.756,3.449,3.27,6.789,3.27s4.937-1.514,6.792-3.27C53.563,2.03,55.7,0,59.843,0s6.28,2.03,8.17,3.821c1.855,1.756,3.452,3.27,6.792,3.27s4.937-1.514,6.792-3.27C83.486,2.03,85.627,0,89.769,0V2.007c-3.344,0-4.941,1.514-6.8,3.27C81.084,7.069,78.943,9.1,74.8,9.1" transform="translate(0 0.003)" fill="#efb499"/>
          </g>
        </g>
      </g>
      <circle id="Ellipse_11504" data-name="Ellipse 11504" cx="50.5" cy="50.5" r="50.5" transform="translate(402.668 6031)" fill="#ffce73"/>
      <circle id="Ellipse_11503" data-name="Ellipse 11503" cx="52.5" cy="52.5" r="52.5" transform="translate(395.668 6021)" fill="#f3f9ff"/>
    </g>
    <g id="Group_1102768" data-name="Group 1102768" transform="translate(1118.148 2616.804)">
      <rect id="Rectangle_401104" data-name="Rectangle 401104" width="68" height="69" transform="translate(-0.438 -0.804)" fill="none"/>
      <g id="Group_1103723" data-name="Group 1103723" transform="translate(-5071.967 -61.744)">
        <path id="Path_894837" data-name="Path 894837" d="M5126.289,87.327a1.062,1.062,0,0,1-.723-1.15c.013-2.243.009-4.524.005-6.729,0-2.243-.008-4.562.007-6.843a3.942,3.942,0,0,0-1.667-3.4,12.3,12.3,0,0,0-2.468-1.424,27.185,27.185,0,0,0-10.487-1.84,28.641,28.641,0,0,0-11.125,1.789c-3.422,1.37-4.257,2.612-4.258,6.323v4.89l-.087-.01a3.36,3.36,0,0,1-.407-.059,30.617,30.617,0,0,0-14.356.105,10.877,10.877,0,0,0-5.837,3.074,4.517,4.517,0,0,0-1.061,4.832,2.714,2.714,0,0,1,.087.9c0,.115,0,.23,0,.343.038,1.288.069,2.577.1,3.865l.024,1.008c0,.114.007.229.012.344.01.282.021.574.01.855-.021.49-.063.992-.105,1.478a16.674,16.674,0,0,0-.071,3.115,16.331,16.331,0,0,1-.073,3.066,10.874,10.874,0,0,0,.324,4.867.289.289,0,0,0-.012.072c-.034.8-.076,1.6-.119,2.4-.094,1.765-.191,3.589-.185,5.387a10.219,10.219,0,0,0,7.515,10.07,20.8,20.8,0,0,0,5.959.815,37.124,37.124,0,0,0,5.713-.509,10.221,10.221,0,0,0,6.586-3.578,16.106,16.106,0,0,0,1.546-2.437c.167-.3.339-.612.52-.922a3.112,3.112,0,0,0,.257.322,21.161,21.161,0,0,0,15.134,7.038,20.023,20.023,0,0,0,9.239-38.056Zm-3.846-14.018a18.337,18.337,0,0,1-4.885,2.046,40.927,40.927,0,0,1-4.933.722c-.7.074-1.421.149-2.129.24a33.117,33.117,0,0,1-9.07-1.55,11.455,11.455,0,0,1-2.378-1.166c-.738-.483-1.12-.989-1.1-1.463.015-.449.393-.894,1.092-1.287a16.528,16.528,0,0,1,4.352-1.752,32.653,32.653,0,0,1,7.342-.859,29.02,29.02,0,0,1,8.8,1.35,10.99,10.99,0,0,1,2.9,1.469,1.52,1.52,0,0,1,.8,1.225A1.314,1.314,0,0,1,5122.443,73.309Zm-24.414,2.546c9.538,3.54,15.7,3.54,25.089,0a2.388,2.388,0,0,1-1.377,3.1,16.863,16.863,0,0,1-6.459,1.959,30.806,30.806,0,0,1-13.53-.931,11.841,11.841,0,0,1-2.24-.987C5098.019,78.159,5097.721,77.573,5098.029,75.855Zm25.112,5.155a2.3,2.3,0,0,1-1.276,2.979,8.533,8.533,0,0,1-4.356,1.361h-.031a18.841,18.841,0,0,0-4.684.589c-3.367.839-6.664.16-9.851-.5a.748.748,0,0,1-.437-.357c-.308-.738-.589-1.5-.86-2.228-.05-.137-.1-.273-.151-.409C5109.738,84.382,5116.826,83.91,5123.141,81.01Zm-21.125,7.083a.955.955,0,0,1,.634-.218,1.41,1.41,0,0,1,.313.037c.74.169,1.414.3,2.061.4.478.076.949.127,1.405.177l.095.01-4.688,4.459q-.012-.3-.024-.629c-.037-.979-.078-2.089-.154-3.2A1.217,1.217,0,0,1,5102.017,88.093Zm-.027,20.932,0-.2c.018-.775.047-1.565.076-2.328.048-1.308.1-2.661.094-3.994a9.626,9.626,0,0,0-.172-1.551,9.688,9.688,0,0,1-.166-1.444,5.239,5.239,0,0,1,.347-2.466c3.145-5.71,8.263-9.111,14.042-9.33,10.208.029,18,6.566,18.938,15.9a17.832,17.832,0,0,1-14.139,19.14,18.726,18.726,0,0,1-18.6-7.632,2.653,2.653,0,0,1-.458-1.32C5101.915,112.206,5101.954,110.589,5101.99,109.025Zm-3.448-20.585a13.836,13.836,0,0,1-5.686,1.944c-1.024.155-2.083.241-3.308.34-.613.049-1.274.1-2.009.171-.5-.084-1.052-.16-1.636-.241a35.213,35.213,0,0,1-5.021-.956,10.831,10.831,0,0,1-3.95-2.414,2.646,2.646,0,0,1-1.073-2.02,3,3,0,0,1,1.355-2.148,12.542,12.542,0,0,1,5.686-2.184,32.15,32.15,0,0,1,5.531-.51,22.171,22.171,0,0,1,7.924,1.378,8.3,8.3,0,0,1,2.671,1.6,3.168,3.168,0,0,1,1.158,2.569A3.384,3.384,0,0,1,5098.542,88.441Zm-2.891,26.745a14.582,14.582,0,0,1-6.193,1.661,17.515,17.515,0,0,1-7.831-.7c-3.075-1.162-4.859-3.058-5.454-5.795a2.586,2.586,0,0,1-.044-.387c3.027,2.614,6.7,3.815,11.811,3.882,4.833.063,8.513-1.219,11.521-4.025A7.66,7.66,0,0,1,5095.651,115.186Zm-19.5-18.075c6.86,4.773,16.691,4.879,23.191.258a6.154,6.154,0,0,1-1.353,4.05c-1.407,1.77-3.372,2.8-6.37,3.326a21.29,21.29,0,0,1-11.67-1.1A6.339,6.339,0,0,1,5076.156,97.11Zm21-1.04a13.725,13.725,0,0,1-7.365,2.249,22.192,22.192,0,0,1-9.536-1.346,6.551,6.551,0,0,1-4.123-6.893c7.011,3.9,14.441,4.158,23.337.809A5.243,5.243,0,0,1,5097.157,96.07Zm-.611,13.09c-2.388,1.69-5.314,2.427-9.209,2.318a18.019,18.019,0,0,1-7.191-1.617,6.373,6.373,0,0,1-4.012-5.913c3.5,3.023,7.81,3.459,11.953,3.471h.084c5.153,0,8.752-1.349,11.575-4.355A7.263,7.263,0,0,1,5096.545,109.16Zm1.121,10.8a10.6,10.6,0,0,1-3.87,2.341,21.917,21.917,0,0,1-11.231.223c-3.633-.872-5.748-3.252-6.292-7.078a18.328,18.328,0,0,0,23.168-.273A5.809,5.809,0,0,1,5097.667,119.96Z" transform="translate(0 0)" fill="#6a4d23"/>
        <path id="Path_894838" data-name="Path 894838" d="M5225.184,205.7a1.45,1.45,0,0,0-.872-.715,1.171,1.171,0,0,0-.9.191c-.6.38-.694,1.019-.247,1.753.223.367.4.64.588.884a15.3,15.3,0,0,0,9.947,6.037,14.568,14.568,0,0,0,2.495.217,14.173,14.173,0,0,0,8.685-2.98,14.857,14.857,0,0,0,5.7-10.454,13.981,13.981,0,0,0-3.683-10.784,15.6,15.6,0,0,0-11.685-4.981h0a13.909,13.909,0,0,0-10.875,6,9.168,9.168,0,0,0-1.265,2.21,1.505,1.505,0,0,0,.526,1.417c.4.284,1.282-.22,1.381-.278a1.231,1.231,0,0,0,.432-.61c.041-.092.08-.18.122-.255a11.9,11.9,0,0,1,12.31-5.982,12.233,12.233,0,0,1,6.388,21.121c-3.667,3.352-8,4.115-12.893,2.267A12.131,12.131,0,0,1,5225.184,205.7Z" transform="translate(-118.159 -94.089)" fill="#6a4d23"/>
        <path id="Path_894839" data-name="Path 894839" d="M5269.913,221.333a3.13,3.13,0,0,1-3.926-.652c-.374-.362-1.153-1.116-1.984-.276a1.133,1.133,0,0,0-.377.9,1.626,1.626,0,0,0,.744,1.091c.658.477,1.359.9,2.1,1.354.3.184.615.374.938.575,0,.007,0,.014,0,.02v.163c-.007.662-.018,1.664,1.153,1.689h.044c1.045,0,1.112-.835,1.16-1.447.009-.11.018-.22.03-.327a1.1,1.1,0,0,1,.563-.659,4.252,4.252,0,0,0,2.775-3.29,4.119,4.119,0,0,0-2-3.662,14.208,14.208,0,0,0-2.031-1.133c-.485-.237-.986-.481-1.451-.759a3.345,3.345,0,0,1-1.236-1.164,2.624,2.624,0,0,1,.68-3.133,2.575,2.575,0,0,1,3.287.268c.525.438,1.244,1.037,1.984.194a1.17,1.17,0,0,0,.341-.947,1.662,1.662,0,0,0-.865-1.087,20.276,20.276,0,0,0-1.85-1.012c-.249-.125-.5-.252-.757-.386l0-.036c-.012-.154-.026-.345-.025-.536a1.457,1.457,0,0,0-.437-1.155.962.962,0,0,0-.822-.185,1.7,1.7,0,0,0-1.079,1.321,1.633,1.633,0,0,1-.9,1.537,4.967,4.967,0,0,0-1.627,1.836,4.772,4.772,0,0,0-.364,3.757,5.188,5.188,0,0,0,2.762,2.954,18.9,18.9,0,0,1,3.446,2.009,1.3,1.3,0,0,1,.615,1.036A1.588,1.588,0,0,1,5269.913,221.333Z" transform="translate(-150.391 -110.588)" fill="#6a4d23"/>
      </g>
    </g>
  </g>
</svg>
