<svg xmlns="http://www.w3.org/2000/svg" xmlns:xlink="http://www.w3.org/1999/xlink" width="121" height="121" viewBox="0 0 121 121">
  <defs>
    <clipPath id="clip-path">
      <rect id="Rectangle_400938" data-name="Rectangle 400938" width="121" height="121" transform="translate(0 0)" fill="none"/>
    </clipPath>
    <clipPath id="clip-path-2">
      <rect id="Rectangle_401073" data-name="Rectangle 401073" width="92.219" height="41.532" fill="#efb499"/>
    </clipPath>
  </defs>
  <g id="Group_1104222" data-name="Group 1104222" transform="translate(3699.504 9109)">
    <g id="Group_1104221" data-name="Group 1104221">
      <g id="Group_1102774" data-name="Group 1102774" transform="translate(-4087.172 -15122)">
        <rect id="Rectangle_401103" data-name="Rectangle 401103" width="121" height="121" transform="translate(387.668 6013)" fill="none"/>
        <g id="Group_1099348" data-name="Group 1099348" transform="translate(387.668 6013)">
          <g id="Group_1099282" data-name="Group 1099282">
            <g id="Group_1099281" data-name="Group 1099281" clip-path="url(#clip-path-2)">
              <path id="Path_873375" data-name="Path 873375" d="M74.8,9.1c-4.139,0-6.28-2.03-8.17-3.821-1.855-1.756-3.452-3.274-6.792-3.274s-4.937,1.517-6.792,3.274C51.161,7.072,49.023,9.1,44.881,9.1s-6.28-2.03-8.169-3.821C34.857,3.525,33.26,2.007,29.92,2.007s-4.937,1.517-6.789,3.274C21.241,7.072,19.1,9.1,14.962,9.1S8.679,7.072,6.789,5.281C4.937,3.525,3.34,2.007,0,2.007V0C4.139,0,6.28,2.033,8.17,3.821c1.855,1.759,3.452,3.274,6.792,3.274S19.9,5.58,21.75,3.824C23.637,2.033,25.781,0,29.92,0s6.283,2.033,8.17,3.821c1.855,1.759,3.452,3.274,6.792,3.274s4.937-1.514,6.792-3.274C53.56,2.033,55.7,0,59.843,0s6.283,2.033,8.17,3.821C69.867,5.58,71.464,7.094,74.8,7.094S79.742,5.58,81.6,3.821C83.483,2.033,85.624,0,89.766,0V2.007c-3.34,0-4.937,1.517-6.792,3.274C81.084,7.072,78.943,9.1,74.8,9.1" transform="translate(2.453 32.43)" fill="#efb499"/>
              <path id="Path_873376" data-name="Path 873376" d="M74.8,9.1c-4.139,0-6.283-2.03-8.17-3.824-1.855-1.756-3.452-3.27-6.792-3.27s-4.937,1.514-6.792,3.27C51.164,7.072,49.023,9.1,44.881,9.1s-6.283-2.03-8.17-3.824c-1.855-1.756-3.452-3.27-6.792-3.27s-4.937,1.517-6.789,3.27C21.241,7.072,19.1,9.1,14.962,9.1S8.679,7.072,6.789,5.278C4.937,3.522,3.34,2.007,0,2.007V0C4.139,0,6.283,2.03,8.17,3.821c1.855,1.759,3.452,3.274,6.792,3.274S19.9,5.58,21.75,3.821C23.637,2.03,25.781,0,29.92,0S36.2,2.03,38.093,3.821c1.852,1.759,3.449,3.274,6.789,3.274s4.937-1.514,6.792-3.274C53.56,2.03,55.7,0,59.843,0s6.283,2.03,8.17,3.821C69.867,5.58,71.464,7.094,74.8,7.094S79.742,5.58,81.6,3.821C83.486,2.03,85.627,0,89.769,0V2.007c-3.34,0-4.94,1.517-6.8,3.27C81.084,7.072,78.943,9.1,74.8,9.1" transform="translate(1.635 21.62)" fill="#efb499"/>
              <path id="Path_873377" data-name="Path 873377" d="M74.8,9.1c-4.139,0-6.283-2.03-8.169-3.824-1.855-1.756-3.452-3.27-6.792-3.27s-4.937,1.514-6.792,3.27C51.164,7.072,49.02,9.1,44.881,9.1s-6.283-2.03-8.17-3.824c-1.855-1.756-3.452-3.27-6.792-3.27s-4.937,1.517-6.789,3.27C21.241,7.072,19.1,9.1,14.962,9.1S8.678,7.072,6.789,5.278C4.937,3.522,3.34,2.007,0,2.007V0C4.139,0,6.283,2.03,8.169,3.821c1.851,1.759,3.452,3.274,6.792,3.274S19.9,5.58,21.75,3.821C23.637,2.03,25.781,0,29.92,0S36.2,2.03,38.093,3.821c1.852,1.759,3.449,3.274,6.789,3.274s4.937-1.514,6.792-3.274C53.56,2.03,55.7,0,59.843,0s6.283,2.03,8.17,3.821C69.867,5.58,71.464,7.094,74.8,7.094S79.742,5.58,81.6,3.821C83.486,2.03,85.624,0,89.769,0V2.007c-3.34,0-4.941,1.517-6.8,3.27C81.084,7.072,78.943,9.1,74.8,9.1" transform="translate(0.818 10.81)" fill="#efb499"/>
              <path id="Path_873378" data-name="Path 873378" d="M74.8,9.1c-4.139,0-6.28-2.03-8.17-3.821-1.855-1.756-3.452-3.27-6.792-3.27s-4.937,1.514-6.789,3.27C51.164,7.069,49.023,9.1,44.881,9.1s-6.28-2.03-8.169-3.821c-1.855-1.756-3.452-3.27-6.792-3.27s-4.937,1.514-6.789,3.267C21.245,7.069,19.1,9.1,14.962,9.1S8.678,7.069,6.789,5.278C4.937,3.522,3.34,2.007,0,2.007V0C4.139,0,6.283,2.03,8.17,3.821c1.855,1.756,3.452,3.27,6.792,3.27S19.9,5.577,21.75,3.821C23.64,2.03,25.781,0,29.92,0s6.28,2.03,8.173,3.821c1.852,1.756,3.449,3.27,6.789,3.27s4.937-1.514,6.792-3.27C53.563,2.03,55.7,0,59.843,0s6.28,2.03,8.17,3.821c1.855,1.756,3.452,3.27,6.792,3.27s4.937-1.514,6.792-3.27C83.486,2.03,85.627,0,89.769,0V2.007c-3.344,0-4.941,1.514-6.8,3.27C81.084,7.069,78.943,9.1,74.8,9.1" transform="translate(0 0.003)" fill="#efb499"/>
            </g>
          </g>
        </g>
        <circle id="Ellipse_11504" data-name="Ellipse 11504" cx="50.5" cy="50.5" r="50.5" transform="translate(402.668 6031)" fill="#ffce73"/>
        <circle id="Ellipse_11503" data-name="Ellipse 11503" cx="52.5" cy="52.5" r="52.5" transform="translate(395.668 6021)" fill="#f3f9ff"/>
      </g>
      <g id="Group_1102775" data-name="Group 1102775" transform="translate(-3673.563 -9083.196)">
        <rect id="Rectangle_401104" data-name="Rectangle 401104" width="68" height="69" transform="translate(-0.438 -1.804)" fill="none"/>
        <g id="Group_1103724" data-name="Group 1103724" transform="translate(-5493.664 -45.088)">
          <path id="Path_894840" data-name="Path 894840" d="M5541.537,87.225c-.593,3.114-1.215,6-1.667,8.909a37.923,37.923,0,0,0-.254,4.776.923.923,0,0,0,.45.638,2.1,2.1,0,0,1,1.112,1.979c0,1.532.023,3.065-.006,4.6a1.97,1.97,0,0,1-2.218,2.125q-7.244.014-14.488,0a1.967,1.967,0,0,1-2.205-2.138c-.03-1.531-.034-3.065.011-4.6a2.626,2.626,0,0,1,.376-1.312,2.958,2.958,0,0,0-.822-4.494,5.767,5.767,0,0,1-2.566-4.921c-.013-.464,0-.928,0-1.494a20.19,20.19,0,0,1-2.3-.125c-2.063-.345-4.1-.831-6.175-1.119-1.7-.238-3.437-.29-5.159-.378a.894.894,0,0,0-.658.412A2.106,2.106,0,0,1,5503,91.233c-1.565,0-3.131.027-4.7-.007a1.943,1.943,0,0,1-2.071-2.167q-.018-7.294,0-14.587a1.948,1.948,0,0,1,2.088-2.152q2.347-.057,4.7.007a2.5,2.5,0,0,1,1.222.35c1.829,1.161,3.335.93,4.559-.835a5.774,5.774,0,0,1,4.942-2.525c.459-.01.918,0,1.524,0-.324-4.588,1.965-8.76,1.581-13.286a1.476,1.476,0,0,0-.617-1.2,2.764,2.764,0,0,1-.94-1.724,45.2,45.2,0,0,1-.034-4.792,1.93,1.93,0,0,1,2.113-2.023q7.344-.02,14.688,0a1.928,1.928,0,0,1,2.1,2.035c.042,1.6.029,3.2-.005,4.8a2.378,2.378,0,0,1-.317,1.132c-1.209,2-.988,3.319.923,4.69a5.744,5.744,0,0,1,2.4,4.8c.015.464,0,.928,0,1.5a20.091,20.091,0,0,1,2.3.125c2.063.346,4.105.831,6.176,1.12,1.7.238,3.436.29,5.158.378a.893.893,0,0,0,.658-.411,2.106,2.106,0,0,1,1.958-1.149c1.565,0,3.131-.027,4.7.007a1.94,1.94,0,0,1,2.074,2.164q.017,7.294,0,14.588a1.951,1.951,0,0,1-2.088,2.154c-1.564.039-3.131.033-4.7-.006a2.5,2.5,0,0,1-1.222-.35c-1.833-1.16-3.337-.931-4.56.832a5.784,5.784,0,0,1-4.942,2.527C5542.223,87.234,5541.763,87.225,5541.537,87.225Zm9.788-18.3a46.063,46.063,0,0,1-5.046-.392c-3.626-.681-7.2-1.57-10.954-1.358-2.49.141-4.994.026-7.492.027-1.132,0-2.265-.014-3.4.019-.659.019-1.167.405-1,1.064.1.4.6.728.993.995.183.125.519.03.785.03q3.447,0,6.894,0c.267,0,.607-.088.783.042.334.247.751.6.8.951.032.253-.439.657-.771.84a2.208,2.208,0,0,1-.982.064q-5.4,0-10.791,0c-.3,0-.683-.093-.88.055-.35.263-.781.66-.812,1.031-.025.3.432.733.773.953.241.155.647.064.979.064q5.146,0,10.292,0c.719,0,1.458.088,1.446.967s-.769.955-1.477.94c-.233,0-.466,0-.7,0h-12.69c-1.41,0-1.9.268-1.907,1.038s.49,1.065,1.888,1.065q6.694,0,13.389,0c.7,0,1.478.038,1.495.915.019.948-.786,1-1.524.992-.7-.007-1.4,0-2.1,0q-4.746,0-9.492,0c-.69,0-1.205.239-1.231.995-.028.809.486,1.1,1.229,1.1.633,0,1.266,0,1.9,0H5536.4c.686,0,1.345.134,1.325.985-.019.776-.633.921-1.29.918a21.667,21.667,0,0,0-2.893.041,2.215,2.215,0,0,0-1.358.8c-.484.659-.126,1.252.7,1.255q5.095.02,10.19-.023a3.272,3.272,0,0,0,2.927-1.62,4.594,4.594,0,0,1,4.606-2.359,3.89,3.89,0,0,0,.635-.067c.027-.279.072-.538.072-.8,0-.618.234-1.079.9-1.084.706-.005.971.475.969,1.131,0,.587,0,1.173,0,1.743h5.087V67.271h-5.085c0,2.46,0,4.851,0,7.242a6.04,6.04,0,0,1-.044,1.687c-.116.385-.585.663-.9.989a4.284,4.284,0,0,1-.882-.987,3.116,3.116,0,0,1-.04-1.185C5551.325,72.993,5551.325,70.968,5551.325,68.924Zm-13.8,32.454a1.529,1.529,0,0,0,.127-.394,35.66,35.66,0,0,1,1.3-9.555,34.581,34.581,0,0,0,.418-4.2c-2.068,0-3.894-.012-5.72.017a.807.807,0,0,0-.585.373c-.994,1.956-1.6,2.3-3.887,2.122-.123.294-.227.608-.377.9a2.773,2.773,0,0,1-3.995,1.172c-1.191-.846-2.376-.472-3.573-.554-.3,2.268.119,4.064,2.158,5.259a3.741,3.741,0,0,1,1.762,3.39c.007.454,0,.91,0,1.4.323.033.517.073.71.07.666-.01,1.263.142,1.248.936-.014.769-.59.955-1.266.937-.524-.014-1.049,0-1.63,0v5.075H5539.2v-5.075h-8.159c-.3,0-.669.1-.882-.04-.344-.224-.8-.605-.805-.924a1.213,1.213,0,0,1,.835-.844,27.906,27.906,0,0,1,3.092-.058C5534.709,101.376,5536.134,101.379,5537.529,101.379Zm-20.261-28.105.288-.008a2.717,2.717,0,0,1,.826-3.054,15.356,15.356,0,0,1,3.146-1.243c-.368-2.157.91-3.656,3.332-3.662,3.1-.008,6.193,0,9.288,0h1.04c.3-2.284-.109-4.084-2.148-5.279a3.735,3.735,0,0,1-1.768-3.384c-.008-.456,0-.912,0-1.4-.349-.035-.576-.078-.8-.077-.644,0-1.172-.2-1.159-.925.013-.77.576-.964,1.255-.947.55.014,1.1,0,1.649,0V48.211h-15v5.084h1.153c2.5,0,4.994.006,7.49,0,.678,0,1.25.175,1.258.944.009.795-.592.931-1.255.928q-3-.011-5.992,0c-.349,0-.7.04-1,.059a36.924,36.924,0,0,1-.392,4.976,42.88,42.88,0,0,0-1.328,12.147C5517.164,72.658,5517.225,72.965,5517.268,73.273Zm5.936,15.986-.039-.248c-2.645.082-3.353-.52-4.05-3.437-2.388.385-3.852-.853-3.869-3.277-.006-.965.048-1.934-.022-2.895a3.471,3.471,0,0,0-.45-1.448,2.734,2.734,0,0,1-.056-3.19c.861-1.148.408-2.318.5-3.484-2.885-.259-3.636.069-5.3,2.271a3.8,3.8,0,0,1-2.756,1.6c-.652.061-1.308.083-2,.125a6.164,6.164,0,0,0-.057.652c.017.672-.151,1.26-.942,1.239-.768-.02-.947-.6-.928-1.275.014-.523,0-1.047,0-1.623h-5.073V89.258h5.073c0-2.773,0-5.464,0-8.156,0-.3-.1-.67.04-.882.225-.344.606-.8.925-.8a1.209,1.209,0,0,1,.842.836c.111,1.087.053,2.193.055,3.291,0,1.357,0,2.714,0,4.1.341.039.566.066.792.091a53.543,53.543,0,0,1,6.61.77,38.1,38.1,0,0,0,9.707.831C5522.54,89.329,5522.871,89.286,5523.2,89.259Zm1.964-5.978c0,2.055-.05,4.014.044,5.966a1.392,1.392,0,0,0,.934,1,1.359,1.359,0,0,0,1.043-.855c.1-2.013.049-4.033.049-6.107Zm-4-.02a20.469,20.469,0,0,0,.043,2.865,1.337,1.337,0,0,0,.912.9,1.294,1.294,0,0,0,1.041-.737,22.629,22.629,0,0,0,.05-3.033Zm8.021.009c0,1.313-.054,2.538.039,3.751a1.255,1.255,0,0,0,.806.817,1.387,1.387,0,0,0,1.013-.392.777.777,0,0,0,0-.764,3.042,3.042,0,0,1-.7-3.412ZM5519,83.586l.01-.285-1.762-1.066-.249.155c.229.42.364.983.717,1.214C5518.016,83.8,5518.566,83.607,5519,83.586Z" transform="translate(0 0)" fill="#6a4d23"/>
        </g>
      </g>
    </g>
  </g>
</svg>
