<svg xmlns="http://www.w3.org/2000/svg" xmlns:xlink="http://www.w3.org/1999/xlink" width="121" height="121" viewBox="0 0 121 121">
  <defs>
    <clipPath id="clip-path">
      <rect id="Rectangle_400938" data-name="Rectangle 400938" width="121" height="121" transform="translate(0 0)" fill="none"/>
    </clipPath>
    <clipPath id="clip-path-2">
      <rect id="Rectangle_401073" data-name="Rectangle 401073" width="92.219" height="41.532" fill="#efb499"/>
    </clipPath>
  </defs>
  <g id="Group_1104223" data-name="Group 1104223" transform="translate(-271.582 9362.242)">
    <g id="Group_1102811" data-name="Group 1102811" transform="translate(-116.086 -15375.242)">
      <rect id="Rectangle_401103" data-name="Rectangle 401103" width="121" height="121" transform="translate(387.668 6013)" fill="none"/>
      <g id="Group_1099348" data-name="Group 1099348" transform="translate(387.668 6013)">
        <g id="Group_1099282" data-name="Group 1099282">
          <g id="Group_1099281" data-name="Group 1099281" clip-path="url(#clip-path-2)">
            <path id="Path_873375" data-name="Path 873375" d="M74.8,9.1c-4.139,0-6.28-2.03-8.17-3.821-1.855-1.756-3.452-3.274-6.792-3.274s-4.937,1.517-6.792,3.274C51.161,7.072,49.023,9.1,44.881,9.1s-6.28-2.03-8.169-3.821C34.857,3.525,33.26,2.007,29.92,2.007s-4.937,1.517-6.789,3.274C21.241,7.072,19.1,9.1,14.962,9.1S8.679,7.072,6.789,5.281C4.937,3.525,3.34,2.007,0,2.007V0C4.139,0,6.28,2.033,8.17,3.821c1.855,1.759,3.452,3.274,6.792,3.274S19.9,5.58,21.75,3.824C23.637,2.033,25.781,0,29.92,0s6.283,2.033,8.17,3.821c1.855,1.759,3.452,3.274,6.792,3.274s4.937-1.514,6.792-3.274C53.56,2.033,55.7,0,59.843,0s6.283,2.033,8.17,3.821C69.867,5.58,71.464,7.094,74.8,7.094S79.742,5.58,81.6,3.821C83.483,2.033,85.624,0,89.766,0V2.007c-3.34,0-4.937,1.517-6.792,3.274C81.084,7.072,78.943,9.1,74.8,9.1" transform="translate(2.453 32.43)" fill="#efb499"/>
            <path id="Path_873376" data-name="Path 873376" d="M74.8,9.1c-4.139,0-6.283-2.03-8.17-3.824-1.855-1.756-3.452-3.27-6.792-3.27s-4.937,1.514-6.792,3.27C51.164,7.072,49.023,9.1,44.881,9.1s-6.283-2.03-8.17-3.824c-1.855-1.756-3.452-3.27-6.792-3.27s-4.937,1.517-6.789,3.27C21.241,7.072,19.1,9.1,14.962,9.1S8.679,7.072,6.789,5.278C4.937,3.522,3.34,2.007,0,2.007V0C4.139,0,6.283,2.03,8.17,3.821c1.855,1.759,3.452,3.274,6.792,3.274S19.9,5.58,21.75,3.821C23.637,2.03,25.781,0,29.92,0S36.2,2.03,38.093,3.821c1.852,1.759,3.449,3.274,6.789,3.274s4.937-1.514,6.792-3.274C53.56,2.03,55.7,0,59.843,0s6.283,2.03,8.17,3.821C69.867,5.58,71.464,7.094,74.8,7.094S79.742,5.58,81.6,3.821C83.486,2.03,85.627,0,89.769,0V2.007c-3.34,0-4.94,1.517-6.8,3.27C81.084,7.072,78.943,9.1,74.8,9.1" transform="translate(1.635 21.62)" fill="#efb499"/>
            <path id="Path_873377" data-name="Path 873377" d="M74.8,9.1c-4.139,0-6.283-2.03-8.169-3.824-1.855-1.756-3.452-3.27-6.792-3.27s-4.937,1.514-6.792,3.27C51.164,7.072,49.02,9.1,44.881,9.1s-6.283-2.03-8.17-3.824c-1.855-1.756-3.452-3.27-6.792-3.27s-4.937,1.517-6.789,3.27C21.241,7.072,19.1,9.1,14.962,9.1S8.678,7.072,6.789,5.278C4.937,3.522,3.34,2.007,0,2.007V0C4.139,0,6.283,2.03,8.169,3.821c1.851,1.759,3.452,3.274,6.792,3.274S19.9,5.58,21.75,3.821C23.637,2.03,25.781,0,29.92,0S36.2,2.03,38.093,3.821c1.852,1.759,3.449,3.274,6.789,3.274s4.937-1.514,6.792-3.274C53.56,2.03,55.7,0,59.843,0s6.283,2.03,8.17,3.821C69.867,5.58,71.464,7.094,74.8,7.094S79.742,5.58,81.6,3.821C83.486,2.03,85.624,0,89.769,0V2.007c-3.34,0-4.941,1.517-6.8,3.27C81.084,7.072,78.943,9.1,74.8,9.1" transform="translate(0.818 10.81)" fill="#efb499"/>
            <path id="Path_873378" data-name="Path 873378" d="M74.8,9.1c-4.139,0-6.28-2.03-8.17-3.821-1.855-1.756-3.452-3.27-6.792-3.27s-4.937,1.514-6.789,3.27C51.164,7.069,49.023,9.1,44.881,9.1s-6.28-2.03-8.169-3.821c-1.855-1.756-3.452-3.27-6.792-3.27s-4.937,1.514-6.789,3.267C21.245,7.069,19.1,9.1,14.962,9.1S8.678,7.069,6.789,5.278C4.937,3.522,3.34,2.007,0,2.007V0C4.139,0,6.283,2.03,8.17,3.821c1.855,1.756,3.452,3.27,6.792,3.27S19.9,5.577,21.75,3.821C23.64,2.03,25.781,0,29.92,0s6.28,2.03,8.173,3.821c1.852,1.756,3.449,3.27,6.789,3.27s4.937-1.514,6.792-3.27C53.563,2.03,55.7,0,59.843,0s6.28,2.03,8.17,3.821c1.855,1.756,3.452,3.27,6.792,3.27s4.937-1.514,6.792-3.27C83.486,2.03,85.627,0,89.769,0V2.007c-3.344,0-4.941,1.514-6.8,3.27C81.084,7.069,78.943,9.1,74.8,9.1" transform="translate(0 0.003)" fill="#efb499"/>
          </g>
        </g>
      </g>
      <circle id="Ellipse_11504" data-name="Ellipse 11504" cx="50.5" cy="50.5" r="50.5" transform="translate(402.668 6031)" fill="#ffce73"/>
      <circle id="Ellipse_11503" data-name="Ellipse 11503" cx="52.5" cy="52.5" r="52.5" transform="translate(395.668 6021)" fill="#f3f9ff"/>
    </g>
    <g id="Group_1102813" data-name="Group 1102813" transform="translate(297.523 -9336.438)">
      <rect id="Rectangle_401104" data-name="Rectangle 401104" width="68" height="69" transform="translate(0.477 -0.562)" fill="none"/>
      <g id="Group_1103714" data-name="Group 1103714" transform="translate(-1035.656 -96.532)">
        <path id="Path_894794" data-name="Path 894794" d="M1047.676,138.535a8.528,8.528,0,0,0-.575,2.132,1.5,1.5,0,0,0,.812,1.174c2.41.46,3.967,2.228,5.8,3.58a2.831,2.831,0,0,0,.365.183,2.463,2.463,0,0,1,3.088-.625c2.218.9,4.443,1.809,6.568,2.9.706.364,1.105,1.314,1.666,1.978a1.844,1.844,0,0,0,.676.572,1.866,1.866,0,0,1,1.28,1.684,1.464,1.464,0,0,0,.7.976,2.078,2.078,0,0,1,1.407,1.607,1.113,1.113,0,0,0,1.3,1.008,24.8,24.8,0,0,0,2.864-.409c3.034-.645,5.022.479,5.948,3.45.287.922.477,1.875.756,2.8.07.234.317.414.482.619.22-.206.587-.383.632-.622a7.715,7.715,0,0,0,.118-1.923,16.841,16.841,0,0,1,.688-6.8,4.7,4.7,0,0,0-.38-2.98c-1.123-2.754-.631-4.137,2.048-5.3a1.366,1.366,0,0,0,.562-.945,2.728,2.728,0,0,0-.252-1.029c-.276-.992-.509-2.02.335-2.834a3.123,3.123,0,0,1,3.346-.917c1.094.408,2.086,1.082,3.154,1.573a5.093,5.093,0,0,0,1.283.23,5.163,5.163,0,0,0-.105-1.212,21.221,21.221,0,0,1-.992-2.719,12.372,12.372,0,0,1,.1-2.59,3.528,3.528,0,0,0-.059-1.106,12.692,12.692,0,0,1-.764-2.333,7.037,7.037,0,0,1,.407-2.453c.168-.573.6-1.064.817-1.628.546-1.406.054-2.2-1.462-2.368-1.355-.153-2.716-.255-4.074-.38a2.98,2.98,0,0,1-2.462-1.511c-1.182-2.033-3.033-2.72-5.372-2.605a17.179,17.179,0,0,1-3.4,6.837,39.039,39.039,0,0,1-4.178,4.144,2.381,2.381,0,0,1-3.1.18c-4.459-3.236-7.622-7.387-7.947-13.046a9.29,9.29,0,0,1,8.425-9.538l.607-.067a12.416,12.416,0,0,1,9.069-8.192,1.889,1.889,0,0,0-2.225-1.312,6.685,6.685,0,0,0-3.024,1.234c-2.506,2.265-5.58,3.18-8.689,4.053a2.673,2.673,0,0,0-1.977,1.807,10.463,10.463,0,0,1-2.419,3.98c-1.114.976-2.081,2.063-3.153,3.052a5.947,5.947,0,0,1-2.471,1.178,3.71,3.71,0,0,0-2.229,4.834,12.72,12.72,0,0,1,.937,2.492,1.175,1.175,0,0,1-1,1.517,1.3,1.3,0,0,1-1.573-.978,12.7,12.7,0,0,0-.7-1.676c-1.761-3.175.213-7.935,3.754-8.751a3.319,3.319,0,0,0,2.417-1.879,2.527,2.527,0,0,1,2.037-1.708c.25-.023.551-.345.687-.6a21.283,21.283,0,0,0,1.427-2.995,3.682,3.682,0,0,1,2.542-2.54c1.677-.519,3.371-1,5-1.651a12.628,12.628,0,0,0,2.853-1.659,11.145,11.145,0,0,1,4.761-2.377,5.025,5.025,0,0,1,5.439,2.591c1.075,2.141.175,3.9-2.173,4.235a8.946,8.946,0,0,0-6.413,5.677,9.869,9.869,0,0,1,6.887,8.309c.675.093,1.408.2,2.142.295a6.973,6.973,0,0,1,4.994,3.229,1.841,1.841,0,0,0,1.588.878,33.675,33.675,0,0,1,3.746.361c2.989.506,4.563,3,3.262,5.721-.947,1.981-1.257,3.66-.164,5.6a1.976,1.976,0,0,1,0,1.667,2.616,2.616,0,0,0,.145,2.543c.288.733.553,1.476.8,2.222a2.825,2.825,0,0,1-.723,3.164,3.193,3.193,0,0,1-3.5.71,26.268,26.268,0,0,1-2.451-1.321c-.452-.234-.939-.4-1.642-.692.188.821.321,1.361.435,1.9a3.118,3.118,0,0,1-2.174,3.9c-1.031.315-1.128.747-.685,1.625a6.865,6.865,0,0,1,.325,5.818,10.77,10.77,0,0,0-.437,3.271c-.057,1.181.088,2.371.033,3.552a3.543,3.543,0,0,1-2.18,3.319,2.8,2.8,0,0,1-4.092-1.681c-.358-.931-.543-1.928-.813-2.894-.608-2.179-1.111-2.424-3.325-2.044a33.812,33.812,0,0,1-4.04.285,1.179,1.179,0,0,1-.709-.213,17.552,17.552,0,0,1-4.331-4.6,11.23,11.23,0,0,0-2.654-3.39,29.122,29.122,0,0,0-5.368-2.413,1.205,1.205,0,0,0-.955.179,2.7,2.7,0,0,1-3.135.063,16.166,16.166,0,0,1-1.654-1.2,10.328,10.328,0,0,0-3.838-2.235,3.973,3.973,0,0,1-3.01-3.475,9.1,9.1,0,0,1,1.191-4.265c.27-.546,1.4-.857,2.169-.924a2.742,2.742,0,0,0,2.523-2.116,4.135,4.135,0,0,1,.241-.6,1.172,1.172,0,0,1,1.716-.58,1.905,1.905,0,0,1,.721,1.559C1052.186,136.7,1050.534,138.071,1047.676,138.535Zm28.31-20.562c-.164-.848-.245-1.452-.4-2.036a6.689,6.689,0,0,0-13.074,2.755c.716,3.906,2.973,6.908,5.9,9.471.62.542,1.093.3,1.593-.132a18.3,18.3,0,0,0,4.981-6.782A29.947,29.947,0,0,0,1075.985,117.973Z" transform="translate(0 0)" fill="#6a4d23"/>
        <path id="Path_894795" data-name="Path 894795" d="M1074.838,238.123a1.3,1.3,0,0,1-1.366,1.337,1.211,1.211,0,0,1-1.284-1.29,1.2,1.2,0,0,1,1.237-1.327A1.3,1.3,0,0,1,1074.838,238.123Z" transform="translate(-22.009 -110.512)" fill="#6a4d23"/>
        <path id="Path_894796" data-name="Path 894796" d="M1149.44,182.255a4,4,0,0,1-3.961,4.092,4.046,4.046,0,0,1-.088-8.091A3.986,3.986,0,0,1,1149.44,182.255Zm-4.138,1.366a1.357,1.357,0,0,0,1.473-1.349,1.266,1.266,0,0,0-1.309-1.281,1.318,1.318,0,0,0-.164,2.63Z" transform="translate(-76.314 -64.553)" fill="#6a4d23"/>
      </g>
    </g>
  </g>
</svg>
