<svg xmlns="http://www.w3.org/2000/svg" width="70" height="70" viewBox="0 0 70 70">
  <g id="Group_1104221" data-name="Group 1104221" transform="translate(-1229.625 -1085)">
    <g id="Group_1102839" data-name="Group 1102839" transform="translate(961 127.029)">
      <circle id="Ellipse_5614" data-name="Ellipse 5614" cx="35" cy="35" r="35" transform="translate(268.625 957.971)" fill="#fff"/>
      <g id="Group_1103140" data-name="Group 1103140" transform="translate(-4019.823 -677.895)">
        <path id="Path_893666" data-name="Path 893666" d="M4316.746,1707.593l5.113,5.08a26.589,26.589,0,0,1-2,2.143,3.7,3.7,0,0,0-1.125,3.694,6.311,6.311,0,0,1-1.2,4.709l-1.08-1a3.188,3.188,0,0,0,.234-.652.574.574,0,0,0-.858-.6,2.374,2.374,0,0,0-.519.45c-2.576,2.573-5.145,5.155-7.735,7.713a1.26,1.26,0,0,1-.889.4c-.677-.112-.817-.817-.3-1.341,1.115-1.133,2.245-2.252,3.368-3.376.091-.091.182-.181.274-.269.333-.318.653-.676.243-1.111s-.782-.128-1.108.2q-1.468,1.471-2.938,2.938c-.127.127-.244.333-.39.358a1.652,1.652,0,0,1-1.011,0c-.4-.25-.379-.7-.035-1.06.533-.555,1.08-1.1,1.623-1.641.652-.654,1.3-1.309,1.961-1.956.325-.32.541-.69.179-1.067s-.739-.154-1.057.165q-1.383,1.391-2.773,2.774c-.127.127-.238.337-.384.364-.36.068-.833.2-1.084.038-.437-.286-.32-.759.039-1.121q1.545-1.556,3.1-3.1c.314-.314.7-.644.266-1.1-.457-.481-.822-.12-1.163.221-.852.853-1.708,1.7-2.557,2.557-.39.393-.815.6-1.259.132-.419-.439-.187-.838.175-1.2,2.759-2.755,5.5-5.531,8.291-8.248a8.044,8.044,0,0,1,1.742-.908,9.415,9.415,0,0,0,1.792-1.118C4314.749,1709.682,4315.741,1708.607,4316.746,1707.593Z" transform="translate(0 -49.688)" fill="#7a4f00"/>
        <path id="Path_893667" data-name="Path 893667" d="M4413.863,1664.158l-5.137,5.109c-.771-.709-1.619-1.411-2.372-2.2a3.134,3.134,0,0,0-2.927-.954,6.644,6.644,0,0,1-5.209-1.165l.987-1.069a.826.826,0,0,0,.248.078c.314-.022.628-.059.942-.091-.072-.315-.042-.731-.233-.93-1.6-1.66-3.245-3.279-4.875-4.911-1.033-1.033-2.058-2.074-3.1-3.094-.383-.374-.573-.735-.146-1.179.447-.465.835-.312,1.241.1,1.184,1.208,2.391,2.394,3.582,3.594.331.334.7.629,1.118.23.443-.418.12-.781-.207-1.107-1.036-1.031-2.067-2.066-3.1-3.1-.372-.369-.689-.766-.222-1.249.485-.5.909-.232,1.312.176,1.1,1.112,2.21,2.212,3.315,3.318.32.321.668.667,1.106.244s.131-.782-.2-1.11c-.946-.94-1.881-1.889-2.831-2.825-.406-.4-.815-.833-.312-1.369.52-.552.958-.143,1.36.263.974.983,1.959,1.956,2.936,2.936.307.308.646.6,1.051.218.428-.407.17-.781-.167-1.117-.872-.868-1.736-1.744-2.61-2.609-.385-.381-.642-.79-.162-1.248s.885-.184,1.262.193c2.737,2.738,5.487,5.462,8.2,8.224a3.433,3.433,0,0,1,.762,1.389,5.308,5.308,0,0,0,1.564,2.5C4412,1662.281,4412.905,1663.221,4413.863,1664.158Z" transform="translate(-76.439 0)" fill="#7a4f00"/>
        <path id="Path_893668" data-name="Path 893668" d="M4465.967,1761.308l-5.115-5.09a25.214,25.214,0,0,1,1.963-2.113,3.756,3.756,0,0,0,1.151-3.758,5.934,5.934,0,0,1,1.253-4.649l1.05.969c-.081.176-.236.358-.221.524a1.084,1.084,0,0,0,.276.708c.131.1.47.019.68-.068.176-.073.3-.269.447-.413q3.834-3.833,7.665-7.669c.318-.319.624-.645,1.121-.328a.751.751,0,0,1,.083,1.285c-1.208,1.221-2.433,2.425-3.639,3.647a1.188,1.188,0,0,0-.392.623c-.015.2.179.56.33.589a1.035,1.035,0,0,0,.8-.206c.935-.876,1.826-1.8,2.733-2.7q.327-.326.655-.65a.759.759,0,1,1,1.068,1.072q-1.6,1.609-3.205,3.212c-.146.145-.363.267-.419.441a5.311,5.311,0,0,0-.139.96c.34-.029.8.073,1-.109,1.058-.969,2.054-2,3.063-3.026.4-.406.848-.676,1.321-.192.453.463.157.877-.224,1.253-.986.972-1.959,1.956-2.937,2.936-.332.332-.747.688-.25,1.152.478.446.832.041,1.165-.292.833-.835,1.669-1.666,2.5-2.5.382-.385.805-.624,1.261-.165s.186.876-.193,1.254c-2.74,2.735-5.459,5.492-8.232,8.193a7.835,7.835,0,0,1-1.664.9,10.6,10.6,0,0,0-1.922,1.185C4467.919,1759.245,4466.937,1760.326,4465.967,1761.308Z" transform="translate(-134.869 -76.507)" fill="#7a4f00"/>
        <path id="Path_893669" data-name="Path 893669" d="M4359.943,1813.587l5.109-5.094c.6.545,1.281,1.088,1.861,1.725a3.555,3.555,0,0,0,3.325,1.12c2.282-.273,3.292.024,5.39,1.366l-1.068,1.186a1.06,1.06,0,0,1-.228-.087c-.364-.318-.748-.8-1.219-.244-.457.535.071.88.4,1.213,2.57,2.577,5.152,5.143,7.708,7.734a1.178,1.178,0,0,1,.356.889c-.152.646-.809.771-1.3.289-1.152-1.132-2.288-2.28-3.43-3.421-.146-.145-.271-.369-.443-.414a4.742,4.742,0,0,0-.955-.066c.03.319-.062.749.11.938.861.948,1.791,1.832,2.7,2.739l.653.652c.359.358.473.747.076,1.138a.729.729,0,0,1-1.146-.062l-3.1-3.1c-.182-.181-.335-.444-.554-.521a3.54,3.54,0,0,0-.946-.078c.029.317-.064.745.107.933.861.948,1.791,1.833,2.7,2.741.145.145.286.294.435.436.38.362.562.768.14,1.2s-.825.273-1.2-.105c-.939-.946-1.874-1.9-2.83-2.825-.359-.348-.727-1.019-1.311-.445s.062.951.416,1.316c.786.809,1.589,1.6,2.39,2.4.366.364.581.756.144,1.192-.416.414-.823.289-1.2-.093-2.79-2.793-5.6-5.566-8.355-8.393a7.527,7.527,0,0,1-.825-1.621,10.924,10.924,0,0,0-1.2-1.913C4361.8,1815.349,4360.847,1814.487,4359.943,1813.587Z" transform="translate(-49.492 -135.057)" fill="#7a4f00"/>
      </g>
    </g>
  </g>
</svg>
