<svg xmlns="http://www.w3.org/2000/svg" xmlns:xlink="http://www.w3.org/1999/xlink" width="121" height="121" viewBox="0 0 121 121">
  <defs>
    <clipPath id="clip-path">
      <rect id="Rectangle_400938" data-name="Rectangle 400938" width="121" height="121" transform="translate(0 0)" fill="none"/>
    </clipPath>
    <clipPath id="clip-path-2">
      <rect id="Rectangle_401073" data-name="Rectangle 401073" width="92.219" height="41.532" fill="#efb499"/>
    </clipPath>
  </defs>
  <g id="Group_1104222" data-name="Group 1104222" transform="translate(79.418 9362.242)">
    <g id="Group_1102812" data-name="Group 1102812" transform="translate(-467.086 -15375.242)">
      <rect id="Rectangle_401103" data-name="Rectangle 401103" width="121" height="121" transform="translate(387.668 6013)" fill="none"/>
      <g id="Group_1099348" data-name="Group 1099348" transform="translate(387.668 6013)">
        <g id="Group_1099282" data-name="Group 1099282">
          <g id="Group_1099281" data-name="Group 1099281" clip-path="url(#clip-path-2)">
            <path id="Path_873375" data-name="Path 873375" d="M74.8,9.1c-4.139,0-6.28-2.03-8.17-3.821-1.855-1.756-3.452-3.274-6.792-3.274s-4.937,1.517-6.792,3.274C51.161,7.072,49.023,9.1,44.881,9.1s-6.28-2.03-8.169-3.821C34.857,3.525,33.26,2.007,29.92,2.007s-4.937,1.517-6.789,3.274C21.241,7.072,19.1,9.1,14.962,9.1S8.679,7.072,6.789,5.281C4.937,3.525,3.34,2.007,0,2.007V0C4.139,0,6.28,2.033,8.17,3.821c1.855,1.759,3.452,3.274,6.792,3.274S19.9,5.58,21.75,3.824C23.637,2.033,25.781,0,29.92,0s6.283,2.033,8.17,3.821c1.855,1.759,3.452,3.274,6.792,3.274s4.937-1.514,6.792-3.274C53.56,2.033,55.7,0,59.843,0s6.283,2.033,8.17,3.821C69.867,5.58,71.464,7.094,74.8,7.094S79.742,5.58,81.6,3.821C83.483,2.033,85.624,0,89.766,0V2.007c-3.34,0-4.937,1.517-6.792,3.274C81.084,7.072,78.943,9.1,74.8,9.1" transform="translate(2.453 32.43)" fill="#efb499"/>
            <path id="Path_873376" data-name="Path 873376" d="M74.8,9.1c-4.139,0-6.283-2.03-8.17-3.824-1.855-1.756-3.452-3.27-6.792-3.27s-4.937,1.514-6.792,3.27C51.164,7.072,49.023,9.1,44.881,9.1s-6.283-2.03-8.17-3.824c-1.855-1.756-3.452-3.27-6.792-3.27s-4.937,1.517-6.789,3.27C21.241,7.072,19.1,9.1,14.962,9.1S8.679,7.072,6.789,5.278C4.937,3.522,3.34,2.007,0,2.007V0C4.139,0,6.283,2.03,8.17,3.821c1.855,1.759,3.452,3.274,6.792,3.274S19.9,5.58,21.75,3.821C23.637,2.03,25.781,0,29.92,0S36.2,2.03,38.093,3.821c1.852,1.759,3.449,3.274,6.789,3.274s4.937-1.514,6.792-3.274C53.56,2.03,55.7,0,59.843,0s6.283,2.03,8.17,3.821C69.867,5.58,71.464,7.094,74.8,7.094S79.742,5.58,81.6,3.821C83.486,2.03,85.627,0,89.769,0V2.007c-3.34,0-4.94,1.517-6.8,3.27C81.084,7.072,78.943,9.1,74.8,9.1" transform="translate(1.635 21.62)" fill="#efb499"/>
            <path id="Path_873377" data-name="Path 873377" d="M74.8,9.1c-4.139,0-6.283-2.03-8.169-3.824-1.855-1.756-3.452-3.27-6.792-3.27s-4.937,1.514-6.792,3.27C51.164,7.072,49.02,9.1,44.881,9.1s-6.283-2.03-8.17-3.824c-1.855-1.756-3.452-3.27-6.792-3.27s-4.937,1.517-6.789,3.27C21.241,7.072,19.1,9.1,14.962,9.1S8.678,7.072,6.789,5.278C4.937,3.522,3.34,2.007,0,2.007V0C4.139,0,6.283,2.03,8.169,3.821c1.851,1.759,3.452,3.274,6.792,3.274S19.9,5.58,21.75,3.821C23.637,2.03,25.781,0,29.92,0S36.2,2.03,38.093,3.821c1.852,1.759,3.449,3.274,6.789,3.274s4.937-1.514,6.792-3.274C53.56,2.03,55.7,0,59.843,0s6.283,2.03,8.17,3.821C69.867,5.58,71.464,7.094,74.8,7.094S79.742,5.58,81.6,3.821C83.486,2.03,85.624,0,89.769,0V2.007c-3.34,0-4.941,1.517-6.8,3.27C81.084,7.072,78.943,9.1,74.8,9.1" transform="translate(0.818 10.81)" fill="#efb499"/>
            <path id="Path_873378" data-name="Path 873378" d="M74.8,9.1c-4.139,0-6.28-2.03-8.17-3.821-1.855-1.756-3.452-3.27-6.792-3.27s-4.937,1.514-6.789,3.27C51.164,7.069,49.023,9.1,44.881,9.1s-6.28-2.03-8.169-3.821c-1.855-1.756-3.452-3.27-6.792-3.27s-4.937,1.514-6.789,3.267C21.245,7.069,19.1,9.1,14.962,9.1S8.678,7.069,6.789,5.278C4.937,3.522,3.34,2.007,0,2.007V0C4.139,0,6.283,2.03,8.17,3.821c1.855,1.756,3.452,3.27,6.792,3.27S19.9,5.577,21.75,3.821C23.64,2.03,25.781,0,29.92,0s6.28,2.03,8.173,3.821c1.852,1.756,3.449,3.27,6.789,3.27s4.937-1.514,6.792-3.27C53.563,2.03,55.7,0,59.843,0s6.28,2.03,8.17,3.821c1.855,1.756,3.452,3.27,6.792,3.27s4.937-1.514,6.792-3.27C83.486,2.03,85.627,0,89.769,0V2.007c-3.344,0-4.941,1.514-6.8,3.27C81.084,7.069,78.943,9.1,74.8,9.1" transform="translate(0 0.003)" fill="#efb499"/>
          </g>
        </g>
      </g>
      <circle id="Ellipse_11504" data-name="Ellipse 11504" cx="50.5" cy="50.5" r="50.5" transform="translate(402.668 6031)" fill="#ffce73"/>
      <circle id="Ellipse_11503" data-name="Ellipse 11503" cx="52.5" cy="52.5" r="52.5" transform="translate(395.668 6021)" fill="#f3f9ff"/>
    </g>
    <g id="Group_1102814" data-name="Group 1102814" transform="translate(-53.477 -9336.438)">
      <rect id="Rectangle_401104" data-name="Rectangle 401104" width="68" height="69" transform="translate(0.477 -0.562)" fill="none"/>
      <g id="Group_1103715" data-name="Group 1103715" transform="translate(-1512.462 -104.044)">
        <path id="Path_894797" data-name="Path 894797" d="M1537.979,198.965a5.632,5.632,0,0,0,5.24,2.885c0-2.081,0-4.094,0-6.107s.518-2.759,2.433-3.387c.744-.244,1.515-.407,2.275-.607-1.281-3.864-.734-6.394,1.762-8.164a6.047,6.047,0,0,1,7.1.137c2.387,1.805,2.88,4.35,1.566,7.983.97.3,1.961.561,2.91.926a2.548,2.548,0,0,1,1.781,2.749c-.087,2.129-.022,4.264-.022,6.457a5.566,5.566,0,0,0,5.094-2.872,4.822,4.822,0,0,1-2.7-4.02,6.928,6.928,0,0,1,.833-3.357,4.818,4.818,0,0,1,5.82-1.955c2.555.9,3.554,3.005,3.137,6.653,2.642,1.48,3.031,4.2,3.452,6.794.412,2.53.518,5.113.678,7.678a5.162,5.162,0,0,1-1.828,4.819,5.555,5.555,0,0,0,.8.177c.947.035,1.319.536,1.31,1.455-.021,2.178-.006,4.357-.006,6.536v1.428c.973,0,1.832,0,2.69,0a1.163,1.163,0,0,1,1.315,1.316c0,1.624,0,3.248,0,4.872a1.213,1.213,0,0,1-1.4,1.364c-.238,0-.475,0-.713,0h-56.9c-1.994,0-2.075-.082-2.076-2.083,0-1.386.015-2.773,0-4.159a1.129,1.129,0,0,1,1.291-1.312c.826,0,1.651,0,2.689,0v-2.755q0-2.2,0-4.4c0-2.018,0-2.018,2.094-2.44-2-1.516-1.8-3.614-1.77-5.672a29.1,29.1,0,0,1,1.647-10.607,16.681,16.681,0,0,1,1.97-2.715,1.867,1.867,0,0,0,.339-1.194,5.033,5.033,0,0,1,2.229-5.238,5.04,5.04,0,0,1,7.664,5.18A5.266,5.266,0,0,1,1537.979,198.965Zm7.316,9.763v16.361h15.5V208.728Zm-20.684,21.794h56.84v-3.164h-56.84Zm10.937-15.992v.078c1.148,0,2.3.014,3.443,0,1-.016,1.433.442,1.419,1.444-.027,2.058-.006,4.117-.008,6.176,0,.615,0,1.352.831,1.225.312-.047.728-.776.739-1.2.068-2.651.015-5.3.044-7.956.01-.984-.419-1.326-1.37-1.3-1.7.043-3.4.006-5.1.011-1.023,0-1.446-.507-1.307-1.5.159-1.135.257-2.284.507-3.4.388-1.727.481-3.261-1.651-3.889-.072-.021-.175-.076-.189-.133-.114-.458-.426-1.047-.251-1.345s.847-.386,1.3-.38c.308,0,.612.329.917.511a21.9,21.9,0,0,0,12.384,2.99c.6-.024,1.232-.165,1.085-.882-.062-.306-.708-.651-1.12-.7-.978-.109-1.984.034-2.963-.074-2.64-.292-5.344-.525-7.127-2.9-.822-1.094-1.646-2.08-3.145-2.211a1.919,1.919,0,0,1-1.045-.526c-.837-.787-1.49-.317-1.973.336a5.965,5.965,0,0,0-.879,1.924,37.385,37.385,0,0,0-1.206,10.927,2.547,2.547,0,0,0,2.638,2.759C1532.852,214.615,1534.2,214.529,1535.547,214.529Zm19.963-7.986c.2-1.122.1-2.279.614-3.018a4.24,4.24,0,0,0,.732-2.739c-.017-.633,0-1.267,0-1.9,0-.748.044-1.526,1.038-1.538s1.083.717,1.071,1.5c-.016,1.059,0,2.119,0,3.227h2.016c0-2.316.014-4.528-.019-6.74a.944.944,0,0,0-.421-.738c-1.708-.567-3.353-1.156-5.278-.537a6.806,6.806,0,0,1-4.024.071c-1.915-.657-3.562-.156-5.284.377-.244.076-.579.405-.583.623-.042,2.318-.027,4.637-.027,6.955h1.986a33.857,33.857,0,0,1,.046-3.629,1.559,1.559,0,0,1,.96-1.067c.687-.168,1.064.368,1.1,1.064.02.395,0,.791.009,1.187.012,1.029-.333,2.272.122,3.037a4.208,4.208,0,0,1,.619,3.9c1.851,0,3.511,0,5.172,0C1555.5,206.572,1555.646,206.516,1555.51,206.544Zm8.627,11.684c0,1.347,0,2.694,0,4.041,0,.562-.023,1.279.746,1.179.315-.041.758-.736.776-1.15.084-1.9.035-3.8.039-5.7,0-1.841.143-1.978,1.94-1.989,2.257-.014,4.518.045,6.769-.076,1.977-.106,2.878-1.109,2.812-3.07-.085-2.489-.2-4.988-.51-7.456a20.087,20.087,0,0,0-1.232-4.559c-.5-1.3-1.309-1.44-2.461-.777a4.6,4.6,0,0,1-1.529.607,2.642,2.642,0,0,0-1.88,1.252,6.443,6.443,0,0,1-4.328,3.081c-2.065.3-4.154.445-6.235.625-.6.052-1.3-.068-1.29.808s.733.864,1.309.806a46.55,46.55,0,0,0,7.029-.868c2.03-.525,3.883-1.714,5.857-2.5.42-.168,1.026.132,1.546.217a5.106,5.106,0,0,1-.49,1.488,2.655,2.655,0,0,1-1.191.747c-.695.273-.809.723-.7,1.4.271,1.679.488,3.367.714,5.053.161,1.2-.17,1.593-1.391,1.608-1.7.021-3.406.029-5.108,0-.861-.016-1.224.33-1.2,1.2C1564.163,215.533,1564.137,216.881,1564.137,218.228Zm-35.5-.342V225.1h8.334v-7.216Zm48.838.024h-8.325v7.169h8.325Zm-24.315-25.531a3.8,3.8,0,0,0,3.886-3.885,3.922,3.922,0,0,0-3.908-3.918,4,4,0,0,0-3.926,3.941A3.877,3.877,0,0,0,1553.155,192.378Zm-17.446-.939a2.955,2.955,0,1,0,.118,5.909,3.053,3.053,0,0,0,2.891-3.018A3.019,3.019,0,0,0,1535.709,191.439Zm31.722,2.958a2.965,2.965,0,0,0,2.945,2.951,2.954,2.954,0,1,0-2.945-2.951Zm-24.361,13.528-6-1.5-.62,4.373,6.616.317Zm19.993-.007v3.148h6.634l-.66-4.635Z" transform="translate(-6.543 -60.244)" fill="#6a4d23"/>
        <path id="Path_894798" data-name="Path 894798" d="M1546.492,112.361q-6.408,4.447-12.784,8.873-6.583,4.571-13.167,9.141c-2.125,1.47-4.555,1.142-5.871-.765-1.332-1.931-.812-4.3,1.311-5.773q13.941-9.693,27.894-19.366c1.922-1.333,3.36-1.319,5.351.061q13.855,9.608,27.7,19.229c2.228,1.548,2.773,3.849,1.414,5.832-1.345,1.962-3.744,2.259-5.954.724q-12.436-8.633-24.867-17.272C1547.2,112.822,1546.868,112.611,1546.492,112.361Zm-28.717,17.152c.836-.477,1.437-.763,1.977-1.137q12.682-8.791,25.336-17.622a2.1,2.1,0,0,1,2.829-.013c5.391,3.821,10.832,7.571,16.258,11.341,3.217,2.235,6.431,4.474,9.663,6.687a1.833,1.833,0,0,0,2.8-.383,1.9,1.9,0,0,0-.6-2.692c-.218-.171-.453-.319-.68-.477l-26.9-18.693c-1.8-1.249-2.089-1.248-3.894.005q-10.238,7.108-20.476,14.215-3.559,2.471-7.113,4.949a1.7,1.7,0,0,0-.791,2.243C1516.5,128.555,1517.207,128.972,1517.776,129.513Z" fill="#6a4d23"/>
      </g>
    </g>
  </g>
</svg>
