<svg xmlns="http://www.w3.org/2000/svg" xmlns:xlink="http://www.w3.org/1999/xlink" width="70" height="70" viewBox="0 0 70 70">
  <defs>
    <clipPath id="clip-path">
      <rect id="Rectangle_405321" data-name="Rectangle 405321" width="43" height="45" transform="translate(265.625 971.971)" fill="#fff" stroke="#707070" stroke-width="1"/>
    </clipPath>
  </defs>
  <g id="Group_1104218" data-name="Group 1104218" transform="translate(-299.625 -1085)">
    <g id="Group_1102836" data-name="Group 1102836" transform="translate(31 127.029)">
      <circle id="Ellipse_5614" data-name="Ellipse 5614" cx="35" cy="35" r="35" transform="translate(268.625 957.971)" fill="#fff"/>
      <g id="Mask_Group_1098721" data-name="Mask Group 1098721" transform="translate(17 -1)" clip-path="url(#clip-path)">
        <g id="Group_1103137" data-name="Group 1103137" transform="translate(-4018.014 -244.523)">
          <path id="Path_893652" data-name="Path 893652" d="M4354.556,1253.716c-.81,0-1.562-.012-2.313,0a2.459,2.459,0,0,0-2.484,2.343c-.049.7-.009,1.415-.009,2.1a1.417,1.417,0,0,1-2.024-1.112c-.079-1.115-.042-2.24-.029-3.36a.765.765,0,0,1,.23-.468q5.687-5.713,11.38-11.406l2.031,2.162c-1.042,1.45-1.042,1.45.487,2.9a2.338,2.338,0,0,0,3.284.182q2.462-2.335,4.8-4.8a2.061,2.061,0,0,0,.259-2.612,6.469,6.469,0,0,0-1.586-1.673c-.247-.186-.8-.051-1.182.064-.255.078-.443.378-.619.54l-7.453-7.467c-.021.078-.022.024,0,0,1.149-1.285.778-2.465-1.069-3.4a2.373,2.373,0,0,0-2.739.379c-1.556,1.516-3.1,3.048-4.6,4.612a2.359,2.359,0,0,0,.021,3.293c.246.27.51.525.771.781.718.7,1.2.7,1.933,0,.114-.109.232-.214.34-.313l2.029,2.057-8.277,8.274c-.017-.193-.048-.383-.048-.573q0-11.426,0-22.852c0-1.3.536-1.865,1.813-1.867q7.48-.011,14.96,0c.156,0,.312.018.561.033v.757c0,2.082.063,4.166-.02,6.244-.068,1.743.7,3.094,2.96,3,2.28-.1,4.567-.021,6.923-.021.02.263.05.48.05.7q0,12.147,0,24.293c0,1.353-.733,1.987-2.042,1.716,0-.594.012-1.207,0-1.818a2.541,2.541,0,0,0-2.728-2.682c-.684-.005-1.367,0-2.1,0-.023-.214-.041-.387-.06-.56a2.278,2.278,0,0,0-2.445-2.166q-4.221-.008-8.441,0a2.279,2.279,0,0,0-2.513,2.375C4354.6,1253.453,4354.579,1253.542,4354.556,1253.716Z" transform="translate(-53.521 0)" fill="#6a4d23"/>
          <path id="Path_893653" data-name="Path 893653" d="M4392.18,1468.164h-20.759c0-.782-.058-1.532.018-2.269a1.227,1.227,0,0,1,1.209-1.107,5.294,5.294,0,0,1,.617-.016q8.507,0,17.015,0c1.438,0,1.9.455,1.9,1.872C4392.181,1467.122,4392.18,1467.6,4392.18,1468.164Z" transform="translate(-73.988 -209.879)" fill="#6a4d23"/>
          <path id="Path_893654" data-name="Path 893654" d="M4285.639,1370.611l17.971-17.948,1.354,1.43c-.123.133-.266.3-.422.457q-8.413,8.414-16.816,16.838c-.5.5-.807.524-1.24-.02A6.293,6.293,0,0,0,4285.639,1370.611Z" transform="translate(0 -113.162)" fill="#6a4d23"/>
          <path id="Path_893655" data-name="Path 893655" d="M4401.77,1302.348l3.224-3.232,7.374,7.405-3.294,3.2Z" transform="translate(-100.189 -66.966)" fill="#6a4d23"/>
          <path id="Path_893656" data-name="Path 893656" d="M4490.4,1238.678h-1.473c-1.555,0-3.111.008-4.666,0-.985-.007-1.33-.355-1.333-1.321-.005-2.1,0-4.207,0-6.182Z" transform="translate(-170.2 -8.349)" fill="#6a4d23"/>
          <path id="Path_893657" data-name="Path 893657" d="M4376.192,1280.787a6.207,6.207,0,0,0-.489-.659,1.285,1.285,0,0,1,.017-2.123q1.934-1.945,3.881-3.876c1.043-1.04,1.507-1.034,2.551.032.125.128.243.265.341.374Z" transform="translate(-77.224 -44.741)" fill="#6a4d23"/>
          <path id="Path_893658" data-name="Path 893658" d="M4458,1350.287c1.5,1.315,1.507,1.677.033,3.151q-1.671,1.671-3.341,3.343c-1.058,1.057-1.523,1.059-2.562.014-.127-.128-.249-.263-.334-.353Z" transform="translate(-143.347 -111.112)" fill="#6a4d23"/>
          <path id="Path_893659" data-name="Path 893659" d="M4418.054,1446.54H4407.2c-.136-1,.25-1.486,1.187-1.489q4.249-.012,8.5,0C4417.824,1445.054,4418.2,1445.536,4418.054,1446.54Z" transform="translate(-104.848 -192.862)" fill="#6a4d23"/>
        </g>
      </g>
    </g>
  </g>
</svg>
