<svg xmlns="http://www.w3.org/2000/svg" xmlns:xlink="http://www.w3.org/1999/xlink" width="120" height="120" viewBox="0 0 120 120">
  <defs>
    <clipPath id="clip-path">
      <rect id="Rectangle_400938" data-name="Rectangle 400938" width="120" height="120" transform="translate(0 0)" fill="none"/>
    </clipPath>
    <clipPath id="clip-path-2">
      <rect id="Rectangle_401073" data-name="Rectangle 401073" width="92.219" height="41.532" fill="#7d3a1b"/>
    </clipPath>
  </defs>
  <g id="Group_1104189" data-name="Group 1104189" transform="translate(-180 -1644.302)">
    <g id="Group_1102852" data-name="Group 1102852" transform="translate(-207.668 -4368.698)">
      <rect id="Rectangle_401103" data-name="Rectangle 401103" width="120" height="120" transform="translate(387.668 6013)" fill="none"/>
      <g id="Group_1099348" data-name="Group 1099348" transform="translate(387.668 6013)">
        <g id="Group_1099282" data-name="Group 1099282">
          <g id="Group_1099281" data-name="Group 1099281" clip-path="url(#clip-path-2)">
            <path id="Path_873375" data-name="Path 873375" d="M74.8,9.1c-4.139,0-6.28-2.03-8.17-3.821-1.855-1.756-3.452-3.274-6.792-3.274s-4.937,1.517-6.792,3.274C51.161,7.072,49.023,9.1,44.881,9.1s-6.28-2.03-8.169-3.821C34.857,3.525,33.26,2.007,29.92,2.007s-4.937,1.517-6.789,3.274C21.241,7.072,19.1,9.1,14.962,9.1S8.679,7.072,6.789,5.281C4.937,3.525,3.34,2.007,0,2.007V0C4.139,0,6.28,2.033,8.17,3.821c1.855,1.759,3.452,3.274,6.792,3.274S19.9,5.58,21.75,3.824C23.637,2.033,25.781,0,29.92,0s6.283,2.033,8.17,3.821c1.855,1.759,3.452,3.274,6.792,3.274s4.937-1.514,6.792-3.274C53.56,2.033,55.7,0,59.843,0s6.283,2.033,8.17,3.821C69.867,5.58,71.464,7.094,74.8,7.094S79.742,5.58,81.6,3.821C83.483,2.033,85.624,0,89.766,0V2.007c-3.34,0-4.937,1.517-6.792,3.274C81.084,7.072,78.943,9.1,74.8,9.1" transform="translate(2.453 32.43)" fill="#7d3a1b"/>
            <path id="Path_873376" data-name="Path 873376" d="M74.8,9.1c-4.139,0-6.283-2.03-8.17-3.824-1.855-1.756-3.452-3.27-6.792-3.27s-4.937,1.514-6.792,3.27C51.164,7.072,49.023,9.1,44.881,9.1s-6.283-2.03-8.17-3.824c-1.855-1.756-3.452-3.27-6.792-3.27s-4.937,1.517-6.789,3.27C21.241,7.072,19.1,9.1,14.962,9.1S8.679,7.072,6.789,5.278C4.937,3.522,3.34,2.007,0,2.007V0C4.139,0,6.283,2.03,8.17,3.821c1.855,1.759,3.452,3.274,6.792,3.274S19.9,5.58,21.75,3.821C23.637,2.03,25.781,0,29.92,0S36.2,2.03,38.093,3.821c1.852,1.759,3.449,3.274,6.789,3.274s4.937-1.514,6.792-3.274C53.56,2.03,55.7,0,59.843,0s6.283,2.03,8.17,3.821C69.867,5.58,71.464,7.094,74.8,7.094S79.742,5.58,81.6,3.821C83.486,2.03,85.627,0,89.769,0V2.007c-3.34,0-4.94,1.517-6.8,3.27C81.084,7.072,78.943,9.1,74.8,9.1" transform="translate(1.635 21.62)" fill="#7d3a1b"/>
            <path id="Path_873377" data-name="Path 873377" d="M74.8,9.1c-4.139,0-6.283-2.03-8.169-3.824-1.855-1.756-3.452-3.27-6.792-3.27s-4.937,1.514-6.792,3.27C51.164,7.072,49.02,9.1,44.881,9.1s-6.283-2.03-8.17-3.824c-1.855-1.756-3.452-3.27-6.792-3.27s-4.937,1.517-6.789,3.27C21.241,7.072,19.1,9.1,14.962,9.1S8.678,7.072,6.789,5.278C4.937,3.522,3.34,2.007,0,2.007V0C4.139,0,6.283,2.03,8.169,3.821c1.851,1.759,3.452,3.274,6.792,3.274S19.9,5.58,21.75,3.821C23.637,2.03,25.781,0,29.92,0S36.2,2.03,38.093,3.821c1.852,1.759,3.449,3.274,6.789,3.274s4.937-1.514,6.792-3.274C53.56,2.03,55.7,0,59.843,0s6.283,2.03,8.17,3.821C69.867,5.58,71.464,7.094,74.8,7.094S79.742,5.58,81.6,3.821C83.486,2.03,85.624,0,89.769,0V2.007c-3.34,0-4.941,1.517-6.8,3.27C81.084,7.072,78.943,9.1,74.8,9.1" transform="translate(0.818 10.81)" fill="#7d3a1b"/>
            <path id="Path_873378" data-name="Path 873378" d="M74.8,9.1c-4.139,0-6.28-2.03-8.17-3.821-1.855-1.756-3.452-3.27-6.792-3.27s-4.937,1.514-6.789,3.27C51.164,7.069,49.023,9.1,44.881,9.1s-6.28-2.03-8.169-3.821c-1.855-1.756-3.452-3.27-6.792-3.27s-4.937,1.514-6.789,3.267C21.245,7.069,19.1,9.1,14.962,9.1S8.678,7.069,6.789,5.278C4.937,3.522,3.34,2.007,0,2.007V0C4.139,0,6.283,2.03,8.17,3.821c1.855,1.756,3.452,3.27,6.792,3.27S19.9,5.577,21.75,3.821C23.64,2.03,25.781,0,29.92,0s6.28,2.03,8.173,3.821c1.852,1.756,3.449,3.27,6.789,3.27s4.937-1.514,6.792-3.27C53.563,2.03,55.7,0,59.843,0s6.28,2.03,8.17,3.821c1.855,1.756,3.452,3.27,6.792,3.27s4.937-1.514,6.792-3.27C83.486,2.03,85.627,0,89.769,0V2.007c-3.344,0-4.941,1.514-6.8,3.27C81.084,7.069,78.943,9.1,74.8,9.1" transform="translate(0 0.003)" fill="#7d3a1b"/>
          </g>
        </g>
      </g>
      <circle id="Ellipse_11504" data-name="Ellipse 11504" cx="50" cy="50" r="50" transform="translate(402.668 6031)" fill="#efb499"/>
      <circle id="Ellipse_11503" data-name="Ellipse 11503" cx="52" cy="52" r="52" transform="translate(395.668 6021)" fill="#f3f9ff"/>
    </g>
    <g id="Group_1102853" data-name="Group 1102853" transform="translate(205.941 1670.105)">
      <rect id="Rectangle_401104" data-name="Rectangle 401104" width="68" height="69" transform="translate(-0.316 -0.804)" fill="none"/>
      <g id="Group_1103645" data-name="Group 1103645" transform="translate(-132.045 -236.17)">
        <g id="Group_1103643" data-name="Group 1103643" transform="translate(135.507 238.064)">
          <g id="Group_1103642" data-name="Group 1103642">
            <rect id="Rectangle_405416" data-name="Rectangle 405416" width="8.566" height="1.33" rx="0.505" transform="translate(11.537 0)" fill="#9d9d9c"/>
            <path id="Path_894351" data-name="Path 894351" d="M146.093,239.395h-5.282c-.163,0-.295-.192-.295-.43v-.47c0-.238.132-.431.295-.431h5.282c.163,0,.295.192.295.431v.47C146.388,239.2,146.256,239.395,146.093,239.395Z" transform="translate(-136.252 -238.064)" fill="#9d9d9c"/>
            <rect id="Rectangle_405417" data-name="Rectangle 405417" width="60.444" height="39.161" rx="1.81" transform="translate(0 0.665)" fill="#575756"/>
            <rect id="Rectangle_405418" data-name="Rectangle 405418" width="55.336" height="34.053" transform="translate(2.554 3.219)" fill="#b0f8ff"/>
            <path id="Path_894352" data-name="Path 894352" d="M193.247,242.442V275.3H139.1V242.442Zm.6-.6H138.507V275.9h55.336V241.846Z" transform="translate(-135.953 -238.626)" fill="#fff"/>
            <circle id="Ellipse_11558" data-name="Ellipse 11558" cx="0.745" cy="0.745" r="0.745" transform="translate(29.477 1.197)" fill="#c6c6c6"/>
            <path id="Path_894353" data-name="Path 894353" d="M137.278,247v8.658a2.966,2.966,0,0,1-1.771,2.707V244.306a3.011,3.011,0,0,1,.911.613A2.957,2.957,0,0,1,137.278,247Z" transform="translate(-135.507 -238.992)" fill="#c6c6c6"/>
            <path id="Path_894354" data-name="Path 894354" d="M204.427,255.671v-8.658a2.965,2.965,0,0,1,1.771-2.707v14.055a3,3,0,0,1-.911-.614A2.955,2.955,0,0,1,204.427,255.671Z" transform="translate(-145.754 -238.992)" fill="#c6c6c6"/>
            <g id="Group_1103641" data-name="Group 1103641" transform="translate(4.911 6.77)">
              <path id="Path_894355" data-name="Path 894355" d="M158.209,263.173c-.478-.409-2.124-1-2.33-.572.064-1.423-1.875-1.942-2.007-2.649,0,.005-1.589-.243-1.627-.016,0-.088.135-.33.039-.343-.51-.065-.762.925-.939.925-1.222,0-.774-1.279-1.848-1.63a6.446,6.446,0,0,0,.413-1.165c-3.2.4-.71-1.777.359-1.777.7,0,.6,1.129.76,1.106.243-.029,1.227-2.921,1.5-2.949-.017.045-.181.427-.14.481-.245-.3,1.344-1.125,1.242-.971.129-.2.571-.371,1.068-.8-.027.056-.159.2.04.076,0,.147-.515.059-.4.37-.038-.1,1.151-.319,1.068-.535-.03-.084-.06.034,0-.089-.317.626-.82-.34-.854-.259.038.01.056-.031.085-.031s.5-.013.288-.193c-.417-.2-.74.391-1.056.438a4.826,4.826,0,0,0,2.211-1.371c-.111.146.232-1.039-.169-1.27.039.024-.578.39-.619.447-.027-.034-.014-.068-.074-.06-.01-.045-.112-.482.08-.482-1.211,0-1.267.32-2.264,1.875.009-.134-.123-.057-.131.011-.013-.024-.061-.03-.08-.029-.088.135.058-.827.12-.717a3.27,3.27,0,0,0-1.176-.381,9.767,9.767,0,0,0,.742-1.3c.065,0,1.185-.112,1.012-.23a1.783,1.783,0,0,1,.232-.111c-.089.089-.441.361-.456.443.444-.079.036-.013.152.08-.092-.075.779-.134.757-.115-.086.074-.263-.436-.345-.436-.031,0-.019.129-.071.143.032-.052.07-.121-.012-.129a.082.082,0,0,0,0-.059c.4-.063,1.977-1.054,1.788-.261.009-.038-.039-.055-.026-.1.026.052.026.022.073.04a.513.513,0,0,0,.007.14c-.227.372-.673.145-.865.329-.037.036-.19.1-.2.16.052-.266,1.077.543,1.3.543.14,0-.173-.34-.177-.358.1,0,.367.28.412.259.378-.17-.107-.519-.081-.649.028-.07.12.018.133-.107.48.1.263.273.79-.048a.048.048,0,0,0,0-.015c-.067-.077-.645-.3-.649-.339.023.256-.185-1.335-.865-.869,0,0-.061.053-.06.07.018.215.223.029.3.092.007.007-.212.023-.176.091a1.342,1.342,0,0,0-.265.035c.037.021.147-.211.145-.253-.008-.232-.711.2-.762.246-.024.02-.077.031-.007.061.14.059,0,.064.014.076-.313-.077.34-.42.341-.417-.05-.185-.89.2-.95.4.1-.318.043.4-.015.1.031.153.689.142.689.14l-.057.048c-.152.1-.754.4-.766.4a.169.169,0,0,0-.1.035.193.193,0,0,0-.054-.09c0,.008.36-.3.1-.3-.074,0-.22.14-.239.214-.09-.169.036-.076-.091-.255,0,0,.873-.616.9-.684-.016.032-2.017.884-1.638,1.1-.013-.007-.023-.022-.039-.026.089-.279.111.026,0-.178a2.076,2.076,0,0,0,.4-.165c-.132.286-1.564.189-1.866.431-.006,0-.051-.012-.053-.019.14-.4-.511.061-.772-.148,0-.073.162-.039.2-.039a.226.226,0,0,0,.044-.036c-.472.324-4.544-.261-6.135-.12-.054,0-.337.046-.33.125.005.06.125.312.242.207,0,.367-1.079-.077-1.086.277,0,.147.066-.076.04.078-.006.038-.068.053-.066.084s.615.1.67-.005l.053-.03c-.009.011.049-.076.059-.019-.527.212-1.342.421-1.551.833a.81.81,0,0,0,.012.133c.061.133.364-.172.421-.176a3.478,3.478,0,0,0-.43.375s.144.072.148.072a.816.816,0,0,0,.449-.151c-.127.125-.02.1.094.059-.24.156-1.95.764-1.953.826s1.963-.577,2.224-.676c-.027.024-.331.129-.269.209-.008-.01.072.049.057.049a1.966,1.966,0,0,0,.587-.308c.014-.049-.018-.01,0-.049a2.626,2.626,0,0,0-.365.094c.106-.069.578-.515.774-.467,0,.046.129-.069.176-.081-.088.075-.412.238-.433.309-.039.123,1.066-.333,1.012-.333a.11.11,0,0,1,.043.026c0-.4.643,1.065.742,1.211s.258-.318.258-.318c-.037-.011-.789,5.143-.4,5.827a4.751,4.751,0,0,0,.55.885c.119,0-.449-1.816-.325-1.816.046,0,.1.1.15.031.015.084-.014.063.064.054.435,2.9,3.667,3.145,4.36,4.831a.145.145,0,0,0,.037.06c.318,0,.18-.36.434-.36-1.366,0,1.515,5.946,1.742,6.651.1.507.01,4.04.407,4.04.1,0,.02-.387.032-.378l.04,0c.262,0-.134,1.09-.014,1.09-.04,0,.278-.086.251-.117-.077-.089.949,2.831,1.705,1.867,0,0,.016-.016.014-.01.011-.035,0-.205.169-.255-.783-.946-1.073-1.686-.658-2.315.061-.093-.507-.241-.335-.412-.041.04,1.254-1.644.726-1.324-.127.082,1.565-.512,1.074-.816.023.03-.131.258-.06.258.4,0,2.711-4.931,2.165-5.41Zm-2.322-11.88c.261-.132.091-.05,0,0C155.915,251.279,155.884,251.295,155.886,251.293Zm-.592-1.891c-.093.085.055-.084,0,0Zm.115-.936c.076-.021.03-.02,0,0Zm-.669-.58c.06.009,0,0,0,0Zm-1.573.564Zm-.055.532c.412-.051.133-.017,0,0Zm-.584-.346c.117.055-.037.017,0,0Zm-.827-.1c0-.03,0-.018,0,0Zm-1.967,7.453c.042-.054.012-.014,0,0C149.741,255.986,149.733,256,149.734,255.995Zm-5.317-7.1Zm.226.966c-.285.057.061-.014,0,0Zm1.268.892c.028-.054.087-.119,0,0Zm.218.244c-.063.117-.049.084,0,0C146.117,251.018,146.13,251,146.129,251Zm3.92,8.854c-.209.158.106-.082,0,0Zm2.266.375c-.169.247.252-.367,0,0C152.295,260.256,152.329,260.2,152.316,260.225Zm1,11.056Zm.042.212c-.1-.1,0-.14,0,0C153.348,271.487,153.354,271.492,153.354,271.493Zm.023.025c-.014-.016.054.071,0,0C153.377,271.518,153.386,271.529,153.377,271.518Z" transform="translate(-141.275 -246.242)" fill="#df6025"/>
              <path id="Path_894356" data-name="Path 894356" d="M154.947,252.555l0-.014Z" transform="translate(-143.307 -246.986)" fill="#df6025"/>
              <path id="Path_894357" data-name="Path 894357" d="M155.893,277.027c-.008.031.005-.015,0,0S155.893,277.026,155.893,277.027Z" transform="translate(-143.448 -250.626)" fill="#df6025"/>
              <path id="Path_894358" data-name="Path 894358" d="M156.226,262.134c-.171.124-.049.2,0,0Z" transform="translate(-143.485 -248.412)" fill="#df6025"/>
              <path id="Path_894359" data-name="Path 894359" d="M155.7,262.017c-.014-.072.042.136,0,0C155.7,262.006,155.7,262.018,155.7,262.017Z" transform="translate(-143.419 -248.393)" fill="#df6025"/>
              <path id="Path_894360" data-name="Path 894360" d="M157.43,253.641c-.206-.067-.4,0,0,0Z" transform="translate(-143.642 -247.145)" fill="#df6025"/>
              <path id="Path_894361" data-name="Path 894361" d="M157.726,253.014Z" transform="translate(-143.68 -247.056)" fill="#df6025"/>
              <path id="Path_894362" data-name="Path 894362" d="M157.9,250.348c-.25.118.047-.021,0,0C157.879,250.358,157.911,250.342,157.9,250.348Z" transform="translate(-143.732 -246.66)" fill="#df6025"/>
              <path id="Path_894363" data-name="Path 894363" d="M156.883,249.77c.232.046-.163-.031,0,0Z" transform="translate(-143.589 -246.573)" fill="#df6025"/>
              <path id="Path_894364" data-name="Path 894364" d="M156.767,249.733c-.235-.108.149.074,0,0Z" transform="translate(-143.567 -246.563)" fill="#df6025"/>
              <path id="Path_894365" data-name="Path 894365" d="M156.846,249.667c.182-.061-.113.043,0,0C156.853,249.665,156.841,249.669,156.846,249.667Z" transform="translate(-143.586 -246.556)" fill="#df6025"/>
              <path id="Path_894366" data-name="Path 894366" d="M157.217,249.877Z" transform="translate(-143.637 -246.59)" fill="#df6025"/>
              <path id="Path_894367" data-name="Path 894367" d="M156.385,249.971h0C156.37,249.953,156.389,249.975,156.385,249.971Z" transform="translate(-143.515 -246.596)" fill="#df6025"/>
              <path id="Path_894368" data-name="Path 894368" d="M156.017,249.816c-.415-.137,0,0,0,0Z" transform="translate(-143.439 -246.572)" fill="#df6025"/>
              <path id="Path_894369" data-name="Path 894369" d="M154.966,252.059c-.028-.238.022.24,0,0C154.965,252.044,154.966,252.062,154.966,252.059Z" transform="translate(-143.309 -246.904)" fill="#df6025"/>
              <path id="Path_894370" data-name="Path 894370" d="M157.532,248.737c-.432.415.4-.4,0,0Z" transform="translate(-143.673 -246.403)" fill="#df6025"/>
              <path id="Path_894371" data-name="Path 894371" d="M157.256,248.719c.1-.008.073-.1,0,0Z" transform="translate(-143.651 -246.411)" fill="#df6025"/>
              <path id="Path_894372" data-name="Path 894372" d="M157.566,248.417Z" transform="translate(-143.667 -246.373)" fill="#df6025"/>
              <path id="Path_894373" data-name="Path 894373" d="M157.75,248.488c-.053-.079.064.091,0,0Z" transform="translate(-143.722 -246.38)" fill="#df6025"/>
              <path id="Path_894374" data-name="Path 894374" d="M142.7,249.877c.077.173-.1-.235,0,0Z" transform="translate(-141.482 -246.579)" fill="#df6025"/>
              <path id="Path_894375" data-name="Path 894375" d="M142.337,250.55Z" transform="translate(-141.428 -246.685)" fill="#df6025"/>
              <path id="Path_894376" data-name="Path 894376" d="M143.593,251.253c-.21-.162.017.014,0,0S143.6,251.258,143.593,251.253Z" transform="translate(-141.606 -246.784)" fill="#df6025"/>
              <path id="Path_894377" data-name="Path 894377" d="M146.381,251.886c-.237.242.039-.15,0,0C146.376,251.891,146.381,251.885,146.381,251.886Z" transform="translate(-142.02 -246.883)" fill="#df6025"/>
              <path id="Path_894378" data-name="Path 894378" d="M158.643,276.952c-.5-.117-.5-.089,0,0Z" transform="translate(-143.802 -250.604)" fill="#df6025"/>
              <path id="Path_894379" data-name="Path 894379" d="M153.237,259.834c.3.077-.514-.587-1.42-.391.083-.044.113-.042.091.008C151.963,258.959,153.329,259.857,153.237,259.834Z" transform="translate(-142.842 -247.991)" fill="#df6025"/>
              <path id="Path_894380" data-name="Path 894380" d="M152.233,259.418Z" transform="translate(-142.893 -248.008)" fill="#df6025"/>
              <path id="Path_894381" data-name="Path 894381" d="M153.311,258.83c.143-.192-.218.277,0,0Z" transform="translate(-143.054 -247.914)" fill="#df6025"/>
              <path id="Path_894382" data-name="Path 894382" d="M154.009,259.692Z" transform="translate(-143.167 -248.049)" fill="#df6025"/>
              <path id="Path_894383" data-name="Path 894383" d="M153.323,260.292c-.558-.146-.011,0,0,0Z" transform="translate(-143.029 -248.129)" fill="#df6025"/>
              <path id="Path_894384" data-name="Path 894384" d="M154.355,260.271c.384-.323.424-.271-.384-.339-.068.134.335.358-.066.237-.177-.059.248.263.449.1C154.365,260.263,154.351,260.275,154.355,260.271Z" transform="translate(-143.147 -248.085)" fill="#df6025"/>
              <path id="Path_894385" data-name="Path 894385" d="M155.145,260.4c.185.27-.136-.2,0,0Z" transform="translate(-143.332 -248.147)" fill="#df6025"/>
              <path id="Path_894386" data-name="Path 894386" d="M155.937,260.324c-.135.04.075-.034,0,0C155.921,260.329,155.952,260.318,155.937,260.324Z" transform="translate(-143.448 -248.142)" fill="#df6025"/>
              <path id="Path_894387" data-name="Path 894387" d="M156.156,260.581c.043-.1-.033.077,0,0Z" transform="translate(-143.486 -248.177)" fill="#df6025"/>
              <path id="Path_894388" data-name="Path 894388" d="M156.278,260.735c-.089-.113.126.166,0,0C156.272,260.727,156.282,260.74,156.278,260.735Z" transform="translate(-143.502 -248.2)" fill="#df6025"/>
              <path id="Path_894389" data-name="Path 894389" d="M156.183,261.06c.112-.22.028,0,0,0Z" transform="translate(-143.491 -248.238)" fill="#df6025"/>
              <path id="Path_894390" data-name="Path 894390" d="M156.32,261.224c.1-.165-.057.094,0,0C156.328,261.211,156.316,261.233,156.32,261.224Z" transform="translate(-143.51 -248.269)" fill="#df6025"/>
              <path id="Path_894391" data-name="Path 894391" d="M156.268,261.4c.119-.219-.159.347,0,0Z" transform="translate(-143.497 -248.295)" fill="#df6025"/>
              <path id="Path_894392" data-name="Path 894392" d="M156.122,261.829c.046-.083,0-.1,0,0Z" transform="translate(-143.482 -248.357)" fill="#df6025"/>
              <path id="Path_894393" data-name="Path 894393" d="M156.091,257.031c.376-.4-.227.232,0,0Z" transform="translate(-143.47 -247.634)" fill="#df6025"/>
              <path id="Path_894394" data-name="Path 894394" d="M157.721,253.284c-.031-.041.09.112,0,0Z" transform="translate(-143.719 -247.095)" fill="#df6025"/>
              <path id="Path_894395" data-name="Path 894395" d="M159.02,253.293c.119-.131-.055-.73-.4-.554.019-.089.331-.307.3-.341-.072-.072-.764.576-.764.61s-.084.084-.084.16c0,.177,1.084-.014.952.124Z" transform="translate(-143.772 -246.964)" fill="#df6025"/>
              <path id="Path_894396" data-name="Path 894396" d="M158.585,253.448Z" transform="translate(-143.843 -247.121)" fill="#df6025"/>
              <path id="Path_894397" data-name="Path 894397" d="M158.483,250.127Z" transform="translate(-143.832 -246.627)" fill="#df6025"/>
              <path id="Path_894398" data-name="Path 894398" d="M156.348,246.978c.535.211.545.542,1.686.22a4.691,4.691,0,0,1-1.025-.086c-.021,0,.048-.1.06-.09a13.955,13.955,0,0,0,3.885-.831,12.829,12.829,0,0,0-3.255.07c-.041.091.407.148.452.157-.107.032-.21.129-.18.007-.072.043-.815.057-1.022.131.081.026.154.026.053.086.075.02.721.169.72.172-.057-.022-.114-.043-.173-.062A6.27,6.27,0,0,0,156.348,246.978Zm2.087-.584c-.029.172-.1.021,0,0Z" transform="translate(-143.516 -246.031)" fill="#df6025"/>
              <path id="Path_894399" data-name="Path 894399" d="M157.23,247.04c.053-.243-.083-.015,0,0Z" transform="translate(-143.643 -246.151)" fill="#df6025"/>
              <path id="Path_894400" data-name="Path 894400" d="M156.635,246.965Z" transform="translate(-143.559 -246.137)" fill="#df6025"/>
              <path id="Path_894401" data-name="Path 894401" d="M156.733,246.6c-.005-.219-.091,0,0,0Z" transform="translate(-143.567 -246.089)" fill="#df6025"/>
              <path id="Path_894402" data-name="Path 894402" d="M155.84,246.79c.836-.032.045-.109,0,0Z" transform="translate(-143.441 -246.123)" fill="#df6025"/>
              <path id="Path_894403" data-name="Path 894403" d="M155.47,247.042c-.1-.155-.087-.14,0,0Z" transform="translate(-143.375 -246.152)" fill="#df6025"/>
              <path id="Path_894404" data-name="Path 894404" d="M155.273,247.256c-.093.01,1.008.236.73-.156A5.014,5.014,0,0,0,155.273,247.256Z" transform="translate(-143.355 -246.177)" fill="#df6025"/>
              <path id="Path_894405" data-name="Path 894405" d="M156.031,247.37Z" transform="translate(-143.469 -246.198)" fill="#df6025"/>
              <path id="Path_894406" data-name="Path 894406" d="M155.066,247.647c.087.175-.327-.012-.137.392-.012-.023.677-.1.585-.29C155.574,247.878,155.405,247.269,155.066,247.647Zm-.127.381Z" transform="translate(-143.298 -246.24)" fill="#df6025"/>
              <path id="Path_894407" data-name="Path 894407" d="M151.382,247.983a1.553,1.553,0,0,0,.971-.135c-.274.178-.094.126-.3.236-.072.122.568.077.629.129-.106,0-.7-.039-.716.1-.028.292,2.053.236,2.038-.053-.017-.229.2-.318.215-.578s-.742.29-.784.315C153.521,247.227,151.935,247.983,151.382,247.983Zm.848.08c-.044,0,.058.005,0,0Zm1.41.281s.038,0,0,0Zm-1.234-.519c.056-.007-.108.019,0,0Z" transform="translate(-142.778 -246.253)" fill="#df6025"/>
              <path id="Path_894408" data-name="Path 894408" d="M154.11,248.62c-.145.177.023.037,0,0Z" transform="translate(-143.174 -246.403)" fill="#df6025"/>
              <path id="Path_894409" data-name="Path 894409" d="M154.358,248.561Z" transform="translate(-143.202 -246.394)" fill="#df6025"/>
              <path id="Path_894410" data-name="Path 894410" d="M154.616,248.245Z" transform="translate(-143.25 -246.347)" fill="#df6025"/>
              <path id="Path_894411" data-name="Path 894411" d="M154.965,247.424c.215.118-.1-.067,0,0Z" transform="translate(-143.307 -246.223)" fill="#df6025"/>
              <path id="Path_894412" data-name="Path 894412" d="M152.78,247.233a1.344,1.344,0,0,0,.618-.033c-.053.17-.21-.158.047-.082-.03.019-.049.086-.005.083-.008.011.014.029.022.036-.051,0-.255.047-.268.084-.048.131.466-.039.465-.038-.029.208.124.006.13.064.011.106-.354-.009-.377.073,0,0,1.3.069,1.3-.189,0-.076-.478.026-.172-.155C154.573,247.079,152.743,247.006,152.78,247.233Zm.894-.111Zm-.066.022Z" transform="translate(-142.985 -246.172)" fill="#df6025"/>
              <path id="Path_894413" data-name="Path 894413" d="M154.045,247.087c.218,0,.091-.088,0,0Z" transform="translate(-143.174 -246.169)" fill="#df6025"/>
              <path id="Path_894414" data-name="Path 894414" d="M154.486,247.006c.862.205.032.007,0,0Z" transform="translate(-143.238 -246.163)" fill="#df6025"/>
              <path id="Path_894415" data-name="Path 894415" d="M164.095,248.287c.26-.364.943-.225.078-.3.139-.056.168,0,.141-.136l.066-.041c.1,0,.23.176.384.176.212,0-.327-.482-.333-.489.173-.21.109.138.1.055.009.068.155.124.226.132.165,0,.467-.622.611-.622-.043,0,.108-.187.112-.176-.045-.209-.184-.057-.372-.093.13-.308,1.174-.306,1.214-.553,0,.03-1.342-.052-1.337-.043a1.669,1.669,0,0,0,.438-.077c0-.2-2.284-.064-2.66-.064-.068,0,.281.174.274.147-.135.035-2.566-.023-2.519.226.075.4-.87-.037-.888.306-.01.19.056-.074.015.146.144-.849,1.729,1.522,1.148.9.086.094.226,0,.292-.062-.021.106.033.193.17.162.02-.094-.441.037-.541.153,0,.021-.008.043-.011.064-.062.123.349.052.381.012.011-.015-.163-.178-.072-.118.062.039.074,0,.132,0-.568,0-.963,3.133,1.643.736C163.36,248.2,163.39,248.576,164.095,248.287Zm-4.151-1.446c.014-.011.068-.005,0,0Z" transform="translate(-144.003 -246.016)" fill="#df6025"/>
              <path id="Path_894416" data-name="Path 894416" d="M166.326,247.454c.122.034.158-.127,0,0Z" transform="translate(-145 -246.222)" fill="#df6025"/>
              <path id="Path_894417" data-name="Path 894417" d="M166.415,246.748c.148-.07-.043.017,0,0Z" transform="translate(-145.012 -246.121)" fill="#df6025"/>
              <path id="Path_894418" data-name="Path 894418" d="M166.411,246.89Z" transform="translate(-145.01 -246.146)" fill="#df6025"/>
              <path id="Path_894419" data-name="Path 894419" d="M166.512,246.929c0,.03.161.019,0,0Z" transform="translate(-145.027 -246.152)" fill="#df6025"/>
              <path id="Path_894420" data-name="Path 894420" d="M166.539,246.756Z" transform="translate(-145.028 -246.126)" fill="#df6025"/>
              <path id="Path_894421" data-name="Path 894421" d="M166.581,246.778Z" transform="translate(-145.034 -246.129)" fill="#df6025"/>
              <path id="Path_894422" data-name="Path 894422" d="M166.7,246.686Z" transform="translate(-145.055 -246.111)" fill="#df6025"/>
              <path id="Path_894423" data-name="Path 894423" d="M166.089,249.506c.81.317-1.37-.775-1.14-.2.084.215.464-.221.046.076.146-.223.224.386.118.228C165.29,249.877,165.916,249.427,166.089,249.506Z" transform="translate(-144.792 -246.48)" fill="#df6025"/>
              <path id="Path_894424" data-name="Path 894424" d="M167.55,249.985c-.143.169-.134.167,0,0Z" transform="translate(-145.166 -246.605)" fill="#df6025"/>
              <path id="Path_894425" data-name="Path 894425" d="M170.19,246.62c-.072.38,1.516.323,1.523.232a3.292,3.292,0,0,1-.409-.162c.005,0-.076-.01-.074-.047.113.022.643.076.677-.092.026-.1-.789.065-.787.059C171.055,246.763,170.237,246.371,170.19,246.62Zm.928.04c.145-.134,0,.073,0,0C171.127,246.652,171.118,246.661,171.118,246.66Z" transform="translate(-145.574 -246.09)" fill="#df6025"/>
              <path id="Path_894426" data-name="Path 894426" d="M172.157,246.728Z" transform="translate(-145.862 -246.12)" fill="#df6025"/>
              <path id="Path_894427" data-name="Path 894427" d="M172.321,246.771c.331-.168.021,0,0,0Z" transform="translate(-145.891 -246.117)" fill="#df6025"/>
              <path id="Path_894428" data-name="Path 894428" d="M172.772,246.536c.4-.015-.206.009,0,0Z" transform="translate(-145.951 -246.092)" fill="#df6025"/>
              <path id="Path_894429" data-name="Path 894429" d="M172.239,246.546c.112.031-.067-.024,0,0Z" transform="translate(-145.876 -246.094)" fill="#df6025"/>
              <path id="Path_894430" data-name="Path 894430" d="M171.307,247.474Z" transform="translate(-145.731 -246.233)" fill="#df6025"/>
              <path id="Path_894431" data-name="Path 894431" d="M172.056,247.092c-.128.1.009-.006,0,0Z" transform="translate(-145.843 -246.175)" fill="#df6025"/>
              <path id="Path_894432" data-name="Path 894432" d="M167.423,248.213c.232-.076.032-.093,0,0Z" transform="translate(-145.163 -246.333)" fill="#df6025"/>
              <path id="Path_894433" data-name="Path 894433" d="M168.273,250.483Z" transform="translate(-145.289 -246.68)" fill="#df6025"/>
              <path id="Path_894434" data-name="Path 894434" d="M167.26,251.131c.141-.273.195-.4,0,0C167.256,251.14,167.263,251.125,167.26,251.131Z" transform="translate(-145.138 -246.739)" fill="#df6025"/>
              <path id="Path_894435" data-name="Path 894435" d="M167.58,250.931c-.191.152-.229.337-.183.433a5.148,5.148,0,0,0,.473.28c-.015.068-.671.643-.036.524-.026.023-.468.18-.438.269C167.667,253.359,169.043,249.76,167.58,250.931Z" transform="translate(-145.156 -246.711)" fill="#df6025"/>
              <path id="Path_894436" data-name="Path 894436" d="M167.311,252.119c.672-1.2-.571,1.095,0,0Zm-.436-.124c-.056,0,.111-.014,0,0Z" transform="translate(-145.079 -246.87)" fill="#df6025"/>
              <path id="Path_894437" data-name="Path 894437" d="M167.629,251.838Z" transform="translate(-145.193 -246.881)" fill="#df6025"/>
              <path id="Path_894438" data-name="Path 894438" d="M166.207,251.018Z" transform="translate(-144.982 -246.756)" fill="#df6025"/>
              <path id="Path_894439" data-name="Path 894439" d="M169.9,254.776c-.168.292.1.663.12.269C170.038,254.447,170.042,254.517,169.9,254.776Z" transform="translate(-145.523 -247.29)" fill="#df6025"/>
              <path id="Path_894440" data-name="Path 894440" d="M168.74,255.269c.308.028-.078-.008,0,0Z" transform="translate(-145.357 -247.391)" fill="#df6025"/>
              <path id="Path_894441" data-name="Path 894441" d="M169.026,255.169Z" transform="translate(-145.39 -247.372)" fill="#df6025"/>
              <path id="Path_894442" data-name="Path 894442" d="M168.483,255.417Z" transform="translate(-145.319 -247.414)" fill="#df6025"/>
              <path id="Path_894443" data-name="Path 894443" d="M172.032,255.495c-.154-.026.113.021,0,0Z" transform="translate(-145.841 -247.424)" fill="#df6025"/>
              <path id="Path_894444" data-name="Path 894444" d="M172.4,255.692c-.668-.216.13.034,0,0C172.421,255.7,172.395,255.691,172.4,255.692Z" transform="translate(-145.863 -247.441)" fill="#df6025"/>
              <path id="Path_894445" data-name="Path 894445" d="M165.608,257.778c.163-.073-.425.209,0,0Z" transform="translate(-144.869 -247.763)" fill="#df6025"/>
              <path id="Path_894446" data-name="Path 894446" d="M165.246,257.947c-.073.054-.056.18,0,0Z" transform="translate(-144.832 -247.79)" fill="#df6025"/>
              <path id="Path_894447" data-name="Path 894447" d="M165.081,257.939c-.057-.132-.06.032,0,0Z" transform="translate(-144.808 -247.781)" fill="#df6025"/>
              <path id="Path_894448" data-name="Path 894448" d="M164.814,257.748Z" transform="translate(-144.77 -247.76)" fill="#df6025"/>
              <path id="Path_894449" data-name="Path 894449" d="M164.916,258.01Z" transform="translate(-144.787 -247.799)" fill="#df6025"/>
              <path id="Path_894450" data-name="Path 894450" d="M164.855,258.058c.057-.113-.077.145,0,0Z" transform="translate(-144.777 -247.802)" fill="#df6025"/>
              <path id="Path_894451" data-name="Path 894451" d="M165.026,256.906c.177.02-.139-.022,0,0Z" transform="translate(-144.801 -247.634)" fill="#df6025"/>
              <path id="Path_894452" data-name="Path 894452" d="M164.9,256.729Z" transform="translate(-144.781 -247.606)" fill="#df6025"/>
              <path id="Path_894453" data-name="Path 894453" d="M163.656,255.657Z" transform="translate(-144.603 -247.44)" fill="#df6025"/>
              <path id="Path_894454" data-name="Path 894454" d="M163.342,255.424c-.043-.143.02.066,0,0C163.341,255.42,163.344,255.43,163.342,255.424Z" transform="translate(-144.554 -247.407)" fill="#df6025"/>
              <path id="Path_894455" data-name="Path 894455" d="M163.223,255.472c.027-.106-.053.2,0,0C163.224,255.468,163.22,255.483,163.223,255.472Z" transform="translate(-144.535 -247.418)" fill="#df6025"/>
              <path id="Path_894456" data-name="Path 894456" d="M163.283,260.56c-.174-.046.089.016,0,0Z" transform="translate(-144.538 -248.176)" fill="#df6025"/>
              <path id="Path_894457" data-name="Path 894457" d="M163.465,260.686c-.1.141.023,0,0,0Z" transform="translate(-144.568 -248.197)" fill="#df6025"/>
              <path id="Path_894458" data-name="Path 894458" d="M163.737,260.8c-.08-.077.129.112,0,0Z" transform="translate(-144.612 -248.211)" fill="#df6025"/>
              <path id="Path_894459" data-name="Path 894459" d="M163.694,260.719c0-.181-.019,0,0,0Z" transform="translate(-144.607 -248.19)" fill="#df6025"/>
              <path id="Path_894460" data-name="Path 894460" d="M163.612,261.078c-.05-.3.033.206,0,0C163.61,261.065,163.612,261.082,163.612,261.078Z" transform="translate(-144.594 -248.241)" fill="#df6025"/>
              <path id="Path_894461" data-name="Path 894461" d="M163.69,260.908c0,.03,0,.229,0,0Z" transform="translate(-144.607 -248.23)" fill="#df6025"/>
              <path id="Path_894462" data-name="Path 894462" d="M163.424,261.085c-.152-.114.092.073,0,0Z" transform="translate(-144.56 -248.251)" fill="#df6025"/>
              <path id="Path_894463" data-name="Path 894463" d="M178.727,261.652c-.3-.163.042.02,0,0C178.7,261.639,178.732,261.654,178.727,261.652Z" transform="translate(-146.825 -248.33)" fill="#df6025"/>
              <path id="Path_894464" data-name="Path 894464" d="M183.533,258.671c.13-.151.589,3.21,1.392,3.21.021,0,.133.015.144,0,.109-.123-1.524-2.6-.811-2.6.2,0,.873,1.009.839,1.031,1.532-.936-.61-2.079.716-2.621,1.155-.543.93-1.394,1.217-1.852.018-.027-.195-1.305-.195-1.314a.441.441,0,0,0-.017-.1c-.041-.049-1.042-.03-.9-.3a.353.353,0,0,1,.019-.05c.214,0,.235-.342.355-.342h.116c.5.157.746.654,1.171,1.351a.311.311,0,0,1,.108-.022c-.278,0,.51-2.756.35-3.55.316.055.712.876.829,1.161,0,.009.027.041.042.041-.245,0,.347-.231.206-.049a5.333,5.333,0,0,1-.449-.619.134.134,0,0,1,.04-.011c.046,0,.255.138.261.112a11.1,11.1,0,0,0-1.114-1.133,3.909,3.909,0,0,1,.156.45c-.275-.287-1.118-.531-.983-.6-.065.031.086.183-.293.088.312-.415,2.078-1.363,2.03-.858.006-.068-.232-.173-.187-.406-.058.268,1.257-.211.722-.211-.233,0,.9,2.54.948,2.384.295-1.149-.12-.676-.483-1.841.065.2,1.569-.521,1.551-.557-.111-.2-.6-.185-.707-.35.318.066.215-.271.059-.271.02,0,.044.054.054,0,.042.165,1.212.349,1.223.307s-.366-.26-.076-.235a11.2,11.2,0,0,0-3.4-.783c-.057.065.318.193.318.219-.111.2-4.354-.835-4.389-.659-.013.076-.089,0-.1.074.009-.049.243.149.247.156-.753.056-4.236-.8-4.236-.215,0-.167.592-.248.567-.4a.756.756,0,0,0-.066-.084c-.355-.49-1.871-.172-2.273-.082-.337.192-1.054.112-.527.348-.129.088-.66-.01-.675.138-.01.118.4.163.449.23.014.018-.8-.194-.507-.194-.089,0-.175.147-.229.149.163-.179.157.26-.031.08.09.086.224.03.3.1-.065-.037-.6-.15-.556-.282.036-.1-.033.341-.067.242a.676.676,0,0,0,.612.387c-.165.014-.214.294-.266.5-.1-.032-.228,0-.319-.053.72,0-.325-1.342-.531-1.21-.312.2-.138.865.23.8.02-.005.025.031.02.043a12.319,12.319,0,0,0-1.4-.269c0-.009.46.208.379.234-.026.009-.141-.013-.066.054l-.009.01a.255.255,0,0,1-.055.008,12.359,12.359,0,0,1-1.933-.044,2.769,2.769,0,0,0,.181.449c-.267-.2-.963.385-.765.348.063-.01.031-.03.078.026-.278.151-.6-.37-.745-.495.22-.074.961.375,1.056-.007.019-.069-.023-.065-.032-.115-.272-1.342-3.261-.222-3.513-.093-.61.531-.4,2-.278,1.572a3.029,3.029,0,0,1,.083.81c.111.173.014-.164-.009.076-.035.332,1.416-2.079,1.6-2.047.007,0,.129.054.129.017a.577.577,0,0,0,.064.106c.129.686-1.053.691.69.919-.2.049-1.031.076-1.052.318,0-.015.051.1.043.1.029-.137.324-.09.324-.089-.011.076.019.152,0,.221-1.295.428-1.086.779-1.853-.109-.049-.056-.166.082-.223.082.606,0-2.178,2.022-2.054,1.705-.006.018.045.084.048.126a3.893,3.893,0,0,1-.837,2.224c.6-.034,3.921-2.568,3.921-.4.069.2-.57.091-.57.184a.109.109,0,0,0,.015.06,2.416,2.416,0,0,0,.331.207c-.029-.007.712-.922.566-.64.118-.142-.947-.708-.947-.991.1-.025-.026-.1,0-.13a.316.316,0,0,1,.12-.064c.164,0,1.613,1.825,1.745,1.635-.007.009.1-.167.087-.107,0,.014-.448-.485-.36-.485.068,0,.593-.2.617.008.063.448,0,.3.071.814.444-.156-.089.048.152.115-.1-.026,1.27-.129,1.27-.2a.142.142,0,0,1,.039.024c.63.722-3.072,1.246-3.905-.079-.915-1.477-6.24,2.977-4.646,4.9,2.408,2.882,3.6.551,4.963,4.522,1,2.818.848,8.474,3.633,2.431-.124-.78,2.986-6.3,2.72-6.716-.233-.317-3.708-1.186-3.238-3.657.123.284.3.612.378.134.387,6.221,4.621.62,3.511.62-.849,0-.93-.713-1.35-.713.052,0,.037-.095.073-.095.069,0,.112.02.152-.052.551.668,2.638,1.7,3.477,1.511-.394-.3.336,1.131.336.132-.054.015.7,2.912,1.042,2.912-.463,0,2.185-3.589,2.056-2.975.134.495.746,1.5.988,1.227Zm3.653-2.551c.04-.052-.078.1,0,0Zm-2.1-8.271h0C185.126,247.83,185.088,247.85,185.09,247.848Zm-7.505.724Z" transform="translate(-144.728 -246.155)" fill="#df6025"/>
              <path id="Path_894465" data-name="Path 894465" d="M193.937,250.3c.007.022,0,0,0,0Z" transform="translate(-149.105 -246.652)" fill="#df6025"/>
              <path id="Path_894466" data-name="Path 894466" d="M189.475,260.038c.119-.1-.6.531,0,0Z" transform="translate(-148.405 -248.099)" fill="#df6025"/>
              <path id="Path_894467" data-name="Path 894467" d="M194.516,250.675c-.2-.1.189.093,0,0Z" transform="translate(-149.182 -246.704)" fill="#df6025"/>
              <path id="Path_894468" data-name="Path 894468" d="M177.712,268.224c-.467-.831-.684.094-1.061.793-1.272,2.244,1.695.352,1.061-.793Z" transform="translate(-146.487 -249.269)" fill="#df6025"/>
              <path id="Path_894469" data-name="Path 894469" d="M184.056,262.683c-.553-1.206.526,1.062,0,0C184.051,262.676,184.068,262.708,184.056,262.683Z" transform="translate(-147.611 -248.44)" fill="#df6025"/>
              <path id="Path_894470" data-name="Path 894470" d="M186.166,261.776c-.061.1.329-.585,0,0Z" transform="translate(-147.948 -248.324)" fill="#df6025"/>
              <path id="Path_894471" data-name="Path 894471" d="M186.226,262.113c-.045-.188.04.162,0,0Z" transform="translate(-147.956 -248.401)" fill="#df6025"/>
              <path id="Path_894472" data-name="Path 894472" d="M186.256,262.45c0,.138.023,0,0,0Z" transform="translate(-147.963 -248.459)" fill="#df6025"/>
              <path id="Path_894473" data-name="Path 894473" d="M186.435,262.726Z" transform="translate(-147.988 -248.495)" fill="#df6025"/>
              <path id="Path_894474" data-name="Path 894474" d="M186.492,262.944c-.007.023.08.161,0,0Z" transform="translate(-147.998 -248.533)" fill="#df6025"/>
              <path id="Path_894475" data-name="Path 894475" d="M186.981,264.019c-.232-.159.3.209,0,0C186.974,264.015,187,264.032,186.981,264.019Z" transform="translate(-148.062 -248.686)" fill="#df6025"/>
              <path id="Path_894476" data-name="Path 894476" d="M187.269,264.365c-.205-.227.306.325,0,0Z" transform="translate(-148.106 -248.736)" fill="#df6025"/>
              <path id="Path_894477" data-name="Path 894477" d="M187.211,264.241c-.017-.116-.02-.13,0,0Z" transform="translate(-148.103 -248.712)" fill="#df6025"/>
              <path id="Path_894478" data-name="Path 894478" d="M187.466,264.754c-.026-.234.031.264,0,0C187.466,264.75,187.468,264.773,187.466,264.754Z" transform="translate(-148.142 -248.792)" fill="#df6025"/>
              <path id="Path_894479" data-name="Path 894479" d="M187.465,264.675Z" transform="translate(-148.141 -248.79)" fill="#df6025"/>
              <path id="Path_894480" data-name="Path 894480" d="M187.561,264.944c-.143-.117.163.083,0,0Z" transform="translate(-148.151 -248.824)" fill="#df6025"/>
              <path id="Path_894481" data-name="Path 894481" d="M187.753,265.269c-.4-.215.357.188,0,0Z" transform="translate(-148.167 -248.869)" fill="#df6025"/>
              <path id="Path_894482" data-name="Path 894482" d="M188.429,265.67c.02-.009.325-.679.328-.665s-.191-.192-.2-.21c.031.041-.09,0-.045,0-.032,0-.031.052-.054.068s.123.145.131.188c-.017,0-1.5-1.457-1.818-1.677C186.893,263.591,188.155,265.787,188.429,265.67Z" transform="translate(-148.039 -248.596)" fill="#df6025"/>
              <path id="Path_894483" data-name="Path 894483" d="M188.594,264.772Z" transform="translate(-148.309 -248.8)" fill="#df6025"/>
              <path id="Path_894484" data-name="Path 894484" d="M189.217,265.479c.313.1-.237-.083,0,0Z" transform="translate(-148.394 -248.906)" fill="#df6025"/>
              <path id="Path_894485" data-name="Path 894485" d="M189.5,266.519c.169.169.959.15.842.215a.979.979,0,0,0,.128-.113c-.108.291-.39-.673-.243-.293a6.78,6.78,0,0,0-1.394-.227.275.275,0,0,1-.067.093c-.08.093.025.019-.054.019a5.6,5.6,0,0,0,.787.307Z" transform="translate(-148.327 -249.002)" fill="#df6025"/>
              <path id="Path_894486" data-name="Path 894486" d="M191.113,266.844c-.047-.008-.564-.077,0,0C191.145,266.849,191.1,266.843,191.113,266.844Z" transform="translate(-148.646 -249.107)" fill="#df6025"/>
              <path id="Path_894487" data-name="Path 894487" d="M191.281,266.779c.1.19-.234-.41,0,0Z" transform="translate(-148.697 -249.081)" fill="#df6025"/>
              <path id="Path_894488" data-name="Path 894488" d="M191.959,266.817c.1-.048-.7.289,0,0Z" transform="translate(-148.768 -249.108)" fill="#df6025"/>
              <path id="Path_894489" data-name="Path 894489" d="M191.378,267.033Z" transform="translate(-148.724 -249.141)" fill="#df6025"/>
              <path id="Path_894490" data-name="Path 894490" d="M192.24,267.167c.993.173.046.011,0,0C192.254,267.169,192.234,267.165,192.24,267.167Z" transform="translate(-148.852 -249.16)" fill="#df6025"/>
              <path id="Path_894491" data-name="Path 894491" d="M192.3,264.592c1.006-.935-2.038,1.217-.789,1.217.042,0,.086-.028.135-.028a2.589,2.589,0,0,0-.008-.528c.034-.032.1-.047.123-.071-.016-.019.1.554.173.458.035-.047.04-.041.085-.071-.121.079.147-.781.162-.82a1.609,1.609,0,0,0-.473.141c0-.006,0-.015,0-.02C191.587,264.2,192.033,264.842,192.3,264.592Z" transform="translate(-148.698 -248.743)" fill="#df6025"/>
              <path id="Path_894492" data-name="Path 894492" d="M192.244,265.079Z" transform="translate(-148.851 -248.85)" fill="#df6025"/>
              <path id="Path_894493" data-name="Path 894493" d="M192.635,265.149h0C192.645,265.153,192.629,265.147,192.635,265.149Z" transform="translate(-148.892 -248.855)" fill="#df6025"/>
              <path id="Path_894494" data-name="Path 894494" d="M192.116,265.982c.025.036.315-.325-.041-.007.011,0,.022,0,.041.007C192.117,265.983,192.112,265.981,192.116,265.982Z" transform="translate(-148.828 -248.964)" fill="#df6025"/>
              <path id="Path_894495" data-name="Path 894495" d="M192.035,265.906Z" transform="translate(-148.815 -248.973)" fill="#df6025"/>
              <path id="Path_894496" data-name="Path 894496" d="M193.139,265.089c.2-.124-.035,0,0,0Z" transform="translate(-148.985 -248.843)" fill="#df6025"/>
              <path id="Path_894497" data-name="Path 894497" d="M193.092,264.777c-.06.156.4-.49.221-.49-.087,0-.06.141-.071.021C193.2,263.893,193.061,264.853,193.092,264.777Z" transform="translate(-148.978 -248.72)" fill="#df6025"/>
              <path id="Path_894498" data-name="Path 894498" d="M193.357,264.064c-.02-.065.072.271,0,0C193.356,264.06,193.359,264.071,193.357,264.064Z" transform="translate(-149.018 -248.698)" fill="#df6025"/>
              <path id="Path_894499" data-name="Path 894499" d="M193.087,265.521Z" transform="translate(-148.978 -248.898)" fill="#df6025"/>
              <path id="Path_894500" data-name="Path 894500" d="M193.292,265.47c.125.395-.056-.18,0,0Z" transform="translate(-149.007 -248.903)" fill="#df6025"/>
              <path id="Path_894501" data-name="Path 894501" d="M193.708,265.079c-.22-.119.1.054,0,0Z" transform="translate(-149.059 -248.844)" fill="#df6025"/>
              <path id="Path_894502" data-name="Path 894502" d="M193.749,264.806c.285-.18-.083.061,0,0C193.762,264.8,193.745,264.81,193.749,264.806Z" transform="translate(-149.075 -248.799)" fill="#df6025"/>
              <path id="Path_894503" data-name="Path 894503" d="M196.509,265.922a3.212,3.212,0,0,0-1.941-.549c-.387-.224-.084-.692-.679-.534-.164.025.069.025-.1.006-.016-.02.014.163.015.167,0-.015.475.24.467.159.027.326.576.337.576,1.22,0-.4,1.918.52,2.1.52a.378.378,0,0,0,.1-.113c0,.049-.834-1.023-.535-.876Z" transform="translate(-149.082 -248.81)" fill="#df6025"/>
              <path id="Path_894504" data-name="Path 894504" d="M194.656,265.059Z" transform="translate(-149.212 -248.847)" fill="#df6025"/>
              <path id="Path_894505" data-name="Path 894505" d="M194.4,266.125Z" transform="translate(-149.172 -249.006)" fill="#df6025"/>
              <path id="Path_894506" data-name="Path 894506" d="M193.911,266.413c-.16.048-.443.161,0,0C193.916,266.412,193.9,266.416,193.911,266.413Z" transform="translate(-149.065 -249.048)" fill="#df6025"/>
              <path id="Path_894507" data-name="Path 894507" d="M193.483,266.63Z" transform="translate(-149.033 -249.081)" fill="#df6025"/>
              <path id="Path_894508" data-name="Path 894508" d="M192.463,266.73c.215-.264-.032-.029,0,0Z" transform="translate(-148.885 -249.077)" fill="#df6025"/>
              <path id="Path_894509" data-name="Path 894509" d="M192.13,266.732c.037-.1.285-.146,0,0Z" transform="translate(-148.836 -249.082)" fill="#df6025"/>
              <path id="Path_894510" data-name="Path 894510" d="M197.215,266.028c.416.426.663-.378.642-.378C197.855,265.65,197.292,266.106,197.215,266.028Z" transform="translate(-149.592 -248.935)" fill="#df6025"/>
              <path id="Path_894511" data-name="Path 894511" d="M197.079,266.089Z" transform="translate(-149.567 -248.999)" fill="#df6025"/>
              <path id="Path_894512" data-name="Path 894512" d="M196.872,265.171c-.009.031.243.063,0,0Z" transform="translate(-149.541 -248.864)" fill="#df6025"/>
              <path id="Path_894513" data-name="Path 894513" d="M197.582,265.33c.128.1-.2-.192,0,0Z" transform="translate(-149.637 -248.878)" fill="#df6025"/>
              <path id="Path_894514" data-name="Path 894514" d="M197.757,265.393c.734.511.052.037,0,0Z" transform="translate(-149.671 -248.896)" fill="#df6025"/>
              <path id="Path_894515" data-name="Path 894515" d="M198.41,266.07c-.132.277.1-.316,0,0C198.4,266.084,198.411,266.068,198.41,266.07Z" transform="translate(-149.763 -248.983)" fill="#df6025"/>
              <path id="Path_894516" data-name="Path 894516" d="M198.78,266.356c.3.331-.2-.209,0,0Z" transform="translate(-149.818 -249.033)" fill="#df6025"/>
              <path id="Path_894517" data-name="Path 894517" d="M198.742,266.573c.124.087-.128-.092,0,0Z" transform="translate(-149.813 -249.068)" fill="#df6025"/>
              <path id="Path_894518" data-name="Path 894518" d="M198.948,266.563c-.146-.158.308.328,0,0Z" transform="translate(-149.845 -249.066)" fill="#df6025"/>
              <path id="Path_894519" data-name="Path 894519" d="M199.152,266.536c.164.425-.079-.2,0,0Z" transform="translate(-149.878 -249.061)" fill="#df6025"/>
              <path id="Path_894520" data-name="Path 894520" d="M199.366,266.91Z" transform="translate(-149.912 -249.122)" fill="#df6025"/>
              <path id="Path_894521" data-name="Path 894521" d="M199.535,266.785c-.048.447-.037-.217,0,0C199.535,266.8,199.529,266.745,199.535,266.785Z" transform="translate(-149.932 -249.097)" fill="#df6025"/>
              <path id="Path_894522" data-name="Path 894522" d="M199.675,267.107c.024.054.21.33,0,0Z" transform="translate(-149.958 -249.152)" fill="#df6025"/>
              <path id="Path_894523" data-name="Path 894523" d="M200.635,268.6c.058-.811-.335,0,0,0C200.638,268.56,200.634,268.6,200.635,268.6Z" transform="translate(-150.08 -249.319)" fill="#df6025"/>
              <path id="Path_894524" data-name="Path 894524" d="M199.263,266.829Z" transform="translate(-149.891 -249.11)" fill="#df6025"/>
              <path id="Path_894525" data-name="Path 894525" d="M197.508,266.69Z" transform="translate(-149.629 -249.09)" fill="#df6025"/>
              <path id="Path_894526" data-name="Path 894526" d="M198.09,266.876Z" transform="translate(-149.722 -249.113)" fill="#df6025"/>
              <path id="Path_894527" data-name="Path 894527" d="M197.61,267.107Z" transform="translate(-149.649 -249.152)" fill="#df6025"/>
              <path id="Path_894528" data-name="Path 894528" d="M197.568,266.994c-.039-.007-.04.014,0,0C197.572,266.995,197.548,267,197.568,266.994Z" transform="translate(-149.64 -249.135)" fill="#df6025"/>
              <path id="Path_894529" data-name="Path 894529" d="M197.527,266.827Z" transform="translate(-149.638 -249.107)" fill="#df6025"/>
              <path id="Path_894530" data-name="Path 894530" d="M197.7,266.758Z" transform="translate(-149.664 -249.095)" fill="#df6025"/>
              <path id="Path_894531" data-name="Path 894531" d="M199.815,269.411c-.157-.734-.079.017.184.446C200.316,270.357,199.851,269.525,199.815,269.411Z" transform="translate(-149.967 -249.448)" fill="#df6025"/>
              <path id="Path_894532" data-name="Path 894532" d="M190.441,265.192a10.761,10.761,0,0,0,.808-1.838c.007.022-.547-.433-.414-.45C188.51,263.1,190.473,265.368,190.441,265.192Z" transform="translate(-148.474 -248.527)" fill="#df6025"/>
              <path id="Path_894533" data-name="Path 894533" d="M191.153,263.013Z" transform="translate(-148.691 -248.543)" fill="#df6025"/>
              <path id="Path_894534" data-name="Path 894534" d="M191.319,262.963c0,.079,0,.086,0,0Z" transform="translate(-148.715 -248.535)" fill="#df6025"/>
              <path id="Path_894535" data-name="Path 894535" d="M191.117,262.444c-.125.145.722-.853,0,0Z" transform="translate(-148.683 -248.406)" fill="#df6025"/>
              <path id="Path_894536" data-name="Path 894536" d="M191.476,261.941c.124-.354-.087-.117,0,0Z" transform="translate(-148.736 -248.356)" fill="#df6025"/>
              <path id="Path_894537" data-name="Path 894537" d="M191.777,261.513c-.1-.418.132.512,0,0C191.773,261.5,191.778,261.517,191.777,261.513Z" transform="translate(-148.78 -248.303)" fill="#df6025"/>
              <path id="Path_894538" data-name="Path 894538" d="M191.965,261.823c.2.231-.1.285.083.541-.029-.041.158.064.083.064C192.633,262.428,191.991,261.852,191.965,261.823Z" transform="translate(-148.811 -248.366)" fill="#df6025"/>
              <path id="Path_894539" data-name="Path 894539" d="M192.413,262.231c-.22.314.009,0,0,0Z" transform="translate(-148.864 -248.427)" fill="#df6025"/>
              <path id="Path_894540" data-name="Path 894540" d="M192.69,263.039c-.1-.153.108-.863-.13-.863.1,0-.554.751-.539.751.054,0,.246-.2.243-.209A4.591,4.591,0,0,0,192.69,263.039Z" transform="translate(-148.82 -248.418)" fill="#df6025"/>
              <path id="Path_894541" data-name="Path 894541" d="M192.5,262.283Z" transform="translate(-148.876 -248.434)" fill="#df6025"/>
              <path id="Path_894542" data-name="Path 894542" d="M192.345,261.746c.49.538-.032-.033,0,0Z" transform="translate(-148.867 -248.353)" fill="#df6025"/>
              <path id="Path_894543" data-name="Path 894543" d="M191.7,260.244c-.916,0,.476,1.5.323,1.386.006-.213.11.031.157-.008S191.447,260.244,191.7,260.244Z" transform="translate(-148.725 -248.131)" fill="#df6025"/>
              <path id="Path_894544" data-name="Path 894544" d="M191.905,261.432c-.132-.082.128.087,0,0Z" transform="translate(-148.797 -248.304)" fill="#df6025"/>
              <path id="Path_894545" data-name="Path 894545" d="M192.362,261.388c.032-.253-.027.212,0,0C192.365,261.362,192.358,261.419,192.362,261.388Z" transform="translate(-148.869 -248.29)" fill="#df6025"/>
              <path id="Path_894546" data-name="Path 894546" d="M192.016,261.755Z" transform="translate(-148.814 -248.356)" fill="#df6025"/>
              <path id="Path_894547" data-name="Path 894547" d="M191.911,261.634Z" transform="translate(-148.799 -248.338)" fill="#df6025"/>
              <path id="Path_894548" data-name="Path 894548" d="M190.978,262.794Z" transform="translate(-148.665 -248.504)" fill="#df6025"/>
              <path id="Path_894549" data-name="Path 894549" d="M192.009,263.165Z" transform="translate(-148.811 -248.566)" fill="#df6025"/>
              <path id="Path_894550" data-name="Path 894550" d="M191.8,263.268Z" transform="translate(-148.787 -248.577)" fill="#df6025"/>
              <path id="Path_894551" data-name="Path 894551" d="M191.93,263.26Z" transform="translate(-148.806 -248.577)" fill="#df6025"/>
              <path id="Path_894552" data-name="Path 894552" d="M191.759,263.374Z" transform="translate(-148.781 -248.593)" fill="#df6025"/>
              <path id="Path_894553" data-name="Path 894553" d="M191.643,263.433Z" transform="translate(-148.757 -248.605)" fill="#df6025"/>
              <path id="Path_894554" data-name="Path 894554" d="M191.48,263.568Z" transform="translate(-148.739 -248.619)" fill="#df6025"/>
              <path id="Path_894555" data-name="Path 894555" d="M191.744,263.17Z" transform="translate(-148.779 -248.561)" fill="#df6025"/>
              <path id="Path_894556" data-name="Path 894556" d="M192.961,263.606Z" transform="translate(-148.956 -248.631)" fill="#df6025"/>
              <path id="Path_894557" data-name="Path 894557" d="M192.87,263.335Z" transform="translate(-148.942 -248.591)" fill="#df6025"/>
              <path id="Path_894558" data-name="Path 894558" d="M192.683,263.509Z" transform="translate(-148.918 -248.613)" fill="#df6025"/>
              <path id="Path_894559" data-name="Path 894559" d="M192.66,263.65Z" transform="translate(-148.91 -248.638)" fill="#df6025"/>
              <path id="Path_894560" data-name="Path 894560" d="M192.779,263.865Z" transform="translate(-148.933 -248.663)" fill="#df6025"/>
              <path id="Path_894561" data-name="Path 894561" d="M194.031,256.363Z" transform="translate(-149.119 -247.551)" fill="#df6025"/>
              <path id="Path_894562" data-name="Path 894562" d="M192.746,257.451Z" transform="translate(-148.922 -247.716)" fill="#df6025"/>
              <path id="Path_894563" data-name="Path 894563" d="M190.662,259.754Z" transform="translate(-148.613 -248.058)" fill="#df6025"/>
              <path id="Path_894564" data-name="Path 894564" d="M191.142,259.045c.325.877-.356-.982,0,0Z" transform="translate(-148.673 -247.909)" fill="#df6025"/>
              <path id="Path_894565" data-name="Path 894565" d="M192.233,256.818Z" transform="translate(-148.846 -247.622)" fill="#df6025"/>
              <path id="Path_894566" data-name="Path 894566" d="M192.39,256.6Z" transform="translate(-148.875 -247.588)" fill="#df6025"/>
              <path id="Path_894567" data-name="Path 894567" d="M192.494,257.123Z" transform="translate(-148.887 -247.667)" fill="#df6025"/>
              <path id="Path_894568" data-name="Path 894568" d="M192.792,256.01Z" transform="translate(-148.934 -247.496)" fill="#df6025"/>
              <path id="Path_894569" data-name="Path 894569" d="M194.288,254.18Z" transform="translate(-149.153 -247.23)" fill="#df6025"/>
              <path id="Path_894570" data-name="Path 894570" d="M194.8,253.314Z" transform="translate(-149.229 -247.101)" fill="#df6025"/>
              <path id="Path_894571" data-name="Path 894571" d="M194.776,253.188Z" transform="translate(-149.229 -247.08)" fill="#df6025"/>
              <path id="Path_894572" data-name="Path 894572" d="M194.714,252.54Z" transform="translate(-149.217 -246.986)" fill="#df6025"/>
              <path id="Path_894573" data-name="Path 894573" d="M193.082,253.825Z" transform="translate(-148.978 -247.173)" fill="#df6025"/>
              <path id="Path_894574" data-name="Path 894574" d="M193.134,253.878Z" transform="translate(-148.982 -247.185)" fill="#df6025"/>
              <path id="Path_894575" data-name="Path 894575" d="M193.55,255.58Z" transform="translate(-149.047 -247.429)" fill="#df6025"/>
              <path id="Path_894576" data-name="Path 894576" d="M193.708,256.169c.175-.029.332-1.431-.318-1.431-.012,0-.037.038-.079.038.886,0-1.037,1.7-1.028,1.651,0-.024.391.422.278.422a.105.105,0,0,1,.046,0c.041.009.059.053.083.053.148,0,.047-.7-.135-.6.628-.268.784-.06,1.154-.138Zm.055-.776c.049.082-.071.033,0,0C193.769,255.4,193.756,255.4,193.763,255.393Z" transform="translate(-148.859 -247.313)" fill="#df6025"/>
              <path id="Path_894577" data-name="Path 894577" d="M193.224,256.624c.074-.21-.2.562,0,0C193.232,256.6,193.22,256.637,193.224,256.624Z" transform="translate(-148.987 -247.587)" fill="#df6025"/>
              <path id="Path_894578" data-name="Path 894578" d="M193.926,254.171a3.546,3.546,0,0,1-.76-.36c-.014.1.147.833.238.833.011,0,.061-.088.089-.052.1,0-.166-.158-.174-.175C193.46,254.291,194.17,254.649,193.926,254.171Z" transform="translate(-148.99 -247.175)" fill="#df6025"/>
              <path id="Path_894579" data-name="Path 894579" d="M194.222,253.964c0,.522.034-.572,0,0Z" transform="translate(-149.147 -247.172)" fill="#df6025"/>
              <path id="Path_894580" data-name="Path 894580" d="M194.522,253.687c-.07.249.084-.215,0,0Z" transform="translate(-149.189 -247.148)" fill="#df6025"/>
              <path id="Path_894581" data-name="Path 894581" d="M194.741,253.432c.009.186.036-.092,0,0Z" transform="translate(-149.224 -247.116)" fill="#df6025"/>
              <path id="Path_894582" data-name="Path 894582" d="M194.8,252.931c.06-.048-.026-.021,0,0Z" transform="translate(-149.233 -247.04)" fill="#df6025"/>
              <path id="Path_894583" data-name="Path 894583" d="M196.29,270.122c.054.384-1.531-2.939-1.263-2.939-.381,0-.124,1.5-.591,1.5-.91,0-.371-1.118-.392-1.138a.618.618,0,0,1-.06-.1,7.257,7.257,0,0,0-.758-.136,4.6,4.6,0,0,0-1.541,1.33c-.332-.621-1.763,1.707-1.827,1.772.032.138-.139-.17-.164-.17.361,0-.135,1.792-.129,1.82-.1-.57,4.012.152,3.238.152.089,0,.389-.488.481-.438-.041.068-.374.5-.374.493.037.1.324-.183.313-.2.18.315-.361.19-.4.3-.259.839,3.713.466,3.467-2.241C196.289,270.118,196.293,270.147,196.29,270.122Z" transform="translate(-148.454 -249.163)" fill="#df6025"/>
              <path id="Path_894584" data-name="Path 894584" d="M194.775,268.036c.051-.093-.129.22,0,0C194.785,268.017,194.77,268.044,194.775,268.036Z" transform="translate(-149.222 -249.287)" fill="#df6025"/>
              <path id="Path_894585" data-name="Path 894585" d="M193.507,267.559Z" transform="translate(-149.04 -249.219)" fill="#df6025"/>
              <path id="Path_894586" data-name="Path 894586" d="M190.363,269.634Z" transform="translate(-148.571 -249.527)" fill="#df6025"/>
              <path id="Path_894587" data-name="Path 894587" d="M191.049,269.33Z" transform="translate(-148.675 -249.477)" fill="#df6025"/>
              <path id="Path_894588" data-name="Path 894588" d="M192.208,267.239Z" transform="translate(-148.848 -249.167)" fill="#df6025"/>
              <path id="Path_894589" data-name="Path 894589" d="M191.93,267.183Z" transform="translate(-148.802 -249.163)" fill="#df6025"/>
              <path id="Path_894590" data-name="Path 894590" d="M194.3,274.315c.253-.043-.074.011,0,0Z" transform="translate(-149.157 -250.221)" fill="#df6025"/>
              <path id="Path_894591" data-name="Path 894591" d="M194.813,274.428c-.222.032-.946-.035-.62.53.016.029.014,0,.031.032.005.01.045.037.056.05-.024-.028.123-.009.1-.009.271,0,.358-.592.433-.6Z" transform="translate(-149.13 -250.24)" fill="#df6025"/>
              <path id="Path_894592" data-name="Path 894592" d="M195.093,274.194c.018.055.089.294,0,0C195.09,274.188,195.094,274.2,195.093,274.194Z" transform="translate(-149.276 -250.205)" fill="#df6025"/>
              <path id="Path_894593" data-name="Path 894593" d="M197.533,275.916Z" transform="translate(-149.631 -250.461)" fill="#df6025"/>
              <path id="Path_894594" data-name="Path 894594" d="M197.568,275.845Z" transform="translate(-149.639 -250.451)" fill="#df6025"/>
              <path id="Path_894595" data-name="Path 894595" d="M197.376,275.747Z" transform="translate(-149.61 -250.436)" fill="#df6025"/>
              <path id="Path_894596" data-name="Path 894596" d="M200.378,273.57c-.57,0-.294-.674-.484-.674-.014,0-.079,0-.089.014-.884,1.36-.209,1.429-2.363,2.339l-.019.059C197.652,275.949,200.151,273.57,200.378,273.57Z" transform="translate(-149.623 -250.012)" fill="#df6025"/>
              <path id="Path_894597" data-name="Path 894597" d="M193.546,248.19c.552.277.11.054,0,0C193.56,248.2,193.54,248.187,193.546,248.19Z" transform="translate(-149.046 -246.339)" fill="#df6025"/>
              <path id="Path_894598" data-name="Path 894598" d="M187.957,247.313c1.123.174.155-.167,0,0Z" transform="translate(-148.216 -246.202)" fill="#df6025"/>
              <path id="Path_894599" data-name="Path 894599" d="M187.765,247.591c-.34-.185.742.4,0,0Z" transform="translate(-148.177 -246.244)" fill="#df6025"/>
              <path id="Path_894600" data-name="Path 894600" d="M187.6,247.62c.078-.135-.075.132,0,0C187.606,247.611,187.6,247.628,187.6,247.62Z" transform="translate(-148.159 -246.248)" fill="#df6025"/>
              <path id="Path_894601" data-name="Path 894601" d="M186.953,247.565c-.276-.157.132.08,0,0C186.947,247.563,186.961,247.571,186.953,247.565Z" transform="translate(-148.052 -246.238)" fill="#df6025"/>
              <path id="Path_894602" data-name="Path 894602" d="M186.493,247.3c.132.212-.063-.11,0,0C186.5,247.309,186.489,247.29,186.493,247.3Z" transform="translate(-147.996 -246.203)" fill="#df6025"/>
              <path id="Path_894603" data-name="Path 894603" d="M186.691,247.273c-.052.209.971.221.971.06a.217.217,0,0,0,0-.041C187.6,247.158,186.7,247.218,186.691,247.273Z" transform="translate(-148.027 -246.194)" fill="#df6025"/>
              <path id="Path_894604" data-name="Path 894604" d="M187.887,247.146Z" transform="translate(-148.205 -246.184)" fill="#df6025"/>
              <path id="Path_894605" data-name="Path 894605" d="M188.613,247.226Z" transform="translate(-148.31 -246.196)" fill="#df6025"/>
              <path id="Path_894606" data-name="Path 894606" d="M179.963,246.535c-.044-.014.986.329,1.079.19.04-.058-.093-.112-.078-.143.136-.247-1.261-.12-1-.047Z" transform="translate(-147.022 -246.078)" fill="#df6025"/>
              <path id="Path_894607" data-name="Path 894607" d="M181.345,246.823c.09-.193.215-.482,0,0C181.34,246.836,181.348,246.815,181.345,246.823Z" transform="translate(-147.232 -246.097)" fill="#df6025"/>
              <path id="Path_894608" data-name="Path 894608" d="M181.028,247.111Z" transform="translate(-147.185 -246.176)" fill="#df6025"/>
              <path id="Path_894609" data-name="Path 894609" d="M181.193,247.035Z" transform="translate(-147.21 -246.165)" fill="#df6025"/>
              <path id="Path_894610" data-name="Path 894610" d="M181.114,247.111Z" transform="translate(-147.198 -246.175)" fill="#df6025"/>
              <path id="Path_894611" data-name="Path 894611" d="M181.173,247.111Z" transform="translate(-147.207 -246.176)" fill="#df6025"/>
              <path id="Path_894612" data-name="Path 894612" d="M181.349,247.139Z" transform="translate(-147.224 -246.183)" fill="#df6025"/>
              <path id="Path_894613" data-name="Path 894613" d="M182.192,246.825Z" transform="translate(-147.354 -246.136)" fill="#df6025"/>
              <path id="Path_894614" data-name="Path 894614" d="M182.23,246.834Z" transform="translate(-147.364 -246.135)" fill="#df6025"/>
              <path id="Path_894615" data-name="Path 894615" d="M182.537,247.017Z" transform="translate(-147.405 -246.165)" fill="#df6025"/>
              <path id="Path_894616" data-name="Path 894616" d="M180.15,247.042Z" transform="translate(-147.055 -246.165)" fill="#df6025"/>
              <path id="Path_894617" data-name="Path 894617" d="M180.282,246.987Z" transform="translate(-147.074 -246.158)" fill="#df6025"/>
              <path id="Path_894618" data-name="Path 894618" d="M180.584,246.839Z" transform="translate(-147.119 -246.134)" fill="#df6025"/>
              <path id="Path_894619" data-name="Path 894619" d="M179.732,246.406Z" transform="translate(-146.979 -246.074)" fill="#df6025"/>
              <path id="Path_894620" data-name="Path 894620" d="M179.441,247.3Z" transform="translate(-146.944 -246.207)" fill="#df6025"/>
              <path id="Path_894621" data-name="Path 894621" d="M179.556,247.271Z" transform="translate(-146.958 -246.202)" fill="#df6025"/>
              <path id="Path_894622" data-name="Path 894622" d="M179.556,247.412Z" transform="translate(-146.957 -246.223)" fill="#df6025"/>
              <path id="Path_894623" data-name="Path 894623" d="M179.266,247.508Z" transform="translate(-146.923 -246.234)" fill="#df6025"/>
              <path id="Path_894624" data-name="Path 894624" d="M178.944,247.72Z" transform="translate(-146.869 -246.269)" fill="#df6025"/>
              <path id="Path_894625" data-name="Path 894625" d="M179.071,247.74Z" transform="translate(-146.885 -246.272)" fill="#df6025"/>
              <path id="Path_894626" data-name="Path 894626" d="M178.829,247.831Z" transform="translate(-146.85 -246.286)" fill="#df6025"/>
              <path id="Path_894627" data-name="Path 894627" d="M179.757,247.589Z" transform="translate(-146.996 -246.247)" fill="#df6025"/>
              <path id="Path_894628" data-name="Path 894628" d="M179.835,247.589Z" transform="translate(-147.008 -246.247)" fill="#df6025"/>
              <path id="Path_894629" data-name="Path 894629" d="M180.117,247.595Z" transform="translate(-147.05 -246.248)" fill="#df6025"/>
              <path id="Path_894630" data-name="Path 894630" d="M180.22,247.564Z" transform="translate(-147.065 -246.244)" fill="#df6025"/>
              <path id="Path_894631" data-name="Path 894631" d="M179.274,247.023Z" transform="translate(-146.918 -246.166)" fill="#df6025"/>
              <path id="Path_894632" data-name="Path 894632" d="M178.45,246.438Z" transform="translate(-146.791 -246.079)" fill="#df6025"/>
              <path id="Path_894633" data-name="Path 894633" d="M178.276,246.662Z" transform="translate(-146.763 -246.112)" fill="#df6025"/>
              <path id="Path_894634" data-name="Path 894634" d="M176.606,247.151a1.07,1.07,0,0,0-.815.694c0,.021.574.444.8.262-.171.134-.565-.709.032-.709C177.43,247.153,177.493,247.038,176.606,247.151Z" transform="translate(-146.407 -246.178)" fill="#df6025"/>
              <path id="Path_894635" data-name="Path 894635" d="M175.518,248.594c.081.306-.077-.327,0,0C175.521,248.6,175.517,248.586,175.518,248.594Z" transform="translate(-146.363 -246.385)" fill="#df6025"/>
              <path id="Path_894636" data-name="Path 894636" d="M175.207,246.477c.062.008,1.368.014,1.347-.112a.026.026,0,0,1-.013-.031C176.383,246.016,175.24,246.482,175.207,246.477Z" transform="translate(-146.32 -246.047)" fill="#df6025"/>
              <path id="Path_894637" data-name="Path 894637" d="M176.237,246.29Z" transform="translate(-146.473 -246.057)" fill="#df6025"/>
              <path id="Path_894638" data-name="Path 894638" d="M174.285,246.441c-.016-.063.743.176.755.088s-.129-.02-.133-.024C175.24,246.505,174.255,246.246,174.285,246.441Z" transform="translate(-146.183 -246.068)" fill="#df6025"/>
              <path id="Path_894639" data-name="Path 894639" d="M175.369,246.365Z" transform="translate(-146.339 -246.068)" fill="#df6025"/>
              <path id="Path_894640" data-name="Path 894640" d="M171.513,251.017c.047-.031-.282.295,0,0Z" transform="translate(-145.754 -246.759)" fill="#df6025"/>
              <path id="Path_894641" data-name="Path 894641" d="M170.861,251.61c.109.092-.073-.046,0,0Z" transform="translate(-145.671 -246.846)" fill="#df6025"/>
            </g>
          </g>
          <rect id="Rectangle_405419" data-name="Rectangle 405419" width="8.566" height="1.33" rx="0.505" transform="translate(25.939 37.84)" fill="#706f6f"/>
        </g>
        <g id="Group_1103644" data-name="Group 1103644" transform="translate(163.185 254.369)">
          <rect id="Rectangle_405420" data-name="Rectangle 405420" width="5.313" height="26.532" rx="2.656" transform="translate(6.695)" fill="#fac48e"/>
          <rect id="Rectangle_405421" data-name="Rectangle 405421" width="5.313" height="15.057" rx="2.656" transform="translate(12.008 11.474)" fill="#fac48e"/>
          <path id="Path_894642" data-name="Path 894642" d="M178.932,299.124l-.055.019a2.767,2.767,0,0,1-3.507-2.06,86.576,86.576,0,0,0-7.012-17.219,2.95,2.95,0,0,1,1.1-3.9l.049-.029a2.75,2.75,0,0,1,3.873,1.113,92.168,92.168,0,0,1,7.465,18.013A3.335,3.335,0,0,1,178.932,299.124Z" transform="translate(-168.019 -259.94)" fill="#fac48e"/>
          <rect id="Rectangle_405422" data-name="Rectangle 405422" width="5.313" height="13.473" rx="2.656" transform="translate(17.32 13.059)" fill="#fac48e"/>
          <rect id="Rectangle_405423" data-name="Rectangle 405423" width="4.719" height="11.966" rx="2.359" transform="translate(22.633 14.566)" fill="#fac48e"/>
          <path id="Path_894643" data-name="Path 894643" d="M188.8,303.96h-5.181a7.738,7.738,0,0,1-7.738-7.738v-6.328h20.656v6.328A7.738,7.738,0,0,1,188.8,303.96Z" transform="translate(-169.188 -262.075)" fill="#ffcf9f"/>
          <rect id="Rectangle_405424" data-name="Rectangle 405424" width="14.521" height="14.067" transform="translate(9.763 35.446)" fill="#ffcf9f"/>
          <path id="Path_894644" data-name="Path 894644" d="M196.539,289.452v-4.706a2.335,2.335,0,0,0-2.335-2.335h-.048a2.336,2.336,0,0,0-2.336,2.335v-.856a2.629,2.629,0,0,0-2.629-2.63h-.054a2.63,2.63,0,0,0-2.63,2.63V283.1a2.63,2.63,0,0,0-2.63-2.63h-.054a2.63,2.63,0,0,0-2.63,2.63,2.63,2.63,0,0,0-2.63-2.63h-.053a2.63,2.63,0,0,0-2.63,2.63v6.353Z" transform="translate(-169.188 -260.673)" fill="#ffcf9f"/>
          <rect id="Rectangle_405425" data-name="Rectangle 405425" width="17.637" height="7.033" transform="translate(8.234 42.479)" fill="#7d3a1b"/>
        </g>
      </g>
    </g>
  </g>
</svg>
