<svg xmlns="http://www.w3.org/2000/svg" width="70" height="70" viewBox="0 0 70 70">
  <g id="Group_1104220" data-name="Group 1104220" transform="translate(-919.625 -1085)">
    <g id="Group_1102838" data-name="Group 1102838" transform="translate(651 127.029)">
      <circle id="Ellipse_5614" data-name="Ellipse 5614" cx="35" cy="35" r="35" transform="translate(268.625 957.971)" fill="#fff"/>
      <g id="Group_1103139" data-name="Group 1103139" transform="translate(-3027.11 -1055.606)">
        <path id="Subtraction_107" data-name="Subtraction 107" d="M1235.7,12664.509h-.226a17.967,17.967,0,0,1,.219-35.932c.078,0,.153,0,.232,0a17.988,17.988,0,0,1,17.742,18.19,17.725,17.725,0,0,1-2.044,8.047l-2.012-.632c.089-.162.121-.265.1-.306a.049.049,0,0,0-.044-.022,1.009,1.009,0,0,0-.407.213l-6.707-2.111a5.564,5.564,0,0,0,.119-1.143,5.208,5.208,0,0,0-2.438-4.635,12.324,12.324,0,0,0-4-1.383l-.015,0c-3.055-.677-3.592-1.051-3.592-2.5,0-1.256,1.409-2.317,3.077-2.317a3.167,3.167,0,0,1,2.924,1.611,1.945,1.945,0,1,0,3.566-1.557,6.638,6.638,0,0,0-4.545-3.7v-1.252a1.945,1.945,0,1,0-3.89,0v1.258a6.384,6.384,0,0,0-5.022,5.96,5.41,5.41,0,0,0,2.495,4.847,12.283,12.283,0,0,0,4.125,1.449l.02,0c2.892.642,3.4.974,3.4,2.222s-1.407,2.32-3.073,2.32a3.18,3.18,0,0,1-2.9-1.555,1.946,1.946,0,0,0-3.509,1.682,6.718,6.718,0,0,0,4.463,3.515v1.233a1.945,1.945,0,1,0,3.89,0v-1.233a7.032,7.032,0,0,0,3.532-2.132l1.719,5.842c-.024.057-.028.1-.013.114a.053.053,0,0,0,.051.022l.566,1.919.286-.175.051.169A17.706,17.706,0,0,1,1235.7,12664.509Z" transform="translate(2091.001 -10602)" fill="#7a4f00" stroke="rgba(0,0,0,0)" stroke-miterlimit="10" stroke-width="1"/>
        <path id="Path_893663" data-name="Path 893663" d="M3487.472,2192.569a1.725,1.725,0,0,0-1.135-1.53l-16.762-6.066-.025-.007a1.683,1.683,0,0,0-.194-.055l-.024-.006a1.747,1.747,0,0,0-.212-.029l-.055,0a1.689,1.689,0,0,0-.176,0l-.043,0a1.716,1.716,0,0,0-.211.031l-.039.01a1.765,1.765,0,0,0-.178.052l-.039.014a1.734,1.734,0,0,0-.2.091l-.012.007a1.713,1.713,0,0,0-.172.108l-.044.033a1.674,1.674,0,0,0-.148.126c-.006.006-.013.01-.018.015l0,0-.007.006a1.735,1.735,0,0,0-.139.159c-.011.013-.021.028-.031.042a1.749,1.749,0,0,0-.1.151l-.022.037a1.709,1.709,0,0,0-.094.2c0,.007,0,.015-.008.022a1.659,1.659,0,0,0-.058.184c0,.016-.009.033-.012.05a1.636,1.636,0,0,0-.035.212.026.026,0,0,0,0,.006,1.827,1.827,0,0,0-.006.207c0,.02,0,.039,0,.058a1.723,1.723,0,0,0,.022.194l0,.02a1.736,1.736,0,0,0,.056.214c0,.007,0,.013.005.02l5.679,16.8a1.724,1.724,0,0,0,1.491,1.166c.048,0,.1.006.143.006a1.724,1.724,0,0,0,1.52-.91l2.77-5.169,3.7,3.708a1.724,1.724,0,0,0,2.443-2.435l-3.634-3.646,5.043-2.456A1.725,1.725,0,0,0,3487.472,2192.569Z" transform="translate(-133.753 -133.554)" fill="#7a4f00"/>
      </g>
    </g>
  </g>
</svg>
