<svg xmlns="http://www.w3.org/2000/svg" xmlns:xlink="http://www.w3.org/1999/xlink" width="121" height="121" viewBox="0 0 121 121">
  <defs>
    <clipPath id="clip-path">
      <rect id="Rectangle_400938" data-name="Rectangle 400938" width="121" height="121" transform="translate(0 0)" fill="none"/>
    </clipPath>
    <clipPath id="clip-path-2">
      <rect id="Rectangle_401073" data-name="Rectangle 401073" width="92.219" height="41.532" fill="#efb499"/>
    </clipPath>
  </defs>
  <g id="Group_1104224" data-name="Group 1104224" transform="translate(-623.582 9362.242)">
    <g id="Group_1102818" data-name="Group 1102818" transform="translate(235.914 -15375.242)">
      <rect id="Rectangle_401103" data-name="Rectangle 401103" width="121" height="121" transform="translate(387.668 6013)" fill="none"/>
      <g id="Group_1099348" data-name="Group 1099348" transform="translate(387.668 6013)">
        <g id="Group_1099282" data-name="Group 1099282">
          <g id="Group_1099281" data-name="Group 1099281" clip-path="url(#clip-path-2)">
            <path id="Path_873375" data-name="Path 873375" d="M74.8,9.1c-4.139,0-6.28-2.03-8.17-3.821-1.855-1.756-3.452-3.274-6.792-3.274s-4.937,1.517-6.792,3.274C51.161,7.072,49.023,9.1,44.881,9.1s-6.28-2.03-8.169-3.821C34.857,3.525,33.26,2.007,29.92,2.007s-4.937,1.517-6.789,3.274C21.241,7.072,19.1,9.1,14.962,9.1S8.679,7.072,6.789,5.281C4.937,3.525,3.34,2.007,0,2.007V0C4.139,0,6.28,2.033,8.17,3.821c1.855,1.759,3.452,3.274,6.792,3.274S19.9,5.58,21.75,3.824C23.637,2.033,25.781,0,29.92,0s6.283,2.033,8.17,3.821c1.855,1.759,3.452,3.274,6.792,3.274s4.937-1.514,6.792-3.274C53.56,2.033,55.7,0,59.843,0s6.283,2.033,8.17,3.821C69.867,5.58,71.464,7.094,74.8,7.094S79.742,5.58,81.6,3.821C83.483,2.033,85.624,0,89.766,0V2.007c-3.34,0-4.937,1.517-6.792,3.274C81.084,7.072,78.943,9.1,74.8,9.1" transform="translate(2.453 32.43)" fill="#efb499"/>
            <path id="Path_873376" data-name="Path 873376" d="M74.8,9.1c-4.139,0-6.283-2.03-8.17-3.824-1.855-1.756-3.452-3.27-6.792-3.27s-4.937,1.514-6.792,3.27C51.164,7.072,49.023,9.1,44.881,9.1s-6.283-2.03-8.17-3.824c-1.855-1.756-3.452-3.27-6.792-3.27s-4.937,1.517-6.789,3.27C21.241,7.072,19.1,9.1,14.962,9.1S8.679,7.072,6.789,5.278C4.937,3.522,3.34,2.007,0,2.007V0C4.139,0,6.283,2.03,8.17,3.821c1.855,1.759,3.452,3.274,6.792,3.274S19.9,5.58,21.75,3.821C23.637,2.03,25.781,0,29.92,0S36.2,2.03,38.093,3.821c1.852,1.759,3.449,3.274,6.789,3.274s4.937-1.514,6.792-3.274C53.56,2.03,55.7,0,59.843,0s6.283,2.03,8.17,3.821C69.867,5.58,71.464,7.094,74.8,7.094S79.742,5.58,81.6,3.821C83.486,2.03,85.627,0,89.769,0V2.007c-3.34,0-4.94,1.517-6.8,3.27C81.084,7.072,78.943,9.1,74.8,9.1" transform="translate(1.635 21.62)" fill="#efb499"/>
            <path id="Path_873377" data-name="Path 873377" d="M74.8,9.1c-4.139,0-6.283-2.03-8.169-3.824-1.855-1.756-3.452-3.27-6.792-3.27s-4.937,1.514-6.792,3.27C51.164,7.072,49.02,9.1,44.881,9.1s-6.283-2.03-8.17-3.824c-1.855-1.756-3.452-3.27-6.792-3.27s-4.937,1.517-6.789,3.27C21.241,7.072,19.1,9.1,14.962,9.1S8.678,7.072,6.789,5.278C4.937,3.522,3.34,2.007,0,2.007V0C4.139,0,6.283,2.03,8.169,3.821c1.851,1.759,3.452,3.274,6.792,3.274S19.9,5.58,21.75,3.821C23.637,2.03,25.781,0,29.92,0S36.2,2.03,38.093,3.821c1.852,1.759,3.449,3.274,6.789,3.274s4.937-1.514,6.792-3.274C53.56,2.03,55.7,0,59.843,0s6.283,2.03,8.17,3.821C69.867,5.58,71.464,7.094,74.8,7.094S79.742,5.58,81.6,3.821C83.486,2.03,85.624,0,89.769,0V2.007c-3.34,0-4.941,1.517-6.8,3.27C81.084,7.072,78.943,9.1,74.8,9.1" transform="translate(0.818 10.81)" fill="#efb499"/>
            <path id="Path_873378" data-name="Path 873378" d="M74.8,9.1c-4.139,0-6.28-2.03-8.17-3.821-1.855-1.756-3.452-3.27-6.792-3.27s-4.937,1.514-6.789,3.27C51.164,7.069,49.023,9.1,44.881,9.1s-6.28-2.03-8.169-3.821c-1.855-1.756-3.452-3.27-6.792-3.27s-4.937,1.514-6.789,3.267C21.245,7.069,19.1,9.1,14.962,9.1S8.678,7.069,6.789,5.278C4.937,3.522,3.34,2.007,0,2.007V0C4.139,0,6.283,2.03,8.17,3.821c1.855,1.756,3.452,3.27,6.792,3.27S19.9,5.577,21.75,3.821C23.64,2.03,25.781,0,29.92,0s6.28,2.03,8.173,3.821c1.852,1.756,3.449,3.27,6.789,3.27s4.937-1.514,6.792-3.27C53.563,2.03,55.7,0,59.843,0s6.28,2.03,8.17,3.821c1.855,1.756,3.452,3.27,6.792,3.27s4.937-1.514,6.792-3.27C83.486,2.03,85.627,0,89.769,0V2.007c-3.344,0-4.941,1.514-6.8,3.27C81.084,7.069,78.943,9.1,74.8,9.1" transform="translate(0 0.003)" fill="#efb499"/>
          </g>
        </g>
      </g>
      <circle id="Ellipse_11504" data-name="Ellipse 11504" cx="50.5" cy="50.5" r="50.5" transform="translate(402.668 6031)" fill="#ffce73"/>
      <circle id="Ellipse_11503" data-name="Ellipse 11503" cx="52.5" cy="52.5" r="52.5" transform="translate(395.668 6021)" fill="#f3f9ff"/>
    </g>
    <g id="Group_1102819" data-name="Group 1102819" transform="translate(649.523 -9336.438)">
      <rect id="Rectangle_401104" data-name="Rectangle 401104" width="68" height="69" transform="translate(0.477 -0.562)" fill="none"/>
      <g id="Group_1103713" data-name="Group 1103713" transform="translate(-540.248 -88.58)">
        <path id="Path_894792" data-name="Path 894792" d="M593.528,111.154l-2.525.96c.1,2.549-.416,3.3-2.755,4.226a1.156,1.156,0,0,0-.523.654,3.513,3.513,0,0,1-3.578,2.533,1.4,1.4,0,0,0-.961.523,3.473,3.473,0,0,1-3.029,1.579c-.308,0-.8.06-.9.253-1.168,2.219-3.065,1.986-5.031,1.571a.73.73,0,0,1-.194-.08,2.061,2.061,0,0,0-2.8.513c-1.668,1.662-3.89,1.067-5.348-1.293a3.531,3.531,0,0,1-4.191-2.119,3.477,3.477,0,0,1-4.017-1.748.769.769,0,0,0-.42-.26c-3.351-1.1-4.01-3.257-1.753-6.079l-.935-.6c-1.028,1.687-1.168,1.724-2.811.784-2.038-1.166-4.078-2.327-6.11-3.5-1.037-.6-1.142-.96-.6-2.047q3.985-7.994,7.983-15.982c.579-1.157.994-1.27,2.161-.606Q558.3,92.2,561.4,93.977c1.394.8,1.443.948.828,2.446a1.659,1.659,0,0,0,2.449.2,21.393,21.393,0,0,1,2.516-1.524,5.874,5.874,0,0,1,6.278.121,3.25,3.25,0,0,0,1.4.272,33.726,33.726,0,0,1,3.927.21,32.663,32.663,0,0,1,4.751,1.317,3.081,3.081,0,0,0,2.749-.31c-.124-.295-.23-.579-.361-.852a1.055,1.055,0,0,1,.447-1.529c2.4-1.385,4.8-2.765,7.211-4.116.941-.526,1.406.087,1.786.851q2.833,5.692,5.68,11.378,1.126,2.257,2.246,4.517c.586,1.186.488,1.511-.684,2.183q-3.145,1.805-6.3,3.595c-1.278.726-1.64.616-2.3-.671C593.883,111.793,593.729,111.523,593.528,111.154Zm-23.657,5.337a3.609,3.609,0,0,1,3.9,1.408l1.093-1.31a22.726,22.726,0,0,0,2.382,1.753,12.176,12.176,0,0,0,2.779,1.123c.761.2,1.36-.182,1.524-1.135l-4.789-3.219,1.208-1.719,2.992,1.987c.905.6,1.793,1.23,2.721,1.795a1.271,1.271,0,0,0,1.842-.406c.507-.7.1-1.111-.466-1.545-1.387-1.06-2.731-2.176-4.148-3.314l1.322-1.633c1.515,1.207,2.958,2.371,4.417,3.514.634.5,1.356.734,1.969.031.646-.741.187-1.339-.4-1.891q-4.6-4.322-9.193-8.658c-.172-.161-.373-.291-.6-.464-1.06.875-2.067,1.745-3.114,2.562a6.111,6.111,0,0,1-5.72,1.263,4.853,4.853,0,0,1-2.215-1.449,2.9,2.9,0,0,1,.482-3.99c1.4-1.406,2.847-2.767,4.347-4.218a3.605,3.605,0,0,0-3.723-.158,17.347,17.347,0,0,0-2.524,1.512c-1.457,1.137-2.887,1.457-4.441.244a1.245,1.245,0,0,0-.364-.1l-5.643,11.3c.863.7,1.5,1.2,2.653.564a3.1,3.1,0,0,1,3.953,1.242c.167.231.422.517.669.552a3.673,3.673,0,0,1,2.87,2.224A3.538,3.538,0,0,1,569.87,116.491Zm22.738-7.266L587.363,98.74c-1.319.255-2.4,1.016-3.759.534-1.776-.632-3.613-1.089-5.426-1.615a4.676,4.676,0,0,0-4.868,1.083q-1.964,1.9-3.867,3.863c-.818.838-.615,1.609.5,1.958a4.309,4.309,0,0,0,4.207-.967c1.535-1.257,3.053-2.535,4.441-3.689,3.505,3.321,6.926,6.578,10.376,9.8a1.529,1.529,0,0,0,1.143.427A19.476,19.476,0,0,0,592.608,109.225ZM560.165,95.715l-5.522-3.167L547.169,107.5l5.526,3.161ZM601.222,107.5l-7.473-14.949-5.528,3.159,7.473,14.948Zm-33.237,9.976c-.239-.313-.425-.8-.734-.9a1.682,1.682,0,0,0-1.328.144,15,15,0,0,0-1.879,1.828,1.156,1.156,0,1,0,1.633,1.637c.641-.6,1.256-1.222,1.853-1.863A4.246,4.246,0,0,0,567.985,117.479Zm1.206,5.172c.053-.016.224-.017.313-.1a30.691,30.691,0,0,0,2.414-2.455,1.237,1.237,0,0,0-.2-1.194c-.291-.259-1.039-.433-1.278-.246a13.6,13.6,0,0,0-2.38,2.336C567.528,121.676,568.231,122.693,569.191,122.651Zm-8.825-9.584a1.013,1.013,0,0,0-1.565-.73,12.881,12.881,0,0,0-2.273,2.3c-.2.267.027,1.073.313,1.425.382.47.917.319,1.319-.2.621-.8,1.288-1.57,1.928-2.358A3.74,3.74,0,0,0,560.365,113.067Zm2.2,1.047a6.826,6.826,0,0,0-.755.642c-.595.689-1.164,1.4-1.745,2.1-.313.378-.788.844-.181,1.211a1.649,1.649,0,0,0,1.468.051,9.82,9.82,0,0,0,2-1.989,1.555,1.555,0,0,0,.1-1.242C563.366,114.6,562.931,114.412,562.567,114.114Zm11.694,4.707-.25,2.21c1.477.8,2.689.766,3.2-.106Z" transform="translate(0 0)" fill="#6a4d23"/>
        <path id="Path_894793" data-name="Path 894793" d="M578.195,260.148h26.512c1.656,0,1.863.217,1.832,1.9a28.4,28.4,0,0,1-55.772,6.7,42.54,42.54,0,0,1-1.032-6.942c-.146-1.356.239-1.649,1.632-1.65Q564.781,260.145,578.195,260.148ZM562.383,262.3a28.215,28.215,0,0,0,3.167,12.083,1.3,1.3,0,0,0,.99.487c2.839.038,5.679.022,8.519.022h1.925V262.3Zm16.877-.007v12.6c3.614,0,7.151.017,10.687-.031a1.213,1.213,0,0,0,.86-.682c.874-2.392,1.786-4.779,2.473-7.227a34.248,34.248,0,0,0,.664-4.658Zm25.146.033H596a32.145,32.145,0,0,1-3.135,12.565c2.521,0,4.867.016,7.213-.022a1.121,1.121,0,0,0,.791-.492A25.71,25.71,0,0,0,604.406,262.328Zm-41,12.565a32.133,32.133,0,0,1-3.168-12.562h-8.395a25.633,25.633,0,0,0,3.536,12.026,1.228,1.228,0,0,0,.884.513C558.574,274.913,560.885,274.894,563.406,274.894ZM573.8,286.965a4.536,4.536,0,0,0-.365-.319,32.121,32.121,0,0,1-8.543-9.013,1.614,1.614,0,0,0-1.152-.6c-1.888-.062-3.78-.031-5.67-.024-.253,0-.506.055-.9.1A25.4,25.4,0,0,0,573.8,286.965Zm8.5.109c5.5-.247,15.4-6.326,16.57-10.066-2.112,0-4.211.027-6.308-.016a1.335,1.335,0,0,0-1.324.755,29.939,29.939,0,0,1-6.382,7.334C584.081,285.725,583.268,286.317,582.3,287.074Zm-5.276-10.008h-9.909a29.977,29.977,0,0,0,9.909,9.408Zm2.215,9.43a30.2,30.2,0,0,0,9.89-9.42h-9.89Z" transform="translate(-3.933 -134.318)" fill="#6a4d23"/>
      </g>
    </g>
  </g>
</svg>
