<svg xmlns="http://www.w3.org/2000/svg" xmlns:xlink="http://www.w3.org/1999/xlink" width="121" height="121" viewBox="0 0 121 121">
  <defs>
    <clipPath id="clip-path">
      <rect id="Rectangle_400938" data-name="Rectangle 400938" width="121" height="121" transform="translate(0 0)" fill="none"/>
    </clipPath>
    <clipPath id="clip-path-2">
      <rect id="Rectangle_401073" data-name="Rectangle 401073" width="92.219" height="41.532" fill="#efb499"/>
    </clipPath>
  </defs>
  <g id="Group_1104219" data-name="Group 1104219" transform="translate(-13184.871 8992.13)">
    <g id="Group_1104201" data-name="Group 1104201">
      <g id="Group_1103076" data-name="Group 1103076" transform="translate(12797.203 -15005.13)">
        <rect id="Rectangle_401103" data-name="Rectangle 401103" width="121" height="121" transform="translate(387.668 6013)" fill="none"/>
        <g id="Group_1099348" data-name="Group 1099348" transform="translate(387.668 6013)">
          <g id="Group_1099282" data-name="Group 1099282">
            <g id="Group_1099281" data-name="Group 1099281" clip-path="url(#clip-path-2)">
              <path id="Path_873375" data-name="Path 873375" d="M74.8,9.1c-4.139,0-6.28-2.03-8.17-3.821-1.855-1.756-3.452-3.274-6.792-3.274s-4.937,1.517-6.792,3.274C51.161,7.072,49.023,9.1,44.881,9.1s-6.28-2.03-8.169-3.821C34.857,3.525,33.26,2.007,29.92,2.007s-4.937,1.517-6.789,3.274C21.241,7.072,19.1,9.1,14.962,9.1S8.679,7.072,6.789,5.281C4.937,3.525,3.34,2.007,0,2.007V0C4.139,0,6.28,2.033,8.17,3.821c1.855,1.759,3.452,3.274,6.792,3.274S19.9,5.58,21.75,3.824C23.637,2.033,25.781,0,29.92,0s6.283,2.033,8.17,3.821c1.855,1.759,3.452,3.274,6.792,3.274s4.937-1.514,6.792-3.274C53.56,2.033,55.7,0,59.843,0s6.283,2.033,8.17,3.821C69.867,5.58,71.464,7.094,74.8,7.094S79.742,5.58,81.6,3.821C83.483,2.033,85.624,0,89.766,0V2.007c-3.34,0-4.937,1.517-6.792,3.274C81.084,7.072,78.943,9.1,74.8,9.1" transform="translate(2.453 32.43)" fill="#efb499"/>
              <path id="Path_873376" data-name="Path 873376" d="M74.8,9.1c-4.139,0-6.283-2.03-8.17-3.824-1.855-1.756-3.452-3.27-6.792-3.27s-4.937,1.514-6.792,3.27C51.164,7.072,49.023,9.1,44.881,9.1s-6.283-2.03-8.17-3.824c-1.855-1.756-3.452-3.27-6.792-3.27s-4.937,1.517-6.789,3.27C21.241,7.072,19.1,9.1,14.962,9.1S8.679,7.072,6.789,5.278C4.937,3.522,3.34,2.007,0,2.007V0C4.139,0,6.283,2.03,8.17,3.821c1.855,1.759,3.452,3.274,6.792,3.274S19.9,5.58,21.75,3.821C23.637,2.03,25.781,0,29.92,0S36.2,2.03,38.093,3.821c1.852,1.759,3.449,3.274,6.789,3.274s4.937-1.514,6.792-3.274C53.56,2.03,55.7,0,59.843,0s6.283,2.03,8.17,3.821C69.867,5.58,71.464,7.094,74.8,7.094S79.742,5.58,81.6,3.821C83.486,2.03,85.627,0,89.769,0V2.007c-3.34,0-4.94,1.517-6.8,3.27C81.084,7.072,78.943,9.1,74.8,9.1" transform="translate(1.635 21.62)" fill="#efb499"/>
              <path id="Path_873377" data-name="Path 873377" d="M74.8,9.1c-4.139,0-6.283-2.03-8.169-3.824-1.855-1.756-3.452-3.27-6.792-3.27s-4.937,1.514-6.792,3.27C51.164,7.072,49.02,9.1,44.881,9.1s-6.283-2.03-8.17-3.824c-1.855-1.756-3.452-3.27-6.792-3.27s-4.937,1.517-6.789,3.27C21.241,7.072,19.1,9.1,14.962,9.1S8.678,7.072,6.789,5.278C4.937,3.522,3.34,2.007,0,2.007V0C4.139,0,6.283,2.03,8.169,3.821c1.851,1.759,3.452,3.274,6.792,3.274S19.9,5.58,21.75,3.821C23.637,2.03,25.781,0,29.92,0S36.2,2.03,38.093,3.821c1.852,1.759,3.449,3.274,6.789,3.274s4.937-1.514,6.792-3.274C53.56,2.03,55.7,0,59.843,0s6.283,2.03,8.17,3.821C69.867,5.58,71.464,7.094,74.8,7.094S79.742,5.58,81.6,3.821C83.486,2.03,85.624,0,89.769,0V2.007c-3.34,0-4.941,1.517-6.8,3.27C81.084,7.072,78.943,9.1,74.8,9.1" transform="translate(0.818 10.81)" fill="#efb499"/>
              <path id="Path_873378" data-name="Path 873378" d="M74.8,9.1c-4.139,0-6.28-2.03-8.17-3.821-1.855-1.756-3.452-3.27-6.792-3.27s-4.937,1.514-6.789,3.27C51.164,7.069,49.023,9.1,44.881,9.1s-6.28-2.03-8.169-3.821c-1.855-1.756-3.452-3.27-6.792-3.27s-4.937,1.514-6.789,3.267C21.245,7.069,19.1,9.1,14.962,9.1S8.678,7.069,6.789,5.278C4.937,3.522,3.34,2.007,0,2.007V0C4.139,0,6.283,2.03,8.17,3.821c1.855,1.756,3.452,3.27,6.792,3.27S19.9,5.577,21.75,3.821C23.64,2.03,25.781,0,29.92,0s6.28,2.03,8.173,3.821c1.852,1.756,3.449,3.27,6.789,3.27s4.937-1.514,6.792-3.27C53.563,2.03,55.7,0,59.843,0s6.28,2.03,8.17,3.821c1.855,1.756,3.452,3.27,6.792,3.27s4.937-1.514,6.792-3.27C83.486,2.03,85.627,0,89.769,0V2.007c-3.344,0-4.941,1.514-6.8,3.27C81.084,7.069,78.943,9.1,74.8,9.1" transform="translate(0 0.003)" fill="#efb499"/>
            </g>
          </g>
        </g>
        <circle id="Ellipse_11504" data-name="Ellipse 11504" cx="50.5" cy="50.5" r="50.5" transform="translate(402.668 6031)" fill="#ffce73"/>
        <circle id="Ellipse_11503" data-name="Ellipse 11503" cx="52.5" cy="52.5" r="52.5" transform="translate(395.668 6021)" fill="#f3f9ff"/>
      </g>
      <g id="Group_1103078" data-name="Group 1103078" transform="translate(13210.813 -8966.326)">
        <rect id="Rectangle_401104" data-name="Rectangle 401104" width="68" height="69" transform="translate(0.187 -0.674)" fill="none"/>
        <g id="Group_1103107" data-name="Group 1103107" transform="translate(-151.015 -220.844)">
          <rect id="Rectangle_405294" data-name="Rectangle 405294" width="14.426" height="5.771" transform="translate(164.294 256.272) rotate(-17.951)" fill="#b4b4b5"/>
          <path id="Path_893446" data-name="Path 893446" d="M209.18,287.642c0,4.285-2.916,7.982-7.508,7.988l-31.832.046c-4.591.007-8.562-3.678-8.569-7.964L161.2,240.6c-.007-4.284,3.954-7.208,8.545-7.215l31.832-.046c4.592-.007,7.524,2.907,7.531,7.191Z" transform="translate(0 -6.506)" fill="#7d3a1b"/>
          <path id="Path_893447" data-name="Path 893447" d="M210.292,299.637l-34.9,0L175.32,249.4l34.9-.055Z" transform="translate(-6.974 -14.412)" fill="#c93831"/>
          <rect id="Rectangle_405295" data-name="Rectangle 405295" width="39.152" height="50.699" transform="translate(165.851 232.468) rotate(-0.085)" fill="#fff"/>
          <path id="Path_893448" data-name="Path 893448" d="M185.179,259.4a3.727,3.727,0,1,1-3.734-3.721,3.729,3.729,0,0,1,3.734,3.721" transform="translate(-8.162 -17.542)" fill="#e2e2e2"/>
          <path id="Path_893449" data-name="Path 893449" d="M185.209,278.886a3.727,3.727,0,1,1-3.733-3.722,3.729,3.729,0,0,1,3.733,3.722" transform="translate(-8.176 -27.165)" fill="#e2e2e2"/>
          <path id="Path_893450" data-name="Path 893450" d="M185.238,298.861a3.727,3.727,0,1,1-3.733-3.722,3.728,3.728,0,0,1,3.733,3.722" transform="translate(-8.19 -37.033)" fill="#e2e2e2"/>
          <path id="Path_893451" data-name="Path 893451" d="M204.23,223.593c-1.37-1.393-3.717-3.427-6.38-3.423s-5.005,2.045-6.373,3.442l-4.765.007.017,10.7h22.791l-.015-10.731Z" transform="translate(-12.601)" fill="#343433"/>
          <path id="Path_893452" data-name="Path 893452" d="M209.287,226.646a1.561,1.561,0,1,1-1.564-1.558,1.561,1.561,0,0,1,1.564,1.558" transform="translate(-22.21 -2.429)" fill="#fff"/>
          <rect id="Rectangle_405296" data-name="Rectangle 405296" width="20.015" height="4.068" transform="translate(180.004 239.463)" fill="#e2e2e2"/>
          <rect id="Rectangle_405297" data-name="Rectangle 405297" width="20.015" height="4.068" transform="translate(180.004 249.69)" fill="#e2e2e2"/>
          <rect id="Rectangle_405298" data-name="Rectangle 405298" width="20.015" height="4.069" transform="translate(180.004 259.808)" fill="#e2e2e2"/>
          <rect id="Rectangle_405299" data-name="Rectangle 405299" width="29.144" height="9.567" transform="translate(170.875 268.936)" fill="#e2e2e2"/>
          <g id="Group_1103105" data-name="Group 1103105" transform="translate(169.896 238.156)">
            <path id="Path_893453" data-name="Path 893453" d="M188.808,255.762c.013-.01-.048-.039-.056-.048C188.751,255.742,188.823,255.77,188.808,255.762Z" transform="translate(-183.504 -255.714)" fill="#e74c3c"/>
            <path id="Path_893454" data-name="Path 893454" d="M188.825,256.367l-.02-.018.036.067Z" transform="translate(-183.531 -256.027)" fill="#e74c3c"/>
            <path id="Path_893455" data-name="Path 893455" d="M188.589,256.627c.108.043.032-.082.089-.1l.025.009-.066-.066C188.621,256.525,188.636,256.614,188.589,256.627Z" transform="translate(-183.424 -256.089)" fill="#e74c3c"/>
            <path id="Path_893456" data-name="Path 893456" d="M188.051,256.7c.041.018.017.044.027-.016l-.012,0A.067.067,0,0,1,188.051,256.7Z" transform="translate(-183.158 -256.192)" fill="#e74c3c"/>
            <path id="Path_893457" data-name="Path 893457" d="M188.065,256.67c.011-.022-.039-.007,0,0Z" transform="translate(-183.158 -256.18)" fill="#e74c3c"/>
            <path id="Path_893458" data-name="Path 893458" d="M187.931,256.841l-.015-.049c-.026-.009-.046.012-.056-.007C187.861,256.824,187.885,256.833,187.931,256.841Z" transform="translate(-183.064 -256.243)" fill="#e74c3c"/>
            <path id="Path_893459" data-name="Path 893459" d="M188.089,257.015l0-.024C188.073,256.988,188.068,256.989,188.089,257.015Z" transform="translate(-183.17 -256.344)" fill="#e74c3c"/>
            <path id="Path_893460" data-name="Path 893460" d="M188.074,256.895l.011.05c.017.007.048.026,0-.021C188.109,256.945,188.086,256.921,188.074,256.895Z" transform="translate(-183.17 -256.297)" fill="#e74c3c"/>
            <path id="Path_893461" data-name="Path 893461" d="M188.124,256.849c.031,0,.057-.013.072.037C188.216,256.825,188.144,256.788,188.124,256.849Z" transform="translate(-183.194 -256.259)" fill="#e74c3c"/>
            <path id="Path_893462" data-name="Path 893462" d="M188.761,256.883l.042,0-.02-.039C188.793,256.861,188.732,256.864,188.761,256.883Z" transform="translate(-183.505 -256.271)" fill="#e74c3c"/>
            <path id="Path_893463" data-name="Path 893463" d="M187.675,257.165a.791.791,0,0,0,.085.042l-.009-.035A.111.111,0,0,1,187.675,257.165Z" transform="translate(-182.972 -256.431)" fill="#e74c3c"/>
            <path id="Path_893464" data-name="Path 893464" d="M187.844,257.249l.014.053C187.88,257.278,187.868,257.262,187.844,257.249Z" transform="translate(-183.056 -256.472)" fill="#e74c3c"/>
            <path id="Path_893465" data-name="Path 893465" d="M188.264,257.092l-.04-.1.035.109Z" transform="translate(-183.243 -256.346)" fill="#e74c3c"/>
            <path id="Path_893466" data-name="Path 893466" d="M187.48,257.338l-.034-.049.047.079Z" transform="translate(-182.859 -256.492)" fill="#e74c3c"/>
            <path id="Path_893467" data-name="Path 893467" d="M187.334,257.491c-.028-.039-.076-.028-.09-.057a.181.181,0,0,0,.031.1C187.27,257.507,187.287,257.492,187.334,257.491Z" transform="translate(-182.759 -256.564)" fill="#e74c3c"/>
            <path id="Path_893468" data-name="Path 893468" d="M187.33,257.691a.2.2,0,0,0-.024-.056A.153.153,0,0,0,187.33,257.691Z" transform="translate(-182.79 -256.663)" fill="#e74c3c"/>
            <path id="Path_893469" data-name="Path 893469" d="M187.709,257.425a.116.116,0,0,0-.072-.016l.064.027S187.706,257.428,187.709,257.425Z" transform="translate(-182.954 -256.55)" fill="#e74c3c"/>
            <path id="Path_893470" data-name="Path 893470" d="M187.746,257.465h0l-.021.023Z" transform="translate(-182.996 -256.578)" fill="#e74c3c"/>
            <path id="Path_893471" data-name="Path 893471" d="M187.783,257.436l0,0C187.787,257.442,187.79,257.442,187.783,257.436Z" transform="translate(-183.024 -256.565)" fill="#e74c3c"/>
            <path id="Path_893472" data-name="Path 893472" d="M188.093,257.276c.02.039.026.1.1.1C188.163,257.333,188.121,257.336,188.093,257.276Z" transform="translate(-183.179 -256.486)" fill="#e74c3c"/>
            <path id="Path_893473" data-name="Path 893473" d="M187.93,257.443l.035-.023c-.016-.01-.041-.018-.05-.038Z" transform="translate(-183.091 -256.538)" fill="#e74c3c"/>
            <path id="Path_893474" data-name="Path 893474" d="M187.938,257.53l-.007-.028-.013.009Z" transform="translate(-183.093 -256.597)" fill="#e74c3c"/>
            <path id="Path_893475" data-name="Path 893475" d="M187.53,257.7a.072.072,0,0,1,0,.067.14.14,0,0,0,.055-.044C187.568,257.712,187.543,257.682,187.53,257.7Z" transform="translate(-182.9 -256.693)" fill="#e74c3c"/>
            <path id="Path_893476" data-name="Path 893476" d="M187.655,257.6l0,.005C187.662,257.606,187.665,257.605,187.655,257.6Z" transform="translate(-182.963 -256.645)" fill="#e74c3c"/>
            <path id="Path_893477" data-name="Path 893477" d="M187.3,258.169l.011,0-.008-.007Z" transform="translate(-182.786 -256.926)" fill="#e74c3c"/>
            <path id="Path_893478" data-name="Path 893478" d="M187.65,257.723c.02-.006.012-.024,0-.043a.091.091,0,0,1-.013.039C187.644,257.726,187.649,257.73,187.65,257.723Z" transform="translate(-182.954 -256.685)" fill="#e74c3c"/>
            <path id="Path_893479" data-name="Path 893479" d="M187.338,257.866a.212.212,0,0,0,.048,0C187.363,257.859,187.325,257.854,187.338,257.866Z" transform="translate(-182.805 -256.773)" fill="#e74c3c"/>
            <path id="Path_893480" data-name="Path 893480" d="M187.612,257.592v0C187.6,257.584,187.6,257.587,187.612,257.592Z" transform="translate(-182.936 -256.639)" fill="#e74c3c"/>
            <path id="Path_893481" data-name="Path 893481" d="M187.622,257.6a.153.153,0,0,0,.021.042.089.089,0,0,0,0-.036Z" transform="translate(-182.946 -256.644)" fill="#e74c3c"/>
            <path id="Path_893482" data-name="Path 893482" d="M187.627,258.48c-.05-.039-.071-.108.006-.1-.017-.058-.2-.157-.314-.2a.109.109,0,0,1,.052.085c.035.009.114-.024.142.036,0,.06-.041.021-.083.022.075.028.055.12.155.178l-.008-.061C187.593,258.45,187.607,258.481,187.627,258.48Z" transform="translate(-182.797 -256.933)" fill="#e74c3c"/>
            <path id="Path_893483" data-name="Path 893483" d="M187.318,258.049l0-.017a.2.2,0,0,1-.1,0,.113.113,0,0,0,.042.071l.051-.058Z" transform="translate(-182.748 -256.857)" fill="#e74c3c"/>
            <path id="Path_893484" data-name="Path 893484" d="M187.461,257.882c.048.05.051.1.124.121.023-.041-.029-.06-.036-.1-.029.071-.019-.039-.081-.017a.085.085,0,0,1,.008-.044.194.194,0,0,1-.048.014h.006c.009,0,.013,0,.007,0v0l.02.017c-.024.01-.017-.007-.02-.017l-.007-.007h0l-.011.083C187.436,257.933,187.446,257.915,187.461,257.882Z" transform="translate(-182.846 -256.766)" fill="#e74c3c"/>
            <path id="Path_893485" data-name="Path 893485" d="M188.469,257.689a.078.078,0,0,1-.014-.007C188.459,257.691,188.463,257.7,188.469,257.689Z" transform="translate(-183.358 -256.686)" fill="#e74c3c"/>
            <path id="Path_893486" data-name="Path 893486" d="M188.228,257.637c-.006-.01-.025-.029-.01-.04s.027.019.046.031c-.009-.019-.019-.059-.066-.05l.005.01a.255.255,0,0,1-.135-.015A.773.773,0,0,0,188.228,257.637Z" transform="translate(-183.167 -256.632)" fill="#e74c3c"/>
            <path id="Path_893487" data-name="Path 893487" d="M187.957,257.834l-.008.071.067.008-.03-.019C188.017,257.872,187.978,257.854,187.957,257.834Z" transform="translate(-183.108 -256.761)" fill="#e74c3c"/>
            <path id="Path_893488" data-name="Path 893488" d="M187.18,258.1l-.054-.049.063.088Z" transform="translate(-182.701 -256.868)" fill="#e74c3c"/>
            <path id="Path_893489" data-name="Path 893489" d="M187.107,258.249l-.049-.039.018.04Z" transform="translate(-182.667 -256.947)" fill="#e74c3c"/>
            <path id="Path_893490" data-name="Path 893490" d="M183.571,266.86l0,.026A.076.076,0,0,0,183.571,266.86Z" transform="translate(-180.945 -261.22)" fill="#e74c3c"/>
            <path id="Path_893491" data-name="Path 893491" d="M183.695,266.619l-.026-.018C183.681,266.615,183.69,266.623,183.695,266.619Z" transform="translate(-180.994 -261.092)" fill="#e74c3c"/>
            <path id="Path_893492" data-name="Path 893492" d="M184.816,261.624c-.063-.008-.158-.029-.1.006l.063.028C184.782,261.635,184.8,261.627,184.816,261.624Z" transform="translate(-181.503 -258.626)" fill="#e74c3c"/>
            <path id="Path_893493" data-name="Path 893493" d="M184.191,264.354l.022,0-.047-.05A.52.52,0,0,0,184.191,264.354Z" transform="translate(-181.239 -259.959)" fill="#e74c3c"/>
            <path id="Path_893494" data-name="Path 893494" d="M184.628,264.719l-.056.008A.161.161,0,0,0,184.628,264.719Z" transform="translate(-181.44 -260.162)" fill="#e74c3c"/>
            <path id="Path_893495" data-name="Path 893495" d="M182.926,268.184l.048.056C182.991,268.211,182.952,268.2,182.926,268.184Z" transform="translate(-180.627 -261.874)" fill="#e74c3c"/>
            <path id="Path_893496" data-name="Path 893496" d="M186.171,259.681a.109.109,0,0,0-.068.025C186.152,259.705,186.213,259.719,186.171,259.681Z" transform="translate(-182.196 -257.674)" fill="#e74c3c"/>
            <path id="Path_893497" data-name="Path 893497" d="M182.393,266.017a.061.061,0,0,0,.027.035A.045.045,0,0,0,182.393,266.017Z" transform="translate(-180.363 -260.803)" fill="#e74c3c"/>
            <path id="Path_893498" data-name="Path 893498" d="M186.019,259.788h.02a.071.071,0,0,1,.017-.056C186.02,259.732,185.992,259.742,186.019,259.788Z" transform="translate(-182.149 -257.698)" fill="#e74c3c"/>
            <path id="Path_893499" data-name="Path 893499" d="M178.7,268.032l.007-.009C178.7,268.027,178.7,268.029,178.7,268.032Z" transform="translate(-178.54 -261.794)" fill="#e74c3c"/>
            <path id="Path_893500" data-name="Path 893500" d="M179.342,266.07a.081.081,0,0,1,.022.028C179.365,266.09,179.36,266.082,179.342,266.07Z" transform="translate(-178.856 -260.83)" fill="#e74c3c"/>
            <path id="Path_893501" data-name="Path 893501" d="M186.728,258.778c.006-.017,0-.007,0,0Z" transform="translate(-182.504 -257.223)" fill="#e74c3c"/>
            <path id="Path_893502" data-name="Path 893502" d="M187.267,258.96a.061.061,0,0,0,.022.025A.08.08,0,0,1,187.267,258.96Z" transform="translate(-182.771 -257.317)" fill="#e74c3c"/>
            <path id="Path_893503" data-name="Path 893503" d="M186.539,260.605h0C186.551,260.609,186.549,260.609,186.539,260.605Z" transform="translate(-182.411 -258.13)" fill="#e74c3c"/>
            <path id="Path_893504" data-name="Path 893504" d="M186.781,258.78a.081.081,0,0,0-.03.007A.093.093,0,0,0,186.781,258.78Z" transform="translate(-182.516 -257.229)" fill="#e74c3c"/>
            <path id="Path_893505" data-name="Path 893505" d="M186.752,258.734c.007,0,.01-.006.015-.009S186.751,258.715,186.752,258.734Z" transform="translate(-182.517 -257.199)" fill="#e74c3c"/>
            <path id="Path_893506" data-name="Path 893506" d="M186.707,258.809a.046.046,0,0,1,.022-.019c-.006,0-.01,0-.011,0A.127.127,0,0,1,186.707,258.809Z" transform="translate(-182.494 -257.232)" fill="#e74c3c"/>
            <path id="Path_893507" data-name="Path 893507" d="M180.822,270.262l0,0C180.807,270.314,180.812,270.3,180.822,270.262Z" transform="translate(-179.582 -262.898)" fill="#e74c3c"/>
            <path id="Path_893508" data-name="Path 893508" d="M185.664,263.137l0,0h0Z" transform="translate(-181.976 -259.379)" fill="#e74c3c"/>
            <path id="Path_893509" data-name="Path 893509" d="M185.5,263.133c-.059-.067-.042-.074-.017-.081l-.18-.086Z" transform="translate(-181.8 -259.296)" fill="#e74c3c"/>
            <path id="Path_893510" data-name="Path 893510" d="M180.855,262.955l.074-.005c.059.1.009.114.1.125-.179-.12.071-.159-.108-.278h.055c-.006.007,0,.014,0,.02.118.006-.111-.118-.046-.164a.055.055,0,0,1,.076.016l-.015-.076c.011-.011.041.011.03.023l.03-.082,0,0a.823.823,0,0,1-.064-.1c.037,0,.014.021.04.03l-.021-.067c.059.012.085.073.061.1.207.074-.027-.062.132-.079v.053c.12.038.1-.016.193-.02-.039-.009-.219-.011-.236-.083.021,0,.038-.017.015-.063.067.039.064.006.078-.025l.086.054c-.006-.048-.052-.071-.08-.113.03-.03.1,0,.163.028.048-.048-.131-.026-.109-.1.062-.027.046-.081.026-.168.05-.015.05.037.083.04l-.052-.07c.006-.007.025.009.035.017-.013-.041-.087-.054-.087-.107-.09-.068.188,0,.107-.108.031,0,.05.037.085.053a.56.56,0,0,0-.084-.2l.086-.012c-.086-.005-.138-.095-.18-.17-.038-.007-.073-.013-.089-.014l-.011-.088c.017,0,.044.025.075.056l-.014-.023c.044,0,.087.038.128.083l-.067-.01a.594.594,0,0,0,.149.122.055.055,0,0,1-.013-.034.119.119,0,0,0,.033.026c.011,0-.005-.014-.02-.037l.1.044-.037-.026.107-.043c-.065-.115-.18-.249-.168-.362a.782.782,0,0,0,.2.125c-.1-.029,0,.092-.049.127.024-.018.06.011.071.025l-.033-.132c.068.044.062.014.1.01-.146-.065-.055-.116-.077-.174.048.025.09.061.055.095.129.016-.127-.153-.013-.146,0,.011-.015.012.007.029-.028-.048.039-.085.071-.048l0,.011c.055-.056.122-.2.012-.277.015.008.134.092.156.11l-.317-.352c.092.07.353.175.375.263.024-.007.053-.016.037-.07-.021,0-.159-.061-.159-.081a.737.737,0,0,0,.2.017c-.031,0-.176-.109-.155-.132.021.019.154.092.165.111l-.114-.156a.416.416,0,0,0,.179.094c-.034-.011.036-.052.031-.078l-.051,0c.066-.056-.171-.2-.119-.268.026.027.179.141.221.117-.068-.065-.328-.306-.35-.406l.051.016-.022-.08a4.347,4.347,0,0,1,.361.446c.052,0,.057.025.077-.017a.058.058,0,0,1,.044.073l.083-.075c-.092-.053-.046-.127-.124-.172l.032.159c-.093-.052-.222-.219-.165-.274.046.006.153.113.184.132-.026-.028-.02-.1,0-.092l.032.059c.055-.015-.085-.136.029-.124.016-.011.145.03.094-.007a2.505,2.505,0,0,1-.507-.306.86.86,0,0,1,.213,0c.1.028.167.16.25.184a.221.221,0,0,1-.051-.061c.031,0,.071.055.083.014-.088-.064.052-.062-.067-.066,0-.05.043-.023.064-.063a.427.427,0,0,1-.18-.216.3.3,0,0,0,.074.035c.053-.062.118-.071.16-.134.026.009.072,0,.1.036-.01-.02-.034-.049-.024-.069.1.016-.017.051.1.086-.05-.037-.039-.1-.052-.148-.086-.047-.059.053-.045.1a.45.45,0,0,1-.2-.305c.009-.071.087.027.077.007.088-.083-.133-.217,0-.242.092.018.14.1.195.125,0,.06-.09.033-.106.064l.058-.012c.014.029.012.07-.02.071.081.018.127-.154.239-.189-.014-.029-.022-.069-.058-.078l-.007.03c-.072-.018-.047-.1-.094-.087-.018-.06-.054-.139.01-.162l.085.048c-.024-.016-.068,0-.053.025-.022-.043.156.008.066-.087l-.077-.008c-.017-.06-.073-.159-.02-.181-.093-.037,0,.015-.11-.022.133.057-.077.1.071.144-.128-.047-.08.018-.2-.008.028.018.06.022.024.046a.21.21,0,0,1,.017.023h0s0,.006,0,0a.142.142,0,0,1,.052.012c.048.059.009.111.027.151-.026.011-.024-.029-.06-.039l.028.06c-.06-.039-.134-.016-.136-.087l-.032.04c-.051,0-.088.026-.077.065-.027.011.029.1,0,.046l-.01.092-.015-.01c-.054.059,0,.2-.154.207a.1.1,0,0,1-.04.1l-.056-.027c0,.04-.11.053-.065.1-.16-.06-.125.122-.184.157l.066.046a.219.219,0,0,0-.032.14l.061.036c.025.069-.1.07-.133.135-.021-.02-.005-.031.015-.033-.181-.014.006.215-.134.218.012.03,0,.037-.025.039a.005.005,0,0,0,0-.006s0,0-.005.006l-.046,0a.136.136,0,0,0,.044,0,.119.119,0,0,0-.007.065l-.07-.033s0,0,0,.006c-.035,0,.022.034.077.054a.171.171,0,0,0,.023.049c-.114-.05.007.07-.119.022.048.047-.015.119.094.2-.016-.009-.026-.007-.021-.018-.025.013-.052.025-.03.064l-.09-.042.085.113a.159.159,0,0,1-.152-.075c.058.125,0,.076.068.191l-.052-.035c-.011.021.042.1-.01.082-.131-.016-.15.214-.313.272.173.072-.1.012.017.09-.042-.016-.071-.012-.094-.051,0,.081-.112.054-.033.155-.04-.015-.047-.045-.072-.052,0,.009.02.038-.006.031s-.026-.027-.037-.047c-.029.064.085.139.19.208-.069,0-.071.019-.013.084-.042-.011-.09-.015-.08-.061-.018.018-.128.1-.043.152-.025-.007-.023.026-.017.037-.033.045-.044.044-.062.1l.02,0c.1.081,0,.053-.009.1l-.01-.008c-.127.04.015.059-.121.092l.067.034c.138.092-.127.025-.1.107l.047,0c.033.056-.236-.038-.269-.023-.017,0-.015-.02-.018-.034-.126.02.079.06.067.123-.051-.018-.109-.082-.139-.053-.048-.006.088.19-.029.185.041.011.083.022.1.062-.01.044-.2.017-.1.119a.086.086,0,0,1-.033-.011c.012.046-.008.121.041.176-.24-.113,0,.242-.2.113l-.042.093-.019-.015c-.048.046-.011.1.026.148-.02,0-.034-.018-.045-.025-.091.055-.087.068-.027.2l-.07-.035c.027.044-.176.051-.152.175a.082.082,0,0,1-.024-.028c.009.068-.072.089-.128.116-.026.01-.055.036-.046.046a.491.491,0,0,0,.081.091l.027.085c.054-.038.084.1.134.108-.009.044-.106,0-.1-.039l.013.006c-.1-.123-.082.027-.143-.065a.175.175,0,0,1-.1.079c-.033.011-.059.01-.079.034l.019.177-.021.019a.4.4,0,0,1,0-.151c-.01-.1-.016.119-.018.167-.025-.046.007-.248,0-.241l-.007.026v.021c-.007.093-.009.189-.026.2a1.5,1.5,0,0,1,0-.151c0-.015,0-.023-.006-.013l-.019-.041-.007.169c-.02.063-.027-.041-.033.152a.373.373,0,0,0-.038-.233c-.02-.033-.046-.049-.038-.088-.046.063-.066.032-.077-.009-.008.028-.065.15-.076.1.139-.211.03-.154.129-.308-.064.1-.049-.041-.146.094,0-.038.061-.061.093-.112-.042.006-.043-.033-.036-.067a.176.176,0,0,0-.023-.145c-.026.009-.059.043-.107.034l.109-.109c-.022-.016-.158.039-.084-.035-.019.014-.049.035-.064.024a.518.518,0,0,0-.106-.34.435.435,0,0,1-.052-.393c-.034.057-.047.038-.063.016,0,.021-.061.031-.093.052,0,0,.011-.035.02-.071s.017-.074.017-.074c-.1.036-.066-.1-.157-.053l.032.019c-.12.028-.192.192-.327.263.068-.016.04.035.019.082s-.038.09.063.081c-.021.027-.049.009-.076.033.065-.013.087,0,.078.05l-.017,0c.063.094.024.164.032.3l.066-.037c0,.03-.018.044-.031.064.118-.013-.024-.075.1-.1-.127.092.073.186-.078.276.015.042.076-.044.091,0l-.039.028.06-.012c0,.031-.048.067-.085.083,0-.009-.018-.015-.025-.021-.036.056.058.093.046.112l.011-.051a.411.411,0,0,1,.052.084c.017.038.034.077.053.117a.476.476,0,0,0,.166.23l.021-.036c.105.055.02.116.106.21l-.008,0a.06.06,0,0,1,.076.039c-.041.011-.013.138-.061.144.113.038.071,0,.176-.078l-.015.079c.038-.037.051-.067.088-.038-.046.018-.011.135-.067.166.017.129.059.134.092.136s.057,0,.06.151c.073-.166-.057-.208-.027-.225,0-.086.061-.118.079-.07.022.031.007.332.086.422-.008-.01-.009.007-.017,0,.013.045.027.048.042.04.015-.034.029-.064.046-.037.018-.164.044-.049.043-.23l-.059.121c.038-.1.056-.335.109-.306a.759.759,0,0,1-.021.143c.019.028.027-.073.049-.046.01.17-.07.133-.107.319.024.047.072-.226.061-.013.008-.138.026-.152.047-.164s.049-.025.059-.137l.011.1a.425.425,0,0,1,.029-.1l-.006.152c.022-.153.1-.023.134-.131-.087.116-.048-.075-.1-.093.06-.233.119.143.232-.057-.014.032-.081.035-.07-.032a.122.122,0,0,1,.1-.006c.074-.119-.05-.055-.038-.141.071.049.018-.082.029-.144l.045.063c.115-.071-.075-.154.031-.2l.021.058c.01.03.018.061.018.061l.021-.072.051.073c0-.1.024-.107.087-.15-.051-.021-.1-.093-.071-.138.056,0,.051.053.077,0,.03.039.078.078-.007.072.02.017.028.044.045.062.079-.016.066-.07.079-.091a.04.04,0,0,1-.028.01l-.037-.132a.078.078,0,0,1,.057.048c0-.02-.019-.05-.01-.074.049.04.1.074.106.121l-.009-.108c.026.01.088.005.1.027.059-.019-.036-.161.035-.187a.062.062,0,0,1-.016-.037c.043-.041.135-.044.1-.148l.114.027c.007-.059-.146-.03-.135-.13,0-.073.093.031.131.028-.031-.056-.1-.163.009-.165C180.878,262.93,180.857,262.935,180.855,262.955Zm.3-.59c.007.019.035.067-.008.052C181.084,262.359,181.127,262.371,181.16,262.365Zm.35-.951c.017.021,0,.027-.034.026C181.476,261.426,181.485,261.417,181.51,261.414Zm1.035-2.639,0,0C182.508,258.783,182.522,258.782,182.545,258.774Zm.063-.029a.048.048,0,0,0-.024-.021c.013.015.007.026-.007.035C182.6,258.767,182.611,258.769,182.608,258.745Zm-3.079,4.9,0,.04C179.519,263.717,179.525,263.685,179.529,263.647Z" transform="translate(-178.382 -257.027)" fill="#e74c3c"/>
            <path id="Path_893511" data-name="Path 893511" d="M184.591,264.665a.159.159,0,0,1-.038-.017A.039.039,0,0,0,184.591,264.665Z" transform="translate(-181.43 -260.127)" fill="#e74c3c"/>
            <path id="Path_893512" data-name="Path 893512" d="M182.906,268.163h0a.1.1,0,0,0,.011.009Z" transform="translate(-180.616 -261.863)" fill="#e74c3c"/>
            <path id="Path_893513" data-name="Path 893513" d="M186.737,261.313a.089.089,0,0,1-.046,0A.035.035,0,0,0,186.737,261.313Z" transform="translate(-182.486 -258.478)" fill="#e74c3c"/>
            <path id="Path_893514" data-name="Path 893514" d="M186.874,258.456l-.006.043c.008-.018.025-.013.041-.014C186.893,258.475,186.868,258.467,186.874,258.456Z" transform="translate(-182.574 -257.068)" fill="#e74c3c"/>
            <path id="Path_893515" data-name="Path 893515" d="M187.984,258.43c0-.01.005-.01,0-.02l-.03-.02C187.943,258.412,187.957,258.442,187.984,258.43Z" transform="translate(-183.109 -257.036)" fill="#e74c3c"/>
            <path id="Path_893516" data-name="Path 893516" d="M187.326,258.64c.054.035.05,0,.055-.026l0,0C187.309,258.559,187.317,258.6,187.326,258.64Z" transform="translate(-182.797 -257.134)" fill="#e74c3c"/>
            <path id="Path_893517" data-name="Path 893517" d="M187.44,258.6a.032.032,0,0,1,.013-.021C187.425,258.553,187.441,258.581,187.44,258.6Z" transform="translate(-182.855 -257.124)" fill="#e74c3c"/>
            <path id="Path_893518" data-name="Path 893518" d="M186.694,258.885c.021,0-.063-.054-.037-.045C186.6,258.782,186.689,258.966,186.694,258.885Z" transform="translate(-182.46 -257.253)" fill="#e74c3c"/>
            <path id="Path_893519" data-name="Path 893519" d="M187.628,258.862l-.071-.039.044.049Z" transform="translate(-182.914 -257.25)" fill="#e74c3c"/>
            <path id="Path_893520" data-name="Path 893520" d="M187.36,259.123l.042-.021a.031.031,0,0,1-.015-.025C187.368,259.1,187.339,259.11,187.36,259.123Z" transform="translate(-182.813 -257.375)" fill="#e74c3c"/>
            <path id="Path_893521" data-name="Path 893521" d="M187.419,259.042a.032.032,0,0,0,.008-.035A.062.062,0,0,0,187.419,259.042Z" transform="translate(-182.846 -257.341)" fill="#e74c3c"/>
            <path id="Path_893522" data-name="Path 893522" d="M187.627,259.019h-.02l-.022.021Z" transform="translate(-182.928 -257.346)" fill="#e74c3c"/>
            <path id="Path_893523" data-name="Path 893523" d="M186.817,259.883l-.007.051c.02.019.04.019.04,0S186.842,259.892,186.817,259.883Z" transform="translate(-182.545 -257.773)" fill="#e74c3c"/>
            <path id="Path_893524" data-name="Path 893524" d="M187.276,259.886a.17.17,0,0,1-.061-.018l.079.058Z" transform="translate(-182.745 -257.766)" fill="#e74c3c"/>
            <path id="Path_893525" data-name="Path 893525" d="M187.22,260.141c.02.019.027.1.055.048C187.254,260.17,187.262,260.12,187.22,260.141Z" transform="translate(-182.748 -257.898)" fill="#e74c3c"/>
            <path id="Path_893526" data-name="Path 893526" d="M186.129,261.046l.005-.011-.137-.086Z" transform="translate(-182.144 -258.3)" fill="#e74c3c"/>
            <path id="Path_893527" data-name="Path 893527" d="M186.187,262.474c.061-.025-.077-.064-.011-.079-.027-.031-.054.012-.076-.016C186.117,262.429,186.088,262.431,186.187,262.474Z" transform="translate(-182.194 -259.006)" fill="#e74c3c"/>
            <path id="Path_893528" data-name="Path 893528" d="M186.088,262.353a.19.19,0,0,0-.012-.027A.078.078,0,0,0,186.088,262.353Z" transform="translate(-182.183 -258.98)" fill="#e74c3c"/>
            <path id="Path_893529" data-name="Path 893529" d="M179.317,265.679l.007-.053-.032.052Z" transform="translate(-178.832 -260.61)" fill="#e74c3c"/>
            <path id="Path_893530" data-name="Path 893530" d="M179.055,265.665l.08-.065-.09.031C179.054,265.636,179.07,265.646,179.055,265.665Z" transform="translate(-178.71 -260.597)" fill="#e74c3c"/>
            <path id="Path_893531" data-name="Path 893531" d="M184.261,266.29l-.019-.016c-.026-.009-.032,0-.045.009Z" transform="translate(-181.254 -260.928)" fill="#e74c3c"/>
            <path id="Path_893532" data-name="Path 893532" d="M183.615,267l.006-.006-.087-.036Z" transform="translate(-180.927 -261.268)" fill="#e74c3c"/>
            <path id="Path_893533" data-name="Path 893533" d="M183.434,267.8c.01-.013,0-.04.016-.052C183.445,267.782,183.333,267.737,183.434,267.8Z" transform="translate(-180.857 -261.656)" fill="#e74c3c"/>
          </g>
          <g id="Group_1103106" data-name="Group 1103106" transform="translate(170.154 247.826)">
            <path id="Path_893534" data-name="Path 893534" d="M189.316,274.871c.013-.01-.047-.04-.056-.048C189.259,274.851,189.331,274.879,189.316,274.871Z" transform="translate(-184.013 -274.823)" fill="#e74c3c"/>
            <path id="Path_893535" data-name="Path 893535" d="M189.334,275.475l-.021-.018.036.067Z" transform="translate(-184.039 -275.136)" fill="#e74c3c"/>
            <path id="Path_893536" data-name="Path 893536" d="M189.1,275.736c.107.043.031-.083.088-.1l.026.008-.067-.065C189.129,275.633,189.144,275.723,189.1,275.736Z" transform="translate(-183.933 -275.198)" fill="#e74c3c"/>
            <path id="Path_893537" data-name="Path 893537" d="M188.56,275.807c.04.018.016.044.027-.016l-.013,0A.052.052,0,0,1,188.56,275.807Z" transform="translate(-183.667 -275.3)" fill="#e74c3c"/>
            <path id="Path_893538" data-name="Path 893538" d="M188.573,275.778c.012-.022-.039-.007,0,0Z" transform="translate(-183.666 -275.289)" fill="#e74c3c"/>
            <path id="Path_893539" data-name="Path 893539" d="M188.439,275.949l-.015-.049c-.025-.009-.046.012-.056-.008C188.369,275.932,188.394,275.941,188.439,275.949Z" transform="translate(-183.573 -275.351)" fill="#e74c3c"/>
            <path id="Path_893540" data-name="Path 893540" d="M188.6,276.124l0-.024C188.581,276.1,188.576,276.1,188.6,276.124Z" transform="translate(-183.678 -275.453)" fill="#e74c3c"/>
            <path id="Path_893541" data-name="Path 893541" d="M188.582,276l.01.049c.018.007.049.027,0-.021C188.617,276.054,188.593,276.03,188.582,276Z" transform="translate(-183.678 -275.406)" fill="#e74c3c"/>
            <path id="Path_893542" data-name="Path 893542" d="M188.633,275.958c.031,0,.056-.013.071.036C188.725,275.933,188.653,275.9,188.633,275.958Z" transform="translate(-183.703 -275.368)" fill="#e74c3c"/>
            <path id="Path_893543" data-name="Path 893543" d="M189.27,275.991l.041,0-.019-.038C189.3,275.969,189.241,275.973,189.27,275.991Z" transform="translate(-184.014 -275.38)" fill="#e74c3c"/>
            <path id="Path_893544" data-name="Path 893544" d="M188.184,276.273a.734.734,0,0,0,.085.042l-.008-.035A.108.108,0,0,1,188.184,276.273Z" transform="translate(-183.481 -275.539)" fill="#e74c3c"/>
            <path id="Path_893545" data-name="Path 893545" d="M188.352,276.357l.014.054C188.388,276.386,188.376,276.371,188.352,276.357Z" transform="translate(-183.564 -275.581)" fill="#e74c3c"/>
            <path id="Path_893546" data-name="Path 893546" d="M188.772,276.2l-.04-.1.035.109Z" transform="translate(-183.752 -275.455)" fill="#e74c3c"/>
            <path id="Path_893547" data-name="Path 893547" d="M187.988,276.447l-.035-.049.048.078Z" transform="translate(-183.367 -275.601)" fill="#e74c3c"/>
            <path id="Path_893548" data-name="Path 893548" d="M187.842,276.6c-.029-.04-.077-.028-.09-.058-.008.026.012.066.029.1C187.778,276.616,187.795,276.6,187.842,276.6Z" transform="translate(-183.267 -275.672)" fill="#e74c3c"/>
            <path id="Path_893549" data-name="Path 893549" d="M187.837,276.8a.227.227,0,0,0-.025-.057A.207.207,0,0,0,187.837,276.8Z" transform="translate(-183.298 -275.771)" fill="#e74c3c"/>
            <path id="Path_893550" data-name="Path 893550" d="M188.218,276.533a.12.12,0,0,0-.073-.015l.064.026Z" transform="translate(-183.462 -275.659)" fill="#e74c3c"/>
            <path id="Path_893551" data-name="Path 893551" d="M188.253,276.573h0l-.021.023Z" transform="translate(-183.504 -275.687)" fill="#e74c3c"/>
            <path id="Path_893552" data-name="Path 893552" d="M188.293,276.545l0,0C188.3,276.55,188.3,276.551,188.293,276.545Z" transform="translate(-183.534 -275.674)" fill="#e74c3c"/>
            <path id="Path_893553" data-name="Path 893553" d="M188.6,276.385c.02.038.026.1.1.1C188.671,276.442,188.629,276.444,188.6,276.385Z" transform="translate(-183.687 -275.595)" fill="#e74c3c"/>
            <path id="Path_893554" data-name="Path 893554" d="M188.438,276.551l.034-.023c-.015-.01-.04-.019-.049-.038Z" transform="translate(-183.6 -275.646)" fill="#e74c3c"/>
            <path id="Path_893555" data-name="Path 893555" d="M188.447,276.639l-.007-.028-.013.009Z" transform="translate(-183.601 -275.706)" fill="#e74c3c"/>
            <path id="Path_893556" data-name="Path 893556" d="M188.038,276.812a.071.071,0,0,1,0,.067.133.133,0,0,0,.054-.044C188.077,276.821,188.051,276.791,188.038,276.812Z" transform="translate(-183.409 -275.802)" fill="#e74c3c"/>
            <path id="Path_893557" data-name="Path 893557" d="M188.164,276.707v.005C188.171,276.714,188.174,276.714,188.164,276.707Z" transform="translate(-183.472 -275.754)" fill="#e74c3c"/>
            <path id="Path_893558" data-name="Path 893558" d="M187.8,277.278l.011.005-.009-.008Z" transform="translate(-183.294 -276.034)" fill="#e74c3c"/>
            <path id="Path_893559" data-name="Path 893559" d="M188.158,276.832c.021-.006.012-.024,0-.044a.073.073,0,0,1-.013.039C188.152,276.834,188.157,276.838,188.158,276.832Z" transform="translate(-183.462 -275.794)" fill="#e74c3c"/>
            <path id="Path_893560" data-name="Path 893560" d="M187.846,276.975a.24.24,0,0,0,.047,0C187.87,276.968,187.833,276.963,187.846,276.975Z" transform="translate(-183.313 -275.882)" fill="#e74c3c"/>
            <path id="Path_893561" data-name="Path 893561" d="M188.12,276.7v0C188.1,276.692,188.109,276.7,188.12,276.7Z" transform="translate(-183.445 -275.747)" fill="#e74c3c"/>
            <path id="Path_893562" data-name="Path 893562" d="M188.131,276.705a.167.167,0,0,0,.02.042.088.088,0,0,0,0-.036Z" transform="translate(-183.455 -275.753)" fill="#e74c3c"/>
            <path id="Path_893563" data-name="Path 893563" d="M188.135,277.589c-.05-.038-.071-.109,0-.1-.015-.058-.2-.157-.313-.2a.108.108,0,0,1,.051.085c.036.009.115-.024.143.036,0,.061-.041.021-.084.022.076.028.056.119.156.177l-.007-.06C188.1,277.559,188.115,277.59,188.135,277.589Z" transform="translate(-183.305 -276.042)" fill="#e74c3c"/>
            <path id="Path_893564" data-name="Path 893564" d="M187.826,277.158l0-.017a.214.214,0,0,1-.1,0,.117.117,0,0,0,.042.07l.052-.058Z" transform="translate(-183.256 -275.966)" fill="#e74c3c"/>
            <path id="Path_893565" data-name="Path 893565" d="M187.968,276.99c.048.05.05.1.124.12.024-.04-.028-.059-.036-.1-.03.071-.019-.039-.082-.017a.085.085,0,0,1,.009-.044.2.2,0,0,1-.049.014h.006c.009,0,.014.005.008.005v0l.019.017c-.024.01-.017-.007-.019-.017l-.008-.007h0l-.011.083C187.945,277.042,187.954,277.024,187.968,276.99Z" transform="translate(-183.355 -275.874)" fill="#e74c3c"/>
            <path id="Path_893566" data-name="Path 893566" d="M188.978,276.8l-.014-.007C188.968,276.8,188.971,276.8,188.978,276.8Z" transform="translate(-183.867 -275.795)" fill="#e74c3c"/>
            <path id="Path_893567" data-name="Path 893567" d="M188.736,276.746c-.005-.01-.025-.029-.01-.04s.027.018.047.031c-.009-.019-.019-.059-.066-.05l0,.01a.241.241,0,0,1-.134-.015A.865.865,0,0,0,188.736,276.746Z" transform="translate(-183.676 -275.741)" fill="#e74c3c"/>
            <path id="Path_893568" data-name="Path 893568" d="M188.464,276.943l-.008.071.067.008-.029-.019C188.524,276.981,188.485,276.962,188.464,276.943Z" transform="translate(-183.616 -275.87)" fill="#e74c3c"/>
            <path id="Path_893569" data-name="Path 893569" d="M187.688,277.206l-.054-.049.062.089Z" transform="translate(-183.21 -275.976)" fill="#e74c3c"/>
            <path id="Path_893570" data-name="Path 893570" d="M187.615,277.357l-.049-.038.018.04Z" transform="translate(-183.176 -276.056)" fill="#e74c3c"/>
            <path id="Path_893571" data-name="Path 893571" d="M184.079,285.969l.006.025A.07.07,0,0,0,184.079,285.969Z" transform="translate(-181.454 -280.329)" fill="#e74c3c"/>
            <path id="Path_893572" data-name="Path 893572" d="M184.2,285.727l-.025-.018C184.188,285.723,184.2,285.732,184.2,285.727Z" transform="translate(-181.502 -280.2)" fill="#e74c3c"/>
            <path id="Path_893573" data-name="Path 893573" d="M185.323,280.733c-.064-.008-.157-.029-.1.005l.064.029C185.29,280.744,185.3,280.736,185.323,280.733Z" transform="translate(-182.011 -277.735)" fill="#e74c3c"/>
            <path id="Path_893574" data-name="Path 893574" d="M184.7,283.462l.022,0-.048-.05C184.682,283.431,184.69,283.446,184.7,283.462Z" transform="translate(-181.748 -279.068)" fill="#e74c3c"/>
            <path id="Path_893575" data-name="Path 893575" d="M185.134,283.827l-.056.008A.153.153,0,0,0,185.134,283.827Z" transform="translate(-181.947 -279.271)" fill="#e74c3c"/>
            <path id="Path_893576" data-name="Path 893576" d="M183.434,287.292l.048.057C183.5,287.319,183.461,287.313,183.434,287.292Z" transform="translate(-181.135 -280.982)" fill="#e74c3c"/>
            <path id="Path_893577" data-name="Path 893577" d="M186.677,278.789a.121.121,0,0,0-.068.025C186.659,278.813,186.721,278.828,186.677,278.789Z" transform="translate(-182.703 -276.782)" fill="#e74c3c"/>
            <path id="Path_893578" data-name="Path 893578" d="M182.9,285.126a.065.065,0,0,0,.028.035A.045.045,0,0,0,182.9,285.126Z" transform="translate(-180.871 -279.912)" fill="#e74c3c"/>
            <path id="Path_893579" data-name="Path 893579" d="M186.526,278.9a.118.118,0,0,0,.02,0,.078.078,0,0,1,.017-.056C186.528,278.841,186.5,278.85,186.526,278.9Z" transform="translate(-182.657 -276.807)" fill="#e74c3c"/>
            <path id="Path_893580" data-name="Path 893580" d="M179.211,287.14a.1.1,0,0,1,.006-.009C179.207,287.134,179.208,287.137,179.211,287.14Z" transform="translate(-179.048 -280.903)" fill="#e74c3c"/>
            <path id="Path_893581" data-name="Path 893581" d="M179.849,285.178a.1.1,0,0,1,.023.028C179.873,285.2,179.867,285.19,179.849,285.178Z" transform="translate(-179.364 -279.938)" fill="#e74c3c"/>
            <path id="Path_893582" data-name="Path 893582" d="M187.236,277.886c.007-.017,0-.007,0,0Z" transform="translate(-183.013 -276.332)" fill="#e74c3c"/>
            <path id="Path_893583" data-name="Path 893583" d="M187.773,278.07a.081.081,0,0,0,.024.025A.122.122,0,0,1,187.773,278.07Z" transform="translate(-183.278 -276.427)" fill="#e74c3c"/>
            <path id="Path_893584" data-name="Path 893584" d="M187.047,279.713h0C187.06,279.718,187.058,279.717,187.047,279.713Z" transform="translate(-182.92 -277.239)" fill="#e74c3c"/>
            <path id="Path_893585" data-name="Path 893585" d="M187.288,277.889a.074.074,0,0,0-.029.007A.1.1,0,0,0,187.288,277.889Z" transform="translate(-183.025 -276.338)" fill="#e74c3c"/>
            <path id="Path_893586" data-name="Path 893586" d="M187.26,277.843l.015-.009C187.266,277.825,187.259,277.823,187.26,277.843Z" transform="translate(-183.025 -276.307)" fill="#e74c3c"/>
            <path id="Path_893587" data-name="Path 893587" d="M187.217,277.917a.039.039,0,0,1,.021-.019c-.006,0-.01,0-.011,0A.169.169,0,0,1,187.217,277.917Z" transform="translate(-183.004 -276.34)" fill="#e74c3c"/>
            <path id="Path_893588" data-name="Path 893588" d="M181.33,289.371l0-.006C181.315,289.422,181.32,289.408,181.33,289.371Z" transform="translate(-180.091 -282.006)" fill="#e74c3c"/>
            <path id="Path_893589" data-name="Path 893589" d="M186.172,282.246l0,0h0Z" transform="translate(-182.486 -278.488)" fill="#e74c3c"/>
            <path id="Path_893590" data-name="Path 893590" d="M186.008,282.243c-.06-.067-.043-.074-.017-.081l-.181-.086Z" transform="translate(-182.309 -278.405)" fill="#e74c3c"/>
            <path id="Path_893591" data-name="Path 893591" d="M181.363,282.063l.075-.005c.059.1.008.114.1.125-.18-.12.072-.159-.108-.278h.054c-.006.006,0,.014,0,.02.118.006-.11-.118-.046-.164a.056.056,0,0,1,.076.017l-.016-.076c.012-.012.042.012.03.023l.031-.082,0,0a.869.869,0,0,1-.065-.1c.039,0,.014.021.04.031l-.019-.068c.058.013.085.074.059.1.208.074-.025-.062.133-.079v.053c.12.038.1-.015.193-.02-.041-.01-.218-.012-.237-.083.022,0,.038-.017.015-.063.066.04.065.006.078-.026l.087.055c-.006-.048-.052-.071-.081-.113.03-.03.1,0,.164.028.047-.048-.132-.026-.109-.1.061-.027.045-.081.026-.169.049-.015.051.037.082.041l-.053-.071c.006-.007.026.009.036.017-.013-.04-.087-.054-.087-.107-.091-.068.187,0,.105-.108.032,0,.051.038.087.054a.562.562,0,0,0-.084-.2l.085-.012c-.085-.005-.137-.095-.179-.17a.9.9,0,0,0-.09-.014l-.011-.088c.018,0,.045.025.075.056-.006-.008-.01-.016-.015-.023.045,0,.089.038.128.083l-.066-.01a.618.618,0,0,0,.148.122.057.057,0,0,1-.012-.033.1.1,0,0,0,.033.025c.011,0-.005-.014-.021-.037l.1.044-.036-.026.108-.043c-.065-.114-.18-.248-.168-.362a.734.734,0,0,0,.2.125c-.1-.028,0,.092-.049.128.024-.018.061.01.071.025l-.033-.131c.068.042.062.013.1.008-.146-.065-.055-.116-.076-.174.048.025.09.06.054.1.13.016-.126-.154-.013-.146,0,.011-.015.011.007.029-.028-.048.039-.084.071-.048l0,.011c.056-.056.122-.2.013-.278.014.009.134.093.155.111l-.317-.352c.092.07.352.175.375.263.024-.007.052-.017.037-.07-.021,0-.159-.061-.16-.082a.759.759,0,0,0,.2.017c-.03,0-.175-.11-.155-.132a1.917,1.917,0,0,1,.165.111l-.114-.156a.419.419,0,0,0,.179.095c-.034-.012.036-.053.031-.078l-.052,0c.066-.056-.17-.2-.119-.267.025.028.18.141.221.117-.068-.065-.33-.306-.352-.406l.052.016-.021-.08a4.589,4.589,0,0,1,.36.447c.052,0,.058.025.078-.017a.058.058,0,0,1,.045.074l.082-.075c-.092-.052-.048-.127-.125-.172l.033.16c-.093-.053-.222-.22-.166-.275.047.006.154.114.185.132-.026-.028-.021-.1,0-.092l.032.059c.056-.015-.085-.136.029-.124.016-.011.145.03.094-.006a2.478,2.478,0,0,1-.506-.306.878.878,0,0,1,.212,0c.1.028.168.161.251.184a.173.173,0,0,1-.051-.061c.031,0,.07.056.082.015-.087-.065.053-.063-.067-.065,0-.05.044-.023.064-.064a.421.421,0,0,1-.179-.216.3.3,0,0,0,.073.034c.054-.062.118-.071.162-.133.025.009.071,0,.1.035-.01-.02-.033-.049-.024-.069.1.016-.016.052.1.086-.05-.038-.038-.1-.052-.149-.086-.047-.058.053-.044.1a.452.452,0,0,1-.2-.305c.01-.07.088.027.077.007.089-.083-.134-.217,0-.242.093.017.14.1.2.125,0,.06-.09.033-.106.064l.057-.012c.014.03.012.07-.019.071.081.018.128-.154.239-.189-.014-.03-.022-.07-.058-.079l-.007.03c-.072-.018-.047-.1-.095-.087-.017-.06-.054-.14.01-.162l.086.048c-.025-.015-.068,0-.054.025-.022-.043.157.008.067-.086l-.076-.008c-.018-.06-.075-.159-.021-.182-.092-.038,0,.016-.109-.022.132.057-.077.1.071.144-.129-.046-.081.018-.2-.009.028.018.06.022.024.047a.16.16,0,0,1,.018.024h0s0,.005,0,0a.132.132,0,0,1,.053.012c.047.059.009.11.027.15-.026.011-.025-.029-.06-.038l.027.06c-.06-.038-.135-.016-.136-.087l-.032.04c-.05,0-.087.026-.077.065-.026.011.03.1,0,.046l-.01.092-.016-.01c-.053.059,0,.2-.153.206a.093.093,0,0,1-.039.1l-.055-.027c0,.041-.11.053-.066.1-.16-.06-.124.121-.184.156l.066.047a.218.218,0,0,0-.032.139l.062.036c.025.069-.1.071-.134.135-.021-.018-.006-.03.016-.032-.181-.013.006.215-.134.218.012.03,0,.037-.025.039,0,0,0,0,0-.006a.025.025,0,0,0-.006.007c-.014,0-.03,0-.046,0a.154.154,0,0,0,.044,0,.133.133,0,0,0-.007.065l-.069-.032v.006c-.035,0,.022.034.076.054a.2.2,0,0,0,.024.049c-.114-.05.006.07-.119.022.047.047-.015.12.093.2-.015-.009-.025-.008-.021-.018-.026.012-.052.025-.029.064l-.09-.042.085.113a.16.16,0,0,1-.151-.076c.059.126,0,.076.068.191l-.052-.035c-.011.021.043.1-.01.083-.131-.017-.151.214-.312.273.172.072-.1.012.017.089-.041-.015-.073-.012-.094-.05,0,.081-.112.053-.032.155-.043-.015-.049-.046-.074-.053.006.01.021.038,0,.031s-.027-.027-.039-.046c-.028.064.084.139.191.208-.07,0-.071.02-.013.084-.043-.011-.09-.015-.08-.06-.019.018-.129.1-.043.152-.025-.007-.023.025-.016.037-.033.044-.045.043-.062.1l.021,0c.1.081,0,.052-.009.1l-.01-.008c-.127.04.014.059-.122.092l.068.034c.137.092-.128.026-.1.107l.048,0c.032.056-.236-.039-.269-.023-.016,0-.015-.02-.018-.034-.126.02.08.06.068.123-.052-.018-.111-.082-.139-.053-.049-.006.087.19-.03.184.04.011.083.022.1.062-.011.045-.2.018-.1.119a.08.08,0,0,1-.032-.01c.011.046-.008.12.041.175-.24-.113,0,.242-.2.113l-.042.093-.019-.016c-.048.047-.011.1.026.149-.021,0-.035-.018-.045-.025-.091.055-.087.067-.026.2l-.071-.036c.027.044-.176.05-.152.175a.078.078,0,0,1-.023-.028c.01.068-.072.09-.128.116-.026.01-.055.036-.045.046a.4.4,0,0,0,.081.09l.028.086c.053-.039.084.1.134.107-.009.044-.107,0-.1-.039l.014.007c-.1-.124-.083.026-.143-.066a.178.178,0,0,1-.1.079c-.033.011-.059.01-.079.034l.019.177-.023.019a.448.448,0,0,1,0-.151c-.009-.1-.014.119-.016.167-.026-.046.006-.249,0-.241l-.007.026,0,.021a.581.581,0,0,1-.027.2c-.009-.057,0-.138,0-.151s0-.023-.005-.013l-.019-.042-.007.169c-.021.064-.027-.04-.033.152a.368.368,0,0,0-.039-.234c-.019-.033-.046-.048-.038-.088-.046.063-.067.032-.077-.009-.008.028-.066.15-.076.1.14-.211.03-.154.13-.308-.064.1-.049-.042-.146.094,0-.037.061-.06.092-.111-.042.006-.044-.033-.035-.068a.175.175,0,0,0-.023-.144c-.026.009-.059.042-.107.034l.108-.108c-.022-.016-.158.039-.084-.035-.019.014-.049.035-.063.024a.516.516,0,0,0-.107-.34.438.438,0,0,1-.051-.393c-.035.056-.047.038-.063.015,0,.021-.061.032-.093.053,0,0,.009-.035.019-.072l.017-.073c-.1.036-.066-.1-.156-.053l.032.019c-.12.027-.191.192-.326.263.067-.016.04.034.019.081s-.038.091.063.081c-.02.028-.049.01-.078.033.067-.013.088,0,.079.05l-.018,0c.064.094.025.164.034.3l.067-.038c0,.03-.019.044-.031.064.118-.014-.023-.076.1-.1-.128.093.073.186-.079.276.015.043.076-.044.091,0l-.038.027.06-.012c0,.031-.049.066-.085.082,0-.009-.017-.015-.024-.021-.037.056.057.093.045.112l.012-.051a.414.414,0,0,1,.052.083l.053.118a.478.478,0,0,0,.167.23l.02-.037c.106.056.02.116.106.211l-.007,0a.059.059,0,0,1,.075.039c-.04.011-.013.138-.06.144.112.038.069,0,.176-.077l-.017.079c.039-.037.052-.067.088-.037-.046.018-.01.135-.067.166.017.129.06.134.093.136s.058,0,.06.151c.074-.166-.056-.208-.027-.226,0-.087.061-.118.08-.069.021.031.006.332.085.422-.008-.01-.009.007-.017,0,.013.045.028.048.042.04.015-.034.03-.063.046-.037.016-.164.043-.049.042-.23l-.059.12c.038-.1.056-.335.109-.306a.731.731,0,0,1-.021.144c.019.027.027-.074.048-.047.011.171-.069.134-.105.32.021.047.071-.226.06-.013.009-.138.025-.151.046-.164s.049-.025.06-.137l.012.1a.39.39,0,0,1,.029-.105l0,.152c.022-.152.1-.023.134-.131-.089.116-.049-.075-.1-.093.06-.233.118.143.233-.057-.014.033-.081.035-.07-.032a.122.122,0,0,1,.1-.006c.073-.118-.05-.055-.039-.141.072.049.018-.081.029-.145l.046.064c.114-.072-.076-.154.029-.2l.021.059.018.06.022-.071.051.073c0-.1.023-.107.086-.15-.051-.02-.1-.093-.072-.138.057,0,.052.054.078,0,.03.04.078.078-.006.071.019.017.027.044.045.062.079-.016.065-.07.079-.091a.041.041,0,0,1-.029.01l-.038-.132a.076.076,0,0,1,.057.048c0-.02-.019-.049-.009-.074.048.04.1.074.1.121l-.009-.108c.026.01.087,0,.1.027.059-.019-.036-.161.035-.188a.056.056,0,0,1-.016-.037c.042-.041.134-.044.1-.148l.114.026c.006-.059-.147-.03-.136-.129,0-.073.094.031.131.028-.031-.057-.1-.164.009-.165C181.387,282.038,181.365,282.043,181.363,282.063Zm.3-.589c.008.019.036.067-.008.051C181.592,281.467,181.634,281.479,181.668,281.474Zm.351-.952c.016.021,0,.027-.034.026C181.985,280.535,181.993,280.525,182.019,280.522Zm1.035-2.639,0,0C183.016,277.891,183.031,277.89,183.054,277.882Zm.061-.029a.037.037,0,0,0-.024-.021c.014.014.008.025-.006.035C183.1,277.876,183.12,277.878,183.115,277.853Zm-3.078,4.9,0,.04C180.028,282.825,180.033,282.793,180.038,282.756Z" transform="translate(-178.891 -276.135)" fill="#e74c3c"/>
            <path id="Path_893592" data-name="Path 893592" d="M185.1,283.773a.154.154,0,0,1-.039-.017A.042.042,0,0,0,185.1,283.773Z" transform="translate(-181.938 -279.236)" fill="#e74c3c"/>
            <path id="Path_893593" data-name="Path 893593" d="M183.414,287.272h0l.011.009Z" transform="translate(-181.124 -280.972)" fill="#e74c3c"/>
            <path id="Path_893594" data-name="Path 893594" d="M187.246,280.421a.086.086,0,0,1-.045,0A.033.033,0,0,0,187.246,280.421Z" transform="translate(-182.996 -277.587)" fill="#e74c3c"/>
            <path id="Path_893595" data-name="Path 893595" d="M187.381,277.565l-.006.043c.009-.018.025-.014.041-.014C187.4,277.584,187.375,277.575,187.381,277.565Z" transform="translate(-183.082 -276.177)" fill="#e74c3c"/>
            <path id="Path_893596" data-name="Path 893596" d="M188.492,277.539c0-.009.006-.01,0-.02l-.029-.019C188.451,277.52,188.466,277.55,188.492,277.539Z" transform="translate(-183.617 -276.145)" fill="#e74c3c"/>
            <path id="Path_893597" data-name="Path 893597" d="M187.833,277.749c.054.035.05,0,.055-.026l0,0C187.817,277.668,187.824,277.709,187.833,277.749Z" transform="translate(-183.305 -276.243)" fill="#e74c3c"/>
            <path id="Path_893598" data-name="Path 893598" d="M187.948,277.707a.032.032,0,0,1,.014-.021C187.933,277.662,187.949,277.689,187.948,277.707Z" transform="translate(-183.363 -276.233)" fill="#e74c3c"/>
            <path id="Path_893599" data-name="Path 893599" d="M187.2,277.994c.021,0-.063-.055-.037-.045C187.1,277.89,187.2,278.074,187.2,277.994Z" transform="translate(-182.968 -276.361)" fill="#e74c3c"/>
            <path id="Path_893600" data-name="Path 893600" d="M188.136,277.969l-.07-.039.045.049Z" transform="translate(-183.423 -276.358)" fill="#e74c3c"/>
            <path id="Path_893601" data-name="Path 893601" d="M187.867,278.231l.041-.021a.033.033,0,0,1-.015-.025C187.876,278.2,187.848,278.219,187.867,278.231Z" transform="translate(-183.322 -276.484)" fill="#e74c3c"/>
            <path id="Path_893602" data-name="Path 893602" d="M187.926,278.15a.031.031,0,0,0,.008-.036A.064.064,0,0,0,187.926,278.15Z" transform="translate(-183.354 -276.449)" fill="#e74c3c"/>
            <path id="Path_893603" data-name="Path 893603" d="M188.136,278.128h-.021l-.022.021Z" transform="translate(-183.436 -276.456)" fill="#e74c3c"/>
            <path id="Path_893604" data-name="Path 893604" d="M187.325,278.991l-.008.051c.019.02.04.019.04,0S187.35,279,187.325,278.991Z" transform="translate(-183.053 -276.882)" fill="#e74c3c"/>
            <path id="Path_893605" data-name="Path 893605" d="M187.784,279a.162.162,0,0,1-.062-.018l.08.058Z" transform="translate(-183.253 -276.875)" fill="#e74c3c"/>
            <path id="Path_893606" data-name="Path 893606" d="M187.727,279.25c.021.019.028.1.055.048C187.762,279.278,187.769,279.228,187.727,279.25Z" transform="translate(-183.256 -277.007)" fill="#e74c3c"/>
            <path id="Path_893607" data-name="Path 893607" d="M186.637,280.154l0-.011-.137-.086Z" transform="translate(-182.652 -277.409)" fill="#e74c3c"/>
            <path id="Path_893608" data-name="Path 893608" d="M186.694,281.583c.062-.025-.077-.064-.011-.079-.026-.031-.054.012-.076-.016C186.625,281.537,186.6,281.54,186.694,281.583Z" transform="translate(-182.702 -278.115)" fill="#e74c3c"/>
            <path id="Path_893609" data-name="Path 893609" d="M186.6,281.462a.123.123,0,0,0-.012-.027A.067.067,0,0,0,186.6,281.462Z" transform="translate(-182.691 -278.089)" fill="#e74c3c"/>
            <path id="Path_893610" data-name="Path 893610" d="M179.824,284.788l.007-.054-.032.052Z" transform="translate(-179.34 -279.719)" fill="#e74c3c"/>
            <path id="Path_893611" data-name="Path 893611" d="M179.562,284.773l.08-.065-.09.031C179.562,284.744,179.578,284.755,179.562,284.773Z" transform="translate(-179.218 -279.706)" fill="#e74c3c"/>
            <path id="Path_893612" data-name="Path 893612" d="M184.77,285.4l-.02-.015c-.026-.009-.033,0-.045.009Z" transform="translate(-181.763 -280.037)" fill="#e74c3c"/>
            <path id="Path_893613" data-name="Path 893613" d="M184.124,286.108l.005-.006-.087-.036Z" transform="translate(-181.435 -280.377)" fill="#e74c3c"/>
            <path id="Path_893614" data-name="Path 893614" d="M183.942,286.9c.012-.013,0-.04.017-.052C183.954,286.891,183.841,286.846,183.942,286.9Z" transform="translate(-181.365 -280.765)" fill="#e74c3c"/>
          </g>
          <rect id="Rectangle_405300" data-name="Rectangle 405300" width="28.263" height="5.168" transform="translate(171.384 230.555)" fill="#545454"/>
        </g>
      </g>
    </g>
  </g>
</svg>
