<svg xmlns="http://www.w3.org/2000/svg" xmlns:xlink="http://www.w3.org/1999/xlink" width="121" height="121" viewBox="0 0 121 121">
  <defs>
    <clipPath id="clip-path">
      <rect id="Rectangle_400938" data-name="Rectangle 400938" width="121" height="121" transform="translate(0 0)" fill="none"/>
    </clipPath>
    <clipPath id="clip-path-2">
      <rect id="Rectangle_401073" data-name="Rectangle 401073" width="92.219" height="41.532" fill="#efb499"/>
    </clipPath>
  </defs>
  <g id="Group_1104221" data-name="Group 1104221" transform="translate(431.418 9362.242)">
    <g id="Group_1102815" data-name="Group 1102815" transform="translate(-819.086 -15375.242)">
      <rect id="Rectangle_401103" data-name="Rectangle 401103" width="121" height="121" transform="translate(387.668 6013)" fill="none"/>
      <g id="Group_1099348" data-name="Group 1099348" transform="translate(387.668 6013)">
        <g id="Group_1099282" data-name="Group 1099282">
          <g id="Group_1099281" data-name="Group 1099281" clip-path="url(#clip-path-2)">
            <path id="Path_873375" data-name="Path 873375" d="M74.8,9.1c-4.139,0-6.28-2.03-8.17-3.821-1.855-1.756-3.452-3.274-6.792-3.274s-4.937,1.517-6.792,3.274C51.161,7.072,49.023,9.1,44.881,9.1s-6.28-2.03-8.169-3.821C34.857,3.525,33.26,2.007,29.92,2.007s-4.937,1.517-6.789,3.274C21.241,7.072,19.1,9.1,14.962,9.1S8.679,7.072,6.789,5.281C4.937,3.525,3.34,2.007,0,2.007V0C4.139,0,6.28,2.033,8.17,3.821c1.855,1.759,3.452,3.274,6.792,3.274S19.9,5.58,21.75,3.824C23.637,2.033,25.781,0,29.92,0s6.283,2.033,8.17,3.821c1.855,1.759,3.452,3.274,6.792,3.274s4.937-1.514,6.792-3.274C53.56,2.033,55.7,0,59.843,0s6.283,2.033,8.17,3.821C69.867,5.58,71.464,7.094,74.8,7.094S79.742,5.58,81.6,3.821C83.483,2.033,85.624,0,89.766,0V2.007c-3.34,0-4.937,1.517-6.792,3.274C81.084,7.072,78.943,9.1,74.8,9.1" transform="translate(2.453 32.43)" fill="#efb499"/>
            <path id="Path_873376" data-name="Path 873376" d="M74.8,9.1c-4.139,0-6.283-2.03-8.17-3.824-1.855-1.756-3.452-3.27-6.792-3.27s-4.937,1.514-6.792,3.27C51.164,7.072,49.023,9.1,44.881,9.1s-6.283-2.03-8.17-3.824c-1.855-1.756-3.452-3.27-6.792-3.27s-4.937,1.517-6.789,3.27C21.241,7.072,19.1,9.1,14.962,9.1S8.679,7.072,6.789,5.278C4.937,3.522,3.34,2.007,0,2.007V0C4.139,0,6.283,2.03,8.17,3.821c1.855,1.759,3.452,3.274,6.792,3.274S19.9,5.58,21.75,3.821C23.637,2.03,25.781,0,29.92,0S36.2,2.03,38.093,3.821c1.852,1.759,3.449,3.274,6.789,3.274s4.937-1.514,6.792-3.274C53.56,2.03,55.7,0,59.843,0s6.283,2.03,8.17,3.821C69.867,5.58,71.464,7.094,74.8,7.094S79.742,5.58,81.6,3.821C83.486,2.03,85.627,0,89.769,0V2.007c-3.34,0-4.94,1.517-6.8,3.27C81.084,7.072,78.943,9.1,74.8,9.1" transform="translate(1.635 21.62)" fill="#efb499"/>
            <path id="Path_873377" data-name="Path 873377" d="M74.8,9.1c-4.139,0-6.283-2.03-8.169-3.824-1.855-1.756-3.452-3.27-6.792-3.27s-4.937,1.514-6.792,3.27C51.164,7.072,49.02,9.1,44.881,9.1s-6.283-2.03-8.17-3.824c-1.855-1.756-3.452-3.27-6.792-3.27s-4.937,1.517-6.789,3.27C21.241,7.072,19.1,9.1,14.962,9.1S8.678,7.072,6.789,5.278C4.937,3.522,3.34,2.007,0,2.007V0C4.139,0,6.283,2.03,8.169,3.821c1.851,1.759,3.452,3.274,6.792,3.274S19.9,5.58,21.75,3.821C23.637,2.03,25.781,0,29.92,0S36.2,2.03,38.093,3.821c1.852,1.759,3.449,3.274,6.789,3.274s4.937-1.514,6.792-3.274C53.56,2.03,55.7,0,59.843,0s6.283,2.03,8.17,3.821C69.867,5.58,71.464,7.094,74.8,7.094S79.742,5.58,81.6,3.821C83.486,2.03,85.624,0,89.769,0V2.007c-3.34,0-4.941,1.517-6.8,3.27C81.084,7.072,78.943,9.1,74.8,9.1" transform="translate(0.818 10.81)" fill="#efb499"/>
            <path id="Path_873378" data-name="Path 873378" d="M74.8,9.1c-4.139,0-6.28-2.03-8.17-3.821-1.855-1.756-3.452-3.27-6.792-3.27s-4.937,1.514-6.789,3.27C51.164,7.069,49.023,9.1,44.881,9.1s-6.28-2.03-8.169-3.821c-1.855-1.756-3.452-3.27-6.792-3.27s-4.937,1.514-6.789,3.267C21.245,7.069,19.1,9.1,14.962,9.1S8.678,7.069,6.789,5.278C4.937,3.522,3.34,2.007,0,2.007V0C4.139,0,6.283,2.03,8.17,3.821c1.855,1.756,3.452,3.27,6.792,3.27S19.9,5.577,21.75,3.821C23.64,2.03,25.781,0,29.92,0s6.28,2.03,8.173,3.821c1.852,1.756,3.449,3.27,6.789,3.27s4.937-1.514,6.792-3.27C53.563,2.03,55.7,0,59.843,0s6.28,2.03,8.17,3.821c1.855,1.756,3.452,3.27,6.792,3.27s4.937-1.514,6.792-3.27C83.486,2.03,85.627,0,89.769,0V2.007c-3.344,0-4.941,1.514-6.8,3.27C81.084,7.069,78.943,9.1,74.8,9.1" transform="translate(0 0.003)" fill="#efb499"/>
          </g>
        </g>
      </g>
      <circle id="Ellipse_11504" data-name="Ellipse 11504" cx="50.5" cy="50.5" r="50.5" transform="translate(402.668 6031)" fill="#ffce73"/>
      <circle id="Ellipse_11503" data-name="Ellipse 11503" cx="52.5" cy="52.5" r="52.5" transform="translate(395.668 6021)" fill="#f3f9ff"/>
    </g>
    <g id="Group_1102816" data-name="Group 1102816" transform="translate(-405.477 -9336.438)">
      <rect id="Rectangle_401104" data-name="Rectangle 401104" width="68" height="69" transform="translate(0.477 -0.562)" fill="none"/>
      <g id="Group_1103716" data-name="Group 1103716" transform="translate(-2011.758 -128.373)">
        <path id="Path_894799" data-name="Path 894799" d="M2051.628,130.8h-23.141c-.022.381-.06.749-.062,1.117-.011,1.636.043,3.275-.062,4.9-.022.349-.61.662-.936.992-.319-.339-.9-.667-.914-1.017-.084-2.259-.052-4.523-.038-6.786a1.114,1.114,0,0,1,1.176-1.191c.208-.015.417-.006.626-.006q11.8,0,23.6,0c1.5,0,1.765.267,1.765,1.754,0,5.186.02,10.373-.019,15.559a1.286,1.286,0,0,0,.989,1.423c5.208,2.041,10.384,4.161,15.6,6.184a2.062,2.062,0,0,1,1.507,2.256c-.034,12.565-.02,25.131-.022,37.7,0,1.735-.239,1.966-2,1.966h-48.452c-1.751,0-2-.244-2-1.972,0-2.4-.009-4.8,0-7.205a5.018,5.018,0,0,1,4.194-5.415c.719-.19,1.494-.212,1.964-.991.155-.256.65-.306,1.007-.457a3.582,3.582,0,0,0-.55-2.622,7.9,7.9,0,0,1-1-3.024c-.221-1.72-.237-3.469-.3-5.208a6.452,6.452,0,0,1,1.375-4.07,2.744,2.744,0,0,0,.507-1.492c.032-6.962.022-13.923.022-20.885,0-.313-.107-.7.037-.923.23-.356.6-.787.964-.836.265-.037.7.437.887.775a2.274,2.274,0,0,1,.066,1.026q0,9.5,0,19.005v1.234c1.609-.2,1.609-.2,1.609-1.66q0-6.213,0-12.426c0-1.4.315-1.7,1.718-1.709.8,0,1.6-.009,2.4,0,1.172.016,1.478.316,1.48,1.5.007,4.455.085,8.913-.038,13.365a5.807,5.807,0,0,0,1.7,4.583v-1.173q0-8.249,0-16.5c0-1.595.185-1.772,1.82-1.775.731,0,1.462-.007,2.193,0,1.253.014,1.532.283,1.535,1.546q.011,6.213,0,12.426,0,5.952,0,11.9a2.027,2.027,0,0,1-.061.923c-.183.32-.549.754-.825.746a1.547,1.547,0,0,1-1.01-.667c-.169-.24-.079-.672-.079-1.019q0-11.225,0-22.451V148.9h-1.633v1.224c0,9.851.027,19.7-.034,29.551-.007,1.222.318,1.889,1.668,2.114,0-1.08.008-2.166,0-3.252-.008-.711.082-1.422.952-1.457.97-.038,1.031.722,1.031,1.465q0,6.892,0,13.784v1.307h8.785Zm18.025,61.259H2068.4c-3.271,0-6.543.006-9.814,0-1.23,0-1.451-.239-1.462-1.476-.008-.9-.01-1.81,0-2.714.014-1.147.261-1.4,1.434-1.4,3.236-.008,6.473,0,9.709,0h1.337v-1.651h-1.229q-4.855,0-9.709,0c-1.394,0-1.538-.155-1.544-1.58q-.005-1.149,0-2.3c.005-1.482.177-1.655,1.7-1.657,3.236-.005,6.473,0,9.709,0,.367,0,.733-.035,1.108-.055v-1.548h-1.17c-3.306,0-6.612.007-9.918,0-1.131,0-1.419-.3-1.432-1.419-.011-.9-.009-1.81,0-2.714.01-1.238.223-1.459,1.467-1.461,3.306-.008,6.612,0,9.918,0h1.123v-1.656h-1.186c-3.306,0-6.612,0-9.918,0-1.2,0-1.391-.206-1.4-1.407-.009-.87-.007-1.74,0-2.61.008-1.327.193-1.523,1.509-1.525,3.306-.007,6.612,0,9.918-.005.364,0,.728-.04,1.094-.061v-1.564h-1.167c-3.306,0-6.613.008-9.918-.005-1.155,0-1.421-.284-1.433-1.41-.011-.974.015-1.949-.007-2.923-.02-.887.415-1.27,1.269-1.266q1.827.007,3.654,0c.671,0,1.218.225,1.239.963.023.821-.566,1.021-1.275,1.015-.961-.009-1.923,0-2.867,0v1.571h10.492v-1.57a9.234,9.234,0,0,1-1.3-.01c-.867-.13-2.111.528-2.378-.953-.137-.758.513-1.013,2.336-1.014h1.3c.245-1.891.242-1.885-1.368-2.529q-5.564-2.224-11.125-4.456c-1.114-.446-2.234-.877-3.4-1.332v44.312h15.95Zm-39.5-23.4a6.524,6.524,0,0,1-.84,0c-.97-.16-1.38.338-1.89,1.141-.988,1.554-.718,3.145-.518,4.74a4.143,4.143,0,0,0,4.151,3.41,4.188,4.188,0,0,0,4.138-3.434,16.221,16.221,0,0,0,.2-2.493,2.2,2.2,0,0,0-.416-1.226A5.225,5.225,0,0,0,2030.157,168.655Zm-1.94,17.8c-1.07.411-1.585,0-1.858-.934-.279-.955-.642-1.886-.984-2.875-.59.13-1.095.226-1.591.352a3,3,0,0,0-2.543,3.294c-.007,1.737,0,3.474,0,5.21q0,1.072,0,2.141h1.647c0-1.252.008-2.427,0-3.6-.006-.694.127-1.3.98-1.285s.952.636.943,1.322c-.014,1.172,0,2.344,0,3.562h3.416Zm12.517,7.213a1.126,1.126,0,0,0,.105-.273c.01-2.224-.063-4.453.044-6.672.127-2.632-1.249-3.806-4.223-3.953-.277.842-.585,1.689-.833,2.554-.289,1.009-.8,1.6-1.94,1.177v7.129h3.4c0-1.235.01-2.379,0-3.524-.008-.678.07-1.316.92-1.347.917-.033,1.032.623,1.025,1.351-.011,1.169,0,2.339,0,3.558Zm-7.112-31.06V148.9h-1.562v1.2c0,3.611-.013,7.221.006,10.832C2032.076,162.505,2031.766,162.25,2033.623,162.6Zm36.031,4.321h-10.509V168.4h10.509Zm-10.544,8.635h10.5v-1.493h-10.5Zm10.554,5.753h-10.542v1.509h10.542Zm-34.22-12.954a4.4,4.4,0,0,0-8.409-1.531C2029.973,166.425,2032.865,166.351,2035.444,168.361ZM2059.113,190h10.5v-1.464h-10.5Zm-25.633-9.07-.5-1.22a16.965,16.965,0,0,1-1.908.2,19.105,19.105,0,0,1-1.986-.2l-.459,1.292c3.087,2.08,1.8,1.991,4.739.092C2033.394,181.08,2033.407,181.041,2033.479,180.933ZM2031.8,193.66v-5.1H2030.3v5.1Zm5.476-18.508c-.3,1.588-2.249,2.593-1.548,4.441l1.548.786Zm-7.15,11.237h1.959a4.817,4.817,0,0,0-.652-1.2.818.818,0,0,0-.812.025A4.261,4.261,0,0,0,2030.123,186.389Z" fill="#6a4d23"/>
        <path id="Path_894800" data-name="Path 894800" d="M2140.068,237.552q0-10.386,0-20.773c0-1.643.217-1.856,1.866-1.858.835,0,1.671-.013,2.505.006a1.119,1.119,0,0,1,1.225,1.24c0,.209,0,.417,0,.626q0,20.773,0,41.545c0,1.661-.181,1.839-1.865,1.841-.731,0-1.462.006-2.192,0-1.254-.014-1.535-.283-1.537-1.542q-.012-5.95,0-11.9Q2140.068,242.145,2140.068,237.552Zm2.057-20.546v41.126c.3.023.536.06.772.053a6.787,6.787,0,0,0,.7-.088V217.005Z" transform="translate(-95.596 -68.122)" fill="#6a4d23"/>
        <path id="Path_894801" data-name="Path 894801" d="M2080.918,154.712c2.852,0,5.7-.005,8.556,0,1.193,0,1.474.283,1.479,1.474q.014,3.13,0,6.26c-.006,1.1-.328,1.441-1.426,1.443-5.738.01-11.477,0-17.215.008a1.214,1.214,0,0,1-1.4-1.4c.012-2.156,0-4.313,0-6.469a1.161,1.161,0,0,1,1.34-1.327C2075.145,154.724,2078.032,154.712,2080.918,154.712Zm-7.911,1.994v5.143h15.89v-5.143Z" transform="translate(-40.886 -20.486)" fill="#6a4d23"/>
        <path id="Path_894802" data-name="Path 894802" d="M2072.091,333.155c-.014,1.452-.718,2.3-1.9,2.164-.343-.039-.869-.356-.919-.62-.065-.343.244-.768.425-1.142.132-.273.436-.514.453-.782.042-.7.17-1.31,1.008-1.279s.965.658.936,1.347C2072.087,332.946,2072.091,333.05,2072.091,333.155Z" transform="translate(-39.579 -160.351)" fill="#6a4d23"/>
        <path id="Path_894803" data-name="Path 894803" d="M2118.073,173.708c-.833,0-1.668,0-2.5,0-.645,0-1.206-.315-1.086-.949a1.518,1.518,0,0,1,1.049-.988,40.666,40.666,0,0,1,5.1,0,1.517,1.517,0,0,1,1.084.95c.133.706-.462,1-1.145.993C2119.741,173.707,2118.907,173.709,2118.073,173.708Z" transform="translate(-75.344 -33.921)" fill="#6a4d23"/>
        <path id="Path_894804" data-name="Path 894804" d="M2090.492,171.724c.276,0,.623-.106.813.022.38.256.917.632.93.975.012.313-.531.794-.925.937a4.585,4.585,0,0,1-1.538.044c-.621-.007-1.1-.22-1.126-.929-.025-.752.454-1.02,1.124-1.054.241-.012.483,0,.724,0Z" transform="translate(-54.913 -33.917)" fill="#6a4d23"/>
      </g>
    </g>
  </g>
</svg>
