<svg xmlns="http://www.w3.org/2000/svg" xmlns:xlink="http://www.w3.org/1999/xlink" width="121" height="121" viewBox="0 0 121 121">
  <defs>
    <clipPath id="clip-path">
      <rect id="Rectangle_400938" data-name="Rectangle 400938" width="121" height="121" transform="translate(0 0)" fill="none"/>
    </clipPath>
    <clipPath id="clip-path-2">
      <rect id="Rectangle_401073" data-name="Rectangle 401073" width="92.219" height="41.532" fill="#efb499"/>
    </clipPath>
  </defs>
  <g id="Group_1104219" data-name="Group 1104219" transform="translate(-13535.871 8992.13)">
    <g id="Group_1104202" data-name="Group 1104202">
      <g id="Group_1103075" data-name="Group 1103075" transform="translate(13148.203 -15005.13)">
        <rect id="Rectangle_401103" data-name="Rectangle 401103" width="121" height="121" transform="translate(387.668 6013)" fill="none"/>
        <g id="Group_1099348" data-name="Group 1099348" transform="translate(387.668 6013)">
          <g id="Group_1099282" data-name="Group 1099282">
            <g id="Group_1099281" data-name="Group 1099281" clip-path="url(#clip-path-2)">
              <path id="Path_873375" data-name="Path 873375" d="M74.8,9.1c-4.139,0-6.28-2.03-8.17-3.821-1.855-1.756-3.452-3.274-6.792-3.274s-4.937,1.517-6.792,3.274C51.161,7.072,49.023,9.1,44.881,9.1s-6.28-2.03-8.169-3.821C34.857,3.525,33.26,2.007,29.92,2.007s-4.937,1.517-6.789,3.274C21.241,7.072,19.1,9.1,14.962,9.1S8.679,7.072,6.789,5.281C4.937,3.525,3.34,2.007,0,2.007V0C4.139,0,6.28,2.033,8.17,3.821c1.855,1.759,3.452,3.274,6.792,3.274S19.9,5.58,21.75,3.824C23.637,2.033,25.781,0,29.92,0s6.283,2.033,8.17,3.821c1.855,1.759,3.452,3.274,6.792,3.274s4.937-1.514,6.792-3.274C53.56,2.033,55.7,0,59.843,0s6.283,2.033,8.17,3.821C69.867,5.58,71.464,7.094,74.8,7.094S79.742,5.58,81.6,3.821C83.483,2.033,85.624,0,89.766,0V2.007c-3.34,0-4.937,1.517-6.792,3.274C81.084,7.072,78.943,9.1,74.8,9.1" transform="translate(2.453 32.43)" fill="#efb499"/>
              <path id="Path_873376" data-name="Path 873376" d="M74.8,9.1c-4.139,0-6.283-2.03-8.17-3.824-1.855-1.756-3.452-3.27-6.792-3.27s-4.937,1.514-6.792,3.27C51.164,7.072,49.023,9.1,44.881,9.1s-6.283-2.03-8.17-3.824c-1.855-1.756-3.452-3.27-6.792-3.27s-4.937,1.517-6.789,3.27C21.241,7.072,19.1,9.1,14.962,9.1S8.679,7.072,6.789,5.278C4.937,3.522,3.34,2.007,0,2.007V0C4.139,0,6.283,2.03,8.17,3.821c1.855,1.759,3.452,3.274,6.792,3.274S19.9,5.58,21.75,3.821C23.637,2.03,25.781,0,29.92,0S36.2,2.03,38.093,3.821c1.852,1.759,3.449,3.274,6.789,3.274s4.937-1.514,6.792-3.274C53.56,2.03,55.7,0,59.843,0s6.283,2.03,8.17,3.821C69.867,5.58,71.464,7.094,74.8,7.094S79.742,5.58,81.6,3.821C83.486,2.03,85.627,0,89.769,0V2.007c-3.34,0-4.94,1.517-6.8,3.27C81.084,7.072,78.943,9.1,74.8,9.1" transform="translate(1.635 21.62)" fill="#efb499"/>
              <path id="Path_873377" data-name="Path 873377" d="M74.8,9.1c-4.139,0-6.283-2.03-8.169-3.824-1.855-1.756-3.452-3.27-6.792-3.27s-4.937,1.514-6.792,3.27C51.164,7.072,49.02,9.1,44.881,9.1s-6.283-2.03-8.17-3.824c-1.855-1.756-3.452-3.27-6.792-3.27s-4.937,1.517-6.789,3.27C21.241,7.072,19.1,9.1,14.962,9.1S8.678,7.072,6.789,5.278C4.937,3.522,3.34,2.007,0,2.007V0C4.139,0,6.283,2.03,8.169,3.821c1.851,1.759,3.452,3.274,6.792,3.274S19.9,5.58,21.75,3.821C23.637,2.03,25.781,0,29.92,0S36.2,2.03,38.093,3.821c1.852,1.759,3.449,3.274,6.789,3.274s4.937-1.514,6.792-3.274C53.56,2.03,55.7,0,59.843,0s6.283,2.03,8.17,3.821C69.867,5.58,71.464,7.094,74.8,7.094S79.742,5.58,81.6,3.821C83.486,2.03,85.624,0,89.769,0V2.007c-3.34,0-4.941,1.517-6.8,3.27C81.084,7.072,78.943,9.1,74.8,9.1" transform="translate(0.818 10.81)" fill="#efb499"/>
              <path id="Path_873378" data-name="Path 873378" d="M74.8,9.1c-4.139,0-6.28-2.03-8.17-3.821-1.855-1.756-3.452-3.27-6.792-3.27s-4.937,1.514-6.789,3.27C51.164,7.069,49.023,9.1,44.881,9.1s-6.28-2.03-8.169-3.821c-1.855-1.756-3.452-3.27-6.792-3.27s-4.937,1.514-6.789,3.267C21.245,7.069,19.1,9.1,14.962,9.1S8.678,7.069,6.789,5.278C4.937,3.522,3.34,2.007,0,2.007V0C4.139,0,6.283,2.03,8.17,3.821c1.855,1.756,3.452,3.27,6.792,3.27S19.9,5.577,21.75,3.821C23.64,2.03,25.781,0,29.92,0s6.28,2.03,8.173,3.821c1.852,1.756,3.449,3.27,6.789,3.27s4.937-1.514,6.792-3.27C53.563,2.03,55.7,0,59.843,0s6.28,2.03,8.17,3.821c1.855,1.756,3.452,3.27,6.792,3.27s4.937-1.514,6.792-3.27C83.486,2.03,85.627,0,89.769,0V2.007c-3.344,0-4.941,1.514-6.8,3.27C81.084,7.069,78.943,9.1,74.8,9.1" transform="translate(0 0.003)" fill="#efb499"/>
            </g>
          </g>
        </g>
        <circle id="Ellipse_11504" data-name="Ellipse 11504" cx="50.5" cy="50.5" r="50.5" transform="translate(402.668 6031)" fill="#ffce73"/>
        <circle id="Ellipse_11503" data-name="Ellipse 11503" cx="52.5" cy="52.5" r="52.5" transform="translate(395.668 6021)" fill="#f3f9ff"/>
      </g>
      <g id="Group_1103077" data-name="Group 1103077" transform="translate(13561.813 -8966.326)">
        <rect id="Rectangle_401104" data-name="Rectangle 401104" width="68" height="69" transform="translate(0.187 -0.674)" fill="none"/>
        <g id="Group_1103104" data-name="Group 1103104" transform="translate(-354.041 -392.846)">
          <g id="Group_1103103" data-name="Group 1103103" transform="translate(354.228 396.173)">
            <path id="Path_893439" data-name="Path 893439" d="M421.094,445.738c-.085-.146-.206-.3-.307-.452-2.019-3.028-4.06-6.037-6.018-9.106a3.323,3.323,0,0,1-.487-2,29,29,0,0,0-1.374-12.644,27.887,27.887,0,0,0-32.506-17.92c-1.621.6-3.266,1.141-4.858,1.815-13.494,5.713-20.12,22.2-14.384,35.732.106.247.225.478.333.719-.736,1.3-1.476,2.6-2.21,3.9-.079.138-.167.276-.236.411-.782,1.627-1.436,2.408-.88,2.986.3.369,2.086-.154,2.832-.289,1.427-.255,2.845-.548,4.263-.859a27.6,27.6,0,0,0,42.659.481,2.024,2.024,0,0,1,2.119-.773c3.006.47,6.025.925,9.054,1.243.86.089,2.945.536,3.257.084C422.932,448.37,422.125,447.531,421.094,445.738Z" transform="translate(-355.278 -398.068)" fill="#d8a535" fill-rule="evenodd"/>
            <g id="Group_1103101" data-name="Group 1103101" transform="translate(2.386)">
              <path id="Path_893440" data-name="Path 893440" d="M379.584,396.9A28.838,28.838,0,0,1,413.2,415.432a30.016,30.016,0,0,1,1.422,13.076,3.431,3.431,0,0,0,.5,2.063c2.027,3.173,4.137,6.287,6.223,9.417.107.159.231.314.32.467,1.065,1.856,1.9,2.72,1.3,3.446-.322.466-2.481,0-3.369-.089-3.131-.33-6.254-.8-9.361-1.284a2.094,2.094,0,0,0-2.192.8,28.6,28.6,0,0,1-48.349-7.6c-5.934-13.991.919-31.038,14.872-36.945C376.209,398.083,377.908,397.527,379.584,396.9Z" transform="translate(-357.548 -396.173)" fill="#7d3a1b" fill-rule="evenodd"/>
            </g>
            <g id="Group_1103102" data-name="Group 1103102" transform="translate(0 3.838)">
              <path id="Path_893441" data-name="Path 893441" d="M409.036,434.349a24.978,24.978,0,0,1-41.632,9.725,1.82,1.82,0,0,0-1.958-.556c-2.681.622-5.367,1.231-8.073,1.717-.773.139-2.618.68-2.929.3-.576-.6.1-1.4.91-3.087.072-.14.162-.284.244-.426,1.615-2.861,3.259-5.712,4.815-8.6a3.052,3.052,0,0,0,.313-1.831,26.106,26.106,0,0,1,.4-11.484,25.193,25.193,0,0,1,28.092-18.3C405.552,404.33,413.309,421.781,409.036,434.349Z" transform="translate(-354.228 -401.513)" fill="#ffce73" fill-rule="evenodd"/>
            </g>
            <path id="Path_893442" data-name="Path 893442" d="M382.758,436.272a3.693,3.693,0,1,1-3.693-3.7A3.694,3.694,0,0,1,382.758,436.272Z" transform="translate(-360.176 -406.412)" fill="#343433" fill-rule="evenodd"/>
            <path id="Path_893443" data-name="Path 893443" d="M417.521,436.272a3.7,3.7,0,1,1-3.7-3.7A3.695,3.695,0,0,1,417.521,436.272Z" transform="translate(-369.952 -406.412)" fill="#343433" fill-rule="evenodd"/>
            <path id="Path_893444" data-name="Path 893444" d="M400.384,436.272a3.694,3.694,0,1,1-3.7-3.7A3.7,3.7,0,0,1,400.384,436.272Z" transform="translate(-365.133 -406.412)" fill="#343433" fill-rule="evenodd"/>
          </g>
        </g>
      </g>
    </g>
  </g>
</svg>
