<svg xmlns="http://www.w3.org/2000/svg" xmlns:xlink="http://www.w3.org/1999/xlink" width="121" height="121" viewBox="0 0 121 121">
  <defs>
    <clipPath id="clip-path">
      <rect id="Rectangle_400938" data-name="Rectangle 400938" width="121" height="121" transform="translate(0 0)" fill="none"/>
    </clipPath>
    <clipPath id="clip-path-2">
      <rect id="Rectangle_401073" data-name="Rectangle 401073" width="92.219" height="41.532" fill="#efb499"/>
    </clipPath>
  </defs>
  <g id="Group_1104219" data-name="Group 1104219" transform="translate(-741.207 -2259.188)">
    <g id="Group_1102766" data-name="Group 1102766" transform="translate(353.539 -3753.812)">
      <rect id="Rectangle_401103" data-name="Rectangle 401103" width="121" height="121" transform="translate(387.668 6013)" fill="none"/>
      <g id="Group_1099348" data-name="Group 1099348" transform="translate(387.668 6013)">
        <g id="Group_1099282" data-name="Group 1099282">
          <g id="Group_1099281" data-name="Group 1099281" clip-path="url(#clip-path-2)">
            <path id="Path_873375" data-name="Path 873375" d="M74.8,9.1c-4.139,0-6.28-2.03-8.17-3.821-1.855-1.756-3.452-3.274-6.792-3.274s-4.937,1.517-6.792,3.274C51.161,7.072,49.023,9.1,44.881,9.1s-6.28-2.03-8.169-3.821C34.857,3.525,33.26,2.007,29.92,2.007s-4.937,1.517-6.789,3.274C21.241,7.072,19.1,9.1,14.962,9.1S8.679,7.072,6.789,5.281C4.937,3.525,3.34,2.007,0,2.007V0C4.139,0,6.28,2.033,8.17,3.821c1.855,1.759,3.452,3.274,6.792,3.274S19.9,5.58,21.75,3.824C23.637,2.033,25.781,0,29.92,0s6.283,2.033,8.17,3.821c1.855,1.759,3.452,3.274,6.792,3.274s4.937-1.514,6.792-3.274C53.56,2.033,55.7,0,59.843,0s6.283,2.033,8.17,3.821C69.867,5.58,71.464,7.094,74.8,7.094S79.742,5.58,81.6,3.821C83.483,2.033,85.624,0,89.766,0V2.007c-3.34,0-4.937,1.517-6.792,3.274C81.084,7.072,78.943,9.1,74.8,9.1" transform="translate(2.453 32.43)" fill="#efb499"/>
            <path id="Path_873376" data-name="Path 873376" d="M74.8,9.1c-4.139,0-6.283-2.03-8.17-3.824-1.855-1.756-3.452-3.27-6.792-3.27s-4.937,1.514-6.792,3.27C51.164,7.072,49.023,9.1,44.881,9.1s-6.283-2.03-8.17-3.824c-1.855-1.756-3.452-3.27-6.792-3.27s-4.937,1.517-6.789,3.27C21.241,7.072,19.1,9.1,14.962,9.1S8.679,7.072,6.789,5.278C4.937,3.522,3.34,2.007,0,2.007V0C4.139,0,6.283,2.03,8.17,3.821c1.855,1.759,3.452,3.274,6.792,3.274S19.9,5.58,21.75,3.821C23.637,2.03,25.781,0,29.92,0S36.2,2.03,38.093,3.821c1.852,1.759,3.449,3.274,6.789,3.274s4.937-1.514,6.792-3.274C53.56,2.03,55.7,0,59.843,0s6.283,2.03,8.17,3.821C69.867,5.58,71.464,7.094,74.8,7.094S79.742,5.58,81.6,3.821C83.486,2.03,85.627,0,89.769,0V2.007c-3.34,0-4.94,1.517-6.8,3.27C81.084,7.072,78.943,9.1,74.8,9.1" transform="translate(1.635 21.62)" fill="#efb499"/>
            <path id="Path_873377" data-name="Path 873377" d="M74.8,9.1c-4.139,0-6.283-2.03-8.169-3.824-1.855-1.756-3.452-3.27-6.792-3.27s-4.937,1.514-6.792,3.27C51.164,7.072,49.02,9.1,44.881,9.1s-6.283-2.03-8.17-3.824c-1.855-1.756-3.452-3.27-6.792-3.27s-4.937,1.517-6.789,3.27C21.241,7.072,19.1,9.1,14.962,9.1S8.678,7.072,6.789,5.278C4.937,3.522,3.34,2.007,0,2.007V0C4.139,0,6.283,2.03,8.169,3.821c1.851,1.759,3.452,3.274,6.792,3.274S19.9,5.58,21.75,3.821C23.637,2.03,25.781,0,29.92,0S36.2,2.03,38.093,3.821c1.852,1.759,3.449,3.274,6.789,3.274s4.937-1.514,6.792-3.274C53.56,2.03,55.7,0,59.843,0s6.283,2.03,8.17,3.821C69.867,5.58,71.464,7.094,74.8,7.094S79.742,5.58,81.6,3.821C83.486,2.03,85.624,0,89.769,0V2.007c-3.34,0-4.941,1.517-6.8,3.27C81.084,7.072,78.943,9.1,74.8,9.1" transform="translate(0.818 10.81)" fill="#efb499"/>
            <path id="Path_873378" data-name="Path 873378" d="M74.8,9.1c-4.139,0-6.28-2.03-8.17-3.821-1.855-1.756-3.452-3.27-6.792-3.27s-4.937,1.514-6.789,3.27C51.164,7.069,49.023,9.1,44.881,9.1s-6.28-2.03-8.169-3.821c-1.855-1.756-3.452-3.27-6.792-3.27s-4.937,1.514-6.789,3.267C21.245,7.069,19.1,9.1,14.962,9.1S8.678,7.069,6.789,5.278C4.937,3.522,3.34,2.007,0,2.007V0C4.139,0,6.283,2.03,8.17,3.821c1.855,1.756,3.452,3.27,6.792,3.27S19.9,5.577,21.75,3.821C23.64,2.03,25.781,0,29.92,0s6.28,2.03,8.173,3.821c1.852,1.756,3.449,3.27,6.789,3.27s4.937-1.514,6.792-3.27C53.563,2.03,55.7,0,59.843,0s6.28,2.03,8.17,3.821c1.855,1.756,3.452,3.27,6.792,3.27s4.937-1.514,6.792-3.27C83.486,2.03,85.627,0,89.769,0V2.007c-3.344,0-4.941,1.514-6.8,3.27C81.084,7.069,78.943,9.1,74.8,9.1" transform="translate(0 0.003)" fill="#efb499"/>
          </g>
        </g>
      </g>
      <circle id="Ellipse_11504" data-name="Ellipse 11504" cx="50.5" cy="50.5" r="50.5" transform="translate(402.668 6031)" fill="#ffce73"/>
      <circle id="Ellipse_11503" data-name="Ellipse 11503" cx="52.5" cy="52.5" r="52.5" transform="translate(395.668 6021)" fill="#f3f9ff"/>
    </g>
    <g id="Group_1102769" data-name="Group 1102769" transform="translate(767.148 2284.992)">
      <rect id="Rectangle_401104" data-name="Rectangle 401104" width="68" height="69" transform="translate(0.477 -1.269)" fill="none"/>
      <g id="Group_1103719" data-name="Group 1103719" transform="translate(-3171.665 -52.494)">
        <path id="Path_894820" data-name="Path 894820" d="M3237.468,72.053c-.158-.461-.356-.91-.546-1.345-.078-.178-.156-.356-.232-.534l-1.459-3.457q-2.257-5.347-4.52-10.692c-.732-1.726-1.889-2.194-3.639-1.474-.5.207-1.042.432-1.569.668a2.4,2.4,0,0,0-1.372,3.353c.171.454.354.894.547,1.361l.152.368c-2.066,1.041-4.125,1.874-6.452,1.224-.506-.141-1.013-.277-1.521-.413-.907-.244-1.846-.5-2.757-.772-2.953-.9-6.139-1.524-9.421-.039-2.215,1-4.5,1.953-6.712,2.872q-1.467.61-2.932,1.226l-4.144,1.749c-3.184,1.344-6.477,2.733-9.71,4.111a4.566,4.566,0,0,0-2.731,6.033c.957,2.307,3.428,3.269,6.009,2.339l.042-.013a22.39,22.39,0,0,0,.315,16.5q-.582.243-1.154.478c-1.21.5-2.353.973-3.5,1.489a1.389,1.389,0,0,1-1.465.009,2.924,2.924,0,0,0-1.942-.087,9.2,9.2,0,0,0-1.791.7l-.324.154a2.305,2.305,0,0,0-1.282,3.129c2.184,5.244,4.435,10.575,6.883,16.3a2.218,2.218,0,0,0,2.09,1.466,3.012,3.012,0,0,0,1.041-.2c.615-.226,1.219-.5,1.8-.756l.07-.031a2.418,2.418,0,0,0,1.4-3.425c-.171-.448-.35-.893-.533-1.346l-.135-.337c2.041-.973,3.984-1.844,6.2-1.251.805.217,1.613.427,2.42.638,1.354.354,2.754.72,4.123,1.106a10.915,10.915,0,0,0,7.65-.6c2.528-1.115,5.124-2.2,7.633-3.244q1.792-.747,3.581-1.5,1.619-.683,3.24-1.363c2.971-1.248,6.044-2.539,9.049-3.851a4.493,4.493,0,1,0-3.394-8.32c-.067.024-.134.045-.207.068a22.5,22.5,0,0,0-.269-16.5l1.162-.483c1.185-.491,2.3-.955,3.428-1.453.66-.292,1.021-.359,1.549-.015a2.607,2.607,0,0,0,1.863.092,11.71,11.71,0,0,0,2.116-.856l.094-.045A2.314,2.314,0,0,0,3237.468,72.053Zm-52.542,43.427a2.587,2.587,0,0,1-1.576.918,7.99,7.99,0,0,0-.772.267,1.461,1.461,0,0,1-.65-.542c-.793-1.774-1.556-3.6-2.294-5.365q-.4-.964-.808-1.927-.441-1.044-.878-2.089c-.839-2-1.707-4.071-2.6-6.091a1,1,0,0,1-.125-.715c.059-.146.243-.279.561-.405.3-.119.557-.227.783-.321a4.516,4.516,0,0,1,1.151-.4.213.213,0,0,1,.081.013c.157.065.34.511.594,1.128.081.2.172.418.277.665,1.464,3.441,2.939,6.945,4.367,10.334l1.556,3.693c.081.192.156.385.243.608Zm41.367-56.93c-.261-.59-.45-1.016-.388-1.176s.539-.378,1.252-.686c.2-.084.412-.178.653-.285a1.332,1.332,0,0,1,.51-.137.419.419,0,0,1,.156.027c.163.065.3.267.481.7,1.012,2.431,2.055,4.9,3.063,7.281q.6,1.428,1.207,2.856.723,1.712,1.443,3.426a1.257,1.257,0,0,0-.246-.333,1.288,1.288,0,0,0-1.159-.328,2.033,2.033,0,0,0-1.368,1.383,1.227,1.227,0,0,0,.022.591c-1.365-3.2-2.729-6.435-4.054-9.578l-1.124-2.664c-.018-.043-.034-.087-.05-.132s-.04-.111-.063-.165C3226.506,59.032,3226.392,58.775,3226.292,58.55Zm5.807,13.665a2.125,2.125,0,0,0,1.62.643l.182.011.1-.152c.047-.07.121-.158.2-.251a2.29,2.29,0,0,0,.6-1.061,1.427,1.427,0,0,0-.044-.647l.569,1.352.118.281c.053.126.1.253.16.388l.044.108c-.007.02-.013.041-.02.062s-.026.084-.039.116l-.236.109a17.878,17.878,0,0,1-2.278.929,2.639,2.639,0,0,1-.521-.747c-.181-.423-.362-.849-.543-1.274A1.061,1.061,0,0,0,3232.1,72.215Zm-17.578,11.977.322-3.146,2.289.279a3.569,3.569,0,0,1-1.014,1.9A3.256,3.256,0,0,1,3214.521,84.191Zm-11.757-12.958c.132-.216.235-.328.4-.328a.55.55,0,0,1,.168.031,4.475,4.475,0,0,0-1.287,4.245,5.18,5.18,0,0,0,.26.825,3.765,3.765,0,0,0-.97-.815,1.715,1.715,0,0,1-1.02-1.668c.036-.674.444-.959,1.185-1.249A2.694,2.694,0,0,0,3202.764,71.234Zm4.877,30.747a4.812,4.812,0,0,0,1.073-4.312c-.016-.06-.03-.123-.044-.187a1.534,1.534,0,0,0-.381-.847,5.974,5.974,0,0,1-1.621-3.742,15.345,15.345,0,0,0-.4-1.777l-.059-.191a11.619,11.619,0,0,0-.432-1.242,4.345,4.345,0,0,0-4.119-2.92,6.033,6.033,0,0,0-1.4.175c-1,.239-1.619.065-2.006-.564a1.657,1.657,0,0,1,.253-2.153,23.8,23.8,0,0,1,2.436-2.283,5.063,5.063,0,0,0,1.9-2.838,3.834,3.834,0,0,0-.014-2.169,4.467,4.467,0,0,0,2.2,1.553c.705.243,1.438.418,2.147.586l.129.031.237.053c.531.117.951.209,1.2.716.176.365.727.524,1.159.594a13.56,13.56,0,0,0,1.945.155,1.039,1.039,0,0,1,.775.24.915.915,0,0,1,.133.712c-.031.274-.06.549-.09.823-.067.625-.136,1.273-.225,1.9a1.834,1.834,0,0,0,.415,1.692,1.767,1.767,0,0,0,1.652.316,5.705,5.705,0,0,0,3.949-2.872c.1-.175.19-.351.293-.559a2.736,2.736,0,0,1-.35,2.8c-1.512,2.315-3.008,4.782-4.446,7.332a7.287,7.287,0,0,0-.708,2.658,2.259,2.259,0,0,0,.659,2.091,2.326,2.326,0,0,0,2.234.306c.273-.082.544-.176.807-.266a11.546,11.546,0,0,1,1.388-.415,3.551,3.551,0,0,1,.883-.037c-.041.02-.083.04-.124.058l-1.851.788c-2.808,1.2-5.712,2.435-8.58,3.619A2.788,2.788,0,0,1,3207.642,101.98Zm-7.119-24.9a1.047,1.047,0,0,1,.478.833,2.766,2.766,0,0,1-.967,2.16l-.288.257c-.92.822-1.871,1.672-2.743,2.578a3.6,3.6,0,0,0,3.466,6.028c1.9-.506,2.97.051,3.584,1.863.274.807.475,1.664.687,2.571.067.285.135.577.208.879l-8.31-2.1c0-.161.009-.319.014-.472a7.865,7.865,0,0,0-.037-1.447,1.905,1.905,0,0,0-.83-1.447,2.005,2.005,0,0,0-1.716-.066c-1.62.554-1.9.469-2.965-.918-.087-.114-.172-.23-.256-.346s-.163-.225-.248-.335c-1.176-1.538-2.094-1.909-3.75-1.423-.017-.27-.026-.545-.035-.814a7.74,7.74,0,0,0-.425-2.772c-.625-1.472-.1-2.64.465-3.877.084-.186.169-.373.251-.562a.933.933,0,0,1,.451-.342c3.293-1.4,6.647-2.81,9.891-4.174l.954-.4A3.863,3.863,0,0,0,3200.523,77.085ZM3188,87.486a1.219,1.219,0,0,1,.756.55c.306.406.669.883,1.04,1.351a3.618,3.618,0,0,0,4.546,1.376c.081-.026.164-.048.259-.072v.955a13.026,13.026,0,0,0-5.194,1.515,25.958,25.958,0,0,1-2.9,1.164l-1.471-6.168a1.8,1.8,0,0,0,2.191-.369A1.077,1.077,0,0,1,3188,87.486Zm-2.272,9.428c2.163-.914,4.4-1.859,6.6-2.8a4.549,4.549,0,0,1,3.1-.194c1.572.415,3.176.816,4.726,1.2,1.58.4,3.213.8,4.813,1.227a2.342,2.342,0,0,1,1.869,2.4,2.307,2.307,0,0,1-1.684,2.323,2.912,2.912,0,0,1-1.385,0c-1.353-.318-2.727-.656-4.055-.982-1.6-.394-3.261-.8-4.9-1.179-.435-.1-1.373.039-1.563.5a.922.922,0,0,0-.018.79c.2.394.679.514,1.1.62q1.93.483,3.858.98c2.738.7,5.568,1.424,8.369,2.071a4.979,4.979,0,0,0,2.854-.247c3.883-1.59,7.812-3.251,11.612-4.857q2.934-1.24,5.871-2.475a2.943,2.943,0,0,1,2.573,0,2.359,2.359,0,0,1,1.169,1.718,2.694,2.694,0,0,1-1.844,2.879c-3.783,1.618-7.507,3.192-11.307,4.8q-2.507,1.058-5.017,2.11c-2.42,1.016-4.922,2.066-7.379,3.11a8.172,8.172,0,0,1-5.681.359c-.9-.263-1.829-.5-2.723-.735-.953-.247-1.938-.5-2.9-.786a11.188,11.188,0,0,0-3.178-.488,9.366,9.366,0,0,0-4.361,1.08,7.628,7.628,0,0,1-.847.349l-.263.1-4.881-11.562.96-.4,2.428-1.023Zm38.1-1.989a2.087,2.087,0,0,1-2.9.893,4.508,4.508,0,0,0-3.942-.165c-.432.146-.867.284-1.4.453l-.388.124c.03-.161.057-.317.083-.466a12.2,12.2,0,0,1,.341-1.569,22.707,22.707,0,0,1,3.663-6.372c.278-.382.557-.763.83-1.147a4.832,4.832,0,0,0-.451-6.072l-.052-.059,4.572-1.933c.1.342.207.682.311,1.019.3.985.592,1.915.79,2.878A19.767,19.767,0,0,1,3223.828,94.925Zm1.3-18.894c-2.036.851-4.14,1.73-6.194,2.636a5.535,5.535,0,0,1-3.894.316c-1.715-.473-3.469-.91-5.166-1.331-1.335-.332-2.715-.675-4.065-1.034a2.459,2.459,0,0,1-.151-4.72,2.443,2.443,0,0,1,.641-.079,3.281,3.281,0,0,1,.748.089c1.329.313,2.679.646,3.984.968,1.626.4,3.308.815,4.969,1.2.425.1,1.374-.059,1.555-.531a.922.922,0,0,0,0-.778,1.5,1.5,0,0,0-1.063-.595l-.055-.013q-1.872-.468-3.741-.948c-2.743-.7-5.578-1.423-8.385-2.067a5.16,5.16,0,0,0-2.948.228c-3.417,1.394-6.873,2.851-10.216,4.261-2.318.977-4.716,1.988-7.078,2.969a4.133,4.133,0,0,1-1.974.35,2.374,2.374,0,0,1-1.984-2.178,2.754,2.754,0,0,1,1.708-2.608c1.4-.608,2.831-1.206,4.215-1.785q1.062-.444,2.123-.89l4.012-1.693c4.441-1.873,9.034-3.811,13.546-5.726a8.16,8.16,0,0,1,5.681-.354c.907.265,1.833.508,2.73.743.916.24,1.863.489,2.785.759a9.873,9.873,0,0,0,7.645-.58,7.681,7.681,0,0,1,.842-.35l.249-.093,4.882,11.548-.649.28c-.664.286-1.316.568-1.969.844Q3226.522,75.451,3225.13,76.031Z" fill="#6a4d23"/>
        <path id="Path_894821" data-name="Path 894821" d="M3188.739,270.674c-.087-.1-.169-.19-.221-.265l-.105-.15-.182.016a2.088,2.088,0,0,0-1.581.674,1.131,1.131,0,0,0-.166.948,2.049,2.049,0,0,0,1.343,1.352,1.369,1.369,0,0,0,.276.029,1.279,1.279,0,0,0,.88-.348,1.314,1.314,0,0,0,.4-1.156A2.232,2.232,0,0,0,3188.739,270.674Z" transform="translate(-10.48 -170.167)" fill="#6a4d23"/>
      </g>
    </g>
  </g>
</svg>
