<svg xmlns="http://www.w3.org/2000/svg" xmlns:xlink="http://www.w3.org/1999/xlink" width="121" height="121" viewBox="0 0 121 121">
  <defs>
    <clipPath id="clip-path">
      <rect id="Rectangle_400938" data-name="Rectangle 400938" width="121" height="121" transform="translate(0 0)" fill="none"/>
    </clipPath>
    <clipPath id="clip-path-2">
      <rect id="Rectangle_401073" data-name="Rectangle 401073" width="92.219" height="41.532" fill="#efb499"/>
    </clipPath>
  </defs>
  <g id="Group_1104219" data-name="Group 1104219" transform="translate(-1095.496 -2688.87)">
    <g id="Group_1104200" data-name="Group 1104200">
      <g id="Group_1103068" data-name="Group 1103068" transform="translate(707.828 -3324.13)">
        <rect id="Rectangle_401103" data-name="Rectangle 401103" width="121" height="121" transform="translate(387.668 6013)" fill="none"/>
        <g id="Group_1099348" data-name="Group 1099348" transform="translate(387.668 6013)">
          <g id="Group_1099282" data-name="Group 1099282">
            <g id="Group_1099281" data-name="Group 1099281" clip-path="url(#clip-path-2)">
              <path id="Path_873375" data-name="Path 873375" d="M74.8,9.1c-4.139,0-6.28-2.03-8.17-3.821-1.855-1.756-3.452-3.274-6.792-3.274s-4.937,1.517-6.792,3.274C51.161,7.072,49.023,9.1,44.881,9.1s-6.28-2.03-8.169-3.821C34.857,3.525,33.26,2.007,29.92,2.007s-4.937,1.517-6.789,3.274C21.241,7.072,19.1,9.1,14.962,9.1S8.679,7.072,6.789,5.281C4.937,3.525,3.34,2.007,0,2.007V0C4.139,0,6.28,2.033,8.17,3.821c1.855,1.759,3.452,3.274,6.792,3.274S19.9,5.58,21.75,3.824C23.637,2.033,25.781,0,29.92,0s6.283,2.033,8.17,3.821c1.855,1.759,3.452,3.274,6.792,3.274s4.937-1.514,6.792-3.274C53.56,2.033,55.7,0,59.843,0s6.283,2.033,8.17,3.821C69.867,5.58,71.464,7.094,74.8,7.094S79.742,5.58,81.6,3.821C83.483,2.033,85.624,0,89.766,0V2.007c-3.34,0-4.937,1.517-6.792,3.274C81.084,7.072,78.943,9.1,74.8,9.1" transform="translate(2.453 32.43)" fill="#efb499"/>
              <path id="Path_873376" data-name="Path 873376" d="M74.8,9.1c-4.139,0-6.283-2.03-8.17-3.824-1.855-1.756-3.452-3.27-6.792-3.27s-4.937,1.514-6.792,3.27C51.164,7.072,49.023,9.1,44.881,9.1s-6.283-2.03-8.17-3.824c-1.855-1.756-3.452-3.27-6.792-3.27s-4.937,1.517-6.789,3.27C21.241,7.072,19.1,9.1,14.962,9.1S8.679,7.072,6.789,5.278C4.937,3.522,3.34,2.007,0,2.007V0C4.139,0,6.283,2.03,8.17,3.821c1.855,1.759,3.452,3.274,6.792,3.274S19.9,5.58,21.75,3.821C23.637,2.03,25.781,0,29.92,0S36.2,2.03,38.093,3.821c1.852,1.759,3.449,3.274,6.789,3.274s4.937-1.514,6.792-3.274C53.56,2.03,55.7,0,59.843,0s6.283,2.03,8.17,3.821C69.867,5.58,71.464,7.094,74.8,7.094S79.742,5.58,81.6,3.821C83.486,2.03,85.627,0,89.769,0V2.007c-3.34,0-4.94,1.517-6.8,3.27C81.084,7.072,78.943,9.1,74.8,9.1" transform="translate(1.635 21.62)" fill="#efb499"/>
              <path id="Path_873377" data-name="Path 873377" d="M74.8,9.1c-4.139,0-6.283-2.03-8.169-3.824-1.855-1.756-3.452-3.27-6.792-3.27s-4.937,1.514-6.792,3.27C51.164,7.072,49.02,9.1,44.881,9.1s-6.283-2.03-8.17-3.824c-1.855-1.756-3.452-3.27-6.792-3.27s-4.937,1.517-6.789,3.27C21.241,7.072,19.1,9.1,14.962,9.1S8.678,7.072,6.789,5.278C4.937,3.522,3.34,2.007,0,2.007V0C4.139,0,6.283,2.03,8.169,3.821c1.851,1.759,3.452,3.274,6.792,3.274S19.9,5.58,21.75,3.821C23.637,2.03,25.781,0,29.92,0S36.2,2.03,38.093,3.821c1.852,1.759,3.449,3.274,6.789,3.274s4.937-1.514,6.792-3.274C53.56,2.03,55.7,0,59.843,0s6.283,2.03,8.17,3.821C69.867,5.58,71.464,7.094,74.8,7.094S79.742,5.58,81.6,3.821C83.486,2.03,85.624,0,89.769,0V2.007c-3.34,0-4.941,1.517-6.8,3.27C81.084,7.072,78.943,9.1,74.8,9.1" transform="translate(0.818 10.81)" fill="#efb499"/>
              <path id="Path_873378" data-name="Path 873378" d="M74.8,9.1c-4.139,0-6.28-2.03-8.17-3.821-1.855-1.756-3.452-3.27-6.792-3.27s-4.937,1.514-6.789,3.27C51.164,7.069,49.023,9.1,44.881,9.1s-6.28-2.03-8.169-3.821c-1.855-1.756-3.452-3.27-6.792-3.27s-4.937,1.514-6.789,3.267C21.245,7.069,19.1,9.1,14.962,9.1S8.678,7.069,6.789,5.278C4.937,3.522,3.34,2.007,0,2.007V0C4.139,0,6.283,2.03,8.17,3.821c1.855,1.756,3.452,3.27,6.792,3.27S19.9,5.577,21.75,3.821C23.64,2.03,25.781,0,29.92,0s6.28,2.03,8.173,3.821c1.852,1.756,3.449,3.27,6.789,3.27s4.937-1.514,6.792-3.27C53.563,2.03,55.7,0,59.843,0s6.28,2.03,8.17,3.821c1.855,1.756,3.452,3.27,6.792,3.27s4.937-1.514,6.792-3.27C83.486,2.03,85.627,0,89.769,0V2.007c-3.344,0-4.941,1.514-6.8,3.27C81.084,7.069,78.943,9.1,74.8,9.1" transform="translate(0 0.003)" fill="#efb499"/>
            </g>
          </g>
        </g>
        <circle id="Ellipse_11504" data-name="Ellipse 11504" cx="50.5" cy="50.5" r="50.5" transform="translate(402.668 6031)" fill="#ffce73"/>
        <circle id="Ellipse_11503" data-name="Ellipse 11503" cx="52.5" cy="52.5" r="52.5" transform="translate(395.668 6021)" fill="#f3f9ff"/>
      </g>
      <g id="Group_1103071" data-name="Group 1103071" transform="translate(1121.438 2714.674)">
        <rect id="Rectangle_401104" data-name="Rectangle 401104" width="68" height="69" transform="translate(0.187 -0.673)" fill="none"/>
        <g id="Group_1103114" data-name="Group 1103114" transform="translate(-137.425 -135.134)">
          <rect id="Rectangle_405301" data-name="Rectangle 405301" width="48.645" height="62.669" transform="translate(142.612 139.371) rotate(-4.271)" fill="#c6c6c6"/>
          <rect id="Rectangle_405302" data-name="Rectangle 405302" width="48.645" height="62.669" transform="translate(148.329 134.46)" fill="#f6f6f6"/>
          <g id="Group_1103108" data-name="Group 1103108" transform="translate(152.933 147.565)">
            <path id="Path_893615" data-name="Path 893615" d="M166.978,161.241a9.028,9.028,0,1,1,2.336-8.72A9.029,9.029,0,0,1,166.978,161.241Z" transform="translate(-151.567 -145.83)" fill="#f6d864"/>
            <path id="Path_893616" data-name="Path 893616" d="M166.978,161.241a9.028,9.028,0,1,1-6.1-15.407l-.284,9.024Z" transform="translate(-151.567 -145.83)" fill="#0593a1"/>
            <path id="Path_893617" data-name="Path 893617" d="M166.964,160.046a9.031,9.031,0,0,1-15.3-4.971l8.918-1.412Z" transform="translate(-151.552 -144.635)" fill="#e96b57"/>
          </g>
          <g id="Group_1103109" data-name="Group 1103109" transform="translate(177.335 140.998)">
            <rect id="Rectangle_405303" data-name="Rectangle 405303" width="3.255" height="9.238" transform="translate(0 6.681)" fill="#00a683"/>
            <rect id="Rectangle_405304" data-name="Rectangle 405304" width="3.255" height="14.567" transform="translate(3.888 1.352)" fill="#3e8db8"/>
            <rect id="Rectangle_405305" data-name="Rectangle 405305" width="3.255" height="15.919" transform="translate(7.776)" fill="#e96b57"/>
            <rect id="Rectangle_405306" data-name="Rectangle 405306" width="3.255" height="12.173" transform="translate(11.665 3.746)" fill="#ffd01a"/>
          </g>
          <path id="Path_893618" data-name="Path 893618" d="M175.47,175.643l-.268-1.807,4.493-.666,3.818-6.694,1.587.906-4.259,7.466Z" transform="translate(4.973 4.885)" fill="#df4937"/>
          <path id="Path_893619" data-name="Path 893619" d="M156.5,186.358l-.8-.446,4.146-7.405,5.131-1.278,2.595-4.953,5.658-.554,3.1,2.048,1.913-.284.134.9-2.258.335-3.126-2.063-4.845.474-2.555,4.878-5.146,1.283Z" transform="translate(1.997 5.685)" fill="#df4937"/>
          <g id="Group_1103112" data-name="Group 1103112" transform="translate(157.101 170.066)">
            <path id="Path_893620" data-name="Path 893620" d="M183.462,187.117H155.712V167.79h.382v18.945h27.367Z" transform="translate(-155.102 -164.98)" fill="#575756"/>
            <g id="Group_1103110" data-name="Group 1103110">
              <path id="Path_893621" data-name="Path 893621" d="M155.183,168.342l.8-2.99.8,2.99Z" transform="translate(-155.183 -165.352)" fill="#575756"/>
            </g>
            <g id="Group_1103111" data-name="Group 1103111" transform="translate(28.248 21.181)">
              <path id="Path_893622" data-name="Path 893622" d="M179.691,185.258l2.853-.765-2.853-.765Z" transform="translate(-179.691 -183.729)" fill="#575756"/>
            </g>
          </g>
          <path id="Path_893623" data-name="Path 893623" d="M180.586,168.38l4.057-3.274-.505,5.189Z" transform="translate(5.794 4.676)" fill="#df4937"/>
          <g id="Group_1103113" data-name="Group 1103113" transform="translate(176.616 159.974)">
            <path id="Path_893624" data-name="Path 893624" d="M196.827,195.608l-2.013.634a1.512,1.512,0,0,1-1.845-.668l-5.71-13.246,3.471-1.095,6.894,12.873A1.073,1.073,0,0,1,196.827,195.608Z" transform="translate(-169.803 -152.838)" fill="#7d3a1b"/>
            <path id="Path_893625" data-name="Path 893625" d="M192.622,182.691l-4.435,1.73a1.282,1.282,0,0,1-1.66-.728l-1.131-2.9,6.823-2.661,1.131,2.9A1.282,1.282,0,0,1,192.622,182.691Z" transform="translate(-170.088 -153.311)" fill="#7d3a1b"/>
            <path id="Path_893626" data-name="Path 893626" d="M191.157,183.575a13.966,13.966,0,1,1,7.937-18.087A13.983,13.983,0,0,1,191.157,183.575Zm-8.873-22.748a10.451,10.451,0,1,0,13.534,5.939A10.463,10.463,0,0,0,182.284,160.827Z" transform="translate(-172.114 -156.597)" fill="#7d3a1b"/>
            <path id="Path_893627" data-name="Path 893627" d="M175.788,170.488a9.765,9.765,0,0,1,1.1-5.282l.151-.278a9.776,9.776,0,0,1,2.687-3.028l1.451,1.964a7.294,7.294,0,0,0-2,2.236l-.152.278a7.324,7.324,0,0,0-.8,3.927Z" transform="translate(-171.558 -155.787)" fill="#dadada"/>
            <path id="Path_893628" data-name="Path 893628" d="M193.2,169.545c-.013.129-.028.259-.045.388l-.048.312a9.761,9.761,0,0,1-2.584,5.132l-1.338-1.285a7.911,7.911,0,0,0,2.088-4.129l.047-.311c.013-.1.024-.19.033-.285Z" transform="translate(-169.51 -154.648)" fill="#dadada"/>
          </g>
          <path id="Path_893629" data-name="Path 893629" d="M173.127,177.11H166.77a.457.457,0,0,1,0-.914h6.356a.457.457,0,0,1,0,.914Z" transform="translate(3.616 6.368)" fill="#706f6f"/>
          <path id="Path_893630" data-name="Path 893630" d="M175.868,178.943h-9.1a.457.457,0,0,1,0-.914h9.1a.457.457,0,0,1,0,.914Z" transform="translate(3.616 6.648)" fill="#706f6f"/>
          <path id="Path_893631" data-name="Path 893631" d="M178.359,138.125h-26.2a.456.456,0,1,1,0-.913h26.2a.456.456,0,0,1,0,.913Z" transform="translate(1.387 0.42)" fill="#706f6f"/>
          <path id="Path_893632" data-name="Path 893632" d="M173.549,140.65H152.157a.457.457,0,0,1,0-.914h21.392a.457.457,0,0,1,0,.914Z" transform="translate(1.387 0.805)" fill="#706f6f"/>
          <path id="Path_893633" data-name="Path 893633" d="M170.846,143.175H152.157a.456.456,0,0,1,0-.913h18.689a.456.456,0,0,1,0,.913Z" transform="translate(1.387 1.19)" fill="#706f6f"/>
          <path id="Path_893634" data-name="Path 893634" d="M179.465,180.775H166.77a.456.456,0,1,1,0-.913h12.694a.456.456,0,1,1,0,.913Z" transform="translate(3.616 6.927)" fill="#706f6f"/>
          <path id="Path_893635" data-name="Path 893635" d="M179.465,182.608H166.77a.456.456,0,0,1,0-.913h12.694a.456.456,0,0,1,0,.913Z" transform="translate(3.616 7.207)" fill="#706f6f"/>
        </g>
      </g>
    </g>
  </g>
</svg>
