<svg xmlns="http://www.w3.org/2000/svg" width="70" height="70" viewBox="0 0 70 70">
  <g id="Group_1104219" data-name="Group 1104219" transform="translate(-614.625 -1098)">
    <g id="Group_1102837" data-name="Group 1102837" transform="translate(345.302 139.985)">
      <circle id="Ellipse_5614" data-name="Ellipse 5614" cx="35" cy="35" r="35" transform="translate(269.323 958.015)" fill="#fff"/>
      <g id="Group_1103138" data-name="Group 1103138" transform="translate(-560.255 -2003.907)">
        <path id="Path_893660" data-name="Path 893660" d="M864.245,3019.122a22.1,22.1,0,1,1,21.667-22.1A21.912,21.912,0,0,1,864.245,3019.122Zm0-38.8a16.7,16.7,0,1,0,16.371,16.7A16.555,16.555,0,0,0,864.245,2980.324Z" transform="translate(0)" fill="#7a4f00"/>
        <path id="Path_893661" data-name="Path 893661" d="M895.332,3016.1l2.927,6.131a1,1,0,0,0,.747.561l6.545.983a1.036,1.036,0,0,1,.55,1.75l-4.736,4.772a1.049,1.049,0,0,0-.285.908l1.118,6.739a1,1,0,0,1-1.44,1.081l-5.854-3.181a.965.965,0,0,0-.924,0l-5.854,3.181a1,1,0,0,1-1.44-1.081l1.118-6.739a1.048,1.048,0,0,0-.285-.908l-4.736-4.772a1.036,1.036,0,0,1,.55-1.75l6.545-.983a1,1,0,0,0,.747-.561l2.927-6.131A.979.979,0,0,1,895.332,3016.1Z" transform="translate(-30.197 -30.729)" fill="#7a4f00"/>
      </g>
    </g>
  </g>
</svg>
