<svg xmlns="http://www.w3.org/2000/svg" xmlns:xlink="http://www.w3.org/1999/xlink" width="120" height="120" viewBox="0 0 120 120">
  <defs>
    <clipPath id="clip-path">
      <rect id="Rectangle_400938" data-name="Rectangle 400938" width="120" height="120" transform="translate(0 0)" fill="none"/>
    </clipPath>
    <clipPath id="clip-path-2">
      <rect id="Rectangle_401073" data-name="Rectangle 401073" width="92.219" height="41.532" fill="#7d3a1b"/>
    </clipPath>
  </defs>
  <g id="Group_1104191" data-name="Group 1104191" transform="translate(-810 -1475.302)">
    <g id="Group_1102846" data-name="Group 1102846" transform="translate(422.332 -4537.698)">
      <rect id="Rectangle_401103" data-name="Rectangle 401103" width="120" height="120" transform="translate(387.668 6013)" fill="none"/>
      <g id="Group_1099348" data-name="Group 1099348" transform="translate(387.668 6013)">
        <g id="Group_1099282" data-name="Group 1099282">
          <g id="Group_1099281" data-name="Group 1099281" clip-path="url(#clip-path-2)">
            <path id="Path_873375" data-name="Path 873375" d="M74.8,9.1c-4.139,0-6.28-2.03-8.17-3.821-1.855-1.756-3.452-3.274-6.792-3.274s-4.937,1.517-6.792,3.274C51.161,7.072,49.023,9.1,44.881,9.1s-6.28-2.03-8.169-3.821C34.857,3.525,33.26,2.007,29.92,2.007s-4.937,1.517-6.789,3.274C21.241,7.072,19.1,9.1,14.962,9.1S8.679,7.072,6.789,5.281C4.937,3.525,3.34,2.007,0,2.007V0C4.139,0,6.28,2.033,8.17,3.821c1.855,1.759,3.452,3.274,6.792,3.274S19.9,5.58,21.75,3.824C23.637,2.033,25.781,0,29.92,0s6.283,2.033,8.17,3.821c1.855,1.759,3.452,3.274,6.792,3.274s4.937-1.514,6.792-3.274C53.56,2.033,55.7,0,59.843,0s6.283,2.033,8.17,3.821C69.867,5.58,71.464,7.094,74.8,7.094S79.742,5.58,81.6,3.821C83.483,2.033,85.624,0,89.766,0V2.007c-3.34,0-4.937,1.517-6.792,3.274C81.084,7.072,78.943,9.1,74.8,9.1" transform="translate(2.453 32.43)" fill="#7d3a1b"/>
            <path id="Path_873376" data-name="Path 873376" d="M74.8,9.1c-4.139,0-6.283-2.03-8.17-3.824-1.855-1.756-3.452-3.27-6.792-3.27s-4.937,1.514-6.792,3.27C51.164,7.072,49.023,9.1,44.881,9.1s-6.283-2.03-8.17-3.824c-1.855-1.756-3.452-3.27-6.792-3.27s-4.937,1.517-6.789,3.27C21.241,7.072,19.1,9.1,14.962,9.1S8.679,7.072,6.789,5.278C4.937,3.522,3.34,2.007,0,2.007V0C4.139,0,6.283,2.03,8.17,3.821c1.855,1.759,3.452,3.274,6.792,3.274S19.9,5.58,21.75,3.821C23.637,2.03,25.781,0,29.92,0S36.2,2.03,38.093,3.821c1.852,1.759,3.449,3.274,6.789,3.274s4.937-1.514,6.792-3.274C53.56,2.03,55.7,0,59.843,0s6.283,2.03,8.17,3.821C69.867,5.58,71.464,7.094,74.8,7.094S79.742,5.58,81.6,3.821C83.486,2.03,85.627,0,89.769,0V2.007c-3.34,0-4.94,1.517-6.8,3.27C81.084,7.072,78.943,9.1,74.8,9.1" transform="translate(1.635 21.62)" fill="#7d3a1b"/>
            <path id="Path_873377" data-name="Path 873377" d="M74.8,9.1c-4.139,0-6.283-2.03-8.169-3.824-1.855-1.756-3.452-3.27-6.792-3.27s-4.937,1.514-6.792,3.27C51.164,7.072,49.02,9.1,44.881,9.1s-6.283-2.03-8.17-3.824c-1.855-1.756-3.452-3.27-6.792-3.27s-4.937,1.517-6.789,3.27C21.241,7.072,19.1,9.1,14.962,9.1S8.678,7.072,6.789,5.278C4.937,3.522,3.34,2.007,0,2.007V0C4.139,0,6.283,2.03,8.169,3.821c1.851,1.759,3.452,3.274,6.792,3.274S19.9,5.58,21.75,3.821C23.637,2.03,25.781,0,29.92,0S36.2,2.03,38.093,3.821c1.852,1.759,3.449,3.274,6.789,3.274s4.937-1.514,6.792-3.274C53.56,2.03,55.7,0,59.843,0s6.283,2.03,8.17,3.821C69.867,5.58,71.464,7.094,74.8,7.094S79.742,5.58,81.6,3.821C83.486,2.03,85.624,0,89.769,0V2.007c-3.34,0-4.941,1.517-6.8,3.27C81.084,7.072,78.943,9.1,74.8,9.1" transform="translate(0.818 10.81)" fill="#7d3a1b"/>
            <path id="Path_873378" data-name="Path 873378" d="M74.8,9.1c-4.139,0-6.28-2.03-8.17-3.821-1.855-1.756-3.452-3.27-6.792-3.27s-4.937,1.514-6.789,3.27C51.164,7.069,49.023,9.1,44.881,9.1s-6.28-2.03-8.169-3.821c-1.855-1.756-3.452-3.27-6.792-3.27s-4.937,1.514-6.789,3.267C21.245,7.069,19.1,9.1,14.962,9.1S8.678,7.069,6.789,5.278C4.937,3.522,3.34,2.007,0,2.007V0C4.139,0,6.283,2.03,8.17,3.821c1.855,1.756,3.452,3.27,6.792,3.27S19.9,5.577,21.75,3.821C23.64,2.03,25.781,0,29.92,0s6.28,2.03,8.173,3.821c1.852,1.756,3.449,3.27,6.789,3.27s4.937-1.514,6.792-3.27C53.563,2.03,55.7,0,59.843,0s6.28,2.03,8.17,3.821c1.855,1.756,3.452,3.27,6.792,3.27s4.937-1.514,6.792-3.27C83.486,2.03,85.627,0,89.769,0V2.007c-3.344,0-4.941,1.514-6.8,3.27C81.084,7.069,78.943,9.1,74.8,9.1" transform="translate(0 0.003)" fill="#7d3a1b"/>
          </g>
        </g>
      </g>
      <circle id="Ellipse_11504" data-name="Ellipse 11504" cx="50" cy="50" r="50" transform="translate(402.668 6031)" fill="#efb499"/>
      <circle id="Ellipse_11503" data-name="Ellipse 11503" cx="52" cy="52" r="52" transform="translate(395.668 6021)" fill="#f3f9ff"/>
    </g>
    <g id="Group_1102847" data-name="Group 1102847" transform="translate(835.941 1501.105)">
      <rect id="Rectangle_401104" data-name="Rectangle 401104" width="68" height="69" transform="translate(-0.316 -1.106)" fill="none"/>
      <g id="Group_1103650" data-name="Group 1103650" transform="translate(-233.776 -363.461)">
        <rect id="Rectangle_405426" data-name="Rectangle 405426" width="44.15" height="60.34" transform="translate(247.912 364.356)" fill="#ede4d5"/>
        <rect id="Rectangle_405427" data-name="Rectangle 405427" width="21.198" height="8.478" transform="translate(274.31 374.516)" fill="#d9cbb4"/>
        <rect id="Rectangle_405428" data-name="Rectangle 405428" width="21.198" height="8.478" transform="translate(274.31 390.647)" fill="#d9cbb4"/>
        <rect id="Rectangle_405429" data-name="Rectangle 405429" width="21.198" height="8.478" transform="translate(274.31 406.777)" fill="#d9cbb4"/>
        <rect id="Rectangle_405430" data-name="Rectangle 405430" width="7.598" height="4.992" transform="translate(279.118 369.445)" fill="#7b6a58"/>
        <rect id="Rectangle_405431" data-name="Rectangle 405431" width="7.598" height="4.992" transform="translate(279.118 385.694)" fill="#7b6a58"/>
        <rect id="Rectangle_405432" data-name="Rectangle 405432" width="7.598" height="4.992" transform="translate(279.118 401.905)" fill="#7b6a58"/>
        <g id="Group_1103647" data-name="Group 1103647" transform="translate(240.46 396.591)">
          <path id="Path_894645" data-name="Path 894645" d="M244.506,406.033a15.4,15.4,0,0,1,3.214-2.373c.056-.029.45.936.505.908s-.246-1.043-.2-1.067a7.375,7.375,0,0,1,3.462-.868c.051,0,.157,1.024.207,1.027s.065-1.012.124-1.006a3.644,3.644,0,0,1,3.354,4.515C254.028,409.411,250.17,404.192,244.506,406.033Z" transform="translate(-240.919 -400.486)" fill="#27a823"/>
          <path id="Path_894646" data-name="Path 894646" d="M240.46,415.763a15.937,15.937,0,0,1,2.535-6.339c.079-.115,1.23.46,1.31.349.1-.132-.874-.95-.774-1.076a11.285,11.285,0,0,1,3.705-3.12c.106-.053.833,1.72.941,1.672.138-.063-.342-1.945-.2-2,2.631-1.007,5.19-.312,6.324,2.56.211,2.294-5.814,2.583-10.539,5.276-.108.062-.527-1.13-.633-1.065-.084.051.144,1.356.061,1.407A11.387,11.387,0,0,0,240.46,415.763Z" transform="translate(-240.46 -400.734)" fill="#2ec729"/>
          <path id="Path_894647" data-name="Path 894647" d="M267.781,404.723a11.474,11.474,0,0,0-2.85-2.959c-.082-.059-.506.793-.59.739s.181-1.012.1-1.061a8,8,0,0,0-3.818-1.227c-.1,0-.2,1.838-.3,1.838s-.185-1.843-.277-1.84a6.013,6.013,0,0,0-2.912.856c-.087.052.479,1.441.4,1.5s-.81-1.22-.888-1.16a5.816,5.816,0,0,0-2.114,5.207c.7,2.085,5.386-1.509,9.948-2.118.073-.01.309-.957.381-.966s-.017.923.056.917A7.08,7.08,0,0,1,267.781,404.723Z" transform="translate(-242.054 -400.212)" fill="#2ec729"/>
          <path id="Path_894648" data-name="Path 894648" d="M256.238,407.266l-1.727,1.607c6.969,10.106,7,24.393,7,24.533l.02.007a.872.872,0,0,0,.395.536,1.941,1.941,0,0,0,2,0,.833.833,0,0,0,.415-.659C264.331,432.681,263.687,418.069,256.238,407.266Z" transform="translate(-242.054 -401.012)" fill="#bc6a32"/>
          <path id="Path_894649" data-name="Path 894649" d="M248.289,423.732a16.74,16.74,0,0,1-1.444-7.366c0-.14,1.4-.23,1.41-.37.01-.17-1.368-.389-1.353-.558a13.115,13.115,0,0,1,1.942-6c.072-.109,1.77.8,1.845.7s-1.452-1.247-1.363-1.356c1.469-1.794,3.43-2.491,5.437-1.332.771.9-.25,2.7-1.7,5.056-.083.136-1.739-1.223-1.825-1.083-.069.113,1.432,1.723,1.361,1.837-.771,1.255-1.616,2.647-2.354,4.128-.061.124-1.215-.531-1.275-.406-.05.1.993.989.944,1.095A16.64,16.64,0,0,0,248.289,423.732Z" transform="translate(-241.183 -400.968)" fill="#36e52f"/>
          <path id="Path_894650" data-name="Path 894650" d="M268.607,414.687a16.671,16.671,0,0,0-.933-3.027c-.038-.09-.84.153-.879.064s.7-.487.66-.563a14.309,14.309,0,0,0-2.793-4.092c-.1-.1-.647.473-.744.381-.076-.072.3-.805.227-.874a9.545,9.545,0,0,0-3.763-2.164c-.094-.026-.657.971-.75.949s.286-1.059.2-1.076a4.422,4.422,0,0,0-5.315,3.083c-.057.964.969,1.528,2.535,2.038.076.025.551-1.765.63-1.74.064.02-.27,1.855-.2,1.875,1,.306,2.186.6,3.428.971.086.026.422-2.068.508-2.043s-.106,2.163-.035,2.185a23.827,23.827,0,0,1,3.7,1.435c.1.051.512-1.349.613-1.3.068.035-.172,1.525-.1,1.561A11.382,11.382,0,0,1,268.607,414.687Z" transform="translate(-242.054 -400.662)" fill="#3eff38"/>
          <g id="Group_1103646" data-name="Group 1103646" transform="translate(13.47 8.171)">
            <path id="Path_894651" data-name="Path 894651" d="M262.884,435.215a2.628,2.628,0,0,0,.471.074,2.352,2.352,0,0,0,.508.028l.526-.027.518-.109a1.274,1.274,0,0,0,.243-.065c-.006-.078-.013-.159-.02-.243a1.589,1.589,0,0,1-.266.064l-.5.1-.505.035a2.729,2.729,0,0,1-.49-.006,3.913,3.913,0,0,1-.458-.034l-.406-.074-.165-.03.008.131.122.037Z" transform="translate(-256.411 -412.314)" fill="#6e5040"/>
            <path id="Path_894652" data-name="Path 894652" d="M262.588,432.9a2.186,2.186,0,0,0,.324.044,1.967,1.967,0,0,0,.348.019l.361-.013.357-.06a2.129,2.129,0,0,0,.34-.09,2.419,2.419,0,0,0,.311-.11c.1-.043.184-.087.266-.127l-.019-.147-.02.006c-.086.025-.178.051-.274.083s-.2.044-.309.074a2.971,2.971,0,0,1-.33.065l-.343.051-.345.021a2.645,2.645,0,0,1-.335,0c-.108-.007-.215.005-.314-.009s-.192-.019-.28-.026c-.056,0-.108-.008-.158-.015l.012.125a1.074,1.074,0,0,0,.12.035C262.39,432.851,262.486,432.876,262.588,432.9Z" transform="translate(-256.392 -412.035)" fill="#6e5040"/>
            <path id="Path_894653" data-name="Path 894653" d="M262.817,430.609l.47-.087c.153-.05.307-.1.458-.15.147-.069.294-.137.439-.212.119-.075.236-.153.351-.233l-.021-.133c-.134.06-.266.121-.4.185-.147.051-.291.108-.434.164-.149.04-.3.086-.442.129l-.449.092c-.151.017-.3.035-.454.055-.136,0-.272.01-.41.018.006.052.012.1.019.153.131.015.262.028.4.04C262.5,430.625,262.659,430.617,262.817,430.609Z" transform="translate(-256.365 -411.738)" fill="#6e5040"/>
            <path id="Path_894654" data-name="Path 894654" d="M262.165,428.539a2.618,2.618,0,0,0,.332.023c.231.011.48.012.727.015l.366-.049a2.1,2.1,0,0,0,.353-.079,2.341,2.341,0,0,0,.317-.1c-.012-.062-.023-.125-.035-.188-.1.034-.207.038-.315.065a3.022,3.022,0,0,1-.342.055l-.358.039c-.24,0-.481,0-.707.015-.113,0-.222.018-.327.012l-.3,0c-.1,0-.185,0-.263,0l.016.1c.071.015.151.031.238.045Z" transform="translate(-256.329 -411.553)" fill="#6e5040"/>
            <path id="Path_894655" data-name="Path 894655" d="M261.774,426.518a2.6,2.6,0,0,0,.345.013l.356-.013.354-.051a2.587,2.587,0,0,0,.339-.075,2.747,2.747,0,0,0,.312-.092c.1-.035.19-.073.273-.107.027-.01.051-.021.075-.032l-.028-.128-.082.018c-.086.018-.179.038-.277.062s-.2.034-.309.057c-.214.044-.445.062-.675.093-.231.012-.461.036-.678.031-.108,0-.215.009-.313,0-.075-.005-.145-.007-.215-.009l.032.166c.056.012.109.023.169.033A2.588,2.588,0,0,0,261.774,426.518Z" transform="translate(-256.288 -411.311)" fill="#6e5040"/>
            <path id="Path_894656" data-name="Path 894656" d="M261.542,424.609a2.32,2.32,0,0,0,.332-.122,3.034,3.034,0,0,0,.331-.156,5.651,5.651,0,0,0,.619-.38c.161-.115.307-.228.435-.335l-.04-.156-.49.294-.3.173c-.1.064-.207.114-.313.17a3.008,3.008,0,0,1-.316.159c-.106.047-.208.1-.31.137s-.2.082-.294.113l-.27.082.032.145.27-.039C261.325,424.674,261.432,424.642,261.542,424.609Z" transform="translate(-256.251 -411.019)" fill="#6e5040"/>
            <path id="Path_894657" data-name="Path 894657" d="M260.951,422.76a1.339,1.339,0,0,0,.2-.068l.2-.09.179-.105c.119-.071.238-.152.353-.214s.228-.135.338-.2c.1-.047.23-.09.336-.133.086-.022.165-.045.243-.067-.015-.051-.028-.1-.043-.153-.078.011-.159.021-.245.035a3.555,3.555,0,0,0-.358.106c-.117.06-.239.12-.362.187s-.239.138-.36.207l-.177.11-.173.083a2.534,2.534,0,0,1-.356.129,2.35,2.35,0,0,1-.263.062c.017.066.034.131.05.2a1.526,1.526,0,0,0,.254-.038A1.175,1.175,0,0,0,260.951,422.76Z" transform="translate(-256.198 -410.823)" fill="#6e5040"/>
            <path id="Path_894658" data-name="Path 894658" d="M260.732,420.832c.137-.035.27-.09.405-.136s.264-.119.394-.176a3.5,3.5,0,0,0,.367-.207,3,3,0,0,0,.328-.225l.023-.017c-.019-.059-.037-.119-.057-.178l-.05.029c-.1.061-.213.131-.332.189s-.235.129-.362.18-.251.119-.382.162-.258.1-.387.138-.254.081-.38.11l-.362.082c.019.062.037.124.055.185l.337-.045C260.458,420.9,260.595,420.866,260.732,420.832Z" transform="translate(-256.139 -410.615)" fill="#6e5040"/>
            <path id="Path_894659" data-name="Path 894659" d="M259.982,419.037a3.018,3.018,0,0,0,.334-.152l.336-.18.322-.213a3.362,3.362,0,0,0,.3-.227,3.542,3.542,0,0,0,.271-.229l.027-.027c-.02-.059-.042-.116-.063-.175l-.06.045c-.085.068-.184.125-.28.2-.192.14-.408.266-.619.4-.218.121-.432.252-.641.352-.1.049-.2.111-.3.152l-.194.09c.017.051.034.1.05.15.065-.019.128-.036.2-.059A3.275,3.275,0,0,0,259.982,419.037Z" transform="translate(-256.08 -410.381)" fill="#6e5040"/>
            <path id="Path_894660" data-name="Path 894660" d="M259.379,417.339c.114-.065.234-.129.353-.2s.229-.168.344-.253a3.289,3.289,0,0,0,.322-.288,2.494,2.494,0,0,0,.289-.309c.06-.074.116-.144.171-.215l-.077-.192-.229.244a3.1,3.1,0,0,1-.29.28,3.012,3.012,0,0,1-.312.27c-.109.083-.215.171-.324.249s-.223.144-.331.213-.216.118-.316.176c-.049.024-.094.05-.139.074l.059.159.137-.053A2.529,2.529,0,0,0,259.379,417.339Z" transform="translate(-256.014 -410.16)" fill="#6e5040"/>
            <path id="Path_894661" data-name="Path 894661" d="M258.506,415.16a6.4,6.4,0,0,0,.643-.485,5.711,5.711,0,0,0,.584-.578,2.879,2.879,0,0,0,.193-.232c-.028-.061-.056-.122-.084-.183-.074.082-.154.165-.24.247s-.184.183-.284.271-.2.184-.3.268-.2.178-.308.257-.2.168-.3.242c-.146.113-.28.217-.408.3l.066.155c.043-.022.088-.045.132-.071C258.3,415.3,258.4,415.229,258.506,415.16Z" transform="translate(-255.919 -409.91)" fill="#6e5040"/>
            <path id="Path_894662" data-name="Path 894662" d="M257.707,413.483c.1-.051.206-.1.31-.157a2.9,2.9,0,0,0,.307-.2c.052-.038.095-.066.154-.113l.132-.124a1.923,1.923,0,0,0,.249-.26c.077-.1.147-.191.215-.281.024-.039.045-.078.066-.117l-.08-.161-.112.153c-.07.074-.144.152-.215.235a2.518,2.518,0,0,1-.254.236l-.135.121-.137.094a2.583,2.583,0,0,1-.286.2c-.1.054-.194.114-.288.169-.165.075-.314.156-.457.218l.072.15a1.191,1.191,0,0,0,.158-.05C257.5,413.56,257.6,413.525,257.707,413.483Z" transform="translate(-255.826 -409.728)" fill="#6e5040"/>
            <path id="Path_894663" data-name="Path 894663" d="M256.855,412.157c.166-.076.341-.166.516-.255.165-.11.331-.218.481-.328a2.148,2.148,0,0,0,.214-.164c.066-.057.125-.113.181-.167.1-.093.179-.175.239-.238l-.027-.051c-.074.04-.17.095-.282.165-.062.038-.129.08-.2.127s-.148.082-.225.131c-.157.089-.319.192-.482.294s-.334.181-.488.275c-.079.043-.149.1-.224.132-.035.017-.065.034-.1.051.027.051.055.1.082.151.024-.008.046-.013.071-.022A2.024,2.024,0,0,0,256.855,412.157Z" transform="translate(-255.745 -409.601)" fill="#6e5040"/>
            <path id="Path_894664" data-name="Path 894664" d="M256.149,410.694c.084-.02.174-.041.266-.067.107-.039.186-.073.283-.116s.19-.108.281-.169.176-.131.254-.207a2.226,2.226,0,0,0,.223-.236,2.114,2.114,0,0,0,.184-.246c.015-.026.031-.05.046-.074-.029-.05-.06-.1-.09-.149-.027.031-.054.063-.081.1-.054.075-.128.134-.192.208s-.146.13-.218.2-.16.122-.239.186-.165.105-.246.159l-.258.129c-.09.032-.176.067-.257.1l-.227.093c-.084.033-.159.065-.223.092l.05.083.2-.032C255.987,410.732,256.063,410.714,256.149,410.694Z" transform="translate(-255.653 -409.428)" fill="#6e5040"/>
          </g>
        </g>
        <g id="Group_1103649" data-name="Group 1103649" transform="translate(254.07 405.771)">
          <path id="Path_894665" data-name="Path 894665" d="M277.82,414.8a11.2,11.2,0,0,0-2.335-1.724c-.04-.021-.327.68-.367.66s.178-.758.145-.775a5.375,5.375,0,0,0-2.515-.631c-.036,0-.114.745-.151.746s-.047-.735-.09-.731a2.648,2.648,0,0,0-2.437,3.28C270.9,417.251,273.705,413.46,277.82,414.8Z" transform="translate(-261.134 -410.766)" fill="#1e841b"/>
          <path id="Path_894666" data-name="Path 894666" d="M280.472,421.866a11.6,11.6,0,0,0-1.841-4.606c-.058-.083-.894.335-.953.254-.07-.1.636-.69.563-.782a8.186,8.186,0,0,0-2.692-2.267c-.078-.039-.606,1.249-.684,1.215-.1-.045.248-1.413.147-1.451-1.911-.732-3.771-.227-4.594,1.859-.153,1.666,4.224,1.877,7.657,3.834.079.044.383-.82.46-.774.061.036-.1.985-.044,1.022A8.3,8.3,0,0,1,280.472,421.866Z" transform="translate(-261.179 -410.946)" fill="#25a122"/>
          <path id="Path_894667" data-name="Path 894667" d="M260.675,413.845a8.33,8.33,0,0,1,2.071-2.15c.06-.043.368.576.428.536s-.131-.735-.074-.77a5.8,5.8,0,0,1,2.774-.892c.073,0,.145,1.335.218,1.335s.135-1.339.2-1.337a4.374,4.374,0,0,1,2.116.622c.062.038-.348,1.047-.288,1.088s.588-.886.645-.842a4.227,4.227,0,0,1,1.536,3.783c-.51,1.515-3.913-1.1-7.227-1.538-.053-.007-.224-.7-.277-.7s.012.671-.041.666A5.156,5.156,0,0,0,260.675,413.845Z" transform="translate(-260.075 -410.567)" fill="#25a122"/>
          <path id="Path_894668" data-name="Path 894668" d="M269.382,415.692l1.254,1.169c-5.063,7.343-5.084,17.722-5.085,17.824l-.014.005a.637.637,0,0,1-.286.389,1.41,1.41,0,0,1-1.455,0,.6.6,0,0,1-.3-.479C263.5,434.158,263.969,423.542,269.382,415.692Z" transform="translate(-260.394 -411.148)" fill="#965428"/>
          <path id="Path_894669" data-name="Path 894669" d="M275.309,427.656a12.152,12.152,0,0,0,1.05-5.352c0-.1-1.019-.168-1.024-.269-.007-.123.994-.283.983-.405a9.537,9.537,0,0,0-1.411-4.363c-.052-.079-1.286.583-1.341.509s1.054-.906.989-.985c-1.067-1.3-2.492-1.81-3.95-.967-.56.651.182,1.958,1.232,3.673.06.1,1.263-.888,1.325-.787.051.082-1.04,1.252-.989,1.334.56.913,1.174,1.924,1.71,3,.044.09.882-.387.927-.3.036.075-.722.718-.686.8A12.077,12.077,0,0,1,275.309,427.656Z" transform="translate(-261.179 -411.116)" fill="#2cbc27"/>
          <path id="Path_894670" data-name="Path 894670" d="M260,421.085a12.093,12.093,0,0,1,.678-2.2c.027-.066.611.11.639.045s-.505-.353-.48-.409a10.394,10.394,0,0,1,2.029-2.973c.069-.07.47.343.54.277s-.22-.585-.164-.635a6.927,6.927,0,0,1,2.733-1.573c.068-.019.477.7.545.69s-.208-.77-.143-.783a3.213,3.213,0,0,1,3.862,2.24c.041.7-.7,1.109-1.841,1.481-.056.019-.4-1.282-.458-1.264s.2,1.348.148,1.362c-.729.223-1.588.439-2.49.706-.063.019-.307-1.5-.37-1.484s.077,1.572.025,1.588a17.429,17.429,0,0,0-2.687,1.043c-.074.037-.371-.981-.445-.942-.049.026.125,1.108.076,1.135A8.263,8.263,0,0,0,260,421.085Z" transform="translate(-259.998 -410.894)" fill="#34e32f"/>
          <g id="Group_1103648" data-name="Group 1103648" transform="translate(3.158 5.937)">
            <path id="Path_894671" data-name="Path 894671" d="M265.206,436a1.906,1.906,0,0,1-.342.054,1.7,1.7,0,0,1-.369.02l-.382-.02-.376-.079a.909.909,0,0,1-.176-.047c0-.057.009-.115.014-.176a1.176,1.176,0,0,0,.193.046l.363.071.367.025a2.077,2.077,0,0,0,.356,0,3.031,3.031,0,0,0,.333-.025l.3-.053.119-.022-.005.095-.089.027Z" transform="translate(-263.56 -419.36)" fill="#4f382d"/>
            <path id="Path_894672" data-name="Path 894672" d="M265.428,434.317a1.768,1.768,0,0,1-.235.032,1.5,1.5,0,0,1-.254.013l-.262-.01-.26-.044a1.507,1.507,0,0,1-.247-.065,1.78,1.78,0,0,1-.226-.08c-.069-.031-.134-.063-.193-.092l.013-.106.015,0c.062.018.129.037.2.06s.147.033.223.053a2.288,2.288,0,0,0,.24.048l.249.035.251.016a2.024,2.024,0,0,0,.243,0c.079,0,.157,0,.228-.006s.14-.013.2-.019a1.118,1.118,0,0,0,.115-.012l-.009.091a.622.622,0,0,1-.087.025C265.572,434.281,265.5,434.3,265.428,434.317Z" transform="translate(-263.582 -419.157)" fill="#4f382d"/>
            <path id="Path_894673" data-name="Path 894673" d="M265.273,432.652l-.342-.063c-.111-.036-.223-.07-.332-.109s-.215-.1-.319-.154c-.086-.054-.171-.112-.255-.168l.016-.1c.1.043.193.087.288.134s.211.079.316.12.215.062.321.093l.326.067c.11.012.22.026.33.041s.2.007.3.012l-.013.112c-.1.011-.191.02-.287.028C265.5,432.664,265.388,432.659,265.273,432.652Z" transform="translate(-263.613 -418.941)" fill="#4f382d"/>
            <path id="Path_894674" data-name="Path 894674" d="M265.743,431.148a1.887,1.887,0,0,1-.241.017c-.168.008-.348.01-.527.011l-.267-.035a1.591,1.591,0,0,1-.256-.058,1.707,1.707,0,0,1-.23-.072l.026-.137c.072.024.151.028.23.046a1.909,1.909,0,0,0,.248.04l.26.028c.175,0,.349,0,.513.012.082,0,.161.013.238.009l.215,0c.07,0,.134,0,.191,0l-.012.07c-.051.011-.11.022-.173.033Z" transform="translate(-263.635 -418.807)" fill="#4f382d"/>
            <path id="Path_894675" data-name="Path 894675" d="M266.033,429.68a1.668,1.668,0,0,1-.25.01l-.259-.01-.257-.037a1.857,1.857,0,0,1-.246-.055,2.06,2.06,0,0,1-.227-.066c-.071-.027-.137-.053-.2-.078l-.054-.023.02-.093.059.012c.063.013.13.028.2.046s.147.024.225.041c.155.032.323.045.489.067s.335.027.493.022c.079,0,.156.007.227,0,.055,0,.106,0,.156-.006l-.023.121c-.041.008-.079.017-.123.024A1.907,1.907,0,0,1,266.033,429.68Z" transform="translate(-263.671 -418.631)" fill="#4f382d"/>
            <path id="Path_894676" data-name="Path 894676" d="M266.224,428.293a1.723,1.723,0,0,1-.241-.089,2.272,2.272,0,0,1-.24-.113,4.088,4.088,0,0,1-.45-.277q-.176-.126-.316-.243l.029-.114.355.215.219.126c.074.046.152.082.228.123a2.146,2.146,0,0,0,.23.115c.077.034.152.075.226.1s.143.06.214.083l.2.059-.023.1-.2-.027C266.382,428.341,266.3,428.317,266.224,428.293Z" transform="translate(-263.721 -418.419)" fill="#4f382d"/>
            <path id="Path_894677" data-name="Path 894677" d="M266.653,426.95a1.062,1.062,0,0,1-.141-.05l-.143-.066-.13-.076c-.086-.051-.172-.11-.256-.155s-.166-.1-.246-.145-.168-.066-.244-.1c-.062-.016-.12-.032-.176-.049l.032-.111.177.026c.084.024.164.04.261.076s.174.088.262.137.174.1.262.151l.129.08.126.06a1.936,1.936,0,0,0,.258.095c.066.02.129.033.192.045-.012.047-.024.095-.036.143a1.143,1.143,0,0,1-.184-.027A1.031,1.031,0,0,1,266.653,426.95Z" transform="translate(-263.759 -418.277)" fill="#4f382d"/>
            <path id="Path_894678" data-name="Path 894678" d="M266.815,425.549c-.1-.025-.2-.066-.294-.1s-.191-.086-.286-.128a2.579,2.579,0,0,1-.266-.151,2.2,2.2,0,0,1-.239-.163l-.017-.012c.013-.043.027-.087.041-.129l.036.021c.076.044.155.095.241.137s.171.094.263.131.182.087.277.118.188.075.282.1.184.059.277.08l.262.06-.04.135-.245-.033C267.014,425.6,266.914,425.574,266.815,425.549Z" transform="translate(-263.804 -418.125)" fill="#4f382d"/>
            <path id="Path_894679" data-name="Path 894679" d="M267.374,424.245a2.329,2.329,0,0,1-.242-.111l-.244-.131-.234-.154a2.275,2.275,0,0,1-.219-.165c-.069-.057-.137-.107-.2-.167l-.02-.02c.015-.043.031-.084.046-.127l.043.033c.062.05.135.09.2.142.14.1.3.193.45.292s.313.183.465.255c.076.035.147.081.217.11l.141.066-.035.109c-.047-.014-.093-.027-.145-.043A2.221,2.221,0,0,1,267.374,424.245Z" transform="translate(-263.861 -417.956)" fill="#4f382d"/>
            <path id="Path_894680" data-name="Path 894680" d="M267.826,423.011c-.083-.047-.17-.094-.256-.146s-.166-.122-.25-.184a2.169,2.169,0,0,1-.233-.209,1.789,1.789,0,0,1-.21-.224c-.044-.054-.084-.1-.125-.157l.056-.139.167.176a2.289,2.289,0,0,0,.21.2,2.164,2.164,0,0,0,.227.2c.079.06.157.125.236.181s.162.1.24.155.157.085.231.128l.1.054-.042.116-.1-.04A1.754,1.754,0,0,1,267.826,423.011Z" transform="translate(-263.922 -417.795)" fill="#4f382d"/>
            <path id="Path_894681" data-name="Path 894681" d="M268.468,421.428a4.511,4.511,0,0,1-.466-.353,3.953,3.953,0,0,1-.425-.419,1.894,1.894,0,0,1-.141-.168l.061-.133c.055.059.113.12.175.18s.135.132.207.2.143.133.219.194.147.129.223.187.147.121.222.176c.106.082.2.158.3.22l-.048.113c-.032-.016-.064-.033-.1-.051C268.62,421.528,268.543,421.478,268.468,421.428Z" transform="translate(-264 -417.614)" fill="#4f382d"/>
            <path id="Path_894682" data-name="Path 894682" d="M269.045,420.21c-.073-.036-.149-.073-.225-.113a2.249,2.249,0,0,1-.223-.144c-.038-.028-.069-.049-.112-.083l-.1-.09a1.464,1.464,0,0,1-.181-.189c-.056-.069-.107-.139-.155-.2-.018-.027-.034-.057-.049-.084l.059-.118.081.112c.051.054.1.11.157.171a1.923,1.923,0,0,0,.184.171l.1.088.1.068a1.824,1.824,0,0,0,.207.141c.073.04.141.083.209.123.12.055.229.113.332.159-.017.036-.035.073-.052.109a.985.985,0,0,1-.114-.036C269.2,420.266,269.121,420.24,269.045,420.21Z" transform="translate(-264.064 -417.481)" fill="#4f382d"/>
            <path id="Path_894683" data-name="Path 894683" d="M269.659,419.246c-.121-.055-.248-.121-.375-.185-.12-.08-.24-.159-.349-.238a1.565,1.565,0,0,1-.156-.119c-.047-.042-.091-.083-.131-.121-.072-.067-.13-.127-.174-.173l.02-.036c.054.029.124.069.2.12.045.028.094.058.144.092s.108.06.164.095c.113.065.232.14.35.215s.243.131.356.2c.057.031.108.07.163.1l.07.037c-.02.036-.04.073-.059.11-.018-.006-.034-.01-.052-.017A1.414,1.414,0,0,1,269.659,419.246Z" transform="translate(-264.117 -417.389)" fill="#4f382d"/>
            <path id="Path_894684" data-name="Path 894684" d="M270.171,418.183c-.062-.015-.127-.03-.193-.049s-.136-.053-.206-.084-.138-.079-.2-.123-.128-.1-.184-.151a1.918,1.918,0,0,1-.3-.35l-.034-.054.066-.109c.02.023.04.046.059.072.039.053.092.1.139.151s.106.095.159.147.116.089.174.135.12.077.179.115l.187.094c.066.023.128.05.187.073l.165.068c.061.024.115.047.162.067l-.035.06c-.044-.007-.094-.014-.148-.024S270.233,418.2,270.171,418.183Z" transform="translate(-264.183 -417.263)" fill="#4f382d"/>
          </g>
        </g>
      </g>
    </g>
  </g>
</svg>
