<svg xmlns="http://www.w3.org/2000/svg" xmlns:xlink="http://www.w3.org/1999/xlink" width="121" height="121" viewBox="0 0 121 121">
  <defs>
    <clipPath id="clip-path">
      <rect id="Rectangle_400938" data-name="Rectangle 400938" width="121" height="121" transform="translate(0 0)" fill="none"/>
    </clipPath>
    <clipPath id="clip-path-2">
      <rect id="Rectangle_401073" data-name="Rectangle 401073" width="92.219" height="41.532" fill="#efb499"/>
    </clipPath>
  </defs>
  <g id="Group_1104218" data-name="Group 1104218" transform="translate(-389.207 -2259.188)">
    <g id="Group_1102764" data-name="Group 1102764" transform="translate(1.539 -3753.812)">
      <rect id="Rectangle_401103" data-name="Rectangle 401103" width="121" height="121" transform="translate(387.668 6013)" fill="none"/>
      <g id="Group_1099348" data-name="Group 1099348" transform="translate(387.668 6013)">
        <g id="Group_1099282" data-name="Group 1099282">
          <g id="Group_1099281" data-name="Group 1099281" clip-path="url(#clip-path-2)">
            <path id="Path_873375" data-name="Path 873375" d="M74.8,9.1c-4.139,0-6.28-2.03-8.17-3.821-1.855-1.756-3.452-3.274-6.792-3.274s-4.937,1.517-6.792,3.274C51.161,7.072,49.023,9.1,44.881,9.1s-6.28-2.03-8.169-3.821C34.857,3.525,33.26,2.007,29.92,2.007s-4.937,1.517-6.789,3.274C21.241,7.072,19.1,9.1,14.962,9.1S8.679,7.072,6.789,5.281C4.937,3.525,3.34,2.007,0,2.007V0C4.139,0,6.28,2.033,8.17,3.821c1.855,1.759,3.452,3.274,6.792,3.274S19.9,5.58,21.75,3.824C23.637,2.033,25.781,0,29.92,0s6.283,2.033,8.17,3.821c1.855,1.759,3.452,3.274,6.792,3.274s4.937-1.514,6.792-3.274C53.56,2.033,55.7,0,59.843,0s6.283,2.033,8.17,3.821C69.867,5.58,71.464,7.094,74.8,7.094S79.742,5.58,81.6,3.821C83.483,2.033,85.624,0,89.766,0V2.007c-3.34,0-4.937,1.517-6.792,3.274C81.084,7.072,78.943,9.1,74.8,9.1" transform="translate(2.453 32.43)" fill="#efb499"/>
            <path id="Path_873376" data-name="Path 873376" d="M74.8,9.1c-4.139,0-6.283-2.03-8.17-3.824-1.855-1.756-3.452-3.27-6.792-3.27s-4.937,1.514-6.792,3.27C51.164,7.072,49.023,9.1,44.881,9.1s-6.283-2.03-8.17-3.824c-1.855-1.756-3.452-3.27-6.792-3.27s-4.937,1.517-6.789,3.27C21.241,7.072,19.1,9.1,14.962,9.1S8.679,7.072,6.789,5.278C4.937,3.522,3.34,2.007,0,2.007V0C4.139,0,6.283,2.03,8.17,3.821c1.855,1.759,3.452,3.274,6.792,3.274S19.9,5.58,21.75,3.821C23.637,2.03,25.781,0,29.92,0S36.2,2.03,38.093,3.821c1.852,1.759,3.449,3.274,6.789,3.274s4.937-1.514,6.792-3.274C53.56,2.03,55.7,0,59.843,0s6.283,2.03,8.17,3.821C69.867,5.58,71.464,7.094,74.8,7.094S79.742,5.58,81.6,3.821C83.486,2.03,85.627,0,89.769,0V2.007c-3.34,0-4.94,1.517-6.8,3.27C81.084,7.072,78.943,9.1,74.8,9.1" transform="translate(1.635 21.62)" fill="#efb499"/>
            <path id="Path_873377" data-name="Path 873377" d="M74.8,9.1c-4.139,0-6.283-2.03-8.169-3.824-1.855-1.756-3.452-3.27-6.792-3.27s-4.937,1.514-6.792,3.27C51.164,7.072,49.02,9.1,44.881,9.1s-6.283-2.03-8.17-3.824c-1.855-1.756-3.452-3.27-6.792-3.27s-4.937,1.517-6.789,3.27C21.241,7.072,19.1,9.1,14.962,9.1S8.678,7.072,6.789,5.278C4.937,3.522,3.34,2.007,0,2.007V0C4.139,0,6.283,2.03,8.169,3.821c1.851,1.759,3.452,3.274,6.792,3.274S19.9,5.58,21.75,3.821C23.637,2.03,25.781,0,29.92,0S36.2,2.03,38.093,3.821c1.852,1.759,3.449,3.274,6.789,3.274s4.937-1.514,6.792-3.274C53.56,2.03,55.7,0,59.843,0s6.283,2.03,8.17,3.821C69.867,5.58,71.464,7.094,74.8,7.094S79.742,5.58,81.6,3.821C83.486,2.03,85.624,0,89.769,0V2.007c-3.34,0-4.941,1.517-6.8,3.27C81.084,7.072,78.943,9.1,74.8,9.1" transform="translate(0.818 10.81)" fill="#efb499"/>
            <path id="Path_873378" data-name="Path 873378" d="M74.8,9.1c-4.139,0-6.28-2.03-8.17-3.821-1.855-1.756-3.452-3.27-6.792-3.27s-4.937,1.514-6.789,3.27C51.164,7.069,49.023,9.1,44.881,9.1s-6.28-2.03-8.169-3.821c-1.855-1.756-3.452-3.27-6.792-3.27s-4.937,1.514-6.789,3.267C21.245,7.069,19.1,9.1,14.962,9.1S8.678,7.069,6.789,5.278C4.937,3.522,3.34,2.007,0,2.007V0C4.139,0,6.283,2.03,8.17,3.821c1.855,1.756,3.452,3.27,6.792,3.27S19.9,5.577,21.75,3.821C23.64,2.03,25.781,0,29.92,0s6.28,2.03,8.173,3.821c1.852,1.756,3.449,3.27,6.789,3.27s4.937-1.514,6.792-3.27C53.563,2.03,55.7,0,59.843,0s6.28,2.03,8.17,3.821c1.855,1.756,3.452,3.27,6.792,3.27s4.937-1.514,6.792-3.27C83.486,2.03,85.627,0,89.769,0V2.007c-3.344,0-4.941,1.514-6.8,3.27C81.084,7.069,78.943,9.1,74.8,9.1" transform="translate(0 0.003)" fill="#efb499"/>
          </g>
        </g>
      </g>
      <circle id="Ellipse_11504" data-name="Ellipse 11504" cx="50.5" cy="50.5" r="50.5" transform="translate(402.668 6031)" fill="#ffce73"/>
      <circle id="Ellipse_11503" data-name="Ellipse 11503" cx="52.5" cy="52.5" r="52.5" transform="translate(395.668 6021)" fill="#f3f9ff"/>
    </g>
    <g id="Group_1102767" data-name="Group 1102767" transform="translate(415.148 2284.992)">
      <rect id="Rectangle_401104" data-name="Rectangle 401104" width="68" height="69" transform="translate(0.477 -1.269)" fill="none"/>
      <g id="Group_1103720" data-name="Group 1103720" transform="translate(-3693.77 -39.469)">
        <path id="Path_894822" data-name="Path 894822" d="M3710.118,80.939a5.172,5.172,0,0,1-3.833-3.853h-6.077v1.1q0,4.62,0,9.24c0,.732.036,1.532-1,1.517-1.047-.016-.943-.847-.943-1.558,0-3.151-.014-6.3.01-9.453a1.469,1.469,0,0,0-.737-1.455,2.92,2.92,0,0,1-.018-4.856,1.894,1.894,0,0,0,.021-3.081,2.97,2.97,0,0,1,1.646-5.421c2.3-.045,4.6.007,6.9-.039a4.369,4.369,0,0,0,1.723-.385c6.176-2.9,12.332-5.839,18.509-8.733a1.338,1.338,0,0,0,.924-1.424c-.04-3.894-.022-7.789-.016-11.683,0-1.407.257-1.651,1.683-1.652q4.992,0,9.984,0c2.264,0,3.38,1.125,3.385,3.394,0,2.478.011,4.957,0,7.435a2.941,2.941,0,0,1-3.018,3.135c-1.874.059-3.752.018-5.628.013a1.17,1.17,0,0,1-1.308-1.317c0-.844,0-1.688,0-2.6h-3.062c0,1.287-.035,2.582.03,3.871.013.248.378.566.655.7q9.48,4.51,18.986,8.967a3.56,3.56,0,0,0,1.425.286c2.195.03,4.39,0,6.585.019a3,3,0,0,1,1.767,5.6,2.027,2.027,0,0,0,.044,2.787,2.975,2.975,0,0,1,.072,5.125,1.541,1.541,0,0,0-.581,1.069c-.033,7.612-.02,15.223-.036,22.835a.873.873,0,0,0,.688.984,4.855,4.855,0,0,1,3.268,3.853c.267,1.359-.127,1.834-1.511,1.834q-12.108,0-24.216,0h-40.36c-1.73,0-2.082-.439-1.689-2.111a4.757,4.757,0,0,1,3.167-3.562.931.931,0,0,0,.722-1.07c-.028-2.69-.007-5.381-.016-8.072,0-.695.076-1.332.96-1.337s.989.619.985,1.321c-.01,1.556,0,3.112,0,4.754h9.911Zm26.2.277a15.922,15.922,0,0,1-2.527-1.741,13.988,13.988,0,0,1-1.547-2.4h-8.182a5.219,5.219,0,0,1-3.823,3.87v20.213h1.858V99.924q0-7.648,0-15.3c0-1.29.347-1.639,1.626-1.642q4.461-.01,8.923,0c1.424,0,1.743.319,1.744,1.739q0,7.648,0,15.3v1.137h1.924V92.381c0-.7.147-1.319,1-1.337s1.025.6,1.026,1.3q0,2.443,0,4.886c0,1.3,0,2.6,0,3.933h5.929V81.132h-5.929c0,.526,0,.982,0,1.438,0,1.77.047,3.544-.051,5.309a1.479,1.479,0,0,1-.9,1.032c-.673.184-1-.362-1.065-1a8.2,8.2,0,0,1-.01-.849C3736.317,85.044,3736.317,83.029,3736.317,81.216Zm-28.036-10.209h39.891V65.191h-39.891Zm-11.791,34.151h63.343c.027-.133.069-.209.05-.264a1.524,1.524,0,0,0-.183-.373,3.472,3.472,0,0,0-3.163-1.352q-28.3.014-56.595.007a5.85,5.85,0,0,0-.849.02A3,3,0,0,0,3696.491,105.158ZM3744.2,63.012l.032-.2c-5.142-2.429-10.28-4.868-15.438-7.262a1.705,1.705,0,0,0-1.262.069c-2.953,1.357-5.883,2.763-8.821,4.154q-3.234,1.531-6.469,3.059l.047.183Zm-15.938,12.077h28.02c.354,0,.787.107,1.041-.056a1.725,1.725,0,0,0,.816-1.022c.027-.283-.458-.694-.8-.908-.234-.146-.619-.061-.937-.061q-28.178,0-56.358,0c-.317,0-.707-.08-.934.071-.335.224-.765.621-.765.945s.415.751.754.96c.262.161.688.07,1.04.07Q3714.2,75.091,3728.266,75.089Zm-16.02,6.034v20.048h5.843V81.124ZM3756.2,97.175v-20.1h-5.977c-.783,2.243-1.545,3.012-3.834,3.912V97.175Zm-31.989,3.989h8.021V91.1h-8.021Zm5.1-54h11.037c0-1.48.005-2.923,0-4.367-.006-1.3-.318-1.621-1.626-1.624q-4.289-.012-8.578,0c-.27,0-.539.053-.832.083Zm2.96,37.967h-8.035v3.733h8.035Zm-10.38-8.044h-13.432a2.593,2.593,0,0,0,2.475,1.9q4.231.093,8.466,0A2.64,2.64,0,0,0,3721.893,77.087Zm12.686,0a2.576,2.576,0,0,0,2.291,1.867c2.96.084,5.926.081,8.886.007a2.147,2.147,0,0,0,2.125-1.874Zm-34.312,24.063h9.84V99.295h-9.84Zm46.074.01h9.872V99.325h-9.872Zm-40.22-36.024c-2.357,0-4.609-.037-6.857.04a1.276,1.276,0,0,0-.909.862c-.024.313.489.949.783.959,2.312.08,4.627.045,6.983.045Zm44.25,1.911c2.372,0,4.625.037,6.875-.04a1.261,1.261,0,0,0,.891-.869c.013-.321-.5-.942-.8-.952-2.31-.08-4.625-.044-6.965-.044ZM3700.228,71h5.857V69.216h-5.857Zm56.006-1.8h-5.823v1.813h5.823Zm-21.783-18.094c1.692,0,3.315.053,4.931-.044.333-.02.634-.6.95-.914-.323-.316-.63-.884-.971-.9-1.613-.1-3.235-.043-4.91-.043Z" transform="translate(0)" fill="#6a4d23"/>
        <path id="Path_894823" data-name="Path 894823" d="M3731.721,244.141c0-1.592-.023-3.184.006-4.775a3,3,0,1,1,6,0c.037,3.218.008,6.437.013,9.656a1.239,1.239,0,0,1-1.431,1.418c-1.1-.014-2.193,0-3.29,0a1.149,1.149,0,0,1-1.3-1.307C3731.726,247.466,3731.721,245.8,3731.721,244.141Zm3.947,4.183c0-3.059-.009-5.992.007-8.925,0-.668-.246-1.172-.91-1.2-.729-.03-1.026.485-1.022,1.2.01,1.77,0,3.539,0,5.308v3.618Z" transform="translate(-29.506 -155.157)" fill="#6a4d23"/>
        <path id="Path_894824" data-name="Path 894824" d="M3954.459,244.08c0,1.627.014,3.254,0,4.881-.012,1.151-.318,1.457-1.446,1.474-1.061.016-2.122,0-3.183,0a1.2,1.2,0,0,1-1.382-1.354c0-3.289-.04-6.579.018-9.868a2.994,2.994,0,1,1,5.987.088C3954.486,240.9,3954.458,242.489,3954.459,244.08Zm-2.029,4.243c0-3.089,0-6.057,0-9.025,0-.678-.374-1.186-1-1.067a1.445,1.445,0,0,0-.874,1.06c-.1,1.729-.042,3.466-.043,5.2v3.833Z" transform="translate(-200.182 -155.158)" fill="#6a4d23"/>
      </g>
    </g>
  </g>
</svg>
