<svg xmlns="http://www.w3.org/2000/svg" xmlns:xlink="http://www.w3.org/1999/xlink" width="190" height="189" viewBox="0 0 190 189">
  <defs>
    <clipPath id="clip-path">
      <rect id="Rectangle_402355" data-name="Rectangle 402355" width="125.519" height="125.519" transform="translate(-0.029 -0.49)" fill="#fff" stroke="#707070" stroke-width="1"/>
    </clipPath>
  </defs>
  <g id="Group_1102699" data-name="Group 1102699" transform="translate(-330 -6992)">
    <rect id="Rectangle_402215" data-name="Rectangle 402215" width="190" height="185" transform="translate(330 6995)" fill="none"/>
    <g id="Group_1100287" data-name="Group 1100287" transform="translate(-13 -536)">
      <g id="Grupo_156312" data-name="Grupo 156312" transform="translate(344 7528)">
        <path id="Elipse_5845" data-name="Elipse 5845" d="M94.5,0A94.5,94.5,0,1,1,0,94.5,94.5,94.5,0,0,1,94.5,0Z" transform="translate(0 0)" fill="#ffce73"/>
      </g>
      <g id="Mask_Group_1098715" data-name="Mask Group 1098715" transform="translate(375.74 7559.74)" clip-path="url(#clip-path)">
        <g id="Group_1104002" data-name="Group 1104002" transform="translate(-4917.649 -624.109)">
          <path id="Path_895228" data-name="Path 895228" d="M4956.211,708.159c-3.932,1.022-7.7,2-11.464,2.98q-9.907,2.585-19.814,5.17c-2.618.678-4.254-.584-4.264-3.316-.022-6.281,0-12.562-.016-18.844,0-1.3.2-2.512,1.771-2.521,1.636-.009,1.706,1.274,1.7,2.539-.016,5.473-.006,10.946-.006,16.418v2.247c3.81-.968,7.342-1.849,10.865-2.765,6.786-1.763,13.563-3.562,20.355-5.3.986-.253,1.706-.568,1.827-1.718a4.348,4.348,0,0,1,.542-1.769c1.854-3.04,1.675-6.389,1.649-9.745-.046-6.343-.056-12.687.021-19.03a2.305,2.305,0,0,0-1.69-2.618c-3.968-1.488-6.75-.5-8.651,3.266s-3.754,7.564-5.667,11.328c-1.481,2.914-4.042,4.165-6.89,3.447a5.689,5.689,0,0,1-4.248-6.209c.529-7.809,1.019-15.629,1.9-23.4.3-2.674,1.726-5.22,2.688-7.973-3.955,1.024-7.921,2-11.834,3.143-.439.129-.828,1.251-.832,1.916-.054,9.39-.036,18.781-.038,28.172,0,.559.171,1.228-.074,1.652-.353.611-1,1.431-1.547,1.449-.578.019-1.289-.713-1.737-1.278-.249-.315-.1-.96-.1-1.456q-.005-14.832,0-29.665c0-2.818.632-3.572,3.36-4.279,11.773-3.052,23.537-6.142,35.319-9.155a6.915,6.915,0,0,1,3.286-.05c12.023,3.075,24.025,6.238,36.042,9.338a4.5,4.5,0,0,0,2.152-.032c11.661-2.989,23.311-6.026,34.97-9.028,2.77-.713,4.3.5,4.3,3.381q.014,29.478,0,58.956c0,2.374-.652,3.16-2.994,3.775-2.761.725-5.525,1.438-8.282,2.179-1.223.329-2.329.269-2.661-1.164s.633-1.963,1.855-2.263c2.471-.606,4.948-1.2,7.377-1.949a2.02,2.02,0,0,0,1.2-1.433q.085-28.638.035-57.277a3.954,3.954,0,0,0-.182-.732c-2.945.76-5.882,1.481-8.787,2.309-.433.124-.831.7-1.058,1.16-1.461,2.949-2.858,5.93-4.3,8.887a4.51,4.51,0,0,0,.293,4.763c1.228,1.87,2.471,3.732,3.661,5.626a6.637,6.637,0,0,1-2.524,9.854c-1.191.668-2.406,1.3-3.616,1.929a8.473,8.473,0,0,1-8.7-.193q-4.027-2.343-8.074-4.651c-.52-.3-1.062-.556-1.733-.9a5.223,5.223,0,0,0-.178.86q-.012,11.194.007,22.388a4.138,4.138,0,0,0,.385,1.789,23.847,23.847,0,0,1,2.557,12.625,6.826,6.826,0,0,0,.12,1.07c4.364-1.14,8.61-2.251,12.857-3.356a4.654,4.654,0,0,1,1.981-.408,8.568,8.568,0,0,1,2.151,1.238c-.468.69-.8,1.8-1.429,2-3.008.969-6.094,1.694-9.153,2.5a6.829,6.829,0,0,1-.728.16c-4.135.621-6.829,2.359-8.847,6.614-4.424,9.33-15.144,14.155-24.966,12.348a24.34,24.34,0,0,1-19.795-20.009C4956.313,711.581,4956.333,709.969,4956.211,708.159Zm24.109,21.752a20.554,20.554,0,1,0-20.491-20.7A20.534,20.534,0,0,0,4980.32,729.911Zm-17.375-85.392a7.064,7.064,0,0,0-.125.869c-.007,7.207.012,14.413-.03,21.62-.006,1.008.438,1.357,1.288,1.693,7.266,2.871,14.509,5.8,21.764,8.7,4.94,1.972,4.99,1.964,6.681-3.027.732-2.164,1.888-3.975,4.069-4.792a1.9,1.9,0,0,0,1.382-2.206c-.061-3.975-.1-7.955.019-11.927.047-1.514-.55-2.023-1.885-2.356-5.472-1.363-10.923-2.816-16.382-4.231C4974.152,647.415,4968.578,645.976,4962.946,644.52Zm-3.708,0c-5.791,1.5-11.309,2.913-16.817,4.367a1.653,1.653,0,0,0-.975.733c-2.045,4.163-4.279,8.2-4.435,13.084-.2,6.138-.771,12.266-1.25,18.393-.123,1.569,0,2.987,1.718,3.444,1.7.449,2.374-.861,3.006-2.142q2.8-5.672,5.657-11.313c1.4-2.768,3.555-4.745,6.655-5.125a39.343,39.343,0,0,1,6.439.236Zm63.349,3.612c-6.944,1.808-13.416,3.513-19.9,5.161a1.447,1.447,0,0,0-1.285,1.676c.039,4.352-.023,8.706.065,13.056a2.406,2.406,0,0,0,1.054,1.669c2.538,1.559,5.338,2.749,7.7,4.528,3.978,2.995,7.705,2.86,11.55-.021a1.593,1.593,0,0,1,.166-.084c2.171-1.257,2.624-2.855,1.32-4.973-1.107-1.8-2.272-3.561-3.452-5.313a8.048,8.048,0,0,1-.591-8.632C5020.31,652.978,5021.346,650.731,5022.586,648.128Zm-24.737,25.021-.721-.252c-.657,1.543-1.379,3.063-1.958,4.636-1.541,4.192-4.5,5.56-8.677,3.915-3.692-1.454-7.372-2.939-11.058-4.41l-12.461-4.972V692.38c11.707-9.6,23.284-9.554,34.874.04Z" transform="translate(0 0)" fill="#7d3a1b"/>
          <path id="Path_895229" data-name="Path 895229" d="M5179.144,765.163a5.688,5.688,0,0,1-3.389,5.541c-3.2,1.491-6.464,2.858-9.761,4.122a6.065,6.065,0,0,1-7.638-3.242,5.907,5.907,0,0,1,2.567-7.849,94.423,94.423,0,0,1,10.438-4.4A5.957,5.957,0,0,1,5179.144,765.163Zm-15.6,6.782.351-.316a2.691,2.691,0,0,0,.735-.085c3.31-1.381,6.659-2.683,9.9-4.221,1.246-.592,1.451-1.94.861-3.251a2.32,2.32,0,0,0-3.1-1.338,101.618,101.618,0,0,0-9.713,4.169,3.209,3.209,0,0,0-1.014,2.8C5161.719,770.543,5162.842,771.2,5163.542,771.945Z" transform="translate(-148.644 -74.207)" fill="#7d3a1b"/>
        </g>
      </g>
    </g>
  </g>
</svg>
