<svg xmlns="http://www.w3.org/2000/svg" xmlns:xlink="http://www.w3.org/1999/xlink" width="121" height="121" viewBox="0 0 121 121">
  <defs>
    <clipPath id="clip-path">
      <rect id="Rectangle_400938" data-name="Rectangle 400938" width="121" height="121" transform="translate(0 0)" fill="none"/>
    </clipPath>
    <clipPath id="clip-path-2">
      <rect id="Rectangle_401073" data-name="Rectangle 401073" width="92.219" height="41.532" fill="#fff"/>
    </clipPath>
  </defs>
  <g id="Group_1104220" data-name="Group 1104220" transform="translate(-1211 -3752.76)">
    <rect id="Rectangle_401103" data-name="Rectangle 401103" width="121" height="121" transform="translate(1211 3752.76)" fill="none"/>
    <g id="Group_1099348" data-name="Group 1099348" transform="translate(1211 3752.76)">
      <g id="Group_1099282" data-name="Group 1099282">
        <g id="Group_1099281" data-name="Group 1099281" clip-path="url(#clip-path-2)">
          <path id="Path_873375" data-name="Path 873375" d="M74.8,9.1c-4.139,0-6.28-2.03-8.17-3.821-1.855-1.756-3.452-3.274-6.792-3.274s-4.937,1.517-6.792,3.274C51.161,7.072,49.023,9.1,44.881,9.1s-6.28-2.03-8.169-3.821C34.857,3.525,33.26,2.007,29.92,2.007s-4.937,1.517-6.789,3.274C21.241,7.072,19.1,9.1,14.962,9.1S8.679,7.072,6.789,5.281C4.937,3.525,3.34,2.007,0,2.007V0C4.139,0,6.28,2.033,8.17,3.821c1.855,1.759,3.452,3.274,6.792,3.274S19.9,5.58,21.75,3.824C23.637,2.033,25.781,0,29.92,0s6.283,2.033,8.17,3.821c1.855,1.759,3.452,3.274,6.792,3.274s4.937-1.514,6.792-3.274C53.56,2.033,55.7,0,59.843,0s6.283,2.033,8.17,3.821C69.867,5.58,71.464,7.094,74.8,7.094S79.742,5.58,81.6,3.821C83.483,2.033,85.624,0,89.766,0V2.007c-3.34,0-4.937,1.517-6.792,3.274C81.084,7.072,78.943,9.1,74.8,9.1" transform="translate(2.453 32.43)" fill="#fff"/>
          <path id="Path_873376" data-name="Path 873376" d="M74.8,9.1c-4.139,0-6.283-2.03-8.17-3.824-1.855-1.756-3.452-3.27-6.792-3.27s-4.937,1.514-6.792,3.27C51.164,7.072,49.023,9.1,44.881,9.1s-6.283-2.03-8.17-3.824c-1.855-1.756-3.452-3.27-6.792-3.27s-4.937,1.517-6.789,3.27C21.241,7.072,19.1,9.1,14.962,9.1S8.679,7.072,6.789,5.278C4.937,3.522,3.34,2.007,0,2.007V0C4.139,0,6.283,2.03,8.17,3.821c1.855,1.759,3.452,3.274,6.792,3.274S19.9,5.58,21.75,3.821C23.637,2.03,25.781,0,29.92,0S36.2,2.03,38.093,3.821c1.852,1.759,3.449,3.274,6.789,3.274s4.937-1.514,6.792-3.274C53.56,2.03,55.7,0,59.843,0s6.283,2.03,8.17,3.821C69.867,5.58,71.464,7.094,74.8,7.094S79.742,5.58,81.6,3.821C83.486,2.03,85.627,0,89.769,0V2.007c-3.34,0-4.94,1.517-6.8,3.27C81.084,7.072,78.943,9.1,74.8,9.1" transform="translate(1.635 21.62)" fill="#fff"/>
          <path id="Path_873377" data-name="Path 873377" d="M74.8,9.1c-4.139,0-6.283-2.03-8.169-3.824-1.855-1.756-3.452-3.27-6.792-3.27s-4.937,1.514-6.792,3.27C51.164,7.072,49.02,9.1,44.881,9.1s-6.283-2.03-8.17-3.824c-1.855-1.756-3.452-3.27-6.792-3.27s-4.937,1.517-6.789,3.27C21.241,7.072,19.1,9.1,14.962,9.1S8.678,7.072,6.789,5.278C4.937,3.522,3.34,2.007,0,2.007V0C4.139,0,6.283,2.03,8.169,3.821c1.851,1.759,3.452,3.274,6.792,3.274S19.9,5.58,21.75,3.821C23.637,2.03,25.781,0,29.92,0S36.2,2.03,38.093,3.821c1.852,1.759,3.449,3.274,6.789,3.274s4.937-1.514,6.792-3.274C53.56,2.03,55.7,0,59.843,0s6.283,2.03,8.17,3.821C69.867,5.58,71.464,7.094,74.8,7.094S79.742,5.58,81.6,3.821C83.486,2.03,85.624,0,89.769,0V2.007c-3.34,0-4.941,1.517-6.8,3.27C81.084,7.072,78.943,9.1,74.8,9.1" transform="translate(0.818 10.81)" fill="#fff"/>
          <path id="Path_873378" data-name="Path 873378" d="M74.8,9.1c-4.139,0-6.28-2.03-8.17-3.821-1.855-1.756-3.452-3.27-6.792-3.27s-4.937,1.514-6.789,3.27C51.164,7.069,49.023,9.1,44.881,9.1s-6.28-2.03-8.169-3.821c-1.855-1.756-3.452-3.27-6.792-3.27s-4.937,1.514-6.789,3.267C21.245,7.069,19.1,9.1,14.962,9.1S8.678,7.069,6.789,5.278C4.937,3.522,3.34,2.007,0,2.007V0C4.139,0,6.283,2.03,8.17,3.821c1.855,1.756,3.452,3.27,6.792,3.27S19.9,5.577,21.75,3.821C23.64,2.03,25.781,0,29.92,0s6.28,2.03,8.173,3.821c1.852,1.756,3.449,3.27,6.789,3.27s4.937-1.514,6.792-3.27C53.563,2.03,55.7,0,59.843,0s6.28,2.03,8.17,3.821c1.855,1.756,3.452,3.27,6.792,3.27s4.937-1.514,6.792-3.27C83.486,2.03,85.627,0,89.769,0V2.007c-3.344,0-4.941,1.514-6.8,3.27C81.084,7.069,78.943,9.1,74.8,9.1" transform="translate(0 0.003)" fill="#fff"/>
        </g>
      </g>
    </g>
    <rect id="Rectangle_401104" data-name="Rectangle 401104" width="68" height="69" transform="translate(1237 3777.759)" fill="none"/>
    <g id="Group_1103628" data-name="Group 1103628" transform="translate(944.397 3768.135)">
      <g id="Group_1103627" data-name="Group 1103627" transform="translate(299.228 11.248)">
        <path id="Path_894113" data-name="Path 894113" d="M354.955,18.59h-12.7V11.143H299.228V70.482a4.256,4.256,0,0,0,4.256,4.255H338a4.256,4.256,0,0,0,4.256-4.255V61.616h12.7a4.253,4.253,0,0,0,4.254-4.255V22.845A4.254,4.254,0,0,0,354.955,18.59ZM352.42,51.728a2.865,2.865,0,0,1-2.863,2.866h-7.3V25.612h7.3a2.866,2.866,0,0,1,2.863,2.866Z" transform="translate(-299.228 -11.143)" fill="#aa7125"/>
        <path id="Path_894114" data-name="Path 894114" d="M324.928,66.666c-5.87-3.805-11.416-9.132-13.855-15.855-2.906-8.016-1.618-16.6-.63-24.848A64.11,64.11,0,0,1,314,11.143H299.228V70.482a4.256,4.256,0,0,0,4.256,4.255H338a4.256,4.256,0,0,0,4.256-4.255V67.976C336.4,70.234,330.968,70.58,324.928,66.666Z" transform="translate(-299.228 -11.143)" fill="#c1cad3" style="mix-blend-mode: multiply;isolation: isolate"/>
        <rect id="Rectangle_405412" data-name="Rectangle 405412" width="34.751" height="3.782" transform="translate(4.02 63.595)" fill="#aa7125"/>
      </g>
      <rect id="Rectangle_405413" data-name="Rectangle 405413" width="9.97" height="13.121" transform="translate(323.301 26.141)" fill="#ffb937"/>
      <rect id="Rectangle_405414" data-name="Rectangle 405414" width="0.87" height="16.34" transform="translate(327.48 10.865)" fill="#e8e8e8"/>
    </g>
  </g>
</svg>
