<svg xmlns="http://www.w3.org/2000/svg" xmlns:xlink="http://www.w3.org/1999/xlink" width="121" height="121" viewBox="0 0 121 121">
  <defs>
    <clipPath id="clip-path">
      <rect id="Rectangle_400938" data-name="Rectangle 400938" width="121" height="121" transform="translate(0 0)" fill="none"/>
    </clipPath>
    <clipPath id="clip-path-2">
      <rect id="Rectangle_401073" data-name="Rectangle 401073" width="92.219" height="41.532" fill="#efb499"/>
    </clipPath>
  </defs>
  <g id="Group_1104219" data-name="Group 1104219" transform="translate(-744.496 -4380.866)">
    <g id="Group_1102894" data-name="Group 1102894" transform="translate(356.828 -1632.134)">
      <rect id="Rectangle_401103" data-name="Rectangle 401103" width="121" height="121" transform="translate(387.668 6013)" fill="none"/>
      <g id="Group_1099348" data-name="Group 1099348" transform="translate(387.668 6013)">
        <g id="Group_1099282" data-name="Group 1099282">
          <g id="Group_1099281" data-name="Group 1099281" clip-path="url(#clip-path-2)">
            <path id="Path_873375" data-name="Path 873375" d="M74.8,9.1c-4.139,0-6.28-2.03-8.17-3.821-1.855-1.756-3.452-3.274-6.792-3.274s-4.937,1.517-6.792,3.274C51.161,7.072,49.023,9.1,44.881,9.1s-6.28-2.03-8.169-3.821C34.857,3.525,33.26,2.007,29.92,2.007s-4.937,1.517-6.789,3.274C21.241,7.072,19.1,9.1,14.962,9.1S8.679,7.072,6.789,5.281C4.937,3.525,3.34,2.007,0,2.007V0C4.139,0,6.28,2.033,8.17,3.821c1.855,1.759,3.452,3.274,6.792,3.274S19.9,5.58,21.75,3.824C23.637,2.033,25.781,0,29.92,0s6.283,2.033,8.17,3.821c1.855,1.759,3.452,3.274,6.792,3.274s4.937-1.514,6.792-3.274C53.56,2.033,55.7,0,59.843,0s6.283,2.033,8.17,3.821C69.867,5.58,71.464,7.094,74.8,7.094S79.742,5.58,81.6,3.821C83.483,2.033,85.624,0,89.766,0V2.007c-3.34,0-4.937,1.517-6.792,3.274C81.084,7.072,78.943,9.1,74.8,9.1" transform="translate(2.453 32.43)" fill="#efb499"/>
            <path id="Path_873376" data-name="Path 873376" d="M74.8,9.1c-4.139,0-6.283-2.03-8.17-3.824-1.855-1.756-3.452-3.27-6.792-3.27s-4.937,1.514-6.792,3.27C51.164,7.072,49.023,9.1,44.881,9.1s-6.283-2.03-8.17-3.824c-1.855-1.756-3.452-3.27-6.792-3.27s-4.937,1.517-6.789,3.27C21.241,7.072,19.1,9.1,14.962,9.1S8.679,7.072,6.789,5.278C4.937,3.522,3.34,2.007,0,2.007V0C4.139,0,6.283,2.03,8.17,3.821c1.855,1.759,3.452,3.274,6.792,3.274S19.9,5.58,21.75,3.821C23.637,2.03,25.781,0,29.92,0S36.2,2.03,38.093,3.821c1.852,1.759,3.449,3.274,6.789,3.274s4.937-1.514,6.792-3.274C53.56,2.03,55.7,0,59.843,0s6.283,2.03,8.17,3.821C69.867,5.58,71.464,7.094,74.8,7.094S79.742,5.58,81.6,3.821C83.486,2.03,85.627,0,89.769,0V2.007c-3.34,0-4.94,1.517-6.8,3.27C81.084,7.072,78.943,9.1,74.8,9.1" transform="translate(1.635 21.62)" fill="#efb499"/>
            <path id="Path_873377" data-name="Path 873377" d="M74.8,9.1c-4.139,0-6.283-2.03-8.169-3.824-1.855-1.756-3.452-3.27-6.792-3.27s-4.937,1.514-6.792,3.27C51.164,7.072,49.02,9.1,44.881,9.1s-6.283-2.03-8.17-3.824c-1.855-1.756-3.452-3.27-6.792-3.27s-4.937,1.517-6.789,3.27C21.241,7.072,19.1,9.1,14.962,9.1S8.678,7.072,6.789,5.278C4.937,3.522,3.34,2.007,0,2.007V0C4.139,0,6.283,2.03,8.169,3.821c1.851,1.759,3.452,3.274,6.792,3.274S19.9,5.58,21.75,3.821C23.637,2.03,25.781,0,29.92,0S36.2,2.03,38.093,3.821c1.852,1.759,3.449,3.274,6.789,3.274s4.937-1.514,6.792-3.274C53.56,2.03,55.7,0,59.843,0s6.283,2.03,8.17,3.821C69.867,5.58,71.464,7.094,74.8,7.094S79.742,5.58,81.6,3.821C83.486,2.03,85.624,0,89.769,0V2.007c-3.34,0-4.941,1.517-6.8,3.27C81.084,7.072,78.943,9.1,74.8,9.1" transform="translate(0.818 10.81)" fill="#efb499"/>
            <path id="Path_873378" data-name="Path 873378" d="M74.8,9.1c-4.139,0-6.28-2.03-8.17-3.821-1.855-1.756-3.452-3.27-6.792-3.27s-4.937,1.514-6.789,3.27C51.164,7.069,49.023,9.1,44.881,9.1s-6.28-2.03-8.169-3.821c-1.855-1.756-3.452-3.27-6.792-3.27s-4.937,1.514-6.789,3.267C21.245,7.069,19.1,9.1,14.962,9.1S8.678,7.069,6.789,5.278C4.937,3.522,3.34,2.007,0,2.007V0C4.139,0,6.283,2.03,8.17,3.821c1.855,1.756,3.452,3.27,6.792,3.27S19.9,5.577,21.75,3.821C23.64,2.03,25.781,0,29.92,0s6.28,2.03,8.173,3.821c1.852,1.756,3.449,3.27,6.789,3.27s4.937-1.514,6.792-3.27C53.563,2.03,55.7,0,59.843,0s6.28,2.03,8.17,3.821c1.855,1.756,3.452,3.27,6.792,3.27s4.937-1.514,6.792-3.27C83.486,2.03,85.627,0,89.769,0V2.007c-3.344,0-4.941,1.514-6.8,3.27C81.084,7.069,78.943,9.1,74.8,9.1" transform="translate(0 0.003)" fill="#efb499"/>
          </g>
        </g>
      </g>
      <circle id="Ellipse_11504" data-name="Ellipse 11504" cx="50.5" cy="50.5" r="50.5" transform="translate(402.668 6031)" fill="#ffce73"/>
      <circle id="Ellipse_11503" data-name="Ellipse 11503" cx="52.5" cy="52.5" r="52.5" transform="translate(395.668 6021)" fill="#f3f9ff"/>
    </g>
    <g id="Group_1102897" data-name="Group 1102897" transform="translate(770.438 4406.67)">
      <rect id="Rectangle_401104" data-name="Rectangle 401104" width="68" height="69" transform="translate(0.187 -0.67)" fill="none"/>
      <g id="Group_1103272" data-name="Group 1103272" transform="translate(-142.263 -252.19)">
        <rect id="Rectangle_405380" data-name="Rectangle 405380" width="68" height="40.422" transform="translate(142.45 263.52)" fill="#7d3a1b"/>
        <path id="Path_893944" data-name="Path 893944" d="M142.45,303.941V263.52h68Z" transform="translate(0 0)" fill="#6b3015"/>
        <rect id="Rectangle_405381" data-name="Rectangle 405381" width="68" height="5.29" transform="translate(142.45 303.941)" fill="#001825"/>
        <path id="Path_893945" data-name="Path 893945" d="M167.839,288.567v-13.41l9.067,6.706Z" transform="translate(4.078 1.869)" fill="#fff"/>
        <path id="Path_893946" data-name="Path 893946" d="M146.159,301.756v-2.051l1.427,1.026Z" transform="translate(0.596 5.812)" fill="#fff"/>
        <rect id="Rectangle_405382" data-name="Rectangle 405382" width="0.503" height="2.139" transform="translate(144.404 305.517)" fill="#fff"/>
        <rect id="Rectangle_405383" data-name="Rectangle 405383" width="0.502" height="2.139" transform="translate(145.182 305.517)" fill="#fff"/>
        <path id="Path_893947" data-name="Path 893947" d="M201.42,300.465a1.071,1.071,0,0,1-1.071,1.07H150.354a1.068,1.068,0,0,1-1.068-1.07h0a1.069,1.069,0,0,1,1.068-1.069h49.994a1.071,1.071,0,0,1,1.071,1.069Z" transform="translate(1.098 5.762)" fill="#fff"/>
        <path id="Path_893948" data-name="Path 893948" d="M171.75,299.7H151.18c-.565,0-1.027.318-1.027.71s.462.714,1.027.714h20.57Z" transform="translate(1.237 5.812)" fill="#004368"/>
        <g id="Group_1103271" data-name="Group 1103271" transform="translate(204.28 304.844)">
          <path id="Path_893949" data-name="Path 893949" d="M196.884,299.125h-1.161v.867" transform="translate(-195.724 -299.125)" fill="none" stroke="#fff" stroke-miterlimit="10" stroke-width="0.289"/>
          <path id="Path_893950" data-name="Path 893950" d="M195.724,300.812v.811h1.161" transform="translate(-195.724 -298.854)" fill="none" stroke="#fff" stroke-miterlimit="10" stroke-width="0.289"/>
          <path id="Path_893951" data-name="Path 893951" d="M198.849,301.623h1.158v-.811" transform="translate(-195.222 -298.854)" fill="none" stroke="#fff" stroke-miterlimit="10" stroke-width="0.289"/>
          <path id="Path_893952" data-name="Path 893952" d="M200.007,299.992v-.867h-1.158" transform="translate(-195.222 -299.125)" fill="none" stroke="#fff" stroke-miterlimit="10" stroke-width="0.289"/>
        </g>
      </g>
    </g>
  </g>
</svg>
