<svg xmlns="http://www.w3.org/2000/svg" xmlns:xlink="http://www.w3.org/1999/xlink" width="121" height="121" viewBox="0 0 121 121">
  <defs>
    <clipPath id="clip-path">
      <rect id="Rectangle_400938" data-name="Rectangle 400938" width="121" height="121" transform="translate(0 0)" fill="none"/>
    </clipPath>
    <clipPath id="clip-path-2">
      <rect id="Rectangle_401073" data-name="Rectangle 401073" width="92.219" height="41.532" fill="#efb499"/>
    </clipPath>
  </defs>
  <g id="Group_1104220" data-name="Group 1104220" transform="translate(-1095.496 -4380.866)">
    <g id="Group_1102893" data-name="Group 1102893" transform="translate(707.828 -1632.134)">
      <rect id="Rectangle_401103" data-name="Rectangle 401103" width="121" height="121" transform="translate(387.668 6013)" fill="none"/>
      <g id="Group_1099348" data-name="Group 1099348" transform="translate(387.668 6013)">
        <g id="Group_1099282" data-name="Group 1099282">
          <g id="Group_1099281" data-name="Group 1099281" clip-path="url(#clip-path-2)">
            <path id="Path_873375" data-name="Path 873375" d="M74.8,9.1c-4.139,0-6.28-2.03-8.17-3.821-1.855-1.756-3.452-3.274-6.792-3.274s-4.937,1.517-6.792,3.274C51.161,7.072,49.023,9.1,44.881,9.1s-6.28-2.03-8.169-3.821C34.857,3.525,33.26,2.007,29.92,2.007s-4.937,1.517-6.789,3.274C21.241,7.072,19.1,9.1,14.962,9.1S8.679,7.072,6.789,5.281C4.937,3.525,3.34,2.007,0,2.007V0C4.139,0,6.28,2.033,8.17,3.821c1.855,1.759,3.452,3.274,6.792,3.274S19.9,5.58,21.75,3.824C23.637,2.033,25.781,0,29.92,0s6.283,2.033,8.17,3.821c1.855,1.759,3.452,3.274,6.792,3.274s4.937-1.514,6.792-3.274C53.56,2.033,55.7,0,59.843,0s6.283,2.033,8.17,3.821C69.867,5.58,71.464,7.094,74.8,7.094S79.742,5.58,81.6,3.821C83.483,2.033,85.624,0,89.766,0V2.007c-3.34,0-4.937,1.517-6.792,3.274C81.084,7.072,78.943,9.1,74.8,9.1" transform="translate(2.453 32.43)" fill="#efb499"/>
            <path id="Path_873376" data-name="Path 873376" d="M74.8,9.1c-4.139,0-6.283-2.03-8.17-3.824-1.855-1.756-3.452-3.27-6.792-3.27s-4.937,1.514-6.792,3.27C51.164,7.072,49.023,9.1,44.881,9.1s-6.283-2.03-8.17-3.824c-1.855-1.756-3.452-3.27-6.792-3.27s-4.937,1.517-6.789,3.27C21.241,7.072,19.1,9.1,14.962,9.1S8.679,7.072,6.789,5.278C4.937,3.522,3.34,2.007,0,2.007V0C4.139,0,6.283,2.03,8.17,3.821c1.855,1.759,3.452,3.274,6.792,3.274S19.9,5.58,21.75,3.821C23.637,2.03,25.781,0,29.92,0S36.2,2.03,38.093,3.821c1.852,1.759,3.449,3.274,6.789,3.274s4.937-1.514,6.792-3.274C53.56,2.03,55.7,0,59.843,0s6.283,2.03,8.17,3.821C69.867,5.58,71.464,7.094,74.8,7.094S79.742,5.58,81.6,3.821C83.486,2.03,85.627,0,89.769,0V2.007c-3.34,0-4.94,1.517-6.8,3.27C81.084,7.072,78.943,9.1,74.8,9.1" transform="translate(1.635 21.62)" fill="#efb499"/>
            <path id="Path_873377" data-name="Path 873377" d="M74.8,9.1c-4.139,0-6.283-2.03-8.169-3.824-1.855-1.756-3.452-3.27-6.792-3.27s-4.937,1.514-6.792,3.27C51.164,7.072,49.02,9.1,44.881,9.1s-6.283-2.03-8.17-3.824c-1.855-1.756-3.452-3.27-6.792-3.27s-4.937,1.517-6.789,3.27C21.241,7.072,19.1,9.1,14.962,9.1S8.678,7.072,6.789,5.278C4.937,3.522,3.34,2.007,0,2.007V0C4.139,0,6.283,2.03,8.169,3.821c1.851,1.759,3.452,3.274,6.792,3.274S19.9,5.58,21.75,3.821C23.637,2.03,25.781,0,29.92,0S36.2,2.03,38.093,3.821c1.852,1.759,3.449,3.274,6.789,3.274s4.937-1.514,6.792-3.274C53.56,2.03,55.7,0,59.843,0s6.283,2.03,8.17,3.821C69.867,5.58,71.464,7.094,74.8,7.094S79.742,5.58,81.6,3.821C83.486,2.03,85.624,0,89.769,0V2.007c-3.34,0-4.941,1.517-6.8,3.27C81.084,7.072,78.943,9.1,74.8,9.1" transform="translate(0.818 10.81)" fill="#efb499"/>
            <path id="Path_873378" data-name="Path 873378" d="M74.8,9.1c-4.139,0-6.28-2.03-8.17-3.821-1.855-1.756-3.452-3.27-6.792-3.27s-4.937,1.514-6.789,3.27C51.164,7.069,49.023,9.1,44.881,9.1s-6.28-2.03-8.169-3.821c-1.855-1.756-3.452-3.27-6.792-3.27s-4.937,1.514-6.789,3.267C21.245,7.069,19.1,9.1,14.962,9.1S8.678,7.069,6.789,5.278C4.937,3.522,3.34,2.007,0,2.007V0C4.139,0,6.283,2.03,8.17,3.821c1.855,1.756,3.452,3.27,6.792,3.27S19.9,5.577,21.75,3.821C23.64,2.03,25.781,0,29.92,0s6.28,2.03,8.173,3.821c1.852,1.756,3.449,3.27,6.789,3.27s4.937-1.514,6.792-3.27C53.563,2.03,55.7,0,59.843,0s6.28,2.03,8.17,3.821c1.855,1.756,3.452,3.27,6.792,3.27s4.937-1.514,6.792-3.27C83.486,2.03,85.627,0,89.769,0V2.007c-3.344,0-4.941,1.514-6.8,3.27C81.084,7.069,78.943,9.1,74.8,9.1" transform="translate(0 0.003)" fill="#efb499"/>
          </g>
        </g>
      </g>
      <circle id="Ellipse_11504" data-name="Ellipse 11504" cx="50.5" cy="50.5" r="50.5" transform="translate(402.668 6031)" fill="#ffce73"/>
      <circle id="Ellipse_11503" data-name="Ellipse 11503" cx="52.5" cy="52.5" r="52.5" transform="translate(395.668 6021)" fill="#f3f9ff"/>
    </g>
    <g id="Group_1102896" data-name="Group 1102896" transform="translate(1121.438 4406.67)">
      <rect id="Rectangle_401104" data-name="Rectangle 401104" width="68" height="69" transform="translate(0.187 -0.67)" fill="none"/>
      <g id="Group_1103275" data-name="Group 1103275" transform="translate(107.678 -235.492)">
        <g id="Group_1103273" data-name="Group 1103273" transform="translate(-107.491 243.822)">
          <path id="Path_893953" data-name="Path 893953" d="M-40.851,312.667a1.553,1.553,0,0,1-1.527,1.074H-104.12a1.537,1.537,0,0,1-1.527-1.074l-1.816-3.8L-39.5,309Z" transform="translate(107.483 -262.281)" fill="#afafae"/>
          <path id="Rectangle_405384" data-name="Rectangle 405384" d="M2.133,0H47.907a2.132,2.132,0,0,1,2.132,2.132V30.944a2.131,2.131,0,0,1-2.131,2.131H2.131A2.131,2.131,0,0,1,0,30.944V2.133A2.133,2.133,0,0,1,2.133,0Z" transform="translate(10.233)" fill="#d2d1d1"/>
          <path id="Path_893954" data-name="Path 893954" d="M-39.587,303.244c.432.7-.683,1.074-1.526,1.074h-64.8c-.843,0-1.828-.675-1.526-1.074l10.177-12.165c.468-.553.684-1.074,1.527-1.074h46.985c.844,0,1.122.347,1.528,1.074Z" transform="translate(107.491 -256.929)" fill="#dfdfdf"/>
          <path id="Path_893955" data-name="Path 893955" d="M-41.923,298.275l-4.274-6.1c-.38-.811-.642-1.2-1.434-1.2H-91.818c-.794,0-1,.582-1.435,1.2l-5.026,6.1Z" transform="translate(104.877 -257.205)" fill="#c1c1c1"/>
          <path id="Path_893956" data-name="Path 893956" d="M-52.889,307.033l-1.519-3.864c-.135-.514-.228-.759-.51-.759H-70.626c-.283,0-.355.368-.511.759l-1.788,3.864Z" transform="translate(97.681 -260.449)" fill="#c1c1c1"/>
          <path id="Path_893957" data-name="Path 893957" d="M-43.933,275.653c0,.909-.14,1.036-.94,1.036H-90.487c-.8,0-.94-.127-.94-1.036V249.565c0-.91.14-1.035.94-1.035h45.614c.8,0,.94.125.94,1.035Z" transform="translate(102.932 -245.158)" fill="#ffb937"/>
          <path id="Path_893958" data-name="Path 893958" d="M-63.939,268.776a31.709,31.709,0,0,1-14.172-9.738,28.774,28.774,0,0,1-6-10.507h-6.379c-.8,0-.94.125-.94,1.035v26.088c0,.909.14,1.036.94,1.036h45.614c.8,0,.94-.127.94-1.036v-5.764A41.735,41.735,0,0,1-63.939,268.776Z" transform="translate(102.932 -245.158)" fill="#ffce73"/>
          <path id="Path_893959" data-name="Path 893959" d="M-57.713,245.87a.923.923,0,0,1-.922.922.923.923,0,0,1-.923-.922.923.923,0,0,1,.923-.924A.923.923,0,0,1-57.713,245.87Z" transform="translate(93.888 -244.141)" fill="#afafae"/>
        </g>
        <rect id="Rectangle_405385" data-name="Rectangle 405385" width="19.293" height="5.912" transform="translate(-69.822 250.642)" fill="#005689"/>
        <rect id="Rectangle_405386" data-name="Rectangle 405386" width="19.293" height="2.836" transform="translate(-69.822 257.391)" fill="#d2d1d1"/>
        <rect id="Rectangle_405387" data-name="Rectangle 405387" width="19.293" height="2.833" transform="translate(-69.822 261.689)" fill="#d2d1d1"/>
        <rect id="Rectangle_405388" data-name="Rectangle 405388" width="19.293" height="2.836" transform="translate(-69.822 266.02)" fill="#d2d1d1"/>
        <rect id="Rectangle_405389" data-name="Rectangle 405389" width="10.752" height="2.837" transform="translate(-61.28 269.897)" fill="#d2d1d1"/>
        <rect id="Rectangle_405390" data-name="Rectangle 405390" width="22.091" height="22.093" transform="translate(-93.882 250.642)" fill="#fff"/>
        <g id="Group_1103274" data-name="Group 1103274" transform="translate(-89.962 252.437)" style="mix-blend-mode: multiply;isolation: isolate">
          <path id="Path_893960" data-name="Path 893960" d="M-74.384,265.76a4.955,4.955,0,0,0,4.955-4.955,4.955,4.955,0,0,0-4.955-4.953,4.955,4.955,0,0,0-4.955,4.953A4.955,4.955,0,0,0-74.384,265.76Z" transform="translate(81.972 -255.851)" fill="#7ea9a8"/>
          <path id="Path_893961" data-name="Path 893961" d="M-75.427,271.087a7.588,7.588,0,0,0-7.589,7.589h15.178A7.589,7.589,0,0,0-75.427,271.087Z" transform="translate(83.016 -260.175)" fill="#7ea9a8"/>
        </g>
      </g>
    </g>
  </g>
</svg>
