<svg xmlns="http://www.w3.org/2000/svg" xmlns:xlink="http://www.w3.org/1999/xlink" width="129" height="128" viewBox="0 0 129 128">
  <defs>
    <clipPath id="clip-path">
      <rect id="Rectangle_400938" data-name="Rectangle 400938" width="120" height="120" fill="none"/>
    </clipPath>
    <clipPath id="clip-path-2">
      <rect id="Rectangle_400938-2" data-name="Rectangle 400938" width="113" height="113" transform="translate(0.211 0.211)" fill="none"/>
    </clipPath>
    <clipPath id="clip-path-3">
      <rect id="Rectangle_401073" data-name="Rectangle 401073" width="86.443" height="38.93" fill="#7d3a1b"/>
    </clipPath>
  </defs>
  <g id="Group_1104218" data-name="Group 1104218" transform="translate(-389.625 -2945.724)">
    <g id="Grupo_108927" data-name="Grupo 108927" transform="translate(-0.375 -1521.276)">
      <path id="Rectángulo_36179" data-name="Rectángulo 36179" d="M0,0H129V128H0Z" transform="translate(390 4467)" fill="#feebcf"/>
    </g>
    <g id="Group_1102825" data-name="Group 1102825" transform="translate(132.414 -2330.487)">
      <g id="Group_1099379" data-name="Group 1099379" transform="translate(265 5284)">
        <rect id="Rectangle_401103" data-name="Rectangle 401103" width="113" height="113" transform="translate(0.211 0.211)" fill="none"/>
        <g id="Group_1099348" data-name="Group 1099348">
          <g id="Group_1099282" data-name="Group 1099282">
            <g id="Group_1099281" data-name="Group 1099281" clip-path="url(#clip-path-3)">
              <path id="Path_873375" data-name="Path 873375" d="M70.12,8.532c-3.88,0-5.887-1.9-7.658-3.581C60.723,3.3,59.226,1.882,56.1,1.882S51.467,3.3,49.728,4.95c-1.771,1.679-3.775,3.581-7.658,3.581s-5.886-1.9-7.658-3.581C32.674,3.3,31.177,1.882,28.046,1.882S23.418,3.3,21.682,4.95C19.911,6.629,17.9,8.532,14.024,8.532S8.135,6.629,6.364,4.95C4.628,3.3,3.131,1.882,0,1.882V0C3.88,0,5.887,1.906,7.658,3.581,9.4,5.23,10.893,6.65,14.024,6.65s4.628-1.419,6.364-3.066C22.157,1.906,24.166,0,28.046,0s5.89,1.906,7.658,3.581C37.442,5.23,38.939,6.65,42.07,6.65S46.7,5.23,48.437,3.581C50.205,1.906,52.215,0,56.1,0s5.89,1.906,7.658,3.581C65.491,5.23,66.988,6.65,70.12,6.65s4.628-1.419,6.367-3.069C78.255,1.906,80.261,0,84.144,0V1.882c-3.131,0-4.628,1.422-6.367,3.069C76.006,6.629,74,8.532,70.12,8.532" transform="translate(2.299 30.399)" fill="#7d3a1b"/>
              <path id="Path_873376" data-name="Path 873376" d="M70.12,8.532c-3.88,0-5.889-1.9-7.658-3.584C60.723,3.3,59.226,1.882,56.1,1.882S51.467,3.3,49.728,4.947c-1.768,1.682-3.775,3.584-7.658,3.584s-5.889-1.9-7.658-3.584C32.674,3.3,31.177,1.882,28.046,1.882S23.418,3.3,21.682,4.947C19.911,6.629,17.9,8.532,14.025,8.532s-5.889-1.9-7.661-3.584C4.628,3.3,3.131,1.882,0,1.882V0C3.88,0,5.889,1.9,7.658,3.581,9.4,5.23,10.893,6.65,14.025,6.65s4.628-1.419,6.364-3.069C22.157,1.9,24.166,0,28.046,0s5.889,1.9,7.661,3.581C37.442,5.23,38.939,6.65,42.071,6.65S46.7,5.23,48.437,3.581C50.206,1.9,52.215,0,56.1,0s5.89,1.9,7.658,3.581C65.491,5.23,66.988,6.65,70.12,6.65s4.628-1.419,6.367-3.069C78.257,1.9,80.264,0,84.147,0V1.882c-3.131,0-4.631,1.422-6.37,3.066C76.006,6.629,74,8.532,70.12,8.532" transform="translate(1.533 20.266)" fill="#7d3a1b"/>
              <path id="Path_873377" data-name="Path 873377" d="M70.119,8.532c-3.88,0-5.889-1.9-7.658-3.584C60.723,3.3,59.226,1.882,56.1,1.882S51.467,3.3,49.728,4.947C47.96,6.629,45.95,8.532,42.071,8.532s-5.89-1.9-7.658-3.584C32.674,3.3,31.177,1.882,28.046,1.882S23.418,3.3,21.682,4.947C19.911,6.629,17.9,8.532,14.025,8.532s-5.89-1.9-7.661-3.584C4.628,3.3,3.131,1.882,0,1.882V0C3.88,0,5.889,1.9,7.658,3.581,9.393,5.23,10.893,6.65,14.025,6.65s4.628-1.419,6.364-3.069C22.156,1.9,24.166,0,28.046,0s5.89,1.9,7.661,3.581C37.442,5.23,38.939,6.65,42.071,6.65S46.7,5.23,48.437,3.581C50.205,1.9,52.215,0,56.1,0s5.889,1.9,7.658,3.581C65.491,5.23,66.988,6.65,70.119,6.65s4.628-1.419,6.367-3.069C78.257,1.9,80.261,0,84.147,0V1.882c-3.131,0-4.631,1.422-6.37,3.066C76.006,6.629,74,8.532,70.119,8.532" transform="translate(0.766 10.133)" fill="#7d3a1b"/>
              <path id="Path_873378" data-name="Path 873378" d="M70.12,8.529c-3.88,0-5.887-1.9-7.658-3.581C60.723,3.3,59.226,1.882,56.095,1.882S51.467,3.3,49.731,4.947C47.96,6.626,45.953,8.529,42.07,8.529s-5.887-1.9-7.658-3.581C32.674,3.3,31.177,1.882,28.046,1.882S23.418,3.3,21.682,4.944C19.914,6.626,17.9,8.529,14.024,8.529s-5.89-1.9-7.661-3.581C4.628,3.3,3.131,1.882,0,1.882V0C3.88,0,5.89,1.9,7.658,3.581,9.4,5.228,10.893,6.647,14.024,6.647s4.628-1.419,6.364-3.066C22.159,1.9,24.166,0,28.046,0s5.887,1.9,7.661,3.581c1.736,1.646,3.233,3.066,6.364,3.066S46.7,5.228,48.437,3.581C50.208,1.9,52.215,0,56.095,0s5.887,1.9,7.658,3.581c1.739,1.646,3.236,3.066,6.367,3.066s4.628-1.419,6.367-3.066C78.257,1.9,80.264,0,84.147,0V1.882c-3.134,0-4.631,1.419-6.37,3.066C76.006,6.626,74,8.529,70.12,8.529" transform="translate(0 0.003)" fill="#7d3a1b"/>
            </g>
          </g>
        </g>
        <path id="Path_873425" data-name="Path 873425" d="M47.337,0A47.337,47.337,0,1,1,0,47.337,47.337,47.337,0,0,1,47.337,0Z" transform="translate(14.061 16.873)" fill="#7d3a1b"/>
        <circle id="Ellipse_11503" data-name="Ellipse 11503" cx="49.5" cy="49.5" r="49.5" transform="translate(7.211 7.211)" fill="#fff"/>
      </g>
      <g id="Group_1099380" data-name="Group 1099380" transform="translate(289.372 5307.434)">
        <rect id="Rectangle_401104" data-name="Rectangle 401104" width="64" height="65" transform="translate(-0.161 -0.223)" fill="none"/>
        <g id="Group_1103688" data-name="Group 1103688" transform="translate(-51.05 -68)">
          <g id="Group_1103655" data-name="Group 1103655" transform="translate(95.07 75.777)">
            <path id="Path_894691" data-name="Path 894691" d="M186.728,100.384a11.213,11.213,0,0,1-2.347,2.362c-1.369,1.008-4.6-2.921-6.251-3.187-.008,0,1.621,4.522,1.613,4.522a7.169,7.169,0,0,1-3.768-2.167c-3.731-3.712-4.9-9.224-5.741-14.417-.06-.371,8.859,7.232,8.841,6.838-.078-1.74-8.7-11.623-7.971-13.31a8.942,8.942,0,0,1,3.2-4.02,8.7,8.7,0,0,1,8.418-.281,12.942,12.942,0,0,1,5.842,6.359A17.456,17.456,0,0,1,186.728,100.384Z" transform="translate(-170.234 -75.777)" fill="#e04f0c"/>
          </g>
          <g id="Group_1103658" data-name="Group 1103658" transform="translate(100.562 77.496)">
            <g id="Group_1103656" data-name="Group 1103656" transform="translate(0 0)">
              <path id="Path_894692" data-name="Path 894692" d="M185.072,81.575a.632.632,0,0,0,.3.547,3.548,3.548,0,0,0,1.955.407,25.292,25.292,0,0,1,3.867.876c.5.113,1.123.15,1.41-.272a.9.9,0,0,0-.092-1.018,2.267,2.267,0,0,0-.881-.625,11.952,11.952,0,0,0-3.686-1.059C187.217,80.354,185.193,80.658,185.072,81.575Z" transform="translate(-185.069 -80.419)" fill="#f7ede5"/>
            </g>
            <g id="Group_1103657" data-name="Group 1103657" transform="translate(8.529 2.481)">
              <circle id="Ellipse_11560" data-name="Ellipse 11560" cx="0.922" cy="0.922" r="0.922" fill="#f7ede5"/>
            </g>
          </g>
          <g id="Group_1103659" data-name="Group 1103659" transform="translate(100.529 82.233)">
            <path id="Path_894693" data-name="Path 894693" d="M190.165,109.294l-.2-.317a12.379,12.379,0,0,0,5.073-6.277,9.489,9.489,0,0,0,.55-2.4,8.351,8.351,0,0,0-.159-2.424,6.136,6.136,0,0,0-1.132-2.587,4.713,4.713,0,0,0-5.334-1.379c-1.785.741-3.137,2.695-3.618,5.227l-.367-.07c.5-2.656,1.941-4.713,3.842-5.5a5.1,5.1,0,0,1,5.769,1.492A6.507,6.507,0,0,1,195.8,97.8a8.734,8.734,0,0,1,.166,2.532,9.864,9.864,0,0,1-.571,2.492A12.756,12.756,0,0,1,190.165,109.294Z" transform="translate(-184.98 -93.216)" fill="#f7ede5"/>
          </g>
          <g id="Group_1103660" data-name="Group 1103660" transform="translate(94.943 81.025)">
            <path id="Path_894694" data-name="Path 894694" d="M184.165,111.674a6.157,6.157,0,0,1-4.62,1.338c-.007,0-.011,0-.018,0A50.509,50.509,0,0,1,176,107.564a82.078,82.078,0,0,1-5.152-9.73,26.232,26.232,0,0,1-.945-2.561,12.311,12.311,0,0,1,.986-5.32,7.511,7.511,0,0,1,2.474,1.054,19.075,19.075,0,0,1,6.239,6.937A31.016,31.016,0,0,1,184.165,111.674Z" transform="translate(-169.891 -89.953)" fill="#412945"/>
          </g>
          <g id="Group_1103661" data-name="Group 1103661" transform="translate(50.89 90.649)">
            <path id="Path_894695" data-name="Path 894695" d="M71.354,136.394a14.074,14.074,0,0,1-.513,2.4c-.439,1.414-2.067-2.231-3.248-1.343-.832.626-.887,5.977-1.9,6.071a10.085,10.085,0,0,1-5.073-1.061,17.456,17.456,0,0,1-9.7-14.439,12.938,12.938,0,0,1,2.2-8.35,8.093,8.093,0,0,1,11.98-1.856c1.9,1.429-1.375,12.166-.684,14.213.776,2.306,6.3-3.962,6.721-1.551A19.425,19.425,0,0,1,71.354,136.394Z" transform="translate(-50.89 -115.951)" fill="#e04f0c"/>
          </g>
          <g id="Group_1103664" data-name="Group 1103664" transform="translate(52.131 98.828)">
            <g id="Group_1103662" data-name="Group 1103662" transform="translate(0 2.945)">
              <path id="Path_894696" data-name="Path 894696" d="M56.791,153.577a.633.633,0,0,0,.4-.479,3.548,3.548,0,0,0-.354-1.965,25.3,25.3,0,0,1-.634-3.913c-.081-.5-.281-1.1-.78-1.206a.9.9,0,0,0-.91.466,2.27,2.27,0,0,0-.251,1.051,11.948,11.948,0,0,0,.4,3.814C54.856,152.044,55.9,153.808,56.791,153.577Z" transform="translate(-54.242 -145.999)" fill="#f7ede5"/>
            </g>
            <g id="Group_1103663" data-name="Group 1103663" transform="translate(0.178)">
              <path id="Path_894697" data-name="Path 894697" d="M55.3,138.111a.922.922,0,1,1-.51,1.2A.922.922,0,0,1,55.3,138.111Z" transform="translate(-54.722 -138.044)" fill="#f7ede5"/>
            </g>
          </g>
          <g id="Group_1103665" data-name="Group 1103665" transform="translate(55.282 96.218)">
            <path id="Path_894698" data-name="Path 894698" d="M74.548,148.4a11.81,11.81,0,0,1-11.287-8.148,8.937,8.937,0,0,1-.358-4.521,5.67,5.67,0,0,1,7.009-4.6,9.128,9.128,0,0,1,4.119,2.189l-.248.279a8.752,8.752,0,0,0-3.947-2.1,5.3,5.3,0,0,0-6.568,4.3,8.569,8.569,0,0,0,.347,4.33,11.455,11.455,0,0,0,13.006,7.7l.069.367A11.634,11.634,0,0,1,74.548,148.4Z" transform="translate(-62.756 -130.993)" fill="#f7ede5"/>
          </g>
          <g id="Group_1103666" data-name="Group 1103666" transform="translate(63.11 92.51)">
            <path id="Path_894699" data-name="Path 894699" d="M92.145,139.559a14.074,14.074,0,0,1-.513,2.4A7.159,7.159,0,0,1,89.3,145.64a5.441,5.441,0,0,1-2.816,1.042,11.513,11.513,0,0,1-1.08-2.94q-.27-1.1-.48-2.208v0c-.292-1.511-.506-3.034-.674-4.56a41.3,41.3,0,0,1-.083-9.884c.041-.315.12-.953.247-1.71.255-1.526.712-3.547,1.474-4.4a12.042,12.042,0,0,1,4.091,5.546,48.992,48.992,0,0,1,1.946,7.117A40.015,40.015,0,0,1,92.145,139.559Z" transform="translate(-83.901 -120.976)" fill="#412945"/>
          </g>
          <g id="Group_1103667" data-name="Group 1103667" transform="translate(65.383 76.983)">
            <path id="Path_894700" data-name="Path 894700" d="M94.033,123.227s-8.263-26.06-1.017-35.34,18.941-11.949,27.459-4.7,13.6,27.2,13.6,27.2a43.844,43.844,0,0,1-15.89,10.933C107.381,125.515,94.033,123.227,94.033,123.227Z" transform="translate(-90.04 -79.034)" fill="#6e72ff"/>
          </g>
          <g id="Group_1103687" data-name="Group 1103687" transform="translate(67.628 78.302)">
            <g id="Group_1103670" data-name="Group 1103670" transform="translate(5.49 22.291)">
              <g id="Group_1103668" data-name="Group 1103668">
                <path id="Path_894701" data-name="Path 894701" d="M116.642,149.233a9.3,9.3,0,0,0-3.4.71,3.528,3.528,0,0,0-.459,6.425,8.745,8.745,0,0,0,4.307,1.273,29.385,29.385,0,0,0,14.9-3.032c3.22-1.535,6.371-3.707,7.827-6.964a5.172,5.172,0,0,0,.524-2.246,2.725,2.725,0,0,0-.939-2.049,2.864,2.864,0,0,0-2.1-.514,7.26,7.26,0,0,0-2.109.665,57.861,57.861,0,0,0-7.051,3.909,8.27,8.27,0,0,1-3.243,1.365,26.463,26.463,0,0,1-3.885.338C119.554,149.155,118.1,149.144,116.642,149.233Z" transform="translate(-110.934 -142.813)" fill="#e05d4f"/>
              </g>
              <g id="Group_1103669" data-name="Group 1103669" transform="translate(2.166 2.237)">
                <path id="Path_894702" data-name="Path 894702" d="M137.935,150.13c-1.07.772-2,1.726-3.1,2.461a15.392,15.392,0,0,1-7.679,2.158,77.235,77.235,0,0,0-8.05.5,3.718,3.718,0,0,0-1.687.61,1.454,1.454,0,0,0-.562,1.594,1.921,1.921,0,0,0,1.089.939,13.078,13.078,0,0,0,6.338.739c6.04-.454,12.228-2.411,16.418-6.785.636-.665,2.051-2.489.867-3.284C140.545,148.378,138.742,149.548,137.935,150.13Z" transform="translate(-116.785 -148.856)" fill="#412945"/>
              </g>
            </g>
            <g id="Group_1103674" data-name="Group 1103674" transform="translate(0 13.57)">
              <g id="Group_1103671" data-name="Group 1103671">
                <path id="Path_894703" data-name="Path 894703" d="M109,126.1c0,.915.171.729.217,1.606a9.9,9.9,0,0,1,.263,1.99,7.106,7.106,0,1,1-1.537-8.628c.106.095.267,1.146.354,1.245C109.4,123.562,109,124.149,109,126.1Z" transform="translate(-96.104 -119.255)" fill="#ffe9df"/>
              </g>
              <g id="Group_1103672" data-name="Group 1103672" transform="translate(11.834 1.811)">
                <path id="Path_894704" data-name="Path 894704" d="M130.444,129.441a7.04,7.04,0,0,1-.833,3.334c-.03-.094-.06-.191-.086-.285a29.251,29.251,0,0,1-1.451-8.343A7.082,7.082,0,0,1,130.444,129.441Z" transform="translate(-128.071 -124.147)" fill="#412945"/>
              </g>
              <g id="Group_1103673" data-name="Group 1103673" transform="translate(2.391 2.392)">
                <path id="Path_894705" data-name="Path 894705" d="M111.988,130.429a4.713,4.713,0,1,1-4.713-4.713A4.713,4.713,0,0,1,111.988,130.429Z" transform="translate(-102.562 -125.716)" fill="#412945"/>
              </g>
            </g>
            <g id="Group_1103678" data-name="Group 1103678" transform="translate(21.312 7.087)">
              <g id="Group_1103675" data-name="Group 1103675" transform="translate(0.026)">
                <path id="Path_894706" data-name="Path 894706" d="M167.926,108.844a7.108,7.108,0,0,1-7.105,7.105,7.032,7.032,0,0,1-3.123-.723s0,0-.007,0-.483-.132-.5-.141c-2.319-1.159-3.218-3.043-3.218-5.819,0-.176-.024-.578-.013-.75,0-.03-.217-.252-.213-.282a7.1,7.1,0,0,1,14.181.615Z" transform="translate(-153.745 -101.742)" fill="#fef7eb"/>
              </g>
              <g id="Group_1103676" data-name="Group 1103676" transform="translate(0 6.487)">
                <path id="Path_894707" data-name="Path 894707" d="M157.645,126.258a7.105,7.105,0,0,1-3.971-6.378c0-.176.008-.349.019-.521,0-.03,0-.064.007-.094a3.452,3.452,0,0,1,1.215.937,11.186,11.186,0,0,1,1.912,3.014A10.988,10.988,0,0,1,157.645,126.258Z" transform="translate(-153.674 -119.265)" fill="#412945"/>
              </g>
              <g id="Group_1103677" data-name="Group 1103677" transform="translate(0.384 0.243)">
                <circle id="Ellipse_11561" data-name="Ellipse 11561" cx="4.919" cy="4.919" r="4.919" transform="translate(0 6.957) rotate(-45)" fill="#412945"/>
              </g>
            </g>
            <g id="Group_1103679" data-name="Group 1103679" transform="translate(12.374 10.587)">
              <path id="Path_894708" data-name="Path 894708" d="M149.562,143.469q-1.957-8.087-4.672-15.966a53.425,53.425,0,0,0-3.8-8.917c-1.613-2.858-5.538-9.827-9.649-6.519-2.538,2.043-2.063,5.668-1.343,8.456.933,3.614,2.022,7.188,2.98,10.8.694,2.621,3.65,15.24,4.1,15.479a9.379,9.379,0,0,0,6.762.148C148.07,145.7,149.562,143.469,149.562,143.469Z" transform="translate(-129.53 -111.195)" fill="#ffb937"/>
            </g>
            <g id="Group_1103686" data-name="Group 1103686" transform="translate(15.943 0)">
              <g id="Group_1103682" data-name="Group 1103682">
                <g id="Group_1103680" data-name="Group 1103680">
                  <path id="Path_894709" data-name="Path 894709" d="M139.175,83.754a.632.632,0,0,0,.3.547,3.547,3.547,0,0,0,1.955.407,25.29,25.29,0,0,1,3.866.876c.5.113,1.124.15,1.41-.272a.9.9,0,0,0-.093-1.018,2.269,2.269,0,0,0-.881-.626,11.964,11.964,0,0,0-3.686-1.059C141.32,82.533,139.3,82.837,139.175,83.754Z" transform="translate(-139.172 -82.598)" fill="#f7ede5"/>
                </g>
                <g id="Group_1103681" data-name="Group 1103681" transform="translate(8.529 2.48)">
                  <path id="Path_894710" data-name="Path 894710" d="M164.053,90.22a.922.922,0,1,1-.922-.922A.922.922,0,0,1,164.053,90.22Z" transform="translate(-162.21 -89.298)" fill="#f7ede5"/>
                </g>
              </g>
              <g id="Group_1103685" data-name="Group 1103685" transform="translate(9.156 29.417)">
                <g id="Group_1103683" data-name="Group 1103683">
                  <path id="Path_894711" data-name="Path 894711" d="M163.919,164.136a13.476,13.476,0,0,0,2.187,6.193c.255.38.588.777,1.007.782a.915.915,0,0,0,.774-.573,2.614,2.614,0,0,0,.2-1.066,12.249,12.249,0,0,0-.7-3.959,6.1,6.1,0,0,0-1.976-3.225C164.219,161.471,163.818,163.067,163.919,164.136Z" transform="translate(-163.904 -162.063)" fill="#f7ede5"/>
                </g>
                <g id="Group_1103684" data-name="Group 1103684" transform="translate(3.091 9.897)">
                  <path id="Path_894712" data-name="Path 894712" d="M174.352,189.847A1.049,1.049,0,1,1,173.3,188.8,1.049,1.049,0,0,1,174.352,189.847Z" transform="translate(-172.254 -188.798)" fill="#f7ede5"/>
                </g>
              </g>
            </g>
          </g>
        </g>
      </g>
    </g>
  </g>
</svg>
