<svg xmlns="http://www.w3.org/2000/svg" xmlns:xlink="http://www.w3.org/1999/xlink" width="121" height="121" viewBox="0 0 121 121">
  <defs>
    <clipPath id="clip-path">
      <rect id="Rectangle_400938" data-name="Rectangle 400938" width="121" height="121" transform="translate(0 0)" fill="none"/>
    </clipPath>
    <clipPath id="clip-path-2">
      <rect id="Rectangle_401073" data-name="Rectangle 401073" width="92.219" height="41.532" fill="#fff"/>
    </clipPath>
  </defs>
  <g id="Group_1104219" data-name="Group 1104219" transform="translate(-581 -3752.76)">
    <rect id="Rectangle_401103" data-name="Rectangle 401103" width="121" height="121" transform="translate(581 3752.76)" fill="none"/>
    <g id="Group_1099348" data-name="Group 1099348" transform="translate(581 3752.76)">
      <g id="Group_1099282" data-name="Group 1099282">
        <g id="Group_1099281" data-name="Group 1099281" clip-path="url(#clip-path-2)">
          <path id="Path_873375" data-name="Path 873375" d="M74.8,9.1c-4.139,0-6.28-2.03-8.17-3.821-1.855-1.756-3.452-3.274-6.792-3.274s-4.937,1.517-6.792,3.274C51.161,7.072,49.023,9.1,44.881,9.1s-6.28-2.03-8.169-3.821C34.857,3.525,33.26,2.007,29.92,2.007s-4.937,1.517-6.789,3.274C21.241,7.072,19.1,9.1,14.962,9.1S8.679,7.072,6.789,5.281C4.937,3.525,3.34,2.007,0,2.007V0C4.139,0,6.28,2.033,8.17,3.821c1.855,1.759,3.452,3.274,6.792,3.274S19.9,5.58,21.75,3.824C23.637,2.033,25.781,0,29.92,0s6.283,2.033,8.17,3.821c1.855,1.759,3.452,3.274,6.792,3.274s4.937-1.514,6.792-3.274C53.56,2.033,55.7,0,59.843,0s6.283,2.033,8.17,3.821C69.867,5.58,71.464,7.094,74.8,7.094S79.742,5.58,81.6,3.821C83.483,2.033,85.624,0,89.766,0V2.007c-3.34,0-4.937,1.517-6.792,3.274C81.084,7.072,78.943,9.1,74.8,9.1" transform="translate(2.453 32.43)" fill="#fff"/>
          <path id="Path_873376" data-name="Path 873376" d="M74.8,9.1c-4.139,0-6.283-2.03-8.17-3.824-1.855-1.756-3.452-3.27-6.792-3.27s-4.937,1.514-6.792,3.27C51.164,7.072,49.023,9.1,44.881,9.1s-6.283-2.03-8.17-3.824c-1.855-1.756-3.452-3.27-6.792-3.27s-4.937,1.517-6.789,3.27C21.241,7.072,19.1,9.1,14.962,9.1S8.679,7.072,6.789,5.278C4.937,3.522,3.34,2.007,0,2.007V0C4.139,0,6.283,2.03,8.17,3.821c1.855,1.759,3.452,3.274,6.792,3.274S19.9,5.58,21.75,3.821C23.637,2.03,25.781,0,29.92,0S36.2,2.03,38.093,3.821c1.852,1.759,3.449,3.274,6.789,3.274s4.937-1.514,6.792-3.274C53.56,2.03,55.7,0,59.843,0s6.283,2.03,8.17,3.821C69.867,5.58,71.464,7.094,74.8,7.094S79.742,5.58,81.6,3.821C83.486,2.03,85.627,0,89.769,0V2.007c-3.34,0-4.94,1.517-6.8,3.27C81.084,7.072,78.943,9.1,74.8,9.1" transform="translate(1.635 21.62)" fill="#fff"/>
          <path id="Path_873377" data-name="Path 873377" d="M74.8,9.1c-4.139,0-6.283-2.03-8.169-3.824-1.855-1.756-3.452-3.27-6.792-3.27s-4.937,1.514-6.792,3.27C51.164,7.072,49.02,9.1,44.881,9.1s-6.283-2.03-8.17-3.824c-1.855-1.756-3.452-3.27-6.792-3.27s-4.937,1.517-6.789,3.27C21.241,7.072,19.1,9.1,14.962,9.1S8.678,7.072,6.789,5.278C4.937,3.522,3.34,2.007,0,2.007V0C4.139,0,6.283,2.03,8.169,3.821c1.851,1.759,3.452,3.274,6.792,3.274S19.9,5.58,21.75,3.821C23.637,2.03,25.781,0,29.92,0S36.2,2.03,38.093,3.821c1.852,1.759,3.449,3.274,6.789,3.274s4.937-1.514,6.792-3.274C53.56,2.03,55.7,0,59.843,0s6.283,2.03,8.17,3.821C69.867,5.58,71.464,7.094,74.8,7.094S79.742,5.58,81.6,3.821C83.486,2.03,85.624,0,89.769,0V2.007c-3.34,0-4.941,1.517-6.8,3.27C81.084,7.072,78.943,9.1,74.8,9.1" transform="translate(0.818 10.81)" fill="#fff"/>
          <path id="Path_873378" data-name="Path 873378" d="M74.8,9.1c-4.139,0-6.28-2.03-8.17-3.821-1.855-1.756-3.452-3.27-6.792-3.27s-4.937,1.514-6.789,3.27C51.164,7.069,49.023,9.1,44.881,9.1s-6.28-2.03-8.169-3.821c-1.855-1.756-3.452-3.27-6.792-3.27s-4.937,1.514-6.789,3.267C21.245,7.069,19.1,9.1,14.962,9.1S8.678,7.069,6.789,5.278C4.937,3.522,3.34,2.007,0,2.007V0C4.139,0,6.283,2.03,8.17,3.821c1.855,1.756,3.452,3.27,6.792,3.27S19.9,5.577,21.75,3.821C23.64,2.03,25.781,0,29.92,0s6.28,2.03,8.173,3.821c1.852,1.756,3.449,3.27,6.789,3.27s4.937-1.514,6.792-3.27C53.563,2.03,55.7,0,59.843,0s6.28,2.03,8.17,3.821c1.855,1.756,3.452,3.27,6.792,3.27s4.937-1.514,6.792-3.27C83.486,2.03,85.627,0,89.769,0V2.007c-3.344,0-4.941,1.514-6.8,3.27C81.084,7.069,78.943,9.1,74.8,9.1" transform="translate(0 0.003)" fill="#fff"/>
        </g>
      </g>
    </g>
    <rect id="Rectangle_401104" data-name="Rectangle 401104" width="68" height="69" transform="translate(610.625 3780)" fill="none"/>
    <g id="Group_1103530" data-name="Group 1103530" transform="translate(576.251 3421.5)">
      <g id="Group_1103387" data-name="Group 1103387" transform="translate(66.953 358.5)">
        <g id="Group_1103386" data-name="Group 1103386">
          <path id="Path_894023" data-name="Path 894023" d="M85.959,358.5c-8.531,0-15.471,7.31-15.471,16.3s6.94,16.3,15.471,16.3,15.471-7.31,15.471-16.3S94.49,358.5,85.959,358.5Zm7.048,22.142a21.5,21.5,0,0,0,.861-5.074h6.057a15.134,15.134,0,0,1-2.887,8.213A15.52,15.52,0,0,0,93.008,380.642ZM74.88,383.782a15.126,15.126,0,0,1-2.886-8.213h6.329a21.53,21.53,0,0,0,.7,5.012A15.525,15.525,0,0,0,74.88,383.782Zm4.129-14.161a21.445,21.445,0,0,0-.671,4.4H71.994a15.147,15.147,0,0,1,2.637-7.861A15.57,15.57,0,0,0,79.008,369.621Zm7.829,1.71a14.753,14.753,0,0,0,5.091-1.231,19.931,19.931,0,0,1,.486,3.923H86.837Zm0-1.548V360.8a19.066,19.066,0,0,1,4.687,7.8A13.4,13.4,0,0,1,86.837,369.783Zm-1.469-8.444v8.456a13.4,13.4,0,0,1-4.573-1.019A19.059,19.059,0,0,1,85.368,361.339Zm0,10v2.682H79.805a19.944,19.944,0,0,1,.564-3.765A14.718,14.718,0,0,0,85.368,371.341Zm-5.578,4.228h5.578v3.3a14.789,14.789,0,0,0-4.982,1.076A19.929,19.929,0,0,1,79.791,375.569Zm5.578,4.844v8.38a19.046,19.046,0,0,1-4.549-7.368A13.451,13.451,0,0,1,85.368,380.413Zm1.469,7.839v-7.826a13.394,13.394,0,0,1,4.344,1.032A19.037,19.037,0,0,1,86.837,388.253Zm0-9.376v-3.308H92.4A19.857,19.857,0,0,1,91.66,380,14.727,14.727,0,0,0,86.837,378.877Zm7.045-4.854a21.533,21.533,0,0,0-.6-4.6,15.6,15.6,0,0,0,4.006-3.261,15.148,15.148,0,0,1,2.638,7.861Zm2.47-9.078a14.159,14.159,0,0,1-3.5,2.953,20.655,20.655,0,0,0-4.411-7.6A13.811,13.811,0,0,1,96.352,364.945Zm-11.917-4.807a20.615,20.615,0,0,0-4.977,7.989,14.11,14.11,0,0,1-3.891-3.182A13.758,13.758,0,0,1,84.435,360.137Zm-8.6,24.824a14.11,14.11,0,0,1,3.644-2.89,20.635,20.635,0,0,0,4.329,7.284A13.76,13.76,0,0,1,75.838,384.961ZM87.821,389.4a20.532,20.532,0,0,0,4.695-7.286,14.1,14.1,0,0,1,3.565,2.847A13.74,13.74,0,0,1,87.821,389.4Z" transform="translate(-70.488 -358.5)" fill="#fecab2"/>
        </g>
      </g>
      <g id="Group_1103414" data-name="Group 1103414" transform="translate(34.374 370.755)">
        <g id="Group_1103389" data-name="Group 1103389">
          <g id="Group_1103388" data-name="Group 1103388">
            <rect id="Rectangle_405400" data-name="Rectangle 405400" width="32.859" height="20.025" rx="0.941" fill="#303030"/>
          </g>
        </g>
        <g id="Group_1103391" data-name="Group 1103391" transform="translate(1.379 1.075)">
          <g id="Group_1103390" data-name="Group 1103390">
            <rect id="Rectangle_405401" data-name="Rectangle 405401" width="29.808" height="17.875" fill="#f55d51"/>
          </g>
        </g>
        <g id="Group_1103413" data-name="Group 1103413" transform="translate(6.458 1.777)">
          <g id="Group_1103393" data-name="Group 1103393" transform="translate(17.478 14.995)">
            <g id="Group_1103392" data-name="Group 1103392">
              <path id="Path_894024" data-name="Path 894024" d="M63.079,392.855l-.106-1a1.653,1.653,0,0,0-1.179-1.176l-.887,2.178Z" transform="translate(-60.907 -390.677)" fill="#4c8eb5"/>
            </g>
          </g>
          <g id="Group_1103395" data-name="Group 1103395" transform="translate(0 15.545)">
            <g id="Group_1103394" data-name="Group 1103394">
              <path id="Path_894025" data-name="Path 894025" d="M44.324,392.914c-.077-.073-.136-.13-.162-.156l-1.244-1.265a.692.692,0,0,0-1.15.265l-.235,1.156Z" transform="translate(-41.533 -391.286)" fill="#4c8eb5"/>
            </g>
          </g>
          <g id="Group_1103397" data-name="Group 1103397" transform="translate(7.384 10.202)">
            <g id="Group_1103396" data-name="Group 1103396">
              <rect id="Rectangle_405402" data-name="Rectangle 405402" width="5.08" height="5.867" fill="#dead8e"/>
            </g>
          </g>
          <g id="Group_1103410" data-name="Group 1103410" transform="translate(5.534)">
            <g id="Group_1103399" data-name="Group 1103399" transform="translate(6.837 5.191)">
              <g id="Group_1103398" data-name="Group 1103398">
                <path id="Path_894026" data-name="Path 894026" d="M55.676,382.249h0a.649.649,0,0,0,.86-.441l.324-1.162a.67.67,0,0,0-.408-.8h0a.649.649,0,0,0-.859.442l-.325,1.162A.67.67,0,0,0,55.676,382.249Z" transform="translate(-55.245 -379.809)" fill="#eab99a"/>
              </g>
            </g>
            <g id="Group_1103401" data-name="Group 1103401" transform="translate(0.824 1.93)">
              <g id="Group_1103400" data-name="Group 1103400">
                <path id="Path_894027" data-name="Path 894027" d="M55.358,378.47l.1,4.178a2.7,2.7,0,0,1-.226,1.132c-.422.991-.422.991-1.873,2.447a1.85,1.85,0,0,1-1.191.342c-.095,0-.185,0-.271,0a1.639,1.639,0,0,1-.94-.283c-1.521-1.381-1.521-1.381-1.994-2.352a2.688,2.688,0,0,1-.282-1.12l-.1-4.177a2.208,2.208,0,0,1,1.994-2.377l2.672-.068A2.21,2.21,0,0,1,55.358,378.47Z" transform="translate(-48.58 -376.194)" fill="#eab99a"/>
              </g>
            </g>
            <g id="Group_1103403" data-name="Group 1103403" transform="translate(0.824 1.944)">
              <g id="Group_1103402" data-name="Group 1103402">
                <path id="Path_894028" data-name="Path 894028" d="M54.815,378.484l.1,4.178a2.675,2.675,0,0,1-.222,1.132c-.423.993-.423.993-1.873,2.449a1.659,1.659,0,0,1-.924.329,1.639,1.639,0,0,1-.94-.283c-1.521-1.381-1.521-1.381-1.994-2.352a2.688,2.688,0,0,1-.282-1.12l-.1-4.177a2.208,2.208,0,0,1,1.994-2.377l2.131-.054A2.209,2.209,0,0,1,54.815,378.484Z" transform="translate(-48.58 -376.209)" fill="#f4caaf"/>
              </g>
            </g>
            <g id="Group_1103405" data-name="Group 1103405" transform="translate(0 5.37)">
              <g id="Group_1103404" data-name="Group 1103404">
                <path id="Path_894029" data-name="Path 894029" d="M48.962,382.418h0a.65.65,0,0,1-.88-.4l-.382-1.144a.67.67,0,0,1,.367-.815h0a.649.649,0,0,1,.88.4l.383,1.144A.672.672,0,0,1,48.962,382.418Z" transform="translate(-47.667 -380.008)" fill="#f4caaf"/>
              </g>
            </g>
            <g id="Group_1103407" data-name="Group 1103407" transform="translate(0.46)">
              <g id="Group_1103406" data-name="Group 1103406">
                <path id="Path_894030" data-name="Path 894030" d="M55.946,378.873l-.607,2.352-.828-2.889-.437.583-.8.188,0,.005L49.481,380l-.868,1.274-.436-3.131,1.052-3.229,4.311-.862.883.8,1.193,1.073Z" transform="translate(-48.177 -374.055)" fill="#f7b23f"/>
              </g>
            </g>
            <g id="Group_1103409" data-name="Group 1103409" transform="translate(0.46 0)">
              <g id="Group_1103408" data-name="Group 1103408">
                <path id="Path_894031" data-name="Path 894031" d="M54.423,374.852l.052,2.078a2.368,2.368,0,0,1-1.2,2.176l0,.005-3.789.89-.868,1.275-.436-3.131,1.053-3.229,4.311-.862Z" transform="translate(-48.177 -374.055)" fill="#f8be49"/>
              </g>
            </g>
          </g>
          <g id="Group_1103412" data-name="Group 1103412" transform="translate(0.166 13.862)">
            <g id="Group_1103411" data-name="Group 1103411">
              <path id="Path_894032" data-name="Path 894032" d="M41.76,392.589c.011.047.024.095.035.143H60.956c.009-.04.019-.078.029-.118,0-.011,0-.02,0-.03a1.761,1.761,0,0,0-1.032-2.019c-.082-.037-5.426-1.144-5.759-1.144l-2.587,1.573-3.046-1.573c-.282,0-5.223,1-5.5,1.051a1.771,1.771,0,0,0-1.34,1.9A1.861,1.861,0,0,0,41.76,392.589Z" transform="translate(-41.717 -389.421)" fill="#4c8eb5"/>
            </g>
          </g>
        </g>
      </g>
      <g id="Group_1103423" data-name="Group 1103423" transform="translate(39.678 389.984)">
        <g id="Group_1103416" data-name="Group 1103416" transform="translate(3.026)">
          <g id="Group_1103415" data-name="Group 1103415">
            <path id="Path_894033" data-name="Path 894033" d="M92.188,394.086v25.692a.572.572,0,0,1-.044.228.671.671,0,0,1-.648.456h-47.2a.669.669,0,0,1-.641-.456.572.572,0,0,1-.044-.228V394.086a.689.689,0,0,1,.685-.686H91.5A.69.69,0,0,1,92.188,394.086Z" transform="translate(-43.608 -393.4)" fill="#404040"/>
          </g>
        </g>
        <g id="Group_1103418" data-name="Group 1103418" transform="translate(0 26.606)">
          <g id="Group_1103417" data-name="Group 1103417">
            <path id="Path_894034" data-name="Path 894034" d="M94.885,423.526a1.2,1.2,0,0,1-1.193,1.192H41.447a1.193,1.193,0,0,1-1.193-1.192,1.163,1.163,0,0,1,.184-.633H94.7A1.163,1.163,0,0,1,94.885,423.526Z" transform="translate(-40.254 -422.893)" fill="silver"/>
          </g>
        </g>
        <g id="Group_1103420" data-name="Group 1103420" transform="translate(24.159 26.608)">
          <g id="Group_1103419" data-name="Group 1103419">
            <path id="Path_894035" data-name="Path 894035" d="M67.034,422.895a1.594,1.594,0,0,0,1.44.912h3.433a1.591,1.591,0,0,0,1.441-.912Z" transform="translate(-67.034 -422.895)" fill="#909090"/>
          </g>
        </g>
        <g id="Group_1103422" data-name="Group 1103422" transform="translate(4.629 1.059)">
          <g id="Group_1103421" data-name="Group 1103421">
            <rect id="Rectangle_405403" data-name="Rectangle 405403" width="45.26" height="23.718" fill="#4c8eb5"/>
          </g>
        </g>
      </g>
      <g id="Group_1103484" data-name="Group 1103484" transform="translate(50.765 392.213)">
        <g id="Group_1103481" data-name="Group 1103481">
          <g id="Group_1103428" data-name="Group 1103428">
            <g id="Group_1103425" data-name="Group 1103425" transform="translate(0.592 0.59)">
              <g id="Group_1103424" data-name="Group 1103424">
                <path id="Path_894036" data-name="Path 894036" d="M80.458,415.821H53.2v-19.3H84.653v19.3Z" transform="translate(-53.199 -396.525)" fill="#fff"/>
              </g>
            </g>
            <g id="Group_1103427" data-name="Group 1103427">
              <g id="Group_1103426" data-name="Group 1103426">
                <path id="Path_894037" data-name="Path 894037" d="M84.589,416.347H53.135a.591.591,0,0,1-.592-.59v-19.3a.591.591,0,0,1,.592-.59H84.589a.59.59,0,0,1,.591.59v19.3A.59.59,0,0,1,84.589,416.347Zm-30.863-1.181H84V397.053H53.726Z" transform="translate(-52.543 -395.871)" fill="#8d5c3e"/>
              </g>
            </g>
          </g>
          <g id="Group_1103453" data-name="Group 1103453" transform="translate(2.521 3.021)">
            <g id="Group_1103431" data-name="Group 1103431">
              <g id="Group_1103430" data-name="Group 1103430">
                <g id="Group_1103429" data-name="Group 1103429">
                  <path id="Path_894038" data-name="Path 894038" d="M66.214,399.811H55.634a.3.3,0,1,1,0-.591h10.58a.3.3,0,0,1,0,.591Z" transform="translate(-55.337 -399.22)" fill="#a0a0a0"/>
                </g>
              </g>
            </g>
            <g id="Group_1103434" data-name="Group 1103434" transform="translate(0 2.038)">
              <g id="Group_1103433" data-name="Group 1103433">
                <g id="Group_1103432" data-name="Group 1103432">
                  <path id="Path_894039" data-name="Path 894039" d="M66.214,402.07H55.634a.3.3,0,1,1,0-.591h10.58a.3.3,0,0,1,0,.591Z" transform="translate(-55.337 -401.479)" fill="#a0a0a0"/>
                </g>
              </g>
            </g>
            <g id="Group_1103437" data-name="Group 1103437" transform="translate(0 8.15)">
              <g id="Group_1103436" data-name="Group 1103436">
                <g id="Group_1103435" data-name="Group 1103435">
                  <path id="Path_894040" data-name="Path 894040" d="M66.214,408.845H55.634a.3.3,0,1,1,0-.591h10.58a.3.3,0,0,1,0,.591Z" transform="translate(-55.337 -408.254)" fill="#a0a0a0"/>
                </g>
              </g>
            </g>
            <g id="Group_1103440" data-name="Group 1103440" transform="translate(0 10.188)">
              <g id="Group_1103439" data-name="Group 1103439">
                <g id="Group_1103438" data-name="Group 1103438">
                  <path id="Path_894041" data-name="Path 894041" d="M66.214,411.1H55.634a.3.3,0,1,1,0-.591h10.58a.3.3,0,0,1,0,.591Z" transform="translate(-55.337 -410.513)" fill="#a0a0a0"/>
                </g>
              </g>
            </g>
            <g id="Group_1103443" data-name="Group 1103443" transform="translate(0 4.075)">
              <g id="Group_1103442" data-name="Group 1103442">
                <g id="Group_1103441" data-name="Group 1103441">
                  <path id="Path_894042" data-name="Path 894042" d="M66.214,404.329H55.634a.3.3,0,1,1,0-.592h10.58a.3.3,0,0,1,0,.592Z" transform="translate(-55.337 -403.737)" fill="#a0a0a0"/>
                </g>
              </g>
            </g>
            <g id="Group_1103446" data-name="Group 1103446" transform="translate(0 6.113)">
              <g id="Group_1103445" data-name="Group 1103445">
                <g id="Group_1103444" data-name="Group 1103444">
                  <path id="Path_894043" data-name="Path 894043" d="M66.214,406.586H55.634a.295.295,0,1,1,0-.59h10.58a.295.295,0,1,1,0,.59Z" transform="translate(-55.337 -405.996)" fill="#a0a0a0"/>
                </g>
              </g>
            </g>
            <g id="Group_1103449" data-name="Group 1103449" transform="translate(0 12.225)">
              <g id="Group_1103448" data-name="Group 1103448">
                <g id="Group_1103447" data-name="Group 1103447">
                  <path id="Path_894044" data-name="Path 894044" d="M66.214,413.363H55.634a.3.3,0,1,1,0-.591h10.58a.3.3,0,0,1,0,.591Z" transform="translate(-55.337 -412.772)" fill="#a0a0a0"/>
                </g>
              </g>
            </g>
            <g id="Group_1103452" data-name="Group 1103452" transform="translate(0 14.262)">
              <g id="Group_1103451" data-name="Group 1103451">
                <g id="Group_1103450" data-name="Group 1103450">
                  <path id="Path_894045" data-name="Path 894045" d="M66.214,415.621H55.634a.3.3,0,1,1,0-.592h10.58a.3.3,0,0,1,0,.592Z" transform="translate(-55.337 -415.029)" fill="#a0a0a0"/>
                </g>
              </g>
            </g>
          </g>
          <g id="Group_1103478" data-name="Group 1103478" transform="translate(18.391 3.021)">
            <g id="Group_1103456" data-name="Group 1103456">
              <g id="Group_1103455" data-name="Group 1103455">
                <g id="Group_1103454" data-name="Group 1103454">
                  <path id="Path_894046" data-name="Path 894046" d="M83.8,399.811H73.225a.3.3,0,1,1,0-.591H83.8a.3.3,0,1,1,0,.591Z" transform="translate(-72.929 -399.22)" fill="#a0a0a0"/>
                </g>
              </g>
            </g>
            <g id="Group_1103459" data-name="Group 1103459" transform="translate(0 2.038)">
              <g id="Group_1103458" data-name="Group 1103458">
                <g id="Group_1103457" data-name="Group 1103457">
                  <path id="Path_894047" data-name="Path 894047" d="M83.8,402.07H73.225a.3.3,0,1,1,0-.591H83.8a.3.3,0,1,1,0,.591Z" transform="translate(-72.929 -401.479)" fill="#a0a0a0"/>
                </g>
              </g>
            </g>
            <g id="Group_1103462" data-name="Group 1103462" transform="translate(0 8.15)">
              <g id="Group_1103461" data-name="Group 1103461">
                <g id="Group_1103460" data-name="Group 1103460">
                  <path id="Path_894048" data-name="Path 894048" d="M83.8,408.845H73.225a.3.3,0,1,1,0-.591H83.8a.3.3,0,1,1,0,.591Z" transform="translate(-72.929 -408.254)" fill="#a0a0a0"/>
                </g>
              </g>
            </g>
            <g id="Group_1103465" data-name="Group 1103465" transform="translate(0 10.188)">
              <g id="Group_1103464" data-name="Group 1103464">
                <g id="Group_1103463" data-name="Group 1103463">
                  <path id="Path_894049" data-name="Path 894049" d="M83.8,411.1H73.225a.3.3,0,1,1,0-.591H83.8a.3.3,0,1,1,0,.591Z" transform="translate(-72.929 -410.513)" fill="#a0a0a0"/>
                </g>
              </g>
            </g>
            <g id="Group_1103468" data-name="Group 1103468" transform="translate(0 4.075)">
              <g id="Group_1103467" data-name="Group 1103467">
                <g id="Group_1103466" data-name="Group 1103466">
                  <path id="Path_894050" data-name="Path 894050" d="M83.8,404.329H73.225a.3.3,0,0,1,0-.592H83.8a.3.3,0,0,1,0,.592Z" transform="translate(-72.929 -403.737)" fill="#a0a0a0"/>
                </g>
              </g>
            </g>
            <g id="Group_1103471" data-name="Group 1103471" transform="translate(0 6.113)">
              <g id="Group_1103470" data-name="Group 1103470">
                <g id="Group_1103469" data-name="Group 1103469">
                  <path id="Path_894051" data-name="Path 894051" d="M83.8,406.586H73.225a.295.295,0,1,1,0-.59H83.8a.295.295,0,1,1,0,.59Z" transform="translate(-72.929 -405.996)" fill="#a0a0a0"/>
                </g>
              </g>
            </g>
            <g id="Group_1103474" data-name="Group 1103474" transform="translate(0 12.225)">
              <g id="Group_1103473" data-name="Group 1103473">
                <g id="Group_1103472" data-name="Group 1103472">
                  <path id="Path_894052" data-name="Path 894052" d="M83.8,413.363H73.225a.3.3,0,1,1,0-.591H83.8a.3.3,0,1,1,0,.591Z" transform="translate(-72.929 -412.772)" fill="#a0a0a0"/>
                </g>
              </g>
            </g>
            <g id="Group_1103477" data-name="Group 1103477" transform="translate(0 14.262)">
              <g id="Group_1103476" data-name="Group 1103476">
                <g id="Group_1103475" data-name="Group 1103475">
                  <path id="Path_894053" data-name="Path 894053" d="M83.8,415.621H73.225a.3.3,0,0,1,0-.592H83.8a.3.3,0,0,1,0,.592Z" transform="translate(-72.929 -415.029)" fill="#a0a0a0"/>
                </g>
              </g>
            </g>
          </g>
          <g id="Group_1103480" data-name="Group 1103480" transform="translate(15.738 0.047)">
            <g id="Group_1103479" data-name="Group 1103479">
              <path id="Path_894054" data-name="Path 894054" d="M69.988,395.923l.67,19.054.67-19.054Z" transform="translate(-69.988 -395.923)" fill="silver"/>
            </g>
          </g>
        </g>
        <g id="Group_1103483" data-name="Group 1103483" transform="translate(23.977 0.047)">
          <g id="Group_1103482" data-name="Group 1103482">
            <path id="Path_894055" data-name="Path 894055" d="M80.914,410.832l-.9-.975-.9.975V395.923h1.793Z" transform="translate(-79.121 -395.923)" fill="#d93d15"/>
          </g>
        </g>
      </g>
      <g id="Group_1103510" data-name="Group 1103510" transform="translate(84.352 383.224)">
        <g id="Group_1103508" data-name="Group 1103508">
          <g id="Group_1103486" data-name="Group 1103486">
            <g id="Group_1103485" data-name="Group 1103485">
              <path id="Rectangle_405404" data-name="Rectangle 405404" d="M.8,0H27.29a.8.8,0,0,1,.8.8V16.317a.8.8,0,0,1-.8.8H.8a.8.8,0,0,1-.8-.8V.8A.8.8,0,0,1,.8,0Z" transform="translate(17.121 0) rotate(90)" fill="#303030"/>
            </g>
          </g>
          <g id="Group_1103488" data-name="Group 1103488" transform="translate(1.481 1.609)">
            <g id="Group_1103487" data-name="Group 1103487">
              <rect id="Rectangle_405405" data-name="Rectangle 405405" width="23.08" height="14.159" transform="translate(14.159 0) rotate(90)" fill="#d5e5e6"/>
            </g>
          </g>
          <g id="Group_1103507" data-name="Group 1103507" transform="translate(1.606 7.402)">
            <g id="Group_1103490" data-name="Group 1103490" transform="translate(1.782)">
              <g id="Group_1103489" data-name="Group 1103489">
                <path id="Path_894056" data-name="Path 894056" d="M104.663,400.773c0,3.678-5.566,5.849-5.566,5.849s-5.566-2.171-5.566-5.849,2.492-6.661,5.566-6.661S104.663,397.094,104.663,400.773Z" transform="translate(-93.531 -394.112)" fill="#f3aa43"/>
              </g>
            </g>
            <g id="Group_1103492" data-name="Group 1103492" transform="translate(4.006 3.914)">
              <g id="Group_1103491" data-name="Group 1103491">
                <path id="Path_894057" data-name="Path 894057" d="M102.269,398.451s2.837,4.63-1.608,7.964h0l-3.12-.271s-1.941-2.125-1.47-4.173h0l6.2-3.52Z" transform="translate(-95.997 -398.451)" fill="#ef893a"/>
              </g>
            </g>
            <g id="Group_1103494" data-name="Group 1103494" transform="translate(0 13.505)">
              <g id="Group_1103493" data-name="Group 1103493">
                <path id="Path_894058" data-name="Path 894058" d="M93.171,409.132a1.35,1.35,0,0,0-1.615.795v2.909h2.521c.046-1.37.068-2.364.068-2.476A1.288,1.288,0,0,0,93.171,409.132Z" transform="translate(-91.556 -409.082)" fill="#eab99a"/>
              </g>
            </g>
            <g id="Group_1103496" data-name="Group 1103496" transform="translate(11.726 13.505)">
              <g id="Group_1103495" data-name="Group 1103495">
                <path id="Path_894059" data-name="Path 894059" d="M106.737,409.374a1.358,1.358,0,0,0-.844-.292,1.411,1.411,0,0,0-.348.044,1.286,1.286,0,0,0-.991,1.233c0,.113.023,1.107.069,2.476h2.114Z" transform="translate(-104.554 -409.082)" fill="#eab99a"/>
              </g>
            </g>
            <g id="Group_1103498" data-name="Group 1103498" transform="translate(0.304 11.037)">
              <g id="Group_1103497" data-name="Group 1103497">
                <path id="Path_894060" data-name="Path 894060" d="M105.5,409.2a1.516,1.516,0,0,0-.977-.344h-1.533a3.026,3.026,0,0,1-2.129-.775,2.836,2.836,0,0,1-.736-1.737H97.685a2.82,2.82,0,0,1-.742,1.737,3,3,0,0,1-2.124.775H93.287a.429.429,0,0,0-.083.005,1.286,1.286,0,0,0-1.311,1.184l.683,2.521h12.655l.267-.983Z" transform="translate(-91.893 -406.347)" fill="#eab99a"/>
              </g>
            </g>
            <g id="Group_1103500" data-name="Group 1103500" transform="translate(0 12.774)">
              <g id="Group_1103499" data-name="Group 1103499">
                <path id="Path_894061" data-name="Path 894061" d="M105.465,409.3a1.358,1.358,0,0,0-.844-.292,1.411,1.411,0,0,0-.348.044h-1.317a3.026,3.026,0,0,1-2.129-.775H96.91a3,3,0,0,1-2.124.775H93.254a.429.429,0,0,0-.083.005,1.35,1.35,0,0,0-1.615.795v2.909h13.909Z" transform="translate(-91.556 -408.272)" fill="#fd6d60"/>
              </g>
            </g>
            <g id="Group_1103502" data-name="Group 1103502" transform="translate(3.947 1.715)">
              <g id="Group_1103501" data-name="Group 1103501">
                <path id="Path_894062" data-name="Path 894062" d="M102.733,400.473c0,2.459-1.509,5.433-3.387,5.433a1.253,1.253,0,0,1-.256-.023c-1.761-.251-3.158-3.063-3.158-5.41s1.38-4.276,3.141-4.45c.084,0,.168-.01.257-.01C101.207,396.013,102.733,398.008,102.733,400.473Z" transform="translate(-95.931 -396.013)" fill="#eab99a"/>
              </g>
            </g>
            <g id="Group_1103504" data-name="Group 1103504" transform="translate(3.947 1.725)">
              <g id="Group_1103503" data-name="Group 1103503">
                <path id="Path_894063" data-name="Path 894063" d="M102.219,400.474c0,2.347-1.375,5.159-3.129,5.41-1.761-.251-3.158-3.063-3.158-5.41a1.542,1.542,0,0,1,.011-.224,4.665,4.665,0,0,1,1.839-3.745,2.812,2.812,0,0,1,.945-.42l.022-.005a.032.032,0,0,1,.023-.006c.1-.022.2-.039.3-.051a2.862,2.862,0,0,1,.637.145,4.228,4.228,0,0,1,2.465,3.607A5.756,5.756,0,0,1,102.219,400.474Z" transform="translate(-95.931 -396.024)" fill="#f5c4a5"/>
              </g>
            </g>
            <g id="Group_1103506" data-name="Group 1103506" transform="translate(3.582 1.285)">
              <g id="Group_1103505" data-name="Group 1103505">
                <path id="Path_894064" data-name="Path 894064" d="M95.527,397.214s.65,1.537,3.423,1.957,3.332,1.676,3.611,2.515c0,0,1.536-3.634-.792-5.031S96.552,394.886,95.527,397.214Z" transform="translate(-95.527 -395.537)" fill="#f3aa43"/>
              </g>
            </g>
          </g>
        </g>
        <g id="Group_1103509" data-name="Group 1103509" transform="translate(7.282 26.118)">
          <path id="Path_894065" data-name="Path 894065" d="M99.879,415.91H98.374a.528.528,0,0,1-.527-.526h0a.528.528,0,0,1,.527-.526h1.506a.528.528,0,0,1,.526.526h0A.528.528,0,0,1,99.879,415.91Z" transform="translate(-97.847 -414.858)" fill="#505050"/>
        </g>
      </g>
      <g id="Group_1103529" data-name="Group 1103529" transform="translate(44.952 403.86)">
        <g id="Group_1103512" data-name="Group 1103512" transform="translate(0 6.431)">
          <g id="Group_1103511" data-name="Group 1103511">
            <rect id="Rectangle_405406" data-name="Rectangle 405406" width="28.095" height="17.121" rx="0.804" fill="#303030"/>
          </g>
        </g>
        <g id="Group_1103514" data-name="Group 1103514" transform="translate(1.609 7.911)">
          <g id="Group_1103513" data-name="Group 1103513">
            <rect id="Rectangle_405407" data-name="Rectangle 405407" width="23.08" height="14.159" fill="#fece57"/>
          </g>
        </g>
        <g id="Group_1103515" data-name="Group 1103515" transform="translate(26.118 13.712)">
          <path id="Path_894066" data-name="Path 894066" d="M76.1,424.507v1.506a.528.528,0,0,1-.526.526h0a.527.527,0,0,1-.526-.526v-1.506a.528.528,0,0,1,.526-.526h0A.528.528,0,0,1,76.1,424.507Z" transform="translate(-75.052 -423.981)" fill="#505050"/>
        </g>
        <g id="Group_1103517" data-name="Group 1103517" transform="translate(5.691 10.983)">
          <g id="Group_1103516" data-name="Group 1103516">
            <path id="Path_894067" data-name="Path 894067" d="M53.733,422.764h-.086a.619.619,0,0,1-.538-.2.344.344,0,0,1,.069-.4,3.815,3.815,0,0,1,.264-.308c-.228.121-.448.251-.659.391a.281.281,0,0,1-.318-.014.141.141,0,0,1,.018-.239,8.329,8.329,0,0,1,2.185-1.023.264.264,0,0,1,.284.076.146.146,0,0,1-.07.221,3.879,3.879,0,0,0-1.312,1.064.248.248,0,0,0-.051.087.99.99,0,0,0,.135.009,5.533,5.533,0,0,0,2.634-.613,1.848,1.848,0,0,1,.317-.183.279.279,0,0,1,.3.041.142.142,0,0,1-.034.231c-.092.058-.187.114-.284.167a.236.236,0,0,0-.043.048c-.034.051-.017.112.006.121a.567.567,0,0,0,.178-.006,12.089,12.089,0,0,0,3.156-.9.543.543,0,0,1,.276-.113.247.247,0,0,1,.251.106.15.15,0,0,1-.09.2c-.04.018-.078.037-.118.054a.112.112,0,0,0-.007.021.186.186,0,0,0,.1.2,1.393,1.393,0,0,0,.773-.026,15.7,15.7,0,0,0,2.3-.625.88.88,0,0,1,.48-.189.236.236,0,0,1,.24.112.15.15,0,0,1-.094.2c-.11.051-.222.1-.335.145a.308.308,0,0,0-.085.29.773.773,0,0,0,.584.431,3.248,3.248,0,0,0,.989.048,10.155,10.155,0,0,0,3.471-.794.272.272,0,0,1,.31.06.148.148,0,0,1-.078.231,10.684,10.684,0,0,1-3.664.841,3.8,3.8,0,0,1-1.174-.064,1.155,1.155,0,0,1-.88-.683.5.5,0,0,1-.018-.163c-.627.2-1.283.346-1.924.486a1.861,1.861,0,0,1-1.127-.005.539.539,0,0,1-.306-.322,12.559,12.559,0,0,1-2.95.789.909.909,0,0,1-.471-.025.408.408,0,0,1-.247-.235A6.242,6.242,0,0,1,53.733,422.764Z" transform="translate(-52.408 -420.956)" fill="#a0a0a0"/>
          </g>
        </g>
        <g id="Group_1103519" data-name="Group 1103519" transform="translate(5.017 14.527)">
          <g id="Group_1103518" data-name="Group 1103518">
            <path id="Path_894068" data-name="Path 894068" d="M55.643,426.8a11.352,11.352,0,0,1-1.5-.1.238.238,0,0,1-.153-.078.132.132,0,0,1-.023-.137,6.491,6.491,0,0,0,.3-.938,11.892,11.892,0,0,0-2.268.756.273.273,0,0,1-.309-.059.147.147,0,0,1,.076-.232,12.671,12.671,0,0,1,2.724-.865.287.287,0,0,1,.207.038.149.149,0,0,1,.074.151,6.606,6.606,0,0,1-.3,1.062,10.893,10.893,0,0,0,5.305-.744,2.181,2.181,0,0,1,.2-.407.255.255,0,0,1,.276-.089.316.316,0,0,1,.263.241c.024.172-.152.37-.346.473a1.773,1.773,0,0,0-.068.46,1.647,1.647,0,0,0,.631-.137,21.271,21.271,0,0,0,2.823-1.28.293.293,0,0,1,.235-.014.172.172,0,0,1,.124.152l0,.605,1.508-.008h0a.209.209,0,0,1,.226.159l.026.3a1.581,1.581,0,0,0,.7-.375.278.278,0,0,1,.317-.031.143.143,0,0,1,.041.237,2.16,2.16,0,0,1-1.234.548.282.282,0,0,1-.177-.035.16.16,0,0,1-.085-.121l-.029-.344L63.69,426h0a.271.271,0,0,1-.16-.05.153.153,0,0,1-.067-.121l0-.446a21.582,21.582,0,0,1-2.529,1.118,1.755,1.755,0,0,1-1.144.119.177.177,0,0,1-.135-.147,1.992,1.992,0,0,1,.014-.388A11.455,11.455,0,0,1,55.643,426.8Z" transform="translate(-51.662 -424.885)" fill="#a0a0a0"/>
          </g>
        </g>
        <g id="Group_1103521" data-name="Group 1103521" transform="translate(4.755 18.238)">
          <g id="Group_1103520" data-name="Group 1103520">
            <path id="Path_894069" data-name="Path 894069" d="M54.576,430.673a.269.269,0,0,1-.166-.054.142.142,0,0,1-.056-.149l.276-1.032a10.019,10.019,0,0,0-2.9,1.009.28.28,0,0,1-.316-.038.143.143,0,0,1,.051-.235,10.631,10.631,0,0,1,3.412-1.124.279.279,0,0,1,.2.046.143.143,0,0,1,.062.153l-.281,1.053a9.335,9.335,0,0,0,3.294-1.038.29.29,0,0,1,.239-.014.168.168,0,0,1,.121.155l-.022.525a15.421,15.421,0,0,0,4.069-.914.286.286,0,0,1,.249.023.144.144,0,0,1,.068.18c-.059.135-.227.586.066.7a1.038,1.038,0,0,0,.446.009l3.37-.375a.225.225,0,0,1,.257.143c.018.092-.067.178-.19.192l-3.371.375a1.512,1.512,0,0,1-.72-.043.621.621,0,0,1-.4-.748,15.988,15.988,0,0,1-4.06.815.288.288,0,0,1-.176-.045.152.152,0,0,1-.071-.129l.016-.385a10.084,10.084,0,0,1-3.445.944Z" transform="translate(-51.37 -428.998)" fill="#a0a0a0"/>
          </g>
        </g>
        <g id="Group_1103528" data-name="Group 1103528" transform="translate(17.384)">
          <g id="Group_1103523" data-name="Group 1103523" transform="translate(0 17.173)">
            <g id="Group_1103522" data-name="Group 1103522">
              <path id="Path_894070" data-name="Path 894070" d="M66.389,429.381a.526.526,0,0,1-.678.3h0a.524.524,0,0,1-.3-.677l.321-.851a.528.528,0,0,1,.678-.306h0a.525.525,0,0,1,.306.677Z" transform="translate(-65.371 -427.818)" fill="#284962"/>
            </g>
          </g>
          <g id="Group_1103525" data-name="Group 1103525" transform="translate(0.138)">
            <g id="Group_1103524" data-name="Group 1103524">
              <path id="Path_894071" data-name="Path 894071" d="M67.042,426.572a.653.653,0,0,1-.844.381l-.252-.095a.653.653,0,0,1-.38-.843l6.362-16.808a.655.655,0,0,1,.845-.382l.251.1a.655.655,0,0,1,.382.844Z" transform="translate(-65.523 -408.782)" fill="#d93d15"/>
            </g>
          </g>
          <g id="Group_1103527" data-name="Group 1103527" transform="translate(1.077 15.024)">
            <g id="Group_1103526" data-name="Group 1103526">
              <path id="Path_894072" data-name="Path 894072" d="M67.012,426.977a.232.232,0,0,1-.3.135h0a.231.231,0,0,1-.134-.3l.464-1.229a.231.231,0,0,1,.3-.134h0a.233.233,0,0,1,.135.3Z" transform="translate(-66.564 -425.436)" fill="#f99a24"/>
            </g>
          </g>
        </g>
      </g>
    </g>
  </g>
</svg>
