<svg xmlns="http://www.w3.org/2000/svg" xmlns:xlink="http://www.w3.org/1999/xlink" width="139" height="139" viewBox="0 0 139 139">
  <defs>
    <clipPath id="clip-path">
      <rect id="Rectangle_400938" data-name="Rectangle 400938" width="139" height="139" transform="translate(-0.043 -0.043)" fill="none"/>
    </clipPath>
    <clipPath id="clip-path-2">
      <rect id="Rectangle_401073" data-name="Rectangle 401073" width="105.872" height="47.68" fill="#7d3a1b"/>
    </clipPath>
  </defs>
  <g id="Group_1104187" data-name="Group 1104187" transform="translate(-731 -6096)">
    <g id="Group_1102715" data-name="Group 1102715" transform="translate(466.043 812.043)">
      <g id="Group_1099379" data-name="Group 1099379" transform="translate(265 5284)">
        <rect id="Rectangle_401103" data-name="Rectangle 401103" width="139" height="139" transform="translate(-0.043 -0.043)" fill="none"/>
        <g id="Group_1099348" data-name="Group 1099348" transform="translate(0)">
          <g id="Group_1099282" data-name="Group 1099282">
            <g id="Group_1099281" data-name="Group 1099281" clip-path="url(#clip-path-2)">
              <path id="Path_873375" data-name="Path 873375" d="M85.879,10.449c-4.752,0-7.21-2.33-9.379-4.386C74.371,4.047,72.538,2.3,68.7,2.3s-5.668,1.742-7.8,3.758c-2.17,2.056-4.624,4.386-9.379,4.386s-7.21-2.33-9.379-4.386C40.018,4.047,38.184,2.3,34.349,2.3s-5.668,1.742-7.794,3.758c-2.17,2.056-4.627,4.386-9.379,4.386S9.963,8.119,7.794,6.063C5.668,4.047,3.835,2.3,0,2.3V0C4.752,0,7.21,2.334,9.379,4.386c2.129,2.02,3.963,3.758,7.8,3.758s5.668-1.738,7.794-3.755C27.136,2.334,29.6,0,34.349,0s7.213,2.334,9.379,4.386c2.129,2.02,3.963,3.758,7.8,3.758s5.668-1.738,7.8-3.758C61.489,2.334,63.951,0,68.7,0s7.213,2.334,9.379,4.386c2.129,2.02,3.963,3.758,7.8,3.758s5.668-1.738,7.8-3.758C95.843,2.334,98.3,0,103.056,0V2.3c-3.835,0-5.668,1.742-7.8,3.758-2.169,2.056-4.627,4.386-9.379,4.386" transform="translate(2.816 37.231)" fill="#7d3a1b"/>
              <path id="Path_873376" data-name="Path 873376" d="M85.879,10.449c-4.752,0-7.213-2.33-9.379-4.39C74.371,4.043,72.538,2.3,68.7,2.3s-5.668,1.738-7.8,3.755c-2.166,2.06-4.624,4.39-9.379,4.39s-7.213-2.33-9.379-4.39C40.018,4.043,38.184,2.3,34.349,2.3s-5.668,1.742-7.794,3.755c-2.17,2.06-4.627,4.39-9.379,4.39s-7.213-2.33-9.383-4.39C5.668,4.043,3.835,2.3,0,2.3V0C4.752,0,7.213,2.33,9.379,4.386c2.129,2.02,3.963,3.758,7.8,3.758s5.668-1.738,7.794-3.758C27.136,2.33,29.6,0,34.349,0s7.213,2.33,9.383,4.386c2.126,2.02,3.959,3.758,7.794,3.758s5.668-1.738,7.8-3.758C61.489,2.33,63.951,0,68.7,0s7.213,2.33,9.379,4.386c2.129,2.02,3.963,3.758,7.8,3.758s5.668-1.738,7.8-3.758C95.846,2.33,98.3,0,103.059,0V2.3c-3.835,0-5.672,1.742-7.8,3.755-2.169,2.06-4.628,4.39-9.379,4.39" transform="translate(1.877 24.821)" fill="#7d3a1b"/>
              <path id="Path_873377" data-name="Path 873377" d="M85.879,10.449c-4.752,0-7.213-2.33-9.379-4.39C74.371,4.043,72.538,2.3,68.7,2.3s-5.668,1.738-7.8,3.755c-2.166,2.06-4.627,4.39-9.379,4.39s-7.213-2.33-9.379-4.39C40.018,4.043,38.184,2.3,34.349,2.3s-5.668,1.742-7.794,3.755c-2.169,2.06-4.627,4.39-9.379,4.39s-7.213-2.33-9.383-4.39C5.668,4.043,3.835,2.3,0,2.3V0C4.752,0,7.213,2.33,9.379,4.386c2.126,2.02,3.963,3.758,7.8,3.758s5.668-1.738,7.794-3.758C27.136,2.33,29.6,0,34.349,0s7.213,2.33,9.383,4.386c2.126,2.02,3.959,3.758,7.794,3.758s5.668-1.738,7.8-3.758C61.489,2.33,63.951,0,68.7,0s7.213,2.33,9.379,4.386c2.129,2.02,3.963,3.758,7.8,3.758s5.668-1.738,7.8-3.758C95.846,2.33,98.3,0,103.059,0V2.3c-3.835,0-5.672,1.742-7.8,3.755-2.169,2.06-4.627,4.39-9.379,4.39" transform="translate(0.939 12.41)" fill="#7d3a1b"/>
              <path id="Path_873378" data-name="Path 873378" d="M85.879,10.445c-4.752,0-7.21-2.33-9.379-4.386C74.371,4.043,72.538,2.3,68.7,2.3s-5.668,1.738-7.794,3.755c-2.169,2.056-4.627,4.386-9.383,4.386s-7.21-2.33-9.379-4.386C40.018,4.043,38.184,2.3,34.349,2.3s-5.668,1.738-7.794,3.751c-2.166,2.06-4.627,4.39-9.379,4.39S9.963,8.115,7.794,6.059C5.668,4.043,3.835,2.3,0,2.3V0C4.752,0,7.213,2.33,9.379,4.386c2.129,2.016,3.963,3.755,7.8,3.755S22.845,6.4,24.971,4.386C27.14,2.33,29.6,0,34.349,0s7.21,2.33,9.383,4.386c2.126,2.016,3.959,3.755,7.794,3.755s5.668-1.738,7.8-3.755C61.493,2.33,63.951,0,68.7,0s7.21,2.33,9.379,4.386c2.129,2.016,3.963,3.755,7.8,3.755s5.668-1.738,7.8-3.755C95.846,2.33,98.3,0,103.059,0V2.3c-3.839,0-5.672,1.738-7.8,3.755-2.169,2.056-4.627,4.386-9.379,4.386" transform="translate(0 0.004)" fill="#7d3a1b"/>
            </g>
          </g>
        </g>
        <path id="Path_873425" data-name="Path 873425" d="M57.977,0A57.977,57.977,0,1,1,0,57.977,57.977,57.977,0,0,1,57.977,0Z" transform="translate(17.221 20.665)" fill="#efb499"/>
        <circle id="Ellipse_11503" data-name="Ellipse 11503" cx="60.5" cy="60.5" r="60.5" transform="translate(8.957 8.957)" fill="#fff"/>
      </g>
    </g>
    <g id="Group_1102716" data-name="Group 1102716" transform="translate(413 -298)">
      <g id="Group_1099389" data-name="Group 1099389" transform="translate(347.604 6422.744)">
        <rect id="Rectangle_401104" data-name="Rectangle 401104" width="78" height="79" transform="translate(0.107 0.256)" fill="none"/>
      </g>
      <path id="Path_895250" data-name="Path 895250" d="M1652.754,1546.825a3.872,3.872,0,0,0-3.677-3.861,33.419,33.419,0,0,0-2.461-9.329,12.546,12.546,0,1,0-17.713-17.772,33.4,33.4,0,0,0-9.431-2.5,3.866,3.866,0,0,0-7.723,0,33.752,33.752,0,0,0-18.638,8.4l-4.056-2.842a1.2,1.2,0,0,0-1.885.935l-.137,3.582-.758-.532a2.8,2.8,0,0,0-3.9.686h0a2.8,2.8,0,0,0,.686,3.9l.759.532-3.32,1.35a1.2,1.2,0,0,0-.237,2.091l4.065,2.848a33.443,33.443,0,0,0-2.185,8.658,3.866,3.866,0,0,0,0,7.723,33.692,33.692,0,0,0,29.606,29.6,3.866,3.866,0,0,0,7.723,0,33.691,33.691,0,0,0,29.605-29.6,3.872,3.872,0,0,0,3.677-3.862m-6.09-3.867h-8.4a22.684,22.684,0,0,0-1.793-5.77,12.5,12.5,0,0,0,8.2-1.983,31.009,31.009,0,0,1,1.992,7.753m-10.964,7.734h.143a20.542,20.542,0,0,1-16.367,16.415v-.192a3.867,3.867,0,0,0-7.734,0v.2a20.53,20.53,0,0,1-16.427-16.427h.2a3.867,3.867,0,0,0,0-7.734h-.19a20.317,20.317,0,0,1,1.806-5.33l.253-.1,6.076,4.258a13.156,13.156,0,1,0,3.2-4.6l-6.062-4.249.01-.268a20.467,20.467,0,0,1,11.13-6.078v.141a3.867,3.867,0,1,0,7.734,0v-.13a20.342,20.342,0,0,1,6.56,2.478,12.619,12.619,0,0,0,7.35,7.374,20.335,20.335,0,0,1,2.443,6.5h-.13a3.867,3.867,0,0,0,0,7.734m-19.826-7.05-7.189-5.039a10.749,10.749,0,1,1-3.829,8.221,10.673,10.673,0,0,1,.626-3.626l7.178,5.03a2.776,2.776,0,0,0,1.6.506,2.843,2.843,0,0,0,.494-.043,2.8,2.8,0,0,0,1.122-5.05m21.928-29.093a10.157,10.157,0,1,1-10.157,10.157,10.169,10.169,0,0,1,10.157-10.157m-12.488,11.445a22.669,22.669,0,0,0-5.837-1.824v-8.4a31,31,0,0,1,7.849,2.032,12.48,12.48,0,0,0-2.077,6.905,12.789,12.789,0,0,0,.065,1.287m-11.175-12.446a1.47,1.47,0,1,1,2.941,0v13.187a1.47,1.47,0,1,1-2.941,0Zm-2.4,2.223v8.389a22.82,22.82,0,0,0-11,5.1l.056-1.444a1.2,1.2,0,0,0-.51-1.027l-5.16-3.616a31.362,31.362,0,0,1,16.615-7.4m-22.263,6.367,8.9,6.236-.112,2.929-8.9-6.236Zm-5.144,2.822a.408.408,0,0,1,.562-.1l29.6,20.745a.4.4,0,0,1-.464.662l-29.6-20.745a.41.41,0,0,1-.1-.563m1.817,4.694,8.9,6.236-2.715,1.1-8.9-6.236Zm5.343,9.678a1.2,1.2,0,0,0,1.14.129l1.333-.543a22.777,22.777,0,0,0-1.075,4.042h-8.339a31.042,31.042,0,0,1,1.792-7.237Zm-10.634,7.494a1.472,1.472,0,0,1,1.47-1.47h13.187a1.47,1.47,0,0,1,0,2.941h-13.187a1.472,1.472,0,0,1-1.47-1.47m3.693,3.867h8.329a23.026,23.026,0,0,0,18.859,18.859v8.329a31.119,31.119,0,0,1-27.188-27.188m32.525,29.411a1.47,1.47,0,0,1-2.941,0v-13.187a1.47,1.47,0,0,1,2.941,0Zm2.4-2.223v-8.339a23.025,23.025,0,0,0,18.8-18.849h8.39a31.12,31.12,0,0,1-27.188,27.188m29.411-29.584H1635.7a1.47,1.47,0,0,1,0-2.941h13.187a1.47,1.47,0,1,1,0,2.941M1630.36,1527l3.116,3.116a4.088,4.088,0,0,0,2.225,1.186,3.169,3.169,0,0,0,.484.037,3.059,3.059,0,0,0,2.188-.932l6.869-6.869a3.2,3.2,0,0,0-4.528-4.528l-4.644,4.644-1.183-1.183a3.207,3.207,0,0,0-4.528,0h0a3.2,3.2,0,0,0,0,4.527m1.694-2.832a.815.815,0,0,1,1.139,0l2.029,2.029a1.2,1.2,0,0,0,1.694,0l5.492-5.492a.817.817,0,0,1,1.139,0,.811.811,0,0,1,0,1.138l-6.869,6.87a.66.66,0,0,1-.615.22,1.721,1.721,0,0,1-.894-.511l-3.116-3.116a.816.816,0,0,1,0-1.138" transform="translate(-1228.754 4915.319)" fill="#7a4f00"/>
    </g>
  </g>
</svg>
