<svg xmlns="http://www.w3.org/2000/svg" xmlns:xlink="http://www.w3.org/1999/xlink" width="190" height="189" viewBox="0 0 190 189">
  <defs>
    <clipPath id="clip-path">
      <rect id="Rectangle_402355" data-name="Rectangle 402355" width="125.519" height="125.519" transform="translate(0 0)" fill="#fff" stroke="#707070" stroke-width="1"/>
    </clipPath>
  </defs>
  <g id="Group_1102705" data-name="Group 1102705" transform="translate(-330 -6992)">
    <rect id="Rectangle_402215" data-name="Rectangle 402215" width="190" height="185" transform="translate(330 6995)" fill="none"/>
    <g id="Group_1100287" data-name="Group 1100287" transform="translate(-13 -536)">
      <g id="Grupo_156312" data-name="Grupo 156312" transform="translate(344 7528)">
        <path id="Elipse_5845" data-name="Elipse 5845" d="M94.5,0A94.5,94.5,0,1,1,0,94.5,94.5,94.5,0,0,1,94.5,0Z" transform="translate(0 0)" fill="#ffce73"/>
      </g>
      <g id="Mask_Group_1098715" data-name="Mask Group 1098715" transform="translate(375.74 7559.74)" clip-path="url(#clip-path)">
        <path id="Path_895222" data-name="Path 895222" d="M3862.581,445.781h-1.83a6.488,6.488,0,0,0-6.479,6.481v46.545a1.884,1.884,0,0,0,.257.95l5.5,9.522a1.894,1.894,0,0,0,3.284,0l5.5-9.522a1.88,1.88,0,0,0,.247-.95V452.262a6.482,6.482,0,0,0-6.48-6.481m-1.83,3.8h1.83a2.68,2.68,0,0,1,2.681,2.682v3.448h-7.192v-3.448a2.687,2.687,0,0,1,2.681-2.682m-2.681,9.929h7.192v37.4h-7.192Zm3.6,45.021-2.206-3.823h4.412Zm57.556-84.477a2.275,2.275,0,1,1-2.275-2.277,2.279,2.279,0,0,1,2.275,2.277m-6.994,49.786a1.9,1.9,0,0,1,1.9-1.9h31.528a1.9,1.9,0,0,1,0,3.8h-31.528a1.9,1.9,0,0,1-1.9-1.9m0,9.357a1.9,1.9,0,0,1,1.9-1.9h31.528a1.9,1.9,0,0,1,0,3.8h-31.528a1.9,1.9,0,0,1-1.9-1.9m-15.749-14.814a10.135,10.135,0,1,0,10.13,10.136,10.15,10.15,0,0,0-10.13-10.136m0,16.472a6.337,6.337,0,1,1,6.331-6.336,6.348,6.348,0,0,1-6.331,6.336m0,6.613a10.136,10.136,0,1,0,10.13,10.135,10.151,10.151,0,0,0-10.13-10.135m0,16.473a6.337,6.337,0,1,1,6.331-6.337,6.349,6.349,0,0,1-6.331,6.337m15.749-48.276a1.9,1.9,0,0,1,1.9-1.9h31.528a1.9,1.9,0,1,1,0,3.8h-31.528a1.9,1.9,0,0,1-1.9-1.9m0-9.358a1.9,1.9,0,0,1,1.9-1.9h31.528a1.9,1.9,0,1,1,0,3.8h-31.528a1.9,1.9,0,0,1-1.9-1.9m-25.889,4.679a10.135,10.135,0,1,0,10.14-10.135,10.151,10.151,0,0,0-10.14,10.135m16.472,0a6.336,6.336,0,1,1-6.331-6.336,6.341,6.341,0,0,1,6.331,6.336m60.1,41.286V427.7a6.973,6.973,0,0,0-6.965-6.964h-17.6v-1.161a1.9,1.9,0,0,0-1.9-1.9h-9.744a10.518,10.518,0,0,0-19.509,0h-9.744a1.9,1.9,0,0,0-1.9,1.9v1.161h-17.6a6.973,6.973,0,0,0-6.965,6.964v93.18a6.973,6.973,0,0,0,6.965,6.964h67.884a19.893,19.893,0,0,0,17.075-35.576m-6.965-67.733a3.172,3.172,0,0,1,3.166,3.165v62.638a19.981,19.981,0,0,0-3.255-.919V429.685a1.9,1.9,0,0,0-1.9-1.9h-15.611v-3.247Zm-56.6-3.061h9.23a1.9,1.9,0,0,0,1.85-1.454,6.708,6.708,0,0,1,13.039,0,1.9,1.9,0,0,0,1.85,1.454h9.23v9.369h-35.2Zm37.1,13.168a1.9,1.9,0,0,0,1.9-1.9v-1.161h13.711V489.06a19.754,19.754,0,0,0-8.587,1.964h-29.341a1.9,1.9,0,1,0,0,3.8h23.97a20.021,20.021,0,0,0-3.967,5.56h-20a1.9,1.9,0,1,0,0,3.8h18.637a20.042,20.042,0,0,0-.584,4.778A19.7,19.7,0,0,0,3933.9,517h-52.055V431.585h13.711v1.161a1.9,1.9,0,0,0,1.9,1.9Zm-58.5,89.4a3.172,3.172,0,0,1-3.166-3.165V427.7a3.172,3.172,0,0,1,3.166-3.165h17.6v3.247h-15.611a1.9,1.9,0,0,0-1.9,1.9V518.9a1.9,1.9,0,0,0,1.9,1.9H3936.1a20.175,20.175,0,0,0,3.037,3.246Zm74.136,1.011a16.1,16.1,0,1,1,16.1-16.1,16.119,16.119,0,0,1-16.1,16.1m11.792-25.131a5.075,5.075,0,0,0-7.172,0l-7.37,7.362-1.869-1.874a5.077,5.077,0,0,0-7.182,7.177l4.946,4.938a6.115,6.115,0,0,0,4.283,1.927A4.855,4.855,0,0,0,3952.99,518l10.892-10.889a5.081,5.081,0,0,0,0-7.177m-2.681,4.491L3950.31,515.31c-.89.894-2.058-.128-2.394-.462l-4.937-4.939a1.275,1.275,0,0,1,1.8-1.8l3.225,3.218a1.893,1.893,0,0,0,2.681,0l8.706-8.706a1.3,1.3,0,0,1,1.81,0,1.3,1.3,0,0,1,0,1.805" transform="translate(-3850.515 -407.218)" fill="#7d3a1b"/>
      </g>
    </g>
  </g>
</svg>
