<svg xmlns="http://www.w3.org/2000/svg" xmlns:xlink="http://www.w3.org/1999/xlink" width="139" height="139" viewBox="0 0 139 139">
  <defs>
    <clipPath id="clip-path">
      <rect id="Rectangle_400938" data-name="Rectangle 400938" width="139" height="139" transform="translate(-0.043 -0.043)" fill="none"/>
    </clipPath>
    <clipPath id="clip-path-2">
      <rect id="Rectangle_401073" data-name="Rectangle 401073" width="105.872" height="47.68" fill="#7d3a1b"/>
    </clipPath>
  </defs>
  <g id="Group_1104188" data-name="Group 1104188" transform="translate(-1150 -6096)">
    <g id="Group_1102717" data-name="Group 1102717" transform="translate(885.043 812.043)">
      <g id="Group_1099379" data-name="Group 1099379" transform="translate(265 5284)">
        <rect id="Rectangle_401103" data-name="Rectangle 401103" width="139" height="139" transform="translate(-0.043 -0.043)" fill="none"/>
        <g id="Group_1099348" data-name="Group 1099348" transform="translate(0)">
          <g id="Group_1099282" data-name="Group 1099282">
            <g id="Group_1099281" data-name="Group 1099281" clip-path="url(#clip-path-2)">
              <path id="Path_873375" data-name="Path 873375" d="M85.879,10.449c-4.752,0-7.21-2.33-9.379-4.386C74.371,4.047,72.538,2.3,68.7,2.3s-5.668,1.742-7.8,3.758c-2.17,2.056-4.624,4.386-9.379,4.386s-7.21-2.33-9.379-4.386C40.018,4.047,38.184,2.3,34.349,2.3s-5.668,1.742-7.794,3.758c-2.17,2.056-4.627,4.386-9.379,4.386S9.963,8.119,7.794,6.063C5.668,4.047,3.835,2.3,0,2.3V0C4.752,0,7.21,2.334,9.379,4.386c2.129,2.02,3.963,3.758,7.8,3.758s5.668-1.738,7.794-3.755C27.136,2.334,29.6,0,34.349,0s7.213,2.334,9.379,4.386c2.129,2.02,3.963,3.758,7.8,3.758s5.668-1.738,7.8-3.758C61.489,2.334,63.951,0,68.7,0s7.213,2.334,9.379,4.386c2.129,2.02,3.963,3.758,7.8,3.758s5.668-1.738,7.8-3.758C95.843,2.334,98.3,0,103.056,0V2.3c-3.835,0-5.668,1.742-7.8,3.758-2.169,2.056-4.627,4.386-9.379,4.386" transform="translate(2.816 37.231)" fill="#7d3a1b"/>
              <path id="Path_873376" data-name="Path 873376" d="M85.879,10.449c-4.752,0-7.213-2.33-9.379-4.39C74.371,4.043,72.538,2.3,68.7,2.3s-5.668,1.738-7.8,3.755c-2.166,2.06-4.624,4.39-9.379,4.39s-7.213-2.33-9.379-4.39C40.018,4.043,38.184,2.3,34.349,2.3s-5.668,1.742-7.794,3.755c-2.17,2.06-4.627,4.39-9.379,4.39s-7.213-2.33-9.383-4.39C5.668,4.043,3.835,2.3,0,2.3V0C4.752,0,7.213,2.33,9.379,4.386c2.129,2.02,3.963,3.758,7.8,3.758s5.668-1.738,7.794-3.758C27.136,2.33,29.6,0,34.349,0s7.213,2.33,9.383,4.386c2.126,2.02,3.959,3.758,7.794,3.758s5.668-1.738,7.8-3.758C61.489,2.33,63.951,0,68.7,0s7.213,2.33,9.379,4.386c2.129,2.02,3.963,3.758,7.8,3.758s5.668-1.738,7.8-3.758C95.846,2.33,98.3,0,103.059,0V2.3c-3.835,0-5.672,1.742-7.8,3.755-2.169,2.06-4.628,4.39-9.379,4.39" transform="translate(1.877 24.821)" fill="#7d3a1b"/>
              <path id="Path_873377" data-name="Path 873377" d="M85.879,10.449c-4.752,0-7.213-2.33-9.379-4.39C74.371,4.043,72.538,2.3,68.7,2.3s-5.668,1.738-7.8,3.755c-2.166,2.06-4.627,4.39-9.379,4.39s-7.213-2.33-9.379-4.39C40.018,4.043,38.184,2.3,34.349,2.3s-5.668,1.742-7.794,3.755c-2.169,2.06-4.627,4.39-9.379,4.39s-7.213-2.33-9.383-4.39C5.668,4.043,3.835,2.3,0,2.3V0C4.752,0,7.213,2.33,9.379,4.386c2.126,2.02,3.963,3.758,7.8,3.758s5.668-1.738,7.794-3.758C27.136,2.33,29.6,0,34.349,0s7.213,2.33,9.383,4.386c2.126,2.02,3.959,3.758,7.794,3.758s5.668-1.738,7.8-3.758C61.489,2.33,63.951,0,68.7,0s7.213,2.33,9.379,4.386c2.129,2.02,3.963,3.758,7.8,3.758s5.668-1.738,7.8-3.758C95.846,2.33,98.3,0,103.059,0V2.3c-3.835,0-5.672,1.742-7.8,3.755-2.169,2.06-4.627,4.39-9.379,4.39" transform="translate(0.939 12.41)" fill="#7d3a1b"/>
              <path id="Path_873378" data-name="Path 873378" d="M85.879,10.445c-4.752,0-7.21-2.33-9.379-4.386C74.371,4.043,72.538,2.3,68.7,2.3s-5.668,1.738-7.794,3.755c-2.169,2.056-4.627,4.386-9.383,4.386s-7.21-2.33-9.379-4.386C40.018,4.043,38.184,2.3,34.349,2.3s-5.668,1.738-7.794,3.751c-2.166,2.06-4.627,4.39-9.379,4.39S9.963,8.115,7.794,6.059C5.668,4.043,3.835,2.3,0,2.3V0C4.752,0,7.213,2.33,9.379,4.386c2.129,2.016,3.963,3.755,7.8,3.755S22.845,6.4,24.971,4.386C27.14,2.33,29.6,0,34.349,0s7.21,2.33,9.383,4.386c2.126,2.016,3.959,3.755,7.794,3.755s5.668-1.738,7.8-3.755C61.493,2.33,63.951,0,68.7,0s7.21,2.33,9.379,4.386c2.129,2.016,3.963,3.755,7.8,3.755s5.668-1.738,7.8-3.755C95.846,2.33,98.3,0,103.059,0V2.3c-3.839,0-5.672,1.738-7.8,3.755-2.169,2.056-4.627,4.386-9.379,4.386" transform="translate(0 0.004)" fill="#7d3a1b"/>
            </g>
          </g>
        </g>
        <path id="Path_873425" data-name="Path 873425" d="M57.977,0A57.977,57.977,0,1,1,0,57.977,57.977,57.977,0,0,1,57.977,0Z" transform="translate(17.221 20.665)" fill="#ffb937"/>
        <circle id="Ellipse_11503" data-name="Ellipse 11503" cx="60.5" cy="60.5" r="60.5" transform="translate(8.957 8.957)" fill="#fff"/>
      </g>
    </g>
    <g id="Group_1102718" data-name="Group 1102718" transform="translate(832 -298)">
      <g id="Group_1099389" data-name="Group 1099389" transform="translate(347.604 6422.744)">
        <rect id="Rectangle_401104" data-name="Rectangle 401104" width="78" height="79" transform="translate(0.107 0.256)" fill="none"/>
      </g>
      <path id="Path_895251" data-name="Path 895251" d="M3863.926,1535.266h-1.394a4.705,4.705,0,0,0-4.7,4.7v35.391a1.208,1.208,0,0,0,.165.608l4.18,7.24a1.213,1.213,0,0,0,2.1,0l4.181-7.24a1.213,1.213,0,0,0,.165-.608v-35.391a4.7,4.7,0,0,0-4.7-4.7m-1.394,2.432h1.394a2.271,2.271,0,0,1,2.267,2.267v2.851h-5.928v-2.851a2.267,2.267,0,0,1,2.268-2.267m-2.268,7.55h5.928v28.892h-5.928Zm2.964,34.916-2.078-3.592h4.148Zm65.09-70.483h-53.354a2.689,2.689,0,0,0-2.686,2.688v70.021a2.689,2.689,0,0,0,2.686,2.687h45.095a2.644,2.644,0,0,0,1.9-.787l8.259-8.259a2.641,2.641,0,0,0,.786-1.9v-61.762a2.689,2.689,0,0,0-2.686-2.687m-53.608,72.708v-70.021a.257.257,0,0,1,.254-.255h53.354a.26.26,0,0,1,.253.255v61.155H3921.4a1.952,1.952,0,0,0-1.951,1.951v7.169h-44.487a.256.256,0,0,1-.254-.255m47.173-1.465v-4.969h4.965Zm-20.647-42.234a1.2,1.2,0,0,0,.3-.943,11.282,11.282,0,0,0-7.03-9.292,6.327,6.327,0,1,0-8.449,0,11.283,11.283,0,0,0-7.03,9.292,1.214,1.214,0,0,0,1.209,1.345h20.09a1.209,1.209,0,0,0,.906-.4m-14.846-14.94a3.9,3.9,0,1,1,3.9,3.893,3.9,3.9,0,0,1-3.9-3.893m-4.694,12.911a8.893,8.893,0,0,1,17.177,0Zm31.738,2.418a10.82,10.82,0,1,0-10.818-10.82,10.835,10.835,0,0,0,10.818,10.82m0-19.208a8.388,8.388,0,1,1-8.386,8.388,8.4,8.4,0,0,1,8.386-8.388m-1.8,14.166a2.88,2.88,0,0,0,.443.034,2.777,2.777,0,0,0,1.989-.847l5.814-5.81a2.908,2.908,0,0,0-2.059-4.966,2.883,2.883,0,0,0-2.058.851l-3.788,3.784-.855-.856a2.911,2.911,0,0,0-4.117,4.116l2.635,2.635a3.682,3.682,0,0,0,2,1.06m-2.907-6.091a.477.477,0,0,1,.671,0l1.716,1.716a1.219,1.219,0,0,0,1.723,0l4.643-4.644a.479.479,0,0,1,.678.676l-5.808,5.81a.362.362,0,0,1-.349.129,1.263,1.263,0,0,1-.64-.375l-2.635-2.635a.484.484,0,0,1,0-.676m-27,16.248a1.216,1.216,0,0,1,1.216-1.216h36.842a1.216,1.216,0,1,1,0,2.432h-36.842a1.216,1.216,0,0,1-1.216-1.216m0,4.56a1.216,1.216,0,0,1,1.216-1.216h26.043a1.216,1.216,0,1,1,0,2.432h-26.043a1.216,1.216,0,0,1-1.216-1.216m0,4.561a1.216,1.216,0,0,1,1.216-1.216h26.043a1.216,1.216,0,1,1,0,2.432h-26.043a1.216,1.216,0,0,1-1.216-1.216m0,4.56a1.216,1.216,0,0,1,1.216-1.216h26.043a1.216,1.216,0,1,1,0,2.432h-26.043a1.216,1.216,0,0,1-1.216-1.216m0,4.56a1.216,1.216,0,0,1,1.216-1.216H3902.1a1.216,1.216,0,0,1,0,2.432h-19.159a1.216,1.216,0,0,1-1.216-1.216m0,4.56a1.216,1.216,0,0,1,1.216-1.216h26.05a1.216,1.216,0,1,1,0,2.432h-26.05a1.216,1.216,0,0,1-1.216-1.216m39.838,4.561a1.216,1.216,0,0,1-1.216,1.216h-37.406a1.216,1.216,0,0,1,0-2.432h37.406a1.216,1.216,0,0,1,1.216,1.216m-6.606,4.56a1.212,1.212,0,0,1-1.216,1.216h-30.8a1.216,1.216,0,0,1,0-2.432h30.8a1.212,1.212,0,0,1,1.216,1.216" transform="translate(-3507.122 4915.319)" fill="#7a4f00"/>
    </g>
  </g>
</svg>
