<svg xmlns="http://www.w3.org/2000/svg" xmlns:xlink="http://www.w3.org/1999/xlink" width="139" height="139" viewBox="0 0 139 139">
  <defs>
    <clipPath id="clip-path">
      <rect id="Rectangle_400938" data-name="Rectangle 400938" width="139" height="139" transform="translate(-0.043 -0.043)" fill="none"/>
    </clipPath>
    <clipPath id="clip-path-2">
      <rect id="Rectangle_401073" data-name="Rectangle 401073" width="105.872" height="47.68" fill="#7d3a1b"/>
    </clipPath>
  </defs>
  <g id="Group_1104186" data-name="Group 1104186" transform="translate(-318 -6096)">
    <g id="Group_1102713" data-name="Group 1102713" transform="translate(53.043 812.043)">
      <g id="Group_1099379" data-name="Group 1099379" transform="translate(265 5284)">
        <rect id="Rectangle_401103" data-name="Rectangle 401103" width="139" height="139" transform="translate(-0.043 -0.043)" fill="none"/>
        <g id="Group_1099348" data-name="Group 1099348" transform="translate(0)">
          <g id="Group_1099282" data-name="Group 1099282">
            <g id="Group_1099281" data-name="Group 1099281" clip-path="url(#clip-path-2)">
              <path id="Path_873375" data-name="Path 873375" d="M85.879,10.449c-4.752,0-7.21-2.33-9.379-4.386C74.371,4.047,72.538,2.3,68.7,2.3s-5.668,1.742-7.8,3.758c-2.17,2.056-4.624,4.386-9.379,4.386s-7.21-2.33-9.379-4.386C40.018,4.047,38.184,2.3,34.349,2.3s-5.668,1.742-7.794,3.758c-2.17,2.056-4.627,4.386-9.379,4.386S9.963,8.119,7.794,6.063C5.668,4.047,3.835,2.3,0,2.3V0C4.752,0,7.21,2.334,9.379,4.386c2.129,2.02,3.963,3.758,7.8,3.758s5.668-1.738,7.794-3.755C27.136,2.334,29.6,0,34.349,0s7.213,2.334,9.379,4.386c2.129,2.02,3.963,3.758,7.8,3.758s5.668-1.738,7.8-3.758C61.489,2.334,63.951,0,68.7,0s7.213,2.334,9.379,4.386c2.129,2.02,3.963,3.758,7.8,3.758s5.668-1.738,7.8-3.758C95.843,2.334,98.3,0,103.056,0V2.3c-3.835,0-5.668,1.742-7.8,3.758-2.169,2.056-4.627,4.386-9.379,4.386" transform="translate(2.816 37.231)" fill="#7d3a1b"/>
              <path id="Path_873376" data-name="Path 873376" d="M85.879,10.449c-4.752,0-7.213-2.33-9.379-4.39C74.371,4.043,72.538,2.3,68.7,2.3s-5.668,1.738-7.8,3.755c-2.166,2.06-4.624,4.39-9.379,4.39s-7.213-2.33-9.379-4.39C40.018,4.043,38.184,2.3,34.349,2.3s-5.668,1.742-7.794,3.755c-2.17,2.06-4.627,4.39-9.379,4.39s-7.213-2.33-9.383-4.39C5.668,4.043,3.835,2.3,0,2.3V0C4.752,0,7.213,2.33,9.379,4.386c2.129,2.02,3.963,3.758,7.8,3.758s5.668-1.738,7.794-3.758C27.136,2.33,29.6,0,34.349,0s7.213,2.33,9.383,4.386c2.126,2.02,3.959,3.758,7.794,3.758s5.668-1.738,7.8-3.758C61.489,2.33,63.951,0,68.7,0s7.213,2.33,9.379,4.386c2.129,2.02,3.963,3.758,7.8,3.758s5.668-1.738,7.8-3.758C95.846,2.33,98.3,0,103.059,0V2.3c-3.835,0-5.672,1.742-7.8,3.755-2.169,2.06-4.628,4.39-9.379,4.39" transform="translate(1.877 24.821)" fill="#7d3a1b"/>
              <path id="Path_873377" data-name="Path 873377" d="M85.879,10.449c-4.752,0-7.213-2.33-9.379-4.39C74.371,4.043,72.538,2.3,68.7,2.3s-5.668,1.738-7.8,3.755c-2.166,2.06-4.627,4.39-9.379,4.39s-7.213-2.33-9.379-4.39C40.018,4.043,38.184,2.3,34.349,2.3s-5.668,1.742-7.794,3.755c-2.169,2.06-4.627,4.39-9.379,4.39s-7.213-2.33-9.383-4.39C5.668,4.043,3.835,2.3,0,2.3V0C4.752,0,7.213,2.33,9.379,4.386c2.126,2.02,3.963,3.758,7.8,3.758s5.668-1.738,7.794-3.758C27.136,2.33,29.6,0,34.349,0s7.213,2.33,9.383,4.386c2.126,2.02,3.959,3.758,7.794,3.758s5.668-1.738,7.8-3.758C61.489,2.33,63.951,0,68.7,0s7.213,2.33,9.379,4.386c2.129,2.02,3.963,3.758,7.8,3.758s5.668-1.738,7.8-3.758C95.846,2.33,98.3,0,103.059,0V2.3c-3.835,0-5.672,1.742-7.8,3.755-2.169,2.06-4.627,4.39-9.379,4.39" transform="translate(0.939 12.41)" fill="#7d3a1b"/>
              <path id="Path_873378" data-name="Path 873378" d="M85.879,10.445c-4.752,0-7.21-2.33-9.379-4.386C74.371,4.043,72.538,2.3,68.7,2.3s-5.668,1.738-7.794,3.755c-2.169,2.056-4.627,4.386-9.383,4.386s-7.21-2.33-9.379-4.386C40.018,4.043,38.184,2.3,34.349,2.3s-5.668,1.738-7.794,3.751c-2.166,2.06-4.627,4.39-9.379,4.39S9.963,8.115,7.794,6.059C5.668,4.043,3.835,2.3,0,2.3V0C4.752,0,7.213,2.33,9.379,4.386c2.129,2.016,3.963,3.755,7.8,3.755S22.845,6.4,24.971,4.386C27.14,2.33,29.6,0,34.349,0s7.21,2.33,9.383,4.386c2.126,2.016,3.959,3.755,7.794,3.755s5.668-1.738,7.8-3.755C61.493,2.33,63.951,0,68.7,0s7.21,2.33,9.379,4.386c2.129,2.016,3.963,3.755,7.8,3.755s5.668-1.738,7.8-3.755C95.846,2.33,98.3,0,103.059,0V2.3c-3.839,0-5.672,1.738-7.8,3.755-2.169,2.056-4.627,4.386-9.379,4.386" transform="translate(0 0.004)" fill="#7d3a1b"/>
            </g>
          </g>
        </g>
        <path id="Path_873425" data-name="Path 873425" d="M57.977,0A57.977,57.977,0,1,1,0,57.977,57.977,57.977,0,0,1,57.977,0Z" transform="translate(17.221 20.665)" fill="#ffe2b7"/>
        <circle id="Ellipse_11503" data-name="Ellipse 11503" cx="60.5" cy="60.5" r="60.5" transform="translate(8.957 8.957)" fill="#fff"/>
      </g>
    </g>
    <g id="Group_1102714" data-name="Group 1102714" transform="translate(0 -298)">
      <g id="Group_1099389" data-name="Group 1099389" transform="translate(347.604 6422.744)">
        <rect id="Rectangle_401104" data-name="Rectangle 401104" width="78" height="79" transform="translate(0.107 0.256)" fill="none"/>
      </g>
      <g id="Group_1104004" data-name="Group 1104004" transform="translate(-4566.401 5231.124)">
        <path id="Path_895242" data-name="Path 895242" d="M5064.489,1249.226h-1.459c-4.287,0-8.574.024-12.861-.019-.9-.009-1.157.271-1.15,1.154.036,4.926.019,9.853.015,14.779a2.436,2.436,0,0,1-.076,1.108c-.193.34-.615.749-.947.758s-.757-.377-1.013-.693c-.154-.191-.08-.579-.08-.878,0-5.152-.046-10.305.042-15.456a7.393,7.393,0,0,1,.964-2.384,3.02,3.02,0,0,0,.38-.972c.037-1.767.03-3.535,0-5.3a2.225,2.225,0,0,0-.251-1.074c-1.641-2.731-3.314-5.442-4.977-8.16l-.3.03v1.242q0,15.739,0,31.477a2.886,2.886,0,0,1-.06,1.223c-.207.4-.664.938-1,.932s-.773-.543-1.02-.938c-.153-.246-.045-.66-.045-1q0-13.595,0-27.19v-1.44c-.379-.031-.7-.08-1.021-.08-4.4,0-8.8.024-13.2-.025-.971-.011-1.2.318-1.175,1.226.057,2.368.037,4.738,0,7.107a2.109,2.109,0,0,1-.394,1.228,1.038,1.038,0,0,1-.987.219,1.465,1.465,0,0,1-.718-.992q-.075-4.342.016-8.685a1.96,1.96,0,0,1,.63-1.382c.765-.559.712-1.264.807-2.055a13.015,13.015,0,0,0-2.729-9.669c-1.514-2.047-2.719-4.323-4.06-6.5-1.184-1.922-1.232-3.4-.158-4.668,1.036-1.222,2.47-1.422,4.665-.579.023-.421.062-.808.063-1.194q.009-4.062,0-8.123c0-3.448,1.11-4.563,4.554-4.5.489-1.72,1.524-2.92,3.467-2.877,1.842.041,2.8,1.228,3.289,2.864,2.927,0,3.706.5,4.6,2.938a10.565,10.565,0,0,1,1.953.021,3.081,3.081,0,0,1,2.439,2.631,11.6,11.6,0,0,1,.082,1.574q.009,8.8,0,17.6v1.285l3.456.57v-5.955q0-1.749,0-3.5c0-3.238,1.258-4.428,4.507-4.22.476-1.758,1.526-2.909,3.472-2.912,1.558,0,2.6.949,3.3,2.882,2.877-.033,3.67.459,4.566,2.889l.846-.059a3.27,3.27,0,0,1,3.632,3.177c.071,3.609.026,7.22.023,10.83,0,.7-.34,1.19-1.068,1.18s-1.019-.508-1.018-1.216q.009-4.795,0-9.59a6.873,6.873,0,0,0-.025-1.014c-.113-.753-.488-1.286-1.334-1.218-.781.063-1.087.586-1.089,1.318-.005,2.144,0,4.287-.005,6.431,0,.3.1.677-.044.885-.266.39-.67.937-1.026.944-.34.007-.767-.543-1.013-.936-.154-.248-.055-.659-.055-1q0-4.062,0-8.123c0-1.717-.333-2.394-1.189-2.421-.889-.028-1.237.634-1.237,2.355q0,4.175,0,8.349a2.081,2.081,0,0,1-.089.994c-.208.343-.62.814-.912.792a1.783,1.783,0,0,1-1.053-.784c-.166-.231-.083-.653-.083-.99q-.006-5.641,0-11.282c0-.3,0-.6-.007-.9-.023-.786-.373-1.326-1.208-1.327s-1.21.561-1.222,1.327c-.029,1.842-.015,3.685-.016,5.528,0,2.369-.009,4.739,0,7.108,0,.721-.177,1.337-.989,1.361-.868.026-1.112-.594-1.111-1.37.007-3.121-.008-6.243.008-9.364,0-.912-.148-1.783-1.238-1.764-1.071.019-1.225.9-1.223,1.8.012,4.174,0,8.349.007,12.523a3.236,3.236,0,0,0,2.031,2.948c.763.314,1.538.6,2.285.952a5.531,5.531,0,0,1,3.012,3.468c.227.7,0,1.312-.666,1.405a1.528,1.528,0,0,1-1.28-.7,4.011,4.011,0,0,0-2.776-2.583,7,7,0,0,1-4.646-3.934,15.84,15.84,0,0,0-1.179-1.919c-.417-.628-.964-.991-1.707-.525a1.173,1.173,0,0,0-.365,1.759c.221.392.472.768.708,1.152,1.693,2.754,3.41,5.492,5.065,8.269.721,1.208,1.313,2.493,2.05,3.908h13.624v-1.537c0-2.143,0-4.287,0-6.43,0-.779-.157-1.754,1.014-1.76,1.128-.006,1.078.917,1.077,1.729q0,11.113,0,22.226v9.59c0,.263.008.527,0,.79-.034.7-.4,1.259-1.1,1.1a1.541,1.541,0,0,1-.942-1.105c-.1-1.988-.047-3.984-.048-5.977q0-4.682,0-9.364Zm-37.563-20.825h13.642a2.943,2.943,0,0,0,.069-.409q.007-11.9.008-23.8c0-.811-.286-1.447-1.191-1.462s-1.234.606-1.251,1.416c-.021.977-.006,1.955-.007,2.932,0,1.391.069,2.789-.052,4.169-.036.4-.624.754-.958,1.129a8,8,0,0,1-1.053-1.092c-.14-.208-.031-.585-.031-.886q0-4.512,0-9.024c0-.854-.321-1.529-1.282-1.5-.893.029-1.171.679-1.163,1.493.008.752,0,1.5,0,2.256,0,2.406-.012,4.813.006,7.219.006.793-.123,1.511-1.075,1.513-.888,0-1.051-.684-1.037-1.434s0-1.5,0-2.256q0-5.019,0-10.039c0-.882-.281-1.652-1.294-1.616-.943.034-1.147.768-1.143,1.62.019,3.8.008,7.595.007,11.392a3,3,0,0,1-.037,1.225,5.443,5.443,0,0,1-1.018,1.129,6.757,6.757,0,0,1-1.048-1.092c-.154-.247-.044-.66-.044-1,0-3.008,0-6.016-.01-9.024,0-.823-.34-1.432-1.249-1.389-.828.038-1.145.613-1.127,1.4,0,.15,0,.3,0,.451q0,6.2,0,12.407a3.092,3.092,0,0,0,2.039,3.044c.729.3,1.476.562,2.188.9a5.365,5.365,0,0,1,3.014,3.453c.191.646.1,1.242-.618,1.476s-1.154-.155-1.37-.813a3.76,3.76,0,0,0-2.471-2.435c-.458-.166-.894-.4-1.358-.543a4.8,4.8,0,0,1-2.856-2.393,22.036,22.036,0,0,0-2-3.13,1.709,1.709,0,0,0-1.533-.35c-.679.237-.812.928-.453,1.609.14.265.309.516.466.771,2.012,3.26,4.049,6.5,6.019,9.789A25.11,25.11,0,0,1,5026.926,1228.4Zm13.621,5.719v-3.445h-13.821v3.445Zm10.011,12.861h13.869v-3.357h-13.869Z" transform="translate(-77.262)" fill="#7a4f00"/>
        <path id="Path_895243" data-name="Path 895243" d="M4927.278,1323.49H4940.9v-1.274q0-11.113,0-22.226c0-.226,0-.452,0-.677-.03-.838-.291-1.534-1.278-1.5-.923.029-1.147.7-1.147,1.5,0,2.181,0,4.362,0,6.544,0,.753-.06,1.553-1.019,1.583-1.03.032-1.13-.779-1.128-1.588q.006-4.062,0-8.123c0-.3,0-.6,0-.9-.011-1.284-.431-1.958-1.246-1.876-1.194.12-1.2,1.036-1.2,1.936q0,4.287,0,8.574c0,.3.1.67-.033.888a8.059,8.059,0,0,1-1,1.117,8.223,8.223,0,0,1-1.035-1.119c-.138-.213-.029-.586-.029-.887q0-5.81,0-11.621c0-1.177-.467-1.839-1.269-1.745-1.012.119-1.187.857-1.185,1.733.014,4.024,0,8.048.011,12.072,0,.773-.062,1.534-1.032,1.545s-1.076-.731-1.073-1.514c.011-2.933,0-5.867,0-8.8,0-.3.015-.6-.01-.9-.066-.776-.446-1.309-1.274-1.271a1.16,1.16,0,0,0-1.147,1.283c-.025,1.052-.018,2.106-.01,3.159.006.751-.3,1.277-1.088,1.281-.749,0-1.022-.527-1.027-1.216q-.009-1.185-.006-2.369c0-3.256,1.261-4.446,4.514-4.223.47-1.759,1.524-2.947,3.459-2.906a3.361,3.361,0,0,1,3.276,2.855c2.939.016,3.782.547,4.592,2.919.232-.015.485-.022.735-.048a3.266,3.266,0,0,1,3.689,2.709,7.673,7.673,0,0,1,.095,1.458q.007,19.406,0,38.811c0,.188,0,.376,0,.564.013.748-.174,1.42-1.049,1.441-.9.021-1.078-.657-1.078-1.4l0-6.657v-1.1h-15.419v3.241c0,1.542-.005,3.084,0,4.626,0,.743-.287,1.3-1.079,1.29s-1.045-.586-1.042-1.32c.009-2.52-.036-5.041.037-7.558a2.517,2.517,0,0,1,.681-1.7,2.393,2.393,0,0,0,.722-1.865,13.258,13.258,0,0,0-2.849-10.077c-1.444-1.909-2.558-4.069-3.816-6.119-1.286-2.094-1.355-3.438-.252-4.752,1.08-1.286,2.383-1.472,4.793-.59a7.909,7.909,0,0,1,.042-2.012,1.68,1.68,0,0,1,.986-1.084c.669-.123,1.076.4,1.078,1.127q.005,2.087,0,4.174a3.2,3.2,0,0,0,2.3,3.432c.625.255,1.254.506,1.87.783a5.179,5.179,0,0,1,3.111,3.622,1.531,1.531,0,0,1-.64,1.291,1.369,1.369,0,0,1-1.223-.545,4.5,4.5,0,0,0-3.328-2.921,6.029,6.029,0,0,1-3.843-3.223c-.4-.8-.931-1.542-1.406-2.308-.42-.676-.98-1.123-1.769-.654-.819.486-.764,1.191-.3,1.94,1.981,3.193,3.976,6.378,5.913,9.6C4926.126,1320.983,4926.612,1322.152,4927.278,1323.49Zm13.553,2.213c-4.489,0-8.9-.008-13.32.026-.2,0-.557.377-.573.6-.065.925-.027,1.856-.027,2.816h13.92Z" transform="translate(0 -73.625)" fill="#7a4f00"/>
        <path id="Path_895244" data-name="Path 895244" d="M5044.445,1443.962c0-2.441,0-4.881,0-7.321,0-.805.078-1.633,1.1-1.6,1,.028,1.064.864,1.063,1.66q-.007,7.322,0,14.643c0,.15.058.347-.014.443-.328.431-.64,1.1-1.056,1.185-.762.147-1.084-.5-1.085-1.233Q5044.442,1447.848,5044.445,1443.962Z" transform="translate(-98.595 -185.963)" fill="#7a4f00"/>
        <path id="Path_895245" data-name="Path 895245" d="M5208.832,1462.957c.273.442.79.906.752,1.319s-.711,1.084-.991,1.032a1.649,1.649,0,0,1-1.113-1.064c-.064-.375.506-.858.8-1.293Z" transform="translate(-224.838 -207.58)" fill="#7a4f00"/>
        <path id="Path_895246" data-name="Path 895246" d="M5208.8,1442.793c.286.431.851.911.785,1.28a1.633,1.633,0,0,1-1.1,1.068c-.293.049-.965-.63-1-1.029s.483-.872.76-1.311Z" transform="translate(-224.837 -191.971)" fill="#7a4f00"/>
        <path id="Path_895247" data-name="Path 895247" d="M5003.169,1483.983c-.294-.431-.865-.9-.808-1.282a1.6,1.6,0,0,1,1.1-1.049c.3-.047.974.618,1.007,1,.035.415-.485.877-.763,1.318Z" transform="translate(-66.009 -222.059)" fill="#7a4f00"/>
        <path id="Path_895248" data-name="Path 895248" d="M5104.261,1411.138c-.438.3-.851.783-1.321.847a.906.906,0,0,1-1.045-1.117,1.545,1.545,0,0,1,1.034-1.013c.426-.025.884.492,1.328.774Z" transform="translate(-143.063 -166.465)" fill="#7a4f00"/>
        <path id="Path_895249" data-name="Path 895249" d="M5102.918,1391.906c-.3-.423-.879-.884-.828-1.26a1.622,1.622,0,0,1,1.068-1.089c.287-.058.979.6,1.026.988.049.411-.453.888-.714,1.337Z" transform="translate(-143.233 -150.746)" fill="#7a4f00"/>
      </g>
    </g>
  </g>
</svg>
