<svg xmlns="http://www.w3.org/2000/svg" xmlns:xlink="http://www.w3.org/1999/xlink" width="190" height="189" viewBox="0 0 190 189">
  <defs>
    <clipPath id="clip-path">
      <rect id="Rectangle_402355" data-name="Rectangle 402355" width="125.519" height="125.519" transform="translate(0 0)" fill="#fff" stroke="#707070" stroke-width="1"/>
    </clipPath>
  </defs>
  <g id="Group_1102652" data-name="Group 1102652" transform="translate(-330 -6992)">
    <rect id="Rectangle_402215" data-name="Rectangle 402215" width="190" height="185" transform="translate(330 6995)" fill="none"/>
    <g id="Group_1100287" data-name="Group 1100287" transform="translate(-13 -536)">
      <g id="Grupo_156312" data-name="Grupo 156312" transform="translate(344 7528)">
        <path id="Elipse_5845" data-name="Elipse 5845" d="M94.5,0A94.5,94.5,0,1,1,0,94.5,94.5,94.5,0,0,1,94.5,0Z" transform="translate(0 0)" fill="#ffce73"/>
      </g>
      <g id="Mask_Group_1098715" data-name="Mask Group 1098715" transform="translate(375.74 7559.74)" clip-path="url(#clip-path)">
        <g id="Group_1104003" data-name="Group 1104003" transform="translate(-5419.785 -629.559)">
          <path id="Path_895230" data-name="Path 895230" d="M5501.315,785.52c-3.882,1.027-5.418,2.945-5.427,6.582-.009,3.511.042,7.022-.02,10.531a6.061,6.061,0,0,0,1.969,4.69c1.391,1.347,2.735,2.742,4.114,4.1.832.821,1.237,1.755.354,2.7s-1.84.648-2.685-.2c-1.618-1.633-3.371-3.155-4.828-4.921a31.142,31.142,0,0,1-2.578-4.373c-20.5,0-41.245,0-61.992,0-4.685,0-6.6-1.916-6.6-6.588q0-10.077,0-20.155c.007-3.83,2.13-5.995,5.923-6,8.05-.02,16.1-.007,24.149-.006.3,0,.7-.115.891.033.636.5,1.2,1.092,1.789,1.649-.582.561-1.113,1.526-1.755,1.607a44.579,44.579,0,0,1-5.481.077v25.879c.66.033,1.246.087,1.834.088q19.156.007,38.313,0c2.668,0,3.071-.395,3.074-3.026q.012-9.9,0-19.792c0-2.658-.473-3.119-3.2-3.121-8.353-.007-16.706.007-25.058-.013-1.284,0-3.018.317-3.036-1.637-.021-2.084,1.771-1.736,3.119-1.738q12.71-.022,25.421,0c4.141,0,6.264,2.129,6.279,6.248.008,1.918,0,3.836,0,5.989,1.714-.872,3.22-1.6,4.685-2.412a1.369,1.369,0,0,0,.669-.933c.045-4.22.029-8.441.029-12.881h-2.3q-21.154,0-42.308,0c-4.409,0-6.289-1.865-6.3-6.284q-.023-10.077,0-20.155c.015-4.309,2.041-6.292,6.37-6.293q18.157,0,36.315,0c.544,0,1.227-.163,1.6.1a2.854,2.854,0,0,1,1.25,1.685c.044.486-.629,1.233-1.166,1.52a4.433,4.433,0,0,1-1.957.175c-5.56.01-11.119.006-16.827.006v25.789h25.217V760.67c-.641-.029-1.28-.082-1.919-.083-5.689-.007-11.379-.02-17.068.008-1.281.006-2.472-.215-2.456-1.714.016-1.525,1.271-1.661,2.514-1.657,5.629.016,11.258.007,16.887.006h2.014l.453-3.946h-1.933c-5.811,0-11.621-.015-17.432.011-1.273.005-2.467-.217-2.5-1.694-.038-1.506,1.192-1.78,2.439-1.78,8.231,0,16.464-.055,24.694.024,4.233.041,6.551,2.536,6.585,6.765.02,2.48.032,4.961.058,7.442,0,.106.1.211.24.5,1.042,0,2.179.055,3.308-.015a1.952,1.952,0,0,0,2.051-2.083q.029-10.9,0-21.789c-.006-1.547-1.024-2.036-2.434-2.031-4.177.015-8.353,0-12.529,0-.484,0-.97.013-1.452-.015-1.162-.067-2.216-.574-1.916-1.819a2.817,2.817,0,0,1,1.951-1.578,24.912,24.912,0,0,1,4.345-.075c3.269,0,6.537-.024,9.806.008a5.344,5.344,0,0,1,5.651,5.549q.067,10.895,0,21.79a5.171,5.171,0,0,1-5.379,5.38c-1.139.025-2.279,0-3.554,0v3.1c3.189-.838,5.937-.341,7.882,2.659,3.73-1.645,6.842-1.03,9.028,2.547.161.029.289.093.388.063,5.411-1.7,8.984.887,8.988,6.539q.009,14.436,0,28.871c0,.484.169,1.1-.062,1.424-.433.616-1.1,1.467-1.669,1.471-.535,0-1.2-.893-1.572-1.53-.239-.408-.062-1.064-.062-1.608q0-14.163-.017-28.325a6.851,6.851,0,0,0-.375-2.479,2.128,2.128,0,0,0-2.78-1.41,5.8,5.8,0,0,0-2.162,2.281c-.28.431.13,1.292-.131,1.758a9.864,9.864,0,0,1-1.658,1.8c-.59-.575-1.543-1.07-1.691-1.742a21.429,21.429,0,0,1-.111-3.977c-.051-1.936-1-3.073-2.553-3.115-1.681-.046-2.7,1.071-2.774,3.1a23.8,23.8,0,0,1-.115,3.978c-.142.672-1.055,1.181-1.619,1.763-.556-.6-1.521-1.152-1.591-1.8-.216-1.974-.067-3.986-.094-5.984s-1.029-3.227-2.628-3.284c-1.671-.059-2.72,1.18-2.754,3.32q-.042,2.723,0,5.447c.021,1.242-.326,2.283-1.719,2.272s-1.714-1.044-1.711-2.288q.029-12.62.008-25.24a11.663,11.663,0,0,0-.051-1.812,2.528,2.528,0,0,0-2.541-2.37,2.569,2.569,0,0,0-2.726,2.174,7.018,7.018,0,0,0-.083,1.806c0,11.076-.076,22.154.059,33.228a5.2,5.2,0,0,1-2.518,4.648,2.139,2.139,0,0,1-2.046.017c-.417-.5-.628-1.893-.3-2.181C5502.326,790.825,5500.882,788.077,5501.315,785.52ZM5445.6,775.309c-5.693,0-11.185-.058-16.674.036-1.61.028-1.951,1.343-1.949,2.753.014,6.774-.006,13.548.014,20.323.007,2.181.635,2.776,2.839,2.782,4.415.013,8.831,0,13.245,0h2.525Zm26.606-10.751v-25.87c-5.647,0-11.188-.032-16.729.024-1.25.013-1.734.962-1.736,2.126q-.01,10.694,0,21.388a2.04,2.04,0,0,0,2.194,2.316C5461.3,764.582,5466.673,764.558,5472.211,764.558Z" transform="translate(-0.009 -64.259)" fill="#7d3a1b"/>
          <path id="Path_895231" data-name="Path 895231" d="M5449.136,637.562v26.013h1.768q19.159,0,38.318,0c2.7,0,3.128-.439,3.13-3.186q.009-9.807,0-19.613c0-2.769-.456-3.207-3.31-3.21q-9.807-.007-19.613.005c-1.229,0-2.484-.066-2.5-1.636-.013-1.518,1.167-1.747,2.438-1.745,6.9.016,13.8-.01,20.7.016a5.447,5.447,0,0,1,5.8,5.81q.047,10.533,0,21.066c-.014,3.656-2.223,5.861-5.913,5.865q-30.237.027-60.473,0c-3.715,0-5.857-2.171-5.867-5.865q-.028-10.533,0-21.066c.01-3.582,2.2-5.8,5.749-5.81,10.169-.021,20.339,0,30.509-.016,1.288,0,2.4.242,2.365,1.793-.036,1.481-1.171,1.6-2.351,1.589C5456.334,637.549,5452.779,637.562,5449.136,637.562Zm-3.714,26.006a3.364,3.364,0,0,0,.223-.717c.014-8.035.008-16.07.04-24.1,0-1.012-.489-1.195-1.346-1.191-4.954.02-9.907,0-14.861.016a2.228,2.228,0,0,0-2.491,2.458c-.021,1.329-.008,2.658-.008,3.987,0,5.558.009,11.116-.005,16.674,0,1.571.413,2.845,2.241,2.861C5434.586,663.6,5439.96,663.568,5445.422,663.568Z" fill="#7d3a1b"/>
          <path id="Path_895232" data-name="Path 895232" d="M5522.574,674.577q7.258,0,14.514,0a3.925,3.925,0,0,1,1.778.148c.552.309,1.228.966,1.247,1.493a2.374,2.374,0,0,1-1.122,1.6,3.519,3.519,0,0,1-1.764.193q-14.785.014-29.572,0c-.542,0-1.225.129-1.591-.141a2.839,2.839,0,0,1-1.223-1.7c-.031-.473.709-1.132,1.255-1.461a3.382,3.382,0,0,1,1.6-.13Q5515.136,674.57,5522.574,674.577Z" transform="translate(-51.737 -25.706)" fill="#7d3a1b"/>
          <path id="Path_895233" data-name="Path 895233" d="M5522.338,856.533c5.021,0,10.041.009,15.062-.008,1.314,0,2.61.162,2.566,1.8-.041,1.486-1.283,1.69-2.526,1.69q-15.151-.01-30.3,0c-1.131,0-2.253-.078-2.555-1.466-.264-1.213.631-1.994,2.332-2C5512.055,856.52,5517.2,856.533,5522.338,856.533Z" transform="translate(-51.542 -141.595)" fill="#7d3a1b"/>
          <path id="Path_895234" data-name="Path 895234" d="M5595.822,758.83q-7.337,0-14.675,0c-.541,0-1.212.133-1.592-.129a2.917,2.917,0,0,1-1.32-1.666c-.052-.482.668-1.183,1.207-1.546a3.087,3.087,0,0,1,1.583-.174q14.858-.012,29.714,0c.422,0,.962-.143,1.243.061.623.453,1.612,1.159,1.542,1.624a2.682,2.682,0,0,1-1.6,1.739,10.214,10.214,0,0,1-3.056.1Q5602.344,758.833,5595.822,758.83Z" transform="translate(-98.476 -77.103)" fill="#7d3a1b"/>
          <path id="Path_895235" data-name="Path 895235" d="M5522.446,654.354c5.02,0,10.039-.021,15.058.022a3.563,3.563,0,0,1,2.015.545,1.564,1.564,0,0,1-.631,2.71,6.456,6.456,0,0,1-1.795.161q-14.786.013-29.572.006c-.242,0-.484,0-.726-.006-1.114-.037-2.133-.3-2.161-1.649-.03-1.448,1-1.785,2.208-1.786Q5514.645,654.348,5522.446,654.354Z" transform="translate(-51.605 -12.839)" fill="#7d3a1b"/>
          <path id="Path_895236" data-name="Path 895236" d="M5522.25,880.249h-14.335c-.424,0-.848.013-1.27-.006-1.16-.055-2.048-.494-2.014-1.809.032-1.229.9-1.615,1.984-1.623,2.238-.016,4.476-.011,6.714-.011h23.045c.484,0,.968.014,1.452,0,1.252-.035,2.258.4,2.206,1.781-.046,1.236-1,1.678-2.176,1.671-2.238-.015-4.476,0-6.714,0Z" transform="translate(-51.602 -154.507)" fill="#7d3a1b"/>
          <path id="Path_895237" data-name="Path 895237" d="M5518.94,694.969c3.991,0,7.982.018,11.974-.01,1.234-.009,2.276.263,2.236,1.7-.041,1.409-1.1,1.68-2.319,1.678q-11.883-.021-23.766,0c-1.247,0-2.433-.182-2.41-1.754.024-1.626,1.294-1.62,2.493-1.617Q5513.043,694.978,5518.94,694.969Z" transform="translate(-51.617 -38.702)" fill="#7d3a1b"/>
          <path id="Path_895238" data-name="Path 895238" d="M5519,900.43c-3.994,0-7.987-.008-11.981,0-1.27,0-2.408-.231-2.366-1.8.04-1.459,1.154-1.627,2.338-1.625q11.89.014,23.781,0c1.28,0,2.421.227,2.37,1.78-.046,1.414-1.132,1.654-2.341,1.647C5526.87,900.417,5522.937,900.43,5519,900.43Z" transform="translate(-51.618 -167.379)" fill="#7d3a1b"/>
          <path id="Path_895239" data-name="Path 895239" d="M5449.376,874.558a5.308,5.308,0,0,1-5.325-4.9,2.648,2.648,0,0,1,1.245-2.033c1.041-.464,1.813.251,2.043,1.4.047.237.029.581.178.687.673.484,1.407,1.255,2.095,1.231a2.195,2.195,0,0,0,1.512-1.587,2.648,2.648,0,0,0-1.332-1.966c-.955-.432-2.072-.543-2.105-1.846s1-1.5,2.01-1.908a2.679,2.679,0,0,0,1.434-1.909,2.178,2.178,0,0,0-1.426-1.646,2.687,2.687,0,0,0-2.113,1.117c-.664,1.119-1.276,2.06-2.636,1.345s-.955-1.937-.455-3.012a5.274,5.274,0,0,1,7.2-2.5,5.168,5.168,0,0,1,2.372,7.2,2.329,2.329,0,0,0,.031,2.568A5.347,5.347,0,0,1,5449.376,874.558Z" transform="translate(-13.012 -141.552)" fill="#7d3a1b"/>
          <path id="Path_895240" data-name="Path 895240" d="M5522.22,770.3c1.517,0,2.643-.031,3.766.009,1.093.038,1.934.513,1.89,1.726-.043,1.178-.854,1.651-1.972,1.652-2.116,0-4.237.085-6.346-.043a2.889,2.889,0,0,1-2.07-1,2.544,2.544,0,0,1,.39-2.115c1.447-2.227,3.05-4.353,4.555-6.544a5.384,5.384,0,0,0,1.252-2.356,2.868,2.868,0,0,0-1.123-2.273,2.432,2.432,0,0,0-2.234.779c-.764,1.135-1.151,2.606-2.92,1.575-1.146-.668-1.01-2.18.211-3.839a5.385,5.385,0,0,1,6.814-1.564,5.285,5.285,0,0,1,2.541,6.49,19.166,19.166,0,0,1-1.855,3.3C5524.282,767.4,5523.362,768.65,5522.22,770.3Z" transform="translate(-59.239 -77.382)" fill="#7d3a1b"/>
          <path id="Path_895241" data-name="Path 895241" d="M5450.962,657.753c-1.531-.258-3.3-.009-3.072-2,.214-1.863,1.87-1.524,3.166-1.531,3.067-.017,3.319.239,3.32,3.263,0,4.108-.017,8.217.01,12.325.008,1.273-.224,2.448-1.725,2.451-1.521,0-1.714-1.2-1.707-2.457C5450.978,665.828,5450.962,661.853,5450.962,657.753Z" transform="translate(-15.455 -12.746)" fill="#7d3a1b"/>
        </g>
      </g>
    </g>
  </g>
</svg>
