<svg xmlns="http://www.w3.org/2000/svg" xmlns:xlink="http://www.w3.org/1999/xlink" width="189" height="189" viewBox="0 0 189 189">
  <defs>
    <clipPath id="clip-path">
      <rect id="Rectangle_405351" data-name="Rectangle 405351" width="117" height="121" transform="translate(720.625 6189)" fill="#fff" stroke="#707070" stroke-width="1"/>
    </clipPath>
  </defs>
  <g id="Group_1104222" data-name="Group 1104222" transform="translate(-705 -6153.701)">
    <g id="Group_1102921" data-name="Group 1102921" transform="translate(-45 5102.701)">
      <g id="Group_161157" data-name="Group 161157" transform="translate(750 1051)">
        <path id="Path_608968" data-name="Path 608968" d="M94.5,0A94.5,94.5,0,1,1,0,94.5,94.5,94.5,0,0,1,94.5,0Z" fill="#6a4d23"/>
      </g>
    </g>
    <g id="Group_1102922" data-name="Group 1102922" transform="translate(716.537 6165.238)">
      <circle id="Ellipse_1142" data-name="Ellipse 1142" cx="83.5" cy="83.5" r="83.5" transform="translate(-0.537 -0.537)" fill="#fff"/>
    </g>
    <g id="Mask_Group_1098722" data-name="Mask Group 1098722" transform="translate(20)" clip-path="url(#clip-path)">
      <g id="Group_1103213" data-name="Group 1103213" transform="translate(882.213 5870.341)">
        <g id="Group_1103211" data-name="Group 1103211" transform="translate(-152.588 321.767)">
          <path id="Path_893742" data-name="Path 893742" d="M-105.5,381.688h-36.99V347.572h3.683v30.554h29.625v-16.42h3.683Z" transform="translate(157.958 -308.042)" fill="#575756"/>
          <path id="Path_893743" data-name="Path 893743" d="M-120.891,390.6h-29.877V386h25.021V368.342h4.856Z" transform="translate(153.557 -296.994)" fill="#575756"/>
          <path id="Path_893744" data-name="Path 893744" d="M-80.6,399.691h-40.834a113.622,113.622,0,0,1,0-14.346q.184-2.9.495-5.614h4.361l-.654,16.578h32.43V351.014h4.2Z" transform="translate(169.037 -306.211)" fill="#575756"/>
          <rect id="Rectangle_405338" data-name="Rectangle 405338" width="17.632" height="4.243" transform="translate(69.067 68.922)" fill="#575756"/>
          <rect id="Rectangle_405339" data-name="Rectangle 405339" width="4.856" height="14.653" transform="translate(47.599 91.181)" fill="#575756"/>
          <path id="Path_893745" data-name="Path 893745" d="M-112.3,392.717a5.521,5.521,0,0,1-5.665,5.365,5.521,5.521,0,0,1-5.665-5.365,5.522,5.522,0,0,1,5.665-5.366A5.522,5.522,0,0,1-112.3,392.717Z" transform="translate(167.991 -286.883)" fill="#575756"/>
          <path id="Path_893746" data-name="Path 893746" d="M-99.871,370.123a5.521,5.521,0,0,1-5.665,5.365,5.521,5.521,0,0,1-5.665-5.365,5.522,5.522,0,0,1,5.665-5.366A5.522,5.522,0,0,1-99.871,370.123Z" transform="translate(174.602 -298.901)" fill="#575756"/>
          <g id="Group_1103191" data-name="Group 1103191" transform="translate(5.994 27.277)">
            <path id="Path_893747" data-name="Path 893747" d="M-148.675,350.767c-.046-6.137,5.169-11.149,11.649-11.194s11.77,4.9,11.815,11.034-5.169,11.151-11.647,11.194S-148.627,356.9-148.675,350.767Z" transform="translate(148.675 -339.573)" fill="#f9b233"/>
            <path id="Path_893748" data-name="Path 893748" d="M-146.853,349.831a8.706,8.706,0,0,1,8.877-8.533,8.725,8.725,0,0,1,9.008,8.412,8.707,8.707,0,0,1-8.879,8.53A8.722,8.722,0,0,1-146.853,349.831Z" transform="translate(149.644 -338.655)" fill="#ffc459"/>
            <g id="Group_1103190" data-name="Group 1103190" transform="translate(8.005 3.322)">
              <g id="Group_1103188" data-name="Group 1103188">
                <path id="Path_893749" data-name="Path 893749" d="M-143.449,345.775a2.879,2.879,0,0,0,.342,1.158,5.055,5.055,0,0,0,.355.59,6.931,6.931,0,0,0,1.343,1.4c.178.153.547.418,1.1.8a7.8,7.8,0,0,1,1.126.876,2.965,2.965,0,0,1,1.043,2.04,1.883,1.883,0,0,1-.325,1.137,1.467,1.467,0,0,1-1.252.619,1.607,1.607,0,0,1-1.177-.406,2.235,2.235,0,0,1-.607-1.144l-1.746.274a3.006,3.006,0,0,0,.46,1.155,2.774,2.774,0,0,0,1.062.938,4.505,4.505,0,0,0,2.082.43,3.94,3.94,0,0,0,2.093-.533,2.772,2.772,0,0,0,1.325-2.528,3.228,3.228,0,0,0-.512-1.723,7.891,7.891,0,0,0-1.656-1.651l-2.166-1.671a2.568,2.568,0,0,1-1.032-1.855,1.663,1.663,0,0,1,.294-1.051,1.868,1.868,0,0,1,1.492-.772,1.605,1.605,0,0,1,1.216.444,2.731,2.731,0,0,1,.8,1.587l1.736-.116a4.1,4.1,0,0,0-.483-1.489,3.188,3.188,0,0,0-1.146-1.189,4.12,4.12,0,0,0-2.2-.525,5.205,5.205,0,0,0-1.271.149,2.947,2.947,0,0,0-1.512.864A3.028,3.028,0,0,0-143.449,345.775Z" transform="translate(143.45 -341.306)" fill="#e3960b"/>
                <rect id="Rectangle_405340" data-name="Rectangle 405340" width="1.05" height="15.58" transform="matrix(1, -0.008, 0.008, 1, 2.937, 0.008)" fill="#e3960b"/>
              </g>
              <g id="Group_1103189" data-name="Group 1103189">
                <path id="Path_893750" data-name="Path 893750" d="M-143.449,345.775a2.879,2.879,0,0,0,.342,1.158,5.055,5.055,0,0,0,.355.59,6.931,6.931,0,0,0,1.343,1.4c.178.153.547.418,1.1.8a7.8,7.8,0,0,1,1.126.876,2.965,2.965,0,0,1,1.043,2.04,1.883,1.883,0,0,1-.325,1.137,1.467,1.467,0,0,1-1.252.619,1.607,1.607,0,0,1-1.177-.406,2.235,2.235,0,0,1-.607-1.144l-1.746.274a3.006,3.006,0,0,0,.46,1.155,2.774,2.774,0,0,0,1.062.938,4.505,4.505,0,0,0,2.082.43,3.94,3.94,0,0,0,2.093-.533,2.772,2.772,0,0,0,1.325-2.528,3.228,3.228,0,0,0-.512-1.723,7.891,7.891,0,0,0-1.656-1.651l-2.166-1.671a2.568,2.568,0,0,1-1.032-1.855,1.663,1.663,0,0,1,.294-1.051,1.868,1.868,0,0,1,1.492-.772,1.605,1.605,0,0,1,1.216.444,2.731,2.731,0,0,1,.8,1.587l1.736-.116a4.1,4.1,0,0,0-.483-1.489,3.188,3.188,0,0,0-1.146-1.189,4.12,4.12,0,0,0-2.2-.525,5.205,5.205,0,0,0-1.271.149,2.947,2.947,0,0,0-1.512.864A3.028,3.028,0,0,0-143.449,345.775Z" transform="translate(143.45 -341.306)" fill="#e3960b"/>
                <rect id="Rectangle_405341" data-name="Rectangle 405341" width="1.05" height="15.58" transform="matrix(1, -0.008, 0.008, 1, 2.937, 0.008)" fill="#e3960b"/>
              </g>
            </g>
          </g>
          <g id="Group_1103195" data-name="Group 1103195" transform="translate(38.294 95.542)">
            <path id="Path_893751" data-name="Path 893751" d="M-127.59,395.33c-.046-6.137,5.169-11.149,11.648-11.194s11.77,4.9,11.815,11.034-5.169,11.149-11.647,11.194S-127.542,401.468-127.59,395.33Z" transform="translate(127.59 -384.136)" fill="#f9b233"/>
            <path id="Path_893752" data-name="Path 893752" d="M-125.768,394.392a8.705,8.705,0,0,1,8.877-8.531,8.725,8.725,0,0,1,9.008,8.412,8.708,8.708,0,0,1-8.879,8.53A8.722,8.722,0,0,1-125.768,394.392Z" transform="translate(128.559 -383.218)" fill="#ffc459"/>
            <g id="Group_1103194" data-name="Group 1103194" transform="translate(8.005 3.322)">
              <g id="Group_1103192" data-name="Group 1103192">
                <path id="Path_893753" data-name="Path 893753" d="M-122.364,390.336a2.886,2.886,0,0,0,.342,1.16,5.193,5.193,0,0,0,.355.59,6.93,6.93,0,0,0,1.343,1.4c.178.153.547.417,1.1.8a7.8,7.8,0,0,1,1.126.876,2.962,2.962,0,0,1,1.043,2.04,1.885,1.885,0,0,1-.325,1.137,1.466,1.466,0,0,1-1.252.619,1.607,1.607,0,0,1-1.176-.406,2.235,2.235,0,0,1-.607-1.144l-1.746.274a3.006,3.006,0,0,0,.46,1.155,2.77,2.77,0,0,0,1.062.936,4.486,4.486,0,0,0,2.082.432,3.939,3.939,0,0,0,2.093-.533,2.772,2.772,0,0,0,1.325-2.528,3.234,3.234,0,0,0-.512-1.725,7.94,7.94,0,0,0-1.658-1.651l-2.165-1.67a2.568,2.568,0,0,1-1.033-1.855,1.663,1.663,0,0,1,.294-1.051,1.868,1.868,0,0,1,1.492-.772,1.6,1.6,0,0,1,1.216.444,2.731,2.731,0,0,1,.8,1.587l1.736-.116a4.1,4.1,0,0,0-.483-1.489,3.187,3.187,0,0,0-1.146-1.189,4.107,4.107,0,0,0-2.206-.526,5.207,5.207,0,0,0-1.27.147,2.948,2.948,0,0,0-1.512.866A3.024,3.024,0,0,0-122.364,390.336Z" transform="translate(122.365 -385.868)" fill="#e3960b"/>
                <rect id="Rectangle_405342" data-name="Rectangle 405342" width="1.05" height="15.58" transform="matrix(1, -0.008, 0.008, 1, 2.937, 0.008)" fill="#e3960b"/>
              </g>
              <g id="Group_1103193" data-name="Group 1103193">
                <path id="Path_893754" data-name="Path 893754" d="M-122.364,390.336a2.886,2.886,0,0,0,.342,1.16,5.193,5.193,0,0,0,.355.59,6.93,6.93,0,0,0,1.343,1.4c.178.153.547.417,1.1.8a7.8,7.8,0,0,1,1.126.876,2.962,2.962,0,0,1,1.043,2.04,1.885,1.885,0,0,1-.325,1.137,1.466,1.466,0,0,1-1.252.619,1.607,1.607,0,0,1-1.176-.406,2.235,2.235,0,0,1-.607-1.144l-1.746.274a3.006,3.006,0,0,0,.46,1.155,2.77,2.77,0,0,0,1.062.936,4.486,4.486,0,0,0,2.082.432,3.939,3.939,0,0,0,2.093-.533,2.772,2.772,0,0,0,1.325-2.528,3.234,3.234,0,0,0-.512-1.725,7.94,7.94,0,0,0-1.658-1.651l-2.165-1.67a2.568,2.568,0,0,1-1.033-1.855,1.663,1.663,0,0,1,.294-1.051,1.868,1.868,0,0,1,1.492-.772,1.6,1.6,0,0,1,1.216.444,2.731,2.731,0,0,1,.8,1.587l1.736-.116a4.1,4.1,0,0,0-.483-1.489,3.187,3.187,0,0,0-1.146-1.189,4.107,4.107,0,0,0-2.206-.526,5.207,5.207,0,0,0-1.27.147,2.948,2.948,0,0,0-1.512.866A3.024,3.024,0,0,0-122.364,390.336Z" transform="translate(122.365 -385.868)" fill="#e3960b"/>
                <rect id="Rectangle_405343" data-name="Rectangle 405343" width="1.05" height="15.58" transform="matrix(1, -0.008, 0.008, 1, 2.937, 0.008)" fill="#e3960b"/>
              </g>
            </g>
          </g>
          <g id="Group_1103199" data-name="Group 1103199" transform="translate(0 80.067)">
            <path id="Path_893755" data-name="Path 893755" d="M-152.588,385.226c-.046-6.135,5.169-11.149,11.647-11.192s11.77,4.9,11.817,11.034-5.169,11.149-11.648,11.194S-152.542,391.366-152.588,385.226Z" transform="translate(152.588 -374.034)" fill="#f9b233"/>
            <path id="Path_893756" data-name="Path 893756" d="M-150.767,384.291a8.708,8.708,0,0,1,8.877-8.533,8.726,8.726,0,0,1,9.008,8.412,8.707,8.707,0,0,1-8.879,8.531A8.723,8.723,0,0,1-150.767,384.291Z" transform="translate(153.557 -373.117)" fill="#ffc459"/>
            <g id="Group_1103198" data-name="Group 1103198" transform="translate(8.003 3.322)">
              <g id="Group_1103196" data-name="Group 1103196">
                <path id="Path_893757" data-name="Path 893757" d="M-147.363,380.234a2.866,2.866,0,0,0,.343,1.16,4.975,4.975,0,0,0,.355.59,6.918,6.918,0,0,0,1.342,1.4q.269.228,1.1.8a7.7,7.7,0,0,1,1.126.875,2.974,2.974,0,0,1,1.045,2.042,1.89,1.89,0,0,1-.326,1.137,1.47,1.47,0,0,1-1.252.619,1.616,1.616,0,0,1-1.177-.406,2.239,2.239,0,0,1-.605-1.146l-1.748.276a3.008,3.008,0,0,0,.461,1.155,2.767,2.767,0,0,0,1.06.936,4.5,4.5,0,0,0,2.083.432,3.929,3.929,0,0,0,2.091-.533,2.771,2.771,0,0,0,1.325-2.528,3.207,3.207,0,0,0-.512-1.725,7.889,7.889,0,0,0-1.656-1.651l-2.166-1.67a2.568,2.568,0,0,1-1.031-1.857,1.66,1.66,0,0,1,.294-1.051,1.868,1.868,0,0,1,1.491-.771,1.6,1.6,0,0,1,1.216.444,2.731,2.731,0,0,1,.8,1.587l1.737-.118a4.175,4.175,0,0,0-.483-1.489,3.184,3.184,0,0,0-1.146-1.187,4.1,4.1,0,0,0-2.206-.525,5.194,5.194,0,0,0-1.27.147,2.925,2.925,0,0,0-1.512.866A3.025,3.025,0,0,0-147.363,380.234Z" transform="translate(147.364 -375.766)" fill="#e3960b"/>
                <rect id="Rectangle_405344" data-name="Rectangle 405344" width="1.05" height="15.58" transform="matrix(1, -0.008, 0.008, 1, 2.938, 0.008)" fill="#e3960b"/>
              </g>
              <g id="Group_1103197" data-name="Group 1103197">
                <path id="Path_893758" data-name="Path 893758" d="M-147.363,380.234a2.866,2.866,0,0,0,.343,1.16,4.975,4.975,0,0,0,.355.59,6.918,6.918,0,0,0,1.342,1.4q.269.228,1.1.8a7.7,7.7,0,0,1,1.126.875,2.974,2.974,0,0,1,1.045,2.042,1.89,1.89,0,0,1-.326,1.137,1.47,1.47,0,0,1-1.252.619,1.616,1.616,0,0,1-1.177-.406,2.239,2.239,0,0,1-.605-1.146l-1.748.276a3.008,3.008,0,0,0,.461,1.155,2.767,2.767,0,0,0,1.06.936,4.5,4.5,0,0,0,2.083.432,3.929,3.929,0,0,0,2.091-.533,2.771,2.771,0,0,0,1.325-2.528,3.207,3.207,0,0,0-.512-1.725,7.889,7.889,0,0,0-1.656-1.651l-2.166-1.67a2.568,2.568,0,0,1-1.031-1.857,1.66,1.66,0,0,1,.294-1.051,1.868,1.868,0,0,1,1.491-.771,1.6,1.6,0,0,1,1.216.444,2.731,2.731,0,0,1,.8,1.587l1.737-.118a4.175,4.175,0,0,0-.483-1.489,3.184,3.184,0,0,0-1.146-1.187,4.1,4.1,0,0,0-2.206-.525,5.194,5.194,0,0,0-1.27.147,2.925,2.925,0,0,0-1.512.866A3.025,3.025,0,0,0-147.363,380.234Z" transform="translate(147.364 -375.766)" fill="#e3960b"/>
                <rect id="Rectangle_405345" data-name="Rectangle 405345" width="1.05" height="15.58" transform="matrix(1, -0.008, 0.008, 1, 2.938, 0.008)" fill="#e3960b"/>
              </g>
            </g>
          </g>
          <g id="Group_1103203" data-name="Group 1103203" transform="translate(76.7 33.689)">
            <path id="Path_893759" data-name="Path 893759" d="M-102.519,354.951c-.046-6.137,5.169-11.149,11.649-11.192s11.77,4.9,11.815,11.034-5.169,11.149-11.647,11.194S-102.471,361.091-102.519,354.951Z" transform="translate(102.519 -343.759)" fill="#f9b233"/>
            <path id="Path_893760" data-name="Path 893760" d="M-100.7,354.016a8.707,8.707,0,0,1,8.877-8.533,8.727,8.727,0,0,1,9.008,8.412,8.709,8.709,0,0,1-8.879,8.531A8.723,8.723,0,0,1-100.7,354.016Z" transform="translate(103.488 -342.842)" fill="#ffc459"/>
            <g id="Group_1103202" data-name="Group 1103202" transform="translate(8.005 3.321)">
              <g id="Group_1103200" data-name="Group 1103200">
                <path id="Path_893761" data-name="Path 893761" d="M-97.293,349.96a2.886,2.886,0,0,0,.342,1.16,5.329,5.329,0,0,0,.355.59,6.931,6.931,0,0,0,1.343,1.4c.178.152.547.417,1.1.795a7.7,7.7,0,0,1,1.126.875,2.965,2.965,0,0,1,1.043,2.042,1.889,1.889,0,0,1-.325,1.137,1.47,1.47,0,0,1-1.252.619,1.608,1.608,0,0,1-1.176-.407,2.23,2.23,0,0,1-.607-1.144l-1.746.276a3.016,3.016,0,0,0,.46,1.155,2.782,2.782,0,0,0,1.062.936,4.486,4.486,0,0,0,2.082.432,3.925,3.925,0,0,0,2.093-.535,2.77,2.77,0,0,0,1.325-2.526,3.233,3.233,0,0,0-.512-1.725,7.939,7.939,0,0,0-1.658-1.651l-2.165-1.67a2.571,2.571,0,0,1-1.033-1.857,1.669,1.669,0,0,1,.294-1.051,1.867,1.867,0,0,1,1.492-.771,1.6,1.6,0,0,1,1.216.443,2.735,2.735,0,0,1,.8,1.587l1.736-.116a4.106,4.106,0,0,0-.483-1.489,3.188,3.188,0,0,0-1.146-1.189,4.122,4.122,0,0,0-2.206-.525,5.274,5.274,0,0,0-1.27.149,2.938,2.938,0,0,0-1.512.865A3.024,3.024,0,0,0-97.293,349.96Z" transform="translate(97.294 -345.491)" fill="#e3960b"/>
                <rect id="Rectangle_405346" data-name="Rectangle 405346" width="1.05" height="15.58" transform="matrix(1, -0.008, 0.008, 1, 2.937, 0.008)" fill="#e3960b"/>
              </g>
              <g id="Group_1103201" data-name="Group 1103201">
                <path id="Path_893762" data-name="Path 893762" d="M-97.293,349.96a2.886,2.886,0,0,0,.342,1.16,5.329,5.329,0,0,0,.355.59,6.931,6.931,0,0,0,1.343,1.4c.178.152.547.417,1.1.795a7.7,7.7,0,0,1,1.126.875,2.965,2.965,0,0,1,1.043,2.042,1.889,1.889,0,0,1-.325,1.137,1.47,1.47,0,0,1-1.252.619,1.608,1.608,0,0,1-1.176-.407,2.23,2.23,0,0,1-.607-1.144l-1.746.276a3.016,3.016,0,0,0,.46,1.155,2.782,2.782,0,0,0,1.062.936,4.486,4.486,0,0,0,2.082.432,3.925,3.925,0,0,0,2.093-.535,2.77,2.77,0,0,0,1.325-2.526,3.233,3.233,0,0,0-.512-1.725,7.939,7.939,0,0,0-1.658-1.651l-2.165-1.67a2.571,2.571,0,0,1-1.033-1.857,1.669,1.669,0,0,1,.294-1.051,1.867,1.867,0,0,1,1.492-.771,1.6,1.6,0,0,1,1.216.443,2.735,2.735,0,0,1,.8,1.587l1.736-.116a4.106,4.106,0,0,0-.483-1.489,3.188,3.188,0,0,0-1.146-1.189,4.122,4.122,0,0,0-2.206-.525,5.274,5.274,0,0,0-1.27.149,2.938,2.938,0,0,0-1.512.865A3.024,3.024,0,0,0-97.293,349.96Z" transform="translate(97.294 -345.491)" fill="#e3960b"/>
                <rect id="Rectangle_405347" data-name="Rectangle 405347" width="1.05" height="15.58" transform="matrix(1, -0.008, 0.008, 1, 2.937, 0.008)" fill="#e3960b"/>
              </g>
            </g>
          </g>
          <g id="Group_1103207" data-name="Group 1103207" transform="translate(56.171 59.929)">
            <path id="Path_893763" data-name="Path 893763" d="M-115.92,372.082c-.047-6.137,5.167-11.149,11.647-11.194s11.77,4.9,11.815,11.036-5.169,11.149-11.647,11.192S-115.874,378.22-115.92,372.082Z" transform="translate(115.92 -360.888)" fill="#f9b233"/>
            <path id="Path_893764" data-name="Path 893764" d="M-114.1,371.146a8.706,8.706,0,0,1,8.877-8.533,8.726,8.726,0,0,1,9.008,8.412,8.706,8.706,0,0,1-8.879,8.53A8.721,8.721,0,0,1-114.1,371.146Z" transform="translate(116.889 -359.97)" fill="#ffc459"/>
            <g id="Group_1103206" data-name="Group 1103206" transform="translate(8.003 3.323)">
              <g id="Group_1103204" data-name="Group 1103204">
                <path id="Path_893765" data-name="Path 893765" d="M-110.695,367.09a2.892,2.892,0,0,0,.342,1.16,5.572,5.572,0,0,0,.355.59,6.931,6.931,0,0,0,1.343,1.4c.178.152.547.417,1.1.794a7.8,7.8,0,0,1,1.126.876,2.974,2.974,0,0,1,1.045,2.042,1.881,1.881,0,0,1-.326,1.135,1.468,1.468,0,0,1-1.252.62,1.608,1.608,0,0,1-1.176-.407,2.229,2.229,0,0,1-.607-1.144l-1.746.276a3.025,3.025,0,0,0,.46,1.155,2.783,2.783,0,0,0,1.062.936,4.524,4.524,0,0,0,2.082.432,3.939,3.939,0,0,0,2.093-.535,2.771,2.771,0,0,0,1.325-2.528,3.233,3.233,0,0,0-.512-1.723,7.926,7.926,0,0,0-1.656-1.651l-2.166-1.671a2.568,2.568,0,0,1-1.033-1.855,1.666,1.666,0,0,1,.294-1.051,1.873,1.873,0,0,1,1.492-.772,1.611,1.611,0,0,1,1.216.444,2.736,2.736,0,0,1,.8,1.587l1.737-.116a4.137,4.137,0,0,0-.484-1.489,3.188,3.188,0,0,0-1.146-1.189,4.116,4.116,0,0,0-2.2-.525,5.278,5.278,0,0,0-1.271.149,2.938,2.938,0,0,0-1.512.866A3.024,3.024,0,0,0-110.695,367.09Z" transform="translate(110.696 -362.621)" fill="#e3960b"/>
                <rect id="Rectangle_405348" data-name="Rectangle 405348" width="1.05" height="15.58" transform="matrix(1, -0.008, 0.008, 1, 2.937, 0.008)" fill="#e3960b"/>
              </g>
              <g id="Group_1103205" data-name="Group 1103205">
                <path id="Path_893766" data-name="Path 893766" d="M-110.695,367.09a2.892,2.892,0,0,0,.342,1.16,5.572,5.572,0,0,0,.355.59,6.931,6.931,0,0,0,1.343,1.4c.178.152.547.417,1.1.794a7.8,7.8,0,0,1,1.126.876,2.974,2.974,0,0,1,1.045,2.042,1.881,1.881,0,0,1-.326,1.135,1.468,1.468,0,0,1-1.252.62,1.608,1.608,0,0,1-1.176-.407,2.229,2.229,0,0,1-.607-1.144l-1.746.276a3.025,3.025,0,0,0,.46,1.155,2.783,2.783,0,0,0,1.062.936,4.524,4.524,0,0,0,2.082.432,3.939,3.939,0,0,0,2.093-.535,2.771,2.771,0,0,0,1.325-2.528,3.233,3.233,0,0,0-.512-1.723,7.926,7.926,0,0,0-1.656-1.651l-2.166-1.671a2.568,2.568,0,0,1-1.033-1.855,1.666,1.666,0,0,1,.294-1.051,1.873,1.873,0,0,1,1.492-.772,1.611,1.611,0,0,1,1.216.444,2.736,2.736,0,0,1,.8,1.587l1.737-.116a4.137,4.137,0,0,0-.484-1.489,3.188,3.188,0,0,0-1.146-1.189,4.116,4.116,0,0,0-2.2-.525,5.278,5.278,0,0,0-1.271.149,2.938,2.938,0,0,0-1.512.866A3.024,3.024,0,0,0-110.695,367.09Z" transform="translate(110.696 -362.621)" fill="#e3960b"/>
                <rect id="Rectangle_405349" data-name="Rectangle 405349" width="1.05" height="15.58" transform="matrix(1, -0.008, 0.008, 1, 2.937, 0.008)" fill="#e3960b"/>
              </g>
            </g>
          </g>
          <g id="Group_1103210" data-name="Group 1103210" transform="translate(30.638)">
            <g id="Group_1103209" data-name="Group 1103209">
              <path id="Path_893767" data-name="Path 893767" d="M-114.437,361.272c0,.8-1.743,1.454-3.894,1.454s-3.894-.651-3.894-1.454,1.743-1.454,3.894-1.454S-114.437,360.469-114.437,361.272Z" transform="translate(138.1 -301.528)" fill="#3c3c3b"/>
              <path id="Path_893768" data-name="Path 893768" d="M-112.525,361.566h-7.789l-5.5-2.2h18.8Z" transform="translate(136.188 -301.768)" fill="#9d9d9c"/>
              <g id="Group_1103208" data-name="Group 1103208">
                <path id="Path_893769" data-name="Path 893769" d="M-93.051,341.3A19.689,19.689,0,0,0-115.118,321.9a19.706,19.706,0,0,0-17.2,16.135,19.4,19.4,0,0,0,5.587,17.151,14.326,14.326,0,0,1,4.513,10.189v.265h18.8v-.173a14.262,14.262,0,0,1,4.444-10.213A19.352,19.352,0,0,0-93.051,341.3Z" transform="translate(132.588 -321.767)" fill="#f7c31e"/>
                <rect id="Rectangle_405350" data-name="Rectangle 405350" width="18.798" height="13.729" transform="translate(10.37 43.869)" fill="#ededed"/>
              </g>
            </g>
            <path id="Path_893770" data-name="Path 893770" d="M-116.083,322.687c-7.572,1.527-13.775,7.7-15.144,14.322-1.3,6.279,1.716,13.678,6.353,16.734C-130.128,343.251-126.43,330.089-116.083,322.687Z" transform="translate(133.15 -321.278)" fill="#fff" opacity="0.5"/>
          </g>
        </g>
        <g id="Group_1103212" data-name="Group 1103212" transform="translate(-118.88 337.098)">
          <path id="Path_893771" data-name="Path 893771" d="M-122.539,337.324A6.769,6.769,0,0,1-123.03,340a3.98,3.98,0,0,1-1.412,1.777,3.651,3.651,0,0,1-2.1.625,3.68,3.68,0,0,1-2.1-.619,4,4,0,0,1-1.426-1.765,6.541,6.541,0,0,1-.513-2.639v-.512a6.707,6.707,0,0,1,.5-2.688,4,4,0,0,1,1.422-1.783,3.647,3.647,0,0,1,2.1-.622,3.647,3.647,0,0,1,2.1.622,4,4,0,0,1,1.422,1.783,6.69,6.69,0,0,1,.5,2.681Zm-1.972-.469a4.676,4.676,0,0,0-.533-2.473,1.693,1.693,0,0,0-1.518-.846,1.7,1.7,0,0,0-1.512.835,4.622,4.622,0,0,0-.538,2.448v.5a4.742,4.742,0,0,0,.532,2.459,1.7,1.7,0,0,0,1.532.873,1.671,1.671,0,0,0,1.5-.843,4.706,4.706,0,0,0,.533-2.454Z" transform="translate(130.584 -331.775)"/>
          <path id="Path_893772" data-name="Path 893772" d="M-116.726,342.211h-1.947l-3.788-6.806v6.806h-1.947V331.868h1.947l3.8,6.82v-6.82h1.939Z" transform="translate(133.869 -331.726)"/>
          <path id="Path_893773" data-name="Path 893773" d="M-110.726,340.954a3.383,3.383,0,0,1-1.486,1.069,5.75,5.75,0,0,1-2.129.38,3.937,3.937,0,0,1-2.151-.587,3.8,3.8,0,0,1-1.428-1.7,6.48,6.48,0,0,1-.516-2.623v-.7a6.873,6.873,0,0,1,.478-2.682,3.772,3.772,0,0,1,1.376-1.733,3.691,3.691,0,0,1,2.1-.6,3.718,3.718,0,0,1,2.629.878,3.9,3.9,0,0,1,1.123,2.554h-1.895a2.146,2.146,0,0,0-.574-1.3,1.735,1.735,0,0,0-1.224-.412,1.68,1.68,0,0,0-1.51.816,4.627,4.627,0,0,0-.527,2.431v.66a4.387,4.387,0,0,0,.565,2.459,1.876,1.876,0,0,0,1.654.83,2.036,2.036,0,0,0,1.564-.512V338.4h-1.771v-1.57h3.718Z" transform="translate(137.045 -331.775)"/>
          <path id="Path_893774" data-name="Path 893774" d="M-108.528,339.214a.669.669,0,0,0-.342-.593,3.684,3.684,0,0,0-1.092-.388q-2.5-.574-2.5-2.33a2.183,2.183,0,0,1,.775-1.708,2.94,2.94,0,0,1,2.027-.686,3.167,3.167,0,0,1,2.139.689,2.25,2.25,0,0,1,.8,1.791H-108.6a1.042,1.042,0,0,0-.259-.728,1.038,1.038,0,0,0-.812-.288,1.054,1.054,0,0,0-.732.234.769.769,0,0,0-.26.6.644.644,0,0,0,.3.552,2.85,2.85,0,0,0,1,.362,7.752,7.752,0,0,1,1.181.345,2.1,2.1,0,0,1,1.486,2.068,2.065,2.065,0,0,1-.824,1.7,3.343,3.343,0,0,1-2.128.65,3.439,3.439,0,0,1-1.567-.345,2.69,2.69,0,0,1-1.074-.945,2.328,2.328,0,0,1-.389-1.3h1.777a1.108,1.108,0,0,0,.371.838,1.373,1.373,0,0,0,.921.291,1.273,1.273,0,0,0,.815-.224A.718.718,0,0,0-108.528,339.214Z" transform="translate(140.103 -330.853)"/>
        </g>
        <path id="Path_893775" data-name="Path 893775" d="M-67.481,380.561" transform="translate(45.268 31.272)" fill="#575756"/>
      </g>
    </g>
  </g>
</svg>
