<svg xmlns="http://www.w3.org/2000/svg" xmlns:xlink="http://www.w3.org/1999/xlink" width="189" height="189" viewBox="0 0 189 189">
  <defs>
    <clipPath id="clip-path">
      <rect id="Rectangle_405372" data-name="Rectangle 405372" width="117" height="121" transform="translate(720.625 6189)" fill="#fff" stroke="#707070" stroke-width="1"/>
    </clipPath>
  </defs>
  <g id="Group_1104220" data-name="Group 1104220" transform="translate(-705 -5703.701)">
    <g id="Group_1102912" data-name="Group 1102912" transform="translate(-45 4652.701)">
      <g id="Group_161157" data-name="Group 161157" transform="translate(750 1051)">
        <path id="Path_608968" data-name="Path 608968" d="M94.5,0A94.5,94.5,0,1,1,0,94.5,94.5,94.5,0,0,1,94.5,0Z" fill="#6a4d23"/>
      </g>
    </g>
    <g id="Group_1102913" data-name="Group 1102913" transform="translate(716.537 5715.238)">
      <circle id="Ellipse_1142" data-name="Ellipse 1142" cx="83.5" cy="83.5" r="83.5" transform="translate(-0.537 -0.537)" fill="#fff"/>
    </g>
    <g id="Mask_Group_1098724" data-name="Mask Group 1098724" transform="translate(21 -451)" clip-path="url(#clip-path)">
      <g id="Group_1103256" data-name="Group 1103256" transform="translate(472.676 5835.12)">
        <g id="Group_1103240" data-name="Group 1103240" transform="translate(267.352 370.727)">
          <path id="Path_893827" data-name="Path 893827" d="M267.485,379.776l2.594-1a2.254,2.254,0,0,0,1.375-2.748l-.014-.04a1.993,1.993,0,0,0-2.665-1.195l-2.592,1C263.979,376.733,264.853,380.38,267.485,379.776Z" transform="translate(-259.293 -355.488)" fill="#deaa78"/>
          <path id="Path_893828" data-name="Path 893828" d="M267.643,381.45l2.046-.9a1.922,1.922,0,0,0,.947-2.429l-.012-.035a1.677,1.677,0,0,0-2.24-1.026l-2.048.9C264.3,378.8,265.363,382.2,267.643,381.45Z" transform="translate(-259.057 -353.817)" fill="#deaa78"/>
          <path id="Path_893829" data-name="Path 893829" d="M267.235,377.781l3.847-1.642c1.115-.428,1.339-1.021.983-2.11l.378-.678a1.992,1.992,0,0,0-2.665-1.195l-3.847,1.64C263.729,374.739,264.6,378.386,267.235,377.781Z" transform="translate(-259.476 -357.424)" fill="#e6b07c"/>
          <path id="Path_893830" data-name="Path 893830" d="M268.174,374.69c.4-.005,1.612-.17,1.612-.17a2.149,2.149,0,0,0,1.942-2.292l-.005-.042c-.1-1.137,1.586-2.219.409-2.091l-4.342.435C264.578,371.07,265.191,375.125,268.174,374.69Z" transform="translate(-258.769 -358.835)" fill="#f5c08c"/>
          <path id="Path_893831" data-name="Path 893831" d="M275.455,378.032l-4.167-7.159-.743,6.285Z" transform="translate(-255.173 -358.256)" fill="#f5c08c"/>
          <g id="Group_1103238" data-name="Group 1103238">
            <g id="Group_1103237" data-name="Group 1103237">
              <path id="Path_893832" data-name="Path 893832" d="M261.679,364.837c9.647-4.3,19.3,4.293,28.945,0v11.3c-9.647,4.295-19.3-4.293-28.945,0Z" transform="translate(-261.679 -363.596)" fill="#93ba77" fill-rule="evenodd"/>
              <path id="Path_893833" data-name="Path 893833" d="M262.653,374.77v-9.349c9-3.223,18,4,26.994.782v9.349c-9,3.223-18-4-26.994-.782Zm-.974,1.366c9.647-4.293,19.3,4.295,28.945,0v-11.3c-9.647,4.293-19.3-4.3-28.945,0v11.3Z" transform="translate(-261.679 -363.596)" fill="#6b8756" fill-rule="evenodd"/>
              <path id="Path_893834" data-name="Path 893834" d="M268.355,368.668c0-2.212,1.3-3.747,2.9-3.385s2.9,2.414,2.9,4.622-1.3,3.749-2.9,3.386S268.355,370.877,268.355,368.668Z" transform="translate(-256.78 -362.397)" fill="#6b8756" fill-rule="evenodd"/>
              <g id="Group_1103236" data-name="Group 1103236" transform="translate(4.796 2.86)">
                <g id="Group_1103234" data-name="Group 1103234" transform="translate(16.42 2.479)">
                  <path id="Path_893835" data-name="Path 893835" d="M275.467,367.045a2.094,2.094,0,0,1,.576.071,1.7,1.7,0,0,1,.435.18,1.024,1.024,0,0,1,.276.232.4.4,0,0,1,.094.234.364.364,0,0,1-.078.213.233.233,0,0,1-.173.118.192.192,0,0,1-.146-.075,2.282,2.282,0,0,0-.2-.173,1.669,1.669,0,0,0-.307-.177,1.2,1.2,0,0,0-.477-.081v1.8l.453.17a1.581,1.581,0,0,1,.406.222,1.065,1.065,0,0,1,.288.342,1.094,1.094,0,0,1,.113.534,1.252,1.252,0,0,1-.109.546,1.113,1.113,0,0,1-.288.38,1.271,1.271,0,0,1-.406.229,1.838,1.838,0,0,1-.456.094v.206a.12.12,0,0,1-.052.1.184.184,0,0,1-.125.045.188.188,0,0,1-.121-.049.128.128,0,0,1-.057-.1v-.194a1.965,1.965,0,0,1-.371-.045,2.306,2.306,0,0,1-.348-.106.857.857,0,0,1-.255-.153.26.26,0,0,1-.1-.192.4.4,0,0,1,.064-.193.189.189,0,0,1,.18-.106.274.274,0,0,1,.118.043c.045.023.1.054.165.09a1.5,1.5,0,0,0,.232.094,1.577,1.577,0,0,0,.314.061v-1.55q-.216-.088-.432-.2a1.539,1.539,0,0,1-.383-.284,1.26,1.26,0,0,1-.274-.416,1.459,1.459,0,0,1-.107-.595,1.224,1.224,0,0,1,.333-.936,1.467,1.467,0,0,1,.863-.371v-.243a.122.122,0,0,1,.057-.1.181.181,0,0,1,.121-.042.184.184,0,0,1,.125.045.129.129,0,0,1,.052.1Zm.714,3.7a.662.662,0,0,0-.059-.3.555.555,0,0,0-.159-.2.968.968,0,0,0-.238-.146c-.09-.043-.186-.081-.286-.12V371.4a1.088,1.088,0,0,0,.29-.059.774.774,0,0,0,.234-.125.552.552,0,0,0,.159-.2A.621.621,0,0,0,276.181,370.742Zm-1.722-2.393a.926.926,0,0,0,.055.336.8.8,0,0,0,.146.251.944.944,0,0,0,.215.182,2.248,2.248,0,0,0,.265.139v-1.666a.849.849,0,0,0-.5.232A.729.729,0,0,0,274.459,368.349Z" transform="translate(-273.915 -366.676)" fill="#f6f6f6"/>
                </g>
                <g id="Group_1103235" data-name="Group 1103235">
                  <path id="Path_893836" data-name="Path 893836" d="M266,365.615a1.831,1.831,0,0,1,.574.1,1.676,1.676,0,0,1,.435.22,1.135,1.135,0,0,1,.276.269.443.443,0,0,1,.1.246.325.325,0,0,1-.078.2.2.2,0,0,1-.173.094.227.227,0,0,1-.147-.092,2.157,2.157,0,0,0-.2-.194,1.489,1.489,0,0,0-.307-.2,1.09,1.09,0,0,0-.475-.1v1.8c.149.057.3.118.453.184a1.549,1.549,0,0,1,.4.253,1.18,1.18,0,0,1,.29.375,1.212,1.212,0,0,1,.111.55,1.159,1.159,0,0,1-.108.532.979.979,0,0,1-.29.347,1.276,1.276,0,0,1-.406.2,2.382,2.382,0,0,1-.454.082v.2a.128.128,0,0,1-.052.1.181.181,0,0,1-.127.043.193.193,0,0,1-.121-.043.126.126,0,0,1-.054-.1v-.193a2.3,2.3,0,0,1-.374-.028,2.233,2.233,0,0,1-.347-.076.787.787,0,0,1-.257-.121.223.223,0,0,1-.1-.18.443.443,0,0,1,.064-.2.211.211,0,0,1,.18-.127.25.25,0,0,1,.12.028c.042.021.1.047.161.075a1.451,1.451,0,0,0,.232.078,1.8,1.8,0,0,0,.317.047v-1.552c-.146-.054-.29-.111-.432-.175a1.518,1.518,0,0,1-.385-.246,1.144,1.144,0,0,1-.276-.383,1.614,1.614,0,0,1,.229-1.559,1.436,1.436,0,0,1,.863-.435v-.244a.12.12,0,0,1,.054-.1.188.188,0,0,1,.121-.045.178.178,0,0,1,.127.047.128.128,0,0,1,.052.1Zm.714,3.729a.719.719,0,0,0-.059-.3.626.626,0,0,0-.159-.213,1.044,1.044,0,0,0-.239-.158,2.667,2.667,0,0,0-.284-.125v1.429a1.16,1.16,0,0,0,.29-.054.738.738,0,0,0,.234-.114.515.515,0,0,0,.159-.186A.612.612,0,0,0,266.711,369.345Zm-1.722-2.381a.909.909,0,0,0,.054.331.735.735,0,0,0,.147.239.809.809,0,0,0,.213.168,2.51,2.51,0,0,0,.265.128v-1.666a.856.856,0,0,0-.5.258A.8.8,0,0,0,264.989,366.964Z" transform="translate(-264.445 -365.246)" fill="#f6f6f6"/>
                </g>
              </g>
            </g>
            <path id="Path_893837" data-name="Path 893837" d="M276.945,370.876a1.1,1.1,0,1,1,1.1,1.094A1.1,1.1,0,0,1,276.945,370.876Z" transform="translate(-250.476 -359.056)" fill="#6b8756" fill-rule="evenodd"/>
            <path id="Path_893838" data-name="Path 893838" d="M276.945,365.876a1.1,1.1,0,1,1,1.1,1.094A1.1,1.1,0,0,1,276.945,365.876Z" transform="translate(-250.476 -362.725)" fill="#6b8756" fill-rule="evenodd"/>
            <path id="Path_893839" data-name="Path 893839" d="M261.917,365.247a1.1,1.1,0,1,1,1.1,1.092A1.1,1.1,0,0,1,261.917,365.247Z" transform="translate(-261.504 -363.188)" fill="#6b8756" fill-rule="evenodd"/>
            <path id="Path_893840" data-name="Path 893840" d="M261.917,370.247a1.1,1.1,0,1,1,1.1,1.092A1.1,1.1,0,0,1,261.917,370.247Z" transform="translate(-261.504 -359.519)" fill="#6b8756" fill-rule="evenodd"/>
          </g>
          <path id="Path_893841" data-name="Path 893841" d="M275.641,393.054h0s5.756-8.38,2.979-12.628l-1.9-.99a4.3,4.3,0,0,1-2.2-4.137c.014-.229.029-.428.04-.581l.075-1.113c.123-1.775.22-3.012.276-3.365a2.246,2.246,0,0,0-1.6-2.58l-.042-.007a2.041,2.041,0,0,0-2.358,1.85,77.58,77.58,0,0,0-.848,8.239v.01a1.765,1.765,0,0,1-.622,1.054c-1.746,1.919-2.488,4.078-3.008,7.206-.8,4.792,1.189,7.041,1.189,7.041v8.028h8.024Z" transform="translate(-258.334 -360.651)" fill="#ffcf9f"/>
          <rect id="Rectangle_405373" data-name="Rectangle 405373" width="5.904" height="10.231" transform="translate(8.107 38.934) rotate(-89.649)" fill="#ededed"/>
          <path id="Path_893842" data-name="Path 893842" d="M277.51,412.47V385.354h-11.5v33.39l1.328-.9A54.278,54.278,0,0,1,277.51,412.47Z" transform="translate(-258.504 -347.63)" fill="#7d3a1b"/>
          <g id="Group_1103239" data-name="Group 1103239" transform="translate(8.55 39.169)">
            <path id="Path_893843" data-name="Path 893843" d="M267.442,388.572a.632.632,0,1,0,.4.8A.631.631,0,0,0,267.442,388.572Z" transform="translate(-266.61 -384.462)" fill="#ededed"/>
            <path id="Path_893844" data-name="Path 893844" d="M267.442,387.391a.632.632,0,1,0,.4.8A.633.633,0,0,0,267.442,387.391Z" transform="translate(-266.61 -385.328)" fill="#ededed"/>
            <path id="Path_893845" data-name="Path 893845" d="M267.442,386.22a.632.632,0,1,0,.4.8A.633.633,0,0,0,267.442,386.22Z" transform="translate(-266.61 -386.187)" fill="#ededed"/>
          </g>
        </g>
        <g id="Group_1103247" data-name="Group 1103247" transform="translate(316.817 353.88)">
          <path id="Path_893846" data-name="Path 893846" d="M297.242,373.477l3.142-1.208a2.729,2.729,0,0,0,1.665-3.327l-.016-.05a2.415,2.415,0,0,0-3.227-1.448l-3.143,1.208C292.994,369.793,294.052,374.211,297.242,373.477Z" transform="translate(-287.318 -344.057)" fill="#deaa78"/>
          <path id="Path_893847" data-name="Path 893847" d="M297.432,375.506l2.479-1.091a2.329,2.329,0,0,0,1.148-2.942l-.017-.042a2.031,2.031,0,0,0-2.712-1.243l-2.479,1.091C293.376,372.3,294.672,376.416,297.432,375.506Z" transform="translate(-287.032 -342.034)" fill="#deaa78"/>
          <path id="Path_893848" data-name="Path 893848" d="M296.939,371.062l4.659-1.99c1.352-.518,1.623-1.236,1.191-2.554l.46-.822a2.416,2.416,0,0,0-3.228-1.448l-4.659,1.987C292.693,367.378,293.749,371.8,296.939,371.062Z" transform="translate(-287.54 -346.403)" fill="#e6b07c"/>
          <path id="Path_893849" data-name="Path 893849" d="M298.075,367.32c.489-.007,1.954-.208,1.954-.208a2.6,2.6,0,0,0,2.351-2.776l0-.05c-.128-1.377,1.919-2.689.494-2.533l-5.26.529C293.721,362.935,294.463,367.847,298.075,367.32Z" transform="translate(-286.683 -348.112)" fill="#f5c08c"/>
          <path id="Path_893850" data-name="Path 893850" d="M306.9,371.365l-5.047-8.671-.9,7.613Z" transform="translate(-282.327 -347.411)" fill="#f5c08c"/>
          <g id="Group_1103245" data-name="Group 1103245">
            <g id="Group_1103244" data-name="Group 1103244">
              <path id="Path_893851" data-name="Path 893851" d="M290.208,355.382c11.686-5.2,23.372,5.2,35.06,0v13.69c-11.688,5.2-23.374-5.2-35.06,0Z" transform="translate(-290.208 -353.88)" fill="#93ba77" fill-rule="evenodd"/>
              <path id="Path_893852" data-name="Path 893852" d="M291.39,367.416V356.089c10.9-3.9,21.8,4.851,32.7.948v11.326c-10.9,3.9-21.8-4.85-32.7-.947Zm-1.182,1.656c11.686-5.2,23.372,5.2,35.06,0v-13.69c-11.688,5.2-23.374-5.2-35.06,0v13.69Z" transform="translate(-290.208 -353.88)" fill="#6b8756" fill-rule="evenodd"/>
              <path id="Path_893853" data-name="Path 893853" d="M298.3,360.025c0-2.682,1.571-4.539,3.508-4.1s3.509,2.923,3.509,5.6-1.573,4.539-3.509,4.1S298.3,362.7,298.3,360.025Z" transform="translate(-284.273 -352.427)" fill="#6b8756" fill-rule="evenodd"/>
              <g id="Group_1103243" data-name="Group 1103243" transform="translate(5.81 3.468)">
                <g id="Group_1103241" data-name="Group 1103241" transform="translate(19.887 3)">
                  <path id="Path_893854" data-name="Path 893854" d="M306.909,358.057a2.6,2.6,0,0,1,.7.087,2.025,2.025,0,0,1,.527.22,1.267,1.267,0,0,1,.335.281.472.472,0,0,1,.114.283.455.455,0,0,1-.1.26.291.291,0,0,1-.21.142.243.243,0,0,1-.177-.09,2.337,2.337,0,0,0-.243-.21,1.892,1.892,0,0,0-.371-.213,1.463,1.463,0,0,0-.577-.1V360.9c.182.066.364.135.55.2a2.033,2.033,0,0,1,.489.267,1.3,1.3,0,0,1,.35.416,1.352,1.352,0,0,1,.135.647,1.519,1.519,0,0,1-.132.662,1.344,1.344,0,0,1-.348.459,1.524,1.524,0,0,1-.491.276,2.464,2.464,0,0,1-.553.118v.244a.153.153,0,0,1-.062.121.226.226,0,0,1-.153.052.251.251,0,0,1-.147-.055.167.167,0,0,1-.066-.125v-.231a2.307,2.307,0,0,1-.454-.057,2.656,2.656,0,0,1-.42-.127,1.035,1.035,0,0,1-.309-.185.311.311,0,0,1-.12-.232.488.488,0,0,1,.078-.234.225.225,0,0,1,.218-.127.35.35,0,0,1,.144.05c.052.031.118.066.2.109a1.7,1.7,0,0,0,.279.114,1.828,1.828,0,0,0,.385.073v-1.878c-.175-.071-.35-.151-.524-.241a1.829,1.829,0,0,1-.465-.342,1.6,1.6,0,0,1-.335-.5,1.822,1.822,0,0,1-.128-.72,1.473,1.473,0,0,1,.406-1.134,1.776,1.776,0,0,1,1.045-.451v-.295a.151.151,0,0,1,.066-.116.235.235,0,0,1,.147-.052.222.222,0,0,1,.153.057.147.147,0,0,1,.062.118Zm.865,4.477a.812.812,0,0,0-.071-.361.694.694,0,0,0-.193-.244,1.371,1.371,0,0,0-.288-.177c-.111-.05-.225-.1-.347-.144v1.73a1.41,1.41,0,0,0,.352-.071.945.945,0,0,0,.283-.153.676.676,0,0,0,.193-.239A.747.747,0,0,0,307.774,362.534Zm-2.084-2.9a1.192,1.192,0,0,0,.066.409,1.037,1.037,0,0,0,.177.305,1.208,1.208,0,0,0,.258.218,2.581,2.581,0,0,0,.324.17v-2.018a1.011,1.011,0,0,0-.612.279A.891.891,0,0,0,305.69,359.637Z" transform="translate(-305.029 -357.61)" fill="#f6f6f6"/>
                </g>
                <g id="Group_1103242" data-name="Group 1103242">
                  <path id="Path_893855" data-name="Path 893855" d="M295.438,356.326a2.172,2.172,0,0,1,.7.114,1.95,1.95,0,0,1,.527.269,1.352,1.352,0,0,1,.333.324.53.53,0,0,1,.116.3.394.394,0,0,1-.094.245.247.247,0,0,1-.212.116.294.294,0,0,1-.177-.113,2.508,2.508,0,0,0-.245-.234,1.863,1.863,0,0,0-.369-.243,1.306,1.306,0,0,0-.576-.116v2.181c.18.069.362.142.546.224a1.957,1.957,0,0,1,.491.307,1.385,1.385,0,0,1,.485,1.118,1.413,1.413,0,0,1-.132.647,1.2,1.2,0,0,1-.35.42,1.563,1.563,0,0,1-.489.237,2.894,2.894,0,0,1-.551.1v.248a.149.149,0,0,1-.064.118.213.213,0,0,1-.151.052.21.21,0,0,1-.147-.054.15.15,0,0,1-.069-.12v-.232a3.13,3.13,0,0,1-.451-.035,2.85,2.85,0,0,1-.42-.092.958.958,0,0,1-.31-.147.27.27,0,0,1-.12-.217.558.558,0,0,1,.078-.246.265.265,0,0,1,.218-.153.274.274,0,0,1,.144.035l.2.09a1.692,1.692,0,0,0,.279.094,2.168,2.168,0,0,0,.381.057v-1.879c-.173-.066-.349-.137-.52-.212a1.761,1.761,0,0,1-.466-.3,1.378,1.378,0,0,1-.335-.463,1.974,1.974,0,0,1,.276-1.89,1.745,1.745,0,0,1,1.046-.525v-.295a.152.152,0,0,1,.069-.12.237.237,0,0,1,.3,0,.155.155,0,0,1,.064.121Zm.865,4.517a.872.872,0,0,0-.071-.366.793.793,0,0,0-.194-.258,1.351,1.351,0,0,0-.29-.191,2.818,2.818,0,0,0-.345-.149v1.73a1.634,1.634,0,0,0,.35-.064.947.947,0,0,0,.284-.14.657.657,0,0,0,.194-.225A.737.737,0,0,0,296.3,360.842Zm-2.088-2.883a1.169,1.169,0,0,0,.068.4.884.884,0,0,0,.177.29,1.014,1.014,0,0,0,.258.2,3.5,3.5,0,0,0,.323.158v-2.018a1.012,1.012,0,0,0-.61.31A.954.954,0,0,0,294.216,357.959Z" transform="translate(-293.559 -355.88)" fill="#f6f6f6"/>
                </g>
              </g>
            </g>
            <path id="Path_893856" data-name="Path 893856" d="M308.7,362.7a1.334,1.334,0,1,1,1.335,1.321A1.33,1.33,0,0,1,308.7,362.7Z" transform="translate(-276.638 -348.379)" fill="#6b8756" fill-rule="evenodd"/>
            <path id="Path_893857" data-name="Path 893857" d="M308.7,356.644a1.334,1.334,0,1,1,1.335,1.325A1.33,1.33,0,0,1,308.7,356.644Z" transform="translate(-276.638 -352.824)" fill="#6b8756" fill-rule="evenodd"/>
            <path id="Path_893858" data-name="Path 893858" d="M290.5,355.879a1.334,1.334,0,1,1,1.335,1.325A1.33,1.33,0,0,1,290.5,355.879Z" transform="translate(-289.996 -353.384)" fill="#6b8756" fill-rule="evenodd"/>
            <ellipse id="Ellipse_11557" data-name="Ellipse 11557" cx="1.334" cy="1.324" rx="1.334" ry="1.324" transform="translate(0.501 11.673)" fill="#6b8756"/>
          </g>
          <path id="Path_893859" data-name="Path 893859" d="M307.12,389.563h0s6.972-10.15,3.608-15.3l-2.3-1.2a5.209,5.209,0,0,1-2.667-5.011c.017-.277.035-.518.047-.7l.092-1.347c.149-2.15.267-3.648.335-4.076a2.723,2.723,0,0,0-1.938-3.126l-.05-.009a2.475,2.475,0,0,0-2.857,2.244,93.8,93.8,0,0,0-1.026,9.978l0,.012a2.128,2.128,0,0,1-.753,1.278c-2.115,2.322-3.012,4.94-3.645,8.728-.968,5.8,1.441,8.529,1.441,8.529v9.723h9.72Z" transform="translate(-286.156 -350.312)" fill="#ffcf9f"/>
          <rect id="Rectangle_405374" data-name="Rectangle 405374" width="7.15" height="12.392" transform="translate(9.819 47.159) rotate(-89.639)" fill="#ededed"/>
          <path id="Path_893860" data-name="Path 893860" d="M308.574,422.531l-.036.016.253.184c.2.147.392.31.591.461V380.234H295.449v35.348A54.4,54.4,0,0,1,307.2,421.6Z" transform="translate(-286.362 -334.54)" fill="#7d3a1b"/>
          <g id="Group_1103246" data-name="Group 1103246" transform="translate(10.357 47.447)">
            <path id="Path_893861" data-name="Path 893861" d="M297.19,384.132a.765.765,0,1,0,.482.969A.766.766,0,0,0,297.19,384.132Z" transform="translate(-296.181 -379.156)" fill="#ededed"/>
            <path id="Path_893862" data-name="Path 893862" d="M297.19,382.7a.765.765,0,1,0,.482.967A.764.764,0,0,0,297.19,382.7Z" transform="translate(-296.181 -380.205)" fill="#ededed"/>
            <path id="Path_893863" data-name="Path 893863" d="M297.19,381.285a.765.765,0,1,0,.482.966A.765.765,0,0,0,297.19,381.285Z" transform="translate(-296.181 -381.245)" fill="#ededed"/>
          </g>
        </g>
        <g id="Group_1103254" data-name="Group 1103254" transform="translate(294.554 393.49)">
          <path id="Path_893864" data-name="Path 893864" d="M282.578,391.242l2.327-.9a2.02,2.02,0,0,0,1.233-2.464l-.012-.036a1.789,1.789,0,0,0-2.391-1.073l-2.325.9A1.888,1.888,0,0,0,282.578,391.242Z" transform="translate(-275.227 -369.449)" fill="#deaa78"/>
          <path id="Path_893865" data-name="Path 893865" d="M282.719,392.744l1.836-.808a1.723,1.723,0,0,0,.85-2.179l-.012-.031a1.5,1.5,0,0,0-2.01-.921l-1.836.808C279.714,390.369,280.675,393.419,282.719,392.744Z" transform="translate(-275.016 -367.95)" fill="#deaa78"/>
          <path id="Path_893866" data-name="Path 893866" d="M282.355,389.453l3.45-1.476c1-.383,1.2-.915.883-1.893l.338-.607a1.785,1.785,0,0,0-2.389-1.072l-3.452,1.472A1.89,1.89,0,0,0,282.355,389.453Z" transform="translate(-275.392 -371.187)" fill="#e6b07c"/>
          <path id="Path_893867" data-name="Path 893867" d="M283.2,386.681c.361-.005,1.446-.154,1.446-.154a1.928,1.928,0,0,0,1.743-2.056l0-.036c-.094-1.021,1.423-1.992.366-1.878l-3.9.39C279.971,383.433,280.519,387.069,283.2,386.681Z" transform="translate(-274.757 -372.453)" fill="#f5c08c"/>
          <path id="Path_893868" data-name="Path 893868" d="M289.729,389.678l-3.739-6.424-.667,5.638Z" transform="translate(-271.53 -371.934)" fill="#f5c08c"/>
          <g id="Group_1103252" data-name="Group 1103252">
            <g id="Group_1103251" data-name="Group 1103251">
              <path id="Path_893869" data-name="Path 893869" d="M277.368,377.836c8.657-3.851,17.312,3.854,25.971,0v10.141c-8.659,3.854-17.314-3.854-25.971,0Z" transform="translate(-277.368 -376.725)" fill="#93ba77" fill-rule="evenodd"/>
              <path id="Path_893870" data-name="Path 893870" d="M278.244,386.752v-8.39c8.073-2.892,16.146,3.593,24.22.7v8.388c-8.075,2.892-16.147-3.593-24.22-.7Zm-.876,1.226c8.657-3.854,17.312,3.854,25.971,0V377.836c-8.659,3.854-17.314-3.851-25.971,0v10.141Z" transform="translate(-277.368 -376.725)" fill="#6b8756" fill-rule="evenodd"/>
              <path id="Path_893871" data-name="Path 893871" d="M283.358,381.277c0-1.989,1.163-3.364,2.6-3.038s2.6,2.166,2.6,4.146-1.163,3.364-2.6,3.038S283.358,383.257,283.358,381.277Z" transform="translate(-272.972 -375.649)" fill="#6b8756" fill-rule="evenodd"/>
              <g id="Group_1103250" data-name="Group 1103250" transform="translate(4.303 2.568)">
                <g id="Group_1103248" data-name="Group 1103248" transform="translate(14.734 2.223)">
                  <path id="Path_893872" data-name="Path 893872" d="M289.737,379.819a1.951,1.951,0,0,1,.517.064,1.539,1.539,0,0,1,.392.163.946.946,0,0,1,.246.208.339.339,0,0,1,.085.21.331.331,0,0,1-.069.191.209.209,0,0,1-.156.107.187.187,0,0,1-.132-.068,1.6,1.6,0,0,0-.179-.156,1.35,1.35,0,0,0-.276-.158,1.063,1.063,0,0,0-.428-.073v1.618c.135.049.272.1.408.153a1.437,1.437,0,0,1,.364.2.972.972,0,0,1,.258.307,1.011,1.011,0,0,1,.1.479,1.14,1.14,0,0,1-.1.491.987.987,0,0,1-.26.34,1.124,1.124,0,0,1-.362.206,1.68,1.68,0,0,1-.411.085v.184a.114.114,0,0,1-.045.088.174.174,0,0,1-.222,0,.119.119,0,0,1-.048-.09v-.173a1.891,1.891,0,0,1-.336-.04,1.927,1.927,0,0,1-.31-.1.777.777,0,0,1-.229-.137.236.236,0,0,1-.09-.173.368.368,0,0,1,.059-.172.168.168,0,0,1,.161-.1.268.268,0,0,1,.108.038c.038.023.087.05.147.081a1.348,1.348,0,0,0,.491.139v-1.392a4.059,4.059,0,0,1-.388-.177,1.428,1.428,0,0,1-.345-.253,1.194,1.194,0,0,1-.248-.374,1.33,1.33,0,0,1-.092-.532,1.1,1.1,0,0,1,.3-.841,1.318,1.318,0,0,1,.777-.333v-.219a.113.113,0,0,1,.048-.087.163.163,0,0,1,.111-.038.16.16,0,0,1,.111.042.112.112,0,0,1,.045.088Zm.642,3.317a.587.587,0,0,0-.052-.267.509.509,0,0,0-.144-.182.946.946,0,0,0-.213-.132c-.081-.038-.166-.073-.255-.106v1.283a1.1,1.1,0,0,0,.258-.054.675.675,0,0,0,.21-.113.512.512,0,0,0,.144-.179A.543.543,0,0,0,290.378,383.136Zm-1.543-2.146a.847.847,0,0,0,.049.3.775.775,0,0,0,.13.225.831.831,0,0,0,.194.163,1.888,1.888,0,0,0,.236.125V380.31a.758.758,0,0,0-.451.208A.657.657,0,0,0,288.835,380.99Z" transform="translate(-288.348 -379.488)" fill="#f6f6f6"/>
                </g>
                <g id="Group_1103249" data-name="Group 1103249">
                  <path id="Path_893873" data-name="Path 893873" d="M281.241,378.537a1.591,1.591,0,0,1,.517.083,1.566,1.566,0,0,1,.392.2,1.082,1.082,0,0,1,.246.239.39.39,0,0,1,.085.222.3.3,0,0,1-.069.182.18.18,0,0,1-.156.085.215.215,0,0,1-.132-.081,1.569,1.569,0,0,0-.179-.175,1.281,1.281,0,0,0-.276-.179.965.965,0,0,0-.428-.088v1.618c.135.052.272.106.407.165a1.5,1.5,0,0,1,.364.227,1.137,1.137,0,0,1,.258.336,1.1,1.1,0,0,1,.1.494,1.028,1.028,0,0,1-.1.477.884.884,0,0,1-.26.312,1.151,1.151,0,0,1-.362.175,2.11,2.11,0,0,1-.411.073v.184a.111.111,0,0,1-.045.087.169.169,0,0,1-.113.04.163.163,0,0,1-.109-.042.1.1,0,0,1-.049-.087v-.173a2.225,2.225,0,0,1-.336-.026,2,2,0,0,1-.31-.068.7.7,0,0,1-.229-.109.206.206,0,0,1-.09-.161.409.409,0,0,1,.059-.18.19.19,0,0,1,.161-.114.221.221,0,0,1,.107.026l.146.066a1.383,1.383,0,0,0,.208.071,1.673,1.673,0,0,0,.284.04v-1.391c-.132-.049-.26-.1-.388-.158a1.279,1.279,0,0,1-.345-.222.988.988,0,0,1-.248-.342,1.26,1.26,0,0,1-.094-.518,1.239,1.239,0,0,1,.3-.883,1.31,1.31,0,0,1,.777-.39v-.219a.1.1,0,0,1,.049-.087.164.164,0,0,1,.109-.04.162.162,0,0,1,.113.042.111.111,0,0,1,.045.087Zm.642,3.345a.617.617,0,0,0-.052-.27.54.54,0,0,0-.144-.191.865.865,0,0,0-.213-.142,2.276,2.276,0,0,0-.255-.111v1.281a1.206,1.206,0,0,0,.258-.047.72.72,0,0,0,.21-.1.445.445,0,0,0,.144-.166A.522.522,0,0,0,281.882,381.882Zm-1.543-2.134a.817.817,0,0,0,.049.3.679.679,0,0,0,.13.215.832.832,0,0,0,.194.151,2.5,2.5,0,0,0,.236.116v-1.5a.749.749,0,0,0-.451.232A.708.708,0,0,0,280.339,379.747Z" transform="translate(-279.85 -378.206)" fill="#f6f6f6"/>
                </g>
              </g>
            </g>
            <path id="Path_893874" data-name="Path 893874" d="M291.066,383.258a.988.988,0,1,1,.988.98A.984.984,0,0,1,291.066,383.258Z" transform="translate(-267.316 -372.651)" fill="#6b8756" fill-rule="evenodd"/>
            <path id="Path_893875" data-name="Path 893875" d="M291.066,378.772a.988.988,0,1,1,.988.98A.984.984,0,0,1,291.066,378.772Z" transform="translate(-267.316 -375.943)" fill="#6b8756" fill-rule="evenodd"/>
            <path id="Path_893876" data-name="Path 893876" d="M277.582,378.206a.989.989,0,1,1,.988.981A.984.984,0,0,1,277.582,378.206Z" transform="translate(-277.211 -376.357)" fill="#6b8756" fill-rule="evenodd"/>
            <path id="Path_893877" data-name="Path 893877" d="M277.582,382.692a.989.989,0,1,1,.988.981A.984.984,0,0,1,277.582,382.692Z" transform="translate(-277.211 -373.065)" fill="#6b8756" fill-rule="evenodd"/>
          </g>
          <path id="Path_893878" data-name="Path 893878" d="M289.895,403.157h0s5.165-7.52,2.672-11.331l-1.7-.889a3.857,3.857,0,0,1-1.975-3.711c.014-.2.026-.385.036-.522l.068-1c.109-1.593.2-2.7.246-3.019a2.014,2.014,0,0,0-1.436-2.315l-.038-.007a1.832,1.832,0,0,0-2.115,1.661,69.883,69.883,0,0,0-.761,7.391v.009a1.573,1.573,0,0,1-.558.947c-1.566,1.72-2.231,3.66-2.7,6.466-.716,4.3,1.068,6.318,1.068,6.318v7.2h7.2Z" transform="translate(-274.366 -374.082)" fill="#ffcf9f"/>
          <rect id="Rectangle_405375" data-name="Rectangle 405375" width="5.296" height="9.179" transform="translate(7.274 34.934) rotate(-89.652)" fill="#ededed"/>
          <path id="Path_893879" data-name="Path 893879" d="M290.611,401.15l.961.224v-5.127H281.25V401.6l1.912-.446A22.7,22.7,0,0,1,290.611,401.15Z" transform="translate(-274.519 -362.399)" fill="#575756"/>
          <g id="Group_1103253" data-name="Group 1103253" transform="translate(7.672 35.145)">
            <path id="Path_893880" data-name="Path 893880" d="M282.54,399.134a.566.566,0,1,0,.357.716A.567.567,0,0,0,282.54,399.134Z" transform="translate(-281.793 -395.447)" fill="#ededed"/>
            <path id="Path_893881" data-name="Path 893881" d="M282.54,398.076a.567.567,0,1,0,.357.716A.566.566,0,0,0,282.54,398.076Z" transform="translate(-281.793 -396.224)" fill="#ededed"/>
            <path id="Path_893882" data-name="Path 893882" d="M282.54,397.024a.567.567,0,1,0,.357.718A.567.567,0,0,0,282.54,397.024Z" transform="translate(-281.793 -396.995)" fill="#ededed"/>
          </g>
        </g>
        <g id="Group_1103255" data-name="Group 1103255" transform="translate(253.949 432.153)">
          <path id="Path_893883" data-name="Path 893883" d="M309.055,427.361c-.286-3.006-.69-5.926-1.208-8.728a219.725,219.725,0,0,1-22.863,1.257v7.471Z" transform="translate(-231.174 -384.634)" fill="#ffce73"/>
          <path id="Path_893884" data-name="Path 893884" d="M284.984,408.416V426.8a222.223,222.223,0,0,0,22.552-1.214,70.42,70.42,0,0,0-6.36-18.661A95.3,95.3,0,0,1,284.984,408.416Z" transform="translate(-231.174 -393.224)" fill="#ffce73"/>
          <path id="Path_893885" data-name="Path 893885" d="M289.289,399.557c3.547,2.32,6.776,6.082,9.519,10.948a78.183,78.183,0,0,0,7.773-1.892A40.207,40.207,0,0,0,289.289,399.557Z" transform="translate(-228.015 -398.633)" fill="#ffce73"/>
          <path id="Path_893886" data-name="Path 893886" d="M292.675,399.606a43.5,43.5,0,0,1,13.278,8.381c.961-.317,1.89-.657,2.8-1.007A53.837,53.837,0,0,0,292.675,399.606Z" transform="translate(-225.53 -398.597)" fill="#ffce73"/>
          <path id="Path_893887" data-name="Path 893887" d="M284.984,399.024v13.514a95.2,95.2,0,0,0,15.346-1.344C296.134,403.919,290.8,399.423,284.984,399.024Z" transform="translate(-231.174 -399.024)" fill="#ffce73"/>
          <path id="Path_893888" data-name="Path 893888" d="M276.181,426.453a72.771,72.771,0,0,1,6.389-18.8,78.1,78.1,0,0,1-8.338-2.146,52.843,52.843,0,0,0-12.508,18.734C266.326,425.135,271.156,425.879,276.181,426.453Z" transform="translate(-248.243 -394.264)" fill="#ffce73"/>
          <path id="Path_893889" data-name="Path 893889" d="M293.561,426.8V408.416a95.3,95.3,0,0,1-16.192-1.488,70.422,70.422,0,0,0-6.36,18.661A222.224,222.224,0,0,0,293.561,426.8Z" transform="translate(-241.43 -393.224)" fill="#ffce73"/>
          <path id="Path_893890" data-name="Path 893890" d="M287.031,399.557a40.2,40.2,0,0,0-17.292,9.056,77.947,77.947,0,0,0,7.773,1.892C280.255,405.639,283.481,401.877,287.031,399.557Z" transform="translate(-242.362 -398.633)" fill="#ffce73"/>
          <path id="Path_893891" data-name="Path 893891" d="M275.165,411.194a95.2,95.2,0,0,0,15.346,1.344V399.024C284.692,399.423,279.363,403.919,275.165,411.194Z" transform="translate(-238.38 -399.024)" fill="#ffce73"/>
          <path id="Path_893892" data-name="Path 893892" d="M294.206,427.361V419.89a219.7,219.7,0,0,1-22.864-1.257c-.518,2.8-.922,5.722-1.208,8.728Z" transform="translate(-242.072 -384.634)" fill="#ffce73"/>
          <path id="Path_893893" data-name="Path 893893" d="M304.134,404.5c-.985.4-2,.787-3.036,1.151a54.883,54.883,0,0,1,12.38,19.008q3.451-.707,6.7-1.526A54.22,54.22,0,0,0,304.134,404.5Z" transform="translate(-219.349 -395.005)" fill="#ffce73"/>
          <path id="Path_893894" data-name="Path 893894" d="M316.772,428.414a60.947,60.947,0,0,0-2.934-11.216c-4.685.931-9.6,1.706-14.719,2.3.534,2.866.952,5.845,1.241,8.914Z" transform="translate(-220.8 -385.687)" fill="#ffce73"/>
          <path id="Path_893895" data-name="Path 893895" d="M275.979,405.651c-1.04-.364-2.049-.751-3.034-1.151a54.23,54.23,0,0,0-16.05,18.634q3.256.817,6.7,1.526A54.907,54.907,0,0,1,275.979,405.651Z" transform="translate(-251.787 -395.005)" fill="#ffce73"/>
          <path id="Path_893896" data-name="Path 893896" d="M303.589,405.51a78.07,78.07,0,0,1-8.336,2.146,72.707,72.707,0,0,1,6.388,18.8c5.026-.574,9.857-1.318,14.457-2.209A52.8,52.8,0,0,0,303.589,405.51Z" transform="translate(-223.638 -394.264)" fill="#ffce73"/>
          <path id="Path_893897" data-name="Path 893897" d="M269.851,407.987a43.511,43.511,0,0,1,13.28-8.381,53.723,53.723,0,0,0-16.078,7.374C267.963,407.33,268.891,407.67,269.851,407.987Z" transform="translate(-244.333 -398.597)" fill="#ffce73"/>
          <path id="Path_893898" data-name="Path 893898" d="M319.808,429.233a53.468,53.468,0,0,0-4.368-13.151q-3.337.856-6.871,1.6a62.582,62.582,0,0,1,2.968,11.549Z" transform="translate(-213.866 -386.506)" fill="#ffce73"/>
          <path id="Path_893899" data-name="Path 893899" d="M262.219,429.233a62.444,62.444,0,0,1,2.97-11.549q-3.54-.741-6.873-1.6a53.464,53.464,0,0,0-4.368,13.151Z" transform="translate(-253.949 -386.506)" fill="#ffce73"/>
          <path id="Path_893900" data-name="Path 893900" d="M276.11,428.414c.289-3.069.707-6.048,1.241-8.914-5.115-.6-10.034-1.372-14.719-2.3a60.952,60.952,0,0,0-2.934,11.216Z" transform="translate(-249.729 -385.687)" fill="#ffce73"/>
        </g>
      </g>
    </g>
  </g>
</svg>
