<svg xmlns="http://www.w3.org/2000/svg" xmlns:xlink="http://www.w3.org/1999/xlink" width="189" height="189" viewBox="0 0 189 189">
  <defs>
    <clipPath id="clip-path">
      <rect id="Rectangle_405365" data-name="Rectangle 405365" width="117" height="121" transform="translate(720.625 6189)" fill="#fff" stroke="#707070" stroke-width="1"/>
    </clipPath>
  </defs>
  <g id="Group_1104221" data-name="Group 1104221" transform="translate(-705 -5939.701)">
    <g id="Group_1102911" data-name="Group 1102911" transform="translate(705 5939.701)">
      <path id="Path_608379" data-name="Path 608379" d="M94.5,0A94.5,94.5,0,1,1,0,94.5,94.5,94.5,0,0,1,94.5,0Z" fill="#6a4d23"/>
    </g>
    <g id="Group_1102914" data-name="Group 1102914" transform="translate(716.537 5949.238)">
      <circle id="Ellipse_1142" data-name="Ellipse 1142" cx="83.5" cy="83.5" r="83.5" transform="translate(-0.537 -0.537)" fill="#fff"/>
    </g>
    <g id="Mask_Group_1098723" data-name="Mask Group 1098723" transform="translate(21 -218)" clip-path="url(#clip-path)">
      <g id="Group_1103233" data-name="Group 1103233" transform="translate(706.931 5953.02)">
        <g id="Group_1103219" data-name="Group 1103219" transform="translate(46.261 321.555)">
          <g id="Group_1103218" data-name="Group 1103218">
            <path id="Path_893776" data-name="Path 893776" d="M37.679,306.253V325.5c16.432-7.314,32.864,7.314,49.3,0V306.253C70.543,313.568,54.111,298.939,37.679,306.253Z" transform="translate(-37.679 -299.941)" fill="#4b5e3c" fill-rule="evenodd"/>
            <path id="Path_893777" data-name="Path 893777" d="M38.9,304.713v19.248c16.433-7.314,32.865,7.314,49.3,0V304.713C71.767,312.028,55.335,297.4,38.9,304.713Z" transform="translate(-37.241 -300.492)" fill="#5d754b" fill-rule="evenodd"/>
            <g id="Group_1103217" data-name="Group 1103217" transform="translate(3.336)">
              <path id="Path_893778" data-name="Path 893778" d="M89.432,322.406c-16.432,7.314-32.864-7.313-49.3,0V303.159c16.432-7.314,32.864,7.313,49.3,0Z" transform="translate(-40.136 -301.048)" fill="#93ba77" fill-rule="evenodd"/>
              <path id="Path_893779" data-name="Path 893779" d="M87.77,305.487v15.924c-15.324,5.488-30.65-6.82-45.974-1.332V304.153c15.324-5.488,30.65,6.82,45.974,1.333Zm1.662-2.327c-16.432,7.313-32.864-7.314-49.3,0v19.247c16.432-7.313,32.864,7.314,49.3,0V303.159Z" transform="translate(-40.136 -301.048)" fill="#6b8756" fill-rule="evenodd"/>
              <path id="Path_893780" data-name="Path 893780" d="M64.522,312.566c0,3.771-2.209,6.382-4.933,5.765s-4.934-4.111-4.933-7.874,2.208-6.383,4.933-5.765S64.522,308.8,64.522,312.566Z" transform="translate(-34.941 -299.776)" fill="#6b8756" fill-rule="evenodd"/>
              <g id="Group_1103216" data-name="Group 1103216" transform="translate(8.167 4.876)">
                <g id="Group_1103214" data-name="Group 1103214">
                  <path id="Path_893781" data-name="Path 893781" d="M48.5,313.511a3.611,3.611,0,0,1-.979-.121,3.02,3.02,0,0,1-.741-.31,1.688,1.688,0,0,1-.47-.4.665.665,0,0,1-.163-.4.64.64,0,0,1,.133-.364.4.4,0,0,1,.3-.2.348.348,0,0,1,.248.126,3.445,3.445,0,0,0,.341.3,2.711,2.711,0,0,0,.521.3,2.032,2.032,0,0,0,.812.137v-3.07q-.383-.14-.771-.288a2.752,2.752,0,0,1-.688-.377,1.808,1.808,0,0,1-.493-.583,1.894,1.894,0,0,1-.191-.908,2.159,2.159,0,0,1,.186-.934,1.874,1.874,0,0,1,.492-.645,2.15,2.15,0,0,1,.69-.388,3.221,3.221,0,0,1,.777-.163v-.349a.218.218,0,0,1,.087-.167.3.3,0,0,1,.215-.072.313.313,0,0,1,.208.077.224.224,0,0,1,.094.172v.329a3.143,3.143,0,0,1,.637.077,3.6,3.6,0,0,1,.591.179,1.492,1.492,0,0,1,.434.259.441.441,0,0,1,.168.326.691.691,0,0,1-.11.331.318.318,0,0,1-.307.178.452.452,0,0,1-.2-.071c-.075-.042-.167-.094-.278-.152a2.463,2.463,0,0,0-.394-.164,2.7,2.7,0,0,0-.539-.1v2.642a8.06,8.06,0,0,1,.736.337,2.642,2.642,0,0,1,.654.481,2.237,2.237,0,0,1,.468.711,2.531,2.531,0,0,1,.181,1.01,2.079,2.079,0,0,1-.568,1.594,2.508,2.508,0,0,1-1.472.634v.414a.208.208,0,0,1-.094.164.315.315,0,0,1-.208.072.321.321,0,0,1-.215-.077.222.222,0,0,1-.087-.168Zm-1.217-6.295a1.174,1.174,0,0,0,.1.507.988.988,0,0,0,.273.345,2,2,0,0,0,.406.25c.153.071.315.137.486.2v-2.435a2.058,2.058,0,0,0-.493.1,1.358,1.358,0,0,0-.4.215.99.99,0,0,0-.273.339A1.076,1.076,0,0,0,47.287,307.216Zm2.931,4.073a1.679,1.679,0,0,0-.092-.573,1.4,1.4,0,0,0-.25-.428,1.6,1.6,0,0,0-.364-.311,3.643,3.643,0,0,0-.453-.236v2.836a1.419,1.419,0,0,0,.858-.394A1.248,1.248,0,0,0,50.219,311.289Z" transform="translate(-46.151 -304.639)" fill="#f6f6f6"/>
                </g>
                <g id="Group_1103215" data-name="Group 1103215" transform="translate(27.967 4.219)">
                  <path id="Path_893782" data-name="Path 893782" d="M69.1,316.619a3.083,3.083,0,0,1-.98-.159,2.917,2.917,0,0,1-.741-.376,2.008,2.008,0,0,1-.468-.458.752.752,0,0,1-.163-.421.567.567,0,0,1,.133-.346.341.341,0,0,1,.3-.159.4.4,0,0,1,.25.156,3.5,3.5,0,0,0,.341.331,2.727,2.727,0,0,0,.521.339,1.863,1.863,0,0,0,.812.166v-3.071c-.257-.1-.512-.2-.771-.314a2.739,2.739,0,0,1-.69-.43,2.066,2.066,0,0,1-.493-.638,2.088,2.088,0,0,1-.191-.934,1.988,1.988,0,0,1,.186-.908,1.655,1.655,0,0,1,.493-.591,2.153,2.153,0,0,1,.69-.334,3.877,3.877,0,0,1,.777-.137v-.348a.216.216,0,0,1,.086-.167.333.333,0,0,1,.424,0,.213.213,0,0,1,.092.168v.327a4.254,4.254,0,0,1,.637.048,4.527,4.527,0,0,1,.592.129,1.424,1.424,0,0,1,.434.209.38.38,0,0,1,.168.3.761.761,0,0,1-.111.345.362.362,0,0,1-.307.216.422.422,0,0,1-.2-.047c-.073-.035-.167-.079-.278-.128a2.513,2.513,0,0,0-.394-.133,3.152,3.152,0,0,0-.539-.079v2.642c.247.09.493.191.736.3a2.5,2.5,0,0,1,.654.418,1.924,1.924,0,0,1,.47.65,2.369,2.369,0,0,1,.179.983,2.342,2.342,0,0,1-.568,1.674,2.457,2.457,0,0,1-1.472.741V317a.215.215,0,0,1-.092.168.324.324,0,0,1-.209.075.319.319,0,0,1-.215-.076A.229.229,0,0,1,69.1,317Zm-1.218-6.352a1.2,1.2,0,0,0,.1.515,1.072,1.072,0,0,0,.273.365,1.816,1.816,0,0,0,.406.267,4.52,4.52,0,0,0,.486.21v-2.433a2.366,2.366,0,0,0-.494.091,1.342,1.342,0,0,0-.4.2.886.886,0,0,0-.273.319A1.014,1.014,0,0,0,67.883,310.267Zm2.931,4.056a1.571,1.571,0,0,0-.092-.564,1.292,1.292,0,0,0-.248-.409,1.516,1.516,0,0,0-.365-.286,4.523,4.523,0,0,0-.452-.22v2.839a1.437,1.437,0,0,0,.858-.439A1.339,1.339,0,0,0,70.815,314.323Z" transform="translate(-66.748 -307.746)" fill="#f6f6f6"/>
                </g>
              </g>
            </g>
          </g>
          <path id="Path_893783" data-name="Path 893783" d="M44.228,303.995a1.876,1.876,0,1,1-1.876-1.862A1.868,1.868,0,0,1,44.228,303.995Z" transform="translate(-36.678 -300.66)" fill="#6b8756" fill-rule="evenodd"/>
          <path id="Path_893784" data-name="Path 893784" d="M44.228,314.87a1.876,1.876,0,1,1-1.876-1.862A1.869,1.869,0,0,1,44.228,314.87Z" transform="translate(-36.678 -296.768)" fill="#6b8756" fill-rule="evenodd"/>
          <ellipse id="Ellipse_11555" data-name="Ellipse 11555" cx="1.876" cy="1.862" rx="1.876" ry="1.862" transform="translate(48.176 18.101)" fill="#6b8756"/>
          <ellipse id="Ellipse_11556" data-name="Ellipse 11556" cx="1.876" cy="1.862" rx="1.876" ry="1.862" transform="translate(48.176 3.335)" fill="#6b8756"/>
        </g>
        <g id="Group_1103226" data-name="Group 1103226" transform="translate(13.694 243.733)">
          <g id="Group_1103221" data-name="Group 1103221" transform="translate(0 12.519)">
            <g id="Group_1103220" data-name="Group 1103220">
              <path id="Path_893785" data-name="Path 893785" d="M33.721,273.808l0-2.717c-1.293,1.495-2.358,1.859-4.8,1.856h-.086c-2.445,0-3.511-.369-4.8-1.867l0,2.717,4.841,4.633Z" transform="translate(-9.996 -246.467)" fill="#f2c28d"/>
              <path id="Path_893786" data-name="Path 893786" d="M25.617,279.487l-2.562.221-1.082-4.455h0l-4.155,1.058a5.979,5.979,0,0,0-4.117,5.677l-.007,6.732h1.54l4.452,0h1.241l7.3.008L23.491,281Z" transform="translate(-13.694 -244.974)" fill="#0593a1"/>
              <path id="Path_893787" data-name="Path 893787" d="M41.209,276.336l-4.152-1.066h0l-1.092,4.452L33.4,279.5l2.121,1.519-4.748,7.723,7.3.007h1.242l4.451.005h1.54l.008-6.731A5.98,5.98,0,0,0,41.209,276.336Z" transform="translate(-7.582 -244.968)" fill="#0593a1"/>
              <path id="Path_893788" data-name="Path 893788" d="M25.491,278.927l-1.051-1.11,2.388,8.131.594-6.53-.216-1.964Z" transform="translate(-9.849 -244.187)" fill="#ededed"/>
              <path id="Path_893789" data-name="Path 893789" d="M28.769,277.456l-.22,1.964.58,6.532,2.405-8.126-1.054,1.107Z" transform="translate(-8.379 -244.186)" fill="#ededed"/>
              <path id="Path_893790" data-name="Path 893790" d="M24.868,279.382l1.051,1.11,1.714-1.473,1.519-1.3-4.84-4.633-1.071.765Z" transform="translate(-10.278 -245.751)" fill="#c6c6c6"/>
              <path id="Path_893791" data-name="Path 893791" d="M29.111,279.019l1.711,1.477,1.054-1.107,1.638-5.533-1.069-.766-4.85,4.622Z" transform="translate(-8.72 -245.748)" fill="#c6c6c6"/>
              <path id="Path_893792" data-name="Path 893792" d="M28,276.493l-1.519,1.3.216,1.964,2.6,0,.22-1.964Z" transform="translate(-9.12 -244.53)" fill="#28324e"/>
              <path id="Path_893793" data-name="Path 893793" d="M29.391,278.9l-2.6,0-.594,6.53.588,2,2.592,0,.593-2Z" transform="translate(-9.22 -243.669)" fill="#485678"/>
              <path id="Path_893794" data-name="Path 893794" d="M30.3,278.175h.086c2.445,0,3.511-.361,4.8-1.856a31.911,31.911,0,0,0,1.98-2.7,12.53,12.53,0,0,0,1.6-4.322,1.017,1.017,0,0,0,.151.046.936.936,0,0,0,.511-.058c.714-.267.936-1.282,1.149-2.593.263-1.617.191-3.06-.7-3.207a1.52,1.52,0,0,0-1.394.815l.005-4.36a3.452,3.452,0,0,0-3.452-3.457l-9.327-.011a3.454,3.454,0,0,0-3.46,3.452l0,4.359a1.52,1.52,0,0,0-1.392-.817c-.9.145-1.05,1.587-.789,3.2.21,1.313.506,2.327,1.221,2.6a.957.957,0,0,0,.509.057.871.871,0,0,0,.151-.045,12.511,12.511,0,0,0,1.589,4.325,31.2,31.2,0,0,0,1.973,2.706C26.786,277.805,27.852,278.172,30.3,278.175Z" transform="translate(-11.459 -251.695)" fill="#ffd2a1"/>
              <path id="Path_893795" data-name="Path 893795" d="M22.073,265.537l0-4.359a3.454,3.454,0,0,1,3.46-3.451l9.327.011a3.452,3.452,0,0,1,3.452,3.457l-.005,4.36a1.52,1.52,0,0,1,1.394-.815l.288-3.761a7.322,7.322,0,0,0-2.007-5.287c-1.942-2.064-3.885-2.735-7.772-2.739H30.2c-3.887,0-5.832.661-7.777,2.722a7.322,7.322,0,0,0-2.018,5.283l.28,3.761A1.52,1.52,0,0,1,22.073,265.537Z" transform="translate(-11.296 -252.953)" fill="#7d4e24"/>
              <path id="Path_893796" data-name="Path 893796" d="M34.2,280.074l2.561.227,1.092-4.453h0l-4.681-2.194h0l-1.638,5.533-2.405,8.126-.593,2h.77l1.465,0h.8l4.748-7.722Z" transform="translate(-8.382 -245.546)" fill="#06a5b5"/>
              <path id="Path_893797" data-name="Path 893797" d="M26.1,279.181l-1.626-5.536h0l-4.686,2.184h0l1.083,4.455,2.561-.221-2.125,1.516,4.732,7.732h3.038l-.588-2Z" transform="translate(-11.513 -245.55)" fill="#06a5b5"/>
            </g>
          </g>
          <g id="Group_1103223" data-name="Group 1103223" transform="translate(39.648)">
            <g id="Group_1103222" data-name="Group 1103222">
              <path id="Path_893798" data-name="Path 893798" d="M62.921,264.588l0-2.718c-1.293,1.495-2.358,1.859-4.8,1.856h-.086c-2.447,0-3.511-.369-4.8-1.867l0,2.718,4.841,4.631Z" transform="translate(-39.196 -237.248)" fill="#f2c28d"/>
              <path id="Path_893799" data-name="Path 893799" d="M54.815,270.265l-2.561.223-1.084-4.455h0l-4.154,1.056a5.984,5.984,0,0,0-4.117,5.678l-.007,6.731h1.54l4.452.005h1.242l7.294.008-4.732-7.733Z" transform="translate(-42.894 -235.754)" fill="#28324e"/>
              <path id="Path_893800" data-name="Path 893800" d="M70.409,267.116l-4.152-1.066h0L65.164,270.5l-2.559-.225,2.121,1.518-4.748,7.724,7.3.007h1.241l4.452,0h1.541l.007-6.731A5.982,5.982,0,0,0,70.409,267.116Z" transform="translate(-36.782 -235.748)" fill="#28324e"/>
              <path id="Path_893801" data-name="Path 893801" d="M54.691,269.707,53.639,268.6l2.389,8.129.594-6.53-.217-1.964Z" transform="translate(-39.049 -234.967)" fill="#ededed"/>
              <path id="Path_893802" data-name="Path 893802" d="M57.969,268.236l-.22,1.962.58,6.532,2.405-8.124-1.054,1.106Z" transform="translate(-37.579 -234.966)" fill="#ededed"/>
              <path id="Path_893803" data-name="Path 893803" d="M54.068,270.162l1.051,1.108,1.714-1.473,1.519-1.3-4.84-4.632-1.071.764Z" transform="translate(-39.478 -236.531)" fill="#c6c6c6"/>
              <path id="Path_893804" data-name="Path 893804" d="M58.31,269.8l1.712,1.476,1.054-1.106,1.638-5.533-1.069-.766-4.85,4.621Z" transform="translate(-37.92 -236.528)" fill="#c6c6c6"/>
              <path id="Path_893805" data-name="Path 893805" d="M57.2,267.273l-1.519,1.3.217,1.964,2.6,0,.22-1.962Z" transform="translate(-38.321 -235.311)" fill="#b6312f"/>
              <path id="Path_893806" data-name="Path 893806" d="M58.59,269.682l-2.6,0-.594,6.53.588,2,2.592,0,.592-2Z" transform="translate(-38.42 -234.449)" fill="#cf4941"/>
              <path id="Path_893807" data-name="Path 893807" d="M59.5,268.954h.086c2.445,0,3.511-.361,4.8-1.856a31.36,31.36,0,0,0,1.978-2.7,12.539,12.539,0,0,0,1.6-4.322.868.868,0,0,0,.151.045.95.95,0,0,0,.511-.057c.714-.269.936-1.282,1.147-2.595.265-1.617.193-3.059-.7-3.207a1.521,1.521,0,0,0-1.393.816l0-4.36a3.452,3.452,0,0,0-3.45-3.458l-9.328-.011A3.454,3.454,0,0,0,51.44,250.7l0,4.36a1.522,1.522,0,0,0-1.392-.819c-.9.145-1.05,1.587-.789,3.207.21,1.312.506,2.326,1.219,2.6a.965.965,0,0,0,.511.06,1.131,1.131,0,0,0,.151-.046,12.53,12.53,0,0,0,1.587,4.325,31.739,31.739,0,0,0,1.973,2.7C55.986,268.584,57.05,268.951,59.5,268.954Z" transform="translate(-40.659 -242.475)" fill="#ffd2a1"/>
              <path id="Path_893808" data-name="Path 893808" d="M51.273,256.317l0-4.36a3.454,3.454,0,0,1,3.458-3.452l9.328.011a3.452,3.452,0,0,1,3.45,3.458l0,4.36a1.521,1.521,0,0,1,1.393-.816l.289-3.76a7.32,7.32,0,0,0-2.007-5.287c-1.942-2.065-3.885-2.735-7.772-2.739H59.4c-3.887,0-5.832.663-7.779,2.721a7.323,7.323,0,0,0-2.016,5.283l.28,3.761A1.522,1.522,0,0,1,51.273,256.317Z" transform="translate(-40.496 -243.733)" fill="#3c3c3b"/>
              <path id="Path_893809" data-name="Path 893809" d="M63.4,270.854l2.561.225,1.093-4.451h0l-4.681-2.194h0l-1.638,5.533-2.405,8.124-.592,2h3.038l4.748-7.724Z" transform="translate(-37.582 -236.326)" fill="#485678"/>
              <path id="Path_893810" data-name="Path 893810" d="M55.3,269.961l-1.626-5.537h0l-4.686,2.185h0l1.083,4.454,2.561-.221-2.125,1.516,4.731,7.733h3.038l-.588-2Z" transform="translate(-40.713 -236.33)" fill="#485678"/>
            </g>
          </g>
          <g id="Group_1103225" data-name="Group 1103225" transform="translate(79.268 12.604)">
            <g id="Group_1103224" data-name="Group 1103224" transform="translate(0)">
              <path id="Path_893811" data-name="Path 893811" d="M92.1,273.87l0-2.718c-1.293,1.495-2.358,1.86-4.8,1.857h-.086c-2.447,0-3.511-.371-4.8-1.867l0,2.718,4.839,4.631Z" transform="translate(-68.375 -246.531)" fill="#f2c28d"/>
              <path id="Path_893812" data-name="Path 893812" d="M84,279.55l-2.562.22-1.084-4.455h0L76.2,276.373a5.981,5.981,0,0,0-4.117,5.677l-.007,6.731h1.54l4.452.005h1.242l7.294.008-4.732-7.733Z" transform="translate(-72.074 -245.037)" fill="#61554e"/>
              <path id="Path_893813" data-name="Path 893813" d="M99.589,276.4l-4.152-1.066h0l-1.093,4.452-2.559-.227,2.121,1.521L89.158,288.8l7.294.008h1.242l4.452,0h1.54l.007-6.731A5.981,5.981,0,0,0,99.589,276.4Z" transform="translate(-65.961 -245.031)" fill="#61554e"/>
              <path id="Path_893814" data-name="Path 893814" d="M83.871,278.989l-1.052-1.108,2.388,8.13.595-6.53-.217-1.964Z" transform="translate(-68.229 -244.25)" fill="#ededed"/>
              <path id="Path_893815" data-name="Path 893815" d="M87.149,277.519l-.22,1.962.58,6.532,2.405-8.124L88.861,279Z" transform="translate(-66.759 -244.249)" fill="#ededed"/>
              <path id="Path_893816" data-name="Path 893816" d="M83.248,279.445l1.052,1.108,1.714-1.473,1.519-1.3-4.84-4.632-1.071.764Z" transform="translate(-68.658 -245.814)" fill="#c6c6c6"/>
              <path id="Path_893817" data-name="Path 893817" d="M87.491,279.081l1.712,1.477,1.053-1.107,1.638-5.533-1.069-.766-4.85,4.621Z" transform="translate(-67.1 -245.812)" fill="#c6c6c6"/>
              <path id="Path_893818" data-name="Path 893818" d="M86.375,276.555l-1.519,1.3.217,1.964,2.6,0,.22-1.962Z" transform="translate(-67.501 -244.594)" fill="#de8e22"/>
              <path id="Path_893819" data-name="Path 893819" d="M87.77,278.965l-2.6,0-.595,6.53.589,2,2.592,0,.592-2Z" transform="translate(-67.6 -243.733)" fill="#f89f26"/>
              <path id="Path_893820" data-name="Path 893820" d="M88.677,278.237h.086c2.445,0,3.511-.363,4.8-1.857a31.138,31.138,0,0,0,1.978-2.7,12.49,12.49,0,0,0,1.6-4.32,1.361,1.361,0,0,0,.149.046.963.963,0,0,0,.511-.058c.714-.269.936-1.283,1.149-2.595.263-1.619.191-3.061-.7-3.208a1.523,1.523,0,0,0-1.393.816l0-4.359a3.454,3.454,0,0,0-3.452-3.46l-9.327-.009a3.453,3.453,0,0,0-3.46,3.452l0,4.359a1.518,1.518,0,0,0-1.392-.817c-.9.144-1.05,1.587-.789,3.206.21,1.313.506,2.326,1.221,2.6a.948.948,0,0,0,.511.058.993.993,0,0,0,.149-.046,12.53,12.53,0,0,0,1.587,4.325,31.674,31.674,0,0,0,1.974,2.706C85.166,277.866,86.23,278.234,88.677,278.237Z" transform="translate(-69.839 -251.758)" fill="#ffd2a1"/>
              <path id="Path_893821" data-name="Path 893821" d="M80.453,265.6l0-4.358a3.453,3.453,0,0,1,3.46-3.452l9.327.01a3.454,3.454,0,0,1,3.452,3.46l0,4.359a1.523,1.523,0,0,1,1.393-.816l.288-3.76a7.32,7.32,0,0,0-2.007-5.287c-1.942-2.064-3.885-2.733-7.772-2.737h-.016c-3.887,0-5.832.661-7.777,2.721a7.313,7.313,0,0,0-2.018,5.282l.28,3.762A1.518,1.518,0,0,1,80.453,265.6Z" transform="translate(-69.676 -253.016)" fill="#f07934"/>
              <path id="Path_893822" data-name="Path 893822" d="M92.584,280.136l2.56.227,1.093-4.453h0l-4.681-2.194h0l-1.638,5.533-2.405,8.124-.592,2h3.038l4.748-7.722Z" transform="translate(-66.762 -245.61)" fill="#a18d81"/>
              <path id="Path_893823" data-name="Path 893823" d="M84.483,279.243l-1.626-5.537h0l-4.686,2.185h0l1.083,4.454,2.561-.22-2.126,1.514,4.732,7.733h.8l1.465,0h.77l-.589-2Z" transform="translate(-69.893 -245.613)" fill="#a18d81"/>
            </g>
          </g>
        </g>
        <g id="Group_1103228" data-name="Group 1103228" transform="translate(68.261 289.934)">
          <rect id="Rectangle_405366" data-name="Rectangle 405366" width="2.716" height="19.866" transform="translate(2.587)" fill="#f35d4b"/>
          <g id="Group_1103227" data-name="Group 1103227" transform="translate(0 17.175)">
            <path id="Path_893824" data-name="Path 893824" d="M53.882,290.409l3.945,14.72,3.945-14.72Z" transform="translate(-53.882 -290.409)" fill="#f35d4b"/>
          </g>
        </g>
        <g id="Group_1103230" data-name="Group 1103230" transform="translate(32.911 302.091)">
          <rect id="Rectangle_405367" data-name="Rectangle 405367" width="2.715" height="13.043" transform="matrix(0.707, -0.707, 0.707, 0.707, 0, 1.92)" fill="#f35d4b"/>
          <g id="Group_1103229" data-name="Group 1103229" transform="translate(5.491 5.492)">
            <path id="Path_893825" data-name="Path 893825" d="M31.891,296.336l13.2,7.619-7.619-13.2Z" transform="translate(-31.891 -290.758)" fill="#f35d4b"/>
          </g>
        </g>
        <g id="Group_1103232" data-name="Group 1103232" transform="translate(89.451 302.091)">
          <rect id="Rectangle_405368" data-name="Rectangle 405368" width="17.067" height="2.715" transform="translate(7.546 12.069) rotate(-45.002)" fill="#f35d4b"/>
          <g id="Group_1103231" data-name="Group 1103231" transform="translate(0 8.336)">
            <path id="Path_893826" data-name="Path 893826" d="M77.107,292.853l-7.619,13.2,13.2-7.619Z" transform="translate(-69.488 -292.853)" fill="#f35d4b"/>
          </g>
        </g>
      </g>
    </g>
  </g>
</svg>
